<?xml version="1.0" encoding="UTF-8" standalone="no"?>
<!-- Created with Inkscape (http://www.inkscape.org/) -->

<svg
   xmlns:dc="http://purl.org/dc/elements/1.1/"
   xmlns:cc="http://creativecommons.org/ns#"
   xmlns:rdf="http://www.w3.org/1999/02/22-rdf-syntax-ns#"
   xmlns:svg="http://www.w3.org/2000/svg"
   xmlns="http://www.w3.org/2000/svg"
   xmlns:sodipodi="http://sodipodi.sourceforge.net/DTD/sodipodi-0.dtd"
   xmlns:inkscape="http://www.inkscape.org/namespaces/inkscape"
   id="svg2"
   version="1.1"
   inkscape:version="0.48.2 r9819"
   viewBox="0 0 512 512" width="512"
   height="512"
   sodipodi:docname="xy_segments.svg">
  <metadata
     id="metadata8">
    <rdf:RDF>
      <cc:Work
         rdf:about="">
        <dc:format>image/svg+xml</dc:format>
        <dc:type
           rdf:resource="http://purl.org/dc/dcmitype/StillImage" />
        <dc:title />
      </cc:Work>
    </rdf:RDF>
  </metadata>
  <defs
     id="defs6" />
  <sodipodi:namedview
     pagecolor="#ffffff"
     bordercolor="#666666"
     borderopacity="1"
     objecttolerance="10"
     gridtolerance="10"
     guidetolerance="10"
     inkscape:pageopacity="0"
     inkscape:pageshadow="2"
     inkscape:window-width="1680"
     inkscape:window-height="988"
     id="namedview4"
     showgrid="false"
     inkscape:zoom="1.140625"
     inkscape:cx="149.82251"
     inkscape:cy="198.85991"
     inkscape:window-x="1358"
     inkscape:window-y="-8"
     inkscape:window-maximized="1"
     inkscape:current-layer="svg2" />
  <g
     id="g3048"
     transform="matrix(17.577574,0,0,17.577574,-0.87671233,30.4775)">
    <rect
       y="6.9713187"
       x="19.004705"
       height="1.1236217"
       width="6.0830555"
       id="rect3007-4"
       style="fill:#ff0000;fill-opacity:1;stroke:none" />
    <rect
       transform="matrix(0,1,-1,0,0,0)"
       y="-25.126507"
       x="6.8938274"
       height="1.1236217"
       width="6.0830555"
       id="rect3007-0"
       style="fill:#ff0000;fill-opacity:1;stroke:none" />
    <path
       transform="translate(0.46494692,0.73616596)"
       d="m 26.734448,6.6226087 c 0,1.594195 -1.248982,2.8865454 -2.789681,2.8865454 -1.540699,0 -2.789681,-1.2923504 -2.789681,-2.8865454 0,-1.5941951 1.248982,-2.8865455 2.789681,-2.8865455 1.540699,0 2.789681,1.2923504 2.789681,2.8865455 z"
       sodipodi:ry="2.8865454"
       sodipodi:rx="2.7896814"
       sodipodi:cy="6.6226087"
       sodipodi:cx="23.944767"
       id="path2987"
       style="fill:#000000;fill-opacity:1;stroke:none"
       sodipodi:type="arc" />
    <path
       transform="matrix(0.7181208,0,0,0.7181208,7.2030366,2.6223144)"
       d="m 26.734448,6.6226087 c 0,1.594195 -1.248982,2.8865454 -2.789681,2.8865454 -1.540699,0 -2.789681,-1.2923504 -2.789681,-2.8865454 0,-1.5941951 1.248982,-2.8865455 2.789681,-2.8865455 1.540699,0 2.789681,1.2923504 2.789681,2.8865455 z"
       sodipodi:ry="2.8865454"
       sodipodi:rx="2.7896814"
       sodipodi:cy="6.6226087"
       sodipodi:cx="23.944767"
       id="path2987-1"
       style="fill:#ff0000;fill-opacity:1;stroke:none"
       sodipodi:type="arc" />
    <rect
       y="7.0294371"
       x="0"
       height="1.1236217"
       width="6.0830555"
       id="rect3007"
       style="fill:#ff0000;fill-opacity:1;stroke:none" />
    <rect
       y="6.9713187"
       x="8.8921099"
       height="1.1236217"
       width="6.0830555"
       id="rect3007-7"
       style="fill:#ff0000;fill-opacity:1;stroke:none" />
    <rect
       transform="matrix(0,1,-1,0,0,0)"
       y="-25.049015"
       x="16.967678"
       height="1.1236217"
       width="6.0830555"
       id="rect3007-9"
       style="fill:#ff0000;fill-opacity:1;stroke:none" />
  </g>
</svg>
