<?xml version="1.0" encoding="UTF-8" standalone="no"?>
<!-- Created with Inkscape (http://www.inkscape.org/) -->

<svg
   xmlns:dc="http://purl.org/dc/elements/1.1/"
   xmlns:cc="http://creativecommons.org/ns#"
   xmlns:rdf="http://www.w3.org/1999/02/22-rdf-syntax-ns#"
   xmlns:svg="http://www.w3.org/2000/svg"
   xmlns="http://www.w3.org/2000/svg"
   xmlns:sodipodi="http://sodipodi.sourceforge.net/DTD/sodipodi-0.dtd"
   xmlns:inkscape="http://www.inkscape.org/namespaces/inkscape"
   id="svg2"
   version="1.1"
   inkscape:version="0.48.2 r9819"
   viewBox="0 0 512 512" width="512"
   height="512"
   sodipodi:docname="geogebra_tube.svg">
  <metadata
     id="metadata8">
    <rdf:RDF>
      <cc:Work
         rdf:about="">
        <dc:format>image/svg+xml</dc:format>
        <dc:type
           rdf:resource="http://purl.org/dc/dcmitype/StillImage" />
        <dc:title />
      </cc:Work>
    </rdf:RDF>
  </metadata>
  <defs
     id="defs6" />
  <sodipodi:namedview
     pagecolor="#ffffff"
     bordercolor="#666666"
     borderopacity="1"
     objecttolerance="10"
     gridtolerance="10"
     guidetolerance="10"
     inkscape:pageopacity="0"
     inkscape:pageshadow="2"
     inkscape:window-width="1680"
     inkscape:window-height="988"
     id="namedview4"
     showgrid="false"
     inkscape:zoom="1.3037281"
     inkscape:cx="151.97814"
     inkscape:cy="252.18549"
     inkscape:window-x="1358"
     inkscape:window-y="-8"
     inkscape:window-maximized="1"
     inkscape:current-layer="svg2" />
  <g
     id="g3009">
    <g
       transform="translate(0,27.118644)"
       id="g3038">
      <path
         style="fill:#9ea1ff;fill-opacity:1;stroke:none"
         d="m 221.87197,367.77795 91.45929,-94.53356 0.76857,35.35401 49.95675,-112.21056 -62.2538,0 0.76856,23.05697 -86.8479,66.8652 z"
         id="path3030"
         inkscape:connector-curvature="0" />
      <path
         style="fill:#7d84d6;fill-opacity:1;stroke:none"
         d="m 279.56832,130.44627 -91.4593,94.53356 -0.76856,-35.35402 -49.95676,112.21057 62.2538,0 -0.76856,-23.05697 86.8479,-66.8652 z"
         id="path3030-1"
         inkscape:connector-curvature="0" />
    </g>
    <g
       id="g2992"
       transform="matrix(1.2144016,0,0,1.1819133,-65.573736,-662.62654)">
      <path
         transform="matrix(0.95664986,0.01344252,-0.18982336,0.96049072,60.522811,545.36887)"
         d="m 432.34528,250.87556 c 0,87.31008 -75.9798,158.08887 -169.70563,158.08887 -93.72583,0 -169.705629,-70.77879 -169.705629,-158.08887 0,-87.31007 75.979799,-158.088863 169.705629,-158.088863 93.72583,0 169.70563,70.778793 169.70563,158.088863 z"
         sodipodi:ry="158.08887"
         sodipodi:rx="169.70563"
         sodipodi:cy="250.87556"
         sodipodi:cx="262.63965"
         id="path3923"
         style="fill:none;stroke:#666666;stroke-width:33.33686066;stroke-linecap:round;stroke-linejoin:round;stroke-miterlimit:4;stroke-opacity:1;stroke-dasharray:none"
         sodipodi:type="arc" />
      <path
         transform="matrix(0.91220639,0,0,0.88497633,-192.4036,771.88746)"
         d="m 644.28569,145.57143 c 0,26.43077 -20.78678,47.85714 -46.42857,47.85714 -25.64179,0 -46.42857,-21.42637 -46.42857,-47.85714 0,-26.43077 20.78678,-47.857147 46.42857,-47.857147 25.64179,0 46.42857,21.426377 46.42857,47.857147 z"
         sodipodi:ry="47.857143"
         sodipodi:rx="46.42857"
         sodipodi:cy="145.57143"
         sodipodi:cx="597.85712"
         id="path3042-0"
         style="fill:#9999ff;fill-opacity:1;fill-rule:nonzero;stroke:#000000;stroke-width:15.55358315;stroke-linecap:round;stroke-linejoin:round;stroke-miterlimit:4;stroke-opacity:1;stroke-dasharray:none"
         sodipodi:type="arc" />
      <path
         transform="matrix(0.91220639,0,0,0.88497633,-122.25615,606.5878)"
         d="m 644.28569,145.57143 c 0,26.43077 -20.78678,47.85714 -46.42857,47.85714 -25.64179,0 -46.42857,-21.42637 -46.42857,-47.85714 0,-26.43077 20.78678,-47.857147 46.42857,-47.857147 25.64179,0 46.42857,21.426377 46.42857,47.857147 z"
         sodipodi:ry="47.857143"
         sodipodi:rx="46.42857"
         sodipodi:cy="145.57143"
         sodipodi:cx="597.85712"
         id="path3042-0-9"
         style="fill:#9999ff;fill-opacity:1;fill-rule:nonzero;stroke:#000000;stroke-width:15.55358315;stroke-linecap:round;stroke-linejoin:round;stroke-miterlimit:4;stroke-opacity:1;stroke-dasharray:none"
         sodipodi:type="arc" />
      <path
         transform="matrix(0.91220639,0,0,0.88497633,-376.74275,794.90043)"
         d="m 644.28569,145.57143 c 0,26.43077 -20.78678,47.85714 -46.42857,47.85714 -25.64179,0 -46.42857,-21.42637 -46.42857,-47.85714 0,-26.43077 20.78678,-47.857147 46.42857,-47.857147 25.64179,0 46.42857,21.426377 46.42857,47.857147 z"
         sodipodi:ry="47.857143"
         sodipodi:rx="46.42857"
         sodipodi:cy="145.57143"
         sodipodi:cx="597.85712"
         id="path3042-0-4"
         style="fill:#9999ff;fill-opacity:1;fill-rule:nonzero;stroke:#000000;stroke-width:15.55358315;stroke-linecap:round;stroke-linejoin:round;stroke-miterlimit:4;stroke-opacity:1;stroke-dasharray:none"
         sodipodi:type="arc" />
      <path
         transform="matrix(0.91220639,0,0,0.88497633,-435.46543,634.0343)"
         d="m 644.28569,145.57143 c 0,26.43077 -20.78678,47.85714 -46.42857,47.85714 -25.64179,0 -46.42857,-21.42637 -46.42857,-47.85714 0,-26.43077 20.78678,-47.857147 46.42857,-47.857147 25.64179,0 46.42857,21.426377 46.42857,47.857147 z"
         sodipodi:ry="47.857143"
         sodipodi:rx="46.42857"
         sodipodi:cy="145.57143"
         sodipodi:cx="597.85712"
         id="path3042-0-8"
         style="fill:#9999ff;fill-opacity:1;fill-rule:nonzero;stroke:#000000;stroke-width:15.55358315;stroke-linecap:round;stroke-linejoin:round;stroke-miterlimit:4;stroke-opacity:1;stroke-dasharray:none"
         sodipodi:type="arc" />
      <path
         transform="matrix(0.91220639,0,0,0.88497633,-289.85913,514.01166)"
         d="m 644.28569,145.57143 c 0,26.43077 -20.78678,47.85714 -46.42857,47.85714 -25.64179,0 -46.42857,-21.42637 -46.42857,-47.85714 0,-26.43077 20.78678,-47.857147 46.42857,-47.857147 25.64179,0 46.42857,21.426377 46.42857,47.857147 z"
         sodipodi:ry="47.857143"
         sodipodi:rx="46.42857"
         sodipodi:cy="145.57143"
         sodipodi:cx="597.85712"
         id="path3042-0-82"
         style="fill:#9999ff;fill-opacity:1;fill-rule:nonzero;stroke:#000000;stroke-width:15.55358315;stroke-linecap:round;stroke-linejoin:round;stroke-miterlimit:4;stroke-opacity:1;stroke-dasharray:none"
         sodipodi:type="arc" />
    </g>
  </g>
</svg>
