<?xml version="1.0" encoding="UTF-8" standalone="no"?>
<!-- Created with Inkscape (http://www.inkscape.org/) -->

<svg
   xmlns:dc="http://purl.org/dc/elements/1.1/"
   xmlns:cc="http://creativecommons.org/ns#"
   xmlns:rdf="http://www.w3.org/1999/02/22-rdf-syntax-ns#"
   xmlns:svg="http://www.w3.org/2000/svg"
   xmlns="http://www.w3.org/2000/svg"
   xmlns:sodipodi="http://sodipodi.sourceforge.net/DTD/sodipodi-0.dtd"
   xmlns:inkscape="http://www.inkscape.org/namespaces/inkscape"
   version="1.0"
   width="427"
   height="120"
   viewBox="0 0 427 120"
   id="Layer_1"
   xml:space="preserve"
   inkscape:version="0.48.2 r9819"
   sodipodi:docname="geogebra-logo-name.svg"><sodipodi:namedview
   pagecolor="#ffffff"
   bordercolor="#666666"
   borderopacity="1"
   objecttolerance="10"
   gridtolerance="10"
   guidetolerance="10"
   inkscape:pageopacity="0"
   inkscape:pageshadow="2"
   inkscape:window-width="1680"
   inkscape:window-height="988"
   id="namedview26"
   showgrid="false"
   inkscape:zoom="2.2852631"
   inkscape:cx="158.68013"
   inkscape:cy="50.717391"
   inkscape:window-x="1358"
   inkscape:window-y="-8"
   inkscape:window-maximized="1"
   inkscape:current-layer="Layer_1" /><metadata
   id="metadata3160"><rdf:RDF><cc:Work
       rdf:about=""><dc:format>image/svg+xml</dc:format><dc:type
         rdf:resource="http://purl.org/dc/dcmitype/StillImage" /><dc:title></dc:title></cc:Work></rdf:RDF></metadata><defs
   id="defs3158" />




<g
   id="g3022"><g
     id="g3162"
     transform="translate(-1.5125,-2.4415)"><g
       id="g3130"
       transform="translate(8,0)">
	<g
   id="g3132">
		<path
   style="fill:#666666"
   id="path3134"
   d="m 81.367,46.247 -3.682,3.488 c -2.648,-2.605 -5.55,-4.581 -8.704,-5.927 -3.155,-1.345 -6.229,-2.019 -9.221,-2.019 -3.725,0 -7.272,0.916 -10.642,2.745 -3.37,1.831 -5.98,4.312 -7.832,7.445 -1.852,3.133 -2.778,6.443 -2.778,9.932 0,3.574 0.958,6.971 2.875,10.189 1.916,3.219 4.564,5.749 7.945,7.59 3.38,1.841 7.083,2.762 11.11,2.762 4.888,0 9.021,-1.378 12.402,-4.135 3.38,-2.756 5.382,-6.33 6.007,-10.723 H 63.701 v -4.586 h 20.477 c -0.043,7.343 -2.224,13.172 -6.541,17.489 -4.317,4.317 -10.093,6.476 -17.327,6.476 -8.785,0 -15.74,-2.993 -20.864,-8.979 -3.94,-4.607 -5.91,-9.937 -5.91,-15.987 0,-4.5 1.13,-8.688 3.391,-12.564 2.261,-3.875 5.361,-6.906 9.302,-9.091 3.94,-2.185 8.397,-3.278 13.371,-3.278 4.026,0 7.816,0.727 11.368,2.18 3.552,1.454 7.019,3.785 10.399,6.993 z" />
		<path
   style="fill:#666666"
   id="path3136"
   d="m 122.062,74.119 3.811,2.002 c -1.25,2.455 -2.694,4.437 -4.332,5.943 -1.638,1.507 -3.48,2.653 -5.528,3.439 -2.048,0.785 -4.364,1.179 -6.95,1.179 -5.733,0 -10.215,-1.878 -13.448,-5.636 -3.233,-3.757 -4.849,-8.004 -4.849,-12.741 0,-4.457 1.368,-8.43 4.105,-11.918 3.47,-4.435 8.114,-6.653 13.933,-6.653 5.991,0 10.775,2.272 14.353,6.814 2.543,3.208 3.835,7.213 3.879,12.014 H 95.417 c 0.085,4.082 1.39,7.428 3.913,10.038 2.522,2.609 5.637,3.915 9.345,3.915 1.789,0 3.529,-0.312 5.222,-0.934 1.692,-0.621 3.131,-1.447 4.316,-2.478 1.186,-1.027 2.469,-2.689 3.849,-4.984 z m 0,-9.463 c -0.604,-2.411 -1.482,-4.339 -2.636,-5.781 -1.154,-1.442 -2.679,-2.605 -4.576,-3.488 -1.897,-0.883 -3.891,-1.324 -5.982,-1.324 -3.45,0 -6.414,1.109 -8.893,3.327 -1.811,1.615 -3.18,4.037 -4.106,7.267 h 26.193 z" />
	</g>
</g><g
       id="g3142"
       transform="translate(8,0)">
	<g
   id="g3144">
		<path
   style="fill:#666666"
   id="path3146"
   d="m 226.367,45.247 -3.682,3.488 c -2.648,-2.605 -5.551,-4.581 -8.704,-5.927 -3.155,-1.345 -6.229,-2.019 -9.221,-2.019 -3.725,0 -7.272,0.916 -10.642,2.745 -3.37,1.831 -5.98,4.312 -7.832,7.445 -1.852,3.133 -2.778,6.443 -2.778,9.932 0,3.574 0.958,6.971 2.875,10.189 1.916,3.219 4.564,5.749 7.945,7.59 3.38,1.841 7.083,2.762 11.11,2.762 4.888,0 9.021,-1.378 12.402,-4.135 3.38,-2.756 5.382,-6.33 6.007,-10.723 H 208.7 v -4.586 h 20.477 c -0.044,7.343 -2.225,13.172 -6.541,17.489 -4.316,4.317 -10.093,6.476 -17.327,6.476 -8.785,0 -15.74,-2.993 -20.864,-8.979 -3.94,-4.607 -5.91,-9.937 -5.91,-15.987 0,-4.5 1.13,-8.688 3.391,-12.564 2.261,-3.875 5.361,-6.906 9.302,-9.091 3.94,-2.185 8.397,-3.278 13.371,-3.278 4.026,0 7.816,0.727 11.368,2.18 3.553,1.454 7.019,3.785 10.4,6.993 z" />
		<path
   style="fill:#666666"
   id="path3148"
   d="m 267.062,73.119 3.812,2.002 c -1.25,2.455 -2.694,4.437 -4.332,5.943 -1.639,1.507 -3.48,2.653 -5.528,3.439 -2.048,0.785 -4.364,1.179 -6.95,1.179 -5.732,0 -10.215,-1.878 -13.447,-5.636 -3.233,-3.757 -4.85,-8.004 -4.85,-12.741 0,-4.457 1.368,-8.43 4.105,-11.918 3.469,-4.435 8.113,-6.653 13.933,-6.653 5.991,0 10.774,2.272 14.353,6.814 2.543,3.208 3.836,7.213 3.879,12.014 h -31.619 c 0.086,4.082 1.391,7.428 3.913,10.038 2.522,2.609 5.638,3.915 9.345,3.915 1.789,0 3.529,-0.312 5.223,-0.934 1.691,-0.621 3.131,-1.447 4.316,-2.478 1.183,-1.027 2.467,-2.689 3.847,-4.984 z m 0,-9.463 c -0.604,-2.411 -1.481,-4.339 -2.636,-5.781 -1.155,-1.442 -2.679,-2.605 -4.576,-3.488 -1.896,-0.883 -3.891,-1.324 -5.981,-1.324 -3.45,0 -6.414,1.109 -8.894,3.327 -1.811,1.615 -3.18,4.037 -4.105,7.267 h 26.192 z" />
		<path
   style="fill:#666666"
   id="path3150"
   d="M 280.756,84.778 V 36.074 h 4.521 v 19.604 c 1.893,-2.326 4.012,-4.064 6.355,-5.216 2.346,-1.151 4.915,-1.728 7.712,-1.728 4.969,0 9.212,1.803 12.728,5.41 3.518,3.606 5.276,7.982 5.276,13.129 0,5.082 -1.774,9.42 -5.324,13.016 -3.55,3.596 -7.819,5.394 -12.809,5.394 -2.86,0 -5.452,-0.613 -7.776,-1.841 -2.322,-1.228 -4.377,-3.068 -6.162,-5.522 v 6.459 h -4.521 z m 18.086,-3.456 c 2.514,0 4.834,-0.618 6.961,-1.856 2.126,-1.238 3.817,-2.977 5.074,-5.217 1.256,-2.238 1.885,-4.607 1.885,-7.104 0,-2.498 -0.633,-4.877 -1.9,-7.138 -1.268,-2.261 -2.97,-4.021 -5.107,-5.281 -2.138,-1.259 -4.42,-1.889 -6.848,-1.889 -2.471,0 -4.816,0.63 -7.04,1.889 -2.224,1.26 -3.931,2.956 -5.124,5.087 -1.191,2.132 -1.787,4.533 -1.787,7.202 0,4.069 1.336,7.472 4.011,10.206 2.675,2.734 5.965,4.101 9.875,4.101 z" />
		<path
   style="fill:#666666"
   id="path3152"
   d="m 323.873,49.639 h 4.618 v 5.135 c 1.378,-2.024 2.831,-3.537 4.36,-4.538 1.528,-1.001 3.121,-1.501 4.779,-1.501 1.248,0 2.584,0.398 4.005,1.195 l -2.357,3.811 c -0.948,-0.409 -1.744,-0.614 -2.39,-0.614 -1.508,0 -2.961,0.619 -4.36,1.857 -1.399,1.238 -2.466,3.16 -3.198,5.765 -0.56,2.003 -0.839,6.051 -0.839,12.144 v 11.886 h -4.618 v -35.14 z" />
		<path
   style="fill:#666666"
   id="path3154"
   d="m 380.489,49.639 v 35.139 h -4.457 v -6.04 c -1.895,2.305 -4.021,4.038 -6.379,5.2 -2.357,1.163 -4.937,1.744 -7.734,1.744 -4.974,0 -9.222,-1.803 -12.741,-5.41 -3.521,-3.605 -5.281,-7.993 -5.281,-13.161 0,-5.06 1.776,-9.387 5.329,-12.983 3.553,-3.596 7.827,-5.394 12.822,-5.394 2.885,0 5.495,0.613 7.832,1.841 2.336,1.227 4.387,3.068 6.152,5.523 v -6.459 h 4.457 z m -18.07,3.456 c -2.516,0 -4.839,0.619 -6.968,1.855 -2.13,1.237 -3.823,2.974 -5.082,5.21 -1.258,2.236 -1.887,4.603 -1.887,7.097 0,2.474 0.635,4.84 1.903,7.098 1.268,2.258 2.974,4.017 5.113,5.274 2.14,1.259 4.436,1.888 6.888,1.888 2.474,0 4.817,-0.624 7.033,-1.871 2.215,-1.248 3.919,-2.936 5.112,-5.065 1.193,-2.129 1.791,-4.526 1.791,-7.193 0,-4.064 -1.339,-7.463 -4.017,-10.195 -2.676,-2.732 -5.972,-4.098 -9.886,-4.098 z" />
	</g>
</g></g><g
     id="g2992"
     transform="matrix(0.10946852,0,0,0.10653994,130.68306,-17.685585)"><path
       transform="matrix(0.95664986,0.01344252,-0.18982336,0.96049072,60.522811,545.36887)"
       d="m 432.34528,250.87556 c 0,87.31008 -75.9798,158.08887 -169.70563,158.08887 -93.72583,0 -169.705629,-70.77879 -169.705629,-158.08887 0,-87.31007 75.979799,-158.088863 169.705629,-158.088863 93.72583,0 169.70563,70.778793 169.70563,158.088863 z"
       sodipodi:ry="158.08887"
       sodipodi:rx="169.70563"
       sodipodi:cy="250.87556"
       sodipodi:cx="262.63965"
       id="path3923"
       style="fill:none;stroke:#666666;stroke-width:33.33686066;stroke-linecap:round;stroke-linejoin:round;stroke-miterlimit:4;stroke-opacity:1;stroke-dasharray:none"
       sodipodi:type="arc" /><path
       transform="matrix(0.91220639,0,0,0.88497633,-192.4036,771.88746)"
       d="m 644.28569,145.57143 c 0,26.43077 -20.78678,47.85714 -46.42857,47.85714 -25.64179,0 -46.42857,-21.42637 -46.42857,-47.85714 0,-26.43077 20.78678,-47.857147 46.42857,-47.857147 25.64179,0 46.42857,21.426377 46.42857,47.857147 z"
       sodipodi:ry="47.857143"
       sodipodi:rx="46.42857"
       sodipodi:cy="145.57143"
       sodipodi:cx="597.85712"
       id="path3042-0"
       style="fill:#9999ff;fill-opacity:1;fill-rule:nonzero;stroke:#000000;stroke-width:15.55358315;stroke-linecap:round;stroke-linejoin:round;stroke-miterlimit:4;stroke-opacity:1;stroke-dasharray:none"
       sodipodi:type="arc" /><path
       transform="matrix(0.91220639,0,0,0.88497633,-122.25615,606.5878)"
       d="m 644.28569,145.57143 c 0,26.43077 -20.78678,47.85714 -46.42857,47.85714 -25.64179,0 -46.42857,-21.42637 -46.42857,-47.85714 0,-26.43077 20.78678,-47.857147 46.42857,-47.857147 25.64179,0 46.42857,21.426377 46.42857,47.857147 z"
       sodipodi:ry="47.857143"
       sodipodi:rx="46.42857"
       sodipodi:cy="145.57143"
       sodipodi:cx="597.85712"
       id="path3042-0-9"
       style="fill:#9999ff;fill-opacity:1;fill-rule:nonzero;stroke:#000000;stroke-width:15.55358315;stroke-linecap:round;stroke-linejoin:round;stroke-miterlimit:4;stroke-opacity:1;stroke-dasharray:none"
       sodipodi:type="arc" /><path
       transform="matrix(0.91220639,0,0,0.88497633,-376.74275,794.90043)"
       d="m 644.28569,145.57143 c 0,26.43077 -20.78678,47.85714 -46.42857,47.85714 -25.64179,0 -46.42857,-21.42637 -46.42857,-47.85714 0,-26.43077 20.78678,-47.857147 46.42857,-47.857147 25.64179,0 46.42857,21.426377 46.42857,47.857147 z"
       sodipodi:ry="47.857143"
       sodipodi:rx="46.42857"
       sodipodi:cy="145.57143"
       sodipodi:cx="597.85712"
       id="path3042-0-4"
       style="fill:#9999ff;fill-opacity:1;fill-rule:nonzero;stroke:#000000;stroke-width:15.55358315;stroke-linecap:round;stroke-linejoin:round;stroke-miterlimit:4;stroke-opacity:1;stroke-dasharray:none"
       sodipodi:type="arc" /><path
       transform="matrix(0.91220639,0,0,0.88497633,-435.46543,634.0343)"
       d="m 644.28569,145.57143 c 0,26.43077 -20.78678,47.85714 -46.42857,47.85714 -25.64179,0 -46.42857,-21.42637 -46.42857,-47.85714 0,-26.43077 20.78678,-47.857147 46.42857,-47.857147 25.64179,0 46.42857,21.426377 46.42857,47.857147 z"
       sodipodi:ry="47.857143"
       sodipodi:rx="46.42857"
       sodipodi:cy="145.57143"
       sodipodi:cx="597.85712"
       id="path3042-0-8"
       style="fill:#9999ff;fill-opacity:1;fill-rule:nonzero;stroke:#000000;stroke-width:15.55358315;stroke-linecap:round;stroke-linejoin:round;stroke-miterlimit:4;stroke-opacity:1;stroke-dasharray:none"
       sodipodi:type="arc" /><path
       transform="matrix(0.91220639,0,0,0.88497633,-289.85913,514.01166)"
       d="m 644.28569,145.57143 c 0,26.43077 -20.78678,47.85714 -46.42857,47.85714 -25.64179,0 -46.42857,-21.42637 -46.42857,-47.85714 0,-26.43077 20.78678,-47.857147 46.42857,-47.857147 25.64179,0 46.42857,21.426377 46.42857,47.857147 z"
       sodipodi:ry="47.857143"
       sodipodi:rx="46.42857"
       sodipodi:cy="145.57143"
       sodipodi:cx="597.85712"
       id="path3042-0-82"
       style="fill:#9999ff;fill-opacity:1;fill-rule:nonzero;stroke:#000000;stroke-width:15.55358315;stroke-linecap:round;stroke-linejoin:round;stroke-miterlimit:4;stroke-opacity:1;stroke-dasharray:none"
       sodipodi:type="arc" /></g></g></svg>