<?xml version="1.0" encoding="UTF-8" standalone="no"?>
<!-- Created with Inkscape (http://www.inkscape.org/) -->

<svg
   xmlns:dc="http://purl.org/dc/elements/1.1/"
   xmlns:cc="http://creativecommons.org/ns#"
   xmlns:rdf="http://www.w3.org/1999/02/22-rdf-syntax-ns#"
   xmlns:svg="http://www.w3.org/2000/svg"
   xmlns="http://www.w3.org/2000/svg"
   xmlns:sodipodi="http://sodipodi.sourceforge.net/DTD/sodipodi-0.dtd"
   xmlns:inkscape="http://www.inkscape.org/namespaces/inkscape"
   width="512"
   height="512"
   id="svg2"
   version="1.1"
   inkscape:version="0.48.2 r9819"
   sodipodi:docname="geogebra-logo.svg">
  <defs
     id="defs4">
    <clipPath
       clipPathUnits="userSpaceOnUse"
       id="clipPath3092">
      <path
         d="M 0,0 427,0 427,120 0,120 0,0 z"
         id="path3094"
         inkscape:connector-curvature="0" />
    </clipPath>
  </defs>
  <sodipodi:namedview
     id="base"
     pagecolor="#ffffff"
     bordercolor="#666666"
     borderopacity="1.0"
     inkscape:pageopacity="0.0"
     inkscape:pageshadow="2"
     inkscape:zoom="0.98994949"
     inkscape:cx="193.00447"
     inkscape:cy="275.15518"
     inkscape:document-units="px"
     inkscape:current-layer="g3926"
     showgrid="false"
     inkscape:window-width="1680"
     inkscape:window-height="988"
     inkscape:window-x="1358"
     inkscape:window-y="-8"
     inkscape:window-maximized="1" />
  <metadata
     id="metadata7">
    <rdf:RDF>
      <cc:Work
         rdf:about="">
        <dc:format>image/svg+xml</dc:format>
        <dc:type
           rdf:resource="http://purl.org/dc/dcmitype/StillImage" />
        <dc:title />
      </cc:Work>
    </rdf:RDF>
  </metadata>
  <g
     inkscape:label="Ebene 1"
     inkscape:groupmode="layer"
     id="layer1"
     transform="translate(0,-540.36218)">
    <g
       transform="matrix(8.6883434,0,0,-8.6883434,-1556.5077,1274.3718)"
       id="g3088" />
    <g
       id="g3926"
       transform="matrix(1.0616291,0,0,1.0332278,-21.328835,-14.377521)">
      <g
         id="g2992">
        <path
           sodipodi:type="arc"
           style="fill:none;stroke:#666666;stroke-width:33.33686066;stroke-linecap:round;stroke-linejoin:round;stroke-miterlimit:4;stroke-opacity:1;stroke-dasharray:none"
           id="path3923"
           sodipodi:cx="262.63965"
           sodipodi:cy="250.87556"
           sodipodi:rx="169.70563"
           sodipodi:ry="158.08887"
           d="m 432.34528,250.87556 c 0,87.31008 -75.9798,158.08887 -169.70563,158.08887 -93.72583,0 -169.705629,-70.77879 -169.705629,-158.08887 0,-87.31007 75.979799,-158.088863 169.705629,-158.088863 93.72583,0 169.70563,70.778793 169.70563,158.088863 z"
           transform="matrix(0.95664986,0.01344252,-0.18982336,0.96049072,60.522811,545.36887)" />
        <path
           sodipodi:type="arc"
           style="fill:#9999ff;fill-opacity:1;fill-rule:nonzero;stroke:#000000;stroke-width:15.55358315;stroke-linecap:round;stroke-linejoin:round;stroke-miterlimit:4;stroke-opacity:1;stroke-dasharray:none"
           id="path3042-0"
           sodipodi:cx="597.85712"
           sodipodi:cy="145.57143"
           sodipodi:rx="46.42857"
           sodipodi:ry="47.857143"
           d="m 644.28569,145.57143 c 0,26.43077 -20.78678,47.85714 -46.42857,47.85714 -25.64179,0 -46.42857,-21.42637 -46.42857,-47.85714 0,-26.43077 20.78678,-47.857147 46.42857,-47.857147 25.64179,0 46.42857,21.426377 46.42857,47.857147 z"
           transform="matrix(0.91220639,0,0,0.88497633,-192.4036,771.88746)" />
        <path
           sodipodi:type="arc"
           style="fill:#9999ff;fill-opacity:1;fill-rule:nonzero;stroke:#000000;stroke-width:15.55358315;stroke-linecap:round;stroke-linejoin:round;stroke-miterlimit:4;stroke-opacity:1;stroke-dasharray:none"
           id="path3042-0-9"
           sodipodi:cx="597.85712"
           sodipodi:cy="145.57143"
           sodipodi:rx="46.42857"
           sodipodi:ry="47.857143"
           d="m 644.28569,145.57143 c 0,26.43077 -20.78678,47.85714 -46.42857,47.85714 -25.64179,0 -46.42857,-21.42637 -46.42857,-47.85714 0,-26.43077 20.78678,-47.857147 46.42857,-47.857147 25.64179,0 46.42857,21.426377 46.42857,47.857147 z"
           transform="matrix(0.91220639,0,0,0.88497633,-122.25615,606.5878)" />
        <path
           sodipodi:type="arc"
           style="fill:#9999ff;fill-opacity:1;fill-rule:nonzero;stroke:#000000;stroke-width:15.55358315;stroke-linecap:round;stroke-linejoin:round;stroke-miterlimit:4;stroke-opacity:1;stroke-dasharray:none"
           id="path3042-0-4"
           sodipodi:cx="597.85712"
           sodipodi:cy="145.57143"
           sodipodi:rx="46.42857"
           sodipodi:ry="47.857143"
           d="m 644.28569,145.57143 c 0,26.43077 -20.78678,47.85714 -46.42857,47.85714 -25.64179,0 -46.42857,-21.42637 -46.42857,-47.85714 0,-26.43077 20.78678,-47.857147 46.42857,-47.857147 25.64179,0 46.42857,21.426377 46.42857,47.857147 z"
           transform="matrix(0.91220639,0,0,0.88497633,-376.74275,794.90043)" />
        <path
           sodipodi:type="arc"
           style="fill:#9999ff;fill-opacity:1;fill-rule:nonzero;stroke:#000000;stroke-width:15.55358315;stroke-linecap:round;stroke-linejoin:round;stroke-miterlimit:4;stroke-opacity:1;stroke-dasharray:none"
           id="path3042-0-8"
           sodipodi:cx="597.85712"
           sodipodi:cy="145.57143"
           sodipodi:rx="46.42857"
           sodipodi:ry="47.857143"
           d="m 644.28569,145.57143 c 0,26.43077 -20.78678,47.85714 -46.42857,47.85714 -25.64179,0 -46.42857,-21.42637 -46.42857,-47.85714 0,-26.43077 20.78678,-47.857147 46.42857,-47.857147 25.64179,0 46.42857,21.426377 46.42857,47.857147 z"
           transform="matrix(0.91220639,0,0,0.88497633,-435.46543,634.0343)" />
        <path
           sodipodi:type="arc"
           style="fill:#9999ff;fill-opacity:1;fill-rule:nonzero;stroke:#000000;stroke-width:15.55358315;stroke-linecap:round;stroke-linejoin:round;stroke-miterlimit:4;stroke-opacity:1;stroke-dasharray:none"
           id="path3042-0-82"
           sodipodi:cx="597.85712"
           sodipodi:cy="145.57143"
           sodipodi:rx="46.42857"
           sodipodi:ry="47.857143"
           d="m 644.28569,145.57143 c 0,26.43077 -20.78678,47.85714 -46.42857,47.85714 -25.64179,0 -46.42857,-21.42637 -46.42857,-47.85714 0,-26.43077 20.78678,-47.857147 46.42857,-47.857147 25.64179,0 46.42857,21.426377 46.42857,47.857147 z"
           transform="matrix(0.91220639,0,0,0.88497633,-289.85913,514.01166)" />
      </g>
    </g>
  </g>
</svg>
