<?xml version="1.0" encoding="UTF-8" standalone="no"?>
<!-- Created with Inkscape (http://www.inkscape.org/) -->

<svg
   xmlns:dc="http://purl.org/dc/elements/1.1/"
   xmlns:cc="http://creativecommons.org/ns#"
   xmlns:rdf="http://www.w3.org/1999/02/22-rdf-syntax-ns#"
   xmlns:svg="http://www.w3.org/2000/svg"
   xmlns="http://www.w3.org/2000/svg"
   xmlns:xlink="http://www.w3.org/1999/xlink"
   xmlns:sodipodi="http://sodipodi.sourceforge.net/DTD/sodipodi-0.dtd"
   xmlns:inkscape="http://www.inkscape.org/namespaces/inkscape"
   id="svg2985"
   version="1.1"
   inkscape:version="0.48.2 r9819"
   viewBox="0 0 512 512" width="512"
   height="512"
   sodipodi:docname="help.svg">
  <metadata
     id="metadata2991">
    <rdf:RDF>
      <cc:Work
         rdf:about="">
        <dc:format>image/svg+xml</dc:format>
        <dc:type
           rdf:resource="http://purl.org/dc/dcmitype/StillImage" />
        <dc:title />
      </cc:Work>
    </rdf:RDF>
  </metadata>
  <defs
     id="defs2989">
    <linearGradient
       inkscape:collect="always"
       id="linearGradient3775">
      <stop
         style="stop-color:#2757b6;stop-opacity:1;"
         offset="0"
         id="stop3777" />
      <stop
         style="stop-color:#477fc9;stop-opacity:1"
         offset="1"
         id="stop3779" />
    </linearGradient>
    <linearGradient
       inkscape:collect="always"
       xlink:href="#linearGradient3775"
       id="linearGradient3781"
       x1="3.9197764"
       y1="4.4273968"
       x2="5.244246"
       y2="6.3248391"
       gradientUnits="userSpaceOnUse" />
    <linearGradient
       inkscape:collect="always"
       xlink:href="#linearGradient3775-7"
       id="linearGradient3781-1"
       x1="3.9197764"
       y1="4.4273968"
       x2="5.244246"
       y2="6.3248391"
       gradientUnits="userSpaceOnUse" />
    <linearGradient
       inkscape:collect="always"
       id="linearGradient3775-7">
      <stop
         style="stop-color:#2757b6;stop-opacity:1;"
         offset="0"
         id="stop3777-4" />
      <stop
         style="stop-color:#477fc9;stop-opacity:1"
         offset="1"
         id="stop3779-0" />
    </linearGradient>
    <linearGradient
       inkscape:collect="always"
       xlink:href="#linearGradient3775"
       id="linearGradient3001"
       gradientUnits="userSpaceOnUse"
       x1="3.9197764"
       y1="4.4273968"
       x2="5.244246"
       y2="6.3248391" />
  </defs>
  <sodipodi:namedview
     pagecolor="#ffffff"
     bordercolor="#666666"
     borderopacity="1"
     objecttolerance="10"
     gridtolerance="10"
     guidetolerance="10"
     inkscape:pageopacity="0"
     inkscape:pageshadow="2"
     inkscape:window-width="1680"
     inkscape:window-height="988"
     id="namedview2987"
     showgrid="false"
     inkscape:zoom="0.921875"
     inkscape:cx="8.7193293"
     inkscape:cy="274.43061"
     inkscape:window-x="1358"
     inkscape:window-y="-8"
     inkscape:window-maximized="1"
     inkscape:current-layer="g2994" />
  <g
     id="g2994"
     transform="matrix(29.278243,0,0,29.278243,22.186163,-14501.472)">
    <g
       id="g2999">
      <path
         sodipodi:type="arc"
         style="fill:none;stroke:none"
         id="path2999"
         sodipodi:cx="8.0658112"
         sodipodi:cy="8.0420523"
         sodipodi:rx="8.0418415"
         sodipodi:ry="8.005887"
         d="m 16.107653,8.0420523 c 0,4.4215297 -3.600455,8.0058867 -8.0418418,8.0058867 -4.4413865,0 -8.04184155,-3.584357 -8.04184155,-8.0058867 0,-4.4215293 3.60045505,-8.00588706 8.04184155,-8.00588706 4.4413868,0 8.0418418,3.58435776 8.0418418,8.00588706 z"
         transform="translate(0,496)" />
      <path
         sodipodi:type="arc"
         style="fill:url(#linearGradient3001);fill-opacity:1;stroke:none"
         id="path3001"
         sodipodi:cx="4.7819595"
         sodipodi:cy="5.6091256"
         sodipodi:rx="1.7378048"
         sodipodi:ry="1.6658956"
         d="m 6.5197643,5.6091256 c 0,0.9200487 -0.7780417,1.6658956 -1.7378048,1.6658956 -0.959763,0 -1.7378047,-0.7458469 -1.7378047,-1.6658956 0,-0.9200487 0.7780417,-1.6658956 1.7378047,-1.6658956 0.9597631,0 1.7378048,0.7458469 1.7378048,1.6658956 z"
         transform="matrix(4.6068966,0,0,4.8057556,-13.956309,477.062)" />
      <g
         id="text3771"
         style="font-size:14.4723978px;font-style:normal;font-variant:normal;font-weight:normal;font-stretch:normal;line-height:125%;letter-spacing:0px;word-spacing:0px;fill:#ffffff;fill-opacity:1;stroke:none;font-family:FreeUniversal;-inkscape-font-specification:FreeUniversal"
         transform="scale(1.0721552,0.93270078)">
        <path
           id="path2997"
           style=""
           d="m 10.752341,537.79583 c -7e-6,0.37689 -0.09894,0.73964 -0.296797,1.08825 -0.197871,0.34863 -0.440491,0.65014 -0.7278599,0.90453 -0.2873805,0.2544 -0.5747553,0.49231 -0.8621253,0.71373 -0.2873796,0.22142 -0.5299993,0.4452 -0.7278599,0.67132 -0.1978686,0.22614 -0.2968009,0.43814 -0.2967972,0.636 l 0,1.62532 -1.1589225,0 0,-1.85145 c -2.5e-6,-0.19786 0.091863,-0.40044 0.2755975,-0.60773 0.1837285,-0.20728 0.4027929,-0.41221 0.6571938,-0.6148 0.2543939,-0.20257 0.5111467,-0.42163 0.7702595,-0.65719 0.2591041,-0.23555 0.480524,-0.52292 0.6642604,-0.86212 0.1837265,-0.33919 0.2755922,-0.70195 0.2755974,-1.08826 -5.2e-6,-0.37688 -0.17667,-0.67839 -0.529995,-0.90453 -0.3533344,-0.22612 -0.7796855,-0.32976 -1.2790547,-0.31093 -0.2261344,0.009 -0.3886661,0.0165 -0.4875954,0.0212 -0.098935,0.005 -0.2402671,0.0283 -0.4239961,0.0707 -0.1837339,0.0424 -0.3297768,0.1013 -0.4381292,0.17666 -0.1083565,0.0754 -0.2331996,0.18374 -0.3745298,0.32507 -0.1413336,0.14134 -0.2685323,0.32036 -0.3815964,0.53706 L 4.4630667,537.0609 c 0.6501262,-1.26255 1.6582935,-1.89384 3.024505,-1.89385 0.8668321,10e-6 1.6276686,0.23792 2.282512,0.71373 0.6548323,0.47583 0.9822503,1.11418 0.9822573,1.91505 z m -2.7701073,8.02766 -1.4415865,0 0,-1.37092 1.4415865,0 z" />
      </g>
      <path
         sodipodi:type="arc"
         style="fill:none;stroke:#ffffff;stroke-width:0.35285234;stroke-miterlimit:4;stroke-opacity:1;stroke-dasharray:none"
         id="path3001-9"
         sodipodi:cx="4.7819595"
         sodipodi:cy="5.6091256"
         sodipodi:rx="1.7378048"
         sodipodi:ry="1.6658956"
         d="m 6.5197643,5.6091256 c 0,0.9200487 -0.7780417,1.6658956 -1.7378048,1.6658956 -0.959763,0 -1.7378047,-0.7458469 -1.7378047,-1.6658956 0,-0.9200487 0.7780417,-1.6658956 1.7378047,-1.6658956 0.9597631,0 1.7378048,0.7458469 1.7378048,1.6658956 z"
         transform="matrix(3.8695435,0,0,4.0365741,-10.485598,481.41065)" />
    </g>
  </g>
</svg>
