<?xml version="1.0" encoding="UTF-8" standalone="no"?>
<!-- Created with Inkscape (http://www.inkscape.org/) -->

<svg
   xmlns:dc="http://purl.org/dc/elements/1.1/"
   xmlns:cc="http://creativecommons.org/ns#"
   xmlns:rdf="http://www.w3.org/1999/02/22-rdf-syntax-ns#"
   xmlns:svg="http://www.w3.org/2000/svg"
   xmlns="http://www.w3.org/2000/svg"
   xmlns:xlink="http://www.w3.org/1999/xlink"
   xmlns:sodipodi="http://sodipodi.sourceforge.net/DTD/sodipodi-0.dtd"
   xmlns:inkscape="http://www.inkscape.org/namespaces/inkscape"
   id="svg2985"
   version="1.1"
   inkscape:version="0.48.2 r9819"
   viewBox="0 0 512 512" width="512"
   height="512"
   sodipodi:docname="font_size.svg">
  <metadata
     id="metadata2991">
    <rdf:RDF>
      <cc:Work
         rdf:about="">
        <dc:format>image/svg+xml</dc:format>
        <dc:type
           rdf:resource="http://purl.org/dc/dcmitype/StillImage" />
        <dc:title />
      </cc:Work>
    </rdf:RDF>
  </metadata>
  <defs
     id="defs2989">
    <linearGradient
       inkscape:collect="always"
       id="linearGradient3943">
      <stop
         style="stop-color:#3d6eaa;stop-opacity:1;"
         offset="0"
         id="stop3945" />
      <stop
         style="stop-color:#3d6eaa;stop-opacity:0;"
         offset="1"
         id="stop3947" />
    </linearGradient>
    <linearGradient
       inkscape:collect="always"
       xlink:href="#linearGradient3943"
       id="linearGradient3949"
       x1="10.237288"
       y1="10.101695"
       x2="-3.2542372"
       y2="-3.5254238"
       gradientUnits="userSpaceOnUse" />
  </defs>
  <sodipodi:namedview
     pagecolor="#ffffff"
     bordercolor="#666666"
     borderopacity="1"
     objecttolerance="10"
     gridtolerance="10"
     guidetolerance="10"
     inkscape:pageopacity="0"
     inkscape:pageshadow="2"
     inkscape:window-width="1680"
     inkscape:window-height="988"
     id="namedview2987"
     showgrid="false"
     inkscape:zoom="0.921875"
     inkscape:cx="130.20693"
     inkscape:cy="245.77891"
     inkscape:window-x="1358"
     inkscape:window-y="-8"
     inkscape:window-maximized="1"
     inkscape:current-layer="svg2985" />
  <g
     id="g3951"
     transform="matrix(32.015426,0,0,32.015426,-0.14998761,-0.52061164)">
    <rect
       y="0.48496595"
       x="0.48622677"
       height="15.042471"
       width="15.027225"
       id="rect2995"
       style="fill:none;stroke:#888a85;stroke-width:0.96278173;stroke-linecap:butt;stroke-linejoin:round;stroke-miterlimit:4;stroke-opacity:1;stroke-dasharray:none" />
    <path
       id="path3765"
       d="M 2.5,1.875 C 2.1556713,1.875 1.875,2.15761 1.875,2.5 1.875,2.84239 2.1556713,3.125 2.5,3.125 2.8443287,3.125 3.125,2.84239 3.125,2.5 3.125,2.15761 2.8443287,1.875 2.5,1.875 z m 1.96875,0 c -0.3443287,0 -0.625,0.28261 -0.625,0.625 0,0.34239 0.2806713,0.625 0.625,0.625 0.3443287,0 0.625,-0.28261 0.625,-0.625 0,-0.34239 -0.2806713,-0.625 -0.625,-0.625 z M 6.5,1.875 C 6.1556713,1.875 5.875,2.15761 5.875,2.5 5.875,2.84239 6.1556713,3.125 6.5,3.125 6.8443287,3.125 7.125,2.84239 7.125,2.5 7.125,2.15761 6.8443287,1.875 6.5,1.875 z m 2,0 C 8.413918,1.875 8.32459,1.906129 8.25,1.9375 8.02623,2.0316138 7.875,2.2432075 7.875,2.5 c 0,0.2567925 0.15123,0.4996362 0.375,0.59375 L 2.84375,13 2,13 l 0,1 4,0 0,-1 -1,0 1.65625,-3.03125 2.8125,0 L 9.9375,13 8,13 l 0,1 6,0 0,-1 -1.25,0 -1.65625,-11.0625 -2.375,0 C 8.64416,1.9061287 8.5860822,1.875 8.5,1.875 z m -6,2 C 2.1556713,3.875 1.875,4.15761 1.875,4.5 1.875,4.84239 2.1556713,5.125 2.5,5.125 2.8443287,5.125 3.125,4.84239 3.125,4.5 3.125,4.15761 2.8443287,3.875 2.5,3.875 z m 0,2.03125 c -0.3443287,0 -0.625,0.28261 -0.625,0.625 0,0.34239 0.2806713,0.625 0.625,0.625 0.3443287,0 0.625,-0.28261 0.625,-0.625 0,-0.34239 -0.2806713,-0.625 -0.625,-0.625 z m 6.34375,0.03125 0.46875,3.03125 -2.125,0 L 8.84375,5.9375 z M 2.5,7.875 C 2.1556713,7.875 1.875,8.15761 1.875,8.5 1.875,8.84239 2.1556713,9.125 2.5,9.125 2.8443287,9.125 3.125,8.84239 3.125,8.5 3.125,8.15761 2.8443287,7.875 2.5,7.875 z m 0,2 c -0.3443287,0 -0.625,0.28261 -0.625,0.625 0,0.34239 0.2806713,0.625 0.625,0.625 0.3443287,0 0.625,-0.28261 0.625,-0.625 0,-0.34239 -0.2806713,-0.625 -0.625,-0.625 z"
       style="fill:url(#linearGradient3949);fill-opacity:1;stroke:none"
       inkscape:connector-curvature="0" />
    <text
       transform="scale(0.86335932,1.1582663)"
       sodipodi:linespacing="125%"
       id="text3827"
       y="11.90209"
       x="4.3086348"
       style="font-size:23.50390434px;font-style:oblique;font-variant:normal;font-weight:normal;font-stretch:normal;line-height:125%;letter-spacing:0px;word-spacing:0px;fill:#000000;fill-opacity:1;stroke:none;font-family:FreeUniversal;-inkscape-font-specification:FreeUniversal"
       xml:space="preserve"><tspan
         y="11.90209"
         x="4.3086348"
         id="tspan3829"
         sodipodi:role="line" /></text>
  </g>
</svg>
