<?xml version="1.0" encoding="utf-8"?>
<!-- Generator: Adobe Illustrator 15.1.0, SVG Export Plug-In . SVG Version: 6.00 Build 0)  -->
<!DOCTYPE svg PUBLIC "-//W3C//DTD SVG 1.1//EN" "http://www.w3.org/Graphics/SVG/1.1/DTD/svg11.dtd">
<svg version="1.1"
	 id="svg2985" xmlns:osb="http://www.openswatchbook.org/uri/2009/osb" xmlns:dc="http://purl.org/dc/elements/1.1/" xmlns:cc="http://creativecommons.org/ns#" xmlns:rdf="http://www.w3.org/1999/02/22-rdf-syntax-ns#" xmlns:svg="http://www.w3.org/2000/svg" xmlns:sodipodi="http://sodipodi.sourceforge.net/DTD/sodipodi-0.dtd" xmlns:inkscape="http://www.inkscape.org/namespaces/inkscape" sodipodi:docname="redo.svg" inkscape:version="0.48.2 r9819"
	 xmlns="http://www.w3.org/2000/svg" xmlns:xlink="http://www.w3.org/1999/xlink" x="0px" y="0px" width="23px" height="26px"
	 viewBox="-155 543.5 23 26" enable-background="new -155 543.5 23 26" xml:space="preserve">
<sodipodi:namedview  id="namedview2987" inkscape:cy="259.5554" inkscape:cx="6.5331989" inkscape:zoom="0.63252913" showgrid="false" guidetolerance="10" gridtolerance="10" objecttolerance="10" borderopacity="1" bordercolor="#666666" pagecolor="#ffffff" inkscape:window-maximized="1" inkscape:current-layer="svg2985" inkscape:window-y="-8" inkscape:window-x="1358" inkscape:window-height="988" inkscape:window-width="1680" inkscape:pageshadow="2" inkscape:pageopacity="0">
	</sodipodi:namedview>
<linearGradient id="path2995_1_" gradientUnits="userSpaceOnUse" x1="-151.188" y1="551.8049" x2="-141.2933" y2="561.6996">
	<stop  offset="0" style="stop-color:#FFFFFF"/>
	<stop  offset="0.3492" style="stop-color:#F7F7F7"/>
	<stop  offset="0.8881" style="stop-color:#E1E1E1"/>
	<stop  offset="1" style="stop-color:#DCDCDC"/>
</linearGradient>
<path id="path2995" inkscape:connector-curvature="0" sodipodi:nodetypes="cccccaasssaasssscccc" fill="url(#path2995_1_)" stroke="#CCCCCC" stroke-linejoin="round" d="
	M-141.705,561.893c2.853-2.789,5.794-5.494,8.557-8.37c0.488-0.459-0.383-0.772-0.615-1.141c-2.695-2.627-5.392-5.254-8.088-7.882
	c-0.023,1.487,0.048,2.802-0.032,4.267c-2.063-0.073-3.661,0.086-5.374,0.653c-1.308,0.433-2.588,1.099-3.587,2.046
	c-1.123,1.063-2.027,2.436-2.513,3.899c-0.392,1.179-0.637,3.433-0.64,5.169c-0.002,1.493,0.068,3.029,0.536,4.447
	c0.365,1.105,0.692,2.501,1.727,3.033c1.229,0.633,3.473,0.793,4.125-0.426c0.618-1.158,0.229-0.108-1.843-3.48
	c-0.457-0.742-0.776-2.401-0.616-3.258c0.203-1.083,0.732-2.263,1.667-2.868c0.836-0.542,2.543-0.673,3.602-0.72
	c1.285-0.057,1.935,0.036,3.001-0.012c0.19,1.08,0.047,2.292,0.106,3.42C-141.696,561.078-141.686,561.487-141.705,561.893
	L-141.705,561.893z"/>
</svg>
