<?xml version="1.0" encoding="utf-8"?>
<!-- Generator: Adobe Illustrator 15.1.0, SVG Export Plug-In . SVG Version: 6.00 Build 0)  -->
<!DOCTYPE svg PUBLIC "-//W3C//DTD SVG 1.1//EN" "http://www.w3.org/Graphics/SVG/1.1/DTD/svg11.dtd">
<svg version="1.1"
	 id="svg2985" xmlns:osb="http://www.openswatchbook.org/uri/2009/osb" xmlns:dc="http://purl.org/dc/elements/1.1/" xmlns:cc="http://creativecommons.org/ns#" xmlns:rdf="http://www.w3.org/1999/02/22-rdf-syntax-ns#" xmlns:svg="http://www.w3.org/2000/svg" xmlns:sodipodi="http://sodipodi.sourceforge.net/DTD/sodipodi-0.dtd" xmlns:inkscape="http://www.inkscape.org/namespaces/inkscape" sodipodi:docname="redo.svg" inkscape:version="0.48.2 r9819"
	 xmlns="http://www.w3.org/2000/svg" xmlns:xlink="http://www.w3.org/1999/xlink" x="0px" y="0px" width="23px" height="26px"
	 viewBox="-155 543.5 23 26" enable-background="new -155 543.5 23 26" xml:space="preserve">
<sodipodi:namedview  id="namedview2987" inkscape:cy="259.5554" inkscape:cx="6.5331989" inkscape:zoom="0.63252913" showgrid="false" guidetolerance="10" gridtolerance="10" objecttolerance="10" borderopacity="1" bordercolor="#666666" pagecolor="#ffffff" inkscape:window-maximized="1" inkscape:current-layer="svg2985" inkscape:window-y="-8" inkscape:window-x="1358" inkscape:window-height="988" inkscape:window-width="1680" inkscape:pageshadow="2" inkscape:pageopacity="0">
	</sodipodi:namedview>
<linearGradient id="path2995_1_" gradientUnits="userSpaceOnUse" x1="-138.103" y1="547.429" x2="-153.2781" y2="566.8522" gradientTransform="matrix(-1 0 0 1 -287 0)">
	<stop  offset="0" style="stop-color:#FFFFFF"/>
	<stop  offset="0.4064" style="stop-color:#F4F4F4"/>
	<stop  offset="1" style="stop-color:#DCDCDC"/>
</linearGradient>
<path id="path2995" inkscape:connector-curvature="0" sodipodi:nodetypes="cccccaasssaasssscccc" fill="url(#path2995_1_)" stroke="#CCCCCC" stroke-linejoin="round" d="
	M-145.294,561.894c-0.021-0.407-0.01-0.815-0.012-1.223c0.06-1.128-0.084-2.34,0.106-3.42c1.066,0.048,1.716-0.045,3.001,0.012
	c1.059,0.047,2.766,0.178,3.602,0.72c0.935,0.605,1.464,1.785,1.667,2.868c0.16,0.856-0.16,2.516-0.616,3.258
	c-2.072,3.372-2.461,2.322-1.843,3.48c0.651,1.219,2.896,1.059,4.125,0.426c1.035-0.532,1.362-1.928,1.727-3.033
	c0.468-1.418,0.538-2.954,0.536-4.447c-0.003-1.736-0.248-3.99-0.64-5.169c-0.486-1.464-1.391-2.837-2.513-3.899
	c-0.999-0.947-2.28-1.613-3.587-2.046c-1.713-0.567-3.311-0.727-5.374-0.653c-0.08-1.465-0.009-2.779-0.032-4.267
	c-2.696,2.628-5.393,5.255-8.088,7.882c-0.232,0.368-1.104,0.682-0.615,1.141C-151.089,556.399-148.147,559.104-145.294,561.894
	L-145.294,561.894z"/>
</svg>
