<?xml version="1.0" encoding="UTF-8" standalone="no"?>
<!-- Created with Inkscape (http://www.inkscape.org/) -->

<svg
   xmlns:dc="http://purl.org/dc/elements/1.1/"
   xmlns:cc="http://creativecommons.org/ns#"
   xmlns:rdf="http://www.w3.org/1999/02/22-rdf-syntax-ns#"
   xmlns:svg="http://www.w3.org/2000/svg"
   xmlns="http://www.w3.org/2000/svg"
   xmlns:sodipodi="http://sodipodi.sourceforge.net/DTD/sodipodi-0.dtd"
   xmlns:inkscape="http://www.inkscape.org/namespaces/inkscape"
   id="svg2"
   version="1.1"
   inkscape:version="0.48.2 r9819"
   width="512"
   height="512"
   sodipodi:docname="2.svg"
   inkscape:export-filename="/Users/mathieu/Desktop/object_properties_defaults_2.png"
   inkscape:export-xdpi="90"
   inkscape:export-ydpi="90">
  <metadata
     id="metadata8">
    <rdf:RDF>
      <cc:Work
         rdf:about="">
        <dc:format>image/svg+xml</dc:format>
        <dc:type
           rdf:resource="http://purl.org/dc/dcmitype/StillImage" />
        <dc:title />
      </cc:Work>
    </rdf:RDF>
  </metadata>
  <defs
     id="defs6" />
  <sodipodi:namedview
     pagecolor="#ffffff"
     bordercolor="#666666"
     borderopacity="1"
     objecttolerance="10"
     gridtolerance="10"
     guidetolerance="10"
     inkscape:pageopacity="0"
     inkscape:pageshadow="2"
     inkscape:window-width="1680"
     inkscape:window-height="988"
     id="namedview4"
     showgrid="false"
     inkscape:zoom="1.2570787"
     inkscape:cx="162.19627"
     inkscape:cy="312.76136"
     inkscape:window-x="1358"
     inkscape:window-y="-8"
     inkscape:window-maximized="1"
     inkscape:current-layer="svg2" />
  <rect
     y="68.041229"
     x="76.235519"
     height="379.72067"
     width="365.70105"
     id="rect2987-4"
     style="fill:#8e8eee;fill-opacity:1;fill-rule:nonzero;stroke:#0000ff;stroke-width:19.42632103;stroke-linecap:round;stroke-linejoin:miter;stroke-miterlimit:4;stroke-opacity:1;stroke-dasharray:none" />
  <path
     transform="matrix(15.725348,0,0,15.537129,-8.6605315,-13.220785)"
     d="m 7.8813562,5.7966104 a 2.3898306,2.3389831 0 1 1 -4.7796611,0 2.3898306,2.3389831 0 1 1 4.7796611,0 z"
     sodipodi:ry="2.3389831"
     sodipodi:rx="2.3898306"
     sodipodi:cy="5.7966104"
     sodipodi:cx="5.4915257"
     id="path3757-9"
     style="fill:#008000;fill-opacity:1;fill-rule:nonzero;stroke:#000000;stroke-width:0.95038474;stroke-linecap:round;stroke-linejoin:miter;stroke-miterlimit:4;stroke-opacity:1;stroke-dasharray:none"
     sodipodi:type="arc" />
  <path
     transform="matrix(15.725348,0,0,15.537129,354.88761,354.71762)"
     d="m 7.8813562,5.7966104 a 2.3898306,2.3389831 0 1 1 -4.7796611,0 2.3898306,2.3389831 0 1 1 4.7796611,0 z"
     sodipodi:ry="2.3389831"
     sodipodi:rx="2.3898306"
     sodipodi:cy="5.7966104"
     sodipodi:cx="5.4915257"
     id="path3757-1-7-0"
     style="fill:#0000ff;fill-opacity:1;fill-rule:nonzero;stroke:#000000;stroke-width:0.95038474;stroke-linecap:round;stroke-linejoin:miter;stroke-miterlimit:4;stroke-opacity:1;stroke-dasharray:none"
     sodipodi:type="arc" />
  <path
     transform="matrix(15.725348,0,0,15.537129,-10.025577,353.33262)"
     d="m 7.8813562,5.7966104 a 2.3898306,2.3389831 0 1 1 -4.7796611,0 2.3898306,2.3389831 0 1 1 4.7796611,0 z"
     sodipodi:ry="2.3389831"
     sodipodi:rx="2.3898306"
     sodipodi:cy="5.7966104"
     sodipodi:cx="5.4915257"
     id="path3757-1-4-3"
     style="fill:#f6e131;fill-opacity:1;fill-rule:nonzero;stroke:#000000;stroke-width:0.95038474;stroke-linecap:round;stroke-linejoin:miter;stroke-miterlimit:4;stroke-opacity:1;stroke-dasharray:none"
     sodipodi:type="arc" />
  <path
     style="fill:#ffffff;fill-opacity:1;stroke:#000000;stroke-width:16.13789177000000000;stroke-linecap:butt;stroke-linejoin:round;stroke-miterlimit:4;stroke-opacity:1;stroke-dasharray:none"
     d="m 167.77061,199.61023 32.02575,-28.3146 -9.64937,-40.28137 36.44911,-14.35672 17.19968,36.53529 40.50478,5.09248 17.42488,-37.56176 36.53867,16.77434 -16.06359,34.62724 24.90441,29.32399 38.5907,-12.70834 13.46108,32.06472 -36.75793,21.28722 4.37269,34.42782 34.49362,14.52096 -18.27923,41.36667 -34.86788,-15.24339 -27.43927,27.54544 11.11924,40.09095 -36.89817,10.62612 -15.11706,-36.32612 -44.91995,2.8588 -18.08727,35.85723 -38.07675,-18.15734 17.815,-35.27034 -25.95692,-33.31995 -44.60291,17.83744 -13.81466,-40.69978 43.6317,-12.61146 -4.6084,-40.18453 -36.26643,-17.36125 16.06358,-34.62723 z"
     id="path2995-24"
     inkscape:connector-curvature="0"
     sodipodi:nodetypes="ccccccccccccccccccccccccccccccccc" />
  <path
     sodipodi:type="arc"
     style="fill:#8e8eee;fill-opacity:1;stroke:#000000;stroke-width:1.54275239;stroke-linecap:butt;stroke-linejoin:round;stroke-miterlimit:4;stroke-opacity:1;stroke-dasharray:none"
     id="path3773-5"
     sodipodi:cx="19.38983"
     sodipodi:cy="15.728813"
     sodipodi:rx="4.0677967"
     sodipodi:ry="4.5423727"
     d="m 23.457626,15.728813 a 4.0677967,4.5423727 0 1 1 -8.135593,0 4.0677967,4.5423727 0 1 1 8.135593,0 z"
     transform="matrix(8.3866023,2.2346148,-1.9663443,7.9426495,128.97384,89.678733)" />
  <path
     transform="matrix(15.725348,0,0,15.537129,349.06689,-10.75471)"
     d="m 7.8813562,5.7966104 a 2.3898306,2.3389831 0 1 1 -4.7796611,0 2.3898306,2.3389831 0 1 1 4.7796611,0 z"
     sodipodi:ry="2.3389831"
     sodipodi:rx="2.3898306"
     sodipodi:cy="5.7966104"
     sodipodi:cx="5.4915257"
     id="path3757-1-46"
     style="fill:#ffffff;fill-opacity:1;fill-rule:nonzero;stroke:#000000;stroke-width:0.95038855;stroke-linecap:round;stroke-linejoin:miter;stroke-miterlimit:4;stroke-opacity:1;stroke-dasharray:none"
     sodipodi:type="arc" />
</svg>
