<?xml version="1.0" encoding="UTF-8" standalone="no"?>
<!-- Created with Inkscape (http://www.inkscape.org/) -->

<svg
   xmlns:dc="http://purl.org/dc/elements/1.1/"
   xmlns:cc="http://creativecommons.org/ns#"
   xmlns:rdf="http://www.w3.org/1999/02/22-rdf-syntax-ns#"
   xmlns:svg="http://www.w3.org/2000/svg"
   xmlns="http://www.w3.org/2000/svg"
   xmlns:xlink="http://www.w3.org/1999/xlink"
   xmlns:sodipodi="http://sodipodi.sourceforge.net/DTD/sodipodi-0.dtd"
   xmlns:inkscape="http://www.inkscape.org/namespaces/inkscape"
   id="svg2985"
   version="1.1"
   inkscape:version="0.48.2 r9819"
   viewBox="0 0 512 512" width="512"
   height="512"
   sodipodi:docname="export_dynamix_worksheet_as_webpage.svg">
  <metadata
     id="metadata2991">
    <rdf:RDF>
      <cc:Work
         rdf:about="">
        <dc:format>image/svg+xml</dc:format>
        <dc:type
           rdf:resource="http://purl.org/dc/dcmitype/StillImage" />
        <dc:title />
      </cc:Work>
    </rdf:RDF>
  </metadata>
  <defs
     id="defs2989">
    <linearGradient
       inkscape:collect="always"
       id="linearGradient3798">
      <stop
         style="stop-color:#3e72ac;stop-opacity:1;"
         offset="0"
         id="stop3800" />
      <stop
         style="stop-color:#3e72ac;stop-opacity:0;"
         offset="1"
         id="stop3802" />
    </linearGradient>
    <inkscape:path-effect
       effect="spiro"
       id="path-effect2997"
       is_visible="true" />
    <linearGradient
       inkscape:collect="always"
       xlink:href="#linearGradient3798"
       id="linearGradient3010"
       gradientUnits="userSpaceOnUse"
       gradientTransform="matrix(0.94072795,0,0,1,13.289541,487.67868)"
       x1="11.932204"
       y1="28.542374"
       x2="1.6949153"
       y2="0.47457626" />
    <linearGradient
       inkscape:collect="always"
       xlink:href="#linearGradient3798"
       id="linearGradient3004"
       gradientUnits="userSpaceOnUse"
       gradientTransform="matrix(12.063047,0,0,12.823098,201.5782,114.65681)"
       x1="11.932204"
       y1="28.542374"
       x2="1.6949153"
       y2="0.47457626" />
  </defs>
  <sodipodi:namedview
     pagecolor="#ffffff"
     bordercolor="#666666"
     borderopacity="1"
     objecttolerance="10"
     gridtolerance="10"
     guidetolerance="10"
     inkscape:pageopacity="0"
     inkscape:pageshadow="2"
     inkscape:window-width="1221"
     inkscape:window-height="942"
     id="namedview2987"
     showgrid="false"
     inkscape:zoom="1.3037281"
     inkscape:cx="286.17982"
     inkscape:cy="226.88111"
     inkscape:window-x="1385"
     inkscape:window-y="3"
     inkscape:window-maximized="0"
     inkscape:current-layer="svg2985" />
  <g
     id="g3777">
    <rect
       y="28.267998"
       x="43.420849"
       height="359.94495"
       width="335.55676"
       id="rect3849"
       style="fill:none;stroke:#818181;stroke-width:24.48834038;stroke-linejoin:round;stroke-miterlimit:4;stroke-opacity:1;stroke-dasharray:none" />
    <rect
       y="144.6405"
       x="95.280602"
       height="24.776834"
       width="170.39507"
       id="rect3033-9"
       style="fill:#c7c7c7;fill-opacity:1;stroke:none" />
    <path
       transform="matrix(15.69267,0,0,74.781083,2.1791658,-1589.8672)"
       d="m 29.355931,25.491526 a 9.9661016,2.1355932 0 1 1 -19.932203,0 9.9661016,2.1355932 0 1 1 19.932203,0 z"
       sodipodi:ry="2.1355932"
       sodipodi:rx="9.9661016"
       sodipodi:cy="25.491526"
       sodipodi:cx="19.38983"
       id="path3851"
       style="fill:#ffffff;fill-opacity:1;stroke:none"
       sodipodi:type="arc" />
    <path
       sodipodi:nodetypes="cssssssssssssssssssc"
       inkscape:connector-curvature="0"
       id="path3783"
       d="m 200.76037,200.72377 c 60.51969,17.38723 43.51771,15.93078 42.89556,20.97013 -2.72281,22.05419 -52.72113,35.46138 -49.25685,58.9238 1.11241,7.53357 -17.56719,-12.50265 29.04667,53.62773 15.62252,22.16358 27.00975,10.28631 35.9684,26.0809 17.90146,31.56137 6.15346,43.10357 9.22641,58.60746 4.69702,23.69773 -92.4152,29.55827 -31.89552,45.20681 60.51969,15.64854 -13.90316,31.29708 62.15537,16.51794 76.05852,-14.77913 55.34794,-3.45236 76.87636,-19.12603 43.81723,-31.90079 67.88127,-57.50147 1.46514,-73.0882 -17.49689,-4.10621 -16.91171,-20.92653 -16.91171,-20.92653 18.39623,-22.44568 0.34251,-31.1205 -17.26677,-30.30405 -4.07337,0.1885 -13.39384,6.99859 -25.74278,-37.83007 -16.36092,-59.39287 20.96605,-23.89469 28.22342,-63.88544 11.99517,-66.09756 44.9537,-7.82427 41.68238,-40.86003 -3.27134,-33.03577 38.43818,-20.86472 -25.35285,-36.51326 -63.79104,-15.64841 -20.49505,-19.96916 -46.61652,-13.90973 -52.56621,12.19374 -8.17834,-4.34677 -58.88401,14.77913 -50.7057,19.12604 -45.7987,0 -51.52353,19.99532 -5.72484,19.99544 -4.08917,21.73412 -4.08917,21.73412 z"
       style="fill:url(#linearGradient3004);fill-opacity:1;stroke:none" />
    <rect
       y="196.36766"
       x="95.715286"
       height="24.776834"
       width="84.328171"
       id="rect3033-0"
       style="fill:#c7c7c7;fill-opacity:1;stroke:none" />
    <rect
       y="247.66006"
       x="95.280602"
       height="24.776834"
       width="59.551334"
       id="rect3033-4"
       style="fill:#c7c7c7;fill-opacity:1;stroke:none" />
    <rect
       y="299.38721"
       x="94.845917"
       height="24.776834"
       width="48.249622"
       id="rect3033-7"
       style="fill:#c7c7c7;fill-opacity:1;stroke:none" />
    <g
       transform="matrix(12.823098,0,0,12.823098,31.165112,-6138.8947)"
       id="g2995">
      <path
         sodipodi:type="arc"
         style="fill:none;stroke:#3d3e71;stroke-width:1.11500001;stroke-linecap:round;stroke-linejoin:round;stroke-miterlimit:4;stroke-opacity:0.9372549;stroke-dasharray:none"
         id="path3767"
         sodipodi:cx="-0.74576271"
         sodipodi:cy="14.101695"
         sodipodi:rx="8.6101694"
         sodipodi:ry="12"
         d="m 7.8644067,14.101695 c 0,6.627417 -3.8549041,12 -8.61016941,12 -4.75526529,0 -8.61016939,-5.372583 -8.61016939,-12 0,-6.6274169 3.8549041,-11.9999999 8.61016939,-11.9999999 4.75526531,0 8.61016941,5.372583 8.61016941,11.9999999 z"
         transform="matrix(1.4937728,0,0,1.0951807,22.594999,487.95322)" />
    </g>
    <rect
       y="93.130928"
       x="95.49794"
       height="24.776834"
       width="229.9464"
       id="rect3033"
       style="fill:#c7c7c7;fill-opacity:1;stroke:none" />
  </g>
</svg>
