<?xml version="1.0" encoding="UTF-8" standalone="no"?>
<!-- Created with Inkscape (http://www.inkscape.org/) -->

<svg
   xmlns:dc="http://purl.org/dc/elements/1.1/"
   xmlns:cc="http://creativecommons.org/ns#"
   xmlns:rdf="http://www.w3.org/1999/02/22-rdf-syntax-ns#"
   xmlns:svg="http://www.w3.org/2000/svg"
   xmlns="http://www.w3.org/2000/svg"
   xmlns:xlink="http://www.w3.org/1999/xlink"
   xmlns:sodipodi="http://sodipodi.sourceforge.net/DTD/sodipodi-0.dtd"
   xmlns:inkscape="http://www.inkscape.org/namespaces/inkscape"
   id="svg3853"
   version="1.1"
   inkscape:version="0.48.2 r9819"
   width="512"
   height="512"
   sodipodi:docname="graphics2.svg">
  <metadata
     id="metadata3859">
    <rdf:RDF>
      <cc:Work
         rdf:about="">
        <dc:format>image/svg+xml</dc:format>
        <dc:type
           rdf:resource="http://purl.org/dc/dcmitype/StillImage" />
        <dc:title />
      </cc:Work>
    </rdf:RDF>
  </metadata>
  <defs
     id="defs3857">
    <linearGradient
       inkscape:collect="always"
       xlink:href="#linearGradient3850"
       id="linearGradient3856"
       x1="10.375"
       y1="9.4375"
       x2="6.4375"
       y2="5.5"
       gradientUnits="userSpaceOnUse" />
    <linearGradient
       inkscape:collect="always"
       id="linearGradient3850">
      <stop
         style="stop-color:#5e99e2;stop-opacity:1;"
         offset="0"
         id="stop3852" />
      <stop
         style="stop-color:#d6e0ea;stop-opacity:1"
         offset="1"
         id="stop3854" />
    </linearGradient>
    <linearGradient
       gradientTransform="translate(0.0212933,8.0136277)"
       y2="5.5"
       x2="6.4375"
       y1="9.4375"
       x1="10.375"
       gradientUnits="userSpaceOnUse"
       id="linearGradient3873"
       xlink:href="#linearGradient3850-8"
       inkscape:collect="always" />
    <linearGradient
       inkscape:collect="always"
       id="linearGradient3850-8">
      <stop
         style="stop-color:#5e99e2;stop-opacity:1;"
         offset="0"
         id="stop3852-2" />
      <stop
         style="stop-color:#d6e0ea;stop-opacity:1"
         offset="1"
         id="stop3854-4" />
    </linearGradient>
    <linearGradient
       gradientTransform="translate(0.0212933,3.9823777)"
       y2="5.5"
       x2="6.4375"
       y1="9.4375"
       x1="10.375"
       gradientUnits="userSpaceOnUse"
       id="linearGradient3873-1"
       xlink:href="#linearGradient3850-1"
       inkscape:collect="always" />
    <linearGradient
       inkscape:collect="always"
       id="linearGradient3850-1">
      <stop
         style="stop-color:#5e99e2;stop-opacity:1;"
         offset="0"
         id="stop3852-7" />
      <stop
         style="stop-color:#d6e0ea;stop-opacity:1"
         offset="1"
         id="stop3854-1" />
    </linearGradient>
    <linearGradient
       y2="5.5"
       x2="6.4375"
       y1="9.4375"
       x1="10.375"
       gradientTransform="translate(0.0212933,3.9823777)"
       gradientUnits="userSpaceOnUse"
       id="linearGradient3043"
       xlink:href="#linearGradient3850-1"
       inkscape:collect="always" />
  </defs>
  <sodipodi:namedview
     pagecolor="#ffffff"
     bordercolor="#666666"
     borderopacity="1"
     objecttolerance="10"
     gridtolerance="10"
     guidetolerance="10"
     inkscape:pageopacity="0"
     inkscape:pageshadow="2"
     inkscape:window-width="1680"
     inkscape:window-height="988"
     id="namedview3855"
     showgrid="false"
     inkscape:zoom="0.67045457"
     inkscape:cx="0.71018202"
     inkscape:cy="253.7788"
     inkscape:window-x="1358"
     inkscape:window-y="-8"
     inkscape:window-maximized="1"
     inkscape:current-layer="svg3853" />
  <g
     id="g4496"
     transform="matrix(23.176277,0,0,23.176277,0.00608654,2.2662439)">
    <g
       transform="translate(14.637531,-0.21688781)"
       id="g3070">
      <rect
         style="fill:none;stroke:#7a7a7a;stroke-width:1.01346684;stroke-linecap:butt;stroke-linejoin:miter;stroke-miterlimit:4;stroke-opacity:1;stroke-dasharray:none"
         id="rect2995-1"
         width="21.019388"
         height="20.979801"
         x="-14.131072"
         y="0.72384477" />
      <rect
         style="fill:#d6d6d6;fill-opacity:1;stroke:#d6d6d6;stroke-width:0.7143352;stroke-linecap:butt;stroke-linejoin:miter;stroke-miterlimit:4;stroke-opacity:1;stroke-dasharray:none"
         id="rect3765-7"
         width="19.302446"
         height="0.22085126"
         x="-13.276931"
         y="1.5802913" />
    </g>
    <path
       inkscape:connector-curvature="0"
       id="path3844"
       d="M 4.3022853,16.607373 13.574736,16.651895 9.5174435,9.3721762 z"
       style="fill:#b2b2ff;fill-opacity:1;stroke:#4949ff;stroke-width:0.7718876px;stroke-linecap:butt;stroke-linejoin:round;stroke-opacity:1" />
    <g
       id="text4470"
       style="font-size:9.43829918px;font-style:normal;font-variant:normal;font-weight:normal;font-stretch:normal;line-height:125%;letter-spacing:0px;word-spacing:0px;fill:#6f1212;fill-opacity:1;stroke:none;font-family:FreeUniversal;-inkscape-font-specification:FreeUniversal"
       transform="scale(0.98696984,1.0132022)">
      <path
         id="path4494"
         d="m 19.226987,11.857077 -4.110821,0 0,-0.875624 C 15.914979,10.09047 16.549421,9.3822907 17.019495,8.8569142 17.489563,8.3315436 17.818306,7.9259921 18.005723,7.6402584 18.193134,7.3545332 18.286841,7.1041358 18.286844,6.8890657 18.286841,6.4773744 18.206959,6.1747469 18.0472,5.9811824 17.887434,5.7876296 17.620138,5.6908502 17.245313,5.6908441 c -0.331817,6.1e-6 -0.580678,0.095249 -0.746584,0.2857297 -0.165909,0.1904922 -0.273442,0.4946559 -0.322598,0.9124919 l -0.958577,0 c 0.09831,-1.3211099 0.774234,-1.9816672 2.027759,-1.9816742 0.620614,7e-6 1.106047,0.1889571 1.4563,0.566851 0.350245,0.3779066 0.52537,0.8065009 0.525374,1.2857839 -4e-6,0.1474784 -0.01229,0.2826622 -0.03687,0.4055519 -0.02458,0.1228991 -0.06452,0.2534744 -0.119822,0.3917263 -0.05531,0.1382605 -0.13058,0.2811252 -0.225819,0.4285946 -0.09525,0.1474772 -0.215069,0.3149208 -0.359466,0.5023314 -0.144405,0.1874173 -0.314921,0.3917293 -0.511549,0.6129364 -0.196634,0.2212127 -0.425525,0.4792909 -0.686673,0.7742355 -0.261153,0.2949485 -0.557636,0.6206185 -0.889449,0.9770115 -0.104462,0.116751 -0.184343,0.205849 -0.239644,0.267296 l 3.06929,0 z"
         inkscape:connector-curvature="0" />
    </g>
  </g>
</svg>
