<?xml version="1.0" encoding="UTF-8" standalone="no"?>
<!-- Created with Inkscape (http://www.inkscape.org/) -->

<svg
   xmlns:dc="http://purl.org/dc/elements/1.1/"
   xmlns:cc="http://creativecommons.org/ns#"
   xmlns:rdf="http://www.w3.org/1999/02/22-rdf-syntax-ns#"
   xmlns:svg="http://www.w3.org/2000/svg"
   xmlns="http://www.w3.org/2000/svg"
   xmlns:xlink="http://www.w3.org/1999/xlink"
   xmlns:sodipodi="http://sodipodi.sourceforge.net/DTD/sodipodi-0.dtd"
   xmlns:inkscape="http://www.inkscape.org/namespaces/inkscape"
   id="svg2"
   version="1.1"
   inkscape:version="0.48.2 r9819"
   width="512"
   height="512"
   sodipodi:docname="create_new_tool.svg">
  <metadata
     id="metadata8">
    <rdf:RDF>
      <cc:Work
         rdf:about="">
        <dc:format>image/svg+xml</dc:format>
        <dc:type
           rdf:resource="http://purl.org/dc/dcmitype/StillImage" />
        <dc:title />
      </cc:Work>
    </rdf:RDF>
  </metadata>
  <defs
     id="defs6">
    <linearGradient
       inkscape:collect="always"
       id="linearGradient3762">
      <stop
         style="stop-color:#a0a19e;stop-opacity:1;"
         offset="0"
         id="stop3764" />
      <stop
         style="stop-color:#a0a19e;stop-opacity:0;"
         offset="1"
         id="stop3766" />
    </linearGradient>
    <linearGradient
       inkscape:collect="always"
       xlink:href="#linearGradient3762"
       id="linearGradient3768"
       x1="10.402859"
       y1="11.086206"
       x2="1.7497897"
       y2="2.6728349"
       gradientUnits="userSpaceOnUse" />
    <linearGradient
       inkscape:collect="always"
       xlink:href="#linearGradient3762"
       id="linearGradient3828"
       gradientUnits="userSpaceOnUse"
       x1="10.402859"
       y1="11.086206"
       x2="1.7497897"
       y2="2.6728349" />
    <linearGradient
       inkscape:collect="always"
       xlink:href="#linearGradient3762"
       id="linearGradient3781"
       gradientUnits="userSpaceOnUse"
       x1="10.402859"
       y1="11.086206"
       x2="1.7497897"
       y2="2.6728349" />
  </defs>
  <sodipodi:namedview
     pagecolor="#ffffff"
     bordercolor="#666666"
     borderopacity="1"
     objecttolerance="10"
     gridtolerance="10"
     guidetolerance="10"
     inkscape:pageopacity="0"
     inkscape:pageshadow="2"
     inkscape:window-width="1680"
     inkscape:window-height="988"
     id="namedview4"
     showgrid="false"
     inkscape:zoom="0.921875"
     inkscape:cx="2.8698975"
     inkscape:cy="311.72881"
     inkscape:window-x="1358"
     inkscape:window-y="-8"
     inkscape:window-maximized="1"
     inkscape:current-layer="svg2" />
  <g
     id="g3775"
     transform="matrix(30.940608,0,0,30.940608,9.8664156,8.9422376)">
    <path
       inkscape:connector-curvature="0"
       id="path3810"
       d="M 6.2853441,9.6796976 12.075463,4.0462823"
       style="fill:none;stroke:#888a85;stroke-width:1.26235282;stroke-linecap:butt;stroke-linejoin:miter;stroke-miterlimit:4;stroke-opacity:1;stroke-dasharray:none" />
    <path
       transform="matrix(1,0,0,1.0064425,0.14381833,-0.24247837)"
       sodipodi:nodetypes="cssssssssssssc"
       inkscape:connector-curvature="0"
       id="path3769"
       d="m 14.226571,14.997617 c 0,0 0.102487,-1.515358 -0.116878,-1.730443 -0.948307,-0.929802 -5.5439962,-5.9055198 -7.1482,-7.2995629 0,0 0.2200347,-1.4888615 -0.060033,-2.4393914 0,0 -0.424895,-1.1143184 -1.1732178,-1.606439 -1.1235843,-0.7389044 -2.6991723,-1.08470131 -2.8128307,0.094189 0,0 1.1411495,1.2223513 1.2885417,1.6348681 0.091508,0.2561094 0.151535,0.7601715 -1.0499668,1.6213464 C 2.0242157,6.0819453 0.94761958,3.2040116 0.55322409,3.8820836 c 0,0 -0.57684703,2.0219339 0.39836158,2.9012717 C 1.2108018,7.0170883 2.165295,7.932566 2.9183404,7.9637154 4.1535491,8.0148104 5.2800039,7.6973735 5.3695623,7.7567445 6.2607466,8.3475374 12.53283,15.069526 12.53283,15.069526 c 1.171848,-1.27e-4 1.693747,-0.07191 1.693741,-0.07191 z"
       style="fill:url(#linearGradient3781);fill-opacity:1;stroke:#585858;stroke-width:0.51200002;stroke-linecap:butt;stroke-linejoin:round;stroke-miterlimit:4;stroke-opacity:1;stroke-dasharray:none" />
    <path
       transform="matrix(1.0227689,-0.38053044,-0.03219904,0.93051177,0.40260146,2.1185669)"
       d="m 6.5437341,12.440496 c 0,1.68786 -1.3199881,3.05614 -2.9482758,3.05614 -1.6282878,0 -2.94827584,-1.36828 -2.94827584,-3.05614 0,-1.687859 1.31998804,-3.056139 2.94827584,-3.056139 1.6282877,0 2.9482758,1.36828 2.9482758,3.056139 z"
       sodipodi:ry="3.0561395"
       sodipodi:rx="2.9482758"
       sodipodi:cy="12.440496"
       sodipodi:cx="3.5954583"
       id="path3770"
       style="fill:#7a95b5;fill-opacity:1;fill-rule:nonzero;stroke:#204a87;stroke-opacity:1"
       sodipodi:type="arc" />
    <rect
       transform="matrix(0.72538945,0.73703253,-0.73435066,0.72967136,-0.36391267,0.02885144)"
       y="-9.1785908"
       x="9.959363"
       height="3.2910399"
       width="2.345916"
       id="rect3816"
       style="fill:#f0f0f0;fill-opacity:1;fill-rule:nonzero;stroke:#888a85;stroke-width:0.87808073;stroke-linecap:round;stroke-linejoin:round;stroke-miterlimit:4;stroke-opacity:1;stroke-dasharray:none" />
  </g>
</svg>
