<?xml version="1.0" encoding="UTF-8" standalone="no"?>
<!-- Created with Inkscape (http://www.inkscape.org/) -->

<svg
   xmlns:dc="http://purl.org/dc/elements/1.1/"
   xmlns:cc="http://creativecommons.org/ns#"
   xmlns:rdf="http://www.w3.org/1999/02/22-rdf-syntax-ns#"
   xmlns:svg="http://www.w3.org/2000/svg"
   xmlns="http://www.w3.org/2000/svg"
   xmlns:xlink="http://www.w3.org/1999/xlink"
   xmlns:sodipodi="http://sodipodi.sourceforge.net/DTD/sodipodi-0.dtd"
   xmlns:inkscape="http://www.inkscape.org/namespaces/inkscape"
   id="svg2985"
   version="1.1"
   inkscape:version="0.48.2 r9819"
   width="512"
   height="512"
   sodipodi:docname="share.svg">
  <metadata
     id="metadata2991">
    <rdf:RDF>
      <cc:Work
         rdf:about="">
        <dc:format>image/svg+xml</dc:format>
        <dc:type
           rdf:resource="http://purl.org/dc/dcmitype/StillImage" />
        <dc:title />
      </cc:Work>
    </rdf:RDF>
  </metadata>
  <defs
     id="defs2989">
    <linearGradient
       inkscape:collect="always"
       id="linearGradient3798">
      <stop
         style="stop-color:#3e72ac;stop-opacity:1;"
         offset="0"
         id="stop3800" />
      <stop
         style="stop-color:#3e72ac;stop-opacity:0;"
         offset="1"
         id="stop3802" />
    </linearGradient>
    <inkscape:path-effect
       effect="spiro"
       id="path-effect3771"
       is_visible="true" />
    <inkscape:path-effect
       effect="spiro"
       id="path-effect2997"
       is_visible="true" />
    <linearGradient
       inkscape:collect="always"
       xlink:href="#linearGradient3798"
       id="linearGradient3804"
       x1="11.932204"
       y1="28.542374"
       x2="1.6949153"
       y2="0.47457626"
       gradientUnits="userSpaceOnUse" />
    <linearGradient
       inkscape:collect="always"
       xlink:href="#linearGradient3798"
       id="linearGradient2994"
       gradientUnits="userSpaceOnUse"
       x1="11.932204"
       y1="28.542374"
       x2="1.6949153"
       y2="0.47457626"
       gradientTransform="matrix(1.0022344,0,0,1,0.01109237,0)" />
    <linearGradient
       inkscape:collect="always"
       xlink:href="#linearGradient3798"
       id="linearGradient3763"
       gradientUnits="userSpaceOnUse"
       gradientTransform="matrix(15.133899,0,0,15.100159,30.171764,8.4069371)"
       x1="11.932204"
       y1="28.542374"
       x2="1.6949153"
       y2="0.47457626" />
  </defs>
  <sodipodi:namedview
     pagecolor="#ffffff"
     bordercolor="#666666"
     borderopacity="1"
     objecttolerance="10"
     gridtolerance="10"
     guidetolerance="10"
     inkscape:pageopacity="0"
     inkscape:pageshadow="2"
     inkscape:window-width="1280"
     inkscape:window-height="1002"
     id="namedview2987"
     showgrid="false"
     inkscape:zoom="1.3037281"
     inkscape:cx="178.38837"
     inkscape:cy="261.44995"
     inkscape:window-x="1358"
     inkscape:window-y="-8"
     inkscape:window-maximized="1"
     inkscape:current-layer="svg2985" />
  <g
     id="g3765">
    <path
       sodipodi:nodetypes="cssssssssssssssssssc"
       inkscape:connector-curvature="0"
       id="path3783"
       d="m 29.145737,109.75716 c 75.925993,20.47479 146.721863,-35.83089 76.952023,22.52227 -69.769834,58.35316 -70.795861,6.14244 -71.821888,61.42437 -1.026028,55.28194 -59.509566,27.64097 28.728755,74.73299 88.238323,47.09204 59.509563,-27.64096 54.379433,30.71219 -5.13014,58.35316 30.78081,8.18992 -3.07808,67.56682 -33.858893,59.37689 -115.9410535,34.80714 -40.015056,53.23445 75.925996,18.42731 -17.442458,36.85463 77.978056,19.45106 95.42051,-17.40357 69.43769,-4.06543 96.44653,-22.52228 54.97165,-37.5656 64.63972,-56.30567 -17.44245,-78.82795 -82.08216,-22.52227 -85.16024,30.7122 -54.37943,-17.40357 30.78081,-48.11576 73.87393,-1.02374 30.78081,-50.16324 -43.09314,-49.1395 -73.87395,13.30862 -43.09314,-53.23446 30.78081,-66.54307 -36.93697,-19.45105 30.78081,-66.54307 C 263.0799,103.61472 267.184,141.49308 263.0799,102.59098 258.97578,63.688874 311.30318,78.021231 231.27306,59.593917 151.24295,41.166604 205.56065,36.078709 172.78952,43.214083 106.84168,57.573138 162.52925,38.095385 98.915573,60.617656 c -63.613674,22.522271 -57.457512,0 -64.639701,23.54601 -7.182189,23.546014 -5.130135,25.593494 -5.130135,25.593494 z"
       style="fill:url(#linearGradient3763);fill-opacity:1;stroke:none" />
    <path
       transform="matrix(24.030971,0,0,16.537403,179.8727,12.552466)"
       d="m 7.8644067,14.101695 a 8.6101694,12 0 1 1 -17.2203388,0 8.6101694,12 0 1 1 17.2203388,0 z"
       sodipodi:ry="12"
       sodipodi:rx="8.6101694"
       sodipodi:cy="14.101695"
       sodipodi:cx="-0.74576271"
       id="path3767"
       style="fill:none;stroke:#3d3e71;stroke-width:0.85276547000000003;stroke-linecap:round;stroke-linejoin:round;stroke-miterlimit:4;stroke-opacity:0.98412699;stroke-dasharray:none"
       sodipodi:type="arc" />
    <path
       sodipodi:nodetypes="cccccccc"
       inkscape:connector-curvature="0"
       inkscape:original-d="m 244.63901,472.30138 c -2.17712,0 162.64342,-1.02379 162.64342,-1.02379 l 0.99133,-139.45516 97.15066,-1.05656 -176.4573,-211.29562 -166.54397,210.23924 84.26334,1.05656 z"
       inkscape:path-effect="#path-effect2997"
       id="path2995"
       d="m 244.63901,472.30138 162.64342,-1.02379 0.99133,-139.45516 97.15066,-1.05656 -176.4573,-211.29562 -166.54397,210.23924 84.26334,1.05656 -2.04748,141.53533"
       style="fill:#f6e131;fill-opacity:1;stroke:#9a7800;stroke-width:17;stroke-linecap:butt;stroke-linejoin:round;stroke-miterlimit:4;stroke-opacity:1;stroke-dasharray:none" />
  </g>
</svg>
