<?xml version="1.0" encoding="UTF-8" standalone="no"?>
<!-- Created with Inkscape (http://www.inkscape.org/) -->

<svg
   xmlns:dc="http://purl.org/dc/elements/1.1/"
   xmlns:cc="http://creativecommons.org/ns#"
   xmlns:rdf="http://www.w3.org/1999/02/22-rdf-syntax-ns#"
   xmlns:svg="http://www.w3.org/2000/svg"
   xmlns="http://www.w3.org/2000/svg"
   xmlns:sodipodi="http://sodipodi.sourceforge.net/DTD/sodipodi-0.dtd"
   xmlns:inkscape="http://www.inkscape.org/namespaces/inkscape"
   id="svg2"
   version="1.1"
   inkscape:version="0.48.2 r9819"
   width="512"
   height="512"
   sodipodi:docname="dataview-showdata.png">
  <metadata
     id="metadata8">
    <rdf:RDF>
      <cc:Work
         rdf:about="">
        <dc:format>image/svg+xml</dc:format>
        <dc:type
           rdf:resource="http://purl.org/dc/dcmitype/StillImage" />
        <dc:title></dc:title>
      </cc:Work>
    </rdf:RDF>
  </metadata>
  <defs
     id="defs6" />
  <sodipodi:namedview
     pagecolor="#ffffff"
     bordercolor="#666666"
     borderopacity="1"
     objecttolerance="10"
     gridtolerance="10"
     guidetolerance="10"
     inkscape:pageopacity="0"
     inkscape:pageshadow="2"
     inkscape:window-width="1680"
     inkscape:window-height="988"
     id="namedview4"
     showgrid="false"
     inkscape:zoom="1.3037281"
     inkscape:cx="208.11782"
     inkscape:cy="285.89787"
     inkscape:window-x="1358"
     inkscape:window-y="-8"
     inkscape:window-maximized="1"
     inkscape:current-layer="svg2" />
  <g
     id="g3009"
     transform="matrix(30.112295,0,0,28.354421,12.812234,29.643831)">
    <g
       id="text2987"
       style="font-size:9.35590553px;font-style:normal;font-variant:normal;font-weight:normal;font-stretch:normal;line-height:125%;letter-spacing:0px;word-spacing:0px;fill:#000000;fill-opacity:1;stroke:none;font-family:FreeUniversal;-inkscape-font-specification:FreeUniversal"
       transform="scale(1.0024185,0.99758736)">
      <path
         id="path2992"
         d="m 3.3193668,6.9445 -0.8679795,0 0,-5.628162 C 2.1041931,1.5599868 1.6169069,1.8188576 0.98952703,2.0929513 l 0,-0.7766133 C 1.2575333,1.1518846 1.5087902,0.97219775 1.7432987,0.77727708 1.9778033,0.58236875 2.1437851,0.4346601 2.2412449,0.3341507 2.3386996,0.23365452 2.3874283,0.18644866 2.3874309,0.19253299 l 0.9319359,0 z"
         inkscape:connector-curvature="0" />
      <path
         id="path2994"
         d="m 9.6510491,6.9445 -4.0749354,0 0,-0.8679795 C 6.3679533,5.193315 6.9968571,4.4913182 7.4628271,3.970528 7.9287921,3.4497438 8.2546648,3.0477327 8.4404461,2.7644933 8.6262205,2.4812624 8.7191095,2.233051 8.7191132,2.0198583 8.7191095,1.611761 8.6399255,1.3117754 8.4815609,1.1199006 8.3231894,0.92803744 8.0582275,0.83210296 7.6866744,0.83209684 7.3577535,0.83210296 7.1110648,0.92651467 6.9466077,1.1153323 6.7821466,1.3041615 6.6755527,1.6056699 6.6268257,2.0198583 l -0.9502091,0 C 5.7740732,0.71028139 6.4440918,0.05549048 7.6866744,0.05548359 8.3018706,0.05549048 8.7830658,0.24279114 9.1302614,0.61738612 9.4774487,0.99199376 9.6510445,1.4168465 9.6510491,1.8919455 9.6510445,2.0381364 9.6388623,2.1721402 9.6145026,2.2939571 9.5901337,2.4157833 9.5505417,2.5452187 9.4957265,2.6822637 9.4409023,2.8193172 9.3662866,2.9609348 9.2718791,3.1071168 9.1774631,3.2533066 9.0586871,3.4192884 8.9155507,3.605063 8.7724064,3.7908442 8.603379,3.9933726 8.4084679,4.2126486 8.21355,4.4319302 7.9866573,4.6877555 7.7277892,4.9801253 7.4689157,5.272499 7.1750212,5.5953261 6.8461048,5.9486077 6.7425546,6.0643392 6.6633706,6.1526598 6.6085525,6.2135698 l 3.0424966,0 z"
         inkscape:connector-curvature="0" />
      <path
         id="path2996"
         d="m 15.023386,5.1354479 c -5e-6,0.55429 -0.208625,1.0156891 -0.625859,1.3841989 -0.417243,0.3685107 -0.945644,0.5527658 -1.585205,0.5527659 -0.706568,-1e-7 -1.242583,-0.1888235 -1.608046,-0.5664708 C 10.83881,6.1282955 10.656078,5.6806012 10.656078,5.1628578 l 0.995892,0 c 0.07309,0.791842 0.469012,1.187762 1.187762,1.1877614 0.316733,6e-7 0.604537,-0.1142071 0.863411,-0.3426234 0.258867,-0.2284145 0.388303,-0.4918537 0.388307,-0.7903182 -4e-6,-0.9623887 -0.630431,-1.4344472 -1.891282,-1.4161771 l 0,-0.7492034 C 12.78491,3.052301 13.228036,2.9517982 13.529547,2.7507884 13.831052,2.549787 13.981806,2.2239143 13.98181,1.7731694 13.981806,1.419892 13.858462,1.1655895 13.611777,1.0102611 13.365085,0.8549445 13.0986,0.77728325 12.812322,0.77727708 12.233667,0.77728325 11.877339,1.1671123 11.743337,1.9467653 l -0.950209,0 c 0.07918,-0.6091029 0.289325,-1.07659311 0.630427,-1.40247219 0.341099,-0.32586629 0.79793,-0.48880263 1.370494,-0.48880952 0.627378,6.89e-6 1.137506,0.16903431 1.530385,0.50708277 0.39287,0.33806123 0.589307,0.76291394 0.589312,1.27455944 -5e-6,0.2131928 -0.04416,0.4111528 -0.132481,0.5938807 -0.08832,0.1827368 -0.196442,0.3273999 -0.32435,0.4339897 -0.127917,0.106598 -0.261921,0.2101463 -0.402012,0.3106453 -0.140098,0.1005066 -0.258874,0.1751223 -0.356328,0.2238474 0.04263,0.024368 0.134,0.073096 0.274099,0.146186 0.140091,0.073096 0.258867,0.1446665 0.356328,0.2147107 0.09745,0.070051 0.20557,0.1659851 0.32435,0.2878038 0.118772,0.1218244 0.210138,0.2741014 0.274099,0.4568313 0.06395,0.1827348 0.09593,0.392877 0.09594,0.6304272 z"
         inkscape:connector-curvature="0" />
    </g>
    <g
       id="text2998"
       style="font-size:9.12344456px;font-style:normal;font-variant:normal;font-weight:normal;font-stretch:normal;line-height:125%;letter-spacing:0px;word-spacing:0px;fill:#000000;fill-opacity:1;stroke:none;font-family:FreeUniversal;-inkscape-font-specification:FreeUniversal"
       transform="scale(0.97751191,1.0230054)">
      <path
         id="path3003"
         d="m 5.2700163,13.755754 c -4.7e-6,0.540518 -0.2034407,0.990453 -0.6103086,1.349806 -0.406876,0.359355 -0.9221481,0.539032 -1.545818,0.539032 -0.6890119,0 -1.2117087,-0.184132 -1.568092,-0.552396 C 1.1894126,14.723933 1.0112205,14.287362 1.0112209,13.782483 l 0.9711479,0 c 0.071275,0.772167 0.4573583,1.15825 1.1582498,1.15825 0.3088637,0 0.5895163,-0.11137 0.8419585,-0.334111 0.2524354,-0.222739 0.3786548,-0.479633 0.3786586,-0.770682 -3.8e-6,-0.938476 -0.6147665,-1.398806 -1.8442901,-1.38099 l 0,-0.730588 c 0.5702128,4e-6 1.0023287,-0.098 1.2963488,-0.294017 C 4.1073082,11.234337 4.2543167,10.916562 4.2543203,10.477016 4.2543167,10.132516 4.134037,9.8845323 3.893481,9.7330632 3.6529183,9.5816057 3.3930548,9.5058741 3.1138897,9.5058681 c -0.5642775,6e-6 -0.911752,0.3801491 -1.0424248,1.1404309 l -0.9265998,0 C 1.2220811,10.05233 1.427002,9.5964551 1.7596284,9.2786729 2.0922525,8.9609033 2.5377328,8.8020153 3.0960705,8.8020086 c 0.6117904,6.7e-6 1.1092433,0.1648344 1.4923603,0.4944835 0.3831091,0.3296617 0.5746656,0.7439579 0.5746701,1.2428909 -4.5e-6,0.207896 -0.043068,0.400937 -0.1291894,0.579125 -0.086131,0.178197 -0.1915609,0.319265 -0.3162913,0.423207 -0.1247386,0.103949 -0.2554128,0.204925 -0.392023,0.302927 -0.1366176,0.09801 -0.2524425,0.170771 -0.3474749,0.218285 0.041575,0.02376 0.1306708,0.07128 0.2672884,0.142554 0.1366103,0.07128 0.2524352,0.141072 0.3474749,0.209376 0.095032,0.06831 0.2004622,0.161861 0.3162913,0.280653 0.1158206,0.118797 0.2049166,0.267291 0.2672884,0.445481 0.062363,0.178194 0.093546,0.383115 0.093551,0.614763 z"
         inkscape:connector-curvature="0" />
      <path
         id="path3005"
         d="m 10.517779,13.916127 -0.810775,0 0,1.60373 -0.8553229,0 0,-1.60373 -2.8867149,0 0,-0.962238 2.7352515,-4.0182362 1.0067863,0 0,4.2231572 0.810775,0 z m -1.6660979,-0.757317 0,-3.2252805 -2.1561265,3.2252805 z"
         inkscape:connector-curvature="0" />
      <path
         id="path3007"
         d="m 15.400247,13.354821 c 0.0059,0.593976 -0.20047,1.122613 -0.619218,1.585912 -0.418755,0.4633 -0.86869,0.694949 -1.349806,0.694949 -0.677133,0 -1.207254,-0.151463 -1.590366,-0.45439 -0.383114,-0.302926 -0.574671,-0.724647 -0.57467,-1.265165 l 0.962238,0 c -2e-6,0.326687 0.100974,0.573186 0.302927,0.739498 0.201949,0.166313 0.469237,0.24947 0.801865,0.249469 0.302924,10e-7 0.570212,-0.135128 0.801865,-0.405387 0.231647,-0.270257 0.347471,-0.645946 0.347475,-1.127067 -4e-6,-1.039451 -0.359358,-1.559178 -1.078063,-1.559182 -0.528639,4e-6 -0.932541,0.31778 -1.211708,0.953329 l -0.819684,0 0.115825,-3.8311342 3.492568,0 0,0.7573172 -2.601607,0 -0.106915,2.06703 c 0.03564,-0.0297 0.103944,-0.09652 0.204921,-0.200466 0.100974,-0.103941 0.182645,-0.178188 0.245014,-0.22274 0.06237,-0.04454 0.170766,-0.08909 0.325201,-0.133644 0.154431,-0.04454 0.338563,-0.06682 0.552396,-0.06682 0.558333,5e-6 0.996388,0.21532 1.314168,0.645947 0.317772,0.430635 0.47963,0.954817 0.485574,1.572547 z"
         inkscape:connector-curvature="0" />
    </g>
  </g>
</svg>
