<?xml version="1.0" encoding="UTF-8" standalone="no"?>
<!-- Generator: Adobe Illustrator 15.1.0, SVG Export Plug-In . SVG Version: 6.00 Build 0)  -->

<svg
   xmlns:dc="http://purl.org/dc/elements/1.1/"
   xmlns:cc="http://creativecommons.org/ns#"
   xmlns:rdf="http://www.w3.org/1999/02/22-rdf-syntax-ns#"
   xmlns:svg="http://www.w3.org/2000/svg"
   xmlns="http://www.w3.org/2000/svg"
   xmlns:sodipodi="http://sodipodi.sourceforge.net/DTD/sodipodi-0.dtd"
   xmlns:inkscape="http://www.inkscape.org/namespaces/inkscape"
   version="1.1"
   id="Ebene_1"
   x="0px"
   y="0px"
   width="30px"
   height="30px"
   viewBox="0 0 30 30"
   enable-background="new 0 0 30 30"
   xml:space="preserve"
   inkscape:version="0.48.4 r9939"
   sodipodi:docname="stylingbar_point-down.svg"><metadata
   id="metadata3511"><rdf:RDF><cc:Work
       rdf:about=""><dc:format>image/svg+xml</dc:format><dc:type
         rdf:resource="http://purl.org/dc/dcmitype/StillImage" /><dc:title></dc:title></cc:Work></rdf:RDF></metadata><defs
   id="defs3509"><clipPath
     id="clip2"><path
       d="m 0,0 0,135 260,0 0,-135 z"
       id="path3015"
       inkscape:connector-curvature="0" /></clipPath><clipPath
     id="clip6"><path
       d="m 0,0 0,135 260,0 0,-135 z"
       id="path3051"
       inkscape:connector-curvature="0" /></clipPath><clipPath
     id="clip8"><path
       d="m 0,0 0,135 260,0 0,-135 z"
       id="path3069"
       inkscape:connector-curvature="0" /></clipPath><clipPath
     id="clip7"><path
       d="m 0,0 0,135 260,0 0,-135 z"
       id="path3060"
       inkscape:connector-curvature="0" /></clipPath><clipPath
     id="clip4"><path
       d="m 0,0 0,135 260,0 0,-135 z"
       id="path3033"
       inkscape:connector-curvature="0" /></clipPath><clipPath
     id="clip5"><path
       d="m 0,0 0,135 260,0 0,-135 z"
       id="path3042"
       inkscape:connector-curvature="0" /></clipPath><clipPath
     id="clip10"><path
       d="m 0,0 0,135 260,0 0,-135 z"
       id="path3087"
       inkscape:connector-curvature="0" /></clipPath><clipPath
     id="clip10-4"><path
       d="m 0,0 0,135 260,0 0,-135 z"
       id="path3087-8"
       inkscape:connector-curvature="0" /></clipPath><clipPath
     id="clip11"><path
       d="m 0,0 0,135 260,0 0,-135 z"
       id="path3096"
       inkscape:connector-curvature="0" /></clipPath><clipPath
     id="clip12"><path
       d="m 0,0 0,135 260,0 0,-135 z"
       id="path3105"
       inkscape:connector-curvature="0" /></clipPath><clipPath
     id="clip13"><path
       d="m 0,0 0,135 260,0 0,-135 z"
       id="path3114"
       inkscape:connector-curvature="0" /></clipPath><clipPath
     id="clip14"><path
       d="m 0,0 0,135 260,0 0,-135 z"
       id="path3123"
       inkscape:connector-curvature="0" /></clipPath><clipPath
     id="clip11-8"><path
       d="m 0,0 0,135 260,0 0,-135 z"
       id="path3096-2"
       inkscape:connector-curvature="0" /></clipPath><clipPath
     id="clip12-4"><path
       d="m 0,0 0,135 260,0 0,-135 z"
       id="path3105-5"
       inkscape:connector-curvature="0" /></clipPath><clipPath
     id="clip13-5"><path
       d="m 0,0 0,135 260,0 0,-135 z"
       id="path3114-1"
       inkscape:connector-curvature="0" /></clipPath><clipPath
     id="clip14-7"><path
       d="m 0,0 0,135 260,0 0,-135 z"
       id="path3123-1"
       inkscape:connector-curvature="0" /></clipPath><clipPath
     id="clip21"><path
       d="m 0,0 0,135 260,0 0,-135 z"
       id="path3186"
       inkscape:connector-curvature="0" /></clipPath><clipPath
     id="clip22"><path
       d="m 0,0 0,135 260,0 0,-135 z"
       id="path3195"
       inkscape:connector-curvature="0" /></clipPath><clipPath
     id="clip15"><path
       d="m 0,0 0,135 260,0 0,-135 z"
       id="path3132"
       inkscape:connector-curvature="0" /></clipPath></defs><sodipodi:namedview
   pagecolor="#ffffff"
   bordercolor="#666666"
   borderopacity="1"
   objecttolerance="10"
   gridtolerance="10"
   guidetolerance="10"
   inkscape:pageopacity="0"
   inkscape:pageshadow="2"
   inkscape:window-width="1009"
   inkscape:window-height="1001"
   id="namedview3507"
   showgrid="false"
   inkscape:zoom="7.8666667"
   inkscape:cx="-4.8305085"
   inkscape:cy="15"
   inkscape:window-x="2750"
   inkscape:window-y="0"
   inkscape:window-maximized="0"
   inkscape:current-layer="Ebene_1" />

<g
   style="fill:#000000;fill-opacity:1;stroke-width:1;stroke-linecap:square;stroke-linejoin:miter;stroke-miterlimit:10;stroke-dasharray:none;stroke-dashoffset:0"
   clip-path="url(#clip15)"
   id="g3134"
   transform="translate(-146.25,-67)"><g
     id="g3136"
     style="fill:#000000;fill-opacity:1;stroke:#000000;stroke-width:4.5;stroke-opacity:1"><path
       d="m 168,82 -13.5,7.794 0,-15.588 L 168,82 z"
       id="path3138"
       inkscape:connector-curvature="0"
       style="fill:#000000;fill-opacity:1" /></g><!-- drawing style --></g></svg>