<?xml version="1.0" encoding="UTF-8" standalone="no"?>
<!-- Created with Inkscape (http://www.inkscape.org/) -->

<svg
   xmlns:dc="http://purl.org/dc/elements/1.1/"
   xmlns:cc="http://creativecommons.org/ns#"
   xmlns:rdf="http://www.w3.org/1999/02/22-rdf-syntax-ns#"
   xmlns:svg="http://www.w3.org/2000/svg"
   xmlns="http://www.w3.org/2000/svg"
   xmlns:sodipodi="http://sodipodi.sourceforge.net/DTD/sodipodi-0.dtd"
   xmlns:inkscape="http://www.inkscape.org/namespaces/inkscape"
   id="svg2"
   version="1.1"
   inkscape:version="0.48.2 r9819"
   viewBox="0 0 512 512" width="512"
   height="512"
   sodipodi:docname="slider.svg">
  <metadata
     id="metadata8">
    <rdf:RDF>
      <cc:Work
         rdf:about="">
        <dc:format>image/svg+xml</dc:format>
        <dc:type
           rdf:resource="http://purl.org/dc/dcmitype/StillImage" />
        <dc:title />
      </cc:Work>
    </rdf:RDF>
  </metadata>
  <defs
     id="defs6" />
  <sodipodi:namedview
     pagecolor="#ffffff"
     bordercolor="#666666"
     borderopacity="1"
     objecttolerance="10"
     gridtolerance="10"
     guidetolerance="10"
     inkscape:pageopacity="0"
     inkscape:pageshadow="2"
     inkscape:window-width="1280"
     inkscape:window-height="1002"
     id="namedview4"
     showgrid="false"
     inkscape:zoom="0.67621778"
     inkscape:cx="229.75899"
     inkscape:cy="174.5"
     inkscape:window-x="1358"
     inkscape:window-y="-8"
     inkscape:window-maximized="1"
     inkscape:current-layer="svg2" />
  <g
     id="g3803">
    <g
       id="text2984"
       style="font-size:169.03349304px;font-style:normal;font-variant:normal;font-weight:normal;font-stretch:normal;line-height:125%;letter-spacing:0px;word-spacing:0px;fill:#000000;fill-opacity:1;stroke:none;font-family:FreeUniversal;-inkscape-font-specification:FreeUniversal"
       transform="scale(0.95816648,1.04366)">
      <path
         id="path3799"
         style=""
         d="m 211.46153,253.70557 -15.1866,0 c -1.21059,-6.38277 -1.87088,-10.50956 -1.98086,-12.38039 -2.86131,3.4115 -5.17231,5.97011 -6.93301,7.67584 -1.76083,1.70575 -4.29192,3.27393 -7.59331,4.70455 -3.30148,1.43062 -7.0431,2.14593 -11.22488,2.14593 -8.03352,0 -15.43423,-2.17345 -22.20215,-6.52034 -6.76795,-4.34688 -10.15192,-10.31697 -10.15191,-17.91028 -1e-5,-4.95213 0.96291,-9.29901 2.88875,-13.04067 1.92583,-3.74159 4.4019,-6.74039 7.42823,-8.99641 3.0263,-2.25594 6.63036,-4.09924 10.8122,-5.52991 4.18179,-1.43057 8.25355,-2.39349 12.21531,-2.88875 3.96168,-0.49517 8.1435,-0.74277 12.54546,-0.74283 1.32052,6e-5 3.24635,0.0551 5.77751,0.16507 2.53104,0.11011 4.45687,0.16513 5.77751,0.16508 1.43056,-6.49277 0.6052,-11.83008 -2.47607,-16.01197 -3.0814,-4.18174 -8.30867,-6.27265 -15.68182,-6.27272 -5.17229,7e-5 -9.62923,1.10055 -13.37081,3.30143 -3.74166,2.20103 -5.61247,5.66753 -5.61244,10.39952 l -15.68182,0 c -2e-5,-16.61714 11.3349,-24.92575 34.00478,-24.92583 17.93774,8e-5 28.77744,4.78716 32.51914,14.36124 1.32049,3.08141 1.98078,11.99528 1.98086,26.74163 l 0,14.69139 c -8e-5,16.39714 0.71523,26.6866 2.14593,30.86842 z m -17.99282,-41.59809 c -5.6125,-0.3301 -8.52876,-0.49517 -8.7488,-0.49522 -3.19144,5e-5 -6.43785,0.24765 -9.73924,0.74283 -3.30148,0.49525 -6.823,1.32061 -10.56459,2.47607 -3.74166,1.15554 -6.76797,2.99884 -9.07895,5.52991 -2.31103,2.53113 -3.46653,5.55744 -3.4665,9.07895 -3e-5,4.62203 1.65069,8.30862 4.95215,11.0598 3.3014,2.75121 7.26312,4.12681 11.88517,4.1268 9.68416,1e-5 16.232,-2.83372 19.64354,-8.5012 3.41142,-5.66744 5.11716,-13.67341 5.11722,-24.01794 z" />
      <path
         id="path3801"
         style=""
         d="m 457.91369,253.70557 -73.62201,0 0,-15.68182 c 14.3062,-15.95691 25.66862,-28.63991 34.08732,-38.04904 8.41861,-9.40903 14.30616,-16.67218 17.66268,-21.78948 3.35639,-5.11714 5.03462,-9.60159 5.03469,-13.45335 -7e-5,-7.37311 -1.43069,-12.79296 -4.29187,-16.25957 -2.8613,-3.4664 -7.64838,-5.19965 -14.36124,-5.19976 -5.94263,1.1e-4 -10.39956,1.70585 -13.37081,5.11723 -2.97133,3.41158 -4.89716,8.85894 -5.77752,16.3421 l -17.16746,0 c 1.76075,-23.66017 13.866,-35.4903 36.31579,-35.49043 11.11477,1.3e-4 19.80854,3.38409 26.08134,10.15192 6.27265,6.76805 9.40901,14.44388 9.40909,23.02751 -8e-5,2.64123 -0.22018,5.06228 -0.66029,7.26316 -0.44027,2.20103 -1.15558,4.53955 -2.14593,7.01555 -0.99051,2.47615 -2.3386,5.03476 -4.04426,7.67583 -1.70582,2.64122 -3.85175,5.64002 -6.4378,8.99641 -2.58619,3.35652 -5.64002,7.01561 -9.16148,10.97728 -3.52159,3.96176 -7.62087,8.58377 -12.29785,13.86603 -4.67708,5.28232 -9.98688,11.11485 -15.92942,17.4976 -1.87085,2.09093 -3.30147,3.68662 -4.29187,4.78708 l 54.9689,0 z" />
    </g>
    <path
       inkscape:connector-curvature="0"
       id="path2988"
       d="m 18.211147,369.78765 476.851033,0"
       style="fill:none;stroke:#000000;stroke-width:18.01681519;stroke-linecap:butt;stroke-linejoin:miter;stroke-miterlimit:4;stroke-opacity:1;stroke-dasharray:none" />
    <path
       transform="matrix(0.78758407,0,0,0.76685818,187.6535,268.31727)"
       d="m 178.71824,132.31961 a 42.570225,43.720772 0 1 1 -85.140455,0 42.570225,43.720772 0 1 1 85.140455,0 z"
       sodipodi:ry="43.720772"
       sodipodi:rx="42.570225"
       sodipodi:cy="132.31961"
       sodipodi:cx="136.14801"
       id="path2990"
       style="fill:#000000;fill-opacity:1;fill-rule:nonzero;stroke:#000000;stroke-width:16.65663528000000000;stroke-linecap:round;stroke-linejoin:round;stroke-miterlimit:4;stroke-opacity:1;stroke-dasharray:none"
       sodipodi:type="arc" />
    <path
       inkscape:connector-curvature="0"
       id="path3778"
       d="m 246.50619,195.15924 78.42593,-1.04568"
       style="fill:none;stroke:#000000;stroke-width:17;stroke-linecap:butt;stroke-linejoin:miter;stroke-miterlimit:4;stroke-opacity:1;stroke-dasharray:none" />
    <path
       inkscape:connector-curvature="0"
       id="path3778-1"
       d="m 247.02903,236.46356 78.42593,-1.04568"
       style="fill:none;stroke:#000000;stroke-width:17;stroke-linecap:butt;stroke-linejoin:miter;stroke-miterlimit:4;stroke-opacity:1;stroke-dasharray:none" />
  </g>
</svg>
