<?xml version="1.0" encoding="UTF-8" standalone="no"?>
<!-- Created with Inkscape (http://www.inkscape.org/) -->

<svg
   xmlns:dc="http://purl.org/dc/elements/1.1/"
   xmlns:cc="http://creativecommons.org/ns#"
   xmlns:rdf="http://www.w3.org/1999/02/22-rdf-syntax-ns#"
   xmlns:svg="http://www.w3.org/2000/svg"
   xmlns="http://www.w3.org/2000/svg"
   xmlns:sodipodi="http://sodipodi.sourceforge.net/DTD/sodipodi-0.dtd"
   xmlns:inkscape="http://www.inkscape.org/namespaces/inkscape"
   id="svg2"
   version="1.1"
   inkscape:version="0.48.2 r9819"
   width="512"
   height="512"
   sodipodi:docname="polyline_between_points.svg">
  <metadata
     id="metadata8">
    <rdf:RDF>
      <cc:Work
         rdf:about="">
        <dc:format>image/svg+xml</dc:format>
        <dc:type
           rdf:resource="http://purl.org/dc/dcmitype/StillImage" />
        <dc:title />
      </cc:Work>
    </rdf:RDF>
  </metadata>
  <defs
     id="defs6" />
  <sodipodi:namedview
     pagecolor="#ffffff"
     bordercolor="#666666"
     borderopacity="1"
     objecttolerance="10"
     gridtolerance="10"
     guidetolerance="10"
     inkscape:pageopacity="0"
     inkscape:pageshadow="2"
     inkscape:window-width="1280"
     inkscape:window-height="1002"
     id="namedview4"
     showgrid="false"
     inkscape:zoom="0.921875"
     inkscape:cx="271.05417"
     inkscape:cy="286.18289"
     inkscape:window-x="1358"
     inkscape:window-y="-8"
     inkscape:window-maximized="1"
     inkscape:current-layer="svg2" />
  <g
     id="g3794"
     transform="translate(12,0)">
    <path
       inkscape:connector-curvature="0"
       id="path3789"
       d="M 83.740214,436.07762 391.94276,396.5222"
       style="fill:#ff0000;stroke:#ff0000;stroke-width:17;stroke-linecap:butt;stroke-linejoin:miter;stroke-miterlimit:4;stroke-opacity:1;stroke-dasharray:none" />
    <path
       inkscape:connector-curvature="0"
       id="path3791"
       d="M 129.88819,132.8195 408.42417,78.430811"
       style="fill:none;stroke:#ff0000;stroke-width:17;stroke-linecap:butt;stroke-linejoin:miter;stroke-miterlimit:4;stroke-opacity:1;stroke-dasharray:none" />
    <path
       inkscape:connector-curvature="0"
       id="path3793"
       d="M 383.70204,396.5222 128.24005,136.11578"
       style="fill:none;stroke:#fe0000;stroke-width:17;stroke-linecap:butt;stroke-linejoin:miter;stroke-miterlimit:4;stroke-opacity:1;stroke-dasharray:none" />
    <path
       inkscape:connector-curvature="0"
       id="path3795"
       d="M 83.740214,441.02203 408.42417,80.078953"
       style="fill:none;stroke:#000000;stroke-width:17;stroke-linecap:butt;stroke-linejoin:miter;stroke-miterlimit:4;stroke-opacity:1;stroke-dasharray:68, 34;stroke-dashoffset:98.59999606;marker-start:none" />
    <path
       transform="matrix(0.78758407,0,0,0.76685818,20.771997,33.038097)"
       d="m 178.71824,132.31961 c 0,24.14632 -19.05934,43.72077 -42.57023,43.72077 -23.51089,0 -42.570225,-19.57445 -42.570225,-43.72077 0,-24.14631 19.059335,-43.720771 42.570225,-43.720771 23.51089,0 42.57023,19.574461 42.57023,43.720771 z"
       sodipodi:ry="43.720772"
       sodipodi:rx="42.570225"
       sodipodi:cy="132.31961"
       sodipodi:cx="136.14801"
       id="path2990"
       style="fill:#0000ff;fill-opacity:1;fill-rule:nonzero;stroke:#000000;stroke-width:16.65663528;stroke-linecap:round;stroke-linejoin:round;stroke-miterlimit:4;stroke-opacity:1;stroke-dasharray:none"
       sodipodi:type="arc" />
    <path
       transform="matrix(0.78758407,0,0,0.76685818,295.21267,-25.538174)"
       d="m 178.71824,132.31961 c 0,24.14632 -19.05934,43.72077 -42.57023,43.72077 -23.51089,0 -42.570225,-19.57445 -42.570225,-43.72077 0,-24.14631 19.059335,-43.720771 42.570225,-43.720771 23.51089,0 42.57023,19.574461 42.57023,43.720771 z"
       sodipodi:ry="43.720772"
       sodipodi:rx="42.570225"
       sodipodi:cy="132.31961"
       sodipodi:cx="136.14801"
       id="path2990-1"
       style="fill:#0000ff;fill-opacity:1;fill-rule:nonzero;stroke:#000000;stroke-width:16.65663528;stroke-linecap:round;stroke-linejoin:round;stroke-miterlimit:4;stroke-opacity:1;stroke-dasharray:none"
       sodipodi:type="arc" />
    <path
       transform="matrix(0.78758407,0,0,0.76685818,277.85674,291.20759)"
       d="m 178.71824,132.31961 c 0,24.14632 -19.05934,43.72077 -42.57023,43.72077 -23.51089,0 -42.570225,-19.57445 -42.570225,-43.72077 0,-24.14631 19.059335,-43.720771 42.570225,-43.720771 23.51089,0 42.57023,19.574461 42.57023,43.720771 z"
       sodipodi:ry="43.720772"
       sodipodi:rx="42.570225"
       sodipodi:cy="132.31961"
       sodipodi:cx="136.14801"
       id="path2990-7"
       style="fill:#0000ff;fill-opacity:1;fill-rule:nonzero;stroke:#000000;stroke-width:16.65663528;stroke-linecap:round;stroke-linejoin:round;stroke-miterlimit:4;stroke-opacity:1;stroke-dasharray:none"
       sodipodi:type="arc" />
    <path
       transform="matrix(0.78758407,0,0,0.76685818,-21.533088,335.68216)"
       d="m 178.71824,132.31961 c 0,24.14632 -19.05934,43.72077 -42.57023,43.72077 -23.51089,0 -42.570225,-19.57445 -42.570225,-43.72077 0,-24.14631 19.059335,-43.720771 42.570225,-43.720771 23.51089,0 42.57023,19.574461 42.57023,43.720771 z"
       sodipodi:ry="43.720772"
       sodipodi:rx="42.570225"
       sodipodi:cy="132.31961"
       sodipodi:cx="136.14801"
       id="path2990-4"
       style="fill:#0000ff;fill-opacity:1;fill-rule:nonzero;stroke:#000000;stroke-width:16.65663528;stroke-linecap:round;stroke-linejoin:round;stroke-miterlimit:4;stroke-opacity:1;stroke-dasharray:none"
       sodipodi:type="arc" />
  </g>
</svg>
