<?xml version="1.0" encoding="UTF-8" standalone="no"?>
<!-- Created with Inkscape (http://www.inkscape.org/) -->

<svg
   xmlns:dc="http://purl.org/dc/elements/1.1/"
   xmlns:cc="http://creativecommons.org/ns#"
   xmlns:rdf="http://www.w3.org/1999/02/22-rdf-syntax-ns#"
   xmlns:svg="http://www.w3.org/2000/svg"
   xmlns="http://www.w3.org/2000/svg"
   xmlns:sodipodi="http://sodipodi.sourceforge.net/DTD/sodipodi-0.dtd"
   xmlns:inkscape="http://www.inkscape.org/namespaces/inkscape"
   id="svg2"
   version="1.1"
   inkscape:version="0.48.2 r9819"
   width="512"
   height="512"
   sodipodi:docname="create_matrix.svg">
  <metadata
     id="metadata8">
    <rdf:RDF>
      <cc:Work
         rdf:about="">
        <dc:format>image/svg+xml</dc:format>
        <dc:type
           rdf:resource="http://purl.org/dc/dcmitype/StillImage" />
        <dc:title />
      </cc:Work>
    </rdf:RDF>
  </metadata>
  <defs
     id="defs6" />
  <sodipodi:namedview
     pagecolor="#ffffff"
     bordercolor="#666666"
     borderopacity="1"
     objecttolerance="10"
     gridtolerance="10"
     guidetolerance="10"
     inkscape:pageopacity="0"
     inkscape:pageshadow="2"
     inkscape:window-width="1280"
     inkscape:window-height="1002"
     id="namedview4"
     showgrid="false"
     inkscape:zoom="0.921875"
     inkscape:cx="16"
     inkscape:cy="276.33898"
     inkscape:window-x="1358"
     inkscape:window-y="-8"
     inkscape:window-maximized="1"
     inkscape:current-layer="svg2" />
  <g
     id="g3001"
     transform="translate(0,-4)">
    <g
       id="text2987"
       style="font-size:234.15127563px;font-style:normal;font-variant:normal;font-weight:normal;font-stretch:normal;line-height:125%;letter-spacing:0px;word-spacing:0px;fill:#000000;fill-opacity:1;stroke:none;font-family:FreeUniversal;-inkscape-font-specification:FreeUniversal">
      <path
         id="path3017"
         d="m 150.71466,226.93309 -21.72302,0 0,-140.856627 c -8.68927,6.097825 -20.88463,12.576613 -36.586139,19.436387 l 0,-19.436387 c 6.707421,-4.115795 12.995659,-8.612836 18.864729,-13.491137 5.86897,-4.877993 10.02302,-8.574713 12.46215,-11.090173 2.43901,-2.515129 3.65855,-3.696555 3.65861,-3.544282 l 23.32367,0 z"
         inkscape:connector-curvature="0" />
    </g>
    <g
       id="text2987-1"
       style="font-size:234.15127563px;font-style:normal;font-variant:normal;font-weight:normal;font-stretch:normal;line-height:125%;letter-spacing:0px;word-spacing:0px;fill:#000000;fill-opacity:1;stroke:none;font-family:FreeUniversal;-inkscape-font-specification:FreeUniversal">
      <path
         id="path3020"
         d="m 436.48593,226.22792 -101.98386,0 0,-21.72302 c 19.81746,-22.10408 35.55711,-39.67303 47.21899,-52.7069 11.66175,-13.03373 19.81741,-23.0949 24.46698,-30.18356 4.64939,-7.08846 6.97414,-13.30047 6.97423,-18.63607 -9e-5,-10.213494 -1.98184,-17.721267 -5.94525,-22.523338 -3.96358,-4.80178 -10.59481,-7.202743 -19.89371,-7.202896 -8.23194,1.53e-4 -14.40584,2.363005 -18.52173,7.088564 -4.11599,4.72585 -6.78372,12.271734 -8.00322,22.63767 l -23.78099,0 c 2.43906,-32.774923 19.20769,-49.162447 50.30594,-49.162619 15.39658,1.72e-4 27.43951,4.687766 36.12881,14.062796 8.68909,9.375347 13.03369,20.008182 13.03381,31.898538 -1.2e-4,3.658735 -0.305,7.012465 -0.91465,10.061185 -0.60989,3.04896 -1.60076,6.28836 -2.97263,9.7182 -1.37209,3.43005 -3.2395,6.97433 -5.60225,10.63284 -2.36296,3.65871 -5.33558,7.81275 -8.91787,12.46215 -3.58249,4.64957 -7.81275,9.71827 -12.69082,15.20612 -4.87823,5.48798 -10.5567,11.89055 -17.03542,19.20772 -6.47885,7.31727 -13.83418,15.3967 -22.06601,24.23831 -2.59156,2.89643 -4.57331,5.10684 -5.94525,6.63124 l 76.1449,0 z"
         inkscape:connector-curvature="0" />
    </g>
    <g
       id="text2987-4"
       style="font-size:234.15127563px;font-style:normal;font-variant:normal;font-weight:normal;font-stretch:normal;line-height:125%;letter-spacing:0px;word-spacing:0px;fill:#000000;fill-opacity:1;stroke:none;font-family:FreeUniversal;-inkscape-font-specification:FreeUniversal">
      <path
         id="path3023"
         d="m 188.70272,417.8018 c -1.2e-4,13.87228 -5.22126,25.41977 -15.66344,34.6425 -10.44239,9.22276 -23.66674,13.83413 -39.67309,13.83414 -17.68335,-10e-6 -31.09825,-4.72571 -40.244754,-14.17713 -9.146549,-9.4514 -13.719812,-20.65589 -13.719801,-33.61352 l 24.924305,0 c 1.82927,19.81752 11.73801,29.72626 29.72624,29.72624 7.92692,2e-5 15.12981,-2.85827 21.60868,-8.57488 6.47871,-5.71655 9.7181,-12.30967 9.7182,-19.77938 -1e-4,-24.0858 -15.77786,-35.90006 -47.33332,-35.44282 l 0,-18.75039 c 14.63439,10e-5 25.72455,-2.5152 33.27052,-7.54589 7.5458,-5.03049 11.31874,-13.18614 11.31884,-24.46698 -1e-4,-8.84151 -3.08705,-15.20597 -9.26087,-19.09339 -6.17399,-3.88713 -12.84333,-5.83076 -20.00804,-5.83092 -14.48207,1.6e-4 -23.39993,9.75645 -26.75362,29.26891 l -23.780985,0 c 1.981733,-15.24408 7.240985,-26.94401 15.777772,-35.09982 8.536723,-8.15549 19.969883,-12.23332 34.299503,-12.23349 15.70147,1.7e-4 28.46849,4.23044 38.30111,12.69081 9.83241,8.4607 14.74867,19.09354 14.74879,31.89854 -1.2e-4,5.3356 -1.10532,10.28997 -3.31562,14.86312 -2.21052,4.57338 -4.91637,8.19388 -8.11755,10.86151 -3.20139,2.66784 -6.55511,5.25935 -10.06119,7.77455 -3.50626,2.51539 -6.47888,4.38281 -8.91787,5.60226 1.06701,0.60985 3.35364,1.82939 6.8599,3.65861 3.50608,1.82939 6.4787,3.62058 8.91787,5.37359 2.43897,1.75316 5.14482,4.15413 8.11755,7.20289 2.97251,3.04892 5.25914,6.85997 6.8599,11.43317 1.60053,4.57333 2.40085,9.83258 2.40097,15.77777 z"
         inkscape:connector-curvature="0" />
    </g>
    <g
       id="text2987-9"
       style="font-size:234.15127563px;font-style:normal;font-variant:normal;font-weight:normal;font-stretch:normal;line-height:125%;letter-spacing:0px;word-spacing:0px;fill:#000000;fill-opacity:1;stroke:none;font-family:FreeUniversal;-inkscape-font-specification:FreeUniversal">
      <path
         id="path2999"
         d="m 431.68423,423.04024 -20.80837,0 0,41.15941 -21.95168,0 0,-41.15941 -74.08693,0 0,-24.69564 70.19965,-103.12717 25.83896,0 0,108.38643 20.80837,0 z m -42.76005,-19.43638 0,-82.77614 -55.33653,82.77614 z"
         inkscape:connector-curvature="0" />
    </g>
  </g>
</svg>
