<?xml version="1.0" encoding="UTF-8" standalone="no"?>
<!-- Created with Inkscape (http://www.inkscape.org/) -->

<svg
   xmlns:dc="http://purl.org/dc/elements/1.1/"
   xmlns:cc="http://creativecommons.org/ns#"
   xmlns:rdf="http://www.w3.org/1999/02/22-rdf-syntax-ns#"
   xmlns:svg="http://www.w3.org/2000/svg"
   xmlns="http://www.w3.org/2000/svg"
   xmlns:sodipodi="http://sodipodi.sourceforge.net/DTD/sodipodi-0.dtd"
   xmlns:inkscape="http://www.inkscape.org/namespaces/inkscape"
   id="svg2"
   version="1.1"
   inkscape:version="0.48.2 r9819"
   width="512"
   height="512"
   sodipodi:docname="distance_or_length.svg">
  <metadata
     id="metadata8">
    <rdf:RDF>
      <cc:Work
         rdf:about="">
        <dc:format>image/svg+xml</dc:format>
        <dc:type
           rdf:resource="http://purl.org/dc/dcmitype/StillImage" />
        <dc:title />
      </cc:Work>
    </rdf:RDF>
  </metadata>
  <defs
     id="defs6" />
  <sodipodi:namedview
     pagecolor="#ffffff"
     bordercolor="#666666"
     borderopacity="1"
     objecttolerance="10"
     gridtolerance="10"
     guidetolerance="10"
     inkscape:pageopacity="0"
     inkscape:pageshadow="2"
     inkscape:window-width="1280"
     inkscape:window-height="1002"
     id="namedview4"
     showgrid="false"
     inkscape:zoom="0.64555977"
     inkscape:cx="24.415422"
     inkscape:cy="259.93611"
     inkscape:window-x="1358"
     inkscape:window-y="-8"
     inkscape:window-maximized="1"
     inkscape:current-layer="svg2" />
  <g
     id="g3785"
     transform="translate(2,-24)">
    <g
       id="text2986"
       style="font-size:118.81999969px;font-style:normal;font-variant:normal;font-weight:normal;font-stretch:normal;line-height:125%;letter-spacing:0px;word-spacing:0px;fill:#000000;fill-opacity:1;stroke:none;font-family:FreeUniversal;-inkscape-font-specification:FreeUniversal"
       transform="scale(0.9407028,1.063035)">
      <path
         id="path3781"
         d="m 209.1303,180.53947 c -6e-5,6.18856 -1.89529,11.33278 -5.68572,15.43268 -3.79053,4.09991 -9.78567,6.14986 -17.98545,6.14986 -17.56,0 -26.33999,-10.40447 -26.33998,-31.21345 -1e-5,-10.52048 2.01127,-18.35285 6.03383,-23.49712 4.02253,-5.14417 10.40446,-7.71628 19.1458,-7.71634 8.66392,6e-5 15.04584,1.83728 19.1458,5.51167 4.09985,3.6745 5.8017,8.56731 5.10554,14.67845 l -10.55919,0 c 0.54145,-2.93952 0.0967,-5.35691 -1.33441,-7.2522 -1.43114,-1.89519 -3.26836,-3.19092 -5.51167,-3.88718 -2.24338,-0.69616 -4.79615,-1.04426 -7.65832,-1.04432 -4.17729,6e-5 -7.50363,1.85662 -9.97902,5.56969 -2.47544,3.71317 -3.71314,9.59228 -3.71313,17.63735 -1e-5,8.19984 1.31505,14.11762 3.9452,17.75337 2.6301,3.63578 6.5753,5.45366 11.83558,5.45366 4.56402,0 7.87101,-1.41176 9.92101,-4.23529 2.04991,-2.8235 3.07489,-5.93711 3.07493,-9.34083 z"
         inkscape:connector-curvature="0" />
      <path
         id="path3783"
         d="m 313.32987,200.61356 -10.67524,0 0,-38.40764 c -8e-5,-4.71872 -1.12175,-8.39316 -3.36501,-11.02334 -2.24343,-2.63008 -5.60845,-3.94514 -10.09506,-3.9452 -4.09998,6e-5 -7.65839,1.62455 -10.67524,4.87348 -3.01697,3.24903 -4.52543,6.61405 -4.52537,10.09506 l 0,38.40764 -10.67523,0 0,-38.40764 c -5e-5,-4.02251 -1.21842,-7.5229 -3.65511,-10.50118 -2.43678,-2.97819 -5.62774,-4.4673 -9.5729,-4.46736 -4.33201,6e-5 -8.06447,1.64389 -11.19739,4.9315 -3.13297,3.28771 -4.69945,6.63338 -4.69943,10.03704 l 0,38.40764 -10.67523,0 0,-59.41 10.67523,0 0,8.23849 c 4.71874,-6.49791 10.59785,-9.74689 17.63735,-9.74695 5.49229,6e-5 9.66955,0.81231 12.53179,2.43674 2.86215,1.62455 5.41492,4.33203 7.65832,8.12246 5.02813,-7.03941 11.44874,-10.55914 19.26184,-10.5592 14.6977,6e-5 22.04658,7.50366 22.04668,22.51082 z"
         inkscape:connector-curvature="0" />
    </g>
    <path
       inkscape:connector-curvature="0"
       id="path2990"
       d="M 130.11963,383.42941 379.51559,239.36839"
       style="fill:none;stroke:#000000;stroke-width:13;stroke-linecap:butt;stroke-linejoin:miter;stroke-miterlimit:4;stroke-opacity:1;stroke-dasharray:none" />
    <path
       sodipodi:nodetypes="cccc"
       inkscape:connector-curvature="0"
       id="path3760"
       d="m 360.92708,217.68178 26.33373,48.02035 82.0993,-79.00121 z"
       style="fill:#000000;fill-opacity:1;stroke:#000000;stroke-width:1px;stroke-linecap:butt;stroke-linejoin:miter;stroke-opacity:1" />
    <path
       sodipodi:nodetypes="cccc"
       inkscape:connector-curvature="0"
       id="path3760-1"
       d="M 148.70815,404.34151 122.37442,356.32116 40.275122,435.32237 z"
       style="fill:#000000;fill-opacity:1;stroke:#000000;stroke-width:1px;stroke-linecap:butt;stroke-linejoin:miter;stroke-opacity:1" />
  </g>
</svg>
