<?xml version="1.0" encoding="UTF-8" standalone="no"?>
<!-- Created with Inkscape (http://www.inkscape.org/) -->

<svg
   xmlns:dc="http://purl.org/dc/elements/1.1/"
   xmlns:cc="http://creativecommons.org/ns#"
   xmlns:rdf="http://www.w3.org/1999/02/22-rdf-syntax-ns#"
   xmlns:svg="http://www.w3.org/2000/svg"
   xmlns="http://www.w3.org/2000/svg"
   xmlns:sodipodi="http://sodipodi.sourceforge.net/DTD/sodipodi-0.dtd"
   xmlns:inkscape="http://www.inkscape.org/namespaces/inkscape"
   id="svg3153"
   version="1.1"
   inkscape:version="0.48.2 r9819"
   viewBox="0 0 512 512" width="512"
   height="512"
   sodipodi:docname="rotate_around_point.svg">
  <metadata
     id="metadata3159">
    <rdf:RDF>
      <cc:Work
         rdf:about="">
        <dc:format>image/svg+xml</dc:format>
        <dc:type
           rdf:resource="http://purl.org/dc/dcmitype/StillImage" />
        <dc:title />
      </cc:Work>
    </rdf:RDF>
  </metadata>
  <defs
     id="defs3157" />
  <sodipodi:namedview
     pagecolor="#ffffff"
     bordercolor="#666666"
     borderopacity="1"
     objecttolerance="10"
     gridtolerance="10"
     guidetolerance="10"
     inkscape:pageopacity="0"
     inkscape:pageshadow="2"
     inkscape:window-width="1680"
     inkscape:window-height="988"
     id="namedview3155"
     showgrid="false"
     inkscape:zoom="0.965"
     inkscape:cx="8.1709683"
     inkscape:cy="224.65353"
     inkscape:window-x="1358"
     inkscape:window-y="-8"
     inkscape:window-maximized="1"
     inkscape:current-layer="svg3153" />
  <g
     id="g3788">
    <g
       transform="matrix(16.061416,0,0,16.061416,-15.489035,-4.505665)"
       id="g3850">
      <path
         style="fill:none;stroke:#000000;stroke-width:1.05843723;stroke-linecap:butt;stroke-linejoin:miter;stroke-miterlimit:4;stroke-opacity:1;stroke-dasharray:none"
         d="m 18.279737,2.893073 -0.213385,16.110422 3.947586,-4.054282 4.374352,8.748706 2.560594,-1.280294 -4.267656,-8.748704 5.334571,-0.533462 z"
         id="path3063"
         inkscape:connector-curvature="0"
         sodipodi:nodetypes="cccccccc" />
    </g>
    <path
       inkscape:connector-curvature="0"
       id="path3056"
       d="m 11.451373,501.38828 c -0.04757,-0.0933 -0.121715,-0.1883 -0.253124,-0.32431 -0.08792,-0.091 -0.139021,-0.13772 -0.210616,-0.19257 -0.116589,-0.0893 -0.263263,-0.16396 -0.37644,-0.19156 -0.06398,-0.0156 -0.109808,-0.0198 -0.214042,-0.0196 -0.07592,1.5e-4 -0.100088,0.001 -0.157471,0.006 -0.02613,0.002 -0.01566,-7.1e-4 0.01788,-0.005 0.05313,-0.007 0.08588,-0.01 0.143793,-0.01 0.07384,8e-5 0.132926,0.006 0.193164,0.0193 0.232726,0.0513 0.442846,0.195 0.700211,0.47877 0.07957,0.0877 0.112721,0.13247 0.141595,0.19107 0.01322,0.0268 0.02815,0.0642 0.02702,0.0676 -3.52e-4,0.001 -0.0057,-0.008 -0.01196,-0.0203 z"
       style="fill:#666666;fill-opacity:1;stroke:none" />
    <g
       id="g3775"
       transform="translate(-424.02891,20.68572)">
      <path
         sodipodi:type="arc"
         style="fill:#dcdcdc;fill-opacity:1;fill-rule:nonzero;stroke:#666666;stroke-width:5.54481363;stroke-linecap:round;stroke-linejoin:round;stroke-miterlimit:4;stroke-opacity:1;stroke-dasharray:none"
         id="path2990"
         sodipodi:cx="136.14801"
         sodipodi:cy="132.31961"
         sodipodi:rx="42.570225"
         sodipodi:ry="43.720772"
         d="m 178.71824,132.31961 c 0,14.85905 -7.34826,28.70095 -19.50959,36.75022 l -23.06064,-36.75022 z"
         transform="matrix(1.0787337,-4.2365609,4.1250726,1.050346,-195.78935,853.35615)"
         sodipodi:start="0"
         sodipodi:end="0.99832833" />
      <path
         sodipodi:type="arc"
         style="fill:#0000ff;fill-opacity:1;fill-rule:nonzero;stroke:#000000;stroke-width:16.65663528;stroke-linecap:round;stroke-linejoin:round;stroke-miterlimit:4;stroke-opacity:1;stroke-dasharray:none"
         id="path2990-7"
         sodipodi:cx="136.14801"
         sodipodi:cy="132.31961"
         sodipodi:rx="42.570225"
         sodipodi:ry="43.720772"
         d="m 178.71824,132.31961 c 0,24.14632 -19.05934,43.72077 -42.57023,43.72077 -23.51089,0 -42.570225,-19.57445 -42.570225,-43.72077 0,-24.14631 19.059335,-43.720771 42.570225,-43.720771 23.51089,0 42.57023,19.574461 42.57023,43.720771 z"
         transform="matrix(0.78758407,0,0,0.76685818,382.09843,321.84648)" />
      <text
         xml:space="preserve"
         style="font-size:40px;font-style:normal;font-variant:normal;font-weight:normal;font-stretch:normal;line-height:125%;letter-spacing:0px;word-spacing:0px;fill:#000000;fill-opacity:1;stroke:none;font-family:FreeUniversal;-inkscape-font-specification:FreeUniversal"
         x="174.25389"
         y="306.68137"
         id="text3797"
         sodipodi:linespacing="125%"><tspan
           sodipodi:role="line"
           id="tspan3799"
           x="174.25389"
           y="306.68137" /></text>
      <path
         style="fill:none;stroke:#666666;stroke-width:10.10000038;stroke-linecap:butt;stroke-linejoin:miter;stroke-miterlimit:4;stroke-opacity:1;stroke-dasharray:none"
         d="m 608.45737,294.59595 c -2.10811,6.48078 -6.11908,3.77542 -12.42911,30.47171 -0.0339,34.81519 -32.21177,39.7495 -42.14537,23.01423 -14.51422,-25.72939 6.04043,-62.92544 28.63782,-47.56791 18.60384,14.23836 12.26024,40.84113 23.73517,58.90847"
         id="path3801"
         inkscape:connector-curvature="0"
         sodipodi:nodetypes="ccccc" />
    </g>
  </g>
</svg>
