<?xml version="1.0" encoding="UTF-8" standalone="no"?>
<!-- Created with Inkscape (http://www.inkscape.org/) -->

<svg
   xmlns:dc="http://purl.org/dc/elements/1.1/"
   xmlns:cc="http://creativecommons.org/ns#"
   xmlns:rdf="http://www.w3.org/1999/02/22-rdf-syntax-ns#"
   xmlns:svg="http://www.w3.org/2000/svg"
   xmlns="http://www.w3.org/2000/svg"
   xmlns:sodipodi="http://sodipodi.sourceforge.net/DTD/sodipodi-0.dtd"
   xmlns:inkscape="http://www.inkscape.org/namespaces/inkscape"
   id="svg2"
   version="1.1"
   inkscape:version="0.48.2 r9819"
   viewBox="0 0 512 512" width="512"
   height="512"
   sodipodi:docname="reflect_object_about_circle.svg">
  <metadata
     id="metadata8">
    <rdf:RDF>
      <cc:Work
         rdf:about="">
        <dc:format>image/svg+xml</dc:format>
        <dc:type
           rdf:resource="http://purl.org/dc/dcmitype/StillImage" />
        <dc:title />
      </cc:Work>
    </rdf:RDF>
  </metadata>
  <defs
     id="defs6" />
  <sodipodi:namedview
     pagecolor="#ffffff"
     bordercolor="#666666"
     borderopacity="1"
     objecttolerance="10"
     gridtolerance="10"
     guidetolerance="10"
     inkscape:pageopacity="0"
     inkscape:pageshadow="2"
     inkscape:window-width="1680"
     inkscape:window-height="988"
     id="namedview4"
     showgrid="false"
     inkscape:zoom="1.0172414"
     inkscape:cx="470.8664"
     inkscape:cy="246.63827"
     inkscape:window-x="1358"
     inkscape:window-y="-8"
     inkscape:window-maximized="1"
     inkscape:current-layer="svg2" />
  <g
     id="g3774">
    <path
       inkscape:transform-center-y="27.804877"
       inkscape:transform-center-x="-69.512192"
       transform="matrix(0.78758407,0,0,0.76685818,17.893947,261.07841)"
       d="m 178.71824,132.31961 a 42.570225,43.720772 0 1 1 -85.140455,0 42.570225,43.720772 0 1 1 85.140455,0 z"
       sodipodi:ry="43.720772"
       sodipodi:rx="42.570225"
       sodipodi:cy="132.31961"
       sodipodi:cx="136.14801"
       id="path2990"
       style="fill:#0000ff;fill-opacity:1;fill-rule:nonzero;stroke:#000000;stroke-width:16.65663528;stroke-linecap:round;stroke-linejoin:round;stroke-miterlimit:4;stroke-opacity:1;stroke-dasharray:none"
       sodipodi:type="arc" />
    <path
       inkscape:transform-center-y="-18.07317"
       inkscape:transform-center-x="133.46341"
       transform="matrix(0.78758407,0,0,0.76685818,277.86954,49.236956)"
       d="m 178.71824,132.31961 a 42.570225,43.720772 0 1 1 -85.140455,0 42.570225,43.720772 0 1 1 85.140455,0 z"
       sodipodi:ry="43.720772"
       sodipodi:rx="42.570225"
       sodipodi:cy="132.31961"
       sodipodi:cx="136.14801"
       id="path2990-1"
       style="fill:#ff0000;fill-opacity:1;fill-rule:nonzero;stroke:#000000;stroke-width:16.65663528;stroke-linecap:round;stroke-linejoin:round;stroke-miterlimit:4;stroke-opacity:1;stroke-dasharray:none"
       sodipodi:type="arc" />
    <path
       sodipodi:nodetypes="caaaaasc"
       inkscape:connector-curvature="0"
       id="path3772"
       d="m 147.45121,-5.7959693 c 7.64634,45.8780473 3.84681,35.4001483 7.64634,52.7594033 8.57484,39.176675 16.53703,79.317386 34.06098,115.390236 24.83426,51.12105 58.8938,98.46597 98.70732,139.02439 30.06183,30.62429 66.44087,54.95167 103.57316,76.4634 25.40567,14.71819 52.6675,26.51032 80.63414,35.45123 11.94653,3.81929 25.02439,6.25609 36.84146,7.64634 11.81708,1.39024 11.12195,0 11.12195,0"
       style="fill:none;stroke:#000000;stroke-width:17;stroke-linecap:butt;stroke-linejoin:miter;stroke-miterlimit:4;stroke-opacity:1;stroke-dasharray:none" />
  </g>
</svg>
