<?xml version="1.0" encoding="UTF-8" standalone="no"?>
<!-- Created with Inkscape (http://www.inkscape.org/) -->

<svg
   xmlns:dc="http://purl.org/dc/elements/1.1/"
   xmlns:cc="http://creativecommons.org/ns#"
   xmlns:rdf="http://www.w3.org/1999/02/22-rdf-syntax-ns#"
   xmlns:svg="http://www.w3.org/2000/svg"
   xmlns="http://www.w3.org/2000/svg"
   xmlns:sodipodi="http://sodipodi.sourceforge.net/DTD/sodipodi-0.dtd"
   xmlns:inkscape="http://www.inkscape.org/namespaces/inkscape"
   id="svg2"
   version="1.1"
   inkscape:version="0.48.2 r9819"
   viewBox="0 0 512 512" width="512"
   height="512"
   sodipodi:docname="create_list.svg">
  <metadata
     id="metadata8">
    <rdf:RDF>
      <cc:Work
         rdf:about="">
        <dc:format>image/svg+xml</dc:format>
        <dc:type
           rdf:resource="http://purl.org/dc/dcmitype/StillImage" />
        <dc:title />
      </cc:Work>
    </rdf:RDF>
  </metadata>
  <defs
     id="defs6" />
  <sodipodi:namedview
     pagecolor="#ffffff"
     bordercolor="#666666"
     borderopacity="1"
     objecttolerance="10"
     gridtolerance="10"
     guidetolerance="10"
     inkscape:pageopacity="0"
     inkscape:pageshadow="2"
     inkscape:window-width="1680"
     inkscape:window-height="988"
     id="namedview4"
     showgrid="false"
     inkscape:zoom="0.65186406"
     inkscape:cx="16.045864"
     inkscape:cy="84.919901"
     inkscape:window-x="1358"
     inkscape:window-y="-8"
     inkscape:window-maximized="1"
     inkscape:current-layer="svg2" />
  <g
     id="text2987"
     style="font-size:12px;font-style:normal;font-variant:normal;font-weight:normal;font-stretch:normal;line-height:125%;letter-spacing:0px;word-spacing:0px;fill:#008000;fill-opacity:1;stroke:none;font-family:FreeUniversal;-inkscape-font-specification:FreeUniversal"
     transform="matrix(18.333333,0,0,18.333333,-37.493931,-41.668208)">
    <path
       inkscape:connector-curvature="0"
       id="path2985"
       d="M 6.7201365,22.13092 C 6.1420072,22.130918 5.6752108,22.07232 5.3197459,21.955139 4.964274,21.837949 4.6927899,21.572324 4.5052928,21.158264 4.3802902,20.8692 4.3021653,20.515685 4.2709178,20.097717 4.2396654,19.679748 4.2259935,19.296936 4.2299021,18.94928 4.233806,18.601624 4.2123216,18.259828 4.165449,17.923889 4.1185717,17.587953 3.9838062,17.300844 3.7611521,17.062561 3.5384942,16.824282 3.2123226,16.662173 2.7826365,16.576233 l 0,-0.878906 c 0.4374986,-0.101559 0.7675764,-0.273434 0.9902344,-0.515625 0.2226541,-0.242184 0.3554664,-0.531246 0.3984375,-0.867188 0.042966,-0.335932 0.060544,-0.677729 0.052734,-1.02539 -0.00781,-0.34765 0.00195,-0.726556 0.029297,-1.136719 C 4.2806804,11.742256 4.364665,11.392647 4.5052926,11.103577 4.7084147,10.689523 4.9877113,10.423898 5.3431832,10.306702 5.6986481,10.189523 6.157632,10.13093 6.7201363,10.13092 l 0,0.890625 c -0.367192,9e-6 -0.6582073,0.06251 -0.8730469,0.1875 -0.2148475,0.125008 -0.3554724,0.289071 -0.421875,0.492188 -0.06641,0.203132 -0.1093784,0.431648 -0.1289062,0.685547 -0.019535,0.253913 -0.015629,0.511725 0.011719,0.773437 0.02734,0.261725 0.025387,0.513678 -0.00586,0.75586 -0.054691,0.585942 -0.1543002,1.019535 -0.2988282,1.300781 -0.1445342,0.281254 -0.3847684,0.589847 -0.7207031,0.925781 0.3359347,0.328128 0.5761689,0.632815 0.7207031,0.914063 0.144528,0.281252 0.2441372,0.710939 0.2988282,1.289062 0.031246,0.242188 0.0332,0.494141 0.00586,0.75586 -0.027347,0.261718 -0.031253,0.521484 -0.011719,0.779296 0.019528,0.257812 0.062496,0.486327 0.1289062,0.685547 0.066403,0.199218 0.2070275,0.361327 0.421875,0.486328 0.2148396,0.124998 0.5058549,0.187498 0.8730469,0.1875 z" />
    <path
       inkscape:connector-curvature="0"
       id="path2987"
       d="m 12.227949,19.248108 -1.113281,0 0,-7.21875 c -0.445316,0.312507 -1.070315,0.644538 -1.8750002,0.996094 l 0,-0.996094 c 0.3437481,-0.21093 0.6660134,-0.441399 0.9667972,-0.691406 0.300778,-0.249992 0.513668,-0.439445 0.638672,-0.56836 0.124996,-0.128897 0.187496,-0.189444 0.1875,-0.18164 l 1.195312,0 z" />
    <path
       inkscape:connector-curvature="0"
       id="path2989"
       d="m 17.114668,17.771545 -1.3125,3 -0.84375,0 0.726562,-3 z" />
    <path
       inkscape:connector-curvature="0"
       id="path2991"
       d="m 23.65373,19.248108 -5.226562,0 0,-1.113281 c 1.015623,-1.132811 1.822263,-2.0332 2.419922,-2.701172 0.597652,-0.667964 1.01562,-1.183589 1.253906,-1.546875 0.238276,-0.363276 0.357417,-0.681635 0.357422,-0.955078 -5e-6,-0.523431 -0.101567,-0.908196 -0.304688,-1.154297 -0.203129,-0.246086 -0.542972,-0.369133 -1.019531,-0.369141 -0.421878,8e-6 -0.738284,0.121102 -0.949219,0.363281 -0.21094,0.242195 -0.347658,0.628914 -0.410156,1.160157 l -1.21875,0 c 0.124999,-1.67968 0.984373,-2.519523 2.578125,-2.519532 0.789058,9e-6 1.406245,0.240243 1.851563,0.720704 0.445306,0.480476 0.667962,1.025397 0.667968,1.634765 -6e-6,0.187506 -0.01563,0.359381 -0.04687,0.515625 -0.03126,0.156256 -0.08204,0.322271 -0.152343,0.498047 -0.07032,0.175787 -0.166022,0.357427 -0.28711,0.544922 -0.121099,0.187505 -0.273443,0.400395 -0.457031,0.638672 -0.183599,0.238285 -0.400395,0.49805 -0.650391,0.779297 -0.250004,0.281253 -0.541019,0.609378 -0.873047,0.984375 -0.332034,0.375002 -0.708987,0.789064 -1.130859,1.242187 -0.132815,0.148439 -0.234377,0.26172 -0.304687,0.339844 l 3.902343,0 z" />
    <path
       inkscape:connector-curvature="0"
       id="path2993"
       d="m 29.290449,16.564514 c -0.437504,0.101565 -0.767582,0.27344 -0.990234,0.515625 -0.22266,0.24219 -0.355473,0.531252 -0.398438,0.867188 -0.04297,0.335938 -0.06055,0.677735 -0.05273,1.02539 0.0078,0.347656 -0.0039,0.726562 -0.03516,1.136719 -0.03125,0.410155 -0.117191,0.759764 -0.257813,1.048828 -0.203128,0.41406 -0.480471,0.679685 -0.832031,0.796875 -0.351565,0.117185 -0.808596,0.175779 -1.371094,0.175781 l 0,-0.890625 c 0.367186,-2e-6 0.658202,-0.0625 0.873047,-0.1875 0.214842,-0.125001 0.355466,-0.289064 0.421875,-0.492187 0.0664,-0.203126 0.109373,-0.431642 0.128906,-0.685547 0.01953,-0.253907 0.01562,-0.513672 -0.01172,-0.779297 -0.02735,-0.265624 -0.02539,-0.51953 0.0059,-0.761719 0.05468,-0.578123 0.154294,-1.00781 0.298828,-1.289062 0.144528,-0.281248 0.384762,-0.589841 0.720703,-0.925781 -0.335941,-0.328122 -0.576175,-0.634762 -0.720703,-0.919922 -0.144534,-0.285152 -0.244143,-0.716792 -0.298828,-1.294922 -0.03125,-0.242182 -0.03321,-0.494135 -0.0059,-0.755859 0.02734,-0.261713 0.03125,-0.519525 0.01172,-0.773438 -0.01953,-0.253899 -0.0625,-0.480461 -0.128906,-0.679687 -0.06641,-0.199211 -0.207033,-0.361321 -0.421875,-0.486329 -0.214845,-0.124991 -0.505861,-0.187491 -0.873047,-0.1875 l 0,-0.890625 c 0.578123,10e-6 1.04492,0.0586 1.400391,0.175782 0.355466,0.117196 0.623044,0.382821 0.802734,0.796875 0.132809,0.28907 0.21484,0.642585 0.246094,1.060547 0.03125,0.417975 0.04296,0.800787 0.03516,1.148437 -0.0078,0.347662 0.01367,0.689458 0.06445,1.025391 0.05078,0.335942 0.187496,0.623051 0.410156,0.861328 0.222653,0.238285 0.548824,0.400394 0.978516,0.486328 z" />
  </g>
</svg>
