<?xml version="1.0" encoding="UTF-8" standalone="no"?>
<!-- Created with Inkscape (http://www.inkscape.org/) -->

<svg
   xmlns:dc="http://purl.org/dc/elements/1.1/"
   xmlns:cc="http://creativecommons.org/ns#"
   xmlns:rdf="http://www.w3.org/1999/02/22-rdf-syntax-ns#"
   xmlns:svg="http://www.w3.org/2000/svg"
   xmlns="http://www.w3.org/2000/svg"
   xmlns:sodipodi="http://sodipodi.sourceforge.net/DTD/sodipodi-0.dtd"
   xmlns:inkscape="http://www.inkscape.org/namespaces/inkscape"
   id="svg2"
   version="1.1"
   inkscape:version="0.48.2 r9819"
   viewBox="0 0 512 512" width="512"
   height="512"
   sodipodi:docname="zoom_out.svg">
  <metadata
     id="metadata8">
    <rdf:RDF>
      <cc:Work
         rdf:about="">
        <dc:format>image/svg+xml</dc:format>
        <dc:type
           rdf:resource="http://purl.org/dc/dcmitype/StillImage" />
        <dc:title />
      </cc:Work>
    </rdf:RDF>
  </metadata>
  <defs
     id="defs6" />
  <sodipodi:namedview
     pagecolor="#ffffff"
     bordercolor="#666666"
     borderopacity="1"
     objecttolerance="10"
     gridtolerance="10"
     guidetolerance="10"
     inkscape:pageopacity="0"
     inkscape:pageshadow="2"
     inkscape:window-width="1280"
     inkscape:window-height="1002"
     id="namedview4"
     showgrid="false"
     inkscape:zoom="0.65186406"
     inkscape:cx="483.72339"
     inkscape:cy="352.82495"
     inkscape:window-x="1358"
     inkscape:window-y="-8"
     inkscape:window-maximized="1"
     inkscape:current-layer="svg2" />
  <g
     id="g3047"
     transform="matrix(24.951839,0,0,24.951839,-146.34059,-156.70783)">
    <g
       transform="translate(12.464255,1.3902438)"
       id="g3007">
      <path
         sodipodi:type="arc"
         style="fill:#000000;fill-opacity:1;stroke:none"
         id="path2987"
         sodipodi:cx="15.196803"
         sodipodi:cy="16.036165"
         sodipodi:rx="5.7047939"
         sodipodi:ry="5.6568542"
         d="m 20.901597,16.036165 c 0,3.124195 -2.554123,5.656854 -5.704794,5.656854 -3.150671,0 -5.7047938,-2.532659 -5.7047938,-5.656854 0,-3.124194 2.5541228,-5.656854 5.7047938,-5.656854 3.150671,0 5.704794,2.53266 5.704794,5.656854 z"
         transform="matrix(1.0042017,0,0,1.0042017,-13.798503,-3.5431898)" />
      <path
         sodipodi:type="arc"
         style="fill:#ffffff;fill-opacity:1;stroke:none"
         id="path2987-1"
         sodipodi:cx="15.196803"
         sodipodi:cy="16.036165"
         sodipodi:rx="5.7047939"
         sodipodi:ry="5.6568542"
         d="m 20.901597,16.036165 c 0,3.124195 -2.554123,5.656854 -5.704794,5.656854 -3.150671,0 -5.7047938,-2.532659 -5.7047938,-5.656854 0,-3.124194 2.5541228,-5.656854 5.7047938,-5.656854 3.150671,0 5.704794,2.53266 5.704794,5.656854 z"
         transform="matrix(0.8109244,0,0,0.8109244,-10.837336,-0.41032623)" />
    </g>
    <rect
       y="13.015981"
       x="10.978132"
       height="2.0134566"
       width="6.0883093"
       id="rect3011"
       style="fill:#0d0d0d;fill-opacity:1;stroke:none" />
    <rect
       transform="matrix(0.72467322,-0.68909268,0.68909268,0.72467322,0,0)"
       y="25.148888"
       x="-0.27684435"
       height="8.0538263"
       width="2.157275"
       id="rect3031"
       style="fill:#0d0d0d;fill-opacity:1;stroke:none" />
  </g>
</svg>
