<?xml version="1.0" encoding="UTF-8" standalone="no"?>
<!-- Created with Inkscape (http://www.inkscape.org/) -->

<svg
   xmlns:dc="http://purl.org/dc/elements/1.1/"
   xmlns:cc="http://creativecommons.org/ns#"
   xmlns:rdf="http://www.w3.org/1999/02/22-rdf-syntax-ns#"
   xmlns:svg="http://www.w3.org/2000/svg"
   xmlns="http://www.w3.org/2000/svg"
   xmlns:sodipodi="http://sodipodi.sourceforge.net/DTD/sodipodi-0.dtd"
   xmlns:inkscape="http://www.inkscape.org/namespaces/inkscape"
   id="svg2"
   version="1.1"
   inkscape:version="0.48.2 r9819"
   viewBox="0 0 512 512" width="512"
   height="512"
   sodipodi:docname="locus.svg">
  <metadata
     id="metadata8">
    <rdf:RDF>
      <cc:Work
         rdf:about="">
        <dc:format>image/svg+xml</dc:format>
        <dc:type
           rdf:resource="http://purl.org/dc/dcmitype/StillImage" />
        <dc:title />
      </cc:Work>
    </rdf:RDF>
  </metadata>
  <defs
     id="defs6">
    <inkscape:path-effect
       effect="spiro"
       id="path-effect3011"
       is_visible="true" />
    <inkscape:path-effect
       effect="spiro"
       id="path-effect2995"
       is_visible="true" />
  </defs>
  <sodipodi:namedview
     pagecolor="#ffffff"
     bordercolor="#666666"
     borderopacity="1"
     objecttolerance="10"
     gridtolerance="10"
     guidetolerance="10"
     inkscape:pageopacity="0"
     inkscape:pageshadow="2"
     inkscape:window-width="1680"
     inkscape:window-height="988"
     id="namedview4"
     showgrid="false"
     inkscape:zoom="0.921875"
     inkscape:cx="51.478928"
     inkscape:cy="276.33898"
     inkscape:window-x="1358"
     inkscape:window-y="-8"
     inkscape:window-maximized="1"
     inkscape:current-layer="g3934" />
  <g
     id="g3934"
     transform="matrix(18.598412,0,0,18.598412,-48.705332,-49.848227)">
    <g
       id="g3779"
       transform="translate(0.40827251,0)">
      <path
         style="fill:none;stroke:#000000;stroke-width:0.91405654;stroke-linecap:butt;stroke-linejoin:miter;stroke-miterlimit:4;stroke-opacity:1;stroke-dasharray:none"
         d="M 15.118644,12.338983 30.779661,23.661017"
         id="path3834"
         inkscape:connector-curvature="0"
         sodipodi:nodetypes="cc" />
      <path
         style="fill:none;stroke:#ff0000;stroke-width:1.88188112;stroke-linecap:butt;stroke-linejoin:miter;stroke-miterlimit:4;stroke-opacity:1;stroke-dasharray:none"
         d="M 5.4027404,5.4524981 C 14.758671,12.774532 21.063757,18.130464 18.555281,24.02877 16.031139,29.963914 1.855788,27.3532 4.0468081,21.045719 6.2840963,14.605041 26.555282,7.7575826 26.555282,7.7575826"
         id="path3029"
         inkscape:connector-curvature="0"
         sodipodi:nodetypes="cssc" />
      <path
         sodipodi:type="arc"
         style="fill:#000000;fill-opacity:1;stroke:#000000;stroke-width:0.77700001;stroke-miterlimit:4;stroke-opacity:1;stroke-dasharray:none;stroke-dashoffset:5.8"
         id="path3814"
         sodipodi:cx="3.0508475"
         sodipodi:cy="2.7457626"
         sodipodi:rx="0.81355929"
         sodipodi:ry="0.71186441"
         d="m 3.8644068,2.7457626 c 0,0.3931518 -0.3642429,0.7118644 -0.8135593,0.7118644 -0.4493164,0 -0.8135593,-0.3187126 -0.8135593,-0.7118644 0,-0.3931519 0.3642429,-0.7118644 0.8135593,-0.7118644 0.4493164,0 0.8135593,0.3187125 0.8135593,0.7118644 z"
         transform="matrix(0.98445536,0,0,1.1250918,2.0551456,2.1372081)" />
      <path
         sodipodi:type="arc"
         style="fill:#000000;fill-opacity:1;stroke:#000000;stroke-width:0.77700001;stroke-miterlimit:4;stroke-opacity:1;stroke-dasharray:none;stroke-dashoffset:5.8"
         id="path3814-1"
         sodipodi:cx="3.0508475"
         sodipodi:cy="2.7457626"
         sodipodi:rx="0.81355929"
         sodipodi:ry="0.71186441"
         d="m 3.8644068,2.7457626 c 0,0.3931518 -0.3642429,0.7118644 -0.8135593,0.7118644 -0.4493164,0 -0.8135593,-0.3187126 -0.8135593,-0.7118644 0,-0.3931519 0.3642429,-0.7118644 0.8135593,-0.7118644 0.4493164,0 0.8135593,0.3187125 0.8135593,0.7118644 z"
         transform="matrix(0.98445536,0,0,1.1250918,23.567596,4.5584476)" />
      <path
         inkscape:transform-center-y="39.999996"
         inkscape:transform-center-x="-124.74576"
         transform="matrix(0.04234684,0,0,0.04123245,8.4599562,21.487432)"
         d="m 178.71824,132.31961 c 0,24.14632 -19.05934,43.72077 -42.57023,43.72077 -23.51089,0 -42.570225,-19.57445 -42.570225,-43.72077 0,-24.14631 19.059335,-43.720771 42.570225,-43.720771 23.51089,0 42.57023,19.574461 42.57023,43.720771 z"
         sodipodi:ry="43.720772"
         sodipodi:rx="42.570225"
         sodipodi:cy="132.31961"
         sodipodi:cx="136.14801"
         id="path2990"
         style="fill:#0000ff;fill-opacity:1;fill-rule:nonzero;stroke:#000000;stroke-width:16.65663528;stroke-linecap:round;stroke-linejoin:round;stroke-miterlimit:4;stroke-opacity:1;stroke-dasharray:none"
         sodipodi:type="arc" />
      <path
         transform="matrix(0.04234684,0,0,0.04123245,18.55012,13.613604)"
         d="m 178.71824,132.31961 c 0,24.14632 -19.05934,43.72077 -42.57023,43.72077 -23.51089,0 -42.570225,-19.57445 -42.570225,-43.72077 0,-24.14631 19.059335,-43.720771 42.570225,-43.720771 23.51089,0 42.57023,19.574461 42.57023,43.720771 z"
         sodipodi:ry="43.720772"
         sodipodi:rx="42.570225"
         sodipodi:cy="132.31961"
         sodipodi:cx="136.14801"
         id="path2990-1"
         style="fill:#8e8eee;fill-opacity:1;fill-rule:nonzero;stroke:#000000;stroke-width:16.65663528;stroke-linecap:round;stroke-linejoin:round;stroke-miterlimit:4;stroke-opacity:1;stroke-dasharray:none"
         sodipodi:type="arc" />
    </g>
  </g>
</svg>
