<?xml version="1.0" encoding="UTF-8" standalone="no"?>
<!-- Created with Inkscape (http://www.inkscape.org/) -->

<svg
   xmlns:dc="http://purl.org/dc/elements/1.1/"
   xmlns:cc="http://creativecommons.org/ns#"
   xmlns:rdf="http://www.w3.org/1999/02/22-rdf-syntax-ns#"
   xmlns:svg="http://www.w3.org/2000/svg"
   xmlns="http://www.w3.org/2000/svg"
   xmlns:xlink="http://www.w3.org/1999/xlink"
   xmlns:sodipodi="http://sodipodi.sourceforge.net/DTD/sodipodi-0.dtd"
   xmlns:inkscape="http://www.inkscape.org/namespaces/inkscape"
   id="svg2985"
   version="1.1"
   inkscape:version="0.48.2 r9819"
   width="512"
   height="512"
   sodipodi:docname="insert_button.svg">
  <metadata
     id="metadata2991">
    <rdf:RDF>
      <cc:Work
         rdf:about="">
        <dc:format>image/svg+xml</dc:format>
        <dc:type
           rdf:resource="http://purl.org/dc/dcmitype/StillImage" />
        <dc:title />
      </cc:Work>
    </rdf:RDF>
  </metadata>
  <defs
     id="defs2989">
    <linearGradient
       inkscape:collect="always"
       id="linearGradient3767">
      <stop
         style="stop-color:#000000;stop-opacity:1;"
         offset="0"
         id="stop3770" />
      <stop
         style="stop-color:#000000;stop-opacity:0;"
         offset="1"
         id="stop3772" />
    </linearGradient>
    <linearGradient
       inkscape:collect="always"
       id="linearGradient3765">
      <stop
         style="stop-color:#000000;stop-opacity:1;"
         offset="0"
         id="stop3767" />
      <stop
         style="stop-color:#000000;stop-opacity:0"
         offset="1"
         id="stop3769" />
    </linearGradient>
    <inkscape:path-effect
       effect="spiro"
       id="path-effect3779"
       is_visible="true" />
    <linearGradient
       inkscape:collect="always"
       xlink:href="#linearGradient3765"
       id="linearGradient3771"
       x1="15.956907"
       y1="38.190929"
       x2="15.520926"
       y2="11.160106"
       gradientUnits="userSpaceOnUse" />
    <linearGradient
       inkscape:collect="always"
       xlink:href="#linearGradient3765"
       id="linearGradient3953"
       gradientUnits="userSpaceOnUse"
       x1="15.956907"
       y1="38.190929"
       x2="16.025969"
       y2="10.927009" />
    <linearGradient
       inkscape:collect="always"
       xlink:href="#linearGradient3765"
       id="linearGradient3958"
       gradientUnits="userSpaceOnUse"
       x1="15.956907"
       y1="38.190929"
       x2="16.025969"
       y2="10.927009"
       gradientTransform="matrix(20.704,0,0,20.704,-74.221875,-60.487242)" />
    <linearGradient
       inkscape:collect="always"
       xlink:href="#linearGradient3765"
       id="linearGradient3965"
       gradientUnits="userSpaceOnUse"
       gradientTransform="matrix(20.704,0,0,20.704,-74.221875,-60.487242)"
       x1="15.956907"
       y1="38.190929"
       x2="16.025969"
       y2="10.927009" />
    <linearGradient
       inkscape:collect="always"
       xlink:href="#linearGradient3765"
       id="linearGradient3970"
       gradientUnits="userSpaceOnUse"
       gradientTransform="matrix(20.604629,0,0,20.604629,-647.23984,-78.348304)"
       x1="15.956907"
       y1="38.190929"
       x2="16.025969"
       y2="10.927009" />
    <linearGradient
       inkscape:collect="always"
       xlink:href="#linearGradient3767"
       id="linearGradient3774"
       x1="255.56155"
       y1="656.40302"
       x2="253.90909"
       y2="154.05447"
       gradientUnits="userSpaceOnUse"
       gradientTransform="matrix(0.96732882,0,0,0.96732882,2.3909185,14.992241)" />
  </defs>
  <sodipodi:namedview
     pagecolor="#ffffff"
     bordercolor="#666666"
     borderopacity="1"
     objecttolerance="10"
     gridtolerance="10"
     guidetolerance="10"
     inkscape:pageopacity="0"
     inkscape:pageshadow="2"
     inkscape:window-width="1680"
     inkscape:window-height="988"
     id="namedview2987"
     showgrid="false"
     inkscape:zoom="0.8791156"
     inkscape:cx="220.92018"
     inkscape:cy="232.72926"
     inkscape:window-x="1358"
     inkscape:window-y="-8"
     inkscape:window-maximized="1"
     inkscape:current-layer="g3977" />
  <g
     id="g3977"
     transform="matrix(0.9735033,0,0,0.9735033,5.381046,8.1183953)">
    <g
       id="text3781"
       style="font-size:232.79801941px;font-style:normal;font-variant:normal;font-weight:normal;font-stretch:normal;line-height:125%;letter-spacing:0px;word-spacing:0px;fill:#4c4c4c;fill-opacity:1;stroke:none;font-family:FreeUniversal;-inkscape-font-specification:FreeUniversal"
       transform="scale(1.0446265,0.95727996)">
      <path
         id="path3973"
         style="fill:#4c4c4c;fill-opacity:1"
         d="m 236.87462,269.43417 c -1.7e-4,16.52024 -2.65249,31.44901 -7.95696,44.78634 -5.3048,13.33742 -13.83011,24.2877 -25.57596,32.85089 -11.74611,8.56321 -25.87918,12.84481 -42.39925,12.84481 -16.52024,0 -30.6912,-4.2816 -42.51292,-12.84481 -11.82181,-8.56319 -20.422897,-19.51347 -25.803293,-32.85089 -5.38044,-13.33733 -8.070648,-28.2661 -8.070634,-44.78634 -1.4e-5,-25.15905 6.479221,-45.46823 19.437727,-60.9276 12.95844,-15.45908 31.94146,-23.1887 56.94912,-23.18887 24.85593,1.7e-4 43.72528,7.72979 56.60811,23.18887 12.88255,15.45937 19.32389,35.76855 19.32406,60.9276 z m -23.87089,0 c -1.4e-4,-9.3967 -0.83373,-17.77045 -2.50076,-25.12127 -1.66731,-7.3506 -4.39541,-14.01928 -8.18431,-20.00608 -3.78915,-5.98653 -9.16957,-10.60914 -16.14127,-13.86785 -6.97192,-3.25842 -15.38356,-4.8877 -25.23494,-4.88785 -34.85913,1.5e-4 -52.28865,21.29448 -52.28861,63.88305 -4e-5,7.42658 0.49253,14.39839 1.47772,20.91545 0.9851,6.51719 2.72806,12.84486 5.22886,18.98304 2.50071,6.13827 5.68349,11.36713 9.54835,15.68659 3.86476,4.31952 8.86627,7.80542 15.00456,10.45772 6.13816,2.65234 13.14786,3.9785 21.02912,3.97848 7.88109,2e-5 14.89079,-1.32614 21.02912,-3.97848 6.13811,-2.6523 11.13963,-6.1382 15.00456,-10.45772 3.86468,-4.31946 7.00957,-9.58621 9.43469,-15.80026 2.42484,-6.21396 4.1299,-12.54163 5.11519,-18.98304 0.985,-6.44128 1.47758,-13.3752 1.47772,-20.80178 z"
         inkscape:connector-curvature="0" />
      <path
         id="path3975"
         style="fill:#4c4c4c;fill-opacity:1"
         d="m 399.65136,356.73343 -31.37317,0 -75.47748,-88.66331 0,88.66331 -23.41621,0 0,-168.0056 23.41621,0 0,71.38533 69.33925,-71.38533 28.87241,0 -71.38533,72.29469 z"
         inkscape:connector-curvature="0" />
    </g>
    <path
       style="fill:url(#linearGradient3774);fill-opacity:1;stroke:#3a3a3a;stroke-width:24.84143639;stroke-linecap:butt;stroke-linejoin:miter;stroke-miterlimit:4;stroke-opacity:1;stroke-dasharray:none"
       d="m 45.823856,413.01531 419.903544,0 22.6058,-20.34525 7e-5,-254.88089 -24.86646,-24.86643 -411.9915,0.56515 -23.73613,25.43158 10e-7,252.05514 z"
       id="path2997"
       inkscape:connector-curvature="0"
       sodipodi:nodetypes="ccccccccc" />
  </g>
</svg>
