<?xml version="1.0" encoding="UTF-8" standalone="no"?>
<!-- Created with Inkscape (http://www.inkscape.org/) -->

<svg
   xmlns:dc="http://purl.org/dc/elements/1.1/"
   xmlns:cc="http://creativecommons.org/ns#"
   xmlns:rdf="http://www.w3.org/1999/02/22-rdf-syntax-ns#"
   xmlns:svg="http://www.w3.org/2000/svg"
   xmlns="http://www.w3.org/2000/svg"
   xmlns:sodipodi="http://sodipodi.sourceforge.net/DTD/sodipodi-0.dtd"
   xmlns:inkscape="http://www.inkscape.org/namespaces/inkscape"
   id="svg2"
   version="1.1"
   inkscape:version="0.48.2 r9819"
   viewBox="0 0 512 512" width="512"
   height="512"
   sodipodi:docname="conic_through_5_points.svg">
  <metadata
     id="metadata8">
    <rdf:RDF>
      <cc:Work
         rdf:about="">
        <dc:format>image/svg+xml</dc:format>
        <dc:type
           rdf:resource="http://purl.org/dc/dcmitype/StillImage" />
        <dc:title />
      </cc:Work>
    </rdf:RDF>
  </metadata>
  <defs
     id="defs6" />
  <sodipodi:namedview
     pagecolor="#ffffff"
     bordercolor="#666666"
     borderopacity="1"
     objecttolerance="10"
     gridtolerance="10"
     guidetolerance="10"
     inkscape:pageopacity="0"
     inkscape:pageshadow="2"
     inkscape:window-width="1280"
     inkscape:window-height="1002"
     id="namedview4"
     showgrid="false"
     inkscape:zoom="1.27"
     inkscape:cx="264.73398"
     inkscape:cy="228.94763"
     inkscape:window-x="1358"
     inkscape:window-y="-8"
     inkscape:window-maximized="1"
     inkscape:current-layer="svg2" />
  <g
     id="g3797">
    <path
       transform="matrix(1.6557752,0.04466561,-0.21493914,2.1259981,7.7446206,-173.66155)"
       d="m 306.10786,194.06299 a 121.0685,85.039368 0 1 1 -242.136989,0 121.0685,85.039368 0 1 1 242.136989,0 z"
       sodipodi:ry="85.039368"
       sodipodi:rx="121.0685"
       sodipodi:cy="194.06299"
       sodipodi:cx="185.03937"
       id="path3787"
       style="fill:none;stroke:#000000;stroke-width:9.04847499;stroke-miterlimit:4;stroke-opacity:1;stroke-dasharray:none"
       sodipodi:type="arc" />
    <path
       transform="matrix(0.78758407,0,0,0.76685818,-34.787059,183.75797)"
       d="m 178.71824,132.31961 a 42.570225,43.720772 0 1 1 -85.140455,0 42.570225,43.720772 0 1 1 85.140455,0 z"
       sodipodi:ry="43.720772"
       sodipodi:rx="42.570225"
       sodipodi:cy="132.31961"
       sodipodi:cx="136.14801"
       id="path2990"
       style="fill:#0000ff;fill-opacity:1;fill-rule:nonzero;stroke:#000000;stroke-width:16.65663528;stroke-linecap:round;stroke-linejoin:round;stroke-miterlimit:4;stroke-opacity:1;stroke-dasharray:none"
       sodipodi:type="arc" />
    <path
       transform="matrix(0.78758407,0,0,0.76685818,69.149949,-9.942815)"
       d="m 178.71824,132.31961 a 42.570225,43.720772 0 1 1 -85.140455,0 42.570225,43.720772 0 1 1 85.140455,0 z"
       sodipodi:ry="43.720772"
       sodipodi:rx="42.570225"
       sodipodi:cy="132.31961"
       sodipodi:cx="136.14801"
       id="path2990-1"
       style="fill:#0000ff;fill-opacity:1;fill-rule:nonzero;stroke:#000000;stroke-width:16.65663528;stroke-linecap:round;stroke-linejoin:round;stroke-miterlimit:4;stroke-opacity:1;stroke-dasharray:none"
       sodipodi:type="arc" />
    <path
       transform="matrix(0.78758407,0,0,0.76685818,326.63026,29.427264)"
       d="m 178.71824,132.31961 a 42.570225,43.720772 0 1 1 -85.140455,0 42.570225,43.720772 0 1 1 85.140455,0 z"
       sodipodi:ry="43.720772"
       sodipodi:rx="42.570225"
       sodipodi:cy="132.31961"
       sodipodi:cx="136.14801"
       id="path2990-7"
       style="fill:#0000ff;fill-opacity:1;fill-rule:nonzero;stroke:#000000;stroke-width:16.65663528;stroke-linecap:round;stroke-linejoin:round;stroke-miterlimit:4;stroke-opacity:1;stroke-dasharray:none"
       sodipodi:type="arc" />
    <path
       transform="matrix(0.78758407,0,0,0.76685818,326.63026,247.5375)"
       d="m 178.71824,132.31961 a 42.570225,43.720772 0 1 1 -85.140455,0 42.570225,43.720772 0 1 1 85.140455,0 z"
       sodipodi:ry="43.720772"
       sodipodi:rx="42.570225"
       sodipodi:cy="132.31961"
       sodipodi:cx="136.14801"
       id="path2990-4"
       style="fill:#0000ff;fill-opacity:1;fill-rule:nonzero;stroke:#000000;stroke-width:16.65663528;stroke-linecap:round;stroke-linejoin:round;stroke-miterlimit:4;stroke-opacity:1;stroke-dasharray:none"
       sodipodi:type="arc" />
    <path
       transform="matrix(0.78758407,0,0,0.76685818,120.33105,324.70285)"
       d="m 178.71824,132.31961 a 42.570225,43.720772 0 1 1 -85.140455,0 42.570225,43.720772 0 1 1 85.140455,0 z"
       sodipodi:ry="43.720772"
       sodipodi:rx="42.570225"
       sodipodi:cy="132.31961"
       sodipodi:cx="136.14801"
       id="path2990-0"
       style="fill:#0000ff;fill-opacity:1;fill-rule:nonzero;stroke:#000000;stroke-width:16.65663528;stroke-linecap:round;stroke-linejoin:round;stroke-miterlimit:4;stroke-opacity:1;stroke-dasharray:none"
       sodipodi:type="arc" />
  </g>
</svg>
