<?xml version="1.0" encoding="UTF-8" standalone="no"?>
<!-- Created with Inkscape (http://www.inkscape.org/) -->

<svg
   xmlns:dc="http://purl.org/dc/elements/1.1/"
   xmlns:cc="http://creativecommons.org/ns#"
   xmlns:rdf="http://www.w3.org/1999/02/22-rdf-syntax-ns#"
   xmlns:svg="http://www.w3.org/2000/svg"
   xmlns="http://www.w3.org/2000/svg"
   xmlns:sodipodi="http://sodipodi.sourceforge.net/DTD/sodipodi-0.dtd"
   xmlns:inkscape="http://www.inkscape.org/namespaces/inkscape"
   id="svg2"
   version="1.1"
   inkscape:version="0.48.2 r9819"
   viewBox="0 0 512 512" width="512"
   height="512"
   sodipodi:docname="dilate_object_from_point_by_factor.svg">
  <metadata
     id="metadata8">
    <rdf:RDF>
      <cc:Work
         rdf:about="">
        <dc:format>image/svg+xml</dc:format>
        <dc:type
           rdf:resource="http://purl.org/dc/dcmitype/StillImage" />
        <dc:title />
      </cc:Work>
    </rdf:RDF>
  </metadata>
  <defs
     id="defs6" />
  <sodipodi:namedview
     pagecolor="#ffffff"
     bordercolor="#666666"
     borderopacity="1"
     objecttolerance="10"
     gridtolerance="10"
     guidetolerance="10"
     inkscape:pageopacity="0"
     inkscape:pageshadow="2"
     inkscape:window-width="1680"
     inkscape:window-height="988"
     id="namedview4"
     showgrid="false"
     inkscape:zoom="0.96182825"
     inkscape:cx="76.335848"
     inkscape:cy="241.9091"
     inkscape:window-x="1358"
     inkscape:window-y="-8"
     inkscape:window-maximized="1"
     inkscape:current-layer="svg2" />
  <path
     style="fill:#656565;fill-opacity:1;stroke:none"
     d=""
     id="path2995"
     inkscape:connector-curvature="0" />
  <path
     sodipodi:type="arc"
     style="fill:#0000ff;fill-opacity:1;fill-rule:nonzero;stroke:#000000;stroke-width:16.65663528;stroke-linecap:round;stroke-linejoin:round;stroke-miterlimit:4;stroke-opacity:1;stroke-dasharray:none"
     id="path2990"
     sodipodi:cx="136.14801"
     sodipodi:cy="132.31961"
     sodipodi:rx="42.570225"
     sodipodi:ry="43.720772"
     d="m 178.71824,132.31961 a 42.570225,43.720772 0 1 1 -85.140455,0 42.570225,43.720772 0 1 1 85.140455,0 z"
     transform="matrix(0.78758407,0,0,0.76685818,-0.140279,295.1244)" />
  <path
     sodipodi:type="arc"
     style="fill:#0000ff;fill-opacity:1;fill-rule:nonzero;stroke:#000000;stroke-width:16.65663528;stroke-linecap:round;stroke-linejoin:round;stroke-miterlimit:4;stroke-opacity:1;stroke-dasharray:none"
     id="path2990-1"
     sodipodi:cx="136.14801"
     sodipodi:cy="132.31961"
     sodipodi:rx="42.570225"
     sodipodi:ry="43.720772"
     d="m 178.71824,132.31961 a 42.570225,43.720772 0 1 1 -85.140455,0 42.570225,43.720772 0 1 1 85.140455,0 z"
     transform="matrix(0.78758407,0,0,0.76685818,108.06651,209.8701)" />
  <path
     sodipodi:type="arc"
     style="fill:#ff0000;fill-opacity:1;fill-rule:nonzero;stroke:#000000;stroke-width:16.65663528;stroke-linecap:round;stroke-linejoin:round;stroke-miterlimit:4;stroke-opacity:1;stroke-dasharray:none"
     id="path2990-1-4"
     sodipodi:cx="136.14801"
     sodipodi:cy="132.31961"
     sodipodi:rx="42.570225"
     sodipodi:ry="43.720772"
     d="m 178.71824,132.31961 a 42.570225,43.720772 0 1 1 -85.140455,0 42.570225,43.720772 0 1 1 85.140455,0 z"
     transform="matrix(0.78758407,0,0,0.76685818,307.60697,54.956787)" />
  <path
     sodipodi:type="arc"
     style="fill:#000000;fill-opacity:1;fill-rule:nonzero;stroke:none"
     id="path3806"
     sodipodi:cx="151.44492"
     sodipodi:cy="363.12817"
     sodipodi:rx="8.0868645"
     sodipodi:ry="8.4544487"
     d="m 159.53178,363.12817 a 8.0868645,8.4544487 0 1 1 -16.17373,0 8.0868645,8.4544487 0 1 1 16.17373,0 z" />
  <path
     transform="translate(114.68644,-90.058258)"
     sodipodi:type="arc"
     style="fill:#000000;fill-opacity:1;fill-rule:nonzero;stroke:none"
     id="path3806-0"
     sodipodi:cx="151.44492"
     sodipodi:cy="363.12817"
     sodipodi:rx="8.0868645"
     sodipodi:ry="8.4544487"
     d="m 159.53178,363.12817 a 8.0868645,8.4544487 0 1 1 -16.17373,0 8.0868645,8.4544487 0 1 1 16.17373,0 z"
     inkscape:transform-center-x="63.224576"
     inkscape:transform-center-y="113.2161" />
  <path
     transform="translate(152.91525,-120.20021)"
     sodipodi:type="arc"
     style="fill:#000000;fill-opacity:1;fill-rule:nonzero;stroke:none"
     id="path3806-9"
     sodipodi:cx="151.44492"
     sodipodi:cy="363.12817"
     sodipodi:rx="8.0868645"
     sodipodi:ry="8.4544487"
     d="m 159.53178,363.12817 a 8.0868645,8.4544487 0 1 1 -16.17373,0 8.0868645,8.4544487 0 1 1 16.17373,0 z" />
  <path
     transform="translate(192.6144,-150.34216)"
     sodipodi:type="arc"
     style="fill:#000000;fill-opacity:1;fill-rule:nonzero;stroke:none"
     id="path3806-4"
     sodipodi:cx="151.44492"
     sodipodi:cy="363.12817"
     sodipodi:rx="8.0868645"
     sodipodi:ry="8.4544487"
     d="m 159.53178,363.12817 a 8.0868645,8.4544487 0 1 1 -16.17373,0 8.0868645,8.4544487 0 1 1 16.17373,0 z" />
  <path
     transform="translate(227.16737,-177.54343)"
     sodipodi:type="arc"
     style="fill:#000000;fill-opacity:1;fill-rule:nonzero;stroke:none"
     id="path3806-8"
     sodipodi:cx="151.44492"
     sodipodi:cy="363.12817"
     sodipodi:rx="8.0868645"
     sodipodi:ry="8.4544487"
     d="m 159.53178,363.12817 a 8.0868645,8.4544487 0 1 1 -16.17373,0 8.0868645,8.4544487 0 1 1 16.17373,0 z" />
  <g
     style="font-size:147.98136902000002000px;font-style:normal;font-variant:normal;font-weight:normal;font-stretch:normal;line-height:125%;letter-spacing:0px;word-spacing:0px;fill:#666666;fill-opacity:1;stroke:none;font-family:FreeUniversal;-inkscape-font-specification:FreeUniversal"
     id="text3847">
    <path
       d="m 261.71472,176.76271 -17.48608,0 -29.62518,-39.45206 0,39.45206 -13.2952,0 0,-106.795148 13.2952,0 0,63.585748 28.03553,-30.78128 16.76352,0 -29.62518,32.22641 z"
       id="path3852"
       inkscape:connector-curvature="0"
       style="fill:#666666;fill-opacity:1" />
  </g>
</svg>
