<?xml version="1.0" encoding="UTF-8" standalone="no"?>
<!-- Created with Inkscape (http://www.inkscape.org/) -->

<svg
   xmlns:dc="http://purl.org/dc/elements/1.1/"
   xmlns:cc="http://creativecommons.org/ns#"
   xmlns:rdf="http://www.w3.org/1999/02/22-rdf-syntax-ns#"
   xmlns:svg="http://www.w3.org/2000/svg"
   xmlns="http://www.w3.org/2000/svg"
   xmlns:sodipodi="http://sodipodi.sourceforge.net/DTD/sodipodi-0.dtd"
   xmlns:inkscape="http://www.inkscape.org/namespaces/inkscape"
   id="svg2"
   version="1.1"
   inkscape:version="0.48.2 r9819"
   width="512"
   height="512"
   sodipodi:docname="create_list.svg">
  <metadata
     id="metadata8">
    <rdf:RDF>
      <cc:Work
         rdf:about="">
        <dc:format>image/svg+xml</dc:format>
        <dc:type
           rdf:resource="http://purl.org/dc/dcmitype/StillImage" />
        <dc:title />
      </cc:Work>
    </rdf:RDF>
  </metadata>
  <defs
     id="defs6" />
  <sodipodi:namedview
     pagecolor="#ffffff"
     bordercolor="#666666"
     borderopacity="1"
     objecttolerance="10"
     gridtolerance="10"
     guidetolerance="10"
     inkscape:pageopacity="0"
     inkscape:pageshadow="2"
     inkscape:window-width="1280"
     inkscape:window-height="1002"
     id="namedview4"
     showgrid="false"
     inkscape:zoom="1.3037281"
     inkscape:cx="262.74622"
     inkscape:cy="277.46638"
     inkscape:window-x="1358"
     inkscape:window-y="-8"
     inkscape:window-maximized="1"
     inkscape:current-layer="svg2" />
  <g
     id="g3773"
     transform="translate(-8,2)">
    <g
       style="fill:#008000;fill-opacity:1"
       transform="matrix(18.043327,0,0,18.043327,-35.152886,-36.017136)"
       id="g2991">
      <g
         id="text2987"
         style="font-size:12px;font-style:normal;font-variant:normal;font-weight:normal;font-stretch:normal;line-height:125%;letter-spacing:0px;word-spacing:0px;fill:#008000;stroke:none;font-family:FreeUniversal;-inkscape-font-specification:FreeUniversal">
        <path
           id="path3761"
           d="m 12.405067,19.673214 -1.113281,0 0,-7.21875 c -0.445316,0.312507 -1.070315,0.644538 -1.8750003,0.996094 l 0,-0.996094 c 0.3437481,-0.21093 0.6660133,-0.441399 0.9667973,-0.691406 0.300778,-0.249992 0.513668,-0.439445 0.638671,-0.56836 0.124997,-0.128897 0.187497,-0.189444 0.1875,-0.18164 l 1.195313,0 z"
           inkscape:connector-curvature="0" />
        <path
           id="path3763"
           d="m 17.291786,18.196651 -1.3125,3 -0.84375,0 0.726562,-3 z"
           inkscape:connector-curvature="0" />
        <path
           id="path3765"
           d="m 23.830848,19.673214 -5.226562,0 0,-1.113281 c 1.015623,-1.132811 1.822263,-2.0332 2.419922,-2.701172 0.597652,-0.667964 1.01562,-1.183589 1.253906,-1.546875 0.238276,-0.363276 0.357417,-0.681635 0.357422,-0.955078 -5e-6,-0.523431 -0.101567,-0.908196 -0.304688,-1.154297 -0.203129,-0.246086 -0.542972,-0.369133 -1.019531,-0.369141 -0.421878,8e-6 -0.738284,0.121102 -0.949219,0.363281 -0.21094,0.242195 -0.347658,0.628914 -0.410156,1.160157 l -1.21875,0 c 0.124999,-1.67968 0.984373,-2.519523 2.578125,-2.519532 0.789058,9e-6 1.406245,0.240243 1.851562,0.720704 0.445307,0.480476 0.667963,1.025397 0.667969,1.634765 -6e-6,0.187507 -0.01563,0.359381 -0.04687,0.515625 -0.03126,0.156256 -0.08204,0.322271 -0.152344,0.498047 -0.07032,0.175787 -0.166021,0.357427 -0.287109,0.544922 -0.121099,0.187505 -0.273443,0.400395 -0.457031,0.638672 -0.183599,0.238285 -0.400395,0.49805 -0.650391,0.779297 -0.250004,0.281253 -0.541019,0.609378 -0.873047,0.984375 -0.332034,0.375002 -0.708987,0.789064 -1.130859,1.242187 -0.132815,0.148439 -0.234377,0.26172 -0.304688,0.339844 l 3.902344,0 z"
           inkscape:connector-curvature="0" />
      </g>
    </g>
    <g
       id="text2984"
       style="font-size:223.00419617px;font-style:normal;font-variant:normal;font-weight:normal;font-stretch:normal;line-height:125%;letter-spacing:0px;word-spacing:0px;fill:#008000;fill-opacity:1;stroke:none;font-family:FreeUniversal;-inkscape-font-specification:FreeUniversal">
      <path
         id="path3768"
         d="m 112.31762,350.83597 c -10.74377,-5e-5 -19.418567,-1.08894 -26.024414,-3.26666 -6.605977,-2.17783 -11.651152,-7.11411 -15.135539,-14.80888 -2.323008,-5.37187 -3.774857,-11.94149 -4.355551,-19.70886 -0.580785,-7.76741 -0.834858,-14.88147 -0.762221,-21.3422 0.07255,-6.46072 -0.326711,-12.81256 -1.197776,-19.05554 -0.871153,-6.24292 -3.375592,-11.57847 -7.513325,-16.00665 -4.137805,-4.42809 -10.199274,-7.44068 -18.184425,-9.03776 l 0,-16.33332 c 8.130336,-1.88734 14.264397,-5.0814 18.402202,-9.58221 4.137733,-4.50066 6.605876,-9.8725 7.404436,-16.11554 0.798474,-6.24286 1.12514,-12.59469 0.979999,-19.05553 -0.145229,-6.46062 0.03625,-13.50208 0.544444,-21.12442 0.508102,-7.62208 2.068839,-14.1191 4.682217,-19.49109 3.774757,-7.69465 8.965117,-12.63093 15.571094,-14.80887 6.605846,-2.17761 15.135459,-3.2665 25.588859,-3.26667 l 0,16.5511 c -6.82378,1.5e-4 -12.23192,1.16163 -16.224425,3.48444 -3.992659,2.3231 -6.605987,5.37199 -7.839991,9.14665 -1.234139,3.77495 -2.032656,8.02161 -2.395553,12.73999 -0.363027,4.71863 -0.290435,9.50974 0.217777,14.37332 0.508083,4.8638 0.471786,9.54601 -0.108888,14.04665 -1.016359,10.88896 -2.867466,18.94672 -5.553328,24.1733 -2.685979,5.22673 -7.150414,10.96154 -13.393318,17.20443 6.242904,6.09782 10.707339,11.76003 13.393318,16.98665 2.685862,5.22669 4.536969,13.21186 5.553328,23.95553 0.580674,4.50074 0.616971,9.18296 0.108888,14.04665 -0.508212,4.86369 -0.580804,9.69109 -0.217777,14.4822 0.362897,4.79109 1.161414,9.03775 2.395553,12.73999 1.234004,3.70219 3.847332,6.71477 7.839991,9.03777 3.992505,2.32292 9.400645,3.4844 16.224425,3.48444 z"
         inkscape:connector-curvature="0" />
    </g>
    <g
       id="text2988"
       style="font-size:226.83935547px;font-style:normal;font-variant:normal;font-weight:normal;font-stretch:normal;line-height:125%;letter-spacing:0px;word-spacing:0px;fill:#008000;fill-opacity:1;stroke:none;font-family:FreeUniversal;-inkscape-font-specification:FreeUniversal">
      <path
         id="path3771"
         d="m 492.89225,249.44785 c -8.27027,1.91991 -14.50982,5.16891 -18.71868,9.74701 -4.209,4.57817 -6.71959,10.04239 -7.53177,16.39268 -0.81232,6.35034 -1.1446,12.81142 -0.99686,19.38325 0.14762,6.57184 -0.0739,13.7344 -0.66456,21.48771 -0.5908,7.75328 -2.2153,14.36203 -4.87351,19.82629 -3.83978,7.8271 -9.08248,12.84828 -15.72812,15.06355 -6.64572,2.21518 -15.2851,3.32279 -25.91816,3.32285 l 0,-16.83574 c 6.94102,-4e-5 12.44216,-1.18149 16.50344,-3.54436 4.06122,-2.36294 6.71949,-5.46426 7.97483,-9.30396 1.25525,-3.83975 2.0675,-8.15944 2.43675,-12.95909 0.36916,-4.79966 0.29532,-9.71008 -0.22153,-14.73126 -0.51693,-5.02118 -0.48001,-9.82083 0.11077,-14.39898 1.03372,-10.92843 2.91666,-19.05093 5.64883,-24.36751 2.73206,-5.3165 7.27327,-11.14993 13.62365,-17.50031 -6.35038,-6.20257 -10.89159,-11.99908 -13.62365,-17.38954 -2.73217,-5.3903 -4.61511,-13.54972 -5.64883,-24.47827 -0.59078,-4.57803 -0.6277,-9.34076 -0.11077,-14.28822 0.51685,-4.94722 0.59069,-9.82072 0.22153,-14.6205 -0.36925,-4.79953 -1.1815,-9.0823 -2.43675,-12.84833 -1.25534,-3.76574 -3.91361,-6.83013 -7.97483,-9.19319 -4.06128,-2.36276 -9.56242,-3.54421 -16.50344,-3.54437 l 0,-16.83573 c 10.92843,1.7e-4 19.75241,1.10779 26.47197,3.32284 6.71947,2.2154 11.77757,7.23658 15.17431,15.06355 2.51053,5.46438 4.06119,12.14698 4.65198,20.04782 0.59066,7.9011 0.81219,15.13751 0.66457,21.70923 -0.14775,6.57195 0.25838,13.03303 1.21838,19.38325 0.95986,6.35041 3.54429,11.77771 7.75329,16.28192 4.20886,4.50437 10.37457,7.56877 18.49716,9.1932 z"
         inkscape:connector-curvature="0" />
    </g>
  </g>
</svg>
