<?xml version="1.0" encoding="UTF-8" standalone="no"?>
<!-- Created with Inkscape (http://www.inkscape.org/) -->

<svg
   xmlns:dc="http://purl.org/dc/elements/1.1/"
   xmlns:cc="http://creativecommons.org/ns#"
   xmlns:rdf="http://www.w3.org/1999/02/22-rdf-syntax-ns#"
   xmlns:svg="http://www.w3.org/2000/svg"
   xmlns="http://www.w3.org/2000/svg"
   xmlns:sodipodi="http://sodipodi.sourceforge.net/DTD/sodipodi-0.dtd"
   xmlns:inkscape="http://www.inkscape.org/namespaces/inkscape"
   id="svg2985"
   version="1.1"
   inkscape:version="0.48.2 r9819"
   width="512"
   height="512"
   sodipodi:docname="insert_text.svg">
  <metadata
     id="metadata2991">
    <rdf:RDF>
      <cc:Work
         rdf:about="">
        <dc:format>image/svg+xml</dc:format>
        <dc:type
           rdf:resource="http://purl.org/dc/dcmitype/StillImage" />
        <dc:title />
      </cc:Work>
    </rdf:RDF>
  </metadata>
  <defs
     id="defs2989" />
  <sodipodi:namedview
     pagecolor="#ffffff"
     bordercolor="#666666"
     borderopacity="1"
     objecttolerance="10"
     gridtolerance="10"
     guidetolerance="10"
     inkscape:pageopacity="0"
     inkscape:pageshadow="2"
     inkscape:window-width="1345"
     inkscape:window-height="855"
     id="namedview2987"
     showgrid="false"
     inkscape:zoom="0.83593748"
     inkscape:cx="19.870717"
     inkscape:cy="256.55462"
     inkscape:window-x="1690"
     inkscape:window-y="16"
     inkscape:window-maximized="0"
     inkscape:current-layer="svg2985" />
  <g
     transform="scale(0.98677943,1.0133977)"
     style="font-size:224.94381714px;font-style:normal;font-variant:normal;font-weight:normal;font-stretch:normal;line-height:125%;letter-spacing:0px;word-spacing:0px;fill:#000000;fill-opacity:1;stroke:none;font-family:FreeUniversal;-inkscape-font-specification:FreeUniversal"
     id="text2995">
    <path
       d="m 193.47333,339.35104 -23.94422,0 -17.57373,-43.49499 -79.521158,0 -17.793407,43.49499 -23.2852,0 68.317897,-162.33738 24.603228,0 z m -50.96384,-62.60643 -30.97371,-74.90805 -30.31469,74.90805 z"
       style=""
       id="path2984" />
    <path
       d="m 334.72222,294.09867 c -1.4e-4,12.741 -4.83291,23.46829 -14.49833,32.18191 -9.66567,8.71365 -21.08859,13.07046 -34.26879,13.07046 l -71.17363,0 0,-162.33738 65.2425,0 c 14.05889,1.6e-4 25.70148,3.40507 34.9278,10.21473 9.22608,6.80997 13.83918,16.7318 13.83931,29.76552 -1.3e-4,5.12579 -0.95204,9.88534 -2.85573,14.27866 -1.90395,4.39354 -4.2105,7.83506 -6.91966,10.32457 -2.7094,2.48971 -5.41868,4.64981 -8.12785,6.48031 -2.70939,1.83069 -5.01595,3.11211 -6.91966,3.84426 l -2.85573,0.87869 c 0.87858,0.29298 2.08677,0.6591 3.62458,1.09835 1.5376,0.43943 4.24688,1.75746 8.12786,3.95409 3.88074,2.1968 7.28565,4.68641 10.21473,7.46884 2.92883,2.78258 5.6015,6.73667 8.01802,11.86227 2.41625,5.12573 3.62444,10.76397 3.62458,16.91472 z m -26.79995,-74.02936 c -1.1e-4,-15.66978 -11.56947,-23.50473 -34.70813,-23.50487 l -35.80648,0 0,48.32777 35.36714,0 c 23.43155,1e-4 35.14736,-8.27419 35.14747,-24.8229 z m 4.83278,71.61298 c -1.2e-4,-9.07971 -3.47825,-16.03597 -10.43441,-20.86882 -6.95636,-4.8327 -17.17109,-7.24909 -30.6442,-7.24916 l -34.26878,0 0,56.23595 35.36714,0 c 11.86219,2e-5 21.49112,-2.63604 28.88683,-7.90818 7.3955,-5.27209 11.0933,-12.00868 11.09342,-20.20979 z"
       style=""
       id="path2986" />
    <path
       d="m 487.83338,295.85605 c -1.4e-4,13.47323 -5.27226,24.60325 -15.81636,33.3901 -10.54436,8.78686 -24.96945,13.18029 -43.27533,13.1803 -12.15523,-10e-6 -22.69947,-2.23333 -31.63272,-6.69999 -8.93336,-4.46665 -15.88962,-10.65406 -20.86881,-18.56226 -4.97925,-7.90815 -8.64044,-16.6584 -10.98359,-26.25077 -2.34318,-9.59227 -3.51476,-20.17311 -3.51475,-31.74256 -1e-5,-11.56928 1.17157,-22.22335 3.51475,-31.96223 2.34315,-9.73865 6.00434,-18.74518 10.98359,-27.01962 4.97919,-8.27415 11.97206,-14.75446 20.97864,-19.44094 9.00648,-4.68617 19.66055,-7.02933 31.96223,-7.0295 19.33101,1.7e-4 33.79272,4.35699 43.38516,13.07047 9.5922,8.71379 14.38836,19.88042 14.3885,33.49993 l -22.84586,0 c -1.1e-4,-9.66542 -2.70939,-16.87797 -8.12785,-21.63766 -5.41867,-4.75941 -14.27875,-7.13918 -26.58027,-7.13933 -29.72896,1.5e-4 -44.59339,22.55309 -44.59336,67.65888 -3e-5,23.43171 3.66116,40.12674 10.98359,50.08515 7.32233,9.95847 18.23268,14.93769 32.73108,14.93768 24.31023,1e-5 36.46538,-9.44586 36.4655,-28.33765 z"
       style=""
       id="path2988" />
  </g>
</svg>
