<?xml version="1.0" encoding="UTF-8" standalone="no"?>
<!-- Created with Inkscape (http://www.inkscape.org/) -->

<svg
   xmlns:dc="http://purl.org/dc/elements/1.1/"
   xmlns:cc="http://creativecommons.org/ns#"
   xmlns:rdf="http://www.w3.org/1999/02/22-rdf-syntax-ns#"
   xmlns:svg="http://www.w3.org/2000/svg"
   xmlns="http://www.w3.org/2000/svg"
   xmlns:sodipodi="http://sodipodi.sourceforge.net/DTD/sodipodi-0.dtd"
   xmlns:inkscape="http://www.inkscape.org/namespaces/inkscape"
   id="svg2"
   version="1.1"
   inkscape:version="0.48.2 r9819"
   viewBox="0 0 512 512" width="512"
   height="512"
   sodipodi:docname="create_table.svg">
  <metadata
     id="metadata8">
    <rdf:RDF>
      <cc:Work
         rdf:about="">
        <dc:format>image/svg+xml</dc:format>
        <dc:type
           rdf:resource="http://purl.org/dc/dcmitype/StillImage" />
        <dc:title></dc:title>
      </cc:Work>
    </rdf:RDF>
  </metadata>
  <defs
     id="defs6" />
  <sodipodi:namedview
     pagecolor="#ffffff"
     bordercolor="#666666"
     borderopacity="1"
     objecttolerance="10"
     gridtolerance="10"
     guidetolerance="10"
     inkscape:pageopacity="0"
     inkscape:pageshadow="2"
     inkscape:window-width="1680"
     inkscape:window-height="988"
     id="namedview4"
     showgrid="false"
     inkscape:zoom="0.921875"
     inkscape:cx="246.72067"
     inkscape:cy="335.81569"
     inkscape:window-x="1358"
     inkscape:window-y="-8"
     inkscape:window-maximized="1"
     inkscape:current-layer="svg2" />
  <g
     id="g3826"
     transform="translate(-3.2542373,-1.0847458)">
    <rect
       y="31.381927"
       x="34.399796"
       height="451.70782"
       width="450"
       id="rect3018"
       style="fill:#000000;fill-opacity:1;stroke:none" />
    <rect
       y="52.610168"
       x="50.983047"
       height="194.16949"
       width="196.88135"
       id="rect3788"
       style="fill:#ffffff;fill-opacity:1;fill-rule:nonzero;stroke:none" />
    <g
       id="text2987"
       style="font-size:178.11845398px;font-style:normal;font-variant:normal;font-weight:normal;font-stretch:normal;line-height:125%;letter-spacing:0px;word-spacing:0px;fill:#0000ff;fill-opacity:1;stroke:none;font-family:FreeUniversal;-inkscape-font-specification:FreeUniversal">
      <path
         inkscape:connector-curvature="0"
         id="path3775"
         style="fill:#0000ff;fill-opacity:1"
         d="m 169.71882,213.68744 -16.52466,0 0,-107.14938 c -6.60991,4.6386 -15.88691,9.567 -27.83101,14.78522 l 0,-14.78522 c 5.10232,-3.13088 9.88577,-6.551773 14.35036,-10.262688 4.46452,-3.71068 7.62449,-6.522769 9.47994,-8.436274 1.85535,-1.913254 2.78305,-2.811963 2.7831,-2.696129 l 17.74227,0 z" />
    </g>
    <rect
       y="52.610168"
       x="266.84747"
       height="194.16949"
       width="197.42372"
       id="rect3788-1"
       style="fill:#ffffff;fill-opacity:1;fill-rule:nonzero;stroke:none" />
    <g
       id="text2987-1"
       style="font-size:178.11845398px;font-style:normal;font-variant:normal;font-weight:normal;font-stretch:normal;line-height:125%;letter-spacing:0px;word-spacing:0px;fill:#0000ff;fill-opacity:1;stroke:none;font-family:FreeUniversal;-inkscape-font-specification:FreeUniversal">
      <path
         id="path3778"
         style="fill:#0000ff;fill-opacity:1"
         d="m 410.15953,214.00491 -77.57894,0 0,-16.52466 c 15.0751,-16.81453 27.04822,-30.1792 35.9194,-40.09404 8.87107,-9.91473 15.07506,-17.56825 18.61198,-22.96059 3.53679,-5.39217 5.30522,-10.11764 5.30529,-14.17642 -7e-5,-7.76938 -1.50758,-13.48053 -4.52254,-17.13346 -3.01509,-3.652706 -8.05945,-5.479114 -15.13311,-5.479231 -6.26202,1.17e-4 -10.9585,1.797534 -14.08945,5.392261 -3.13102,3.59494 -5.16036,9.33508 -6.08803,17.22043 l -18.09016,0 c 1.85539,-24.931823 14.61125,-37.397783 38.26764,-37.397914 11.71215,1.31e-4 20.87318,3.565976 27.48312,10.697544 6.60978,7.13181 9.91471,15.22019 9.9148,24.26516 -9e-5,2.78319 -0.23202,5.33437 -0.69578,7.65353 -0.46394,2.31933 -1.21769,4.78354 -2.26127,7.39261 -1.04375,2.60923 -2.46428,5.30536 -4.26162,8.08839 -1.7975,2.78317 -4.05877,5.94314 -6.78381,9.47993 -2.72519,3.53692 -5.94315,7.39267 -9.65388,11.56727 -3.71086,4.1747 -8.03046,9.04512 -12.95881,14.61128 -4.92846,5.56623 -10.52365,11.71224 -16.78558,18.43804 -1.9714,2.2033 -3.47891,3.88476 -4.52254,5.04437 l 57.92329,0 z"
         inkscape:connector-curvature="0" />
    </g>
    <rect
       y="266.30508"
       x="51.525425"
       height="196.33899"
       width="195.7966"
       id="rect3788-7"
       style="fill:#ffffff;fill-opacity:1;fill-rule:nonzero;stroke:none" />
    <g
       id="text2987-4"
       style="font-size:178.11845398px;font-style:normal;font-variant:normal;font-weight:normal;font-stretch:normal;line-height:125%;letter-spacing:0px;word-spacing:0px;fill:#0000ff;fill-opacity:1;stroke:none;font-family:FreeUniversal;-inkscape-font-specification:FreeUniversal">
      <path
         id="path3781"
         style="fill:#0000ff;fill-opacity:1"
         d="m 195.20071,392.18263 c -9e-5,10.55262 -3.9718,19.33677 -11.91515,26.35249 -7.9435,7.01573 -18.00324,10.5236 -30.17925,10.5236 -13.45169,0 -23.65638,-3.59484 -30.6141,-10.78452 -6.95777,-7.18966 -10.43664,-15.7129 -10.43663,-25.56974 l 18.95987,0 c 1.39152,15.07515 8.92908,22.61271 22.6127,22.6127 6.02999,10e-6 11.50922,-2.17429 16.43769,-6.5229 4.92833,-4.34857 7.39253,-9.36394 7.39261,-15.04613 -8e-5,-18.32203 -12.00219,-27.30912 -36.00637,-26.96129 l 0,-14.2634 c 11.13235,8e-5 19.56862,-1.9133 25.30882,-5.74014 5.74008,-3.82668 8.61015,-10.03067 8.61022,-18.61199 -7e-5,-6.72572 -2.34831,-11.56715 -7.04472,-14.52431 -4.69655,-2.95692 -9.7699,-4.43544 -15.22009,-4.43556 -11.01647,1.2e-4 -17.80028,7.42171 -20.35142,22.2648 l -18.09016,0 c 1.5075,-11.59614 5.50821,-20.49626 12.00213,-26.70037 6.49387,-6.20387 15.19105,-9.30586 26.09157,-9.30599 11.94408,1.3e-4 21.65593,3.21809 29.13558,9.65388 7.4795,6.43603 11.21929,14.52441 11.21938,24.26516 -9e-5,4.05878 -0.84082,7.82756 -2.52219,11.30635 -1.68154,3.47895 -3.73987,6.23306 -6.175,8.26233 -2.43529,2.02942 -4.98647,4.00078 -7.65353,5.91409 -2.66721,1.91345 -4.92847,3.33399 -6.78381,4.26162 0.81167,0.46392 2.55111,1.39162 5.21832,2.7831 2.66706,1.39161 4.92833,2.75417 6.78381,4.08768 1.85532,1.33363 3.91365,3.16004 6.175,5.47923 2.26118,2.3193 4.00062,5.21836 5.21832,8.69719 1.21751,3.47892 1.82631,7.47962 1.8264,12.00212 z"
         inkscape:connector-curvature="0" />
    </g>
    <rect
       y="266.30508"
       x="266.84747"
       height="196.88136"
       width="197.42372"
       id="rect3788-4"
       style="fill:#ffffff;fill-opacity:1;fill-rule:nonzero;stroke:none" />
    <g
       id="text2987-9"
       style="font-size:178.11845398px;font-style:normal;font-variant:normal;font-weight:normal;font-stretch:normal;line-height:125%;letter-spacing:0px;word-spacing:0px;fill:#0000ff;fill-opacity:1;stroke:none;font-family:FreeUniversal;-inkscape-font-specification:FreeUniversal">
      <path
         id="path3784"
         style="fill:#0000ff;fill-opacity:1"
         d="m 405.653,395.31359 -15.82889,0 0,31.30988 -16.6986,0 0,-31.30988 -56.35779,0 0,-18.78593 53.40074,-78.44866 19.65565,0 0,82.44937 15.82889,0 z m -32.52749,-14.78522 0,-62.96766 -42.0944,62.96766 z"
         inkscape:connector-curvature="0" />
    </g>
  </g>
</svg>
