<?xml version="1.0" encoding="UTF-8" standalone="no"?>
<!-- Created with Inkscape (http://www.inkscape.org/) -->

<svg
   xmlns:dc="http://purl.org/dc/elements/1.1/"
   xmlns:cc="http://creativecommons.org/ns#"
   xmlns:rdf="http://www.w3.org/1999/02/22-rdf-syntax-ns#"
   xmlns:svg="http://www.w3.org/2000/svg"
   xmlns="http://www.w3.org/2000/svg"
   xmlns:sodipodi="http://sodipodi.sourceforge.net/DTD/sodipodi-0.dtd"
   xmlns:inkscape="http://www.inkscape.org/namespaces/inkscape"
   id="svg2"
   version="1.1"
   inkscape:version="0.48.2 r9819"
   viewBox="0 0 512 512" width="512"
   height="512"
   sodipodi:docname="circle_through_three_points.svg">
  <metadata
     id="metadata8">
    <rdf:RDF>
      <cc:Work
         rdf:about="">
        <dc:format>image/svg+xml</dc:format>
        <dc:type
           rdf:resource="http://purl.org/dc/dcmitype/StillImage" />
        <dc:title />
      </cc:Work>
    </rdf:RDF>
  </metadata>
  <defs
     id="defs6" />
  <sodipodi:namedview
     pagecolor="#ffffff"
     bordercolor="#666666"
     borderopacity="1"
     objecttolerance="10"
     gridtolerance="10"
     guidetolerance="10"
     inkscape:pageopacity="0"
     inkscape:pageshadow="2"
     inkscape:window-width="1280"
     inkscape:window-height="1002"
     id="namedview4"
     showgrid="false"
     inkscape:zoom="0.68208088"
     inkscape:cx="53.440609"
     inkscape:cy="237.04922"
     inkscape:window-x="1358"
     inkscape:window-y="-8"
     inkscape:window-maximized="1"
     inkscape:current-layer="svg2" />
  <g
     id="g3801">
    <path
       transform="matrix(1.6030006,0,0,1.5550437,-88.03238,-18.561293)"
       d="m 338.9978,171.57683 c 0,65.98619 -51.98393,119.47857 -116.10934,119.47857 -64.12542,0 -116.10934,-53.49238 -116.10934,-119.47857 0,-65.9862 51.98392,-119.478579 116.10934,-119.478579 64.12541,0 116.10934,53.492379 116.10934,119.478579 z"
       sodipodi:ry="119.47858"
       sodipodi:rx="116.10934"
       sodipodi:cy="171.57683"
       sodipodi:cx="222.88846"
       id="path2984"
       style="fill:none;stroke:#000000;stroke-width:10.76739788;stroke-miterlimit:4;stroke-opacity:1;stroke-dasharray:none"
       sodipodi:type="arc" />
    <path
       transform="matrix(0.78758407,0,0,0.76685818,-19.261896,118.77537)"
       d="m 178.71824,132.31961 c 0,24.14632 -19.05934,43.72077 -42.57023,43.72077 -23.51089,0 -42.570225,-19.57445 -42.570225,-43.72077 0,-24.14631 19.059335,-43.720771 42.570225,-43.720771 23.51089,0 42.57023,19.574461 42.57023,43.720771 z"
       sodipodi:ry="43.720772"
       sodipodi:rx="42.570225"
       sodipodi:cy="132.31961"
       sodipodi:cx="136.14801"
       id="path2990"
       style="fill:#0000ff;fill-opacity:1;fill-rule:nonzero;stroke:#000000;stroke-width:16.65663528;stroke-linecap:round;stroke-linejoin:round;stroke-miterlimit:4;stroke-opacity:1;stroke-dasharray:none"
       sodipodi:type="arc" />
    <path
       transform="matrix(0.78758407,0,0,0.76685818,306.2127,33.741466)"
       d="m 178.71824,132.31961 c 0,24.14632 -19.05934,43.72077 -42.57023,43.72077 -23.51089,0 -42.570225,-19.57445 -42.570225,-43.72077 0,-24.14631 19.059335,-43.720771 42.570225,-43.720771 23.51089,0 42.57023,19.574461 42.57023,43.720771 z"
       sodipodi:ry="43.720772"
       sodipodi:rx="42.570225"
       sodipodi:cy="132.31961"
       sodipodi:cx="136.14801"
       id="path2990-1"
       style="fill:#0000ff;fill-opacity:1;fill-rule:nonzero;stroke:#000000;stroke-width:16.65663528;stroke-linecap:round;stroke-linejoin:round;stroke-miterlimit:4;stroke-opacity:1;stroke-dasharray:none"
       sodipodi:type="arc" />
    <path
       transform="matrix(0.78758407,0,0,0.76685818,207.98388,325.49573)"
       d="m 178.71824,132.31961 c 0,24.14632 -19.05934,43.72077 -42.57023,43.72077 -23.51089,0 -42.570225,-19.57445 -42.570225,-43.72077 0,-24.14631 19.059335,-43.720771 42.570225,-43.720771 23.51089,0 42.57023,19.574461 42.57023,43.720771 z"
       sodipodi:ry="43.720772"
       sodipodi:rx="42.570225"
       sodipodi:cy="132.31961"
       sodipodi:cx="136.14801"
       id="path2990-7"
       style="fill:#0000ff;fill-opacity:1;fill-rule:nonzero;stroke:#000000;stroke-width:16.65663528;stroke-linecap:round;stroke-linejoin:round;stroke-miterlimit:4;stroke-opacity:1;stroke-dasharray:none"
       sodipodi:type="arc" />
  </g>
</svg>
