<?xml version="1.0" encoding="UTF-8" standalone="no"?>
<!-- Created with Inkscape (http://www.inkscape.org/) -->

<svg
   xmlns:dc="http://purl.org/dc/elements/1.1/"
   xmlns:cc="http://creativecommons.org/ns#"
   xmlns:rdf="http://www.w3.org/1999/02/22-rdf-syntax-ns#"
   xmlns:svg="http://www.w3.org/2000/svg"
   xmlns="http://www.w3.org/2000/svg"
   xmlns:sodipodi="http://sodipodi.sourceforge.net/DTD/sodipodi-0.dtd"
   xmlns:inkscape="http://www.inkscape.org/namespaces/inkscape"
   id="svg2985"
   version="1.1"
   inkscape:version="0.48.2 r9819"
   width="512"
   height="512"
   sodipodi:docname="record_to_spreadsheet.svg">
  <metadata
     id="metadata2991">
    <rdf:RDF>
      <cc:Work
         rdf:about="">
        <dc:format>image/svg+xml</dc:format>
        <dc:type
           rdf:resource="http://purl.org/dc/dcmitype/StillImage" />
        <dc:title />
      </cc:Work>
    </rdf:RDF>
  </metadata>
  <defs
     id="defs2989" />
  <sodipodi:namedview
     pagecolor="#ffffff"
     bordercolor="#666666"
     borderopacity="1"
     objecttolerance="10"
     gridtolerance="10"
     guidetolerance="10"
     inkscape:pageopacity="0"
     inkscape:pageshadow="2"
     inkscape:window-width="1680"
     inkscape:window-height="988"
     id="namedview2987"
     showgrid="false"
     inkscape:zoom="1.0095384"
     inkscape:cx="16.002521"
     inkscape:cy="293.35701"
     inkscape:window-x="1358"
     inkscape:window-y="-8"
     inkscape:window-maximized="1"
     inkscape:current-layer="g2996" />
  <g
     id="g3006">
    <g
       transform="translate(0,480)"
       id="g2996">
      <g
         id="g3788">
        <path
           sodipodi:nodetypes="cccccccc"
           inkscape:connector-curvature="0"
           id="path3063"
           d="m 266.44875,-372.25364 -3.42723,258.75617 63.40379,-65.11747 70.25833,140.516583 41.12681,-20.563398 -68.54472,-140.516575 85.68084,-8.56811 z"
           style="fill:none;stroke:#000000;stroke-width:17;stroke-linecap:butt;stroke-linejoin:miter;stroke-opacity:1;stroke-miterlimit:4;stroke-dasharray:none" />
        <g
           style="font-size:636.00354004px;font-style:normal;font-weight:normal;line-height:125%;letter-spacing:0px;word-spacing:0px;fill:#000000;fill-opacity:1;stroke:none;font-family:Sans"
           id="text3023">
          <path
             d="m 107.73301,-348.44851 c -7e-5,8.478 -3.19096,15.53521 -9.57266,21.17165 -6.381831,5.63646 -14.463851,8.45469 -24.246083,8.45469 -10.80712,0 -19.005595,-2.8881 -24.595449,-8.66431 -5.589885,-5.77619 -8.38482,-12.62378 -8.384813,-20.54279 l 15.232409,0 c 1.117952,12.11141 7.173644,18.16711 18.167094,18.1671 4.844514,10e-6 9.246536,-1.74683 13.20608,-5.24051 3.959437,-3.49365 5.939183,-7.52302 5.939242,-12.0881 -5.9e-5,-14.71997 -9.642584,-21.94022 -28.927603,-21.66077 l 0,-11.45924 c 8.943761,6e-5 15.721477,-1.53716 20.33317,-4.61165 4.611592,-3.07436 6.917413,-8.05867 6.91747,-14.95292 -5.7e-5,-5.40346 -1.886638,-9.29308 -5.659748,-11.66886 -3.773214,-2.3756 -7.84916,-3.56345 -12.227852,-3.56355 -8.850666,1e-4 -14.300788,5.96263 -16.350384,17.8876 l -14.533675,0 c 1.21113,-9.31637 4.425305,-16.46674 9.642535,-21.45114 5.217193,-4.9842 12.204529,-7.47635 20.962031,-7.47646 9.595903,1.1e-4 17.398429,2.58542 23.407601,7.75595 6.009045,5.17073 9.013605,11.66895 9.013675,19.49469 -7e-5,3.26084 -0.67552,6.28868 -2.02633,9.08355 -1.35096,2.795 -3.00463,5.00766 -4.961015,6.63798 -1.956519,1.63044 -4.006138,3.21423 -6.148863,4.75139 -2.142841,1.53727 -3.959549,2.67854 -5.450128,3.4238 0.652099,0.37271 2.049566,1.11803 4.192407,2.23595 2.142725,1.11802 3.959433,2.21271 5.450128,3.28405 1.490569,1.07144 3.144241,2.53878 4.961011,4.40203 1.81664,1.86333 3.21411,4.19244 4.19241,6.98734 0.97815,2.79497 1.46727,6.00915 1.46734,9.64253 z"
             style="font-size:143.10079956px;font-variant:normal;font-stretch:normal;font-family:FreeUniversal;-inkscape-font-specification:FreeUniversal"
             id="path2997" />
          <path
             d="m 187.52848,-351.66268 c -8e-5,5.21724 -0.83856,9.92204 -2.51545,14.11443 -2.32918,6.05571 -6.24209,10.76051 -11.73874,14.11443 -5.21727,3.1676 -11.13321,4.70481 -17.74785,4.61165 -7.4532,-0.0932 -14.11446,-2.18937 -19.9838,-6.28861 -5.96255,-4.1924 -10.15495,-9.78227 -12.57722,-16.76962 -1.39748,-4.00606 -2.18937,-8.6177 -2.3757,-13.83494 -0.18633,-5.21718 -0.0466,-9.92199 0.41924,-14.11444 0.83848,-13.22931 1.63037,-22.07993 2.3757,-26.5519 0.83847,-4.37866 1.95645,-8.1984 3.35392,-11.45925 1.77012,-3.81966 4.09923,-7.03383 6.98735,-9.64253 2.88808,-2.70168 6.33516,-4.79788 10.34127,-6.28861 3.72655,-1.39737 7.68604,-2.18926 11.87848,-2.3757 5.96249,-0.27939 11.08653,0.69884 15.37216,2.93469 3.72652,2.04972 6.75437,5.07756 9.08354,9.08354 2.70171,4.37883 4.14576,9.26996 4.33216,14.67342 l -13.6952,0 c 0.18628,-3.447 -0.6522,-6.56801 -2.51544,-9.36304 -1.39752,-2.14269 -3.16765,-3.77307 -5.31038,-4.89114 -2.236,-1.21104 -4.75144,-1.67686 -7.54633,-1.39747 -3.2608,0.27959 -6.33523,1.53731 -9.2233,3.77317 -2.51547,1.95654 -4.65825,4.47199 -6.42835,7.54633 -2.7018,4.9378 -4.28559,11.97172 -4.7514,21.10178 -0.18635,3.54031 -0.27951,7.31347 -0.27949,11.3195 1.58378,-2.42223 3.26074,-4.6116 5.03089,-6.56811 2.14276,-2.14272 4.3787,-3.7731 6.70785,-4.89114 2.7949,-1.30424 6.24199,-1.90981 10.34127,-1.81671 3.5402,0.0932 6.98729,0.55905 10.34127,1.39747 3.72652,1.02487 6.89411,2.51551 9.50278,4.4719 4.00601,3.07449 6.89411,7.4998 8.66431,13.27595 1.30423,4.28562 1.95638,8.89726 1.95646,13.83495 z m -14.53368,0 c -6e-5,-5.12402 -0.60563,-9.13009 -1.81671,-12.01824 -1.30436,-3.16755 -3.44714,-5.6364 -6.42836,-7.40658 -2.88814,-1.67691 -6.1489,-2.51539 -9.78228,-2.51544 -3.63345,5e-5 -6.89421,0.83853 -9.78228,2.51544 -3.07446,1.77018 -5.26382,4.23903 -6.5681,7.40658 -1.21116,2.88815 -1.81673,6.89422 -1.81671,12.01824 -2e-5,5.12407 0.60555,9.08356 1.81671,11.87848 1.39744,3.26078 3.58681,5.72963 6.5681,7.40658 2.88807,1.67698 6.14883,2.51546 9.78228,2.51545 3.63338,10e-6 6.84755,-0.83847 9.64254,-2.51545 3.07438,-1.67695 5.26374,-4.1458 6.5681,-7.40658 1.21108,-2.79492 1.81665,-6.75441 1.81671,-11.87848 z"
             style="font-size:143.10079956px;font-variant:normal;font-stretch:normal;font-family:FreeUniversal;-inkscape-font-specification:FreeUniversal"
             id="path2999" />
        </g>
        <g
           style="font-size:143.10079956px;font-style:normal;font-weight:normal;line-height:125%;letter-spacing:0px;word-spacing:0px;fill:#000000;fill-opacity:1;stroke:none;font-family:Sans"
           id="text3031">
          <path
             d="m 114.82589,-162.76134 -62.327108,0 0,-13.27595 c 12.111375,-13.50884 21.730608,-24.24605 28.85773,-32.21165 7.127045,-7.96552 12.111346,-14.11438 14.952915,-18.44659 2.841464,-4.33209 4.262223,-8.12854 4.262283,-11.38937 -6e-5,-6.24195 -1.211198,-10.8303 -3.633422,-13.76507 -2.42233,-2.93459 -6.474985,-4.40193 -12.157978,-4.40203 -5.030924,1e-4 -8.804085,1.44415 -11.319497,4.33216 -2.515471,2.88819 -4.145849,7.49983 -4.89114,13.83494 l -14.533675,0 c 1.490621,-20.03029 11.738715,-30.04548 30.744312,-30.04558 9.409572,10e-5 16.76957,2.86491 22.08001,8.59443 5.31031,5.72971 7.9655,12.22794 7.96557,19.49469 -7e-5,2.23603 -0.1864,4.28564 -0.55899,6.14886 -0.37273,1.86336 -0.9783,3.84311 -1.81671,5.93925 -0.83855,2.09626 -1.97981,4.26234 -3.4238,6.49823 -1.44411,2.236 -3.26082,4.77473 -5.45013,7.6162 -2.18942,2.84157 -4.774735,5.93929 -7.755947,9.29317 -2.981316,3.35396 -6.451693,7.26687 -10.411142,11.73873 -3.959533,4.47193 -8.454719,9.40965 -13.485573,14.81317 -1.583825,1.77014 -2.794963,3.12103 -3.633419,4.05266 l 46.535711,0 z"
             style="font-variant:normal;font-stretch:normal;font-family:FreeUniversal;-inkscape-font-specification:FreeUniversal"
             id="path2992" />
          <path
             d="m 199.37275,-187.91577 -12.71697,0 0,25.15443 -13.4157,0 0,-25.15443 -45.27799,0 0,-15.09267 42.90229,-63.02584 15.7914,0 0,66.24002 12.71697,0 z m -26.13267,-11.87849 0,-50.58837 -33.81874,50.58837 z"
             style="font-variant:normal;font-stretch:normal;font-family:FreeUniversal;-inkscape-font-specification:FreeUniversal"
             id="path2994" />
        </g>
        <g
           style="font-size:143.10079956px;font-style:normal;font-weight:normal;line-height:125%;letter-spacing:0px;word-spacing:0px;fill:#000000;fill-opacity:1;stroke:none;font-family:Sans"
           id="text3035">
          <path
             d="m 92.616479,-1.6404381 -13.275953,0 0,-86.0840749 c -5.310417,3.726666 -12.763576,7.686157 -22.3595,11.878485 l 0,-11.878485 c 4.099219,-2.515355 7.942254,-5.263707 11.529117,-8.245065 3.586803,-2.98117 6.125535,-5.240412 7.616205,-6.777722 1.490594,-1.53711 2.23591,-2.25914 2.23595,-2.16608 l 14.254181,0 z"
             style="font-variant:normal;font-stretch:normal;font-family:FreeUniversal;-inkscape-font-specification:FreeUniversal"
             id="path3002" />
          <path
             d="m 189.46106,-1.6404381 -62.3271,0 0,-13.2759529 c 12.11137,-13.508838 21.7306,-24.246045 28.85773,-32.211655 7.12704,-7.965518 12.11134,-14.114374 14.95291,-18.446587 2.84147,-4.332085 4.26222,-8.128538 4.26228,-11.38937 -6e-5,-6.241946 -1.21119,-10.830297 -3.63342,-13.765068 -2.42233,-2.934592 -6.47498,-4.401933 -12.15798,-4.402026 -5.03092,9.3e-5 -8.80408,1.444143 -11.31949,4.332153 -2.51547,2.888188 -4.14585,7.499831 -4.89114,13.834941 l -14.53368,0 c 1.49062,-20.03029 11.73872,-30.045477 30.74431,-30.045577 9.40958,1e-4 16.76957,2.86491 22.08001,8.594431 5.31031,5.729713 7.9655,12.227936 7.96557,19.494689 -7e-5,2.236025 -0.1864,4.285644 -0.55899,6.148863 -0.37272,1.863361 -0.97829,3.843106 -1.81671,5.939242 -0.83854,2.096266 -1.97981,4.262341 -3.42379,6.49823 -1.44412,2.236006 -3.26083,4.774738 -5.45013,7.616204 -2.18943,2.841568 -4.77474,5.939288 -7.75595,9.293167 -2.98132,3.353964 -6.4517,7.266872 -10.41115,11.738738 -3.95953,4.471925 -8.45471,9.409643 -13.48557,14.813169 -1.58382,1.77014 -2.79496,3.121025 -3.63342,4.052659 l 46.53571,0 z"
             style="font-variant:normal;font-stretch:normal;font-family:FreeUniversal;-inkscape-font-specification:FreeUniversal"
             id="path3004" />
        </g>
        <rect
           style="fill:none;stroke:#0000ed;stroke-width:0;stroke-linecap:round;stroke-linejoin:round;stroke-miterlimit:4;stroke-opacity:1;stroke-dasharray:none"
           id="rect2989"
           width="52.499241"
           height="24.763794"
           x="-544.80347"
           y="-23.888489"
           transform="translate(0,-480)" />
      </g>
    </g>
  </g>
</svg>
