<?xml version="1.0" encoding="UTF-8" standalone="no"?>
<!-- Created with Inkscape (http://www.inkscape.org/) -->

<svg
   xmlns:dc="http://purl.org/dc/elements/1.1/"
   xmlns:cc="http://creativecommons.org/ns#"
   xmlns:rdf="http://www.w3.org/1999/02/22-rdf-syntax-ns#"
   xmlns:svg="http://www.w3.org/2000/svg"
   xmlns="http://www.w3.org/2000/svg"
   xmlns:xlink="http://www.w3.org/1999/xlink"
   xmlns:sodipodi="http://sodipodi.sourceforge.net/DTD/sodipodi-0.dtd"
   xmlns:inkscape="http://www.inkscape.org/namespaces/inkscape"
   id="svg2985"
   version="1.1"
   inkscape:version="0.48.2 r9819"
   viewBox="0 0 512 512" width="512"
   height="512"
   sodipodi:docname="insert_image.svg">
  <metadata
     id="metadata2991">
    <rdf:RDF>
      <cc:Work
         rdf:about="">
        <dc:format>image/svg+xml</dc:format>
        <dc:type
           rdf:resource="http://purl.org/dc/dcmitype/StillImage" />
        <dc:title />
      </cc:Work>
    </rdf:RDF>
  </metadata>
  <defs
     id="defs2989">
    <linearGradient
       inkscape:collect="always"
       id="linearGradient3952">
      <stop
         style="stop-color:#8e8eee;stop-opacity:1;"
         offset="0"
         id="stop3954" />
      <stop
         style="stop-color:#8e8eee;stop-opacity:0;"
         offset="1"
         id="stop3956" />
    </linearGradient>
    <linearGradient
       inkscape:collect="always"
       id="linearGradient3944">
      <stop
         style="stop-color:#8e8eee;stop-opacity:1;"
         offset="0"
         id="stop3946" />
      <stop
         style="stop-color:#8e8eee;stop-opacity:0;"
         offset="1"
         id="stop3948" />
    </linearGradient>
    <linearGradient
       inkscape:collect="always"
       id="linearGradient3936">
      <stop
         style="stop-color:#8e8eee;stop-opacity:1;"
         offset="0"
         id="stop3938" />
      <stop
         style="stop-color:#8e8eee;stop-opacity:0;"
         offset="1"
         id="stop3940" />
    </linearGradient>
    <linearGradient
       inkscape:collect="always"
       id="linearGradient3922">
      <stop
         style="stop-color:#8e8eee;stop-opacity:1;"
         offset="0"
         id="stop3924" />
      <stop
         style="stop-color:#8e8eee;stop-opacity:0;"
         offset="1"
         id="stop3926" />
    </linearGradient>
    <linearGradient
       inkscape:collect="always"
       id="linearGradient3801">
      <stop
         style="stop-color:#8e8eee;stop-opacity:1;"
         offset="0"
         id="stop3803" />
      <stop
         style="stop-color:#8e8eee;stop-opacity:0;"
         offset="1"
         id="stop3805" />
    </linearGradient>
    <inkscape:path-effect
       effect="spiro"
       id="path-effect3769"
       is_visible="true" />
    <inkscape:path-effect
       effect="spiro"
       id="path-effect2997"
       is_visible="true" />
    <inkscape:path-effect
       effect="spiro"
       id="path-effect3769-1"
       is_visible="true" />
    <inkscape:path-effect
       effect="spiro"
       id="path-effect3769-4"
       is_visible="true" />
    <inkscape:path-effect
       effect="spiro"
       id="path-effect3769-9"
       is_visible="true" />
    <inkscape:path-effect
       effect="spiro"
       id="path-effect3769-8"
       is_visible="true" />
    <inkscape:path-effect
       effect="spiro"
       id="path-effect3769-2"
       is_visible="true" />
    <linearGradient
       inkscape:collect="always"
       xlink:href="#linearGradient3801"
       id="linearGradient3807"
       x1="13.10617"
       y1="3.3977113"
       x2="17.115116"
       y2="17.660309"
       gradientUnits="userSpaceOnUse"
       gradientTransform="translate(0,480)" />
    <linearGradient
       inkscape:collect="always"
       xlink:href="#linearGradient3801-2"
       id="linearGradient3807-5"
       x1="13.10617"
       y1="3.3977113"
       x2="17.115116"
       y2="17.660309"
       gradientUnits="userSpaceOnUse" />
    <linearGradient
       inkscape:collect="always"
       id="linearGradient3801-2">
      <stop
         style="stop-color:#8e8eee;stop-opacity:1;"
         offset="0"
         id="stop3803-3" />
      <stop
         style="stop-color:#8e8eee;stop-opacity:0;"
         offset="1"
         id="stop3805-1" />
    </linearGradient>
    <inkscape:path-effect
       effect="spiro"
       id="path-effect3769-2-6"
       is_visible="true" />
    <linearGradient
       gradientTransform="translate(3.0368366,2.3924803)"
       y2="17.660309"
       x2="17.115116"
       y1="3.3977113"
       x1="13.10617"
       gradientUnits="userSpaceOnUse"
       id="linearGradient3825"
       xlink:href="#linearGradient3801-2"
       inkscape:collect="always" />
    <linearGradient
       inkscape:collect="always"
       xlink:href="#linearGradient3801-27"
       id="linearGradient3807-8"
       x1="13.10617"
       y1="3.3977113"
       x2="17.115116"
       y2="17.660309"
       gradientUnits="userSpaceOnUse" />
    <linearGradient
       inkscape:collect="always"
       id="linearGradient3801-27">
      <stop
         style="stop-color:#8e8eee;stop-opacity:1;"
         offset="0"
         id="stop3803-7" />
      <stop
         style="stop-color:#8e8eee;stop-opacity:0;"
         offset="1"
         id="stop3805-12" />
    </linearGradient>
    <inkscape:path-effect
       effect="spiro"
       id="path-effect3769-2-60"
       is_visible="true" />
    <linearGradient
       gradientTransform="translate(3.0368366,2.3924803)"
       y2="17.660309"
       x2="17.115116"
       y1="3.3977113"
       x1="13.10617"
       gradientUnits="userSpaceOnUse"
       id="linearGradient3825-4"
       xlink:href="#linearGradient3801-27"
       inkscape:collect="always" />
    <linearGradient
       inkscape:collect="always"
       xlink:href="#linearGradient3801-6"
       id="linearGradient3807-4"
       x1="13.10617"
       y1="3.3977113"
       x2="17.115116"
       y2="17.660309"
       gradientUnits="userSpaceOnUse" />
    <linearGradient
       inkscape:collect="always"
       id="linearGradient3801-6">
      <stop
         style="stop-color:#8e8eee;stop-opacity:1;"
         offset="0"
         id="stop3803-0" />
      <stop
         style="stop-color:#8e8eee;stop-opacity:0;"
         offset="1"
         id="stop3805-3" />
    </linearGradient>
    <inkscape:path-effect
       effect="spiro"
       id="path-effect3769-2-62"
       is_visible="true" />
    <linearGradient
       gradientTransform="translate(3.0368366,2.3924803)"
       y2="17.660309"
       x2="17.115116"
       y1="3.3977113"
       x1="13.10617"
       gradientUnits="userSpaceOnUse"
       id="linearGradient3825-45"
       xlink:href="#linearGradient3801-6"
       inkscape:collect="always" />
    <linearGradient
       inkscape:collect="always"
       xlink:href="#linearGradient3801-21"
       id="linearGradient3807-1"
       x1="13.10617"
       y1="3.3977113"
       x2="17.115116"
       y2="17.660309"
       gradientUnits="userSpaceOnUse" />
    <linearGradient
       inkscape:collect="always"
       id="linearGradient3801-21">
      <stop
         style="stop-color:#8e8eee;stop-opacity:1;"
         offset="0"
         id="stop3803-4" />
      <stop
         style="stop-color:#8e8eee;stop-opacity:0;"
         offset="1"
         id="stop3805-9" />
    </linearGradient>
    <inkscape:path-effect
       effect="spiro"
       id="path-effect3769-2-8"
       is_visible="true" />
    <linearGradient
       gradientTransform="translate(3.0368366,2.3924803)"
       y2="17.660309"
       x2="17.115116"
       y1="3.3977113"
       x1="13.10617"
       gradientUnits="userSpaceOnUse"
       id="linearGradient3825-2"
       xlink:href="#linearGradient3801-21"
       inkscape:collect="always" />
    <linearGradient
       inkscape:collect="always"
       xlink:href="#linearGradient3801-9"
       id="linearGradient3807-52"
       x1="13.10617"
       y1="3.3977113"
       x2="17.115116"
       y2="17.660309"
       gradientUnits="userSpaceOnUse" />
    <linearGradient
       inkscape:collect="always"
       id="linearGradient3801-9">
      <stop
         style="stop-color:#8e8eee;stop-opacity:1;"
         offset="0"
         id="stop3803-9" />
      <stop
         style="stop-color:#8e8eee;stop-opacity:0;"
         offset="1"
         id="stop3805-8" />
    </linearGradient>
    <inkscape:path-effect
       effect="spiro"
       id="path-effect3769-2-3"
       is_visible="true" />
    <linearGradient
       gradientTransform="translate(3.0368366,2.3924803)"
       y2="17.660309"
       x2="17.115116"
       y1="3.3977113"
       x1="13.10617"
       gradientUnits="userSpaceOnUse"
       id="linearGradient3825-8"
       xlink:href="#linearGradient3801-9"
       inkscape:collect="always" />
    <linearGradient
       inkscape:collect="always"
       xlink:href="#linearGradient3922"
       id="linearGradient3928"
       x1="3.1608999"
       y1="16.195501"
       x2="16.729639"
       y2="16.118406"
       gradientUnits="userSpaceOnUse"
       gradientTransform="translate(0,480)" />
    <linearGradient
       inkscape:collect="always"
       xlink:href="#linearGradient3936"
       id="linearGradient3942"
       x1="12.103933"
       y1="29.070385"
       x2="16.883831"
       y2="16.195501"
       gradientUnits="userSpaceOnUse"
       gradientTransform="translate(0,480)" />
    <linearGradient
       inkscape:collect="always"
       xlink:href="#linearGradient3944"
       id="linearGradient3950"
       x1="28.139717"
       y1="22.902777"
       x2="16.344166"
       y2="16.503881"
       gradientUnits="userSpaceOnUse"
       gradientTransform="translate(0,480)" />
    <linearGradient
       inkscape:collect="always"
       xlink:href="#linearGradient3952"
       id="linearGradient3958"
       x1="26.366529"
       y1="7.4066577"
       x2="16.652546"
       y2="16.503881"
       gradientUnits="userSpaceOnUse"
       gradientTransform="translate(0,480)" />
    <linearGradient
       inkscape:collect="always"
       xlink:href="#linearGradient3952"
       id="linearGradient3968"
       gradientUnits="userSpaceOnUse"
       gradientTransform="translate(0,480)"
       x1="26.366529"
       y1="7.4066577"
       x2="16.652546"
       y2="16.503881" />
    <linearGradient
       inkscape:collect="always"
       xlink:href="#linearGradient3944"
       id="linearGradient3970"
       gradientUnits="userSpaceOnUse"
       gradientTransform="translate(0,480)"
       x1="28.139717"
       y1="22.902777"
       x2="16.344166"
       y2="16.503881" />
    <linearGradient
       inkscape:collect="always"
       xlink:href="#linearGradient3936"
       id="linearGradient3972"
       gradientUnits="userSpaceOnUse"
       gradientTransform="translate(0,480)"
       x1="12.103933"
       y1="29.070385"
       x2="16.883831"
       y2="16.195501" />
    <linearGradient
       inkscape:collect="always"
       xlink:href="#linearGradient3922"
       id="linearGradient3974"
       gradientUnits="userSpaceOnUse"
       gradientTransform="translate(0,480)"
       x1="3.1608999"
       y1="16.195501"
       x2="16.729639"
       y2="16.118406" />
    <linearGradient
       inkscape:collect="always"
       xlink:href="#linearGradient3801"
       id="linearGradient3976"
       gradientUnits="userSpaceOnUse"
       gradientTransform="translate(0,480)"
       x1="13.10617"
       y1="3.3977113"
       x2="17.115116"
       y2="17.660309" />
  </defs>
  <sodipodi:namedview
     pagecolor="#ffffff"
     bordercolor="#666666"
     borderopacity="1"
     objecttolerance="10"
     gridtolerance="10"
     guidetolerance="10"
     inkscape:pageopacity="0"
     inkscape:pageshadow="2"
     inkscape:window-width="1428"
     inkscape:window-height="863"
     id="namedview2987"
     showgrid="false"
     inkscape:zoom="0.57324219"
     inkscape:cx="1.43137"
     inkscape:cy="16"
     inkscape:window-x="1448"
     inkscape:window-y="25"
     inkscape:window-maximized="0"
     inkscape:current-layer="svg2985" />
  <g
     id="g3960"
     transform="matrix(15.840438,0,0,15.840438,6.4123235,-7613.2027)">
    <path
       transform="matrix(1.140845,0,0,0.86567159,-2.7733281,481.80305)"
       d="m 18.916524,16.872232 c 0,1.008602 -0.866447,1.826235 -1.935264,1.826235 -1.068817,0 -1.935264,-0.817633 -1.935264,-1.826235 0,-1.008601 0.866447,-1.826235 1.935264,-1.826235 1.068817,0 1.935264,0.817634 1.935264,1.826235 z"
       sodipodi:ry="1.8262351"
       sodipodi:rx="1.9352641"
       sodipodi:cy="16.872232"
       sodipodi:cx="16.98126"
       id="path3828"
       style="fill:#ecd9d4;fill-opacity:1;stroke:none"
       sodipodi:type="arc" />
    <path
       sodipodi:nodetypes="csssssssssssssc"
       inkscape:connector-curvature="0"
       inkscape:original-d="m 19.461669,496.62692 c 4.088586,0.32708 0.163544,1.47189 2.780239,0.21805 2.616695,-1.25383 1.744463,0.87224 3.65247,-1.68994 1.908007,-2.56219 0.109029,-0.0545 2.398637,-2.07155 2.289609,-2.01704 2.795472,0.37164 2.18058,-2.34413 -0.654174,-2.88926 1.635434,-0.87223 -0.545145,-2.39863 -2.180579,-1.52641 -0.272573,-0.65418 -2.289608,-2.2351 -2.017036,-1.58092 -0.218058,-0.59966 -2.344123,-1.25383 -2.126065,-0.65418 -0.404904,-2.09016 -2.344123,-0.43612 -1.853492,1.58092 -0.763202,-0.98126 -1.526405,1.68995 -0.763203,2.67121 0.109028,0.54515 -0.817718,2.78024 -0.926746,2.23509 -0.454272,0.0181 -1.090289,2.56218 -0.545145,2.18058 -0.817717,0.43612 -0.599659,2.45315 0.218058,2.01704 -0.490631,1.90801 0,2.18058 0.49063,0.27257 0.545144,0.54515 0.545144,0.54515 z"
       inkscape:path-effect="#path-effect3769"
       id="path3767"
       d="m 19.461669,496.62692 c 0.893849,0.28362 1.853104,0.35885 2.780239,0.21805 1.341213,-0.20369 2.586659,-0.85066 3.65247,-1.68994 0.830209,-0.65375 1.563076,-1.42465 2.398637,-2.07155 0.430506,-0.3333 0.888074,-0.63354 1.289223,-1.00165 0.401149,-0.36811 0.749669,-0.81679 0.891357,-1.34248 0.10989,-0.40771 0.08931,-0.844 -0.01818,-1.25235 -0.107495,-0.40835 -0.299239,-0.79069 -0.526963,-1.14628 -0.579438,-0.9048 -1.392303,-1.64413 -2.289608,-2.2351 -0.740729,-0.48785 -1.540153,-0.87925 -2.344123,-1.25383 -0.369116,-0.17198 -0.742433,-0.34167 -1.137805,-0.43916 -0.395372,-0.0975 -0.81802,-0.11963 -1.206318,0.003 -0.374365,0.11827 -0.699337,0.36646 -0.950265,0.6684 -0.250929,0.30195 -0.431949,0.65639 -0.57614,1.02155 -0.354988,0.899 -0.495186,1.86909 -0.817718,2.78024 -0.309851,0.87533 -0.784153,1.68554 -1.090289,2.56218 -0.277722,0.79527 -0.412536,1.63183 -0.599659,2.45315 -0.08273,0.36313 -0.176204,0.72607 -0.202004,1.09761 -0.0258,0.37154 0.02045,0.75778 0.202004,1.08297 0.126879,0.22726 0.317883,0.41827 0.545144,0.54515"
       style="opacity:0.97000002;fill:url(#linearGradient3968);fill-opacity:1;stroke:none" />
    <path
       sodipodi:nodetypes="csssssssssssssc"
       inkscape:connector-curvature="0"
       inkscape:original-d="m 17.57152,498.81919 c 0.952364,3.98955 -1.811589,1.00747 0.18948,3.10864 2.00107,2.10117 -0.613059,2.01154 2.413327,3.0344 3.026384,1.02287 0.57616,-0.24024 3.202011,1.31401 2.625842,1.55425 0.510389,2.7735 2.903227,1.34948 2.545706,-1.51499 1.334919,1.28586 2.112781,-1.25968 0.777866,-2.54554 0.537927,-0.46139 1.418173,-2.86823 0.880249,-2.40685 0.502926,-0.39269 0.468092,-2.61685 -0.03483,-2.22416 1.862733,-1.03098 -0.309603,-2.36416 -2.076304,-1.27425 0.860938,-1.68325 -1.915379,-1.58365 -2.776313,0.0996 12.971157,-23.22893 -2.678794,0.40853 -1.335747,2.01749 -0.539203,-0.0994 -3.155298,0.0819 -2.242313,0.15537 -0.940031,-1.24259 -2.790962,-0.41191 -1.850932,0.83069 -1.693665,0.72265 -1.801284,1.2735 -0.107618,0.55084 -0.05577,0.534 -0.05577,0.534 z"
       inkscape:path-effect="#path-effect3769-4"
       id="path3767-0"
       d="m 17.57152,498.81919 c -0.204721,1.02951 -0.138764,2.11161 0.18948,3.10864 0.413464,1.25588 1.262484,2.38345 2.413327,3.0344 1.005615,0.56881 2.188415,0.75955 3.202011,1.31401 0.475368,0.26004 0.905227,0.59575 1.372118,0.87072 0.466891,0.27497 0.989431,0.49217 1.531109,0.47876 0.423313,-0.0105 0.835627,-0.16328 1.190977,-0.39356 0.35535,-0.23028 0.656967,-0.53572 0.921804,-0.86612 0.671333,-0.83753 1.115124,-1.83852 1.418173,-2.86823 0.250689,-0.8518 0.409734,-1.73084 0.468092,-2.61685 0.05276,-0.8011 0.01802,-1.63121 -0.309603,-2.36416 -0.175829,-0.39335 -0.434887,-0.75104 -0.763731,-1.02943 -0.328845,-0.2784 -0.72794,-0.47603 -1.151648,-0.55422 -0.448014,-0.0827 -0.910945,-0.0319 -1.356073,0.0651 -0.445127,0.097 -0.879124,0.23965 -1.322721,0.34344 -1.031572,0.24136 -2.112525,0.26904 -3.155298,0.0819 -0.929572,-0.16682 -1.850987,-0.50345 -2.790962,-0.41191 -0.388391,0.0378 -0.773828,0.15169 -1.099965,0.36596 -0.326137,0.21428 -0.589669,0.53362 -0.701319,0.90754 -0.0515,0.17248 -0.07052,0.3546 -0.05577,0.534 l -1e-6,2e-5"
       style="opacity:0.97000002;fill:url(#linearGradient3970);fill-opacity:1;stroke:none" />
    <path
       sodipodi:nodetypes="csssssssssssssc"
       inkscape:connector-curvature="0"
       inkscape:original-d="m 13.844187,497.90966 c -3.499993,2.13859 -1.021586,-0.94236 -2.401552,1.61006 -1.379966,2.55243 -2.1362246,-0.0652 -2.1738206,3.1292 -0.0376,3.19435 -0.05617,0.10819 -0.722913,3.08581 -0.666748,2.97761 -2.480033,1.34246 -0.386286,3.17814 2.2275066,1.95296 -0.810409,1.66694 1.8509156,1.62011 2.661324,-0.0468 0.60503,0.36903 3.166086,0.46243 2.561059,0.0934 0.528884,0.35697 2.63342,-0.36346 2.104537,-0.72044 1.556137,1.45297 2.152779,-1.02502 0.570265,-2.36845 1.194212,0.34526 0.241559,-2.2644 -0.952652,-2.60965 -0.408631,-0.37694 -0.972635,-2.7299 -0.564001,-2.35295 0.847499,0.15445 -0.133319,-2.27759 -0.840681,-2.08455 1.386465,-1.37861 0.02447,-2.88225 -1.361997,-1.50365 -1.106171,-1.72297 -1.663314,-1.6551 -0.557142,0.0679 -1.615389,0.11197 -1.615389,0.11197 z"
       inkscape:path-effect="#path-effect3769-9"
       id="path3767-4"
       d="m 13.844187,497.90966 c -0.87207,0.41805 -1.683606,0.96212 -2.401552,1.61006 -0.952711,0.85981 -1.7476168,1.91871 -2.1738206,3.1292 -0.3511163,0.99723 -0.4443147,2.06594 -0.722913,3.08581 -0.143336,0.52471 -0.3357612,1.03649 -0.4455312,1.56923 -0.1097699,0.53275 -0.1327065,1.09997 0.059245,1.60891 0.1490768,0.39526 0.4221918,0.73673 0.7495084,1.00379 0.3273166,0.26706 0.7077857,0.46296 1.1014072,0.61632 1.001061,0.39002 2.092834,0.51112 3.166086,0.46243 0.886053,-0.0402 1.762972,-0.19309 2.63342,-0.36346 0.399515,-0.0782 0.801005,-0.16095 1.177976,-0.31464 0.376971,-0.15369 0.731766,-0.38379 0.974803,-0.71038 0.234623,-0.31528 0.353875,-0.70689 0.380176,-1.09901 0.0263,-0.39212 -0.03635,-0.78593 -0.138617,-1.16539 -0.251573,-0.93347 -0.739739,-1.79159 -0.972635,-2.7299 -0.18407,-0.74159 -0.203666,-1.51674 -0.133319,-2.27759 0.04458,-0.4822 0.124779,-0.96092 0.156775,-1.44412 0.032,-0.4832 0.01436,-0.97662 -0.132305,-1.43813 -0.123325,-0.38808 -0.337916,-0.74753 -0.625183,-1.03613 -0.287266,-0.2886 -0.647085,-0.50542 -1.038131,-0.61897 -0.529193,-0.15367 -1.112459,-0.11324 -1.61539,0.11197"
       style="opacity:0.97000002;fill:url(#linearGradient3972);fill-opacity:1;stroke:none" />
    <path
       sodipodi:nodetypes="csssssssssssssc"
       inkscape:connector-curvature="0"
       inkscape:original-d="m 14.17886,494.50945 c -3.115479,-2.66783 0.580555,-1.26279 -2.27338,-1.78647 -2.8539359,-0.52369 -0.598171,-2.05181 -3.6477929,-1.10045 -3.049622,0.95134 -0.120246,-0.02 -3.158165,0.26603 -3.037916,0.28602 -2.043135,-1.94381 -3.141966,0.61472 -1.169031,2.72198 -1.835779,-0.25563 -0.968852,2.26097 0.866926,2.5166 -0.163998,0.68945 0.538576,3.15402 0.702575,2.46458 -0.176058,0.61331 1.159451,2.39222 1.335509,1.7789 -0.900988,1.92897 1.640093,1.73066 2.428748,-0.18953 0.04067,1.24246 2.228214,-0.47 2.187542,-1.71245 0.232225,-0.50511 2.295731,-1.76861 2.0635089,-1.2635 0.3236445,0.57945 2.3335609,-1.10491 1.722744,-1.44369 1.081432,0.83651 2.090603,-0.92348 1.009172,-1.75999 1.409399,-2.291 1.172685,-2.7999 -0.236715,-0.5089 -0.268758,-0.4648 -0.268758,-0.4648 z"
       inkscape:path-effect="#path-effect3769-8"
       id="path3767-8"
       d="m 14.17886,494.50945 c -0.667074,-0.7002 -1.435297,-1.30389 -2.27338,-1.78647 -1.112132,-0.64039 -2.3648462,-1.06917 -3.6477929,-1.10045 -1.0569183,-0.0258 -2.1021245,0.21584 -3.158165,0.26603 -0.543325,0.0258 -1.0895157,9.6e-4 -1.6301092,0.0612 -0.5405934,0.0602 -1.0871448,0.21369 -1.5118568,0.55353 -0.3298451,0.26393 -0.5701918,0.6292 -0.7230299,1.02302 -0.1528381,0.39382 -0.221587,0.81621 -0.2458221,1.23795 -0.0616355,1.07259 0.1604286,2.14841 0.538576,3.15402 0.3121865,0.8302 0.7289216,1.61676 1.159451,2.39222 0.1976426,0.35599 0.4000693,0.71257 0.6626553,1.02376 0.2625859,0.31119 0.5913606,0.57753 0.9774377,0.7069 0.3723716,0.12478 0.7813132,0.11565 1.1619682,0.019 0.3806551,-0.0966 0.735552,-0.27722 1.0662458,-0.48905 0.8139232,-0.52136 1.4919193,-1.23179 2.295731,-1.76861 0.7174991,-0.47918 1.5222369,-0.81136 2.3335609,-1.10491 0.718383,-0.25992 1.456774,-0.49699 2.090603,-0.92348 0.453642,-0.30525 0.84956,-0.71143 1.081686,-1.20649 0.232125,-0.49506 0.288462,-1.08353 0.091,-1.59341 -0.06489,-0.16756 -0.15591,-0.32497 -0.268758,-0.4648"
       style="opacity:0.97000002;fill:url(#linearGradient3974);fill-opacity:1;stroke:none" />
    <path
       sodipodi:nodetypes="csssssssssssssc"
       inkscape:connector-curvature="0"
       inkscape:original-d="m 17.538252,494.47015 c 1.574521,-3.7874 1.925532,0.92512 1.541669,-1.95096 -0.383863,-2.87608 1.221391,-1.96614 -0.625781,-4.57252 -1.847172,-2.60638 -0.01815,-0.12054 -1.228942,-2.92138 -1.210788,-2.80085 1.217306,-2.54381 -1.555557,-2.79823 -2.950008,-0.27068 -0.324165,-1.82493 -2.449699,-0.22276 -2.125533,1.60217 -0.706386,0.0571 -2.833228,1.48687 -2.1268416,1.42978 -0.6376926,0.0221 -1.9168386,1.84193 -1.279147,1.81986 -2.112979,-0.2608 -1.139145,2.09463 0.930783,2.25131 -1.169077,0.42262 1.135552,1.97392 2.3046276,1.5513 0.552155,0.0648 2.3914746,1.63684 1.83932,1.57207 -0.123154,0.43763 2.099861,1.82868 1.905395,1.1923 -0.11049,1.23955 1.875208,1.65546 1.9857,0.41592 1.935582,0.72914 2.346428,0.34675 0.410844,-0.38239 0.358998,-0.39923 0.358998,-0.39923 z"
       inkscape:path-effect="#path-effect3769-2"
       id="path3767-45"
       d="m 17.538252,494.47015 c 0.718553,-0.44594 1.273936,-1.14877 1.541669,-1.95096 0.249174,-0.74658 0.250945,-1.55957 0.108382,-2.33362 -0.142562,-0.77404 -0.424348,-1.51538 -0.734163,-2.2389 -0.415987,-0.97147 -0.885808,-1.92185 -1.228942,-2.92138 -0.176922,-0.51536 -0.320282,-1.04405 -0.547893,-1.53912 -0.22761,-0.49507 -0.550056,-0.96331 -1.007664,-1.25911 -0.354502,-0.22915 -0.775502,-0.34402 -1.196924,-0.36822 -0.421422,-0.0242 -0.844238,0.0393 -1.252775,0.14546 -1.039926,0.27034 -1.994155,0.81569 -2.833228,1.48687 -0.6926099,0.55403 -1.3116877,1.19351 -1.9168386,1.84193 -0.2779002,0.29777 -0.5550806,0.60013 -0.7701558,0.94602 -0.2150752,0.34588 -0.3666523,0.74131 -0.3689892,1.14861 -0.00225,0.3923 0.1347882,0.77721 0.3447267,1.10863 0.2099384,0.33141 0.4903611,0.61304 0.7908253,0.86529 0.7402895,0.62149 1.6054856,1.07425 2.3914746,1.63684 0.755499,0.54076 1.434288,1.18044 2.099861,1.82868 0.59802,0.58245 1.1913,1.17677 1.875208,1.65546 0.345744,0.242 0.720563,0.45609 1.132835,0.54627 0.206137,0.0451 0.420201,0.0583 0.628989,0.0278 0.208787,-0.0306 0.412197,-0.10563 0.584604,-0.22729 0.147455,-0.10405 0.271134,-0.24159 0.358998,-0.39923"
       style="opacity:0.97000002;fill:url(#linearGradient3976);fill-opacity:1;stroke:none" />
  </g>
</svg>
