<?xml version="1.0" encoding="UTF-8" standalone="no"?>
<!-- Created with Inkscape (http://www.inkscape.org/) -->

<svg
   xmlns:dc="http://purl.org/dc/elements/1.1/"
   xmlns:cc="http://creativecommons.org/ns#"
   xmlns:rdf="http://www.w3.org/1999/02/22-rdf-syntax-ns#"
   xmlns:svg="http://www.w3.org/2000/svg"
   xmlns="http://www.w3.org/2000/svg"
   xmlns:sodipodi="http://sodipodi.sourceforge.net/DTD/sodipodi-0.dtd"
   xmlns:inkscape="http://www.inkscape.org/namespaces/inkscape"
   id="svg2"
   version="1.1"
   inkscape:version="0.48.2 r9819"
   viewBox="0 0 512 512" width="512"
   height="512"
   sodipodi:docname="polygon.svg">
  <metadata
     id="metadata8">
    <rdf:RDF>
      <cc:Work
         rdf:about="">
        <dc:format>image/svg+xml</dc:format>
        <dc:type
           rdf:resource="http://purl.org/dc/dcmitype/StillImage" />
        <dc:title />
      </cc:Work>
    </rdf:RDF>
  </metadata>
  <defs
     id="defs6" />
  <sodipodi:namedview
     pagecolor="#ffffff"
     bordercolor="#666666"
     borderopacity="1"
     objecttolerance="10"
     gridtolerance="10"
     guidetolerance="10"
     inkscape:pageopacity="0"
     inkscape:pageshadow="2"
     inkscape:window-width="1680"
     inkscape:window-height="988"
     id="namedview4"
     showgrid="false"
     inkscape:zoom="1.3477551"
     inkscape:cx="94.587781"
     inkscape:cy="276.67558"
     inkscape:window-x="1358"
     inkscape:window-y="-8"
     inkscape:window-maximized="1"
     inkscape:current-layer="g3837" />
  <g
     id="g3837"
     transform="matrix(4.1310321,0,0,4.1310321,-37.248499,-23.314168)">
    <g
       id="g3775"
       transform="translate(0,-1.2572698)">
      <path
         sodipodi:type="star"
         style="fill:#ecd9d4;fill-opacity:1;stroke:#993300;stroke-width:4.24441624;stroke-miterlimit:4;stroke-opacity:1;stroke-dasharray:none;stroke-dashoffset:5.8"
         id="path3004"
         sodipodi:sides="3"
         sodipodi:cx="38.037502"
         sodipodi:cy="110.43982"
         sodipodi:r1="48.131935"
         sodipodi:r2="18.194458"
         sodipodi:arg1="-1.9978749"
         sodipodi:arg2="-0.95067732"
         inkscape:flatsided="true"
         inkscape:rounded="0"
         inkscape:randomized="0"
         d="M 18.100603,66.631108 85.945409,115.07831 10.066495,149.61004 z"
         inkscape:transform-center-x="-6.1927963"
         inkscape:transform-center-y="-2.9546917"
         transform="matrix(0.96946002,0.01355793,-0.01355793,0.96946002,26.731247,-36.344729)" />
      <path
         transform="matrix(0.19065068,0,0,0.18563356,84.371394,50.533751)"
         d="m 178.71824,132.31961 c 0,24.14632 -19.05934,43.72077 -42.57023,43.72077 -23.51089,0 -42.570225,-19.57445 -42.570225,-43.72077 0,-24.14631 19.059335,-43.720771 42.570225,-43.720771 23.51089,0 42.57023,19.574461 42.57023,43.720771 z"
         sodipodi:ry="43.720772"
         sodipodi:rx="42.570225"
         sodipodi:cy="132.31961"
         sodipodi:cx="136.14801"
         id="path2990"
         style="fill:#0000ff;fill-opacity:1;fill-rule:nonzero;stroke:#000000;stroke-width:16.65663528;stroke-linecap:round;stroke-linejoin:round;stroke-miterlimit:4;stroke-opacity:1;stroke-dasharray:none"
         sodipodi:type="arc" />
      <path
         transform="matrix(0.19065068,0,0,0.18563356,7.2359335,87.029771)"
         d="m 178.71824,132.31961 c 0,24.14632 -19.05934,43.72077 -42.57023,43.72077 -23.51089,0 -42.570225,-19.57445 -42.570225,-43.72077 0,-24.14631 19.059335,-43.720771 42.570225,-43.720771 23.51089,0 42.57023,19.574461 42.57023,43.720771 z"
         sodipodi:ry="43.720772"
         sodipodi:rx="42.570225"
         sodipodi:cy="132.31961"
         sodipodi:cx="136.14801"
         id="path2990-1"
         style="fill:#0000ff;fill-opacity:1;fill-rule:nonzero;stroke:#000000;stroke-width:16.65663528;stroke-linecap:round;stroke-linejoin:round;stroke-miterlimit:4;stroke-opacity:1;stroke-dasharray:none"
         sodipodi:type="arc" />
      <path
         transform="matrix(0.19065068,0,0,0.18563356,16.588949,1.8938929)"
         d="m 178.71824,132.31961 c 0,24.14632 -19.05934,43.72077 -42.57023,43.72077 -23.51089,0 -42.570225,-19.57445 -42.570225,-43.72077 0,-24.14631 19.059335,-43.720771 42.570225,-43.720771 23.51089,0 42.57023,19.574461 42.57023,43.720771 z"
         sodipodi:ry="43.720772"
         sodipodi:rx="42.570225"
         sodipodi:cy="132.31961"
         sodipodi:cx="136.14801"
         id="path2990-7"
         style="fill:#0000ff;fill-opacity:1;fill-rule:nonzero;stroke:#000000;stroke-width:16.65663528;stroke-linecap:round;stroke-linejoin:round;stroke-miterlimit:4;stroke-opacity:1;stroke-dasharray:none"
         sodipodi:type="arc" />
    </g>
  </g>
</svg>
