<svg xmlns="http://www.w3.org/2000/svg" width="24" height="24" fill="none"><path fill="#000" d="M11.553 9.098c.966 0 .966 0 1.508-.664l.044.566h.83V1.5h-.903v2.754c-.542-.635-.542-.635-1.47-.635-.932 0-.932 0-1.508.74-.577.74-.577.74-.577 1.955v.069c0 1.21 0 1.21.579 1.963.579.752.579.752 1.497.752Zm.224-.767c-.654 0-.654 0-1.025-.508-.371-.508-.371-.508-.371-1.406 0-1.006 0-1.006.37-1.519.372-.512.372-.512 1.036-.512.84 0 .84 0 1.245.747V7.56c-.395.771-.395.771-1.255.771Zm-2.87 12.767c.968 0 .968 0 1.51-.664l.044.566h.83v-7.5h-.904v2.754c-.542-.635-.542-.635-1.47-.635-.932 0-.932 0-1.508.74s-.576.74-.576 1.955v.069c0 1.21 0 1.21.578 1.963.579.752.579.752 1.497.752Zm.225-.767c-.654 0-.654 0-1.025-.508-.371-.508-.371-.508-.371-1.406 0-1.006 0-1.006.371-1.519.371-.512.371-.512 1.035-.512.84 0 .84 0 1.245.747v2.427c-.395.771-.395.771-1.255.771Zm4.46.669 1.22-1.977L16.034 21h1.045l-1.782-2.67 1.728-2.613H15.97l-1.172 1.928-1.157-1.928h-1.045l1.728 2.612L12.542 21h1.05ZM4 12h16v1H4v-1Z"/></svg>