<svg width="24" height="24" xmlns="http://www.w3.org/2000/svg">

 <g>
  <title>background</title>
  <rect fill="none" id="canvas_background" height="402" width="582" y="-1" x="-1"/>
 </g>
 <g>
  <title>Layer 1</title>
  <path id="svg_1" fill="none" d="m0,0l24,0l0,24l-24,0l0,-24z"/>
  <path fill="#6557d2" id="svg_2" d="m6,10c-1.1,0 -2,0.9 -2,2s0.9,2 2,2s2,-0.9 2,-2s-0.9,-2 -2,-2zm12,0c-1.1,0 -2,0.9 -2,2s0.9,2 2,2s2,-0.9 2,-2s-0.9,-2 -2,-2zm-6,0c-1.1,0 -2,0.9 -2,2s0.9,2 2,2s2,-0.9 2,-2s-0.9,-2 -2,-2z"/>
 </g>
</svg>