<svg id="x_index" xmlns="http://www.w3.org/2000/svg" width="24" height="24" viewBox="0 0 24 24">
  <title>subscript</title>
  <g>
    <rect x="22" y="18" width="2" height="2"/>
    <rect x="18" y="18" width="2" height="2"/>
    <rect x="18" y="22" width="2" height="2"/>
    <rect x="22" y="22" width="2" height="2"/>
  </g>
  <g>
    <rect x="1" y="6" width="2" height="2"/>
    <rect x="5" y="6" width="2" height="2"/>
    <rect x="9" y="6" width="2" height="2"/>
    <rect x="13" y="6" width="2" height="2"/>
    <rect x="1" y="10" width="2" height="2"/>
    <rect x="13" y="18" width="2" height="2"/>
    <rect x="13" y="14" width="2" height="2"/>
    <rect x="13" y="10" width="2" height="2"/>
    <rect x="1" y="14" width="2" height="2"/>
    <rect x="1" y="18" width="2" height="2"/>
    <rect x="5" y="18" width="2" height="2"/>
    <rect x="9" y="18" width="2" height="2"/>
  </g>
</svg>
