<svg id="lim" xmlns="http://www.w3.org/2000/svg" width="24" height="24" viewBox="0 0 24 24">
  <title>lim</title>
  <g>
    <path d="M3.61,15.75H2V3H3.61Z"/>
    <path d="M7.83,4.64H6.22V3H7.83Zm0,11.11H6.22V6.91H7.83Z"/>
    <path d="M11.74,6.91l.12,1.16a3,3,0,0,1,1.1-1,3.3,3.3,0,0,1,1.54-.35A2.76,2.76,0,0,1,16,7.15,2.45,2.45,0,0,1,17,8.38a3.37,3.37,0,0,1,1.11-1.2,2.91,2.91,0,0,1,1.6-.44,2.63,2.63,0,0,1,2.13.93,4.26,4.26,0,0,1,.79,2.79v5.29H21v-5.3a3,3,0,0,0-.45-1.86,1.65,1.65,0,0,0-1.34-.54,1.72,1.72,0,0,0-1.34.57,2.51,2.51,0,0,0-.6,1.45v5.68H15.64v-5.3a2.88,2.88,0,0,0-.46-1.82,1.59,1.59,0,0,0-1.33-.58,2.24,2.24,0,0,0-1.21.3,2,2,0,0,0-.73.85v6.55H10.3V6.91Z"/>
  </g>
  <g>
    <rect x="13" y="18" width="2" height="2"/>
    <rect x="9" y="18" width="2" height="2"/>
    <rect x="9" y="22" width="2" height="2"/>
    <rect x="13" y="22" width="2" height="2"/>
  </g>
</svg>
