<svg xmlns="http://www.w3.org/2000/svg" width="24" height="24"><path d="M7.26 2.85a1 1 0 0 1-.11 1.41C5.052 6.058 4 8.611 4 12s1.051 5.941 3.15 7.74a1 1 0 0 1-1.3 1.52C3.281 19.058 2 15.944 2 12c0-3.945 1.282-7.059 3.85-9.26a1 1 0 0 1 1.41.11ZM9 15v2H7v-2h2Zm0-4v2H7v-2h2Zm0-4v2H7V7h2Zm2 0h2v2h-2V7Zm7.15-4.26C20.719 4.942 22 8.056 22 12c0 3.945-1.282 7.059-3.85 9.26a1 1 0 1 1-1.3-1.52C18.948 17.942 20 15.389 20 12s-1.051-5.941-3.15-7.74a1 1 0 1 1 1.3-1.52ZM17 15v2h-2v-2h2Zm0-4v2h-2v-2h2Zm0-4v2h-2V7h2Zm-6 4h2v2h-2v-2Zm0 4h2v2h-2v-2Z"/></svg>