<svg xmlns="http://www.w3.org/2000/svg" viewBox="0 0 512 512" width="512" height="512"><path fill="#666" d="M475.637 410.683l-84.831-84.861c-7.466-7.449-20.979-6.742-34.523.314l-37.015-36.993c48.218-63.002 43.67-153.448-13.968-211.092-62.758-62.733-164.492-62.733-227.257 0-62.724 62.766-62.724 164.503 0 227.266 57.657 57.638 148.1 62.188 211.095 13.955l37.009 36.99c-7.055 13.571-7.78 27.07-.328 34.534l84.846 84.859c10.719 10.709 33.989 4.823 51.896-13.13 17.922-17.906 23.806-41.136 13.076-51.842zm-373.69-129.251c-49.54-49.585-49.54-129.944 0-179.484 49.58-49.582 129.861-49.54 179.468 0 49.539 49.54 49.539 129.871 0 179.484-49.606 49.539-129.929 49.539-179.468 0z"/></svg>