<svg xmlns="http://www.w3.org/2000/svg" width="24" height="24" viewBox="0 0 24 24"><path d="M19.816 16.43c-.858-.582-1.688-2.177-1.957-3.105l-.284-.997C16.606 8.892 15.509 5 12.077 5h-.125c-3.459 0-4.557 3.892-5.526 7.328l-.284.997c-.269.928-1.098 2.523-1.956 3.105-.659.448-1.748.592-2.186.57v2c.462-.002 2.103-.076 3.319-.901 1.406-.955 2.422-3.042 2.761-4.212l.288-1.012c.997-3.536 1.787-5.858 3.618-5.858h.057c1.803 0 2.593 2.323 3.59 5.858l.288 1.012c.34 1.171 1.356 3.258 2.762 4.212 1.222.83 2.868.896 3.318.901v-2c-.438-.013-1.528-.124-2.185-.57"/></svg>