<?xml version="1.0" encoding="iso-8859-1"?>
<!-- Generator: Adobe Illustrator 15.1.0, SVG Export Plug-In . SVG Version: 6.00 Build 0)  -->
<!DOCTYPE svg PUBLIC "-//W3C//DTD SVG 1.1//EN" "http://www.w3.org/Graphics/SVG/1.1/DTD/svg11.dtd">
<svg version="1.1" xmlns="http://www.w3.org/2000/svg" xmlns:xlink="http://www.w3.org/1999/xlink" x="0px" y="0px" width="512px"
	 height="512px" viewBox="0 0 512 512" style="enable-background:new 0 0 512 512;" xml:space="preserve">
<g id="menu-help-about">
	<g>
		<path style="fill:#999999;" d="M272.646,154.285c-2.015-1.546-4.347-2.65-7.034-3.268c-2.663-0.618-5.52-0.929-8.544-0.929
			c-3.03,0-5.905,0.312-8.618,0.929c-2.719,0.617-5.076,1.721-7.097,3.268c-2.002,1.553-3.58,3.617-4.746,6.148
			c-1.154,2.544-1.74,5.737-1.74,9.566c0,3.742,0.586,6.91,1.74,9.479c1.166,2.594,2.744,4.677,4.746,6.229
			c2.021,1.547,4.377,2.682,7.097,3.343c2.712,0.661,5.587,0.998,8.618,0.998c3.024,0,5.881-0.337,8.544-0.998
			c2.688-0.661,5.02-1.796,7.034-3.343c1.995-1.553,3.616-3.635,4.801-6.229c1.198-2.569,1.809-5.737,1.809-9.479
			c0-3.829-0.61-7.021-1.809-9.566C276.263,157.902,274.642,155.838,272.646,154.285z"/>
		<rect x="236.608" y="208.631" style="fill:#999999;" width="40.789" height="149.439"/>
		<path style="fill:#999999;" d="M256.981,56C146.723,56,57.019,145.723,57.019,256.006C57.019,366.283,146.723,456,256.981,456
			c110.276,0,200-89.717,200-199.994C456.981,145.723,367.258,56,256.981,56z M256.981,427.121
			c-94.338,0-171.084-76.765-171.084-171.115c0-94.363,76.746-171.127,171.084-171.127c94.35,0,171.115,76.765,171.115,171.127
			C428.097,350.356,351.331,427.121,256.981,427.121z"/>
	</g>
</g>
<g id="Ebene_1">
</g>
</svg>
