<?xml version="1.0" encoding="iso-8859-1"?>
<!-- Generator: Adobe Illustrator 15.1.0, SVG Export Plug-In . SVG Version: 6.00 Build 0)  -->
<!DOCTYPE svg PUBLIC "-//W3C//DTD SVG 1.1//EN" "http://www.w3.org/Graphics/SVG/1.1/DTD/svg11.dtd">
<svg version="1.1" xmlns="http://www.w3.org/2000/svg" xmlns:xlink="http://www.w3.org/1999/xlink" x="0px" y="0px" width="512px"
	 height="512px" viewBox="0 0 512 512" style="enable-background:new 0 0 512 512;" xml:space="preserve">
<g id="menu-help">
	<g>
		<path style="fill:#999999;" d="M200.082,328.417v-22.051c0-10.136,1.042-19.32,3.132-27.569c2.083-8.242,5.258-16.09,9.53-23.543
			c4.279-7.446,9.783-14.696,16.54-21.748c6.75-7.053,14.907-14.358,24.437-21.903c8.347-6.56,15.4-12.423,21.157-17.589
			c5.765-5.159,10.431-10.283,14.007-15.351c3.575-5.061,6.165-10.374,7.756-15.935c1.591-5.56,2.379-12.028,2.379-19.376
			c0-11.325-3.829-20.664-11.473-28.012c-7.65-7.355-19.327-11.029-35.015-11.029c-13.71,0-28.456,2.885-44.257,8.643
			c-15.787,5.765-32.137,12.817-49.021,21.165l-30.398-65.864c8.538-4.962,17.828-9.685,27.865-14.154
			c10.036-4.476,20.46-8.446,31.292-11.919c10.825-3.473,21.797-6.211,32.925-8.196C232.063,32,242.994,31,253.72,31
			c20.27,0,38.542,2.442,54.835,7.306c16.294,4.871,30.103,11.965,41.42,21.305c11.332,9.34,20.018,20.671,26.084,33.974
			c6.053,13.316,9.087,28.512,9.087,45.594c0,12.514-1.394,23.698-4.174,33.53c-2.78,9.825-6.897,18.975-12.359,27.414
			c-5.476,8.453-12.324,16.596-20.566,24.437c-8.248,7.848-17.835,16.146-28.758,24.887c-8.348,6.553-15.153,12.268-20.425,17.139
			c-5.265,4.863-9.383,9.48-12.359,13.851c-2.984,4.378-5.019,8.896-6.109,13.563c-1.091,4.666-1.64,10.177-1.64,16.532v17.885
			H200.082z M190.249,430.339c0-9.333,1.337-17.23,4.026-23.691c2.674-6.454,6.405-11.669,11.17-15.646
			c4.765-3.977,10.381-6.848,16.842-8.636c6.447-1.795,13.352-2.688,20.707-2.688c6.954,0,13.563,0.894,19.82,2.688
			c6.25,1.788,11.769,4.659,16.54,8.636c4.765,3.978,8.537,9.192,11.317,15.646c2.787,6.461,4.181,14.358,4.181,23.691
			c0,8.945-1.394,16.589-4.181,22.944c-2.78,6.362-6.553,11.627-11.317,15.801c-4.771,4.167-10.29,7.193-16.54,9.087
			c-6.257,1.886-12.866,2.829-19.82,2.829c-7.355,0-14.259-0.943-20.707-2.829c-6.461-1.894-12.078-4.92-16.842-9.087
			c-4.765-4.174-8.496-9.438-11.17-15.801C191.586,446.928,190.249,439.284,190.249,430.339z"/>
	</g>
</g>
<g id="Ebene_1">
</g>
</svg>
