<?xml version="1.0" encoding="iso-8859-1"?>
<!-- Generator: Adobe Illustrator 15.1.0, SVG Export Plug-In . SVG Version: 6.00 Build 0)  -->
<!DOCTYPE svg PUBLIC "-//W3C//DTD SVG 1.1//EN" "http://www.w3.org/Graphics/SVG/1.1/DTD/svg11.dtd">
<svg version="1.1" xmlns="http://www.w3.org/2000/svg" xmlns:xlink="http://www.w3.org/1999/xlink" x="0px" y="0px" width="512px"
	 height="512px" viewBox="0 0 512 512" style="enable-background:new 0 0 512 512;" xml:space="preserve">
<g id="menu-edit-cut">
	<g>
		<path style="fill:#999999;" d="M448.145,342.306c4.88,3.557,7.808,9.303,7.808,15.36c0,4.063-1.244,7.937-3.685,11.249
			c-3.001,4.123-7.43,6.808-12.493,7.552c-4.989,0.817-10.053-0.433-14.177-3.429c-4.867-3.563-7.747-9.369-7.747-15.433
			c0-4.063,1.244-7.931,3.685-11.243C427.721,337.926,439.652,336.06,448.145,342.306z M312.28,257.599
			c0-8.248,6.687-14.934,14.934-14.934c8.187,0,14.86,6.686,14.86,14.934c0,8.187-6.674,14.866-14.86,14.866
			C318.967,272.465,312.28,265.785,312.28,257.599z M439.774,138.663c5.063,0.811,9.492,3.496,12.493,7.558
			c2.44,3.306,3.685,7.186,3.685,11.243c0,6.058-2.928,11.871-7.808,15.427c-4.124,3.001-9.114,4.252-14.177,3.441
			c-5.003-0.75-9.432-3.441-12.433-7.564c-2.44-3.306-3.685-7.18-3.685-11.237c0-6.063,2.88-11.81,7.747-15.372
			C429.722,139.096,434.785,137.912,439.774,138.663z M410.787,121.917c-6.613,4.813-12.237,12.371-14.922,17.678
			c-1.378,2.751-3.245,6.064-5.624,10.188c-2.062,3.685-4.563,8.052-7.491,13.427c-15.312,28.109-30.867,46.417-30.989,46.538
			c-0.122,0.122-8.687,9.931-18.179,18.429c-53.096-22.802-140.048-59.91-148.417-62.033c-12.493-3.124-24.425,5.686-24.926,6.063
			l-5.49,4.124l5.868,3.563l127.994,77.705l-127.994,77.643l-5.868,3.563l5.49,4.123c0.5,0.372,12.433,9.181,24.926,6.058
			c8.309-2.062,95.322-39.23,148.417-62.033c9.492,8.565,18.057,18.368,18.118,18.436c0.183,0.183,15.738,18.422,31.05,46.593
			c2.928,5.374,5.43,9.748,7.552,13.433c2.318,4.124,4.186,7.369,5.563,10.12c2.685,5.313,8.309,12.865,14.922,17.74
			c19.618,14.365,47.35,10.12,61.722-9.498c5.563-7.613,8.491-16.551,8.491-25.981c0-13.927-6.686-27.237-17.861-35.606
			c-4.807-3.563-10.31-6.125-15.494-7.309c-4.186-1.5-7.369-2.001-10.736-2.562c-5.003-0.873-10.627-1.813-21.998-6.369
			c-22.106-8.869-40.603-25.304-40.908-25.614c-5.38-4.496-10.626-12.365-15.25-22.735c4.624-10.432,9.87-18.301,15.372-22.925
			c0.184-0.122,18.618-16.556,40.786-25.426c11.371-4.563,16.995-5.557,21.998-6.369c3.367-0.561,6.551-1.123,10.297-2.44
			c5.624-1.373,11.127-3.935,16.056-7.491c11.127-8.37,17.739-21.619,17.739-35.546c0-9.437-2.928-18.429-8.491-25.987
			C458.075,111.803,430.405,107.49,410.787,121.917z"/>
		<polygon style="fill:#999999;" points="330.837,443.398 68.479,443.398 68.479,68.602 330.837,68.602 330.837,143.561 
			368.317,143.561 368.317,31.122 31,31.122 31,480.878 330.837,480.878 368.317,480.878 368.317,368.439 330.837,368.439 		"/>
	</g>
</g>
<g id="Ebene_1">
</g>
</svg>
