<?xml version="1.0" encoding="iso-8859-1"?>
<!-- Generator: Adobe Illustrator 15.1.0, SVG Export Plug-In . SVG Version: 6.00 Build 0)  -->
<!DOCTYPE svg PUBLIC "-//W3C//DTD SVG 1.1//EN" "http://www.w3.org/Graphics/SVG/1.1/DTD/svg11.dtd">
<svg version="1.1" xmlns="http://www.w3.org/2000/svg" xmlns:xlink="http://www.w3.org/1999/xlink" x="0px" y="0px" width="512px"
	 height="512px" viewBox="0 0 512 512" style="enable-background:new 0 0 512 512;" xml:space="preserve">
<g id="menu-edit-paste">
	<path style="fill-rule:evenodd;clip-rule:evenodd;fill:#999999;" d="M349.313,365.588H153.152v-11.535h196.161V365.588z
		 M268.508,330.981H153.152v-11.536h115.356V330.981z M303.17,296.375H153.152v-11.536H303.17V296.375z M360.849,261.768H153.152
		v-11.535h207.697V261.768z M268.508,227.161H153.152v-11.536h115.356V227.161z M395.455,100.213h-80.749l6.691,20.125
		c31.836,6.984,39.451,26.304,39.451,49.088H153.152c0-21.691,8.995-40.2,39.045-47.928l7.097-21.286h-80.749v346.18h276.91V100.213
		z M256.972,48.303c-9.519,0-17.303,7.728-17.303,17.304c0,9.513,7.784,17.303,17.303,17.303c9.575,0,17.304-7.79,17.304-17.303
		C274.275,56.031,266.547,48.303,256.972,48.303z M83.938,481V65.607h138.427c0-19.151,15.512-34.607,34.606-34.607
		c19.151,0,34.663,15.456,34.663,34.607h138.427V481H83.938z"/>
</g>
<g id="Ebene_1">
</g>
</svg>
