<?xml version="1.0" encoding="iso-8859-1"?>
<!-- Generator: Adobe Illustrator 15.1.0, SVG Export Plug-In . SVG Version: 6.00 Build 0)  -->
<!DOCTYPE svg PUBLIC "-//W3C//DTD SVG 1.1//EN" "http://www.w3.org/Graphics/SVG/1.1/DTD/svg11.dtd">
<svg version="1.1" xmlns="http://www.w3.org/2000/svg" xmlns:xlink="http://www.w3.org/1999/xlink" x="0px" y="0px" width="512px"
	 height="512px" viewBox="0 0 512 512" style="enable-background:new 0 0 512 512;" xml:space="preserve">
<g id="menu-edit-delete">
	<g>
		<path style="fill:#999999;" d="M378.729,219.867c-0.267-1.65-1.277-3.266-2.79-4.814c-12.198,12.395-61.281,14.446-119.962,14.446
			c-58.682,0-107.718-2.052-119.97-14.446c-1.506,1.549-2.447,3.165-2.791,4.814h-0.113l0.033,0.895
			c0,0.103-0.033,0.206-0.033,0.312c0,0.241,0.068,0.456,0.104,0.685l9.552,195.701h0.022C143.63,432.806,161.198,456,255.978,456
			c94.791,0,112.37-23.194,113.194-38.541h0.07l9.563-195.701c0.017-0.229,0.092-0.444,0.092-0.685c0-0.106-0.075-0.209-0.075-0.312
			l0.075-0.895H378.729z"/>
		<path style="fill:#999999;" d="M314.383,117.443V71.236c0-8.346-6.83-15.236-15.227-15.236h-91.447
			c-8.339,0-15.202,6.891-15.202,15.236v46.733c-45.21,5.129-76.164,15.512-76.164,27.544v22.84c0,4.688,4.745,9.146,13.261,13.168
			c22.3,10.479,70.512,17.745,126.374,17.745c55.907,0,104.095-7.266,126.426-17.745c8.463-4.023,13.254-8.481,13.254-13.168v-22.84
			C395.657,133.061,362.32,122.342,314.383,117.443z M221.739,115.528l-3.854,0.241V96.629c0-8.369,1.167-15.222,2.551-15.222
			c1.42,0,9.406,0,17.783,0h30.471c8.346,0,16.367,0,17.767,0c1.402,0,2.547,6.854,2.547,15.222v18.831
			c-10.594-0.55-21.618-0.893-33.025-0.893C244.155,114.567,232.674,114.91,221.739,115.528z"/>
	</g>
</g>
<g id="Ebene_1">
</g>
</svg>
