<?xml version="1.0" encoding="iso-8859-1"?>
<!-- Generator: Adobe Illustrator 15.1.0, SVG Export Plug-In . SVG Version: 6.00 Build 0)  -->
<!DOCTYPE svg PUBLIC "-//W3C//DTD SVG 1.1//EN" "http://www.w3.org/Graphics/SVG/1.1/DTD/svg11.dtd">
<svg version="1.1" xmlns="http://www.w3.org/2000/svg" xmlns:xlink="http://www.w3.org/1999/xlink" x="0px" y="0px" width="512px"
	 height="512px" viewBox="0 0 512 512" style="enable-background:new 0 0 512 512;" xml:space="preserve">
<g id="menu-tools-new">
	<path style="fill:#999999;stroke:#999999;stroke-width:13;stroke-miterlimit:10;" d="M370.356,443.193L168.842,241.679
		l-33.548,33.548l201.515,201.515C373.153,479.538,370.356,443.193,370.356,443.193z"/>
	<path style="fill:#999999;stroke:#999999;stroke-width:13;stroke-miterlimit:10;" d="M177.942,250.776
		c10.452-45.566,10.477-59.974,10.477-59.974s-8.485-15.557-28.284-35.355c-19.799-19.8-68.459-5.08-68.459-5.08l14.142,14.143
		l36.351,11.731l6.783,45.544l-33.549,33.549l-45.543-6.782l-11.732-36.351l-14.142-14.143c0,0-14.719,48.66,5.08,68.459
		c19.799,19.8,35.355,28.285,35.355,28.285s24.072,0.381,59.973-10.477L177.942,250.776z"/>
	<polygon style="fill-rule:evenodd;clip-rule:evenodd;fill:#999999;" points="482.74,151.73 360.375,151.73 360.375,29.363 
		338.042,29.363 338.042,151.73 215.675,151.73 215.675,174.061 338.042,174.061 338.042,296.428 360.375,296.428 360.375,174.061 
		482.74,174.061 	"/>
</g>
<g id="Ebene_1">
</g>
</svg>
