<?xml version="1.0" encoding="UTF-8" standalone="no"?>
<!-- Created with Inkscape (http://www.inkscape.org/) -->

<svg
   xmlns:dc="http://purl.org/dc/elements/1.1/"
   xmlns:cc="http://creativecommons.org/ns#"
   xmlns:rdf="http://www.w3.org/1999/02/22-rdf-syntax-ns#"
   xmlns:svg="http://www.w3.org/2000/svg"
   xmlns="http://www.w3.org/2000/svg"
   xmlns:xlink="http://www.w3.org/1999/xlink"
   xmlns:sodipodi="http://sodipodi.sourceforge.net/DTD/sodipodi-0.dtd"
   xmlns:inkscape="http://www.inkscape.org/namespaces/inkscape"
   id="svg2985"
   version="1.1"
   inkscape:version="0.48.2 r9819"
   width="32"
   height="32"
   sodipodi:docname="mode_image_32.gif">
  <metadata
     id="metadata2991">
    <rdf:RDF>
      <cc:Work
         rdf:about="">
        <dc:format>image/svg+xml</dc:format>
        <dc:type
           rdf:resource="http://purl.org/dc/dcmitype/StillImage" />
        <dc:title></dc:title>
      </cc:Work>
    </rdf:RDF>
  </metadata>
  <defs
     id="defs2989">
    <linearGradient
       inkscape:collect="always"
       id="linearGradient3862">
      <stop
         style="stop-color:#8c6dd5;stop-opacity:1;"
         offset="0"
         id="stop3864" />
      <stop
         style="stop-color:#8c6dd5;stop-opacity:0;"
         offset="1"
         id="stop3866" />
    </linearGradient>
    <linearGradient
       inkscape:collect="always"
       id="linearGradient3854">
      <stop
         style="stop-color:#8c6dd5;stop-opacity:1;"
         offset="0"
         id="stop3856" />
      <stop
         style="stop-color:#8c6dd5;stop-opacity:0;"
         offset="1"
         id="stop3858" />
    </linearGradient>
    <linearGradient
       inkscape:collect="always"
       id="linearGradient3846">
      <stop
         style="stop-color:#8c6dd5;stop-opacity:1;"
         offset="0"
         id="stop3848" />
      <stop
         style="stop-color:#8c6dd5;stop-opacity:0;"
         offset="1"
         id="stop3850" />
    </linearGradient>
    <linearGradient
       inkscape:collect="always"
       id="linearGradient3838">
      <stop
         style="stop-color:#8c6dd5;stop-opacity:1;"
         offset="0"
         id="stop3840" />
      <stop
         style="stop-color:#8c6dd5;stop-opacity:0"
         offset="1"
         id="stop3842" />
    </linearGradient>
    <linearGradient
       inkscape:collect="always"
       id="linearGradient3830">
      <stop
         style="stop-color:#8c6dd5;stop-opacity:1;"
         offset="0"
         id="stop3832" />
      <stop
         style="stop-color:#8c6dd5;stop-opacity:0"
         offset="1"
         id="stop3834" />
    </linearGradient>
    <inkscape:path-effect
       effect="spiro"
       id="path-effect3769"
       is_visible="true" />
    <inkscape:path-effect
       effect="spiro"
       id="path-effect2997"
       is_visible="true" />
    <inkscape:path-effect
       effect="spiro"
       id="path-effect3769-1"
       is_visible="true" />
    <inkscape:path-effect
       effect="spiro"
       id="path-effect3769-4"
       is_visible="true" />
    <inkscape:path-effect
       effect="spiro"
       id="path-effect3769-9"
       is_visible="true" />
    <inkscape:path-effect
       effect="spiro"
       id="path-effect3769-8"
       is_visible="true" />
    <inkscape:path-effect
       effect="spiro"
       id="path-effect3769-2"
       is_visible="true" />
    <linearGradient
       inkscape:collect="always"
       xlink:href="#linearGradient3830"
       id="linearGradient3836"
       x1="12.756389"
       y1="2.2350936"
       x2="17.335606"
       y2="18.589437"
       gradientUnits="userSpaceOnUse"
       gradientTransform="translate(0.2725724,0.16354344)" />
    <linearGradient
       inkscape:collect="always"
       xlink:href="#linearGradient3838"
       id="linearGradient3844"
       x1="2.0170357"
       y1="15.645656"
       x2="22.405451"
       y2="16.626917"
       gradientUnits="userSpaceOnUse"
       gradientTransform="translate(0.05451448,0.16354344)" />
    <linearGradient
       inkscape:collect="always"
       xlink:href="#linearGradient3846"
       id="linearGradient3852"
       x1="13.247019"
       y1="29.437819"
       x2="16.790461"
       y2="13.901193"
       gradientUnits="userSpaceOnUse"
       gradientTransform="translate(0.10902896,-0.16354344)" />
    <linearGradient
       inkscape:collect="always"
       xlink:href="#linearGradient3854"
       id="linearGradient3860"
       x1="29.601362"
       y1="23.713799"
       x2="15.100511"
       y2="15.754684"
       gradientUnits="userSpaceOnUse"
       gradientTransform="translate(0.10902896,0.2725724)" />
    <linearGradient
       inkscape:collect="always"
       xlink:href="#linearGradient3862"
       id="linearGradient3868"
       x1="28.402044"
       y1="7.2504258"
       x2="14.500852"
       y2="18.807495"
       gradientUnits="userSpaceOnUse" />
  </defs>
  <sodipodi:namedview
     pagecolor="#ffffff"
     bordercolor="#666666"
     borderopacity="1"
     objecttolerance="10"
     gridtolerance="10"
     guidetolerance="10"
     inkscape:pageopacity="0"
     inkscape:pageshadow="2"
     inkscape:window-width="1428"
     inkscape:window-height="863"
     id="namedview2987"
     showgrid="false"
     inkscape:zoom="12.97099"
     inkscape:cx="16.195085"
     inkscape:cy="16"
     inkscape:window-x="1448"
     inkscape:window-y="25"
     inkscape:window-maximized="0"
     inkscape:current-layer="svg2985" />
  <g
     id="g3870">
    <path
       transform="matrix(1.140845,0,0,0.86567159,-2.7733281,1.8030462)"
       d="m 18.916524,16.872232 a 1.9352641,1.8262351 0 1 1 -3.870528,0 1.9352641,1.8262351 0 1 1 3.870528,0 z"
       sodipodi:ry="1.8262351"
       sodipodi:rx="1.9352641"
       sodipodi:cy="16.872232"
       sodipodi:cx="16.98126"
       id="path3828"
       style="fill:#dcc7ba;fill-opacity:1;stroke:none"
       sodipodi:type="arc" />
    <path
       sodipodi:nodetypes="csssssssssssssc"
       inkscape:connector-curvature="0"
       inkscape:original-d="m 19.461669,16.626917 c 4.088586,0.327087 0.163544,1.471891 2.780239,0.218058 2.616695,-1.253834 1.744463,0.872231 3.65247,-1.68995 1.908007,-2.56218 0.109029,-0.05451 2.398637,-2.07155 2.289609,-2.017036 2.795472,0.371648 2.18058,-2.344122 C 29.819421,7.8500852 32.109029,9.8671209 29.92845,8.3407155 27.747871,6.81431 29.655877,7.6865417 27.638842,6.1056218 25.621806,4.5247019 27.420784,5.5059625 25.294719,4.8517888 23.168654,4.197615 24.889815,2.7616333 22.950596,4.4156729 21.097104,5.9965928 22.187394,3.4344122 21.424191,6.1056218 c -0.763203,2.6712095 0.109028,0.5451448 -0.817718,2.7802385 -0.926746,2.2350937 -0.454272,0.01811 -1.090289,2.5621807 -0.545145,2.18058 -0.817717,0.436116 -0.599659,2.453151 0.218058,2.017036 -0.490631,1.908007 0,2.18058 0.49063,0.272572 0.545144,0.545145 0.545144,0.545145 z"
       inkscape:path-effect="#path-effect3769"
       id="path3767"
       d="m 19.461669,16.626917 c 0.893847,0.283624 1.853103,0.35886 2.780239,0.218058 1.341214,-0.203687 2.58666,-0.850669 3.65247,-1.68995 0.830207,-0.653754 1.563075,-1.424653 2.398637,-2.07155 0.430505,-0.3333 0.888073,-0.633543 1.289222,-1.00165 0.401149,-0.368107 0.749668,-0.816784 0.891358,-1.342472 0.109891,-0.407712 0.08931,-0.8440043 -0.01818,-1.2523544 C 30.34792,9.0786485 30.156175,8.6963085 29.92845,8.3407155 29.349012,7.4359217 28.536145,6.6965935 27.638842,6.1056218 26.898113,5.617771 26.098689,5.2263691 25.294719,4.8517888 24.925603,4.6798127 24.552286,4.5101189 24.156914,4.4126337 c -0.395372,-0.097485 -0.81802,-0.1196292 -1.206318,0.00304 -0.374364,0.1182667 -0.699336,0.3664565 -0.950265,0.6684009 -0.250929,0.3019444 -0.431948,0.6563844 -0.57614,1.021548 -0.354988,0.899004 -0.495186,1.8690863 -0.817718,2.7802385 -0.309852,0.875331 -0.784153,1.6855437 -1.090289,2.5621807 -0.277722,0.795272 -0.412535,1.631828 -0.599659,2.453151 -0.08273,0.363128 -0.176205,0.726074 -0.202006,1.097612 -0.0258,0.371539 0.02046,0.757782 0.202006,1.082968 0.126879,0.227261 0.317883,0.418265 0.545144,0.545145"
       style="opacity:0.97000002;fill:url(#linearGradient3868);fill-opacity:1;stroke:none" />
    <path
       sodipodi:nodetypes="csssssssssssssc"
       inkscape:connector-curvature="0"
       inkscape:original-d="m 17.57152,18.819191 c 0.952364,3.989553 -1.811589,1.007467 0.18948,3.108635 2.00107,2.10117 -0.613059,2.01154 2.413327,3.034403 3.026384,1.022867 0.57616,-0.240237 3.202011,1.31401 2.625842,1.554248 0.510389,2.773497 2.903227,1.349481 2.545706,-1.51499 1.334919,1.285856 2.112781,-1.259684 0.777866,-2.545538 0.537927,-0.461383 1.418173,-2.868228 0.880249,-2.406847 0.502926,-0.392691 0.468092,-2.616849 -0.03483,-2.22416 1.862733,-1.030981 -0.309603,-2.364162 -2.076304,-1.274245 0.860938,-1.683247 -1.915379,-1.583647 -2.776313,0.0996 12.971157,-23.2289312 -2.678794,0.408527 -1.335747,2.017494 -0.539203,-0.09935 -3.155298,0.08192 -2.242313,0.155372 -0.940031,-1.242587 -2.790962,-0.411903 -1.850932,0.830684 -1.693665,0.722648 -1.801284,1.273495 -0.107618,0.550846 -0.05577,0.534 -0.05577,0.534002 z"
       inkscape:path-effect="#path-effect3769-4"
       id="path3767-0"
       d="m 17.57152,18.819191 c -0.20472,1.02951 -0.138763,2.111611 0.18948,3.108635 0.413464,1.255879 1.262483,2.383448 2.413327,3.034403 1.005615,0.568809 2.188415,0.759548 3.202011,1.31401 0.475368,0.260038 0.905227,0.595751 1.372117,0.87072 0.466891,0.274968 0.989432,0.492174 1.53111,0.478761 0.423314,-0.01048 0.835627,-0.163278 1.190977,-0.393562 0.35535,-0.230284 0.656967,-0.53572 0.921804,-0.866122 0.671332,-0.837532 1.115123,-1.838516 1.418173,-2.868228 0.250689,-0.851802 0.409734,-1.730844 0.468092,-2.616849 0.05277,-0.801103 0.01802,-1.631216 -0.309603,-2.364162 -0.175829,-0.393352 -0.434888,-0.751036 -0.763732,-1.02943 -0.328844,-0.278393 -0.727939,-0.476031 -1.151647,-0.554217 -0.448013,-0.08267 -0.910945,-0.03193 -1.356073,0.06509 -0.445128,0.09701 -0.879124,0.239647 -1.322721,0.343438 -1.031572,0.241363 -2.112523,0.269049 -3.155298,0.08192 -0.929573,-0.166815 -1.850988,-0.503447 -2.790962,-0.411903 -0.388391,0.03783 -0.773827,0.15169 -1.099964,0.365962 -0.326137,0.214273 -0.589669,0.533618 -0.70132,0.907533 -0.0515,0.172481 -0.07052,0.354601 -0.05577,0.534002"
       style="opacity:0.97000002;fill:url(#linearGradient3860);fill-opacity:1;stroke:none" />
    <path
       sodipodi:nodetypes="csssssssssssssc"
       inkscape:connector-curvature="0"
       inkscape:original-d="m 13.844187,17.909663 c -3.499993,2.138592 -1.021586,-0.942365 -2.401552,1.610061 -1.379966,2.552428 -2.1362246,-0.06515 -2.1738206,3.1292 -0.0376,3.194345 -0.05617,0.108184 -0.722913,3.085803 -0.666748,2.977614 -2.480033,1.342467 -0.386286,3.178146 2.2275066,1.952953 -0.810409,1.666935 1.8509156,1.62011 2.661324,-0.04682 0.60503,0.369024 3.166086,0.462432 2.561059,0.09341 0.528884,0.356963 2.63342,-0.363469 2.104537,-0.720432 1.556137,1.452974 2.152779,-1.025016 0.570265,-2.368446 1.194212,0.345261 0.241559,-2.264395 -0.952652,-2.609653 -0.408631,-0.376948 -0.972635,-2.729903 -0.564001,-2.352957 0.847499,0.15445 -0.133319,-2.277588 -0.840681,-2.084554 1.386465,-1.378612 0.02447,-2.882256 -1.361997,-1.503646 -1.106171,-1.722968 -1.663314,-1.655099 -0.557142,0.06787 -1.615389,0.111974 -1.615389,0.111974 z"
       inkscape:path-effect="#path-effect3769-9"
       id="path3767-4"
       d="m 13.844187,17.909663 c -0.87207,0.418049 -1.683606,0.962123 -2.401552,1.610061 -0.952711,0.85981 -1.7476165,1.918712 -2.1738206,3.1292 -0.3511158,0.997226 -0.4443151,2.065938 -0.722913,3.085803 -0.1433363,0.524712 -0.335762,1.036487 -0.4455321,1.569234 -0.10977,0.532746 -0.1327065,1.09997 0.059246,1.608912 0.1490772,0.395263 0.4221923,0.736728 0.7495088,1.003787 0.3273166,0.267058 0.7077856,0.462965 1.1014068,0.616323 1.001061,0.390022 2.092834,0.511126 3.166086,0.462432 0.886054,-0.0402 1.762971,-0.193097 2.63342,-0.363469 0.399514,-0.0782 0.801004,-0.160952 1.177975,-0.314637 0.376971,-0.153686 0.731766,-0.383792 0.974804,-0.710379 0.234623,-0.31528 0.353875,-0.706885 0.380176,-1.099005 0.0263,-0.39212 -0.03635,-0.785928 -0.138617,-1.16539 -0.251573,-0.933475 -0.739739,-1.791594 -0.972635,-2.729903 -0.18407,-0.741593 -0.203666,-1.516737 -0.133319,-2.277588 0.04458,-0.4822 0.124779,-0.960924 0.156776,-1.444123 0.032,-0.483199 0.01436,-0.976619 -0.132306,-1.438133 -0.123325,-0.388075 -0.337916,-0.747527 -0.625182,-1.036126 -0.287267,-0.288599 -0.647086,-0.505419 -1.038132,-0.618973 -0.529193,-0.15367 -1.11246,-0.11324 -1.61539,0.111974"
       style="opacity:0.97000002;fill:url(#linearGradient3852);fill-opacity:1;stroke:none" />
    <path
       sodipodi:nodetypes="csssssssssssssc"
       inkscape:connector-curvature="0"
       inkscape:original-d="m 14.17886,14.509451 c -3.115479,-2.66783 0.580555,-1.262792 -2.27338,-1.786475 -2.8539359,-0.523682 -0.598171,-2.051802 -3.6477929,-1.10045 -3.049622,0.951347 -0.120246,-0.01999 -3.158165,0.266034 -3.037916,0.286018 -2.043135,-1.9438055 -3.141966,0.614721 -1.169031,2.721981 -1.835779,-0.255633 -0.968852,2.260967 0.866926,2.5166 -0.163998,0.689452 0.538576,3.154026 0.702575,2.464576 -0.176058,0.613306 1.159451,2.392213 1.335509,1.778908 -0.900988,1.928968 1.640093,1.730667 2.428748,-0.189536 0.04067,1.242455 2.228214,-0.47 2.187542,-1.712453 0.232225,-0.505115 2.295731,-1.768617 2.0635089,-1.263501 0.3236445,0.57945 2.3335609,-1.104905 1.722744,-1.443697 1.081432,0.836505 2.090603,-0.923481 1.009172,-1.759989 1.409399,-2.291 1.172685,-2.799903 -0.236715,-0.5089 -0.268758,-0.464797 -0.268758,-0.464797 z"
       inkscape:path-effect="#path-effect3769-8"
       id="path3767-8"
       d="M 14.17886,14.509451 C 13.511787,13.809248 12.743563,13.20556 11.90548,12.722976 10.793348,12.08259 9.5406339,11.653807 8.2576871,11.622526 c -1.0569184,-0.02577 -2.1021244,0.215845 -3.158165,0.266034 -0.543325,0.02582 -1.0895158,9.58e-4 -1.6301092,0.06119 -0.5405935,0.06023 -1.0871448,0.213699 -1.5118568,0.553535 -0.3298446,0.263927 -0.5701912,0.629197 -0.7230292,1.023019 -0.1528381,0.393822 -0.2215872,0.816204 -0.2458228,1.237948 -0.0616368,1.072595 0.1604265,2.148411 0.538576,3.154026 0.3121868,0.8302 0.7289232,1.616753 1.159451,2.392213 0.1976427,0.355991 0.4000691,0.712568 0.6626548,1.023761 0.2625857,0.311193 0.5913604,0.577537 0.9774382,0.706906 0.3723715,0.124776 0.7813132,0.115655 1.1619684,0.01906 0.3806552,-0.0966 0.7355521,-0.277227 1.0662456,-0.489056 0.8139236,-0.521366 1.491918,-1.231794 2.295731,-1.768617 0.7174987,-0.479178 1.5222369,-0.811358 2.3335609,-1.104905 0.718383,-0.25992 1.456774,-0.49699 2.090603,-0.923481 0.453642,-0.305247 0.849562,-0.711434 1.081687,-1.206494 0.232126,-0.49506 0.288463,-1.083532 0.091,-1.593409 -0.06489,-0.167558 -0.155911,-0.324968 -0.268758,-0.464797"
       style="opacity:0.97000002;fill:url(#linearGradient3844);fill-opacity:1;stroke:none" />
    <path
       sodipodi:nodetypes="csssssssssssssc"
       inkscape:connector-curvature="0"
       inkscape:original-d="m 17.538252,14.470149 c 1.574521,-3.787401 1.925532,0.925119 1.541669,-1.950961 C 18.696058,9.6431069 20.301312,10.553049 18.45414,7.9466696 16.606968,5.3402896 18.43599,7.8261323 17.225198,5.0252858 16.01441,2.2244408 18.442504,2.4814804 15.669641,2.2270584 12.719633,1.956382 15.345476,0.40213378 13.219942,2.0043023 11.094409,3.60647 12.513556,2.0613843 10.386714,3.4911661 8.2598724,4.9209502 9.7490214,3.5132461 8.4698754,5.3331038 7.1907284,7.152961 6.3568964,5.0722968 7.3307304,7.4277301 c 0.930783,2.2513067 -1.169077,0.422622 1.135552,1.9739203 2.3046276,1.5512976 0.552155,0.064767 2.3914746,1.6368366 1.83932,1.57207 -0.123154,0.437635 2.099861,1.828684 1.905395,1.1923 -0.11049,1.239549 1.875208,1.655462 1.9857,0.415913 1.935582,0.729137 2.346428,0.346749 0.410844,-0.382387 0.358998,-0.399233 0.358998,-0.399233 z"
       inkscape:path-effect="#path-effect3769-2"
       id="path3767-45"
       d="m 17.538252,14.470149 c 0.718554,-0.445944 1.273936,-1.148774 1.541669,-1.950961 0.249174,-0.746582 0.250944,-1.559568 0.108382,-2.333615 C 19.04574,9.4115268 18.763955,8.6701934 18.45414,7.9466696 18.038153,6.9751974 17.568332,6.0248168 17.225198,5.0252858 17.048276,4.5099223 16.904916,3.9812389 16.677306,3.4861688 16.449695,2.9910988 16.127249,2.5228548 15.669641,2.2270584 15.315138,1.9979091 14.894139,1.8830361 14.472717,1.8588442 14.051295,1.8346523 13.628479,1.8980982 13.219942,2.0043023 12.180017,2.2746436 11.225787,2.8199833 10.386714,3.4911661 9.6941028,4.0451929 9.0750267,4.6846843 8.4698754,5.3331038 8.191976,5.6308729 7.9147959,5.9332331 7.6997207,6.2791192 7.4846455,6.6250052 7.3330679,7.0204353 7.3307304,7.4277301 c -0.00225,0.3923042 0.1347874,0.7772152 0.3447259,1.1086265 0.2099386,0.3314113 0.4903616,0.6130465 0.7908261,0.8652938 0.7402896,0.6214916 1.6054866,1.0742506 2.3914746,1.6368366 0.7555,0.540764 1.434288,1.180442 2.099861,1.828684 0.598019,0.582447 1.1913,1.176775 1.875208,1.655462 0.345744,0.241996 0.720563,0.456091 1.132836,0.546272 0.206136,0.04509 0.4202,0.05831 0.628988,0.02776 0.208788,-0.03055 0.412198,-0.105627 0.584604,-0.227288 0.147455,-0.104054 0.271134,-0.241594 0.358998,-0.399233"
       style="opacity:0.97000002;fill:url(#linearGradient3836);fill-opacity:1;stroke:none" />
  </g>
</svg>
