<svg id="Ebene_1" data-name="Ebene 1" xmlns="http://www.w3.org/2000/svg" viewBox="0 0 512 512"><defs><style>.cls-1{fill-rule:evenodd;}</style></defs><title>point_capturingSVG</title><path class="cls-1" d="M26,255.35C29.67,43,236,84.25,236,84.25L364.9,110.51l18.48,66.42,23.22,12.85.7-70.4L485,131.45V207S352.85,184.55,237.21,168s-114.45,87.32-114.45,87.32m-96.76,0C26,464.2,236,426.69,236,426.69l249-46.95V304.23s-33.36,4.42-72.84,10.79c-2.91.47,1.11,76.95-1.93,77.44-1,.17-24.6-12.74-24.6-12.74s-15.77-57.08-18-56.73c-47,7.51-74.18,11.89-130.47,19.93-115.64,16.52-114.45-87.57-114.45-87.57"/></svg>