<svg id="redo" xmlns="http://www.w3.org/2000/svg" viewBox="0 0 24 24"><defs><style>.cls-1{fill:none;stroke:#fff;stroke-linecap:round;stroke-miterlimit:10;}.cls-2{fill:#fff;}</style></defs><title>redo</title><polygon class="cls-1" points="22.5 6 22.5 16.5 12 16.5 22.5 6"/><path class="cls-2" d="M.4,15.6l4,1.4c1.05-3.19,3.56-5.8,7.1-5.8a6.25,6.25,0,0,1,4,1.3L12,16l10-1V6L18.4,9.6a10.23,10.23,0,0,0-6.9-2.3A11.31,11.31,0,0,0,.4,15.6Z"/><path d="M18.4,10.6A10.47,10.47,0,0,0,1.54,15.22L3.9,16a8,8,0,0,1,12.72-3.62L13,16h9V7Z"/></svg>