<svg xmlns="http://www.w3.org/2000/svg" id="redo" viewBox="0 0 24 24" width="24" height="24"><defs><style>.cls-1{fill:none;stroke:#fff;stroke-linecap:round;stroke-miterlimit:10}.cls-2{fill:#fff}</style></defs><path d="M22.5 6v10.5H12L22.5 6z" class="cls-1"/><path d="M.4 15.6l4 1.4c1.05-3.19 3.56-5.8 7.1-5.8a6.25 6.25 0 0 1 4 1.3L12 16l10-1V6l-3.6 3.6a10.23 10.23 0 0 0-6.9-2.3A11.31 11.31 0 0 0 .4 15.6z" class="cls-2"/><path d="M18.4 10.6a10.47 10.47 0 0 0-16.86 4.62L3.9 16a8 8 0 0 1 12.72-3.62L13 16h9V7z"/></svg>