<svg id="settings_border_Kopie" data-name="settings_border Kopie" xmlns="http://www.w3.org/2000/svg" viewBox="0 0 24 24"><defs><style>.cls-1{stroke:#fff;stroke-miterlimit:10;stroke-width:0.5px;}</style></defs><title>Zeichenfläche 1</title><path class="cls-1" d="M19.77,13.05c0-.32.11-.63.11-1.05A3.24,3.24,0,0,0,19.77,11L22,9.27c.21-.11.21-.42.11-.63L20,5a.51.51,0,0,0-.63-.21L16.73,5.8a10,10,0,0,0-1.79-1.05l-.42-2.84c.11-.21-.21-.42-.42-.42H9.89c-.21,0-.53.21-.53.42L8.95,4.75A7.93,7.93,0,0,0,7.16,5.8L4.53,4.75c-.21-.11-.42,0-.63.21L1.8,8.64c-.11.11,0,.42.21.63L4.22,11c0,.32-.11.63-.11,1.05a3.24,3.24,0,0,0,.11,1.05L2,14.74c-.21.11-.21.42-.11.63L4,19a.47.47,0,0,0,.63.21L7.27,18.2a10,10,0,0,0,1.79,1.05L9.47,22a.48.48,0,0,0,.53.42h4.2c.21,0,.53-.21.53-.42l.42-2.73a6.15,6.15,0,0,0,1.79-1.05l2.63,1.05a.51.51,0,0,0,.63-.21l2.1-3.68c.11-.21.11-.53-.11-.63ZM12,15.68A3.68,3.68,0,1,1,15.68,12,3.72,3.72,0,0,1,12,15.68Z"/></svg>