<svg xmlns="http://www.w3.org/2000/svg" viewBox="0 0 24 24" width="24" height="24"><defs><style>.cls-1{fill:none;stroke:#fff;stroke-linecap:round;stroke-miterlimit:10}.cls-2{fill:#fff}</style></defs><g id="settings_border"><circle cx="12" cy="12" r="3" class="cls-1"/><circle cx="12" cy="12" r="8" class="cls-1"/></g><path id="eck" d="M20.17 13.08a8.57 8.57 0 0 0 .08-1.08 8.57 8.57 0 0 0-.08-1.08l2.32-1.81a.55.55 0 0 0 .13-.7L20.43 4.6a.55.55 0 0 0-.67-.24L17 5.46a8 8 0 0 0-1.86-1.08l-.42-2.92A.54.54 0 0 0 14.2 1H9.8a.54.54 0 0 0-.54.46l-.42 2.92A8.45 8.45 0 0 0 7 5.45l-2.75-1.1a.54.54 0 0 0-.67.24L1.37 8.4a.54.54 0 0 0 .13.7l2.32 1.81A8.72 8.72 0 0 0 3.75 12a8.72 8.72 0 0 0 .08 1.08l-2.32 1.81a.55.55 0 0 0-.13.7l2.2 3.81a.55.55 0 0 0 .67.24L7 18.54a8 8 0 0 0 1.86 1.08l.42 2.91a.54.54 0 0 0 .52.47h4.4a.54.54 0 0 0 .54-.46l.42-2.91A8.45 8.45 0 0 0 17 18.54l2.74 1.1a.54.54 0 0 0 .67-.24l2.2-3.81a.55.55 0 0 0-.13-.7zM12 15.85A3.85 3.85 0 1 1 15.85 12 3.85 3.85 0 0 1 12 15.85z" class="cls-2"/><path id="gear" d="M19.43 13a7.79 7.79 0 0 0 .07-1 7.79 7.79 0 0 0-.07-1l2.11-1.65a.5.5 0 0 0 .12-.64l-2-3.46a.5.5 0 0 0-.61-.22l-2.49 1a7.31 7.31 0 0 0-1.69-1l-.38-2.65A.49.49 0 0 0 14 2h-4a.49.49 0 0 0-.49.42l-.38 2.65a7.68 7.68 0 0 0-1.69 1l-2.49-1a.49.49 0 0 0-.61.22l-2 3.46a.49.49 0 0 0 .12.64L4.57 11a7.93 7.93 0 0 0-.07 1 7.93 7.93 0 0 0 .07 1l-2.11 1.63a.5.5 0 0 0-.12.64l2 3.46a.5.5 0 0 0 .61.22l2.49-1a7.31 7.31 0 0 0 1.69 1l.38 2.65a.49.49 0 0 0 .49.4h4a.49.49 0 0 0 .49-.42l.38-2.65a7.68 7.68 0 0 0 1.69-1l2.49 1a.49.49 0 0 0 .61-.22l2-3.46a.5.5 0 0 0-.12-.64zM12 15.5a3.5 3.5 0 1 1 3.5-3.5 3.5 3.5 0 0 1-3.5 3.5z"/></svg>