<svg xmlns="http://www.w3.org/2000/svg" viewBox="0 0 24 24" width="24" height="24"><defs><style>.cls-1{fill:none;stroke:#fff;stroke-linecap:round;stroke-miterlimit:10}.cls-2{fill:#fff}</style></defs><path id="undo_help" d="M1.5 6v10.5H12L1.5 6z" class="cls-1"/><path id="Ebene_31" d="M12.5 7.3a10.23 10.23 0 0 0-6.9 2.3L2 6v9l10 1-3.5-3.5a6.25 6.25 0 0 1 4-1.3c3.54 0 6 2.61 7.1 5.8l4-1.4a11.31 11.31 0 0 0-11.1-8.3z" class="cls-2"/><path id="undo" d="M12.5 8a10.46 10.46 0 0 0-6.9 2.6L2 7v9h9l-3.62-3.62A8 8 0 0 1 20.1 16l2.37-.78A10.51 10.51 0 0 0 12.5 8z"/></svg>