<svg xmlns="http://www.w3.org/2000/svg" viewBox="0 0 24 24"><defs><style>.cls-1{fill:none;stroke:#fff;stroke-linecap:round;stroke-miterlimit:10;}.cls-2{fill:#fff;}</style></defs><title>undo</title><g id="undo_help"><polygon class="cls-1" points="1.5 6 1.5 16.5 12 16.5 1.5 6"/></g><g id="Ebene_31" data-name="Ebene 31"><path class="cls-2" d="M12.5,7.3A10.23,10.23,0,0,0,5.6,9.6L2,6v9l10,1L8.5,12.5a6.25,6.25,0,0,1,4-1.3c3.54,0,6,2.61,7.1,5.8l4-1.4A11.31,11.31,0,0,0,12.5,7.3Z"/></g><g id="undo"><path d="M12.5,8a10.46,10.46,0,0,0-6.9,2.6L2,7v9h9L7.38,12.38A8,8,0,0,1,20.1,16l2.37-.78A10.51,10.51,0,0,0,12.5,8Z"/></g></svg>