<svg xmlns="http://www.w3.org/2000/svg" height="24px" viewBox="0 0 24 24" width="24px" >
<path d="M0 0h24v24H0V0z" fill="none"/>
<path d="M6.5,7.5v1.5h1.1V7.5h1.5V6.5H7.5C6.9,6.5,6.5,6.9,6.5,7.5z M7.5,10.9H6.5v1.5c0,0.7,0.4,1.1,1.1,1.1h1.5v-0.9H7.5V10.9z
	 M12.5,12.5h-1.6v1.1h1.5c0.7,0,1.1-0.4,1.1-1.1v-1.6h-0.9V12.5z M12.5,6.5h-1.6v1.1h1.5v1.5h1.1V7.5C13.5,6.9,13.1,6.5,12.5,6.5z"
	/>
<path d="M17.1,15.5h-0.8L16,15.3c1.2-1.5,2-3.2,2-5.3c0-4.4-3.6-8-8-8s-8,3.6-8,8s3.6,8,8,8c2,0,3.9-0.8,5.3-2l0.3,0.3v0.8l4.1,4.1
	l1.5-1.5L17.1,15.5z M10,16c-3.3,0-6-2.7-6-6s2.7-6,6-6s6,2.7,6,6S13.3,16,10,16z"/>
</svg>
