<svg xmlns="http://www.w3.org/2000/svg" height="18px" viewBox="0 0 18 18" width="18px" >
<path d="M0 0h18v18H0V0z" fill="none"/>
<path d="M4.9 5.6v1.1h0.8V5.6h1.1V4.9H5.6C5.2 4.9 4.9 5.2 4.9 5.6z M5.6 8.2H4.9v1.1c0 0.5 0.3 0.8 0.8 0.8h1.1V9.4H5.6V8.2z
	 M9.4 9.4H8.2v0.8h1.1c0.5 0 0.8-0.3 0.8-0.8V8.2H9.4V9.4z M9.4 4.9H8.2v0.8h1.1v1.1h0.8V5.6C10.1 5.2 9.8 4.9 9.4 4.9z"/>
<path d="M12.8 11.6h-0.6L12 11.5c0.9-1.1 1.5-2.4 1.5-4c0-3.3-2.7-6-6-6s-6 2.7-6 6s2.7 6 6 6c1.5 0 2.9-0.6 4-1.5l0.2 0.2v0.6
	l3.1 3.1l1.1-1.1L12.8 11.6z M7.5 12C5 12 3 10 3 7.5S5 3 7.5 3S12 5 12 7.5S10 12 7.5 12z"/>
</svg>
