<svg xmlns="http://www.w3.org/2000/svg" width="24" height="24"><path fill="none" d="M0 0h24v24H0V0z"/><path d="M6.5 7.5V9h1.1V7.5h1.5v-1H7.5c-.6 0-1 .4-1 1zm1 3.4h-1v1.5c0 .7.4 1.1 1.1 1.1h1.5v-.9H7.5v-1.7zm5 1.6h-1.6v1.1h1.5c.7 0 1.1-.4 1.1-1.1v-1.6h-.9v1.6zm0-6h-1.6v1.1h1.5v1.5h1.1V7.5c0-.6-.4-1-1-1z"/><path d="M17.1 15.5h-.8l-.3-.2c1.2-1.5 2-3.2 2-5.3 0-4.4-3.6-8-8-8s-8 3.6-8 8 3.6 8 8 8c2 0 3.9-.8 5.3-2l.3.3v.8l4.1 4.1 1.5-1.5-4.1-4.2zM10 16c-3.3 0-6-2.7-6-6s2.7-6 6-6 6 2.7 6 6-2.7 6-6 6z"/></svg>