<svg xmlns="http://www.w3.org/2000/svg" xmlns:xlink="http://www.w3.org/1999/xlink" width="512" height="512" viewBox="0 0 512 512"><defs><path d="M485 440.24c0 24.72-20.04 44.76-44.76 44.76H71.76C47.04 485 27 464.96 27 440.24V71.76C27 47.04 47.04 27 71.76 27h368.48C464.96 27 485 47.04 485 71.76v368.48z" id="H"/></defs><clipPath id="I"><use height="512" width="512" xlink:href="#H" overflow="visible"/></clipPath><g clip-path="url(#I)"><path fill="#99f" d="M0 0h150v512H0z"/><path d="M360.488 347.088h-56.055l-39.307-62.55-36.572 62.55h-52.637l62.55-93.652-56.397-81.348h55.713l34.52 51.61 29.737-51.61h52.295l-55.03 81.348 61.183 93.652zM512 239.947H376.174V219.38H512v20.567zM512 301H376.174v-20.895H512V301z" fill="#666"/></g></svg>