<svg xmlns="http://www.w3.org/2000/svg" viewBox="0 0 20 20" width="20" height="20"><g transform="translate(.076 .076) scale(.03906)"><circle r="123" cy="336" cx="175" fill="#99f"/><path d="M119.667 343.388L302.333 27 485 343.388" fill="#666"/><path d="M169.117 314.838L302.333 84.1 435.55 314.84" fill="#99f"/><path d="M148.944 327l73.39-124.494C279.764 229.49 311.28 269.72 309.436 327H148.944z" fill="#6161ff"/><path d="M175 486c-82.843 0-150-67.157-150-150s67.157-150 150-150 150 67.157 150 150-67.157 150-150 150zm123-150c0-67.93-55.07-123-123-123S52 268.07 52 336s55.07 123 123 123 123-55.07 123-123z" fill="#666"/><path d="M324.82 343.388H119.668l88.715-153.66a148.745 148.745 0 0 1 27.647 9.208c46.263 20.63 80.16 63.997 87.49 115.9a151.506 151.506 0 0 1 1.3 28.552zM222.44 222.48l-53.323 92.358h127.07c-7.254-41.825-35.63-76.406-73.742-92.354" fill="#333"/><path d="M486.92 174.465h-88.727v-18.9a60878.133 60878.133 0 0 0 41.08-45.855c10.146-11.34 17.24-20.093 21.286-26.26 4.042-6.167 6.066-11.57 6.066-16.214 0-8.884-1.725-15.418-5.172-19.595-3.45-4.176-9.22-6.265-17.308-6.265-7.162 0-12.533 2.058-16.114 6.167-3.58 4.113-5.903 10.678-6.963 19.696h-20.69c2.12-28.514 16.71-42.772 43.766-42.772 13.394 0 23.873 4.078 31.432 12.235 7.56 8.157 11.34 17.407 11.34 27.75 0 3.185-.268 6.104-.797 8.755-.53 2.655-1.392 5.47-2.585 8.455-1.194 2.983-2.82 6.067-4.875 9.25-2.058 3.183-4.644 6.798-7.76 10.842-3.117 4.047-6.796 8.455-11.04 13.23-4.245 4.774-9.185 10.344-14.82 16.71-5.64 6.366-12.036 13.397-19.198 21.088-2.257 2.52-3.98 4.445-5.172 5.77h66.247v15.915z" fill="#666"/></g></svg>