<?xml version="1.0" encoding="UTF-8" standalone="no"?>
<!-- Created with Inkscape (http://www.inkscape.org/) -->

<svg
   xmlns:dc="http://purl.org/dc/elements/1.1/"
   xmlns:cc="http://creativecommons.org/ns#"
   xmlns:rdf="http://www.w3.org/1999/02/22-rdf-syntax-ns#"
   xmlns:svg="http://www.w3.org/2000/svg"
   xmlns="http://www.w3.org/2000/svg"
   xmlns:sodipodi="http://sodipodi.sourceforge.net/DTD/sodipodi-0.dtd"
   xmlns:inkscape="http://www.inkscape.org/namespaces/inkscape"
   id="svg2985"
   version="1.1"
   inkscape:version="0.48.2 r9819"
   width="512"
   height="512"
   sodipodi:docname="derivative.svg">
  <metadata
     id="metadata2991">
    <rdf:RDF>
      <cc:Work
         rdf:about="">
        <dc:format>image/svg+xml</dc:format>
        <dc:type
           rdf:resource="http://purl.org/dc/dcmitype/StillImage" />
        <dc:title />
      </cc:Work>
    </rdf:RDF>
  </metadata>
  <defs
     id="defs2989" />
  <sodipodi:namedview
     pagecolor="#ffffff"
     bordercolor="#666666"
     borderopacity="1"
     objecttolerance="10"
     gridtolerance="10"
     guidetolerance="10"
     inkscape:pageopacity="0"
     inkscape:pageshadow="2"
     inkscape:window-width="1013"
     inkscape:window-height="782"
     id="namedview2987"
     showgrid="false"
     inkscape:snap-smooth-nodes="true"
     inkscape:zoom="1.0175781"
     inkscape:cx="249.42802"
     inkscape:cy="251.75025"
     inkscape:window-x="1494"
     inkscape:window-y="78"
     inkscape:window-maximized="0"
     inkscape:current-layer="svg2985" />
  <g
     transform="matrix(21.388492,0,-0.14419047,18.132579,-49.364399,-58.185466)"
     style="font-size:20.95134163px;font-style:normal;font-variant:normal;font-weight:normal;font-stretch:normal;line-height:125%;letter-spacing:0px;word-spacing:0px;fill:#000000;fill-opacity:1;stroke:none;font-family:FreeUniversal;-inkscape-font-specification:FreeUniversal"
     id="text3801">
    <path
       d="m 19.38233,16.626872 c -1.1e-5,0.313733 -0.01365,0.675198 -0.04092,1.084396 -0.02729,0.409213 -0.08867,0.913899 -0.184143,1.514061 -0.09549,0.600174 -0.221663,1.183292 -0.378515,1.749356 -0.156872,0.566071 -0.375115,1.142369 -0.654729,1.728895 -0.279634,0.58653 -0.596768,1.094627 -0.951404,1.524291 -0.354653,0.429667 -0.804779,0.780902 -1.35038,1.053706 -0.545614,0.272803 -1.145782,0.409205 -1.800506,0.409206 -1.200341,-1e-6 -2.192664,-0.409206 -2.976972,-1.227618 -0.784313,-0.81841 -1.1764684,-1.705022 -1.1764673,-2.659838 -1.1e-6,-0.845688 0.1091204,-1.599308 0.3273643,-2.260863 0.218242,-0.661543 0.491046,-1.17987 0.818412,-1.554982 0.327362,-0.375098 0.695647,-0.688822 1.104856,-0.941174 0.409202,-0.252335 0.780897,-0.419427 1.115086,-0.501277 0.33418,-0.08183 0.651314,-0.122753 0.951404,-0.122762 0.613803,9e-6 1.118489,0.09549 1.514062,0.286444 0.395558,0.190971 0.988906,0.593357 1.780045,1.207158 0.122753,-0.600161 0.197774,-1.445852 0.225063,-2.537077 0.01363,-0.586518 -0.04093,-1.176456 -0.163682,-1.769815 -0.12277,-0.593337 -0.317143,-1.176455 -0.583118,-1.749356 -0.265992,-0.572874 -0.654737,-1.04005 -1.166237,-1.40153 -0.511514,-0.36145 -1.101452,-0.5421823 -1.769816,-0.5421976 -0.477411,1.53e-5 -0.886617,0.061396 -1.227617,0.1841426 -0.341009,0.122777 -0.750214,0.300099 -1.227618,0.531968 L 10.707165,9.5476101 c 1.009371,-0.42283 1.930084,-0.6342528 2.76214,-0.6342691 0.750205,1.63e-5 1.432214,0.122778 2.046029,0.3682853 0.613802,0.2455392 1.118488,0.5558534 1.514062,0.9309437 0.395557,0.37512 0.746792,0.821836 1.053705,1.340149 0.306895,0.518341 0.538778,1.016207 0.69565,1.493602 0.156852,0.477418 0.283024,0.975285 0.378515,1.493601 0.09547,0.518338 0.156852,0.934363 0.184143,1.248078 0.02727,0.313734 0.04091,0.593357 0.04092,0.838872 z m -2.06649,2.06649 c -0.190971,-0.190956 -0.368294,-0.388739 -0.531968,-0.593349 -0.16369,-0.204595 -0.412623,-0.392148 -0.746801,-0.562658 -0.334191,-0.170494 -0.705886,-0.255746 -1.115086,-0.255754 -0.982099,8e-6 -1.759589,0.508105 -2.332473,1.524292 -0.572892,1.0162 -0.859335,2.076725 -0.859333,3.181576 -2e-6,0.286447 0.02046,0.569481 0.06138,0.849102 0.04092,0.279627 0.122759,0.603581 0.245524,0.971864 0.122758,0.368287 0.337591,0.664961 0.644499,0.890023 0.3069,0.225064 0.685416,0.337595 1.135547,0.337595 0.518321,0 0.985498,-0.184142 1.40153,-0.552428 0.416019,-0.368284 0.760434,-0.876381 1.033245,-1.524292 0.272796,-0.647906 0.494449,-1.319685 0.664959,-2.015339 0.170494,-0.695645 0.303486,-1.445855 0.398976,-2.250632 z"
       id="path2984"
       inkscape:connector-curvature="0" />
  </g>
</svg>
