<?xml version="1.0" encoding="UTF-8" standalone="no"?>
<!-- Created with Inkscape (http://www.inkscape.org/) -->

<svg
   xmlns:dc="http://purl.org/dc/elements/1.1/"
   xmlns:cc="http://creativecommons.org/ns#"
   xmlns:rdf="http://www.w3.org/1999/02/22-rdf-syntax-ns#"
   xmlns:svg="http://www.w3.org/2000/svg"
   xmlns="http://www.w3.org/2000/svg"
   xmlns:sodipodi="http://sodipodi.sourceforge.net/DTD/sodipodi-0.dtd"
   xmlns:inkscape="http://www.inkscape.org/namespaces/inkscape"
   id="svg2"
   version="1.1"
   inkscape:version="0.48.2 r9819"
   width="350"
   height="354"
   sodipodi:docname="circular_arc.svg">
  <metadata
     id="metadata8">
    <rdf:RDF>
      <cc:Work
         rdf:about="">
        <dc:format>image/svg+xml</dc:format>
        <dc:type
           rdf:resource="http://purl.org/dc/dcmitype/StillImage" />
        <dc:title />
      </cc:Work>
    </rdf:RDF>
  </metadata>
  <defs
     id="defs6" />
  <sodipodi:namedview
     pagecolor="#ffffff"
     bordercolor="#666666"
     borderopacity="1"
     objecttolerance="10"
     gridtolerance="10"
     guidetolerance="10"
     inkscape:pageopacity="0"
     inkscape:pageshadow="2"
     inkscape:window-width="1280"
     inkscape:window-height="962"
     id="namedview4"
     showgrid="false"
     inkscape:zoom="2.18496"
     inkscape:cx="191.09521"
     inkscape:cy="202.9468"
     inkscape:window-x="1358"
     inkscape:window-y="-8"
     inkscape:window-maximized="1"
     inkscape:current-layer="svg2" />
  <g
     id="g3764">
    <path
       transform="matrix(0.96443415,0,0,1.0154527,55.614777,71.298059)"
       d="m 76.715099,149.80632 c 0,13.59802 -11.371483,24.6214 -25.398918,24.6214 -14.027435,0 -25.398918,-11.02338 -25.398918,-24.6214 0,-13.59802 11.371483,-24.6214 25.398918,-24.6214 14.027435,0 25.398918,11.02338 25.398918,24.6214 z"
       sodipodi:ry="24.621399"
       sodipodi:rx="25.398918"
       sodipodi:cy="149.80632"
       sodipodi:cx="51.316181"
       id="path3754-7"
       style="fill:#0000ff;fill-opacity:1;stroke:#000000;stroke-width:11.81200027000000000;stroke-miterlimit:4;stroke-opacity:1;stroke-dasharray:none"
       sodipodi:type="arc" />
    <path
       sodipodi:nodetypes="cc"
       inkscape:connector-curvature="0"
       id="path3804"
       d="M 254.46691,269.33026 C 275.57075,176.36037 234.98032,123.05997 181.23902,87.175888"
       style="fill:none;stroke:#000000;stroke-width:12.30000019;stroke-linecap:butt;stroke-linejoin:miter;stroke-miterlimit:4;stroke-opacity:1;stroke-dasharray:none" />
    <path
       transform="matrix(0.96443415,0,0,1.0154527,201.31444,124.98949)"
       d="m 76.715099,149.80632 c 0,13.59802 -11.371483,24.6214 -25.398918,24.6214 -14.027435,0 -25.398918,-11.02338 -25.398918,-24.6214 0,-13.59802 11.371483,-24.6214 25.398918,-24.6214 14.027435,0 25.398918,11.02338 25.398918,24.6214 z"
       sodipodi:ry="24.621399"
       sodipodi:rx="25.398918"
       sodipodi:cy="149.80632"
       sodipodi:cx="51.316181"
       id="path3754-7-1"
       style="fill:#0000ff;fill-opacity:1;stroke:#000000;stroke-width:11.81200027000000000;stroke-miterlimit:4;stroke-opacity:1;stroke-dasharray:none"
       sodipodi:type="arc" />
    <path
       transform="matrix(0.96443415,0,0,1.0154527,124.42515,-68.606737)"
       d="m 76.715099,149.80632 c 0,13.59802 -11.371483,24.6214 -25.398918,24.6214 -14.027435,0 -25.398918,-11.02338 -25.398918,-24.6214 0,-13.59802 11.371483,-24.6214 25.398918,-24.6214 14.027435,0 25.398918,11.02338 25.398918,24.6214 z"
       sodipodi:ry="24.621399"
       sodipodi:rx="25.398918"
       sodipodi:cy="149.80632"
       sodipodi:cx="51.316181"
       id="path3754-7-7"
       style="fill:#0000ff;fill-opacity:1;stroke:#000000;stroke-width:11.81200027000000000;stroke-miterlimit:4;stroke-opacity:1;stroke-dasharray:none"
       sodipodi:type="arc" />
  </g>
</svg>
