<?xml version="1.0" encoding="UTF-8" standalone="no"?>
<!-- Created with Inkscape (http://www.inkscape.org/) -->

<svg
   xmlns:dc="http://purl.org/dc/elements/1.1/"
   xmlns:cc="http://creativecommons.org/ns#"
   xmlns:rdf="http://www.w3.org/1999/02/22-rdf-syntax-ns#"
   xmlns:svg="http://www.w3.org/2000/svg"
   xmlns="http://www.w3.org/2000/svg"
   xmlns:xlink="http://www.w3.org/1999/xlink"
   xmlns:sodipodi="http://sodipodi.sourceforge.net/DTD/sodipodi-0.dtd"
   xmlns:inkscape="http://www.inkscape.org/namespaces/inkscape"
   id="svg2"
   version="1.1"
   inkscape:version="0.48.2 r9819"
   width="132"
   height="135"
   sodipodi:docname="mode_angle.png">
  <metadata
     id="metadata8">
    <rdf:RDF>
      <cc:Work
         rdf:about="">
        <dc:format>image/svg+xml</dc:format>
        <dc:type
           rdf:resource="http://purl.org/dc/dcmitype/StillImage" />
        <dc:title></dc:title>
      </cc:Work>
    </rdf:RDF>
  </metadata>
  <defs
     id="defs6" />
  <sodipodi:namedview
     pagecolor="#ffffff"
     bordercolor="#666666"
     borderopacity="1"
     objecttolerance="10"
     gridtolerance="10"
     guidetolerance="10"
     inkscape:pageopacity="0"
     inkscape:pageshadow="2"
     inkscape:window-width="1618"
     inkscape:window-height="1028"
     id="namedview4"
     showgrid="false"
     inkscape:zoom="3.4962963"
     inkscape:cx="76.090374"
     inkscape:cy="37.166021"
     inkscape:window-x="54"
     inkscape:window-y="-8"
     inkscape:window-maximized="1"
     inkscape:current-layer="svg2" />
  <g
     id="g3050">
    <path
       style="fill:#fcfbfb"
       d="m 0.20224466,67.5 0,-67.500000019961078 66.00000034,0 65.999995,0 L 132.20224,67.5 l 0,67.5 -65.999995,0 -66.00000034,0 0,-67.5 z"
       id="path3003"
       inkscape:connector-curvature="0" />
    <path
       sodipodi:nodetypes="csssssssssssssssssssssssscsssssssscscsssc"
       inkscape:connector-curvature="0"
       id="path3013"
       d="m 102.34583,125.38632 c -1.79439,-0.48258 -3.367116,-1.52894 -4.777504,-3.02403 -1.552953,-1.64621 -2.3562,-4.56399 -2.950321,-6.93283 -0.605597,-2.4146 0.144265,-1.58946 -1.94757,-2.5995 -1.849544,-0.89305 -5.182642,-1.54691 -22.706442,-6.44426 -23.229052,-6.491778 -31.735356,-9.044521 -32.964279,-9.044521 -0.78915,0 -0.651645,1.364342 -2.841482,3.080051 -1.979218,1.55069 -3.161251,2.27996 -4.447526,2.74397 -5.355099,1.93178 -11.498183,-1.14869 -13.755227,-6.897613 -0.623326,-1.587678 -0.689714,-4.894593 -0.130446,-6.497807 0.704242,-2.018797 2.351187,-4.142599 3.957642,-5.135441 1.154268,-0.713378 1.55989,-1.90745 6.95155,-2.182052 5.370521,-0.273523 6.347466,2.42595 7.347807,1.620924 0.244849,-0.197041 3.586643,-4.296969 5.695896,-6.577276 2.109253,-2.280307 6.508014,-7.103839 9.960415,-10.71896 11.576254,-12.121873 14.290189,-15.430563 18.08337,-19.595382 4.217278,-4.630465 9.141057,-10.217599 9.582761,-11.129614 0.26064,-0.538164 -0.930988,-0.623848 -1.352363,-3.105906 -0.617329,-3.636305 -0.564828,-5.07606 0.05846,-7.038842 0.61217,-1.927734 1.452643,-3.237721 2.991172,-4.662127 2.741451,-2.538099 6.836537,-3.703023 9.88708,-2.812566 3.467191,1.012078 6.576711,4.317204 7.594745,8.072497 0.421997,1.556642 0.358962,4.85554 -0.122566,6.414548 -0.86944,2.814918 -3.616364,5.353143 -6.385806,6.418849 -1.921145,0.739275 -2.937532,0.674065 -6.710611,0.182653 -1.508306,-0.196442 -3.52707,-1.467093 -3.559187,-1.423543 -0.03212,0.04355 -2.268546,2.53358 -4.259174,4.751244 C 70.14343,48.867788 65.011138,54.78226 52.770526,67.661796 40.621004,80.445484 38.36637,83.154432 36.980405,84.987641 c -1.81723,2.403638 -0.733756,1.930869 0.02425,5.123297 0.661962,2.787916 0.0295,3.132171 0.844965,3.541223 1.468251,0.736499 10.758816,3.230629 23.6201,6.882249 3.392652,0.96325 9.252687,2.69472 12.867808,3.78591 6.767559,2.04272 10.691015,3.15843 16.418805,4.71407 l 3.879644,1.2497 1.479836,-2.17296 c 2.400953,-3.52551 5.676287,-3.92704 8.735357,-3.89424 3.23268,0.0347 5.80808,1.08798 7.96618,3.25808 2.12915,2.14098 3.05918,4.33438 3.05316,7.20061 -0.0107,5.07533 -3.37793,9.46569 -8.22901,10.72923 -1.44186,0.37556 -3.86185,0.36711 -5.29567,-0.0185 z"
       style="fill:#000000;fill-opacity:1;stroke:none" />
    <path
       sodipodi:nodetypes="cccsssccssscc"
       inkscape:connector-curvature="0"
       id="path3017"
       d="m 72.145996,103.7255 c -1.938482,-0.58276 -2.115134,-0.56108 -1.921323,-0.5838 0.160638,-0.0188 0.04913,-0.23588 0.122993,-0.29701 0.551353,-0.45615 1.051175,-3.986883 1.327886,-6.393386 0.241816,-2.103027 0.08317,-6.019723 -0.358395,-8.848198 -1.202261,-7.701158 -4.095245,-15.870765 -7.358742,-20.780625 -1.3309,-2.00231 -4.216212,-4.846083 -5.090543,-5.260981 -0.205422,0.236505 0.658923,-5.72776 8.404347,5.041894 4.353636,6.803004 5.264407,10.041746 6.263554,15.084059 0.722652,3.646945 0.897408,5.92282 1.082858,14.102142 0.09267,4.087337 -1.170664,7.687315 -1.00721,8.271165 0.03503,0.12513 -0.231066,-0.0536 -0.251466,-0.0572 -0.02039,-0.004 0.392724,0.20493 -1.213959,-0.27808 z"
       style="fill:#cc0000;fill-opacity:1;stroke:none" />
    <path
       inkscape:connector-curvature="0"
       id="path2996"
       d="m 89.386188,83.529293 c -0.980893,-0.105725 -2.146147,-0.55454 -2.902272,-1.117859 -1.462093,-1.089285 -2.887103,-3.985726 -3.44364,-6.99947 -0.429382,-2.325196 -0.240375,-4.863516 0.513119,-6.891103 1.078453,-2.902021 3.181411,-4.766672 5.757508,-5.10506 0.434243,-0.05704 1.541742,-0.02644 1.95201,0.05393 0.763402,0.149555 1.539,0.423685 2.267354,0.80138 0.773153,0.400926 1.128369,0.666004 2.360023,1.761167 0.636284,0.565771 1.194779,1.050151 1.241101,1.076397 0.06987,0.03963 0.09243,0.03867 0.132595,-0.0055 0.02666,-0.02938 0.233124,-0.514402 0.458926,-1.077798 0.668878,-1.668846 0.987069,-2.267989 1.295739,-2.439824 l 0.133826,-0.0745 0.08465,0.10303 c 0.148496,0.180633 0.175212,0.360272 0.173048,1.163443 -0.0018,0.776067 -0.0491,1.306591 -0.211459,2.386316 -0.377721,2.511792 -0.501015,4.242677 -0.460157,6.460371 0.04259,2.314616 0.149341,3.461271 0.603189,6.481361 0.248144,1.651204 0.312779,2.759786 0.18373,3.151162 -0.08694,0.263804 -0.179005,0.311841 -0.390076,0.203655 -0.189793,-0.09729 -0.562737,-0.485384 -0.928956,-0.966708 -0.23403,-0.307587 -0.310139,-0.451164 -0.631885,-1.191976 -0.201198,-0.463248 -0.387462,-0.865716 -0.413923,-0.894387 -0.04101,-0.04448 -0.284761,0.09034 -1.659839,0.918097 -1.919864,1.155711 -2.154631,1.289324 -2.694861,1.533672 -1.258776,0.569361 -2.358017,0.784858 -3.41979,0.670416 l 0,0 z m 1.583059,-1.658674 c 0.622916,-0.134895 1.308605,-0.457399 1.970024,-0.926571 0.480271,-0.340671 0.758952,-0.575921 1.314614,-1.109759 0.692514,-0.665309 1.109894,-1.238883 1.301529,-1.788607 0.173699,-0.498279 0.180668,-0.64611 0.179445,-3.802642 -8.8e-4,-3.216095 -0.03423,-4.572426 -0.119272,-4.909703 -0.13974,-0.553993 -0.492954,-1.105928 -1.221105,-1.908086 -0.750258,-0.826513 -1.378873,-1.338493 -2.081013,-1.69489 -0.738365,-0.374785 -1.174579,-0.466873 -2.086815,-0.440545 -0.673002,0.01942 -0.923879,0.07162 -1.455752,0.30288 -1.269331,0.551909 -2.545846,1.857221 -3.300669,3.375151 -0.379152,0.762457 -0.704751,1.852685 -0.834348,2.793695 -0.09113,0.661679 -0.109475,2.052625 -0.0356,2.700564 0.269624,2.365673 1.194863,4.475627 2.621705,5.978668 1.175142,1.2379 2.427347,1.715697 3.74728,1.429845 z"
       style="fill:#dd1010;fill-opacity:1;stroke:none" />
    <path
       transform="translate(5.3331997,25.657754)"
       d="m 28.887712,67.356995 a 8.0084743,8.1514835 0 1 1 -16.016948,0 8.0084743,8.1514835 0 1 1 16.016948,0 z"
       sodipodi:ry="8.1514835"
       sodipodi:rx="8.0084743"
       sodipodi:cy="67.356995"
       sodipodi:cx="20.879238"
       id="path3033"
       style="fill:#0000ff;fill-opacity:1;stroke:none"
       sodipodi:type="arc" />
    <use
       height="135"
       width="132"
       transform="translate(78.856905,21.80371)"
       id="use3035"
       xlink:href="#path3033"
       y="0"
       x="0" />
    <use
       height="135"
       width="132"
       transform="translate(-18.894469,-85.501718)"
       id="use3037"
       xlink:href="#use3035"
       y="0"
       x="0" />
    <path
       inkscape:connector-curvature="0"
       id="path3048"
       d="M 56.09779,98.911857 C 48.546942,96.743634 41.321265,94.632549 40.040729,94.220558 37.60873,93.438108 37.377027,93.201643 37.367585,91.492471 37.365437,91.103637 37.08415,89.899806 36.742503,88.817293 36.13915,86.905559 36.135981,86.821875 36.632056,85.900721 37.358709,84.551408 40.353695,81.188396 50.156235,70.714684 l 8.597378,-9.186033 1.551752,1.463575 c 3.091058,2.915412 4.836083,5.621392 6.93743,10.757758 3.308984,8.088215 4.931473,17.192912 4.171683,23.40965 -0.382433,3.129146 -1.025943,5.792506 -1.384442,5.729946 -0.111887,-0.0195 -6.381399,-1.8095 -13.932246,-3.977723 z"
       style="fill:#fae5e5;fill-opacity:1;stroke:none" />
  </g>
</svg>
