<?xml version="1.0" encoding="UTF-8" standalone="no"?>
<!-- Created with Inkscape (http://www.inkscape.org/) -->

<svg
   xmlns:dc="http://purl.org/dc/elements/1.1/"
   xmlns:cc="http://creativecommons.org/ns#"
   xmlns:rdf="http://www.w3.org/1999/02/22-rdf-syntax-ns#"
   xmlns:svg="http://www.w3.org/2000/svg"
   xmlns="http://www.w3.org/2000/svg"
   xmlns:xlink="http://www.w3.org/1999/xlink"
   xmlns:sodipodi="http://sodipodi.sourceforge.net/DTD/sodipodi-0.dtd"
   xmlns:inkscape="http://www.inkscape.org/namespaces/inkscape"
   id="svg2985"
   version="1.1"
   inkscape:version="0.48.2 r9819"
   width="32"
   height="32"
   sodipodi:docname="export_dynamix_worksheet_as_webpage.svg">
  <metadata
     id="metadata2991">
    <rdf:RDF>
      <cc:Work
         rdf:about="">
        <dc:format>image/svg+xml</dc:format>
        <dc:type
           rdf:resource="http://purl.org/dc/dcmitype/StillImage" />
        <dc:title />
      </cc:Work>
    </rdf:RDF>
  </metadata>
  <defs
     id="defs2989">
    <linearGradient
       inkscape:collect="always"
       id="linearGradient3798">
      <stop
         style="stop-color:#3e72ac;stop-opacity:1;"
         offset="0"
         id="stop3800" />
      <stop
         style="stop-color:#3e72ac;stop-opacity:0;"
         offset="1"
         id="stop3802" />
    </linearGradient>
    <inkscape:path-effect
       effect="spiro"
       id="path-effect2997"
       is_visible="true" />
    <linearGradient
       inkscape:collect="always"
       xlink:href="#linearGradient3798"
       id="linearGradient3002"
       gradientUnits="userSpaceOnUse"
       gradientTransform="matrix(0.94072795,0,0,1,13.289541,7.678685)"
       x1="11.932204"
       y1="28.542374"
       x2="1.6949153"
       y2="0.47457626" />
  </defs>
  <sodipodi:namedview
     pagecolor="#ffffff"
     bordercolor="#666666"
     borderopacity="1"
     objecttolerance="10"
     gridtolerance="10"
     guidetolerance="10"
     inkscape:pageopacity="0"
     inkscape:pageshadow="2"
     inkscape:window-width="1580"
     inkscape:window-height="942"
     id="namedview2987"
     showgrid="false"
     inkscape:zoom="14.75"
     inkscape:cx="20.487935"
     inkscape:cy="12.112409"
     inkscape:window-x="1427"
     inkscape:window-y="16"
     inkscape:window-maximized="0"
     inkscape:current-layer="svg2985" />
  <rect
     style="fill:none;stroke:#818181;stroke-width:1.9097054;stroke-linejoin:round;stroke-miterlimit:4;stroke-opacity:1;stroke-dasharray:none"
     id="rect3849"
     width="26.16815"
     height="28.070045"
     x="0.95575476"
     y="0.94171363" />
  <rect
     style="fill:#c7c7c7;fill-opacity:1;stroke:none"
     id="rect3033-9"
     width="13.288136"
     height="1.9322034"
     x="5"
     y="10.016949" />
  <path
     sodipodi:type="arc"
     style="fill:#ffffff;fill-opacity:1;stroke:none"
     id="path3851"
     sodipodi:cx="19.38983"
     sodipodi:cy="25.491526"
     sodipodi:rx="9.9661016"
     sodipodi:ry="2.1355932"
     d="m 29.355931,25.491526 a 9.9661016,2.1355932 0 1 1 -19.932203,0 9.9661016,2.1355932 0 1 1 19.932203,0 z"
     transform="matrix(1.2237815,0,0,5.8317485,-2.260448,-125.24739)" />
  <path
     style="fill:url(#linearGradient3002);fill-opacity:1;stroke:none"
     d="m 13.225763,14.390549 c 4.719584,1.355933 3.393697,1.242356 3.345179,1.635344 -0.212336,1.71988 -4.111419,2.765426 -3.841259,4.59513 0.08675,0.587493 -1.369965,-0.97501 2.265183,4.182122 1.218311,1.728401 2.106336,0.802167 2.80497,2.033898 1.396032,2.461287 0.479873,3.361397 0.719515,4.570456 0.366293,1.84805 -7.206933,2.305084 -2.487349,3.525423 4.719584,1.220339 -1.084228,2.440678 4.847141,1.288136 5.931369,-1.152542 4.316269,-0.269231 5.995147,-1.491526 3.417055,-2.487762 5.293672,-4.484216 0.114258,-5.699733 -1.364482,-0.32022 -1.318847,-1.631937 -1.318847,-1.631937 1.434616,-1.750413 0.02671,-2.426912 -1.346537,-2.363245 -0.317659,0.01473 -1.044509,0.54578 -2.007532,-2.950151 -1.275894,-4.631704 1.635022,-1.863408 2.200983,-4.982052 0.935435,-5.154571 3.505682,-0.61017 3.25057,-3.186441 -0.255113,-2.576271 2.997574,-1.627118 -1.977123,-2.847458 C 20.815364,9.848176 24.19177,9.511233 22.154706,9.98377 c -4.099338,0.95092 -0.637782,-0.338983 -4.592027,1.152542 -3.954247,1.491525 -3.571578,0 -4.018025,1.559322 -0.446447,1.559322 -0.318891,1.694915 -0.318891,1.694915 z"
     id="path3783"
     inkscape:connector-curvature="0"
     sodipodi:nodetypes="cssssssssssssssssssc" />
  <rect
     style="fill:#c7c7c7;fill-opacity:1;stroke:none"
     id="rect3033-0"
     width="6.5762711"
     height="1.9322034"
     x="5.0338984"
     y="14.050847" />
  <rect
     style="fill:#c7c7c7;fill-opacity:1;stroke:none"
     id="rect3033-4"
     width="4.6440678"
     height="1.9322034"
     x="5"
     y="18.050848" />
  <rect
     style="fill:#c7c7c7;fill-opacity:1;stroke:none"
     id="rect3033-7"
     width="3.7627118"
     height="1.9322034"
     x="4.9661016"
     y="22.084745" />
  <path
     sodipodi:type="arc"
     style="fill:none;stroke:#3d3e71;stroke-width:1.11500001;stroke-linecap:round;stroke-linejoin:round;stroke-miterlimit:4;stroke-opacity:0.9372549;stroke-dasharray:none"
     id="path3767"
     sodipodi:cx="-0.74576271"
     sodipodi:cy="14.101695"
     sodipodi:rx="8.6101694"
     sodipodi:ry="12"
     d="m 7.8644067,14.101695 a 8.6101694,12 0 1 1 -17.2203388,0 8.6101694,12 0 1 1 17.2203388,0 z"
     transform="matrix(1.4937728,0,0,1.0951807,22.594999,7.95322)" />
  <rect
     style="fill:#c7c7c7;fill-opacity:1;stroke:none"
     id="rect3033"
     width="17.932203"
     height="1.9322034"
     x="5.0169492"
     y="6.0000005" />
</svg>
