<?xml version="1.0" encoding="UTF-8" standalone="no"?>
<!-- Created with Inkscape (http://www.inkscape.org/) -->

<svg
   xmlns:dc="http://purl.org/dc/elements/1.1/"
   xmlns:cc="http://creativecommons.org/ns#"
   xmlns:rdf="http://www.w3.org/1999/02/22-rdf-syntax-ns#"
   xmlns:svg="http://www.w3.org/2000/svg"
   xmlns="http://www.w3.org/2000/svg"
   xmlns:xlink="http://www.w3.org/1999/xlink"
   xmlns:sodipodi="http://sodipodi.sourceforge.net/DTD/sodipodi-0.dtd"
   xmlns:inkscape="http://www.inkscape.org/namespaces/inkscape"
   id="svg2985"
   version="1.1"
   inkscape:version="0.48.2 r9819"
   width="512"
   height="512"
   sodipodi:docname="share.svg">
  <metadata
     id="metadata2991">
    <rdf:RDF>
      <cc:Work
         rdf:about="">
        <dc:format>image/svg+xml</dc:format>
        <dc:type
           rdf:resource="http://purl.org/dc/dcmitype/StillImage" />
        <dc:title />
      </cc:Work>
    </rdf:RDF>
  </metadata>
  <defs
     id="defs2989">
    <linearGradient
       inkscape:collect="always"
       id="linearGradient3798">
      <stop
         style="stop-color:#3e72ac;stop-opacity:1;"
         offset="0"
         id="stop3800" />
      <stop
         style="stop-color:#3e72ac;stop-opacity:0;"
         offset="1"
         id="stop3802" />
    </linearGradient>
    <inkscape:path-effect
       effect="spiro"
       id="path-effect3771"
       is_visible="true" />
    <inkscape:path-effect
       effect="spiro"
       id="path-effect2997"
       is_visible="true" />
    <linearGradient
       inkscape:collect="always"
       xlink:href="#linearGradient3798"
       id="linearGradient3804"
       x1="11.932204"
       y1="28.542374"
       x2="1.6949153"
       y2="0.47457626"
       gradientUnits="userSpaceOnUse" />
    <linearGradient
       inkscape:collect="always"
       xlink:href="#linearGradient3798"
       id="linearGradient2994"
       gradientUnits="userSpaceOnUse"
       x1="11.932204"
       y1="28.542374"
       x2="1.6949153"
       y2="0.47457626"
       gradientTransform="matrix(1.0022344,0,0,1,0.01109237,0)" />
  </defs>
  <sodipodi:namedview
     pagecolor="#ffffff"
     bordercolor="#666666"
     borderopacity="1"
     objecttolerance="10"
     gridtolerance="10"
     guidetolerance="10"
     inkscape:pageopacity="0"
     inkscape:pageshadow="2"
     inkscape:window-width="1680"
     inkscape:window-height="988"
     id="namedview2987"
     showgrid="false"
     inkscape:zoom="1.3037281"
     inkscape:cx="16.878203"
     inkscape:cy="261.44995"
     inkscape:window-x="1358"
     inkscape:window-y="-8"
     inkscape:window-maximized="1"
     inkscape:current-layer="svg2985" />
  <g
     id="g2991"
     transform="matrix(15.100159,0,0,15.100159,30.004267,8.4069371)">
    <path
       sodipodi:nodetypes="cssssssssssssssssssc"
       inkscape:connector-curvature="0"
       id="path3783"
       d="M -0.05685572,6.7118644 C 4.9713031,8.0677966 9.6597215,4.338983 5.0392513,8.2033898 0.41878093,12.067797 0.35083283,8.6101695 0.28288474,12.271186 c -0.0679481,3.661017 -3.94098934,1.830509 1.90254656,4.949153 5.843536,3.118645 3.9409894,-1.830508 3.6012489,2.033898 -0.3397404,3.864407 2.0384429,0.542373 -0.2038443,4.474577 -2.242287,3.932203 -7.6781344,2.305084 -2.6499756,3.525423 5.0281589,1.220339 -1.1551175,2.440678 5.1640551,1.288136 6.3191726,-1.152542 4.5984746,-0.269231 6.3871206,-1.491526 3.640468,-2.487762 4.280731,-3.728813 -1.155117,-5.220339 C 7.8930712,20.338983 7.6892269,23.864407 9.7276697,20.677966 11.766113,17.491525 14.619932,20.610169 11.766113,17.355932 8.9122925,14.101695 6.8738497,18.237288 8.9122925,13.830508 10.950735,9.4237288 6.4661612,12.542373 10.950735,9.4237288 15.43531,6.3050847 15.707102,8.8135593 15.43531,6.2372881 15.163517,3.6610169 18.628871,4.6101696 13.328919,3.3898305 8.0289673,2.1694915 11.626128,1.8325484 9.4558773,2.3050847 5.0885171,3.2560055 8.7763963,1.9661017 4.5636146,3.4576271 c -4.21278177,1.4915254 -3.80509321,0 -4.28072986,1.559322 -0.47563665,1.5593221 -0.33974046,1.6949153 -0.33974046,1.6949153 z"
       style="fill:url(#linearGradient2994);fill-opacity:1;stroke:none" />
    <path
       transform="matrix(1.5914383,0,0,1.0951807,9.9249575,0.27453545)"
       d="m 7.8644067,14.101695 c 0,6.627417 -3.8549041,12 -8.61016941,12 -4.75526529,0 -8.61016939,-5.372583 -8.61016939,-12 0,-6.6274169 3.8549041,-11.9999999 8.61016939,-11.9999999 4.75526531,0 8.61016941,5.372583 8.61016941,11.9999999 z"
       sodipodi:ry="12"
       sodipodi:rx="8.6101694"
       sodipodi:cy="14.101695"
       sodipodi:cx="-0.74576271"
       id="path3767"
       style="fill:none;stroke:#3d3e71;stroke-width:1.11500001;stroke-linecap:round;stroke-linejoin:round;stroke-miterlimit:4;stroke-opacity:0.9372549;stroke-dasharray:none"
       sodipodi:type="arc" />
    <path
       sodipodi:nodetypes="cccccccc"
       inkscape:connector-curvature="0"
       inkscape:original-d="m 14.214072,30.721163 c -0.144179,0 10.770974,-0.0678 10.770974,-0.0678 l 0.06565,-9.235344 6.433751,-0.06997 L 19.798656,7.3551086 8.7693704,21.278091 l 5.5802946,0.06997 z"
       inkscape:path-effect="#path-effect2997"
       id="path2995"
       d="m 14.214072,30.721163 10.770974,-0.0678 0.06565,-9.235344 6.433751,-0.06997 L 19.798656,7.3551086 8.7693704,21.278091 l 5.5802946,0.06997 -0.135593,9.373102"
       style="fill:#f7e914;fill-opacity:1;stroke:#9a7800;stroke-width:1.09764862;stroke-linecap:butt;stroke-linejoin:round;stroke-miterlimit:4;stroke-opacity:1;stroke-dasharray:none" />
  </g>
</svg>
