<svg xmlns="http://www.w3.org/2000/svg" viewBox="0 0 100 100" width="100" height="100"><path d="M14.65 21.88a2.27 2.27 0 0 1-2.27 2.27H4.31A2.27 2.27 0 0 1 2 21.88a2.27 2.27 0 0 1 2.27-2.27h8.06a2.27 2.27 0 0 1 2.27 2.27zm0 49.83A2.27 2.27 0 0 1 12.37 74H4.31A2.27 2.27 0 0 1 2 71.71a2.27 2.27 0 0 1 2.27-2.27h8.06a2.27 2.27 0 0 1 2.27 2.27zm0-24.81a2.27 2.27 0 0 1-2.27 2.27H4.31A2.27 2.27 0 0 1 2 46.9a2.27 2.27 0 0 1 2.27-2.27h8.06a2.27 2.27 0 0 1 2.27 2.27z"/><path d="M36.81 57.6a5.8 5.8 0 0 1 2.91-.87 5.89 5.89 0 0 1 5.79 5.08 20.44 20.44 0 0 0 11.21-2c0-.1-.06-.18-.06-.28a6 6 0 0 1 6-6 5.83 5.83 0 0 1 1.84.37 18.22 18.22 0 0 0 4.16-9.25 5.94 5.94 0 0 1-3.79-5.52 5.87 5.87 0 0 1 1.49-3.83 14.15 14.15 0 0 0-10.54-5.5 5.78 5.78 0 0 1-10.43 2 22.49 22.49 0 0 0-2.24 1.13 21.77 21.77 0 0 0-6.54 6.2 5.71 5.71 0 0 1-3.22 9.16 12.87 12.87 0 0 0 1.76 7.26 12.4 12.4 0 0 0 1.66 2.05zM96.33 7.41h-5.91V2.77A1.77 1.77 0 0 0 88.65 1H10.07a1.74 1.74 0 0 0-1.73 1.77v14.77h5.92c1.75 0 3.18 2 3.18 4.39 0 2.39-1.42 4.26-3.18 4.26H8.34v16.37h5.92c1.75 0 3.07 1.8 3.07 4.19 0 2.39-1.32 4.46-3.07 4.46H8.34v16.16h5.92c1.75 0 3.07 1.9 3.07 4.29s-1.32 4.36-3.07 4.36H8.34v14.79c0 .2.14.33.2.51 1 7.52 8.85 7.68 9.19 7.68h78.6A1.6 1.6 0 0 0 98 97.3v-88a1.74 1.74 0 0 0-1.67-1.89zM31.91 36.63a5.75 5.75 0 0 1 1.52.31 25.87 25.87 0 0 1 7.78-7.39 26.61 26.61 0 0 1 3-1.52 5.9 5.9 0 0 1 11.25-2.2c6 .28 11.33 2.86 14.55 7.56a5.59 5.59 0 0 1 .74-.15 5.94 5.94 0 0 1 2.06 11.51 22.27 22.27 0 0 1-5.14 11.85 5.8 5.8 0 0 1 .91 3 5.94 5.94 0 0 1-10.27 4.08 24.47 24.47 0 0 1-13.64 2.18 5.87 5.87 0 0 1-4.95 2.83 6 6 0 0 1-6-6 5.86 5.86 0 0 1 .39-1.95 16.31 16.31 0 0 1-2.38-3A16.76 16.76 0 0 1 29.48 48a5.95 5.95 0 0 1 2.43-11.38zm62.54 57.28a1.57 1.57 0 0 1-1.67 1.57h-76a4.88 4.88 0 0 1-3.53-2.89h75.4a1.78 1.78 0 0 0 1.77-1.78V11.54h2.36a1.82 1.82 0 0 1 1.67 1.86z"/></svg>