<svg id="CAS_exam_draft_1" data-name="CAS exam draft 1" xmlns="http://www.w3.org/2000/svg" xmlns:xlink="http://www.w3.org/1999/xlink" width="512" height="512" viewBox="0 0 512 512"><defs><style>.cls-1 {fill: none;}.cls-2 {fill: #fff;}.cls-3, .cls-6 {fill: #99f;}.cls-3 {fill-rule: evenodd;}.cls-4 {fill: #555;}.cls-5 {clip-path: url(#clip-path);}.cls-7 {fill: #666;}</style><clipPath id="clip-path"><rect class="cls-1" x="27" y="27" width="458" height="458" rx="44.76"/></clipPath></defs><title>cas_black</title><g><path class="cls-2" d="M337.83,478H477.26s0-90.41-57-108.24c59.7-35.19,57-109.76,57-109.76H337.83s-.68,79.66,56,109C332,413.27,337.83,478,337.83,478Z"/><g><g><path class="cls-3" d="M408.18,373.43l5.74-3.27c10.68-3,30.48-19.46,43-42.19H359.43c9.49,20,35.21,41.18,43,42.19Z"/><polygon class="cls-3" points="342.01 474.92 342.01 456.36 408.18 419.24 474.36 456.36 474.36 474.92 342.01 474.92"/></g><path class="cls-4" d="M386.88,370.16C358.21,356.79,332,318.54,332,255.42H484.34c0,63.12-26.19,101.37-54.85,114.74,28.66,13.38,54.85,51.63,54.85,114.75H332C332,421.79,358.21,383.54,386.88,370.16Zm-42.42,103.3H471.9c0-56.82-34-91.26-58-103.3,24-12,58-46.47,58-103.3H344.46c0,56.82,34,91.26,58,103.3C378.47,382.2,344.46,416.64,344.46,473.46Z"/></g></g><g class="cls-5"><g><rect class="cls-6" width="150" height="512"/><path class="cls-7" d="M360.49,227.09H304.43l-39.3-62.55-36.58,62.55H175.92l62.55-93.65-56.4-81.35h55.71L272.3,103.7,302,52.09h52.3l-55,81.35Z"/><path class="cls-7" d="M512,120H376.17V99.38H512ZM512,181H376.17V160.11H512Z"/></g></g></svg>