<svg id="graphing_exam_draft_1" data-name="graphing exam draft 1" xmlns="http://www.w3.org/2000/svg" xmlns:xlink="http://www.w3.org/1999/xlink" viewBox="0 0 512 512"><defs><style>.cls-1,.cls-3{fill:none;}.cls-2{clip-path:url(#clip-path);}.cls-3{stroke:#666;stroke-miterlimit:10;stroke-width:30px;}.cls-4,.cls-7{fill:#99f;}.cls-5{fill:#333;}.cls-6{fill:#fff;}.cls-7{fill-rule:evenodd;}.cls-8{fill:#555;}</style><clipPath id="clip-path"><rect class="cls-1" x="26" y="25" width="340" height="340" rx="33.21" ry="33.21"/></clipPath></defs><title>exam_graphing</title><g class="cls-2"><path class="cls-3" d="M38.61,361.18C69.61,155,117.83-22.31,195.76,195,274.33,414,320.06,235,353.2,28.64"/><circle class="cls-4" cx="127.61" cy="95.45" r="46.78"/><path class="cls-5" d="M127.61,48.67a46.78,46.78,0,1,0,46.78,46.78A46.78,46.78,0,0,0,127.61,48.67Zm0,79.52a32.74,32.74,0,1,1,32.74-32.74A32.74,32.74,0,0,1,127.61,128.2Z"/><circle class="cls-4" cx="262.72" cy="295.11" r="46.78"/><path class="cls-5" d="M262.72,248.33a46.78,46.78,0,1,0,46.78,46.78A46.78,46.78,0,0,0,262.72,248.33Zm0,79.52a32.74,32.74,0,1,1,32.74-32.74A32.74,32.74,0,0,1,262.72,327.85Z"/></g><path class="cls-6" d="M337.83,478H477.26s0-90.41-57-108.24c59.71-35.19,57-109.76,57-109.76H337.83s-0.68,79.66,56,109C332,413.27,337.83,478,337.83,478Z"/><path class="cls-7" d="M408.18,373.43l5.73-3.27c10.68-3,30.48-19.46,43-42.19H359.43c9.49,20,35.22,41.18,43,42.19Z"/><polygon class="cls-7" points="342.01 474.92 342.01 456.36 408.18 419.24 474.36 456.36 474.36 474.92 342.01 474.92"/><path class="cls-8" d="M386.88,370.16C358.21,356.79,332,318.54,332,255.42H484.34c0,63.12-26.19,101.37-54.85,114.75,28.66,13.38,54.85,51.62,54.85,114.75H332C332,421.79,358.21,383.54,386.88,370.16Zm-42.41,103.3H471.9c0-56.83-34-91.26-58-103.3,24-12,58-46.48,58-103.3H344.46c0,56.83,34,91.26,58,103.3C378.47,382.2,344.46,416.64,344.46,473.46Z"/></svg>