<svg xmlns="http://www.w3.org/2000/svg" width="512" height="512" viewBox="0 0 512 512"><g stroke-linecap="round" stroke-linejoin="round"><path fill="none" stroke="#666" stroke-width="33.34" d="M432.345 250.876c0 87.31-75.98 158.088-169.705 158.088-93.726 0-169.706-70.778-169.706-158.088 0-87.31 75.98-158.09 169.706-158.09 93.725 0 169.705 70.78 169.705 158.09z" transform="matrix(1.0156 .01389 -.20152 .9924 42.924 8.75)"/><path fill="#99f" stroke="#000" stroke-width="15.55" d="M644.286 145.571c0 26.431-20.787 47.858-46.429 47.858-25.642 0-46.428-21.427-46.428-47.858 0-26.43 20.786-47.857 46.428-47.857 25.642 0 46.429 21.427 46.429 47.857z" transform="matrix(.96842 0 0 .91438 -225.59 242.796)"/><path fill="#99f" stroke="#000" stroke-width="15.55" d="M644.286 145.571c0 26.431-20.787 47.858-46.429 47.858-25.642 0-46.428-21.427-46.428-47.858 0-26.43 20.786-47.857 46.428-47.857 25.642 0 46.429 21.427 46.429 47.857z" transform="matrix(.96842 0 0 .91438 -151.12 72.004)"/><path fill="#99f" stroke="#000" stroke-width="15.55" d="M644.286 145.571c0 26.431-20.787 47.858-46.429 47.858-25.642 0-46.428-21.427-46.428-47.858 0-26.43 20.786-47.857 46.428-47.857 25.642 0 46.429 21.427 46.429 47.857z" transform="matrix(.96842 0 0 .91438 -421.29 266.574)"/><path fill="#99f" stroke="#000" stroke-width="15.55" d="M644.286 145.571c0 26.431-20.787 47.858-46.429 47.858-25.642 0-46.428-21.427-46.428-47.858 0-26.43 20.786-47.857 46.428-47.857 25.642 0 46.429 21.427 46.429 47.857z" transform="matrix(.96842 0 0 .91438 -483.632 100.362)"/><path fill="#99f" stroke="#000" stroke-width="15.55" d="M644.286 145.571c0 26.431-20.787 47.858-46.429 47.858-25.642 0-46.428-21.427-46.428-47.858 0-26.43 20.786-47.857 46.428-47.857 25.642 0 46.429 21.427 46.429 47.857z" transform="matrix(.96842 0 0 .91438 -329.052 -23.649)"/></g></svg>