<svg xmlns="http://www.w3.org/2000/svg" xmlns:xlink="http://www.w3.org/1999/xlink" width="24" height="24"><defs><path id="a" d="M21.376 20.827a1.28 1.28 0 0 0-.436-.08 1.29 1.29 0 0 0-1.292 1.289c0 .036.009.07.011.105-.799.37-1.64.5-2.403.403a1.287 1.287 0 0 0-1.273-1.122c-.236 0-.454.068-.644.178-.12-.129-.23-.267-.324-.42a2.79 2.79 0 0 1-.4-1.572c.556-.145.967-.644.967-1.243 0-.285-.096-.545-.253-.76a4.762 4.762 0 0 1 1.874-1.557 1.285 1.285 0 0 0 2.283-.436c.92.078 1.74.477 2.26 1.17a1.278 1.278 0 0 0-.329.852c0 .555.354 1.025.847 1.206-.086.689-.391 1.382-.888 1.987m1.333-4.483c-.053 0-.103.01-.153.016a3.736 3.736 0 0 0-.33-.408c-.043-.046-.088-.09-.132-.133-.701-.661-1.656-1.028-2.687-1.074a1.288 1.288 0 0 0-2.453.493 5.647 5.647 0 0 0-2.31 1.893 1.283 1.283 0 0 0-.353-.055 1.287 1.287 0 0 0-.52 2.467 3.63 3.63 0 0 0 .512 2.116c.14.229.309.428.49.614-.05.138-.082.284-.082.439a1.29 1.29 0 0 0 2.38.688 5.05 5.05 0 0 0 1.703-.038l.144-.03c.057-.013.113-.028.17-.043a5.88 5.88 0 0 0 .932-.35 1.29 1.29 0 0 0 2.21-.903c0-.241-.07-.464-.185-.657.082-.1.17-.2.242-.303.533-.755.8-1.566.866-2.237a1.285 1.285 0 0 0-.444-2.495"/></defs><g fill="#000" fill-rule="evenodd"><path fill-rule="nonzero" d="M16.222 3 20 6.778l.001 5.862a8.054 8.054 0 0 0-1.501-.14c-1.696 0-3.26.525-4.517 1.411a2.827 2.827 0 0 0-2.483-1.467 2.83 2.83 0 0 0-2.833 2.834 2.83 2.83 0 0 0 2.486 2.812 6.53 6.53 0 0 0-.134 1.91h-6.13A1.888 1.888 0 0 1 3 18.111V4.89C3 3.85 3.84 3 4.889 3h11.333Zm-1.889 1.889H4.89v3.778h9.444V4.889Z"/><use xlink:href="#a"/></g></svg>