<svg xmlns="http://www.w3.org/2000/svg" width="512" height="512"><defs><clipPath id="clip-path"><rect x="27" y="27" width="458" height="458" rx="44.76" fill="none"/></clipPath></defs><g clip-path="url(#clip-path)"><path fill="#99f" d="M0 331.1h512V475H0z"/><path fill="#666" d="M0-.77h512v513.54H0zm467 82.89C467 59.41 453.59 46 430.88 46H82.12C59.41 46 46 59.41 46 82.12v348.76C46 453.59 59.41 467 82.12 467h348.76c22.71 0 36.12-13.41 36.12-36.12z"/><path fill="#666" d="M0 173.67h512v18H0zM0 320.33h512v18H0z"/></g><path fill="#666" d="M159.5 99.66v-38h19v38h38.25v19.68H178.5v38h-19v-38h-38.25V99.66zM121.2 246.08h95.6v19.67h-95.6z"/><path d="M216.8 371.88v19.67h-95.6v-19.67zm0 41.4V433h-95.6v-19.72z" fill="#333"/></svg>