<?xml version="1.0" encoding="UTF-8" standalone="no"?>
<!-- Created with Inkscape (http://www.inkscape.org/) -->

<svg
   xmlns:dc="http://purl.org/dc/elements/1.1/"
   xmlns:cc="http://creativecommons.org/ns#"
   xmlns:rdf="http://www.w3.org/1999/02/22-rdf-syntax-ns#"
   xmlns:svg="http://www.w3.org/2000/svg"
   xmlns="http://www.w3.org/2000/svg"
   xmlns:sodipodi="http://sodipodi.sourceforge.net/DTD/sodipodi-0.dtd"
   xmlns:inkscape="http://www.inkscape.org/namespaces/inkscape"
   id="svg2985"
   version="1.1"
   inkscape:version="0.48.2 r9819"
   width="512"
   height="512"
   sodipodi:docname="insert_input_box.svg">
  <metadata
     id="metadata2991">
    <rdf:RDF>
      <cc:Work
         rdf:about="">
        <dc:format>image/svg+xml</dc:format>
        <dc:type
           rdf:resource="http://purl.org/dc/dcmitype/StillImage" />
        <dc:title />
      </cc:Work>
    </rdf:RDF>
  </metadata>
  <defs
     id="defs2989">
    <inkscape:path-effect
       effect="spiro"
       id="path-effect3009"
       is_visible="true" />
  </defs>
  <sodipodi:namedview
     pagecolor="#ffffff"
     bordercolor="#666666"
     borderopacity="1"
     objecttolerance="10"
     gridtolerance="10"
     guidetolerance="10"
     inkscape:pageopacity="0"
     inkscape:pageshadow="2"
     inkscape:window-width="1280"
     inkscape:window-height="1002"
     id="namedview2987"
     showgrid="false"
     inkscape:zoom="1.050338"
     inkscape:cx="137.71246"
     inkscape:cy="263.11742"
     inkscape:window-x="1358"
     inkscape:window-y="-8"
     inkscape:window-maximized="1"
     inkscape:current-layer="svg2985" />
  <g
     id="g3765">
    <g
       id="text2995"
       style="font-size:231.60652161px;font-style:normal;font-variant:normal;font-weight:normal;font-stretch:normal;line-height:125%;letter-spacing:0px;word-spacing:0px;fill:#000000;fill-opacity:1;stroke:none;font-family:FreeUniversal;-inkscape-font-specification:FreeUniversal"
       transform="matrix(0.87139126,0,0,0.98145441,26.000004,15.762692)">
      <path
         id="path3783"
         d="m 107.2856,327.85028 -20.8084,0 c -1.658732,-8.74555 -2.563444,-14.4 -2.714139,-16.96337 -3.920509,4.67437 -7.087002,8.18012 -9.499486,10.51729 -2.412647,2.33718 -5.88071,4.48587 -10.404199,6.44608 -4.523631,1.96021 -9.650333,2.94031 -15.380121,2.94032 -11.007385,-10e-6 -21.1477,-2.97802 -30.420973,-8.93404 -9.2733243,-5.95602 -13.9099737,-14.13612 -13.9099624,-24.54034 -1.13e-5,-6.78531 1.3193605,-12.74133 3.9581193,-17.86808 2.6387281,-5.12666 6.0313981,-9.23556 10.1780211,-12.32672 4.146571,-3.09104 9.084791,-5.61669 14.814675,-7.57697 5.729803,-1.96014 11.30886,-3.27951 16.73719,-3.95812 5.428215,-0.67846 11.158058,-1.01773 17.189546,-1.0178 1.80935,7e-5 4.448094,0.0755 7.916239,0.22618 3.467981,0.15086 6.106724,0.22625 7.916238,0.22618 1.96012,-8.89627 0.82923,-16.20936 -3.392673,-21.93929 -4.222076,-5.72975 -11.38438,-8.59467 -21.486933,-8.59478 -7.086977,1.1e-4 -13.193783,1.50796 -18.320438,4.52357 -5.126749,3.0158 -7.6901,7.76554 -7.69006,14.24923 l -21.486934,0 c -1.7e-5,-22.7685 15.530873,-34.1528 46.592719,-34.15292 24.577947,1.2e-4 39.430303,6.55928 44.557111,19.67751 1.80932,4.22209 2.71403,16.4357 2.71414,36.64088 l 0,20.12986 c -1.1e-4,22.46706 0.97999,36.56549 2.94032,42.29533 z M 82.63217,270.85336 c -7.690142,-0.4523 -11.685954,-0.67847 -11.987447,-0.67853 -4.372853,6e-5 -8.82102,0.33932 -13.344516,1.0178 -4.523625,0.67859 -9.348756,1.80948 -14.475408,3.39267 -5.126751,1.5833 -9.273348,4.10896 -12.439803,7.57698 -3.16653,3.4681 -4.749776,7.6147 -4.749743,12.4398 -3.3e-5,6.33302 2.261747,11.38433 6.785347,15.15394 4.523521,3.76965 9.951793,5.65447 16.284834,5.65446 13.269054,10e-6 22.240782,-3.88271 26.915211,-11.64818 4.674263,-7.76542 7.011435,-18.73506 7.011525,-32.90894 z"
         inkscape:connector-curvature="0" />
    </g>
    <g
       id="text2999"
       style="font-size:217.10571289px;font-style:normal;font-variant:normal;font-weight:normal;font-stretch:normal;line-height:125%;letter-spacing:0px;word-spacing:0px;fill:#000000;fill-opacity:1;stroke:none;font-family:FreeUniversal;-inkscape-font-specification:FreeUniversal"
       transform="matrix(0.72627791,0,0,1.1775531,26.000004,15.762692)">
      <path
         id="path3786"
         d="m 343.20808,203.876 -130.17862,0 0,-13.35709 130.17862,0 z m 0,39.64723 -130.17862,0 0,-13.5691 130.17862,0 z"
         inkscape:connector-curvature="0" />
    </g>
    <g
       id="text3003"
       style="font-size:231.15293884px;font-style:normal;font-variant:normal;font-weight:normal;font-stretch:normal;line-height:125%;letter-spacing:0px;word-spacing:0px;fill:#000000;fill-opacity:1;stroke:none;font-family:FreeUniversal;-inkscape-font-specification:FreeUniversal"
       transform="matrix(0.94827564,0,0,0.90187995,26.000004,15.762692)">
      <path
         id="path3780"
         d="m 433.05127,356.0173 -21.44486,0 0,-139.05294 c -8.578,6.01974 -20.6172,12.41557 -36.11764,19.1875 l 0,-19.1875 c 6.62153,-4.06309 12.82924,-8.50254 18.62316,-13.31838 5.79382,-4.81553 9.89467,-8.46491 12.30257,-10.94816 2.40778,-2.48292 3.6117,-3.64922 3.61177,-3.4989 l 23.025,0 z"
         inkscape:connector-curvature="0" />
    </g>
    <rect
       y="125.62112"
       x="340.32635"
       height="266.78107"
       width="149.67909"
       id="rect2997"
       style="fill:none;stroke:#dcdee4;stroke-width:17;stroke-linecap:butt;stroke-linejoin:bevel;stroke-miterlimit:4;stroke-opacity:1;stroke-dasharray:none;stroke-dashoffset:5.79999999999999980" />
  </g>
</svg>
