<?xml version="1.0" encoding="UTF-8" standalone="no"?>
<!-- Created with Inkscape (http://www.inkscape.org/) -->

<svg
   xmlns:dc="http://purl.org/dc/elements/1.1/"
   xmlns:cc="http://creativecommons.org/ns#"
   xmlns:rdf="http://www.w3.org/1999/02/22-rdf-syntax-ns#"
   xmlns:svg="http://www.w3.org/2000/svg"
   xmlns="http://www.w3.org/2000/svg"
   xmlns:sodipodi="http://sodipodi.sourceforge.net/DTD/sodipodi-0.dtd"
   xmlns:inkscape="http://www.inkscape.org/namespaces/inkscape"
   id="svg2"
   version="1.1"
   inkscape:version="0.48.2 r9819"
   width="32"
   height="32"
   sodipodi:docname="mode_twovarstats_32.gif">
  <metadata
     id="metadata8">
    <rdf:RDF>
      <cc:Work
         rdf:about="">
        <dc:format>image/svg+xml</dc:format>
        <dc:type
           rdf:resource="http://purl.org/dc/dcmitype/StillImage" />
        <dc:title></dc:title>
      </cc:Work>
    </rdf:RDF>
  </metadata>
  <defs
     id="defs6" />
  <sodipodi:namedview
     pagecolor="#ffffff"
     bordercolor="#666666"
     borderopacity="1"
     objecttolerance="10"
     gridtolerance="10"
     guidetolerance="10"
     inkscape:pageopacity="0"
     inkscape:pageshadow="2"
     inkscape:window-width="1218"
     inkscape:window-height="1002"
     id="namedview4"
     showgrid="false"
     inkscape:zoom="20.85965"
     inkscape:cx="17.152951"
     inkscape:cy="17.355932"
     inkscape:window-x="54"
     inkscape:window-y="-8"
     inkscape:window-maximized="1"
     inkscape:current-layer="svg2" />
  <g
     id="g3096">
    <path
       transform="matrix(0.92307693,0,0,0.8961039,0.70434097,0.34495876)"
       d="m 17.881412,13.471405 a 1.8696383,1.8456686 0 1 1 -3.739276,0 1.8696383,1.8456686 0 1 1 3.739276,0 z"
       sodipodi:ry="1.8456686"
       sodipodi:rx="1.8696383"
       sodipodi:cy="13.471405"
       sodipodi:cx="16.011774"
       id="path2987"
       style="fill:#0000df;fill-opacity:1;stroke:none"
       sodipodi:type="arc" />
    <path
       transform="matrix(0.92307693,0,0,0.8961039,7.7034994,-4.5688339)"
       d="m 17.881412,13.471405 a 1.8696383,1.8456686 0 1 1 -3.739276,0 1.8696383,1.8456686 0 1 1 3.739276,0 z"
       sodipodi:ry="1.8456686"
       sodipodi:rx="1.8696383"
       sodipodi:cy="13.471405"
       sodipodi:cx="16.011774"
       id="path2987-1"
       style="fill:#0000df;fill-opacity:1;stroke:none"
       sodipodi:type="arc" />
    <path
       transform="matrix(0.92307693,0,0,0.8961039,11.682473,0.36892875)"
       d="m 17.881412,13.471405 a 1.8696383,1.8456686 0 1 1 -3.739276,0 1.8696383,1.8456686 0 1 1 3.739276,0 z"
       sodipodi:ry="1.8456686"
       sodipodi:rx="1.8696383"
       sodipodi:cy="13.471405"
       sodipodi:cx="16.011774"
       id="path2987-7"
       style="fill:#0000df;fill-opacity:1;stroke:none"
       sodipodi:type="arc" />
    <path
       transform="matrix(0.92307693,0,0,0.8961039,5.594164,8.4706945)"
       d="m 17.881412,13.471405 a 1.8696383,1.8456686 0 1 1 -3.739276,0 1.8696383,1.8456686 0 1 1 3.739276,0 z"
       sodipodi:ry="1.8456686"
       sodipodi:rx="1.8696383"
       sodipodi:cy="13.471405"
       sodipodi:cx="16.011774"
       id="path2987-4"
       style="fill:#0000df;fill-opacity:1;stroke:none"
       sodipodi:type="arc" />
    <path
       transform="matrix(0.92307693,0,0,0.8961039,-5.3839684,9.2856656)"
       d="m 17.881412,13.471405 a 1.8696383,1.8456686 0 1 1 -3.739276,0 1.8696383,1.8456686 0 1 1 3.739276,0 z"
       sodipodi:ry="1.8456686"
       sodipodi:rx="1.8696383"
       sodipodi:cy="13.471405"
       sodipodi:cx="16.011774"
       id="path2987-0"
       style="fill:#0000df;fill-opacity:1;stroke:none"
       sodipodi:type="arc" />
    <rect
       y="5.0254235"
       x="4"
       height="10"
       width="7"
       id="rect3028-5"
       style="fill:#000000;fill-opacity:1;stroke:none" />
    <rect
       y="5.9999995"
       x="5"
       height="2.0169492"
       width="2"
       id="rect3028"
       style="fill:#ffffff;fill-opacity:1;stroke:none" />
    <rect
       y="8.9915257"
       x="5.0169492"
       height="2.0169492"
       width="2"
       id="rect3028-9"
       style="fill:#ffffff;fill-opacity:1;stroke:none" />
    <rect
       y="5.9915257"
       x="8"
       height="2.0169492"
       width="2"
       id="rect3028-4"
       style="fill:#ffffff;fill-opacity:1;stroke:none" />
    <rect
       y="8.9915257"
       x="8.0169497"
       height="2.0169492"
       width="2"
       id="rect3028-8"
       style="fill:#ffffff;fill-opacity:1;stroke:none" />
    <rect
       y="12.008474"
       x="8.0169487"
       height="2.0169492"
       width="2"
       id="rect3028-82"
       style="fill:#ffffff;fill-opacity:1;stroke:none" />
    <rect
       y="11.991526"
       x="5"
       height="2.0169492"
       width="2"
       id="rect3028-45"
       style="fill:#ffffff;fill-opacity:1;stroke:none" />
    <rect
       transform="matrix(0.69846971,-0.71563962,0.69430065,0.71968508,0,0)"
       y="23.693245"
       x="-13.588974"
       height="1.380192"
       width="29.515612"
       id="rect3094"
       style="fill:#ff0000;fill-opacity:1;stroke:none" />
  </g>
</svg>
