<?xml version="1.0" encoding="UTF-8" standalone="no"?>
<!-- Created with Inkscape (http://www.inkscape.org/) -->

<svg
   xmlns:dc="http://purl.org/dc/elements/1.1/"
   xmlns:cc="http://creativecommons.org/ns#"
   xmlns:rdf="http://www.w3.org/1999/02/22-rdf-syntax-ns#"
   xmlns:svg="http://www.w3.org/2000/svg"
   xmlns="http://www.w3.org/2000/svg"
   xmlns:xlink="http://www.w3.org/1999/xlink"
   xmlns:sodipodi="http://sodipodi.sourceforge.net/DTD/sodipodi-0.dtd"
   xmlns:inkscape="http://www.inkscape.org/namespaces/inkscape"
   id="svg2985"
   version="1.1"
   inkscape:version="0.48.2 r9819"
   width="512"
   height="512"
   sodipodi:docname="advanced.svg">
  <metadata
     id="metadata2991">
    <rdf:RDF>
      <cc:Work
         rdf:about="">
        <dc:format>image/svg+xml</dc:format>
        <dc:type
           rdf:resource="http://purl.org/dc/dcmitype/StillImage" />
        <dc:title />
      </cc:Work>
    </rdf:RDF>
  </metadata>
  <defs
     id="defs2989">
    <linearGradient
       inkscape:collect="always"
       id="linearGradient3765">
      <stop
         style="stop-color:#b0b0b0;stop-opacity:1;"
         offset="0"
         id="stop3767" />
      <stop
         style="stop-color:#b0b0b0;stop-opacity:0;"
         offset="1"
         id="stop3769" />
    </linearGradient>
    <linearGradient
       inkscape:collect="always"
       xlink:href="#linearGradient3765"
       id="linearGradient2990"
       gradientUnits="userSpaceOnUse"
       x1="24.677965"
       y1="24.20339"
       x2="2.8474576"
       y2="2.8474576" />
  </defs>
  <sodipodi:namedview
     pagecolor="#ffffff"
     bordercolor="#666666"
     borderopacity="1"
     objecttolerance="10"
     gridtolerance="10"
     guidetolerance="10"
     inkscape:pageopacity="0"
     inkscape:pageshadow="2"
     inkscape:window-width="1680"
     inkscape:window-height="988"
     id="namedview2987"
     showgrid="false"
     inkscape:zoom="0.65186407"
     inkscape:cx="26.271186"
     inkscape:cy="16"
     inkscape:window-x="1358"
     inkscape:window-y="-8"
     inkscape:window-maximized="1"
     inkscape:current-layer="svg2985" />
  <g
     id="g3762"
     transform="matrix(16.534209,0,0,16.534209,2.5012562,0.8037896)">
    <path
       sodipodi:nodetypes="ccccccccccccccccccccccccccccccccc"
       inkscape:connector-curvature="0"
       id="path2995"
       d="M 4.474576,13.694916 6.237288,9.6271186 3.59322,6.1694915 6.372881,3.2542373 l 3.186441,2.779661 4,-1.220339 -3e-6,-4.33898305 4.135593,0.0677966 0,4.00000005 3.593221,1.7627118 3.050847,-2.8474576 2.644068,2.5084746 -2.508475,3.5932203 1.898305,3.118644 3.864408,0.338983 0.0678,4.338983 -3.932204,-0.0678 -0.813559,4.067796 2.237288,3.186441 -2.983051,2.576271 -2.983051,-2.847458 -4.067796,2.169492 -0.135593,4.20339 -4.338983,-0.135593 0.135593,-4.135594 -3.864407,-2.101695 -3.389831,3.593221 -3.050847,-3.322034 3.525424,-3.050848 -2.169492,-3.661017 -4.135593,-0.135592 0,-4 z"
       style="fill:url(#linearGradient2990);fill-opacity:1;stroke:#828282;stroke-width:1px;stroke-linecap:butt;stroke-linejoin:round;stroke-opacity:1" />
    <path
       transform="matrix(0.98442974,0,0,0.90396693,-3.5964004,1.5104863)"
       d="m 23.457626,15.728813 c 0,2.508683 -1.821214,4.542373 -4.067796,4.542373 -2.246582,0 -4.067797,-2.03369 -4.067797,-4.542373 0,-2.508683 1.821215,-4.542373 4.067797,-4.542373 2.246582,0 4.067796,2.03369 4.067796,4.542373 z"
       sodipodi:ry="4.5423727"
       sodipodi:rx="4.0677967"
       sodipodi:cy="15.728813"
       sodipodi:cx="19.38983"
       id="path3773"
       style="fill:#ffffff;fill-opacity:1;stroke:#828282;stroke-width:1.35399997;stroke-linecap:butt;stroke-linejoin:round;stroke-miterlimit:4;stroke-opacity:1;stroke-dasharray:none"
       sodipodi:type="arc" />
  </g>
</svg>
