<?xml version="1.0" encoding="UTF-8" standalone="no"?>
<!-- Created with Inkscape (http://www.inkscape.org/) -->

<svg
   xmlns:dc="http://purl.org/dc/elements/1.1/"
   xmlns:cc="http://creativecommons.org/ns#"
   xmlns:rdf="http://www.w3.org/1999/02/22-rdf-syntax-ns#"
   xmlns:svg="http://www.w3.org/2000/svg"
   xmlns="http://www.w3.org/2000/svg"
   xmlns:xlink="http://www.w3.org/1999/xlink"
   xmlns:sodipodi="http://sodipodi.sourceforge.net/DTD/sodipodi-0.dtd"
   xmlns:inkscape="http://www.inkscape.org/namespaces/inkscape"
   id="svg2985"
   version="1.1"
   inkscape:version="0.48.2 r9819"
   width="16"
   height="16"
   sodipodi:docname="font.png">
  <metadata
     id="metadata2991">
    <rdf:RDF>
      <cc:Work
         rdf:about="">
        <dc:format>image/svg+xml</dc:format>
        <dc:type
           rdf:resource="http://purl.org/dc/dcmitype/StillImage" />
        <dc:title></dc:title>
      </cc:Work>
    </rdf:RDF>
  </metadata>
  <defs
     id="defs2989">
    <linearGradient
       inkscape:collect="always"
       id="linearGradient3943">
      <stop
         style="stop-color:#3d6eaa;stop-opacity:1;"
         offset="0"
         id="stop3945" />
      <stop
         style="stop-color:#3d6eaa;stop-opacity:0;"
         offset="1"
         id="stop3947" />
    </linearGradient>
    <linearGradient
       inkscape:collect="always"
       xlink:href="#linearGradient3943"
       id="linearGradient3949"
       x1="10.237288"
       y1="10.101695"
       x2="-3.2542372"
       y2="-3.5254238"
       gradientUnits="userSpaceOnUse" />
  </defs>
  <sodipodi:namedview
     pagecolor="#ffffff"
     bordercolor="#666666"
     borderopacity="1"
     objecttolerance="10"
     gridtolerance="10"
     guidetolerance="10"
     inkscape:pageopacity="0"
     inkscape:pageshadow="2"
     inkscape:window-width="1680"
     inkscape:window-height="988"
     id="namedview2987"
     showgrid="false"
     inkscape:zoom="29.5"
     inkscape:cx="7.77351"
     inkscape:cy="8.2250669"
     inkscape:window-x="1358"
     inkscape:window-y="-8"
     inkscape:window-maximized="1"
     inkscape:current-layer="svg2985" />
  <g
     id="g3951">
    <rect
       y="0.48496595"
       x="0.48622677"
       height="15.042471"
       width="15.027225"
       id="rect2995"
       style="fill:none;stroke:#888a85;stroke-width:0.96278173;stroke-linecap:butt;stroke-linejoin:round;stroke-miterlimit:4;stroke-opacity:1;stroke-dasharray:none" />
    <path
       id="path3765"
       d="M 2.5 1.875 C 2.1556713 1.875 1.875 2.15761 1.875 2.5 C 1.875 2.84239 2.1556713 3.125 2.5 3.125 C 2.8443287 3.125 3.125 2.84239 3.125 2.5 C 3.125 2.15761 2.8443287 1.875 2.5 1.875 z M 4.46875 1.875 C 4.1244213 1.875 3.84375 2.15761 3.84375 2.5 C 3.84375 2.84239 4.1244213 3.125 4.46875 3.125 C 4.8130787 3.125 5.09375 2.84239 5.09375 2.5 C 5.09375 2.15761 4.8130787 1.875 4.46875 1.875 z M 6.5 1.875 C 6.1556713 1.875 5.875 2.15761 5.875 2.5 C 5.875 2.84239 6.1556713 3.125 6.5 3.125 C 6.8443287 3.125 7.125 2.84239 7.125 2.5 C 7.125 2.15761 6.8443287 1.875 6.5 1.875 z M 8.5 1.875 C 8.4139178 1.875 8.32459 1.9061287 8.25 1.9375 C 8.02623 2.0316138 7.875 2.2432075 7.875 2.5 C 7.875 2.7567925 8.02623 2.9996362 8.25 3.09375 L 2.84375 13 L 2 13 L 2 14 L 6 14 L 6 13 L 5 13 L 6.65625 9.96875 L 9.46875 9.96875 L 9.9375 13 L 8 13 L 8 14 L 14 14 L 14 13 L 12.75 13 L 11.09375 1.9375 L 8.71875 1.9375 C 8.64416 1.9061287 8.5860822 1.875 8.5 1.875 z M 2.5 3.875 C 2.1556713 3.875 1.875 4.15761 1.875 4.5 C 1.875 4.84239 2.1556713 5.125 2.5 5.125 C 2.8443287 5.125 3.125 4.84239 3.125 4.5 C 3.125 4.15761 2.8443287 3.875 2.5 3.875 z M 2.5 5.90625 C 2.1556713 5.90625 1.875 6.18886 1.875 6.53125 C 1.875 6.87364 2.1556713 7.15625 2.5 7.15625 C 2.8443287 7.15625 3.125 6.87364 3.125 6.53125 C 3.125 6.18886 2.8443287 5.90625 2.5 5.90625 z M 8.84375 5.9375 L 9.3125 8.96875 L 7.1875 8.96875 L 8.84375 5.9375 z M 2.5 7.875 C 2.1556713 7.875 1.875 8.15761 1.875 8.5 C 1.875 8.84239 2.1556713 9.125 2.5 9.125 C 2.8443287 9.125 3.125 8.84239 3.125 8.5 C 3.125 8.15761 2.8443287 7.875 2.5 7.875 z M 2.5 9.875 C 2.1556713 9.875 1.875 10.15761 1.875 10.5 C 1.875 10.84239 2.1556713 11.125 2.5 11.125 C 2.8443287 11.125 3.125 10.84239 3.125 10.5 C 3.125 10.15761 2.8443287 9.875 2.5 9.875 z "
       style="fill:url(#linearGradient3949);fill-opacity:1;stroke:none" />
    <text
       transform="scale(0.86335932,1.1582663)"
       sodipodi:linespacing="125%"
       id="text3827"
       y="11.90209"
       x="4.3086348"
       style="font-size:23.50390434px;font-style:oblique;font-variant:normal;font-weight:normal;font-stretch:normal;line-height:125%;letter-spacing:0px;word-spacing:0px;fill:#000000;fill-opacity:1;stroke:none;font-family:FreeUniversal;-inkscape-font-specification:FreeUniversal"
       xml:space="preserve"><tspan
         y="11.90209"
         x="4.3086348"
         id="tspan3829"
         sodipodi:role="line" /></text>
  </g>
</svg>
