<?xml version="1.0" encoding="iso-8859-1"?>
<!-- Generator: Adobe Illustrator 15.1.0, SVG Export Plug-In . SVG Version: 6.00 Build 0)  -->
<!DOCTYPE svg PUBLIC "-//W3C//DTD SVG 1.1//EN" "http://www.w3.org/Graphics/SVG/1.1/DTD/svg11.dtd">
<svg version="1.1" xmlns="http://www.w3.org/2000/svg" xmlns:xlink="http://www.w3.org/1999/xlink" x="0px" y="0px" width="512px"
	 height="512px" viewBox="0 0 512 512" style="enable-background:new 0 0 512 512;" xml:space="preserve">
<g id="menu-file-open">
	<path style="fill:#999999;" d="M475.637,410.683l-84.831-84.861c-7.466-7.449-20.979-6.742-34.523,0.313l-37.015-36.993
		c48.218-63.002,43.67-153.448-13.968-211.092c-62.758-62.733-164.492-62.733-227.257,0c-62.724,62.766-62.724,164.503,0,227.266
		c57.657,57.638,148.1,62.188,211.095,13.955l37.009,36.99c-7.055,13.571-7.78,27.07-0.328,34.534l84.846,84.859
		c10.719,10.709,33.989,4.823,51.896-13.13C480.483,444.619,486.367,421.389,475.637,410.683z M101.947,281.432
		c-49.54-49.585-49.54-129.944,0-179.484c49.58-49.582,129.861-49.54,179.468,0c49.539,49.541,49.539,129.871,0,179.484
		C231.809,330.971,151.486,330.971,101.947,281.432z"/>
</g>
<g id="Ebene_1">
</g>
</svg>
