<?xml version="1.0" encoding="iso-8859-1"?>
<!-- Generator: Adobe Illustrator 15.1.0, SVG Export Plug-In . SVG Version: 6.00 Build 0)  -->
<!DOCTYPE svg PUBLIC "-//W3C//DTD SVG 1.1//EN" "http://www.w3.org/Graphics/SVG/1.1/DTD/svg11.dtd">
<svg version="1.1" xmlns="http://www.w3.org/2000/svg" xmlns:xlink="http://www.w3.org/1999/xlink" x="0px" y="0px" width="512px"
	 height="512px" viewBox="0 0 512 512" style="enable-background:new 0 0 512 512;" xml:space="preserve">
<g id="menu-edit-select-all">
	<path style="fill-rule:evenodd;clip-rule:evenodd;fill:#999999;" d="M371.056,456h-20.947v-22.223h20.947V456z M329.221,456
		h-20.942v-22.223h20.942V456z M287.391,456h-20.947v-22.223h20.947V456z M203.721,456h-20.942v-22.223h20.942V456z M161.892,456
		h-20.947v-22.223h20.947V456z M239.333,372.667h-100v-100h100V372.667z M56,56h22.222v22.222H56V56z M56,99.11h22.222v20.944H56
		V99.11z M56,140.945h22.222v20.944H56V140.945z M56,182.777h22.222v20.944H56V182.777z M56,224.612h22.222v20.944H56V224.612z
		 M56,266.443h22.222v20.947H56V266.443z M56,308.278h22.222v20.942H56V308.278z M56,350.108h22.222v20.947H56V350.108z M56,391.948
		h22.222v20.942H56V391.948z M56,433.777h22.222V456H56V433.777z M99.11,56h20.942v22.222H99.11V56z M99.11,433.777h20.942V456
		H99.11V433.777z M239.333,239.333h-100v-100h100V239.333z M140.945,56h20.947v22.222h-20.947V56z M182.779,56h20.942v22.222
		h-20.942V56z M224.609,56h20.947v22.222h-20.947V56z M224.609,433.777h20.947V456h-20.947V433.777z M266.443,56h20.947v22.222
		h-20.947V56z M308.278,56h20.942v22.222h-20.942V56z M350.108,56h20.947v22.222h-20.947V56z M272.667,139.333h100v100h-100V139.333
		z M272.667,272.667h100v100h-100V272.667z M391.948,56h20.942v22.222h-20.942V56z M391.948,433.777h20.942V456h-20.942V433.777z
		 M433.777,56H456v22.222h-22.223V56z M433.777,99.11H456v20.944h-22.223V99.11z M433.777,140.945H456v20.944h-22.223V140.945z
		 M433.777,182.777H456v20.944h-22.223V182.777z M433.777,224.612H456v20.944h-22.223V224.612z M433.777,266.443H456v20.947h-22.223
		V266.443z M433.777,308.278H456v20.942h-22.223V308.278z M433.777,350.108H456v20.947h-22.223V350.108z M433.777,391.948H456
		v20.942h-22.223V391.948z M433.777,456v-22.223H456V456H433.777z"/>
</g>
<g id="Ebene_1">
</g>
</svg>
