<?xml version="1.0" encoding="iso-8859-1"?>
<!-- Generator: Adobe Illustrator 15.1.0, SVG Export Plug-In . SVG Version: 6.00 Build 0)  -->
<!DOCTYPE svg PUBLIC "-//W3C//DTD SVG 1.1//EN" "http://www.w3.org/Graphics/SVG/1.1/DTD/svg11.dtd">
<svg version="1.1" xmlns="http://www.w3.org/2000/svg" xmlns:xlink="http://www.w3.org/1999/xlink" x="0px" y="0px" width="512px"
	 height="512px" viewBox="0 0 512 512" style="enable-background:new 0 0 512 512;" xml:space="preserve">
<g id="menu-view-refresh-views">
	<path style="fill-rule:evenodd;clip-rule:evenodd;fill:#999999;" d="M312.266,129.988c-30.399-13.407-64.811-15.51-96.776-5.379
		c-60.722,19.115-100.164,76.733-96.067,140.173l-41.438,2.703c-5.373-82.593,46.036-157.608,124.981-182.538
		c46.261-14.576,96.348-9.532,138.897,13.46l39.776-42.493l10.587,117.896l-124.886,4.153L312.266,129.988z M310.724,426.881
		c-17.501,5.485-35.676,8.252-53.737,8.252c-29.423,0-58.616-7.583-84.988-21.771l-39.83,42.554l-10.584-117.9l124.816-4.201
		l-44.872,48.029c30.36,13.354,64.763,15.457,96.736,5.374c60.714-19.172,100.212-76.846,96.059-140.166l41.446-2.719
		C441.197,326.823,389.784,401.897,310.724,426.881z"/>
</g>
<g id="Ebene_1">
</g>
</svg>
