<?xml version="1.0" encoding="iso-8859-1"?>
<!-- Generator: Adobe Illustrator 15.1.0, SVG Export Plug-In . SVG Version: 6.00 Build 0)  -->
<!DOCTYPE svg PUBLIC "-//W3C//DTD SVG 1.1//EN" "http://www.w3.org/Graphics/SVG/1.1/DTD/svg11.dtd">
<svg version="1.1" xmlns="http://www.w3.org/2000/svg" xmlns:xlink="http://www.w3.org/1999/xlink" x="0px" y="0px" width="512px"
	 height="512px" viewBox="0 0 512 512" style="enable-background:new 0 0 512 512;" xml:space="preserve">
<g id="menu-signed-in-m">
	<path style="fill:#FFFFFF;" d="M195,320.08c0,0,38,31.92,69,29.92s54.33-14.915,54.33-14.915S373,423,275,427
		S195,320.08,195,320.08z"/>
	<g>
		<g>
			<path style="fill-rule:evenodd;clip-rule:evenodd;fill:#999999;" d="M388.551,186.093c-1.079-10.436-4.259-20.251-9.817-27.906
				c4.207-21.031-2.764-60.593-24.204-90.55c-1.592-2.246-3.258-4.425-5.004-6.539c-2.393-2.832-4.896-5.561-7.56-8.147
				c-2.904-2.82-5.961-5.429-9.212-7.83c-3.349-2.518-6.928-4.824-10.7-6.818c-3.953-2.111-8.093-3.94-12.469-5.458
				c-4.628-1.564-9.49-2.741-14.591-3.533c-13.58-2.036-28.925-1.12-46.208,3.824c-4.846,1.357-9.854,3.104-14.982,5.135
				c-2.319,0.898-4.645,1.837-7.017,2.912c-2.026,0.01-3.978,0.096-5.869,0.22c-3.924,0.316-7.642,0.898-11.16,1.735
				c-3.403,0.851-6.635,1.883-9.702,3.148c-2.884,1.198-5.597,2.585-8.16,4.093c-1.902,1.168-3.772,2.382-5.537,3.706
				c-31.138,23.339-37.491,72.131-33.885,93.942c-5.844,6.989-9.723,16.098-11.763,25.983c-2.04,9.998-2.245,20.843-0.677,30.976
				c1.591,10.394,5.093,20.223,10.33,27.899c4.221,6.102,9.561,10.884,15.984,13.517c2.77,7.006,6.024,13.712,9.659,20.039
				c1.571,2.722,3.247,5.406,4.966,7.99c2.326,3.477,4.842,6.815,7.471,10.023c2.016,2.449,4.144,4.796,6.35,7.041l0.039-0.035
				c0,0,1.168,1.214,3.427,3.169c0.137,0.113,0.24,0.229,0.385,0.346c0,0,0.035,0.036,0.063,0.074
				c0.074,0.074,0.177,0.155,0.318,0.266c0.275,0.232,0.657,0.539,1.112,0.928c0.244,0.19,0.487,0.381,0.731,0.574
				c1.711,1.317,4.221,3.17,7.337,5.28c11.11,7.416,30.221,17.757,50.978,17.973c26.941,0.299,42.502-5.747,55.084-15.12
				c0.036,0.003,0.036,0.003,0.036,0.003c1.391-1.017,2.746-2.075,4.026-3.166c0.675-0.516,1.348-1.02,1.987-1.538
				c0.303-0.232,0.646-0.505,0.942-0.745c0.193-0.169,0.378-0.307,0.494-0.444c0.147-0.068,0.258-0.169,0.413-0.308
				c2.827-2.321,5.548-4.757,8.177-7.379c2.929-2.938,5.719-6.018,8.41-9.254c1.963-2.4,3.857-4.913,5.68-7.465
				c4.276-5.939,8.128-12.303,11.6-19.005c6.649-1.998,12.423-6.236,17.191-11.897c5.993-7.094,10.394-16.577,12.991-26.762
				C388.761,207.057,389.615,196.244,388.551,186.093z M306.027,105.834"/>
			<path style="fill-rule:evenodd;clip-rule:evenodd;fill:#FFFFFF;" d="M183.957,138.12c0.13-1.264,0.236-2.453,0.345-3.639
				c0.106-0.971,0.138-1.927,0.187-2.774c1.881-14.012,5.668-26.117,12.141-35.501c8.724-12.588,29.875-9.917,51.389,1.182
				c20.52,10.557,36.231,26.473,55.283,39.344c0.042,0.029,0.116,0.053,0.166,0.117c2.367,1.574,4.803,3.134,7.305,4.644
				c13.023,7.775,27.906,13.838,46.918,15.924l-0.13,1.522l-7.058,14.332c0-0.018-4.119,12.903-4.346,12.97
				c-1.979,5.739-1.853,7.549-3.402,14.572l-1.315,26.797c2.057-1.344,4.139-3.497,5.654-6.444c1.21-2.343,2.021-5.1,2.215-8.315
				c2.192-39.514,29.315-63.339,27.008-14.735c-1.003,22.21-11.765,44.988-28.839,47.134c-0.555,1.144-1.147,2.262-1.74,3.381
				c-1.785,3.568-3.766,7.059-5.806,10.412c-2.665,4.256-5.505,8.314-8.563,12.197c-3.18,4.002-6.578,7.788-10.139,11.237
				c-3.622,3.522-7.44,6.712-11.488,9.605l-0.031,0.266c-47.349,38.642-98.672-3.477-100.744-5.058l0.014-0.113
				c-3.755-3.254-7.277-6.839-10.545-10.684c-3.23-3.815-6.208-7.884-8.958-12.176c-2.65-4.119-5.086-8.459-7.324-12.98
				c-1.753-3.526-3.349-7.193-4.842-10.909c-0.441-1.179-0.883-2.351-1.316-3.529c-16.719-3.759-25.231-27.232-24.215-49.335
				c2.22-48.263,27.582-23.933,25.855,16.898c-0.109,2.833,0.296,5.403,1.073,7.584c1.133,3.296,2.993,5.827,4.973,7.527
				l0.991-19.975L183.957,138.12z"/>
			<path style="fill-rule:evenodd;clip-rule:evenodd;fill:#FFFFFF;" d="M183.024,175.389"/>
			<path style="fill-rule:evenodd;clip-rule:evenodd;fill:#219395;" d="M318.33,301.786l-0.007,0.145
				c-1.09,0.883-2.446,1.903-4.02,3.021C315.694,303.936,317.05,302.877,318.33,301.786z"/>
			<path style="fill-rule:evenodd;clip-rule:evenodd;fill:#999999;" d="M452.061,474.773c6.262-11.007,10.358-22.157,11.178-33.022
				c4.595-62.931-65.827-72.097-115.093-95.569c-2.509-1.192-4.881-2.479-7.009-3.826c-1.812-1.168-3.593-2.371-5.125-3.646
				c-2.976-2.345-5.487-4.842-7.595-7.542c-2.609-3.254-4.634-6.801-6.126-10.518c-4.339,3.028-8.65,5.615-12.972,7.843
				c-43.932,22.619-84.48,4.845-103.63-6.854c-6.952-4.27-11.071-7.673-11.594-8.124c-0.039-0.031-0.039-0.031-0.039-0.031
				c-1.938,3.906-4.39,7.51-7.528,10.763c-2.367,2.429-5.152,4.723-8.333,6.777c-1.69,1.076-3.525,2.162-5.488,3.127
				c-2.265,1.143-4.69,2.155-7.341,3.131c-51.333,18.553-122.321,20.843-123.805,83.911c-0.306,11.831,4.283,57.138,10.512,78.308
				c51.485-26.466,108.461-44.35,169.324-51.588C302.11,438.313,380.633,448.555,452.061,474.773z M254.012,421.03
				c-15.599,0.074-36.559-21.889-36.559-21.889c-6.787-9.35-9.614-12.902-12.935-21.242c-4.235-10.528-7.556-20.686-9.621-29.499
				c-0.79-3.256-1.412-6.352-1.817-9.139c0.812-0.823,1.588-1.646,2.365-2.469c0.737-0.851,1.479-1.666,2.135-2.545
				c55.928,37.242,101.932,15.826,117.663,6.093c0.971,1.45,1.905,2.869,2.934,4.164c0.602,0.801,1.199,1.535,1.874,2.292
				c-0.644,2.546-1.421,5.225-2.394,8.034c-2.877,8.566-7.14,18.317-12.431,28.302c-4.102,7.768-9.388,16.217-18.882,25.429
				C286.344,408.562,269.658,420.953,254.012,421.03z"/>
			<path style="display:none;fill:#219395;" d="M350.4,170.124c-0.095-1.705-0.353-3.166-0.776-4.161
				c-0.455-1.038-1.073-1.684-1.895-1.902c-0.322-0.123-0.644-0.141-1.01-0.123c-0.938,0.063-4.55-0.876-9.127-2.072
				c-7.181-1.832-16.687-4.32-24.08-4.757c-1.228-0.1-2.816-0.138-4.662-0.117l-0.562,11.586c5.104-0.112,9.894,0.41,13.82,1.468
				c4.177,1.147,7.137,2.739,8.093,4.635c1.256,2.59,1.831,5.473,1.761,8.403c-0.053,3.434-0.991,6.97-2.806,10.136
				c-1.825,3.208-4.492,6.08-8.032,8.149c-3.879,2.312-8.721,3.66-14.537,3.596l-0.07-0.003l-0.564,11.513
				c12.385,0.536,20.22-2.845,25.408-7.585c5.331-4.806,7.798-10.838,9.623-15.631c2.117-5.58,3.882-6.833,5.133-7.242
				c0.261-0.095,0.479-0.159,0.696-0.18h0.036c0.29-0.092,0.586-0.155,0.88-0.247c1.214-0.448,2.512-5.523,2.681-10.472
				C350.495,173.346,350.51,171.577,350.4,170.124z M289.687,171.651c4.026-1.726,9.563-2.541,15.663-2.968
				c0.981-0.06,1.997-0.116,2.939-0.106l0.562-11.586c-4.666,0.025-10.905,0.336-16.8,0.985c-6.296,0.671-12.278,1.726-15.786,3.18
				c-3.586,1.486-7.63,2.125-11.637,1.931c-4.005-0.198-7.979-1.226-11.36-3.057c-3.346-1.786-9.204-3.41-15.398-4.694
				c-5.841-1.221-12.021-2.139-16.662-2.619l-0.561,11.59c0.97,0.081,1.938,0.236,2.912,0.392
				c6.024,1.016,11.459,2.371,15.303,4.475c3.38,1.864,5.466,4.281,5.519,7.688c0.004,0.684-0.032,1.404-0.066,2.131
				c-0.307,4.069-1.723,9.43-5.055,13.827c-3.285,4.327-8.484,7.765-16.523,7.984c-1.267,0.052-2.538,0.024-3.868-0.117
				l-0.561,11.519l0.543,0.025c22.485,1.094,30.186-11.34,34.389-18.155c0.504-0.772,0.904-1.471,1.37-2.099
				c1.165-1.642,2.019-3.487,2.858-5.249c1.531-3.256,2.946-6.193,6.304-6.027c3.388,0.163,4.51,3.219,5.725,6.607
				c0.631,1.846,1.333,3.755,2.332,5.509c0.367,0.667,0.724,1.408,1.122,2.224c3.52,7.193,10.006,20.318,32.493,21.412l0.51,0.021
				l0.564-11.513c-1.311,0.007-2.605-0.088-3.825-0.258c-7.991-1.005-12.857-4.934-15.709-9.557
				c-2.88-4.698-3.741-10.168-3.649-14.255c0-0.724,0.031-1.443,0.105-2.125C283.856,175.382,286.175,173.18,289.687,171.651z
				 M206.741,164.423c4.017-0.67,8.87-0.723,13.906-0.116l0.561-11.59c-1.835-0.198-3.419-0.311-4.651-0.336
				c-7.408-0.289-17.103,1.267-24.397,2.393c-4.701,0.745-8.351,1.327-9.318,1.172c-0.359-0.053-0.685-0.067-0.981,0.028
				c-0.833,0.103-1.514,0.724-2.072,1.708c-0.55,0.95-0.911,2.375-1.207,4.065c-0.215,1.434-0.377,3.201-0.498,4.97l-0.021,0.469
				c-0.232,4.799,0.544,9.652,1.669,10.214c0.322,0.123,0.572,0.201,0.894,0.328c0.568,0.173,1.352,0.427,2.174,1.377l-0.003,0.035
				c0.928,1.02,1.923,2.912,2.939,6.547c1.348,4.948,3.215,11.191,8.022,16.492c4.74,5.22,12.172,9.346,24.55,10.026l0.561-11.519
				l-0.036,0.003c-5.802-0.501-10.52-2.322-14.155-4.997c-3.287-2.404-5.708-5.527-7.2-8.891c-1.469-3.328-2.093-6.938-1.811-10.362
				c0.247-2.919,1.112-5.739,2.601-8.199C199.369,166.449,202.51,165.157,206.741,164.423z"/>
		</g>
		<path style="fill:#999999;" d="M304.379,249.134c-23.046-17.795-37.449-7.242-39.179-5.834
			c-1.719-1.422-16.008-12.123-39.23,5.435c-8.492,6.419-20.438,1.497-20.438,1.497c38.134,39.256,57.646-1.761,59.666-6.363
			c1.976,4.624,21.076,45.832,59.605,6.963C324.803,250.831,312.807,255.635,304.379,249.134z"/>
	</g>
</g>
<g id="Ebene_1">
</g>
</svg>
