<svg class="svg-icon" style="width: 1em; height: 1em;vertical-align: middle;fill: currentColor;overflow: hidden;" viewBox="0 0 1024 1024" version="1.1" xmlns="http://www.w3.org/2000/svg"><path d="M771.413333 759.466667c-19.626667 5.546667-37.12 8.533333-52.48 8.533333-51.2 0-85.76-37.546667-103.253333-113.066667h-2.133333c-42.24 81.493333-101.546667 122.026667-176.213334 122.026667-55.893333 0-100.693333-20.906667-134.4-63.146667S252.586667 618.666667 252.586667 554.666667c0-74.666667 19.2-134.4 57.173333-180.906667 37.973333-46.506667 89.6-69.973333 154.88-69.973333 34.986667 0 66.56 9.813333 93.866667 29.013333 27.306667 19.626667 48.213333 46.933333 62.72 82.346667h1.706666l30.293334-102.4h109.226666l-91.306666 226.986666c10.24 52.906667 20.906667 89.173333 32.853333 108.373334 10.24 19.2 24.746667 29.013333 42.666667 29.013333 10.24 0 18.346667-1.706667 25.6-4.693333l-0.853334 87.04m-181.76-223.573334c-8.96-48.213333-23.466667-85.76-43.093333-111.36-19.2-26.026667-42.666667-38.826667-69.546667-38.826666-34.986667 0-63.146667 15.786667-84.053333 46.933333-20.906667 31.573333-30.293333 70.4-30.293333 116.053333 0 41.813333 8.106667 76.373333 26.453333 104.533334 17.92 28.16 42.24 41.813333 72.533333 41.813333 25.6 0 49.066667-12.373333 69.973334-35.84 21.333333-24.32 38.826667-59.733333 52.906666-106.24l5.12-17.066667z" fill="" /></svg>