<?xml version="1.0" encoding="UTF-8" standalone="no"?>
<!-- Created with Inkscape (http://www.inkscape.org/) -->

<svg
   xmlns:dc="http://purl.org/dc/elements/1.1/"
   xmlns:cc="http://creativecommons.org/ns#"
   xmlns:rdf="http://www.w3.org/1999/02/22-rdf-syntax-ns#"
   xmlns:svg="http://www.w3.org/2000/svg"
   xmlns="http://www.w3.org/2000/svg"
   xmlns:sodipodi="http://sodipodi.sourceforge.net/DTD/sodipodi-0.dtd"
   xmlns:inkscape="http://www.inkscape.org/namespaces/inkscape"
   id="svg2"
   version="1.1"
   inkscape:version="0.48.2 r9819"
   width="20"
   height="20"
   sodipodi:docname="cas-keyboard.svg">
  <metadata
     id="metadata8">
    <rdf:RDF>
      <cc:Work
         rdf:about="">
        <dc:format>image/svg+xml</dc:format>
        <dc:type
           rdf:resource="http://purl.org/dc/dcmitype/StillImage" />
        <dc:title></dc:title>
      </cc:Work>
    </rdf:RDF>
  </metadata>
  <defs
     id="defs6" />
  <sodipodi:namedview
     pagecolor="#ffffff"
     bordercolor="#666666"
     borderopacity="1"
     objecttolerance="10"
     gridtolerance="10"
     guidetolerance="10"
     inkscape:pageopacity="0"
     inkscape:pageshadow="2"
     inkscape:window-width="1858"
     inkscape:window-height="1058"
     id="namedview4"
     showgrid="false"
     inkscape:zoom="23.6"
     inkscape:cx="4.9364407"
     inkscape:cy="10"
     inkscape:window-x="54"
     inkscape:window-y="-8"
     inkscape:window-maximized="1"
     inkscape:current-layer="svg2" />
  <g
     id="g3045">
    <g
       id="text2987"
       style="font-size:5.53881216px;font-style:normal;font-variant:normal;font-weight:normal;font-stretch:normal;line-height:125%;letter-spacing:0px;word-spacing:0px;fill:#000000;fill-opacity:1;stroke:none;font-family:FreeUniversal;-inkscape-font-specification:FreeUniversal">
      <path
         style=""
         id="path3019"
         d="M 5.6615466,3.9226532 C 5.6615438,4.2147408 5.6444153,4.4761753 5.6101612,4.7069576 5.5759014,4.9377425 5.5127966,5.1649202 5.4208463,5.3884911 5.3288909,5.6120634 5.1891586,5.7860526 5.0016491,5.9104593 4.8141352,6.0348662 4.5833516,6.0970696 4.3092976,6.0970697 3.9559087,6.0970696 3.6935726,6.0141317 3.5222886,5.8482558 3.3510032,5.6823803 3.2437249,5.4227487 3.2004533,5.0693604 l 0.5300817,0 c 0.014423,0.2199665 0.071217,0.3750243 0.1703834,0.4651736 0.099164,0.09015 0.238896,0.1352253 0.4191972,0.135225 0.2055401,3e-7 0.3714158,-0.087445 0.4976276,-0.2623364 C 4.943951,5.2325325 5.0241844,5.0387104 5.0584436,4.8259555 5.0926983,4.6132031 5.1116297,4.4202824 5.115238,4.2471929 l 0.00541,-0.2650408 c -0.032456,0.043274 -0.06491,0.086546 -0.097362,0.1298159 -0.032456,0.043274 -0.065812,0.083841 -0.1000665,0.1217024 -0.034259,0.037865 -0.073023,0.072122 -0.1162934,0.102771 -0.043274,0.030653 -0.08925,0.057698 -0.1379294,0.081135 -0.048683,0.023441 -0.1072801,0.041471 -0.1757924,0.05409 C 4.4246879,4.4842888 4.348962,4.4905993 4.2660256,4.4905978 4.0676945,4.4905993 3.8946068,4.4608499 3.746762,4.4013493 3.5989153,4.3418521 3.484425,4.2679292 3.4032907,4.1795805 3.3221553,4.0912355 3.2563459,3.9857602 3.2058623,3.8631542 3.155378,3.7405526 3.1229241,3.6296683 3.1085004,3.5305009 3.0940761,3.4313386 3.0868642,3.3276663 3.0868644,3.2194837 c -2e-7,-0.140631 0.01803,-0.2776588 0.05409,-0.4110838 C 3.177014,2.6749814 3.2374144,2.5397566 3.3221558,2.4027252 3.4068961,2.2657011 3.5358104,2.1548168 3.708899,2.0700719 3.8819858,1.985335 4.0893305,1.9429646 4.3309336,1.9429605 c 0.1730862,4.1e-6 0.3254394,0.01533 0.4570601,0.045976 0.1316169,0.030655 0.2443042,0.070321 0.3380623,0.1189979 0.093754,0.048685 0.1730854,0.1190017 0.2379958,0.2109509 0.064905,0.091957 0.1171923,0.1857124 0.1568609,0.2812678 0.039663,0.095562 0.069413,0.218166 0.089249,0.3678117 0.01983,0.1496518 0.033353,0.2947931 0.040567,0.4354242 0.00721,0.1406364 0.010815,0.3137241 0.010818,0.5192637 z M 4.8880602,3.8550407 C 4.9998439,3.7126061 5.0557368,3.500754 5.0557391,3.2194837 5.0557368,2.9382189 4.9998439,2.7263668 4.8880602,2.5839266 4.7762723,2.4414933 4.5977756,2.3702749 4.3525695,2.3702712 4.1037544,2.3702749 3.9252577,2.4414933 3.8170789,2.5839266 3.7088981,2.7263668 3.6548082,2.9382189 3.654809,3.2194837 c -8e-7,0.2812703 0.054089,0.4931224 0.1622699,0.635557 0.1081788,0.1424389 0.2866755,0.2136573 0.5354906,0.2136554 0.2452061,1.9e-6 0.4237028,-0.071217 0.5354907,-0.2136554 z" />
    </g>
    <g
       id="text2987-1"
       style="font-size:5.53881216px;font-style:normal;font-variant:normal;font-weight:normal;font-stretch:normal;line-height:125%;letter-spacing:0px;word-spacing:0px;fill:#000000;fill-opacity:1;stroke:none;font-family:FreeUniversal;-inkscape-font-specification:FreeUniversal">
      <path
         id="path3028"
         style=""
         d="m 11.865233,5.0044522 c -3e-6,0.1947247 -0.04057,0.3660094 -0.121703,0.5138546 -0.08114,0.1478463 -0.187514,0.2614351 -0.31913,0.3407668 -0.131622,0.079332 -0.269551,0.1388309 -0.413789,0.1784969 -0.144241,0.039666 -0.29389,0.059499 -0.448946,0.059499 -0.15506,0 -0.306511,-0.019833 -0.454356,-0.059499 C 9.9594622,5.9979045 9.8188284,5.9384056 9.6854074,5.8590736 9.5519849,5.7797419 9.4447066,5.6661531 9.3635721,5.5183068 9.2824369,5.3704616 9.2418694,5.1991769 9.2418697,5.0044522 9.2418694,4.8169415 9.2815354,4.6456568 9.3608676,4.4905975 9.4401991,4.3355413 9.5267429,4.219248 9.6204994,4.1417173 9.7142546,4.0641903 9.8007985,4.0055929 9.8801312,3.9659249 L 9.9991291,3.9064259 C 9.9738862,3.8956101 9.9387277,3.8766786 9.8936537,3.8496315 9.8485779,3.8225887 9.780064,3.7712033 9.6881119,3.6954751 9.5961583,3.6197515 9.519531,3.5151777 9.4582295,3.3817533 9.3969272,3.2483342 9.3662762,3.0986854 9.3662766,2.9328066 9.3662762,2.6190882 9.487077,2.3765852 9.7286793,2.2052966 9.9702802,2.0340157 10.247942,1.9483734 10.561665,1.9483693 c 0.310114,4.1e-6 0.585972,0.085646 0.827576,0.2569273 0.241599,0.1712886 0.3624,0.4137916 0.362403,0.72751 -3e-6,0.1658788 -0.03426,0.3164291 -0.102771,0.4516512 -0.06852,0.1352274 -0.143341,0.2379982 -0.224473,0.3083128 -0.08114,0.070319 -0.155962,0.1235076 -0.224474,0.1595654 l -0.102771,0.05409 c 0.02163,0.00721 0.04958,0.018934 0.08384,0.035159 0.03425,0.016229 0.09556,0.054994 0.183906,0.1162934 0.08834,0.061304 0.165873,0.1298178 0.232587,0.2055419 0.06671,0.075728 0.12801,0.1794 0.183905,0.3110173 0.05589,0.1316202 0.08384,0.2749585 0.08384,0.4300152 z M 11.248607,3.0409865 c -2e-6,-0.2055386 -0.0604,-0.3678083 -0.181201,-0.4868096 C 10.946603,2.4351826 10.778023,2.3756837 10.561665,2.37568 c -0.216361,3.7e-6 -0.384942,0.059503 -0.505741,0.1784969 -0.1208023,0.1190013 -0.1812026,0.281271 -0.1812018,0.4868096 -8e-7,0.1983327 0.06671,0.3578979 0.2001328,0.4786962 0.133421,0.1208033 0.295691,0.1812037 0.48681,0.1812014 0.191116,2.3e-6 0.353386,-0.060398 0.486809,-0.1812014 0.13342,-0.1207983 0.200131,-0.2803635 0.200133,-0.4786962 z m 0.08113,1.8498768 c -2e-6,-0.2307825 -0.06761,-0.4155897 -0.202837,-0.5544222 -0.135227,-0.138829 -0.32364,-0.2082444 -0.56524,-0.2082463 -0.241603,1.9e-6 -0.434524,0.070319 -0.5787629,0.2109508 -0.1442407,0.1406355 -0.2163606,0.3245412 -0.2163598,0.5517177 -8e-7,0.2379967 0.064907,0.4273114 0.1947239,0.5679446 0.1298148,0.1406343 0.3299478,0.2109512 0.6003988,0.2109508 0.266842,4e-7 0.461565,-0.070316 0.584171,-0.2109508 C 11.268438,5.3181747 11.32974,5.12886 11.329742,4.8908633 z" />
    </g>
    <g
       id="text2987-4"
       style="font-size:5.53881216px;font-style:normal;font-variant:normal;font-weight:normal;font-stretch:normal;line-height:125%;letter-spacing:0px;word-spacing:0px;fill:#000000;fill-opacity:1;stroke:none;font-family:FreeUniversal;-inkscape-font-specification:FreeUniversal">
      <path
         id="path3037"
         style=""
         d="m 17.334946,2.6515387 -1.303568,3.4455306 -0.605808,0 1.411748,-3.5537106 -1.968874,0 0,-0.4435377 2.466502,0 z" />
    </g>
    <g
       id="text2987-9"
       style="font-size:5.53881216px;font-style:normal;font-variant:normal;font-weight:normal;font-stretch:normal;line-height:125%;letter-spacing:0px;word-spacing:0px;fill:#000000;fill-opacity:1;stroke:none;font-family:FreeUniversal;-inkscape-font-specification:FreeUniversal">
      <path
         id="path3022"
         style=""
         d="m 5.6941208,10.385823 c -2.8e-6,0.201937 -0.032457,0.384039 -0.097362,0.546309 -0.090153,0.23439 -0.2416043,0.416492 -0.4543557,0.546308 C 4.9404653,11.601044 4.7114846,11.660543 4.4554607,11.656937 4.1669796,11.653331 3.909151,11.572196 3.6819742,11.413532 3.4511898,11.251263 3.28892,11.034903 3.1951645,10.764453 3.1410743,10.609396 3.1104234,10.430899 3.1032116,10.228962 3.0959994,10.027028 3.1014084,9.844925 3.1194386,9.6826534 3.1518923,9.1706042 3.1825432,8.8280348 3.2113915,8.6549441 3.2438451,8.4854653 3.2871171,8.3376196 3.3412074,8.2114064 3.4097208,8.063564 3.4998707,7.9391573 3.6116573,7.8381857 3.7234423,7.7336156 3.8568641,7.6524807 4.011923,7.5947809 4.1561616,7.5406949 4.3094163,7.510044 4.4716877,7.5028279 c 0.230782,-0.010814 0.4291116,0.027049 0.5949895,0.1135889 0.1442376,0.079336 0.2614324,0.1965307 0.3515848,0.3515848 0.1045713,0.1694853 0.1604642,0.3588 0.1676789,0.5679446 l -0.5300816,0 C 5.063069,8.4025275 5.0306151,8.2817267 4.9584973,8.1735435 4.9044053,8.090609 4.8358914,8.0275041 4.7529555,7.9842286 4.6664097,7.9373543 4.5690479,7.9193243 4.4608697,7.9301386 4.3346583,7.9409603 4.2156605,7.9896412 4.1038759,8.0761815 4.0065128,8.1519109 3.923575,8.2492727 3.8550621,8.3682673 3.7504873,8.5593882 3.6891854,8.8316407 3.6711562,9.1850258 3.6639434,9.3220559 3.6603374,9.4680987 3.6603382,9.6231544 3.7216393,9.5294006 3.7865472,9.4446597 3.8550621,9.3689316 3.937999,9.285996 4.0245428,9.2228911 4.1146939,9.1796168 c 0.1081786,-0.050482 0.2416003,-0.07392 0.4002657,-0.070317 0.1370261,0.00361 0.2704479,0.021638 0.4002658,0.05409 0.1442377,0.039668 0.2668414,0.097364 0.3678117,0.1730878 0.1550553,0.1190001 0.2668411,0.2902848 0.3353578,0.5138547 0.050481,0.1658777 0.075723,0.3443737 0.075726,0.5354907 z m -0.5625356,0 C 5.1315829,10.187494 5.108144,10.032437 5.0612682,9.9206492 5.0107821,9.7980471 4.9278443,9.7024883 4.8124544,9.6339724 4.7006667,9.5690665 4.5744569,9.5366126 4.4338247,9.5366105 4.2931893,9.5366126 4.1669796,9.5690665 4.0551949,9.6339724 3.936196,9.7024883 3.8514551,9.7980471 3.8009721,9.9206492 c -0.046879,0.1117878 -0.070318,0.2668448 -0.070317,0.4651738 -9e-7,0.198331 0.023438,0.351586 0.070317,0.459765 0.054089,0.12621 0.1388298,0.221769 0.2542228,0.286676 0.1117847,0.06491 0.2379944,0.09736 0.3786298,0.09736 0.1406322,1e-6 0.265039,-0.03245 0.3732207,-0.09736 0.1189959,-0.06491 0.2037367,-0.160466 0.2542228,-0.286676 0.046876,-0.108179 0.070315,-0.261434 0.070317,-0.459765 z" />
    </g>
    <g
       id="text2987-8"
       style="font-size:5.53881216px;font-style:normal;font-variant:normal;font-weight:normal;font-stretch:normal;line-height:125%;letter-spacing:0px;word-spacing:0px;fill:#000000;fill-opacity:1;stroke:none;font-family:FreeUniversal;-inkscape-font-specification:FreeUniversal">
      <path
         id="path3031"
         style=""
         d="m 11.720989,10.277643 c 0.0036,0.3606 -0.121705,0.681534 -0.375925,0.962801 -0.254225,0.281268 -0.527379,0.421901 -0.819463,0.421902 -0.411085,-10e-7 -0.7329196,-0.09195 -0.9655056,-0.275859 C 9.3275082,11.202581 9.2112149,10.946556 9.2112152,10.618409 l 0.5841716,0 c -9e-7,0.198331 0.061301,0.34798 0.1839058,0.448947 0.1226024,0.100968 0.2848724,0.151452 0.4868094,0.151452 0.183904,0 0.346174,-0.08204 0.48681,-0.246109 0.140632,-0.164073 0.210949,-0.392152 0.210951,-0.684238 -2e-6,-0.6310481 -0.218165,-0.9465726 -0.654489,-0.9465748 -0.320935,2.2e-6 -0.5661424,0.1929229 -0.7356232,0.5787626 l -0.4976277,0 0.070317,-2.3258684 2.1203269,0 0,0.4597647 -1.5794273,0 -0.064908,1.2548871 c 0.021635,-0.018028 0.063104,-0.058595 0.124407,-0.1217024 0.061301,-0.063102 0.1108833,-0.1081774 0.1487473,-0.1352249 0.03786,-0.027042 0.103671,-0.054087 0.197428,-0.081135 0.09375,-0.027042 0.205541,-0.040565 0.335358,-0.040567 0.338962,2.6e-6 0.604904,0.1307199 0.797827,0.3921522 0.192918,0.2614368 0.291182,0.5796658 0.29479,0.9546883 z" />
    </g>
    <g
       id="text2987-2"
       style="font-size:5.53881216px;font-style:normal;font-variant:normal;font-weight:normal;font-stretch:normal;line-height:125%;letter-spacing:0px;word-spacing:0px;fill:#000000;fill-opacity:1;stroke:none;font-family:FreeUniversal;-inkscape-font-specification:FreeUniversal">
      <path
         id="path3040"
         style=""
         d="m 16.977922,10.688727 -0.492218,0 0,0.973619 -0.519264,0 0,-0.973619 -1.752515,0 0,-0.584172 1.660562,-2.4394573 0.611217,0 0,2.5638643 0.492218,0 z m -1.011482,-0.459765 0,-1.9580568 -1.308977,1.9580568 z" />
    </g>
    <g
       id="text2987-5"
       style="font-size:5.53881216px;font-style:normal;font-variant:normal;font-weight:normal;font-stretch:normal;line-height:125%;letter-spacing:0px;word-spacing:0px;fill:#000000;fill-opacity:1;stroke:none;font-family:FreeUniversal;-inkscape-font-specification:FreeUniversal">
      <path
         id="path3025"
         style=""
         d="m 5.6995298,16.193606 c -2.8e-6,0.328147 -0.1235081,0.601301 -0.3705162,0.819463 -0.2470131,0.218163 -0.5598331,0.327244 -0.9384609,0.327244 -0.4182968,0 -0.7356243,-0.111786 -0.9519833,-0.335357 C 3.2222092,16.781384 3.1140293,16.516344 3.1140296,16.209833 l 0.5895806,0 c 0.043271,0.46878 0.2776607,0.70317 0.7031695,0.70317 0.1875101,0 0.3578934,-0.06761 0.5111501,-0.202838 0.1532527,-0.135224 0.2298801,-0.291183 0.2298824,-0.467878 -2.3e-6,-0.569746 -0.3732227,-0.84921 -1.1196622,-0.838394 l 0,-0.443538 c 0.3461742,2e-6 0.6085103,-0.0595 0.7870089,-0.178497 0.1784948,-0.118995 0.2677431,-0.311916 0.2677453,-0.578762 -2.2e-6,-0.209145 -0.073024,-0.359695 -0.2190643,-0.451652 -0.1460448,-0.09195 -0.303807,-0.137925 -0.4732872,-0.137929 -0.3425709,4e-6 -0.5535216,0.230787 -0.6328525,0.692351 l -0.5625357,0 c 0.046878,-0.360596 0.1712844,-0.637356 0.3732208,-0.83028 0.2019349,-0.192917 0.4723845,-0.289378 0.8113494,-0.289382 0.3714159,4e-6 0.6734179,0.100071 0.9060069,0.3002 0.2325842,0.200136 0.3488775,0.451654 0.3488803,0.754554 -2.8e-6,0.126213 -0.026146,0.243408 -0.07843,0.351585 -0.05229,0.108183 -0.116296,0.193825 -0.1920194,0.256928 -0.075728,0.06311 -0.1550602,0.124409 -0.2379958,0.183905 -0.08294,0.0595 -0.153257,0.103675 -0.2109508,0.132521 0.02524,0.01443 0.07933,0.04327 0.1622698,0.08654 0.082936,0.04327 0.1532526,0.08564 0.2109509,0.127111 0.057694,0.04147 0.1216999,0.09826 0.1920194,0.170384 0.070314,0.07212 0.1244041,0.162271 0.1622698,0.270449 0.03786,0.108182 0.056792,0.232588 0.056794,0.373221 z" />
    </g>
    <g
       id="text2987-7"
       style="font-size:5.53881216px;font-style:normal;font-variant:normal;font-weight:normal;font-stretch:normal;line-height:125%;letter-spacing:0px;word-spacing:0px;fill:#000000;fill-opacity:1;stroke:none;font-family:FreeUniversal;-inkscape-font-specification:FreeUniversal">
      <path
         id="path3034"
         style=""
         d="m 11.587562,17.340313 -2.4124122,0 0,-0.513855 c 0.4687788,-0.522868 0.8410982,-0.938459 1.1169582,-1.246773 0.275857,-0.308311 0.468777,-0.546307 0.578762,-0.713988 0.109981,-0.167676 0.164972,-0.31462 0.164974,-0.440833 -2e-6,-0.241599 -0.04688,-0.419194 -0.140633,-0.532786 -0.09376,-0.113586 -0.250619,-0.17038 -0.470583,-0.170384 -0.194725,4e-6 -0.340768,0.0559 -0.4381288,0.167679 -0.097363,0.11179 -0.1604679,0.290286 -0.1893149,0.535491 l -0.5625356,0 c 0.057696,-0.775286 0.4543549,-1.16293 1.1899793,-1.162934 0.364204,4e-6 0.649077,0.110888 0.854621,0.332653 0.20554,0.221772 0.30831,0.47329 0.308313,0.754555 -3e-6,0.08655 -0.0072,0.165879 -0.02164,0.237996 -0.01443,0.07212 -0.03787,0.14875 -0.07032,0.229882 -0.03246,0.08114 -0.07663,0.164977 -0.13252,0.251519 -0.0559,0.08655 -0.126213,0.184809 -0.210951,0.29479 -0.08474,0.109985 -0.18481,0.229884 -0.300199,0.359698 -0.115394,0.129817 -0.249717,0.281269 -0.402971,0.454356 -0.153256,0.173089 -0.327245,0.364206 -0.5219677,0.573353 -0.061303,0.06852 -0.108181,0.120802 -0.1406339,0.156861 l 1.8011956,0 z" />
    </g>
    <g
       id="text2987-52"
       style="font-size:5.53881216px;font-style:normal;font-variant:normal;font-weight:normal;font-stretch:normal;line-height:125%;letter-spacing:0px;word-spacing:0px;fill:#000000;fill-opacity:1;stroke:none;font-family:FreeUniversal;-inkscape-font-specification:FreeUniversal">
      <path
         id="path3043"
         style=""
         d="m 16.483921,17.340313 -0.513855,0 0,-3.331942 c -0.205543,0.144243 -0.494023,0.297498 -0.865439,0.459765 l 0,-0.459765 c 0.158663,-0.09736 0.30741,-0.203735 0.446242,-0.319131 0.138829,-0.115388 0.237093,-0.202833 0.29479,-0.262336 0.05769,-0.0595 0.08654,-0.08744 0.08654,-0.08384 l 0.551718,0 z" />
    </g>
  </g>
</svg>
