<?xml version="1.0" encoding="UTF-8" standalone="no"?>
<!-- Created with Inkscape (http://www.inkscape.org/) -->

<svg
   xmlns:dc="http://purl.org/dc/elements/1.1/"
   xmlns:cc="http://creativecommons.org/ns#"
   xmlns:rdf="http://www.w3.org/1999/02/22-rdf-syntax-ns#"
   xmlns:svg="http://www.w3.org/2000/svg"
   xmlns="http://www.w3.org/2000/svg"
   xmlns:sodipodi="http://sodipodi.sourceforge.net/DTD/sodipodi-0.dtd"
   xmlns:inkscape="http://www.inkscape.org/namespaces/inkscape"
   id="svg2"
   version="1.1"
   inkscape:version="0.48.2 r9819"
   width="32"
   height="32"
   sodipodi:docname="cas.svg">
  <metadata
     id="metadata8">
    <rdf:RDF>
      <cc:Work
         rdf:about="">
        <dc:format>image/svg+xml</dc:format>
        <dc:type
           rdf:resource="http://purl.org/dc/dcmitype/StillImage" />
        <dc:title />
      </cc:Work>
    </rdf:RDF>
  </metadata>
  <defs
     id="defs6" />
  <sodipodi:namedview
     pagecolor="#ffffff"
     bordercolor="#666666"
     borderopacity="1"
     objecttolerance="10"
     gridtolerance="10"
     guidetolerance="10"
     inkscape:pageopacity="0"
     inkscape:pageshadow="2"
     inkscape:window-width="1858"
     inkscape:window-height="1058"
     id="namedview4"
     showgrid="false"
     inkscape:zoom="20.85965"
     inkscape:cx="10.271237"
     inkscape:cy="16"
     inkscape:window-x="54"
     inkscape:window-y="-8"
     inkscape:window-maximized="1"
     inkscape:current-layer="svg2" />
  <g
     id="g3030">
    <rect
       y="0.98318052"
       x="1.0067283"
       height="15.052985"
       width="10.019343"
       id="rect3021"
       style="fill:#dfeaf9;fill-opacity:1;stroke:none" />
    <rect
       y="17.042894"
       x="0.9827587"
       height="15.052985"
       width="10.019343"
       id="rect3021-0"
       style="fill:#dfeaf9;fill-opacity:1;stroke:none" />
    <rect
       y="-0.071487255"
       x="-5.2542539e-009"
       height="1.0546677"
       width="32.263245"
       id="rect2987"
       style="fill:#969595;fill-opacity:1;stroke:none" />
    <rect
       transform="matrix(0,1,-1,0,0,0)"
       y="-1.0546672"
       x="-0.095457226"
       height="1.0546677"
       width="32.263245"
       id="rect2987-1"
       style="fill:#969595;fill-opacity:1;stroke:none" />
    <rect
       y="15.988226"
       x="0.21572679"
       height="1.0546677"
       width="31.927668"
       id="rect2987-7"
       style="fill:#969595;fill-opacity:1;stroke:none" />
    <rect
       transform="matrix(0,1,-1,0,0,0)"
       y="-11.98486"
       x="0.28805798"
       height="1.0546677"
       width="31.78385"
       id="rect2987-4"
       style="fill:#969595;fill-opacity:1;stroke:none" />
    <g
       id="text3041"
       style="font-size:7.26741219px;font-style:normal;font-variant:normal;font-weight:normal;font-stretch:normal;line-height:125%;letter-spacing:0px;word-spacing:0px;fill:#000000;fill-opacity:1;stroke:none;font-family:FreeUniversal;-inkscape-font-specification:FreeUniversal">
      <path
         id="path3011"
         style=""
         d="m 6.3344625,10.709248 -0.6742228,0 0,-4.3718031 C 5.3905487,6.5267047 5.0120381,6.7277884 4.5247065,6.9406969 l 0,-0.603252 C 4.7328864,6.209702 4.928056,6.0701262 5.1102158,5.9187171 5.2923725,5.7673176 5.4213027,5.6525816 5.4970068,5.5745086 5.572707,5.4964459 5.6105581,5.4597777 5.6105601,5.4645038 l 0.7239024,0 z" />
    </g>
    <g
       id="text3041-9"
       style="font-size:7.0468173px;font-style:normal;font-variant:normal;font-weight:normal;font-stretch:normal;line-height:125%;letter-spacing:0px;word-spacing:0px;fill:#000000;fill-opacity:1;stroke:none;font-family:FreeUniversal;-inkscape-font-specification:FreeUniversal">
      <path
         id="path3014"
         style=""
         d="m 7.1340522,26.581335 -3.0692192,0 0,-0.653757 C 4.6612422,25.262352 5.1349292,24.733612 5.4858952,24.341356 5.8368576,23.949104 6.0823031,23.646311 6.2222326,23.432977 6.3621569,23.219649 6.4321203,23.032697 6.4321231,22.872122 6.4321203,22.564745 6.3724794,22.338797 6.2532,22.194278 6.1339155,22.049768 5.9343476,21.977511 5.6544958,21.977506 c -0.2477414,5e-6 -0.433546,0.07111 -0.5574142,0.213332 -0.1238712,0.142225 -0.2041571,0.369319 -0.240858,0.681284 l -0.7156924,0 c 0.073404,-0.986367 0.5780581,-1.479552 1.5139646,-1.479557 0.4633625,5e-6 0.8257961,0.141079 1.0873019,0.423222 0.2614996,0.282153 0.392251,0.602149 0.3922545,0.959991 -3.5e-6,0.110111 -0.00918,0.211042 -0.027527,0.302793 -0.018355,0.09176 -0.048175,0.189249 -0.089462,0.292471 -0.041293,0.103228 -0.097493,0.209893 -0.1686006,0.319997 -0.071114,0.110109 -0.160575,0.235126 -0.2683846,0.37505 -0.1078155,0.13993 -0.235126,0.292473 -0.381932,0.45763 -0.1468111,0.165162 -0.3177055,0.357848 -0.5126835,0.57806 -0.1949822,0.220214 -0.4163419,0.463366 -0.66408,0.729455 -0.077993,0.08717 -0.1376344,0.153691 -0.178923,0.199568 l 2.2915919,0 z" />
    </g>
    <g
       id="text3041-8"
       style="font-size:6.62961102px;font-style:normal;font-variant:normal;font-weight:normal;font-stretch:normal;line-height:125%;letter-spacing:0px;word-spacing:0px;fill:#000000;fill-opacity:1;stroke:none;font-family:FreeUniversal;-inkscape-font-specification:FreeUniversal">
      <path
         id="path3017"
         style=""
         d="m 19.5657,10.709248 -0.757485,0 -0.971134,-1.3077948 -0.938763,1.3077948 -0.699217,0 1.320743,-1.7156712 -1.217155,-1.5991347 0.757484,0 0.874021,1.184784 0.848124,-1.184784 0.692743,0 -1.230104,1.5991347 z" />
      <path
         id="path3019"
         style=""
         d="m 23.547351,9.3626079 -1.59266,0 0,-0.5438353 1.59266,0 z" />
      <path
         id="path3021"
         style=""
         d="m 28.318859,10.709248 -0.615052,0 0,-3.9881258 c -0.246022,0.1726499 -0.591314,0.3560863 -1.035876,0.5503095 l 0,-0.5503095 c 0.189909,-0.116532 0.36795,-0.2438584 0.534124,-0.3819795 0.16617,-0.1381124 0.283785,-0.242779 0.352845,-0.3140002 0.06906,-0.071212 0.103586,-0.1046619 0.103588,-0.1003505 l 0.660371,0 z" />
    </g>
    <g
       id="text3041-8-2"
       style="font-size:6.62961102px;font-style:normal;font-variant:normal;font-weight:normal;font-stretch:normal;line-height:125%;letter-spacing:0px;word-spacing:0px;fill:#000000;fill-opacity:1;stroke:none;font-family:FreeUniversal;-inkscape-font-specification:FreeUniversal">
      <path
         id="path3024"
         style=""
         d="m 17.297589,26.581335 -0.757485,0 -0.971134,-1.307794 -0.938764,1.307794 -0.699216,0 1.320742,-1.715671 -1.217155,-1.599134 0.757485,0 0.874021,1.184784 0.848124,-1.184784 0.692743,0 -1.230104,1.599134 z" />
      <path
         id="path3026"
         style=""
         d="m 24.72353,24.192344 -3.975177,0 0,-0.407876 3.975177,0 z m 0,1.210681 -3.975177,0 0,-0.41435 3.975177,0 z" />
      <path
         id="path3028"
         style=""
         d="m 30.556811,26.581335 -0.615051,0 0,-3.988125 c -0.246023,0.17265 -0.591315,0.356086 -1.035877,0.550309 l 0,-0.550309 c 0.18991,-0.116532 0.367951,-0.243859 0.534124,-0.38198 0.16617,-0.138112 0.283785,-0.242779 0.352845,-0.314 0.06906,-0.07121 0.103586,-0.104662 0.103588,-0.100351 l 0.660371,0 z" />
    </g>
  </g>
</svg>
