<svg xmlns="http://www.w3.org/2000/svg" width="24" height="24"><path d="M12.51 3h4.121q.868.599 1.653 1.297L19.581 3H21v1.41l-1.301 1.3q.7.787 1.301 1.656v4.121a15 15 0 0 0-2.684-4.393l-2.127 2.127C17.777 11.078 18.778 13.424 19 16h2v2h-2c-.082 1.043-.255 2.048-.586 3h-2.115c.4-.936.602-1.944.701-3h-3c-.156 1.102-.634 2.122-1.231 3H9.642L8 19.409V21H6v-1.591L4.409 21H3v-1.419L4.642 18H3v-2h1.642L3 14.358v-3.213c.877-.61 1.898-.99 3-1.145V7a10 10 0 0 0-3 .814V5.692c.951-.338 1.956-.603 3-.692V3h2v2c2.566.204 4.906 1.251 6.768 2.813l2.133-2.133A15.1 15.1 0 0 0 12.51 3m-8.383 9.657L6 14.53V12c-.682.132-1.315.282-1.873.657M8 7v3a6.9 6.9 0 0 1 3.232 1.349l2.134-2.134A10.04 10.04 0 0 0 8 7m6.789 3.621-2.16 2.16c.678.926 1.206 2.025 1.371 3.219h3c-.21-2.033-.974-3.887-2.211-5.379M8 12v2.53l1.885-1.873C9.326 12.27 8.688 12.14 8 12m3.279 2.13L9.409 16H12c-.13-.68-.356-1.312-.721-1.87M12 18H9.409l1.87 1.825A5.2 5.2 0 0 0 12 18"/></svg>