<?xml version="1.0" encoding="UTF-8" standalone="no"?>
<!-- Generator: Adobe Illustrator 15.1.0, SVG Export Plug-In . SVG Version: 6.00 Build 0)  -->

<svg
   xmlns:dc="http://purl.org/dc/elements/1.1/"
   xmlns:cc="http://creativecommons.org/ns#"
   xmlns:rdf="http://www.w3.org/1999/02/22-rdf-syntax-ns#"
   xmlns:svg="http://www.w3.org/2000/svg"
   xmlns="http://www.w3.org/2000/svg"
   xmlns:sodipodi="http://sodipodi.sourceforge.net/DTD/sodipodi-0.dtd"
   xmlns:inkscape="http://www.inkscape.org/namespaces/inkscape"
   version="1.1"
   x="0px"
   y="0px"
   width="512px"
   height="512px"
   viewBox="0 0 512 512"
   style="enable-background:new 0 0 512 512;"
   xml:space="preserve"
   id="svg2"
   inkscape:version="0.91 r13725"
   sodipodi:docname="menu_view_graphics_extra.svg"
   inkscape:export-filename="C:\Users\Proprietaire\Documents\workspace-geogebra-luna\geogebra\common\src\main\resources\org\geogebra\common\icons\svg\web\menu_icons\menu_view_graphics_extra.png"
   inkscape:export-xdpi="3.515625"
   inkscape:export-ydpi="3.515625"><metadata
     id="metadata30"><rdf:RDF><cc:Work
         rdf:about=""><dc:format>image/svg+xml</dc:format><dc:type
           rdf:resource="http://purl.org/dc/dcmitype/StillImage" /></cc:Work></rdf:RDF></metadata><defs
     id="defs28" /><sodipodi:namedview
     pagecolor="#ffffff"
     bordercolor="#666666"
     borderopacity="1"
     objecttolerance="10"
     gridtolerance="10"
     guidetolerance="10"
     inkscape:pageopacity="0"
     inkscape:pageshadow="2"
     inkscape:window-width="756"
     inkscape:window-height="480"
     id="namedview26"
     showgrid="false"
     inkscape:zoom="0.4609375"
     inkscape:cx="256"
     inkscape:cy="256"
     inkscape:window-x="0"
     inkscape:window-y="0"
     inkscape:window-maximized="0"
     inkscape:current-layer="svg2" /><g
     id="menu_x5F_view_x5F_graphics_x5F_extra"><g
       id="g5"><circle
         style="opacity:0.4;fill:#009900;"
         cx="150"
         cy="362"
         r="150"
         id="circle7" /><g
         id="g9"><path
           style="fill:#009900;"
           d="M150.001,212C67.157,212,0,279.156,0,362c0,82.842,67.157,150,150.001,150     C232.844,512,300,444.842,300,362C300,279.156,232.844,212,150.001,212z M150,497c-74.558,0-135-60.441-135-135     s60.442-135,135-135s135,60.441,135,135S224.558,497,150,497z"
           id="path11" /></g></g><g
       id="g13"><polyline
         style="opacity:0.4;fill:#0000FF;"
         points="89.495,396.533 482,397.942 263.836,62.379   "
         id="polyline15" /><g
         id="g17"><path
           style="fill:#0000FF;"
           d="M263.836,63.789L89.495,397.942H482L263.836,63.789z M265.379,93.57l188.036,289.224     l-338.302-0.215L265.379,93.57z"
           id="path19" /></g></g><g
       id="g21"><path
         style="fill:#666666;"
         d="M498.951,114.04h-82.367v82.366h-19.168V114.04h-82.367V94.87h82.367V12.504h19.168V94.87h82.367    V114.04z"
         id="path23" /></g></g><g
     id="Ebene_1" /></svg>