<?xml version="1.0" encoding="iso-8859-1"?>
<!-- Generator: Adobe Illustrator 15.1.0, SVG Export Plug-In . SVG Version: 6.00 Build 0)  -->
<!DOCTYPE svg PUBLIC "-//W3C//DTD SVG 1.1//EN" "http://www.w3.org/Graphics/SVG/1.1/DTD/svg11.dtd">
<svg version="1.1" xmlns="http://www.w3.org/2000/svg" xmlns:xlink="http://www.w3.org/1999/xlink" x="0px" y="0px" width="512px"
	 height="512px" viewBox="0 0 512 512" style="enable-background:new 0 0 512 512;" xml:space="preserve">
<g id="menu_x5F_view_x5F_spreadsheet">
	<rect y="106" style="display:none;fill:#999999;" width="512" height="15"/>
	<rect x="97" style="display:none;fill:#999999;" width="15" height="512"/>
	<rect style="fill:#9999FF;" width="512" height="150"/>
	<rect y="0" style="fill:#9999FF;" width="150" height="512"/>
	<path style="fill:#333333;" d="M300.091,129.936h-16.206l-11.895-29.438h-53.82l-12.043,29.438h-15.76l46.238-109.872h16.652
		L300.091,129.936z M265.598,87.563l-20.963-50.699l-20.518,50.699H265.598z"/>
	<path style="fill:#333333;" d="M87.571,300.1H73.418v-91.772c-5.661,3.973-13.609,8.194-23.837,12.663v-12.663
		c4.37-2.682,8.466-5.61,12.291-8.79c3.822-3.178,6.53-5.587,8.119-7.226c1.587-1.639,2.384-2.407,2.384-2.309h15.196V300.1z"/>
	<path style="fill:#333333;" d="M105.598,478H39.152v-14.153c12.91-14.4,23.167-25.848,30.765-34.34s12.91-15.047,15.941-19.666
		c3.029-4.618,4.544-8.664,4.544-12.142c0-6.653-1.292-11.546-3.874-14.675c-2.584-3.128-6.904-4.692-12.961-4.692
		c-5.363,0-9.386,1.54-12.067,4.618c-2.682,3.081-4.42,7.997-5.214,14.749H40.791c1.587-21.352,12.515-32.031,32.776-32.031
		c10.031,0,17.878,3.055,23.539,9.163c5.661,6.107,8.492,13.035,8.492,20.782c0,2.384-0.2,4.571-0.596,6.556
		c-0.398,1.987-1.043,4.097-1.937,6.331c-0.894,2.235-2.111,4.544-3.65,6.928c-1.541,2.384-3.478,5.093-5.81,8.12
		c-2.334,3.03-5.091,6.331-8.269,9.907c-3.18,3.575-6.878,7.747-11.099,12.514c-4.223,4.768-9.013,10.033-14.376,15.792
		c-1.69,1.89-2.98,3.328-3.874,4.32h49.61V478z"/>
	<rect y="324" style="fill:#999999;" width="512" height="15"/>
	<rect x="323" style="fill:#999999;" width="15" height="512"/>
	<g>
		<path style="fill:#333333;" d="M466.757,99.309c0,8.624-3.271,15.885-9.813,21.781c-6.542,5.898-14.272,8.846-23.193,8.846
			h-48.172V20.064h44.157c9.516,0,17.396,2.305,23.64,6.914s9.367,11.325,9.367,20.146c0,3.471-0.646,6.69-1.934,9.664
			c-1.289,2.974-2.85,5.303-4.683,6.988c-1.835,1.687-3.668,3.147-5.501,4.386c-1.835,1.241-3.396,2.106-4.684,2.602l-1.933,0.595
			c0.595,0.2,1.412,0.446,2.453,0.744c1.04,0.297,2.874,1.189,5.501,2.676c2.625,1.487,4.93,3.174,6.913,5.055
			c1.982,1.884,3.791,4.56,5.427,8.028C465.939,91.332,466.757,95.146,466.757,99.309z M448.618,49.205
			c0-10.605-7.83-15.908-23.49-15.908h-24.234v32.708h23.937C440.688,66.005,448.618,60.407,448.618,49.205z M451.89,97.673
			c0-6.145-2.355-10.854-7.063-14.125c-4.709-3.271-11.622-4.906-20.74-4.906h-23.193v38.062h23.937
			c8.028,0,14.545-1.784,19.551-5.353C449.386,107.783,451.89,103.226,451.89,97.673z"/>
	</g>
	<rect x="150" style="fill:#FFFFFF;" width="15" height="150"/>
	<rect y="150" style="fill:#FFFFFF;" width="150" height="15"/>
	<rect y="324" style="fill:#FFFFFF;" width="150" height="15"/>
	<rect x="323" style="fill:#FFFFFF;" width="15" height="150"/>
</g>
<g id="Ebene_1">
</g>
</svg>
