<svg xmlns="http://www.w3.org/2000/svg" viewBox="0 0 100 100" width="100" height="100"><path d="M99 37.81a11.45 11.45 0 0 0-12.88-11.42c-6.22-9-16.63-14-28.11-14.56a11.49 11.49 0 0 0-21.79 4.29 52.25 52.25 0 0 0-5.78 3 50.35 50.35 0 0 0-15.06 14 11.49 11.49 0 0 0-7.73 21.63 32.43 32.43 0 0 0 4.6 18.79 31.46 31.46 0 0 0 4.5 5.74 11.49 11.49 0 0 0 20.58 9.93A47.25 47.25 0 0 0 63.5 85.1a11.49 11.49 0 0 0 18.13-13.86 43.07 43.07 0 0 0 9.9-22.68A11.5 11.5 0 0 0 99 37.81zM38.94 81.45a11.47 11.47 0 0 0-17.17-8.26 24 24 0 0 1-3-3.94A24.87 24.87 0 0 1 15.2 55.5a11.47 11.47 0 0 0 6.4-18.19 42.42 42.42 0 0 1 12.59-11.67 44.3 44.3 0 0 1 4.06-2.19 11.49 11.49 0 0 0 20.61-3.88c8.18.76 15.45 4.39 20 10.63a11.48 11.48 0 0 0 4.46 18.33 35.2 35.2 0 0 1-8 17.65 11.49 11.49 0 0 0-15.09 10.91v.71a39.44 39.44 0 0 1-21.29 3.65z"/></svg>