
<?xml version="1.0" encoding="UTF-8"?>
<svg enable-background="new 0 0 512 512" version="1.1" viewBox="0 0 512 512" xml:space="preserve" xmlns="http://www.w3.org/2000/svg" xmlns:xlink="http://www.w3.org/1999/xlink">
<g display="none">
<rect x="-29.749" y="-26.888" width="577.56" height="577.56" display="inline" fill="#FF3131" stroke="#000" stroke-miterlimit="10"/>
</g>
<g display="none" fill="#fff">
<path d="M512,462c0,27.614-22.386,50-50,50H50c-27.614,0-50-22.386-50-50V50   C0,22.386,22.386,0,50,0h412c27.614,0,50,22.386,50,50V462z" display="inline"/>
<path d="M485,440.241c0,24.72-20.039,44.759-44.759,44.759H71.759   C47.039,485,27,464.961,27,440.241V71.759C27,47.039,47.039,27,71.759,27h368.482C464.961,27,485,47.039,485,71.759V440.241z" display="inline"/>
</g>
<g display="none">
<rect x="-375.55" y="-118.5" width="88.496" height="88.496" display="inline" fill="#666"/>
<rect x="-489.54" y="-118.5" width="88.496" height="88.496" display="inline" fill="#99f"/>
<rect x="-355.54" y="152.72" width="88.496" height="88.496" display="inline" fill="#00f"/>
<rect x="-256.55" y="-118.5" width="88.496" height="88.496" display="inline" fill="#333"/>
<rect x="-639.55" y="-12.269" width="88.496" height="88.496" display="inline" fill="#999"/>
<rect x="-489.54" y="6.221" width="88.496" height="88.496" display="inline" fill="#6161FF"/>
<rect x="-364.25" y="290.75" width="88.496" height="88.496" display="inline" fill="#ccf"/>
<rect x="-364.25" y="-14.248" width="88.496" height="88.496" display="inline" fill="#555"/>
</g>
<g display="none">
<path d="M512,462c0,27.614-22.386,50-50,50H50c-27.614,0-50-22.386-50-50V50   C0,22.386,22.386,0,50,0h412c27.614,0,50,22.386,50,50V462z" display="inline" fill="#fff"/>
<g display="inline">
<defs>
<path id="ad" d="m430.08 152.15c49.867 81.73 11.613 195.96-85.393 255.13-97.006 59.183-216.05 40.898-265.91-40.818-49.853-81.742-11.628-195.92 85.419-255.13 96.967-59.163 216.04-40.898 265.88 40.818zm-248.29-10.492c-79.431 48.463-111.84 140.07-72.428 204.7 39.415 64.609 135.73 77.72 215.13 29.271 79.405-48.424 111.83-140.07 72.414-204.69-39.415-64.608-135.74-77.712-215.12-29.283z"/>
</defs>
<clipPath id="x">
<use xlink:href="#ad"/>
</clipPath>
<path d="m72.098 355.51c22.748 48.061 68.058 77.786 121.33 85.779 42.449 6.389 89.95-0.855 135.3-24.486 37.103-19.54 65.812-45.656 85.673-73.885 23.283-33.038 34.711-68.858 36.782-97.621 2.605-36.3-5.788-70.142-23.817-97.588-29.432-44.748-84.39-74.392-149.4-70.649-28.294 1.631-58.981 6.603-91.151 22.107-69.623 33.492-127.2 104.22-130.04 180.91-0.936 24.913 2.834 50.229 15.317 75.437z" clip-path="url(#x)" fill="#666"/>
<path d="m150.73 357.44c29.804 0 53.983 24.166 53.983 53.996 0 29.807-24.179 53.971-53.983 53.971-29.819 0-53.997-24.164-53.997-53.971 0-29.83 24.178-53.996 53.997-53.996z"/>
<path d="m150.73 373.83c20.769 0 37.597 16.841 37.597 37.609 0 20.77-16.828 37.585-37.597 37.585-20.771 0-37.611-16.814-37.611-37.585 0-20.768 16.84-37.609 37.611-37.609z" fill="#99f"/>
<path d="m245.16 46.59c29.819 0 53.997 24.165 53.997 53.969 0 29.833-24.178 53.996-53.997 53.996-29.817 0-53.983-24.164-53.983-53.996-1e-3 -29.805 24.165-53.969 53.983-53.969z"/>
<path d="m245.16 62.976c20.77 0 37.612 16.84 37.612 37.61 0 20.743-16.842 37.583-37.612 37.583-20.756 0-37.597-16.84-37.597-37.583 0-20.77 16.841-37.61 37.597-37.61z" fill="#99f"/>
<path d="m432 144.77c29.807 0 53.997 24.191 53.997 53.996 0 29.833-24.19 53.996-53.997 53.996-29.831 0-53.996-24.163-53.996-53.996 0-29.805 24.165-53.996 53.996-53.996z"/>
<circle cx="432" cy="198.77" r="37.611" fill="#99f"/>
<path d="m358.03 329.14c29.811 0 53.976 24.164 53.976 53.996 0 29.805-24.165 53.971-53.976 53.971-29.819 0-53.983-24.166-53.983-53.971 0-29.832 24.164-53.996 53.983-53.996z"/>
<path d="m358.03 345.52c20.776 0 37.589 16.841 37.589 37.61 0 20.77-16.813 37.585-37.589 37.585-20.772 0-37.597-16.815-37.597-37.585s16.826-37.61 37.597-37.61z" fill="#99f"/>
<path d="m79.983 175.42c29.818 0 53.983 24.164 53.983 53.996 0 29.804-24.165 53.97-53.983 53.97s-53.983-24.166-53.983-53.97c0-29.832 24.165-53.996 53.983-53.996z"/>
<path d="m79.983 191.81c20.77 0 37.597 16.839 37.597 37.61 0 20.77-16.827 37.583-37.597 37.583-20.771 0-37.597-16.813-37.597-37.583 0-20.771 16.827-37.61 37.597-37.61z" fill="#99f"/>
</g>
</g>
<g display="none">
<g display="inline" fill="#999">
<rect width="512" height="116"/>
<rect y="153" width="173" height="359"/>
<rect x="211" y="153" width="301" height="209"/>
<rect x="211" y="396" width="301" height="116"/>
</g>
</g>
<g display="none">
<path d="M512,462c0,27.614-22.386,50-50,50H50c-27.614,0-50-22.386-50-50V50   C0,22.386,22.386,0,50,0h412c27.614,0,50,22.386,50,50V462z" display="inline" fill="#fff"/>
<g display="inline">
<path d="m340.83 480h139.42s0.045-90.415-56.991-108.24c59.705-35.195 56.991-109.76 56.991-109.76h-139.42s-0.678 79.656 55.973 109c-61.781 44.27-55.973 109-55.973 109z" fill="#fff"/>
<polygon points="340.71 261.93 481.66 261.93 481.66 316.79 425.28 371.65 481.66 426.52 481.66 481.38 340.71 481.38 340.71 426.52 397.09 371.65 340.71 316.79" clip-rule="evenodd" display="none" fill="#fff" fill-rule="evenodd"/>
<path d="m411.18 375.43l5.734-3.266c10.683-3.046 30.484-19.463 43.023-42.191h-97.513c9.492 20.021 35.217 41.176 43.022 42.191l5.734 3.266z" clip-rule="evenodd" fill="#99f" fill-rule="evenodd"/>
<polygon points="345.01 476.92 345.01 458.36 411.18 421.24 477.36 458.36 477.36 476.92" clip-rule="evenodd" fill="#99f" fill-rule="evenodd"/>
<path d="m485.88 486.4h-149.4c-3.825-41.02 2.454-80.676 50.092-114.75-43.55-26.803-53.098-68.098-50.092-114.74h149.4c9.075 50.369-3.591 90.395-50.091 114.74 48.081 30.381 58.674 70.16 50.091 114.75zm-137.96-11.444h126.52c7.389-39.129-12.182-73.322-54.746-103.3 43.811-25.633 65.485-58.962 54.746-103.3h-126.52c-4.195 41.043 13.812 76.787 54.747 103.3-41.985 33.389-61.275 67.778-54.747 103.3z" display="none" fill="#666" stroke="#666" stroke-miterlimit="10"/>
<path d="m389.88 372.16c-28.662-13.376-54.852-51.625-54.852-114.75h152.32c0 63.122-26.19 101.37-54.853 114.75 28.663 13.375 54.853 51.624 54.853 114.75h-152.32c0-63.121 26.189-101.37 54.852-114.75zm-42.413 103.3h127.44c0-56.827-34.005-91.261-57.986-103.3 23.981-12.041 57.986-46.475 57.986-103.3h-127.44c0 56.826 34.004 91.26 57.985 103.3-23.981 12.041-57.985 46.475-57.985 103.3z" fill="#555"/>
</g>
<g display="inline">
<path d="m1013 314.2c0 16.458-13.342 29.801-29.801 29.801h-245.4c-16.459 0-29.801-13.342-29.801-29.801v-245.4c0-16.459 13.342-29.801 29.801-29.801h245.4c16.458 0 29.8 13.342 29.8 29.801v245.4z" fill="#fff"/>
<path d="M1003,304.466c0,15.207-12.327,27.534-27.534,27.534H748.534C733.327,332,721,319.673,721,304.466    V77.534C721,62.327,733.327,50,748.534,50h226.932C990.673,50,1003,62.327,1003,77.534V304.466z" fill="#fff"/>
<defs>
<path id="q" d="m1003 304.46c0 15.21-12.33 27.54-27.54 27.54h-226.92c-15.21 0-27.54-12.33-27.54-27.54v-226.92c0-15.21 12.33-27.54 27.54-27.54h226.92c15.21 0 27.54 12.33 27.54 27.54v226.92z"/>
</defs>
<clipPath id="p">
<use xlink:href="#q"/>
</clipPath>
<g clip-path="url(#p)">
<rect x="703.88" y="34.119" width="92.293" height="315.03" fill="#99f"/>
<path d="m925.68 247.68h-34.49l-24.185-38.486-22.503 38.486h-32.387l38.486-57.623-34.7-50.052h34.28l21.241 31.756 18.296-31.756h32.176l-33.859 50.052 37.645 57.623z" fill="#666"/>
<path d="m1018.9 181.76h-83.572v-12.656h83.572v12.656zm0 37.565h-83.572v-12.856h83.572v12.856z" fill="#666"/>
</g>
</g>
<g display="inline">
<defs>
<path id="o" d="M485,440.241c0,24.72-20.039,44.759-44.759,44.759H71.759C47.039,485,27,464.961,27,440.241V71.759     C27,47.039,47.039,27,71.759,27h368.482C464.961,27,485,47.039,485,71.759V440.241z"/>
</defs>
<clipPath id="n">
<use xlink:href="#o"/>
</clipPath>
<g clip-path="url(#n)">
<rect width="150" height="512" fill="#99f"/>
<path d="m360.49 227.09h-56.055l-39.307-62.549-36.572 62.549h-52.637l62.549-93.652-56.396-81.348h55.713l34.521 51.611 29.736-51.611h52.295l-55.029 81.348 61.182 93.652z" fill="#666"/>
<path d="M512,119.947H376.174V99.379H512V119.947z M512,181H376.174v-20.895H512V181z" fill="#666"/>
</g>
</g>
</g>
<g display="none">
<path d="M512,462c0,27.614-22.386,50-50,50H50c-27.614,0-50-22.386-50-50V50   C0,22.386,22.386,0,50,0h412c27.614,0,50,22.386,50,50V462z" display="inline" fill="#fff"/>
<g display="inline">
<path d="m1013 314.2c0 16.458-13.342 29.801-29.801 29.801h-245.4c-16.459 0-29.801-13.342-29.801-29.801v-245.4c0-16.459 13.342-29.801 29.801-29.801h245.4c16.458 0 29.8 13.342 29.8 29.801v245.4z" fill="#fff"/>
<path d="M1003,304.466c0,15.207-12.327,27.534-27.534,27.534H748.534C733.327,332,721,319.673,721,304.466    V77.534C721,62.327,733.327,50,748.534,50h226.932C990.673,50,1003,62.327,1003,77.534V304.466z" fill="#fff"/>
<defs>
<path id="m" d="m1003 304.46c0 15.21-12.33 27.54-27.54 27.54h-226.92c-15.21 0-27.54-12.33-27.54-27.54v-226.92c0-15.21 12.33-27.54 27.54-27.54h226.92c15.21 0 27.54 12.33 27.54 27.54v226.92z"/>
</defs>
<clipPath id="l">
<use xlink:href="#m"/>
</clipPath>
<g clip-path="url(#l)">
<rect x="703.88" y="34.119" width="92.293" height="315.03" fill="#99f"/>
<path d="m925.68 247.68h-34.49l-24.185-38.486-22.503 38.486h-32.387l38.486-57.623-34.7-50.052h34.28l21.241 31.756 18.296-31.756h32.176l-33.859 50.052 37.645 57.623z" fill="#666"/>
<path d="m1018.9 181.76h-83.572v-12.656h83.572v12.656zm0 37.565h-83.572v-12.856h83.572v12.856z" fill="#666"/>
</g>
</g>
<g display="inline">
<defs>
<path id="k" d="M374,340.031c0,18.76-15.208,33.969-33.969,33.969H60.969C42.208,374,27,358.792,27,340.031V60.969     C27,42.208,42.208,27,60.969,27h279.062C358.792,27,374,42.208,374,60.969V340.031z"/>
</defs>
<clipPath id="ak">
<use xlink:href="#k"/>
</clipPath>
<g clip-path="url(#ak)">
<path d="m39.902 370.86c31.708-210.92 81.023-392.26 160.74-170.02 80.368 224.07 127.14 40.905 161.05-170.12" fill="none" stroke="#666" stroke-miterlimit="10" stroke-width="30"/>
<circle cx="130.94" cy="99.063" r="47.848" fill="#99f"/>
<path d="m130.94 51.214c-26.424 0-47.848 21.427-47.848 47.848 0 26.428 21.424 47.848 47.848 47.848 26.423 0 47.848-21.419 47.848-47.848 0-26.421-21.424-47.848-47.848-47.848zm0 81.342c-18.498 0-33.493-14.996-33.493-33.493 0-18.498 14.996-33.494 33.493-33.494 18.498 0 33.493 14.996 33.493 33.494 0 18.497-14.995 33.493-33.493 33.493z" fill="#333"/>
<circle cx="269.13" cy="303.28" r="47.848" fill="#99f"/>
<path d="m269.13 255.44c-26.424 0-47.848 21.427-47.848 47.848 0 26.428 21.424 47.848 47.848 47.848 26.423 0 47.848-21.419 47.848-47.848 0-26.421-21.424-47.848-47.848-47.848zm0 81.341c-18.498 0-33.493-14.996-33.493-33.493 0-18.498 14.996-33.494 33.493-33.494s33.493 14.996 33.493 33.494c1e-3 18.497-14.995 33.493-33.493 33.493z" fill="#333"/>
</g>
</g>
<g display="inline">
<path d="m340.83 480h139.42s0.045-90.415-56.991-108.24c59.705-35.195 56.991-109.76 56.991-109.76h-139.42s-0.678 79.656 55.973 109c-61.781 44.27-55.973 109-55.973 109z" fill="#fff"/>
<polygon points="340.71 261.93 481.66 261.93 481.66 316.79 425.28 371.65 481.66 426.52 481.66 481.38 340.71 481.38 340.71 426.52 397.09 371.65 340.71 316.79" clip-rule="evenodd" display="none" fill="#fff" fill-rule="evenodd"/>
<path d="m411.18 375.43l5.734-3.266c10.683-3.046 30.484-19.463 43.023-42.191h-97.513c9.492 20.021 35.217 41.176 43.022 42.191l5.734 3.266z" clip-rule="evenodd" fill="#99f" fill-rule="evenodd"/>
<polygon points="345.01 476.92 345.01 458.36 411.18 421.24 477.36 458.36 477.36 476.92" clip-rule="evenodd" fill="#99f" fill-rule="evenodd"/>
<path d="m485.88 486.4h-149.4c-3.825-41.02 2.454-80.676 50.092-114.75-43.55-26.803-53.098-68.098-50.092-114.74h149.4c9.075 50.369-3.591 90.395-50.091 114.74 48.081 30.381 58.674 70.16 50.091 114.75zm-137.96-11.444h126.52c7.389-39.129-12.182-73.322-54.746-103.3 43.811-25.633 65.485-58.962 54.746-103.3h-126.52c-4.195 41.043 13.812 76.787 54.747 103.3-41.985 33.389-61.275 67.778-54.747 103.3z" display="none" fill="#666" stroke="#666" stroke-miterlimit="10"/>
<path d="m389.88 372.16c-28.662-13.376-54.852-51.625-54.852-114.75h152.32c0 63.122-26.19 101.37-54.853 114.75 28.663 13.375 54.853 51.624 54.853 114.75h-152.32c0-63.121 26.189-101.37 54.852-114.75zm-42.413 103.3h127.44c0-56.827-34.005-91.261-57.986-103.3 23.981-12.041 57.986-46.475 57.986-103.3h-127.44c0 56.826 34.004 91.26 57.985 103.3-23.981 12.041-57.985 46.475-57.985 103.3z" fill="#555"/>
</g>
</g>
<g display="none">
<path d="M512,462c0,27.614-22.386,50-50,50H50c-27.614,0-50-22.386-50-50V50   C0,22.386,22.386,0,50,0h412c27.614,0,50,22.386,50,50V462z" display="inline" fill="#fff"/>
<g display="inline">
<defs>
<path id="aj" d="M485,440.241c0,24.72-20.039,44.759-44.759,44.759H71.759C47.039,485,27,464.961,27,440.241V71.759     C27,47.039,47.039,27,71.759,27h368.482C464.961,27,485,47.039,485,71.759V440.241z"/>
</defs>
<clipPath id="b">
<use xlink:href="#aj"/>
</clipPath>
<rect x="3" y="355" width="512" height="160" clip-path="url(#b)" fill="#99f"/>
<g clip-path="url(#b)" fill="#333">
<path d="m129.74 135.32h-12.166l-8.929-22.1h-40.405l-9.041 22.1h-11.831l34.712-82.484h12.501l35.159 82.484zm-25.894-31.81l-15.738-38.061-15.403 38.061h31.141z"/>
<path d="m218.41 94.131h-68.532v-7.032h68.532v7.032zm0 20.872h-68.532v-7.143h68.532v7.143z"/>
<path d="m271.88 150.38h-7.255c-8.633-15.626-12.947-32.145-12.947-49.557 0-17.485 4.315-34.043 12.947-49.669h7.255c-6.25 17.562-9.376 34.118-9.376 49.669 1e-3 15.18 3.126 31.699 9.376 49.557z"/>
<path d="m325.68 135.32h-10.604v-68.755c-4.241 2.977-10.195 6.139-17.858 9.487v-9.487c3.274-2.009 6.344-4.203 9.208-6.585 2.864-2.381 4.892-4.186 6.083-5.413 1.19-1.228 1.786-1.803 1.786-1.73h11.385v82.483z"/>
<path d="m372.22 121.25l-12.501 28.573h-8.036l6.92-28.573h13.617z"/>
<path d="m421 135.32h-10.603v-68.755c-4.241 2.977-10.195 6.139-17.858 9.487v-9.487c3.274-2.009 6.343-4.203 9.208-6.585 2.864-2.381 4.893-4.186 6.083-5.413 1.19-1.228 1.786-1.803 1.786-1.73h11.385v82.483z"/>
<path d="m472.23 100.83c0 17.338-4.279 33.858-12.836 49.557h-7.367c6.25-17.858 9.376-34.378 9.376-49.557 0-15.551-3.125-32.107-9.376-49.669h7.367c8.556 15.701 12.836 32.257 12.836 49.669z"/>
<path d="m108.3 279.1c0 6.474-2.456 11.925-7.367 16.352-4.911 4.428-10.715 6.641-17.412 6.641h-36.163v-82.484h33.15c7.143 0 13.059 1.73 17.747 5.19s7.032 8.502 7.032 15.124c0 2.605-0.485 5.023-1.451 7.255-0.968 2.232-2.14 3.981-3.516 5.246-1.377 1.266-2.754 2.363-4.13 3.293-1.378 0.931-2.55 1.582-3.516 1.953l-1.451 0.447c0.446 0.15 1.06 0.335 1.842 0.558 0.781 0.223 2.157 0.893 4.13 2.009 1.971 1.116 3.701 2.382 5.19 3.795 1.488 1.414 2.846 3.423 4.074 6.027 1.227 2.605 1.841 5.469 1.841 8.594zm-13.617-37.614c0-7.961-5.879-11.943-17.635-11.943h-18.193v24.555h17.97c11.904 0 17.858-4.203 17.858-12.612zm2.456 36.386c0-4.613-1.768-8.148-5.302-10.603-3.535-2.456-8.725-3.683-15.57-3.683h-17.412v28.573h17.97c6.027 0 10.919-1.339 14.677-4.018 3.757-2.679 5.637-6.101 5.637-10.269z"/>
<path d="m218.41 260.9h-68.532v-7.032h68.532v7.032zm0 20.872h-68.532v-7.143h68.532v7.143z"/>
<path d="m271.88 317.16h-7.255c-8.633-15.626-12.947-32.145-12.947-49.557 0-17.485 4.315-34.043 12.947-49.669h7.255c-6.25 17.562-9.376 34.118-9.376 49.669 1e-3 15.179 3.126 31.699 9.376 49.557z"/>
<path d="m339.18 302.09h-49.78v-10.603c9.672-10.789 17.356-19.365 23.049-25.727 5.692-6.362 9.672-11.273 11.943-14.733 2.27-3.46 3.404-6.491 3.404-9.097 0-4.985-0.967-8.65-2.902-10.994-1.936-2.344-5.172-3.516-9.711-3.516-4.018 0-7.032 1.154-9.041 3.46-2.009 2.307-3.311 5.991-3.906 11.05h-11.608c1.19-15.998 9.376-23.997 24.555-23.997 7.515 0 13.394 2.288 17.635 6.864s6.362 9.766 6.362 15.57c0 1.786-0.15 3.423-0.446 4.911-0.298 1.489-0.781 3.069-1.451 4.744-0.67 1.674-1.581 3.404-2.735 5.19s-2.605 3.814-4.353 6.083c-1.749 2.27-3.814 4.744-6.195 7.422-2.382 2.679-5.153 5.804-8.315 9.376-3.163 3.572-6.753 7.516-10.771 11.831-1.266 1.415-2.232 2.494-2.902 3.237h37.168v8.929z"/>
<path d="m372.22 288.03l-12.501 28.573h-8.036l6.92-28.573h13.617z"/>
<path d="m434.5 302.09h-49.78v-10.603c9.672-10.789 17.356-19.365 23.049-25.727 5.692-6.362 9.672-11.273 11.943-14.733 2.27-3.46 3.404-6.491 3.404-9.097 0-4.985-0.967-8.65-2.902-10.994-1.936-2.344-5.172-3.516-9.711-3.516-4.018 0-7.032 1.154-9.041 3.46-2.009 2.307-3.311 5.991-3.907 11.05h-11.608c1.19-15.998 9.376-23.997 24.555-23.997 7.515 0 13.394 2.288 17.635 6.864s6.362 9.766 6.362 15.57c0 1.786-0.15 3.423-0.447 4.911-0.298 1.489-0.781 3.069-1.451 4.744-0.67 1.674-1.581 3.404-2.735 5.19s-2.605 3.814-4.353 6.083c-1.749 2.27-3.814 4.744-6.195 7.422-2.382 2.679-5.153 5.804-8.315 9.376-3.163 3.572-6.753 7.516-10.771 11.831-1.266 1.415-2.232 2.494-2.902 3.237h37.168v8.929z"/>
<path d="m472.23 267.6c0 17.339-4.279 33.858-12.836 49.557h-7.367c6.25-17.858 9.376-34.378 9.376-49.557 0-15.551-3.125-32.107-9.376-49.669h7.367c8.556 15.701 12.836 32.257 12.836 49.669z"/>
<path d="m98.26 446.82h-10.269c-0.819-4.315-1.266-7.105-1.339-8.371-1.936 2.308-3.498 4.038-4.688 5.19-1.191 1.154-2.902 2.215-5.134 3.181s-4.763 1.451-7.59 1.451c-5.432 0-10.436-1.469-15.012-4.409-4.576-2.938-6.864-6.976-6.864-12.11 0-3.349 0.651-6.287 1.953-8.818 1.301-2.529 2.975-4.557 5.023-6.083 2.046-1.524 4.482-2.771 7.311-3.739 2.827-0.966 5.581-1.618 8.26-1.953s5.506-0.502 8.483-0.502c0.893 0 2.194 0.038 3.907 0.112 1.711 0.075 3.014 0.112 3.906 0.112 0.966-4.389 0.408-7.998-1.674-10.827-2.084-2.827-5.619-4.241-10.603-4.241-3.498 0-6.512 0.745-9.041 2.232-2.53 1.489-3.795 3.833-3.795 7.032h-10.606c0-11.235 7.663-16.854 22.993-16.854 12.128 0 19.458 3.237 21.988 9.711 0.893 2.084 1.339 8.112 1.339 18.082v9.934c1e-3 11.086 0.484 18.043 1.452 20.87zm-12.166-28.127c-3.795-0.223-5.767-0.335-5.916-0.335-2.159 0-4.353 0.167-6.585 0.502s-4.614 0.893-7.143 1.674c-2.53 0.781-4.576 2.029-6.139 3.739-1.563 1.712-2.344 3.759-2.344 6.139 0 3.125 1.116 5.619 3.348 7.478 2.232 1.861 4.911 2.79 8.036 2.79 6.547 0 10.975-1.915 13.282-5.748 2.306-3.831 3.461-9.244 3.461-16.239z"/>
<path d="m132.3 403.73h-12.389v-14.064h12.389v14.064zm0 43.084h-12.389v-14.064h12.389v14.064z"/>
<path d="m198.27 453.18l2.344-6.362-24.444-57.147h12.054l17.97 43.083 16.631-43.083h11.05l-27.234 69.871-3.795 9.934h-10.492l5.916-16.296z"/>
<path d="m326.96 405.63h-68.532v-7.032h68.532v7.032zm0 20.872h-68.532v-7.143h68.532v7.143z"/>
<path d="m410.11 446.82h-13.059l-16.742-22.546-16.184 22.546h-12.054l22.769-29.578-20.984-27.569h13.059l15.068 20.426 14.622-20.426h11.943l-21.207 27.569 22.769 29.578z"/>
</g>
<rect x="3" y="167.42" width="512" height="15" clip-path="url(#b)" fill="#666"/>
<rect x="3" y="349" width="512" height="15" clip-path="url(#b)" fill="#666"/>
</g>
</g>
<g display="none">
<path d="M512,462c0,27.614-22.386,50-50,50H50c-27.614,0-50-22.386-50-50V50   C0,22.386,22.386,0,50,0h412c27.614,0,50,22.386,50,50V462z" display="inline" fill="#fff"/>
<line x1="256" x2="256" y1="-47" y2="559" fill="#666" stroke="#C1272D" stroke-miterlimit="10"/>
<line x1="-37.5" x2="549.5" y1="256" y2="256" fill="#666" stroke="#C1272D" stroke-miterlimit="10"/>
<line x1="97.5" x2="448.5" y1="166.5" y2="166.5" fill="none" stroke="#C1272D" stroke-miterlimit="10"/>
<g display="inline">
<polygon points="117.2 38.889 394.8 38.889 394.8 146.94 283.76 255 394.8 363.05 394.8 471.11 117.2 471.11 117.2 363.05 228.24 255 117.2 146.94" clip-rule="evenodd" display="none" fill="#fff" fill-rule="evenodd"/>
<path d="m256 262.43l11.293-6.432c21.041-6 60.041-38.334 84.736-83.099h-192.06c18.696 39.432 69.362 81.099 84.734 83.099l11.295 6.432z" clip-rule="evenodd" fill="#99f" fill-rule="evenodd"/>
<polygon points="125.67 462.33 125.67 425.77 256 352.67 386.33 425.77 386.33 462.33" clip-rule="evenodd" fill="#99f" fill-rule="evenodd"/>
<path d="m403.13 481h-294.26c-7.534-80.791 4.833-158.9 98.659-226-85.775-52.79-104.58-134.12-98.659-226h294.26c17.873 99.205-7.074 178.04-98.658 226 94.7 59.836 115.56 138.18 98.658 226zm-271.72-22.54h249.18c14.554-77.068-23.994-144.41-107.83-203.46 86.289-50.485 128.98-116.13 107.83-203.46h-249.18c-8.261 80.838 27.203 151.24 107.83 203.46-82.693 65.761-120.69 133.49-107.83 203.46z" display="none" fill="#666" stroke="#666" stroke-miterlimit="10"/>
<path d="m214.03 256c-56.452-26.346-108.03-101.68-108.03-226h300c0 124.32-51.583 199.66-108.04 226 56.453 26.344 108.04 101.68 108.04 226h-300c0-124.32 51.581-199.66 108.03-226zm-83.534 203.46h251c0-111.92-66.974-179.74-114.21-203.46 47.233-23.716 114.21-91.536 114.21-203.46h-251c0 111.92 66.973 179.74 114.2 203.46-47.232 23.717-114.2 91.538-114.2 203.46z" fill="#555"/>
</g>
</g>
<g display="none">
<path d="M512,462c0,27.614-22.386,50-50,50H50c-27.614,0-50-22.386-50-50V50   C0,22.386,22.386,0,50,0h412c27.614,0,50,22.386,50,50V462z" display="inline" fill="#fff"/>
<image transform="matrix(1 0 0 1.4651 -90.5 70.667)" width="693" height="253" opacity=".47" overflow="visible">
</image>
<g display="inline">
<defs>
<path id="ai" d="M485,440.241c0,24.72-20.039,44.759-44.759,44.759H71.759C47.039,485,27,464.961,27,440.241V71.759     C27,47.039,47.039,27,71.759,27h368.482C464.961,27,485,47.039,485,71.759V440.241z"/>
</defs>
<clipPath id="ah">
<use xlink:href="#ai"/>
</clipPath>
<g clip-path="url(#ah)">
<path d="m155.56 446.51h200.87v-265.99c-45.59-72.416-75.135-107.28-100.44-107.28-25.301 0-54.846 34.866-100.44 107.28v265.99z" fill="#99f"/>
<path d="m609 422.97s-130.97 21.405-207.06-147.7-114.76-209.78-145.94-209.78c-31.182 0-69.85 40.671-145.94 209.78s-207.06 147.7-207.06 147.7" fill="none" stroke="#666" stroke-miterlimit="10" stroke-width="26"/>
<line x1="-97" x2="609" y1="446.51" y2="446.51" fill="none" stroke="#333" stroke-miterlimit="10" stroke-width="26"/>
</g>
</g>
</g>
<g display="none">
<path d="M512,462c0,27.614-22.386,50-50,50H50c-27.614,0-50-22.386-50-50V50   C0,22.386,22.386,0,50,0h412c27.614,0,50,22.386,50,50V462z" display="inline" fill="#fff"/>
<g display="inline">
<defs>
<path id="ag" d="M485,440.241c0,24.72-20.039,44.759-44.759,44.759H71.759C47.039,485,27,464.961,27,440.241V71.759     C27,47.039,47.039,27,71.759,27h368.482C464.961,27,485,47.039,485,71.759V440.241z"/>
</defs>
<clipPath id="a">
<use xlink:href="#ag"/>
</clipPath>
<g clip-path="url(#a)" fill="#99f">
<rect x="26" y="26" width="460" height="130"/>
<rect x="26" y="26" width="130" height="460"/>
</g>
<rect x="157.5" y="19.333" width="24" height="186.33" clip-path="url(#a)" fill="#fff"/>
<rect x="20" y="155.5" width="139.77" height="24" clip-path="url(#a)" fill="#fff"/>
<rect x="20" y="311.83" width="140.77" height="24" clip-path="url(#a)" fill="#fff"/>
<rect x="310.93" y="21" width="24" height="139.76" clip-path="url(#a)" fill="#fff"/>
<rect x="156" y="311.83" width="330" height="24" clip-path="url(#a)" fill="#666"/>
<rect x="310.93" y="156.25" width="24" height="329.75" clip-path="url(#a)" fill="#666"/>
</g>
<path d="m289.51 137.84h-12.956l-9.509-23.534h-43.026l-9.628 23.534h-12.599l36.965-87.836h13.312l37.441 87.836zm-27.576-33.874l-16.759-40.531-16.403 40.531h33.162z" display="inline" fill="#333"/>
<path d="m106.18 293.49h-11.314v-73.366c-4.526 3.176-10.88 6.551-19.056 10.123v-10.123c3.493-2.144 6.768-4.485 9.826-7.027 3.055-2.54 5.22-4.466 6.491-5.776 1.269-1.31 1.906-1.924 1.906-1.846h12.149v88.015z" display="inline" fill="#333"/>
<path d="m117.56 448.71h-53.12v-11.315c10.321-11.512 18.52-20.664 24.595-27.453 6.074-6.789 10.321-12.029 12.744-15.722 2.421-3.692 3.633-6.926 3.633-9.707 0-5.319-1.032-9.23-3.097-11.732-2.066-2.501-5.52-3.751-10.362-3.751-4.288 0-7.503 1.231-9.647 3.692-2.144 2.463-3.534 6.393-4.169 11.791h-12.387c1.269-17.069 10.005-25.607 26.202-25.607 8.019 0 14.292 2.442 18.818 7.325s6.789 10.421 6.789 16.614c0 1.906-0.16 3.655-0.476 5.241-0.318 1.589-0.834 3.275-1.548 5.061-0.715 1.787-1.688 3.633-2.918 5.538-1.232 1.906-2.78 4.071-4.645 6.492-1.866 2.422-4.07 5.061-6.61 7.92-2.542 2.858-5.499 6.193-8.873 10.004-3.376 3.811-7.206 8.021-11.493 12.625-1.351 1.511-2.382 2.661-3.097 3.454h39.661v9.53z" display="inline" fill="#333"/>
<g display="inline">
<path d="m435.75 113.35c0 6.894-2.615 12.699-7.845 17.413-5.23 4.715-11.41 7.072-18.542 7.072h-38.509v-87.837h35.301c7.607 0 13.907 1.842 18.899 5.527s7.489 9.053 7.489 16.105c0 2.775-0.516 5.349-1.546 7.726-1.031 2.377-2.278 4.24-3.743 5.586-1.467 1.349-2.932 2.516-4.398 3.507-1.467 0.992-2.715 1.684-3.744 2.08l-1.545 0.475c0.475 0.16 1.129 0.357 1.961 0.595 0.831 0.237 2.298 0.95 4.398 2.139 2.099 1.189 3.941 2.537 5.527 4.041 1.585 1.506 3.031 3.646 4.338 6.418 1.306 2.775 1.959 5.824 1.959 9.153zm-14.5-40.056c0-8.478-6.26-12.718-18.779-12.718h-19.374v26.149h19.136c12.677 0 19.017-4.475 19.017-13.431zm2.615 38.748c0-4.913-1.883-8.677-5.646-11.292-3.764-2.615-9.291-3.922-16.581-3.922h-18.542v30.428h19.136c6.418 0 11.628-1.426 15.63-4.279 4.001-2.853 6.003-6.496 6.003-10.935z" fill="#333"/>
</g>
</g>
<path d="M512,462c0,27.614-22.386,50-50,50H50c-27.614,0-50-22.386-50-50V50C0,22.386,22.386,0,50,0h412    c27.614,0,50,22.386,50,50V462z" fill="#fff"/>
<polygon points="175.33 460.96 27.538 382.85 229.24 51.043" fill="#333"/>
<polygon points="484.46 401.19 175.33 460.96 229.24 51.043" fill="#666"/>
<polygon points="156.49 423.93 60.667 374.23 190.26 160.83" fill="#6161FF"/>
<polygon points="442.97 385.6 202.61 432.05 244.19 111.78" fill="#99f"/>
<g display="none" fill="none" stroke="#BC470C" stroke-miterlimit="10" stroke-width="24">
<line x1="170.92" x2="502.8" y1="452.33" y2="387.96" display="inline"/>
<line x1="188.94" x2="239.57" y1="442.22" y2="55.009" display="inline"/>
<line x1="465.01" x2="234.2" y1="387.04" y2="70.051" display="inline"/>
<line x1="164.35" x2="214.98" y1="442.22" y2="55.009" display="inline"/>
<line x1="37.026" x2="237.43" y1="384.1" y2="54.123" display="inline"/>
<line x1="-8.585" x2="205.55" y1="353.11" y2="466.23" display="inline"/>
</g>
<linearGradient id="af" x1="198.76" x2="491.58" y1="256" y2="256" gradientUnits="userSpaceOnUse">
<stop stop-color="#172983" stop-opacity="0" offset="0"/>
<stop stop-color="#172983" offset="1"/>
</linearGradient>
<polygon points="305.67 478.95 491.58 287.23 198.76 33.052" display="none" fill="url(#af)" opacity=".4"/>
<g display="none">
<path d="M512,462c0,27.614-22.386,50-50,50H50c-27.614,0-50-22.386-50-50V50   C0,22.386,22.386,0,50,0h412c27.614,0,50,22.386,50,50V462z" display="inline" fill="#fff"/>
<path d="M512,462c0,27.614-22.386,50-50,50H50c-27.614,0-50-22.386-50-50V50C0,22.386,22.386,0,50,0h412   c27.614,0,50,22.386,50,50V462z" fill="#fff"/>
<g display="inline" fill="#090">
<ellipse transform="matrix(.8812 -.4727 .4727 .8812 -156.21 105.95)" cx="132.72" cy="363.82" rx="100" ry="200" opacity=".4"/>
<path d="m220.84 316.55c-52.213-97.337-133.99-155.08-182.66-128.98-48.669 26.107-45.795 126.18 6.418 223.52 52.213 97.337 134 155.08 182.66 128.98 48.667-26.107 45.793-126.18-6.42-223.52zm-163.03 87.45c-48.297-90.036-53.914-181.02-12.546-203.21 41.368-22.19 114.06 32.81 162.35 122.85 48.298 90.036 53.914 181.02 12.546 203.2-41.368 22.191-114.06-32.809-162.35-122.85z"/>
</g>
<g display="inline">
<polyline points="122.98 368.5 515.48 369.9 297.32 34.341" fill="#00f" opacity=".4"/>
<path d="m297.32 35.75l-174.34 334.15h392.51l-218.16-334.15zm1.543 29.782l188.04 289.22-338.3-0.215 150.27-289.01z" fill="#00f"/>
</g>
<rect x="291.97" y="-104.58" width="10" height="721.15" display="inline" fill="#f00"/>
<rect transform="matrix(.4677 -.8839 .8839 .4677 -69.743 335.85)" x="238.98" y="-134.74" width="10.001" height="721.15" display="inline" fill="#f00"/>
<rect transform="matrix(.842 -.5395 .5395 .842 -99.712 194.86)" x="-77.805" y="262.64" width="721.15" height="10" display="inline" fill="#f00"/>
<circle cx="297.97" cy="256" r="15" display="inline" fill="#666"/>
<g display="inline">
<g display="none">
<g display="inline">
<defs>
<path id="j" d="m277.22 453.26c-64.919 39.611-155.66 9.225-202.66-67.829-47.01-77.054-32.486-171.62 32.423-211.22 64.929-39.6 155.63-9.236 202.66 67.85 46.994 77.022 32.486 171.6-32.423 211.19z"/>
</defs>
<use fill="#9999FF" xlink:href="#j"/>
<clipPath id="ae">
<use xlink:href="#j"/>
</clipPath>
<path d="m115.69 168.91c-38.176 18.07-61.787 54.06-68.136 96.376-5.075 33.718 0.679 71.449 19.45 107.47 15.521 29.471 36.266 52.275 58.688 68.052 26.243 18.494 54.696 27.572 77.542 29.217 28.834 2.07 55.715-4.598 77.516-18.919 35.544-23.378 59.091-67.032 56.118-118.67-1.295-22.475-5.245-46.85-17.56-72.403-26.604-55.302-82.781-101.04-143.7-103.29-19.789-0.744-39.897 2.25-59.92 12.166z" clip-path="url(#ae)" fill="#99f"/>
<defs>
<path id="i" d="m284.52 467.86c-71.248 43.472-170.83 10.124-222.41-74.441-51.592-84.565-35.653-188.34 35.584-231.8 71.259-43.46 170.8-10.137 222.41 74.464 51.575 84.531 35.653 188.33-35.584 231.78zm9.147-216.45c-42.248-69.244-122.11-97.498-178.45-63.139-56.323 34.36-67.752 118.32-25.517 187.54 42.213 69.221 122.11 97.487 178.44 63.127 56.322-34.361 67.745-118.33 25.527-187.53z"/>
</defs>
<use fill="#666666" xlink:href="#i"/>
<clipPath id="ac">
<use xlink:href="#i"/>
</clipPath>
<path d="m107.24 155.8c-41.897 19.831-67.81 59.329-74.778 105.77-5.569 37.005 0.746 78.414 21.346 117.95 17.034 32.344 39.801 57.371 64.409 74.685 28.801 20.297 60.027 30.259 85.101 32.065 31.645 2.271 61.146-5.046 85.073-20.763 39.009-25.657 64.851-73.567 61.589-130.24-1.422-24.666-5.756-51.417-19.272-79.461-29.198-60.693-90.85-110.89-157.71-113.36-21.718-0.816-43.787 2.47-65.762 13.352z" clip-path="url(#ac)" fill="#666"/>
</g>
</g>
<circle cx="175" cy="336" r="123" fill="#99f"/>
<polygon points="302.33 27 485 343.39 119.67 343.39" fill="#666"/>
<polygon points="302.33 84.101 435.55 314.84 169.12 314.84" fill="#99f"/>
<path d="m148.94 327l73.39-124.49c57.429 26.984 88.947 67.213 87.102 124.49h-160.49z" fill="#6161FF"/>
<path d="m175 486c-82.843 0-150-67.157-150-150s67.157-150 150-150 150 67.157 150 150-67.157 150-150 150zm123-150c0-67.931-55.069-123-123-123s-123 55.069-123 123 55.069 123 123 123 123-55.069 123-123z" fill="#666"/>
<path d="m324.82 343.39h-205.15l88.715-153.66c9.598 2.181 18.846 5.283 27.647 9.208 46.264 20.63 80.16 63.997 87.49 115.9 0.976 6.913 1.481 13.979 1.481 21.163 0 2.477-0.06 4.941-0.179 7.388zm-102.38-120.91l-53.322 92.357h127.07v-1e-3c-7.253-41.824-35.63-76.405-73.741-92.353" fill="#333"/>
</g>
<g display="inline">
<path d="m486.22 133.34c0 11.85-4.462 21.713-13.38 29.59-8.92 7.88-20.214 11.816-33.886 11.816-15.106 0-26.563-4.034-34.375-12.109-7.812-8.072-11.719-17.642-11.719-28.711h21.289c1.562 16.928 10.025 25.391 25.391 25.391 6.769 0 12.92-2.441 18.456-7.324 5.533-4.883 8.302-10.513 8.302-16.895 0-20.572-13.477-30.664-40.43-30.273v-16.017c12.5 0 21.972-2.148 28.417-6.445s9.669-11.261 9.669-20.898c0-7.55-2.638-12.988-7.911-16.309s-10.97-4.98-17.089-4.98c-12.372 0-19.989 8.334-22.852 25h-20.312c1.691-13.019 6.183-23.013 13.477-29.98 7.291-6.964 17.056-10.449 29.297-10.449 13.409 0 24.316 3.613 32.714 10.84s12.598 16.309 12.598 27.246c0 4.559-0.947 8.789-2.833 12.695-1.889 3.906-4.198 7.001-6.933 9.277-2.734 2.28-5.6 4.492-8.594 6.641-2.997 2.148-5.536 3.745-7.617 4.785 0.909 0.522 2.862 1.562 5.859 3.125 2.994 1.562 5.533 3.095 7.617 4.59 2.081 1.498 4.394 3.549 6.933 6.152 2.539 2.606 4.492 5.859 5.859 9.766 1.369 3.905 2.053 8.398 2.053 13.476z" fill="#666"/>
</g>
</g>
<g display="none">
<path d="M512,462c0,27.614-22.386,50-50,50H50c-27.614,0-50-22.386-50-50V50   C0,22.386,22.386,0,50,0h412c27.614,0,50,22.386,50,50V462z" display="inline" fill="#fff"/>
<path d="M512,462c0,27.614-22.386,50-50,50H50c-27.614,0-50-22.386-50-50V50C0,22.386,22.386,0,50,0h412   c27.614,0,50,22.386,50,50V462z" fill="#fff"/>
<g display="inline" fill="#090">
<ellipse transform="matrix(.8812 -.4727 .4727 .8812 -156.21 105.95)" cx="132.72" cy="363.82" rx="100" ry="200" opacity=".4"/>
<path d="m220.84 316.55c-52.213-97.337-133.99-155.08-182.66-128.98-48.669 26.107-45.795 126.18 6.418 223.52 52.213 97.337 134 155.08 182.66 128.98 48.667-26.107 45.793-126.18-6.42-223.52zm-163.03 87.45c-48.297-90.036-53.914-181.02-12.546-203.21 41.368-22.19 114.06 32.81 162.35 122.85 48.298 90.036 53.914 181.02 12.546 203.2-41.368 22.191-114.06-32.809-162.35-122.85z"/>
</g>
<g display="inline">
<polyline points="122.98 368.5 515.48 369.9 297.32 34.341" fill="#00f" opacity=".4"/>
<path d="m297.32 35.75l-174.34 334.15h392.51l-218.16-334.15zm1.543 29.782l188.04 289.22-338.3-0.215 150.27-289.01z" fill="#00f"/>
</g>
<rect x="291.97" y="-104.58" width="10" height="721.15" display="inline" fill="#f00"/>
<rect transform="matrix(.4677 -.8839 .8839 .4677 -69.743 335.85)" x="238.98" y="-134.74" width="10.001" height="721.15" display="inline" fill="#f00"/>
<rect transform="matrix(.842 -.5395 .5395 .842 -99.712 194.86)" x="-77.805" y="262.64" width="721.15" height="10" display="inline" fill="#f00"/>
<circle cx="297.97" cy="256" r="15" display="inline" fill="#666"/>
<g display="inline">
<g display="none">
<g display="inline">
<defs>
<path id="h" d="m277.22 453.26c-64.919 39.611-155.66 9.225-202.66-67.829-47.01-77.054-32.486-171.62 32.423-211.22 64.929-39.6 155.63-9.236 202.66 67.85 46.994 77.022 32.486 171.6-32.423 211.19z"/>
</defs>
<use fill="#9999FF" xlink:href="#h"/>
<clipPath id="ab">
<use xlink:href="#h"/>
</clipPath>
<path d="m115.69 168.91c-38.176 18.07-61.787 54.06-68.136 96.376-5.075 33.718 0.679 71.449 19.45 107.47 15.521 29.471 36.266 52.275 58.688 68.052 26.243 18.494 54.696 27.572 77.542 29.217 28.834 2.07 55.715-4.598 77.516-18.919 35.544-23.378 59.091-67.032 56.118-118.67-1.295-22.475-5.245-46.85-17.56-72.403-26.604-55.302-82.781-101.04-143.7-103.29-19.789-0.744-39.897 2.25-59.92 12.166z" clip-path="url(#ab)" fill="#99f"/>
<defs>
<path id="g" d="m284.52 467.86c-71.248 43.472-170.83 10.124-222.41-74.441-51.592-84.565-35.653-188.34 35.584-231.8 71.259-43.46 170.8-10.137 222.41 74.464 51.575 84.531 35.653 188.33-35.584 231.78zm9.147-216.45c-42.248-69.244-122.11-97.498-178.45-63.139-56.323 34.36-67.752 118.32-25.517 187.54 42.213 69.221 122.11 97.487 178.44 63.127 56.322-34.361 67.745-118.33 25.527-187.53z"/>
</defs>
<use fill="#666666" xlink:href="#g"/>
<clipPath id="aa">
<use xlink:href="#g"/>
</clipPath>
<path d="m107.24 155.8c-41.897 19.831-67.81 59.329-74.778 105.77-5.569 37.005 0.746 78.414 21.346 117.95 17.034 32.344 39.801 57.371 64.409 74.685 28.801 20.297 60.027 30.259 85.101 32.065 31.645 2.271 61.146-5.046 85.073-20.763 39.009-25.657 64.851-73.567 61.589-130.24-1.422-24.666-5.756-51.417-19.272-79.461-29.198-60.693-90.85-110.89-157.71-113.36-21.718-0.816-43.787 2.47-65.762 13.352z" clip-path="url(#aa)" fill="#666"/>
</g>
</g>
<circle cx="175" cy="336" r="123" fill="#99f"/>
<polygon points="302.33 27 485 343.39 119.67 343.39" fill="#666"/>
<polygon points="302.33 84.101 435.55 314.84 169.12 314.84" fill="#99f"/>
<path d="m148.94 327l73.39-124.49c57.429 26.984 88.947 67.213 87.102 124.49h-160.49z" fill="#6161FF"/>
<path d="m175 486c-82.843 0-150-67.157-150-150s67.157-150 150-150 150 67.157 150 150-67.157 150-150 150zm123-150c0-67.931-55.069-123-123-123s-123 55.069-123 123 55.069 123 123 123 123-55.069 123-123z" fill="#666"/>
<path d="m324.82 343.39h-205.15l88.715-153.66c9.598 2.181 18.846 5.283 27.647 9.208 46.264 20.63 80.16 63.997 87.49 115.9 0.976 6.913 1.481 13.979 1.481 21.163 0 2.477-0.06 4.941-0.179 7.388zm-102.38-120.91l-53.322 92.357h127.07v-1e-3c-7.253-41.824-35.63-76.405-73.741-92.353" fill="#333"/>
</g>
<g display="inline">
<path d="m486.92 174.46h-88.727v-18.899c17.239-19.229 30.934-34.516 41.08-45.856s17.239-20.093 21.286-26.26c4.044-6.167 6.068-11.57 6.068-16.214 0-8.884-1.725-15.418-5.172-19.595-3.45-4.178-9.22-6.267-17.308-6.267-7.162 0-12.533 2.058-16.114 6.167-3.581 4.112-5.903 10.677-6.963 19.695h-20.69c2.12-28.514 16.711-42.772 43.767-42.772 13.394 0 23.873 4.078 31.432 12.235 7.56 8.157 11.34 17.407 11.34 27.752 0 3.183-0.267 6.102-0.796 8.753-0.532 2.655-1.393 5.471-2.586 8.455-1.194 2.984-2.82 6.068-4.875 9.251-2.058 3.183-4.644 6.798-7.759 10.842-3.118 4.047-6.797 8.455-11.04 13.229-4.246 4.775-9.186 10.345-14.822 16.711-5.639 6.366-12.035 13.397-19.197 21.088-2.257 2.521-3.979 4.445-5.172 5.769h66.247v15.916z" fill="#666"/>
</g>
</g>
<g display="none">
<path d="M512,462c0,27.614-22.386,50-50,50H50c-27.614,0-50-22.386-50-50V50   C0,22.386,22.386,0,50,0h412c27.614,0,50,22.386,50,50V462z" display="inline" fill="#fff"/>
<path d="M512,462c0,27.614-22.386,50-50,50H50c-27.614,0-50-22.386-50-50V50C0,22.386,22.386,0,50,0h412   c27.614,0,50,22.386,50,50V462z" fill="#fff"/>
<g display="inline" fill="#090">
<ellipse transform="matrix(.8812 -.4727 .4727 .8812 -156.21 105.95)" cx="132.72" cy="363.82" rx="100" ry="200" opacity=".4"/>
<path d="m220.84 316.55c-52.213-97.337-133.99-155.08-182.66-128.98-48.669 26.107-45.795 126.18 6.418 223.52 52.213 97.337 134 155.08 182.66 128.98 48.667-26.107 45.793-126.18-6.42-223.52zm-163.03 87.45c-48.297-90.036-53.914-181.02-12.546-203.21 41.368-22.19 114.06 32.81 162.35 122.85 48.298 90.036 53.914 181.02 12.546 203.2-41.368 22.191-114.06-32.809-162.35-122.85z"/>
</g>
<g display="inline">
<polyline points="122.98 368.5 515.48 369.9 297.32 34.341" fill="#00f" opacity=".4"/>
<path d="m297.32 35.75l-174.34 334.15h392.51l-218.16-334.15zm1.543 29.782l188.04 289.22-338.3-0.215 150.27-289.01z" fill="#00f"/>
</g>
<rect x="291.97" y="-104.58" width="10" height="721.15" display="inline" fill="#f00"/>
<rect transform="matrix(.4677 -.8839 .8839 .4677 -69.743 335.85)" x="238.98" y="-134.74" width="10.001" height="721.15" display="inline" fill="#f00"/>
<rect transform="matrix(.842 -.5395 .5395 .842 -99.712 194.86)" x="-77.805" y="262.64" width="721.15" height="10" display="inline" fill="#f00"/>
<circle cx="297.97" cy="256" r="15" display="inline" fill="#666"/>
<g display="inline">
<g display="none">
<g display="inline">
<defs>
<path id="f" d="m277.22 453.26c-64.919 39.611-155.66 9.225-202.66-67.829-47.01-77.054-32.486-171.62 32.423-211.22 64.929-39.6 155.63-9.236 202.66 67.85 46.994 77.022 32.486 171.6-32.423 211.19z"/>
</defs>
<use fill="#9999FF" xlink:href="#f"/>
<clipPath id="z">
<use xlink:href="#f"/>
</clipPath>
<path d="m115.69 168.91c-38.176 18.07-61.787 54.06-68.136 96.376-5.075 33.718 0.679 71.449 19.45 107.47 15.521 29.471 36.266 52.275 58.688 68.052 26.243 18.494 54.696 27.572 77.542 29.217 28.834 2.07 55.715-4.598 77.516-18.919 35.544-23.378 59.091-67.032 56.118-118.67-1.295-22.475-5.245-46.85-17.56-72.403-26.604-55.302-82.781-101.04-143.7-103.29-19.789-0.744-39.897 2.25-59.92 12.166z" clip-path="url(#z)" fill="#99f"/>
<defs>
<path id="e" d="m284.52 467.86c-71.248 43.472-170.83 10.124-222.41-74.441-51.592-84.565-35.653-188.34 35.584-231.8 71.259-43.46 170.8-10.137 222.41 74.464 51.575 84.531 35.653 188.33-35.584 231.78zm9.147-216.45c-42.248-69.244-122.11-97.498-178.45-63.139-56.323 34.36-67.752 118.32-25.517 187.54 42.213 69.221 122.11 97.487 178.44 63.127 56.322-34.361 67.745-118.33 25.527-187.53z"/>
</defs>
<use fill="#666666" xlink:href="#e"/>
<clipPath id="y">
<use xlink:href="#e"/>
</clipPath>
<path d="m107.24 155.8c-41.897 19.831-67.81 59.329-74.778 105.77-5.569 37.005 0.746 78.414 21.346 117.95 17.034 32.344 39.801 57.371 64.409 74.685 28.801 20.297 60.027 30.259 85.101 32.065 31.645 2.271 61.146-5.046 85.073-20.763 39.009-25.657 64.851-73.567 61.589-130.24-1.422-24.666-5.756-51.417-19.272-79.461-29.198-60.693-90.85-110.89-157.71-113.36-21.718-0.816-43.787 2.47-65.762 13.352z" clip-path="url(#y)" fill="#666"/>
</g>
</g>
<circle cx="175" cy="336" r="123" fill="#99f"/>
<polygon points="302.33 27 485 343.39 119.67 343.39" fill="#666"/>
<polygon points="302.33 84.101 435.55 314.84 169.12 314.84" fill="#99f"/>
<path d="m148.94 327l73.39-124.49c57.429 26.984 88.947 67.213 87.102 124.49h-160.49z" fill="#6161FF"/>
<path d="m175 486c-82.843 0-150-67.157-150-150s67.157-150 150-150 150 67.157 150 150-67.157 150-150 150zm123-150c0-67.931-55.069-123-123-123s-123 55.069-123 123 55.069 123 123 123 123-55.069 123-123z" fill="#666"/>
<path d="m324.82 343.39h-205.15l88.715-153.66c9.598 2.181 18.846 5.283 27.647 9.208 46.264 20.63 80.16 63.997 87.49 115.9 0.976 6.913 1.481 13.979 1.481 21.163 0 2.477-0.06 4.941-0.179 7.388zm-102.38-120.91l-53.322 92.357h127.07v-1e-3c-7.253-41.824-35.63-76.405-73.741-92.353" fill="#333"/>
</g>
<g display="inline">
<path d="m486.46 102.05h-59.323v59.322h-18.271v-59.322h-59.323v-18.272h59.323v-59.322h18.271v59.322h59.323v18.272z" fill="#666"/>
</g>
</g>
<g display="none">
<path d="M512,462c0,27.614-22.386,50-50,50H50c-27.614,0-50-22.386-50-50V50   C0,22.386,22.386,0,50,0h412c27.614,0,50,22.386,50,50V462z" display="inline" fill="#fff"/>
<path d="M512,462c0,27.614-22.386,50-50,50H50c-27.614,0-50-22.386-50-50V50C0,22.386,22.386,0,50,0h412   c27.614,0,50,22.386,50,50V462z" fill="#fff"/>
<g display="inline" fill="#090">
<ellipse transform="matrix(.8812 -.4727 .4727 .8812 -156.21 105.95)" cx="132.72" cy="363.82" rx="100" ry="200" opacity=".4"/>
<path d="m220.84 316.55c-52.213-97.337-133.99-155.08-182.66-128.98-48.669 26.107-45.795 126.18 6.418 223.52 52.213 97.337 134 155.08 182.66 128.98 48.667-26.107 45.793-126.18-6.42-223.52zm-163.03 87.45c-48.297-90.036-53.914-181.02-12.546-203.21 41.368-22.19 114.06 32.81 162.35 122.85 48.298 90.036 53.914 181.02 12.546 203.2-41.368 22.191-114.06-32.809-162.35-122.85z"/>
</g>
<g display="inline">
<polyline points="122.98 368.5 515.48 369.9 297.32 34.341" fill="#00f" opacity=".4"/>
<path d="m297.32 35.75l-174.34 334.15h392.51l-218.16-334.15zm1.543 29.782l188.04 289.22-338.3-0.215 150.27-289.01z" fill="#00f"/>
</g>
<rect x="291.97" y="-104.58" width="10" height="721.15" display="inline" fill="#f00"/>
<rect transform="matrix(.4677 -.8839 .8839 .4677 -69.743 335.85)" x="238.98" y="-134.74" width="10.001" height="721.15" display="inline" fill="#f00"/>
<rect transform="matrix(.842 -.5395 .5395 .842 -99.712 194.86)" x="-77.805" y="262.64" width="721.15" height="10" display="inline" fill="#f00"/>
<circle cx="297.97" cy="256" r="15" display="inline" fill="#666"/>
<g display="inline">
<g display="none">
<g display="inline">
<defs>
<path id="d" d="m277.22 453.26c-64.919 39.611-155.66 9.225-202.66-67.829-47.01-77.054-32.486-171.62 32.423-211.22 64.929-39.6 155.63-9.236 202.66 67.85 46.994 77.022 32.486 171.6-32.423 211.19z"/>
</defs>
<use fill="#9999FF" xlink:href="#d"/>
<clipPath id="w">
<use xlink:href="#d"/>
</clipPath>
<path d="m115.69 168.91c-38.176 18.07-61.787 54.06-68.136 96.376-5.075 33.718 0.679 71.449 19.45 107.47 15.521 29.471 36.266 52.275 58.688 68.052 26.243 18.494 54.696 27.572 77.542 29.217 28.834 2.07 55.715-4.598 77.516-18.919 35.544-23.378 59.091-67.032 56.118-118.67-1.295-22.475-5.245-46.85-17.56-72.403-26.604-55.302-82.781-101.04-143.7-103.29-19.789-0.744-39.897 2.25-59.92 12.166z" clip-path="url(#w)" fill="#99f"/>
<defs>
<path id="c" d="m284.52 467.86c-71.248 43.472-170.83 10.124-222.41-74.441-51.592-84.565-35.653-188.34 35.584-231.8 71.259-43.46 170.8-10.137 222.41 74.464 51.575 84.531 35.653 188.33-35.584 231.78zm9.147-216.45c-42.248-69.244-122.11-97.498-178.45-63.139-56.323 34.36-67.752 118.32-25.517 187.54 42.213 69.221 122.11 97.487 178.44 63.127 56.322-34.361 67.745-118.33 25.527-187.53z"/>
</defs>
<use fill="#666666" xlink:href="#c"/>
<clipPath id="v">
<use xlink:href="#c"/>
</clipPath>
<path d="m107.24 155.8c-41.897 19.831-67.81 59.329-74.778 105.77-5.569 37.005 0.746 78.414 21.346 117.95 17.034 32.344 39.801 57.371 64.409 74.685 28.801 20.297 60.027 30.259 85.101 32.065 31.645 2.271 61.146-5.046 85.073-20.763 39.009-25.657 64.851-73.567 61.589-130.24-1.422-24.666-5.756-51.417-19.272-79.461-29.198-60.693-90.85-110.89-157.71-113.36-21.718-0.816-43.787 2.47-65.762 13.352z" clip-path="url(#v)" fill="#666"/>
</g>
</g>
<circle cx="175" cy="336" r="123" fill="#99f"/>
<polygon points="302.33 27 485 343.39 119.67 343.39" fill="#666"/>
<polygon points="302.33 84.101 435.55 314.84 169.12 314.84" fill="#99f"/>
<path d="m148.94 327l73.39-124.49c57.429 26.984 88.947 67.213 87.102 124.49h-160.49z" fill="#6161FF"/>
<path d="m175 486c-82.843 0-150-67.157-150-150s67.157-150 150-150 150 67.157 150 150-67.157 150-150 150zm123-150c0-67.931-55.069-123-123-123s-123 55.069-123 123 55.069 123 123 123 123-55.069 123-123z" fill="#666"/>
<path d="m324.82 343.39h-205.15l88.715-153.66c9.598 2.181 18.846 5.283 27.647 9.208 46.264 20.63 80.16 63.997 87.49 115.9 0.976 6.913 1.481 13.979 1.481 21.163 0 2.477-0.06 4.941-0.179 7.388zm-102.38-120.91l-53.322 92.357h127.07v-1e-3c-7.253-41.824-35.63-76.405-73.741-92.353" fill="#333"/>
</g>
</g>
<g display="none">
<path d="M512,462c0,27.614-22.386,50-50,50H50c-27.614,0-50-22.386-50-50V50   C0,22.386,22.386,0,50,0h412c27.614,0,50,22.386,50,50V462z" display="inline" fill="#fff"/>
<g display="inline">
<defs>
<path id="u" d="M485,440.241c0,24.72-20.039,44.759-44.759,44.759H71.759C47.039,485,27,464.961,27,440.241V71.759     C27,47.039,47.039,27,71.759,27h368.482C464.961,27,485,47.039,485,71.759V440.241z"/>
</defs>
<clipPath id="t">
<use xlink:href="#u"/>
</clipPath>
<g clip-path="url(#t)">
<rect width="150" height="512" fill="#99f"/>
<path d="m360.49 347.09h-56.055l-39.307-62.549-36.572 62.549h-52.637l62.549-93.652-56.396-81.348h55.713l34.521 51.611 29.736-51.611h52.295l-55.029 81.348 61.182 93.652z" fill="#666"/>
<path d="M512,239.947H376.174v-20.568H512V239.947z M512,301H376.174v-20.895H512V301z" fill="#666"/>
</g>
</g>
</g>
<g display="none">
<path d="M512,462c0,27.614-22.386,50-50,50H50c-27.614,0-50-22.386-50-50V50   C0,22.386,22.386,0,50,0h412c27.614,0,50,22.386,50,50V462z" display="inline" fill="#fff"/>
<g display="inline">
<defs>
<path id="s" d="M485,440.241c0,24.72-20.039,44.759-44.759,44.759H71.759C47.039,485,27,464.961,27,440.241V71.759     C27,47.039,47.039,27,71.759,27h368.482C464.961,27,485,47.039,485,71.759V440.241z"/>
</defs>
<clipPath id="r">
<use xlink:href="#s"/>
</clipPath>
<g clip-path="url(#r)">
<path d="m44 480.09c41.78-277.92 106.76-516.86 211.79-224.02 105.9 295.25 167.53 53.9 212.21-224.16" fill="none" stroke="#666" stroke-miterlimit="10" stroke-width="30"/>
<circle cx="163.95" cy="121.95" r="63.047" fill="#99f"/>
<path d="m163.95 58.906c-34.817 0-63.047 28.233-63.047 63.047 0 34.823 28.229 63.047 63.047 63.047 34.817 0 63.047-28.223 63.047-63.047 0-34.814-28.23-63.047-63.047-63.047zm0 107.18c-24.374 0-44.133-19.759-44.133-44.133s19.759-44.133 44.133-44.133 44.133 19.759 44.133 44.133-19.759 44.133-44.133 44.133z" fill="#333"/>
<circle cx="346.05" cy="391.05" r="63.047" fill="#99f"/>
<path d="m346.05 328c-34.818 0-63.047 28.233-63.047 63.047 0 34.823 28.229 63.047 63.047 63.047 34.817 0 63.047-28.223 63.047-63.047 0-34.814-28.23-63.047-63.047-63.047zm0 107.18c-24.374 0-44.133-19.759-44.133-44.133s19.759-44.133 44.133-44.133 44.133 19.759 44.133 44.133-19.76 44.133-44.133 44.133z" fill="#333"/>
</g>
</g>
</g>
<g display="none">
<rect x="12" y="12" width="488" height="488" display="inline" fill="none" stroke="#661D1D" stroke-miterlimit="10" stroke-width="26"/>
</g>
</svg>
