<svg xmlns="http://www.w3.org/2000/svg" width="24" height="24" viewBox="0 0 24 24"><path d="M8.115 8.114c4.828-4.828 10.482-7.003 12.629-4.857 2.145 2.146-.03 7.8-4.858 12.629l-.455.444c-4.648 4.443-9.923 6.428-12.071 4.51l-.103-.097c-2.079-2.079-.103-7.45 4.412-12.173zm10.399-4.483c-.702-.017-1.6.155-2.648.559-2.095.805-4.579 2.449-6.903 4.773S4.996 13.77 4.19 15.865c-.404 1.05-.576 1.947-.559 2.649.017.693.214 1.12.475 1.38.26.261.688.457 1.38.474.702.018 1.6-.155 2.65-.558 2.094-.806 4.578-2.449 6.901-4.773 2.324-2.324 3.967-4.807 4.773-6.902.403-1.049.576-1.947.559-2.649-.018-.692-.214-1.12-.474-1.38s-.688-.458-1.381-.475"/></svg>