<svg xmlns="http://www.w3.org/2000/svg" width="24" height="24" viewBox="0 0 24 24"><path d="m5.131 2.456 14.434 2.15c1.615.241 2.497 2.004 1.717 3.428l-3.736 10.529-.123.199a2.35 2.35 0 0 1-1.296.93l-9.9 1.787c-1.456.413-2.906-.626-2.995-2.103l-.004-.144L2.43 4.767c0-1.428 1.28-2.523 2.701-2.31m-.704 16.776A1.15 1.15 0 0 0 5.9 20.325l.057-.017.057-.01 9.82-1.773c.26-.083.48-.252.623-.478l3.727-10.505.047-.085a1.135 1.135 0 0 0-.842-1.664L4.955 3.643c-.7-.104-1.315.43-1.325 1.107l.796 14.415.001.034z"/></svg>