<svg xmlns="http://www.w3.org/2000/svg" width="24" height="24" viewBox="0 0 24 24"><path fill-rule="evenodd" d="M16.754 19.845c-2.005 1.163-4.166 1.722-6.203 1.722q-.289 0-.574-.015a2.57 2.57 0 0 1-2.263 1.357 2.58 2.58 0 0 1-2.55-2.917 7.5 7.5 0 0 1-2.271-2.453 7.5 7.5 0 0 1-.93-2.741 2.586 2.586 0 0 1 .608-5.095q.12 0 .237.011c.978-2.109 2.705-4.042 5.028-5.39q.37-.215.747-.402a2.58 2.58 0 0 1 2.56-2.831c1.042 0 1.942.627 2.345 1.525 2.593-.127 5.03.64 6.757 2.21.355-.185.757-.29 1.184-.29A2.58 2.58 0 0 1 24 7.12c0 .988-.555 1.849-1.369 2.283.279 2.106-.29 4.353-1.558 6.346a2.58 2.58 0 0 1 .641 1.705 2.58 2.58 0 0 1-2.571 2.584 2.55 2.55 0 0 1-1.683-.632q-.343.23-.706.44M18.857 7.12a2.58 2.58 0 0 0 2.662 2.582c.2 1.777-.297 3.672-1.37 5.375a2.55 2.55 0 0 0-1.006-.206 2.58 2.58 0 0 0-2.36 3.608q-.292.193-.6.371c-1.916 1.112-3.983 1.62-5.899 1.57l.002-.095a2.58 2.58 0 0 0-2.572-2.583c-.887 0-1.67.453-2.133 1.142a6.4 6.4 0 0 1-1.699-1.92 6.4 6.4 0 0 1-.764-2.152 2.586 2.586 0 0 0 .778-4.738C4.79 8.223 6.34 6.518 8.407 5.318q.27-.156.543-.297a2.57 2.57 0 0 0 2.193 1.236 2.58 2.58 0 0 0 2.57-2.507q.17-.006.338-.006c2.044 0 3.936.629 5.317 1.831-.32.431-.51.966-.51 1.544m2.572-1.436a1.434 1.434 0 0 1 .943 2.512 1.42 1.42 0 0 1-1.087.352 1.435 1.435 0 0 1 .144-2.864m-3.715 11.77a1.434 1.434 0 0 1 1.74-1.4 1.435 1.435 0 0 1 1.117 1.4c0 .792-.64 1.436-1.428 1.436-.261 0-.506-.07-.717-.194a1.44 1.44 0 0 1-.712-1.242m-5.143-13.78a1.433 1.433 0 0 0-1.428-1.435 1.433 1.433 0 0 0-1.138 2.303 1.425 1.425 0 0 0 2.566-.867m-10 7.178q-.111 0-.218.016a1.436 1.436 0 0 0 .218 2.855q.24-.001.457-.076a1.438 1.438 0 0 0-.457-2.795m5.143 8.038a1.432 1.432 0 0 0-1.39 1.77c.151.63.717 1.1 1.39 1.1a1.435 1.435 0 0 0 1.429-1.435v-.002a1.434 1.434 0 0 0-1.429-1.433" clip-rule="evenodd"/></svg>