<svg xmlns="http://www.w3.org/2000/svg" width="24" height="24" viewBox="0 0 24 24"><path d="M21.54 4.167c.102-.373-.064-.776-.37-.9-.289-.117-.598.053-.72.382l-.022.068-.003.009-.002.009-.006.023-.035.122-.141.471a42 42 0 0 1-.54 1.636c-.47 1.33-1.136 3.002-1.936 4.43-.818 1.46-1.698 2.524-2.558 2.848a1.44 1.44 0 0 1-1.242-.084c-.443-.233-.95-.72-1.496-1.605q-.936-1.516-1.967-2.058a2.42 2.42 0 0 0-2.057-.135c-1.264.476-2.337 1.902-3.179 3.405-.86 1.535-1.56 3.3-2.044 4.668a43 43 0 0 0-.743 2.316l-.004.016-.007.023-.004.013-.004.014c-.102.373.064.776.371.9.307.125.64-.077.742-.45l.002-.009.002-.009.006-.022.035-.123a41.629 41.629 0 0 1 .681-2.108c.47-1.329 1.136-3.001 1.936-4.43.818-1.46 1.699-2.523 2.558-2.847a1.44 1.44 0 0 1 1.242.084c.444.233.95.72 1.497 1.605q.935 1.515 1.967 2.058c.701.37 1.399.383 2.056.135 1.265-.476 2.337-1.902 3.18-3.405.86-1.535 1.56-3.3 2.043-4.668a43 43 0 0 0 .743-2.316l.005-.016.006-.023.004-.013z"/></svg>