<svg xmlns="http://www.w3.org/2000/svg" width="24" height="24" viewBox="0 0 24 24"><path d="M15.185 3.065a2.094 2.094 0 0 1 2.96 0l1.593 1.593a2.09 2.09 0 0 1 0 2.96L8.048 19.313c-.426.422-.95.733-1.525.905L2 21.547a.599.599 0 0 1-.742-.743l1.33-4.524c.17-.575.48-1.099.905-1.525zm2.115.845a.9.9 0 0 0-1.27 0L13.98 5.96l2.864 2.83 2.049-2.015a.897.897 0 0 0 0-1.27zM3.735 16.62l-1.02 3.47 3.468-1.021a2.36 2.36 0 0 0 1.017-.606l8.766-8.796-2.83-2.863-8.797 8.8a2.4 2.4 0 0 0-.604 1.017m18.433 3.754a.6.6 0 0 1 .598.598.6.6 0 0 1-.598.598H10.205a.6.6 0 0 1-.598-.598.6.6 0 0 1 .598-.598z"/></svg>