<svg xmlns="http://www.w3.org/2000/svg" width="512" height="512"><path d="M376.84 442.69l-.19-2.39-191.57-191.58c9.7-43 9.84-57.3 9.84-57.91v-1.66l-.79-1.46c-.37-.67-9.17-16.61-29.4-36.84-8.12-8.12-20.72-12.24-37.44-12.24-19 0-36.75 5.31-37.5 5.54l-10.39 3.14 22.93 22.92 34 11L142 219.5l-28.92 28.92-38.31-5.7-11-34-22.86-22.93-3.15 10.39c-.64 2.14-15.59 52.64 6.71 74.93 20.23 20.23 36.17 29 36.84 29.4l1.41.76h2c2.56 0 25.23-.28 57.8-9.65l189.69 189.72 1.7 1.7 2.4.18c1.49.12 3 .17 4.38.17 11.14 0 20-3.48 26.38-10.36 11.05-11.92 9.82-29.59 9.77-30.34zM433.75 155.85c0-12.11 16.08-22.48 38.91-26.83a121.53 121.53 0 0 0-15.94-38.46c-19.22 13.07-37.92 17.1-46.49 8.54s-4.53-27.27 8.55-46.49a121.68 121.68 0 0 0-38.47-15.94C376 59.5 365.59 75.58 353.48 75.58S331 59.5 326.65 36.67a121.68 121.68 0 0 0-38.47 15.94c13.07 19.22 17.1 37.92 8.54 46.49s-27.27 4.53-46.48-8.55a121.47 121.47 0 0 0-16 38.47c22.84 4.35 38.92 14.72 38.92 26.83s-16.08 22.49-38.92 26.83a121.72 121.72 0 0 0 15.29 37.43c19.45-13.43 38.48-17.65 47.14-9s4.38 27.94-9.26 47.52A121.51 121.51 0 0 0 326.38 275c4.18-23.59 14.73-40.35 27.1-40.35s22.91 16.76 27.09 40.35a121.47 121.47 0 0 0 38.93-16.34c-13.64-19.58-18-38.81-9.27-47.52s27.69-4.44 47.14 9a121.47 121.47 0 0 0 15.29-37.43c-22.83-4.37-38.91-14.71-38.91-26.86zm-80.27 49.86a49.86 49.86 0 1 1 49.85-49.86 49.86 49.86 0 0 1-49.85 49.86z"/></svg>