<svg xmlns="http://www.w3.org/2000/svg" viewBox="0 0 512 512" width="512" height="512"><path fill="#FFF" d="M512 462c0 27.614-22.386 50-50 50H50c-27.614 0-50-22.386-50-50V50C0 22.386 22.386 0 50 0h412c27.614 0 50 22.386 50 50v412z"/><circle cx="175" cy="336" r="123" fill="#99F"/><path fill="#666" d="M302.333 27L485 343.388H119.667"/><path fill="#99F" d="M302.333 84.1L435.55 314.84H169.116"/><path fill="#6161FF" d="M148.944 327l73.39-124.494C279.764 229.49 311.28 269.72 309.436 327H148.944z"/><path fill="#666" d="M175 486c-82.843 0-150-67.157-150-150s67.157-150 150-150 150 67.157 150 150-67.157 150-150 150zm123-150c0-67.93-55.07-123-123-123S52 268.07 52 336s55.07 123 123 123 123-55.07 123-123z"/><path fill="#333" d="M324.82 343.388H119.668l88.715-153.66a148.745 148.745 0 0 1 27.647 9.208c46.263 20.63 80.16 63.997 87.49 115.9a151.506 151.506 0 0 1 1.3 28.552zM222.44 222.48l-53.323 92.358h127.07c-7.254-41.825-35.63-76.406-73.742-92.354"/></svg>