<?xml version="1.0" encoding="iso-8859-1"?>
<!-- Generator: Adobe Illustrator 15.1.0, SVG Export Plug-In . SVG Version: 6.00 Build 0)  -->
<!DOCTYPE svg PUBLIC "-//W3C//DTD SVG 1.1//EN" "http://www.w3.org/Graphics/SVG/1.1/DTD/svg11.dtd">
<svg version="1.1" xmlns="http://www.w3.org/2000/svg" xmlns:xlink="http://www.w3.org/1999/xlink" x="0px" y="0px" width="512px"
	 height="512px" viewBox="0 0 512 512" style="enable-background:new 0 0 512 512;" xml:space="preserve">
<g id="menu-edit-view">
	<g>
		<path style="fill:#999999;" d="M256,118.477C131.736,118.477,31,238.422,31,256c0,21.973,100.736,137.523,225,137.523
			c124.264,0,225-119.066,225-137.523S380.264,118.477,256,118.477z M256,369.379c-111.417,0-201.739-95.795-201.739-114
			c0-9.047,90.322-114,201.739-114c111.418,0,201.738,104.073,201.738,114C457.738,265.76,367.418,369.379,256,369.379z"/>
		<path style="fill:#999999;" d="M256,126.593c-71.469,0-129.406,57.938-129.406,129.407c0,71.469,57.938,129.406,129.406,129.406
			S385.406,327.469,385.406,256C385.406,184.531,327.469,126.593,256,126.593z M256,363.916
			c-59.601,0-107.916-48.316-107.916-107.916c0-59.601,48.315-107.917,107.916-107.917c59.6,0,107.916,48.316,107.916,107.917
			C363.916,315.6,315.6,363.916,256,363.916z"/>
		<circle style="fill:#999999;" cx="256" cy="256" r="68.526"/>
		<ellipse style="fill:#FFFFFF;" cx="283.246" cy="221.723" rx="9.668" ry="21.094"/>
		<ellipse style="fill:#FFFFFF;" cx="266.986" cy="248.09" rx="6.592" ry="12.305"/>
	</g>
</g>
<g id="Ebene_1">
</g>
</svg>
