<?xml version="1.0" encoding="iso-8859-1"?>
<!-- Generator: Adobe Illustrator 15.1.0, SVG Export Plug-In . SVG Version: 6.00 Build 0)  -->
<!DOCTYPE svg PUBLIC "-//W3C//DTD SVG 1.1//EN" "http://www.w3.org/Graphics/SVG/1.1/DTD/svg11.dtd">
<svg version="1.1" xmlns="http://www.w3.org/2000/svg" xmlns:xlink="http://www.w3.org/1999/xlink" x="0px" y="0px" width="512px"
	 height="512px" viewBox="0 0 512 512" style="enable-background:new 0 0 512 512;" xml:space="preserve">
<g id="menu-edit-copy-visual-style">
	<g>
		<path style="fill:#999999;stroke:#999999;stroke-width:13;stroke-miterlimit:10;" d="M260.432,236.227l27.996-158.771
			c0,0,33.716-27.694,55.927,9.861l-27.996,158.771"/>
		<path style="fill:#999999;stroke:#999999;stroke-width:13;stroke-miterlimit:10;" d="M373.314,331.884
			c-2.724,15.444-198.47-19.072-195.747-34.516l8.023-45.506c2.724-15.442,17.451-25.755,32.895-23.031l139.819,24.653
			c15.444,2.723,25.757,17.451,23.033,32.894L373.314,331.884z"/>
		<path style="fill:#CCCCCC;stroke:#999999;stroke-width:13;" d="M177.568,297.368c0,0-2.65,66.811-42.67,103.003
			c-40.02,36.193,189.938,56.559,201.339,35.501c11.401-21.056,37.078-103.988,37.078-103.988S290.494,335.542,177.568,297.368z"/>
		<path style="opacity:0.2;fill:#666666;" d="M336.236,435.872c4.474-8.259,11.141-26.041,17.597-44.604
			c-4.48,0.206-9.072,1.288-13.116,2.842c-13.992,5.372-13.092,14.295-24.112,11.39c-11.022-2.904-6.528-17.489-13.108-29.222
			c-6.582-11.733-11.901-8.826-35.474,15.85c-23.573,24.677-25.058,0.388-26.297-49.809c-1.24-50.197-10.337-9.511-29.963,9.134
			c-19.626,18.645-16.94,14.313-29.17-8.989c-2.942-5.603-7.101-6.967-11.719-5.815c-5.753,20.96-16.386,46.008-35.975,63.723
			C94.877,436.564,324.836,456.93,336.236,435.872z"/>
		<path style="fill:none;stroke:#666666;stroke-width:13;stroke-miterlimit:10;" d="M336.236,435.872
			c4.474-8.259,11.141-26.041,17.597-44.604c-4.48,0.206-9.072,1.288-13.116,2.842c-13.992,5.372-13.092,14.295-24.112,11.39
			c-11.022-2.904-6.528-17.489-13.108-29.222c-6.582-11.733-11.901-8.826-35.474,15.85c-23.573,24.677-25.058,0.388-26.297-49.809
			c-1.24-50.197-10.337-9.511-29.963,9.134c-19.626,18.645-16.94,14.313-29.17-8.989c-2.942-5.603-7.101-6.967-11.719-5.815
			c-5.753,20.96-16.386,46.008-35.975,63.723C94.877,436.564,324.836,456.93,336.236,435.872z"/>
	</g>
</g>
<g id="Ebene_1">
</g>
</svg>
