<?xml version="1.0" encoding="iso-8859-1"?>
<!-- Generator: Adobe Illustrator 15.1.0, SVG Export Plug-In . SVG Version: 6.00 Build 0)  -->
<!DOCTYPE svg PUBLIC "-//W3C//DTD SVG 1.1//EN" "http://www.w3.org/Graphics/SVG/1.1/DTD/svg11.dtd">
<svg version="1.1" xmlns="http://www.w3.org/2000/svg" xmlns:xlink="http://www.w3.org/1999/xlink" x="0px" y="0px" width="512px"
	 height="512px" viewBox="0 0 512 512" style="enable-background:new 0 0 512 512;" xml:space="preserve">
<g id="menu-options-language">
	<g>
		<polygon style="fill:#999999;" points="405.828,216.328 407.587,215.443 408.251,213.699 407.967,213.889 406.018,212.761 
			403.921,212.382 403.109,214.9 404.037,216.201 		"/>
		<polygon style="fill:#999999;" points="415.11,228.022 414.299,225.241 397.272,214.194 393.175,213.941 389.508,217.971 
			387.664,222.997 389.192,225.768 		"/>
		<polygon style="fill:#999999;" points="154.087,214.716 152.127,221.764 158.48,214.552 159.007,212.308 156.273,211.233 		"/>
		<polygon style="fill:#999999;" points="157.933,203.363 157.911,203.743 147.007,208.868 160.793,206.145 		"/>
		<polygon style="fill:#999999;" points="166.182,217.023 167.525,215.948 168.7,213.225 168.505,213.588 169.458,210.38 
			166.856,210.001 164.875,210.507 163.574,211.897 162.916,214.194 164.654,216.433 		"/>
		<polygon style="fill:#999999;" points="383.871,167.932 381.912,166.847 373.188,166.309 369.521,163.212 373.957,146.855 
			352.265,181.96 346.564,186.227 357.132,190.241 		"/>
		<polygon style="fill:#999999;" points="404.332,265.219 425.92,299.513 408.504,267.094 		"/>
		<path style="fill:#999999;" d="M257.021,56C146.564,56,57,145.538,57,256.005C57,366.467,146.564,456,257.021,456
			C367.467,456,457,366.467,457,256.005C457,145.538,367.467,56,257.021,56z M323.67,193.413l-0.463,5.647l-8.187,1.902
			l-3.456-8.729l-0.063-17.01L323.67,193.413z M322.132,149.384l-5.12,3.993l-7.976-0.769l-0.653-1.623l0.253-7.354l5.91,1.307
			l6.195-1.391l2.908,1.169L322.132,149.384z M212.697,86.601l3.582-4.709c5.974-1.37,12.042-2.465,18.243-3.245L215.11,91.348
			l-10.02,0.39L212.697,86.601z M192.99,90.326l3.75,0.737l13.027,7.396l3.129,0.474l-5.215,5.01l-8.434-1.138l-6.59-5.231
			L192.99,90.326z M185.262,92.011l0.785,1.138l-2.186,2.66l-3.972,1.702l-3.656,0.221l-0.711-0.958
			C178.746,95.14,181.943,93.434,185.262,92.011z M165.971,114.869l6.743-7.428l2.618,1.349l-0.979,4.825l-3.509,4.13l-4.894-0.716
			L165.971,114.869z M130.771,129.508l5.289-3.667l-0.969-0.975c5.531-5.099,11.347-9.924,17.489-14.297l0.88,0.316l8.729-1.696
			l-0.253,9.756l-10.093,10.857l-12.927,5.963l-8.792-5.025L130.771,129.508z M80.737,275.344l-3.629-8.123
			c-0.032-0.601-0.095-1.201-0.095-1.802l3.867,6.638L80.737,275.344z M246.97,387.401l-19.723,14.55l-22.188,28.415
			c-12.837-3.866-24.98-9.219-36.422-15.688l-0.632-22.736l-21.198-41.005l0.327-7.996l6.095-14.593l-0.142-9.809l-6.685-7.396
			l-48.907-21.567l-16.241-27.604l-4.462-1.638l-0.084,0.284c-0.01-0.601-0.095-1.17-0.095-1.738
			c-0.363-47.901,18.137-91.466,48.364-124.001l5.563,3.098l30.743-6.321l3.635-2.118l0.812,1.675l-2.181,4.109l-0.411,1.801
			l21.361-29.769l1.548-0.58l1.396-0.01l1.233,0.516l1.106,1.075l-13.438,25.038l5.157,4.857l7.27-4.983l1.617-22.457l9.192-2.897
			l-4.393,7.206l13.633-7.723l4.741,1.096l0.474,2.266l-8.676,1.548l16.383,13.955l6.358,10.915l-8.244,9.056l1.322,1.528l-6,9.503
			l-1.449-0.095l-3.076,1.644l-14.134-8.881l14.197-11.595l-2.118-4.688l-13.507-8.534l-4.34,12.232l-29.295,22.72l-9.587,14.397
			l8.134,9.266l13.185,6.069l5.553,4.983l11.526-29.484l4.446-4.283l19.765,9.529l2.266-0.316l16.235,39.225l-4.878,1.844
			l-6.037-0.306l-1.959-2.613l2.718-1.917l1.527-1.991l0.337-2.086l-0.885-2.208l-24.759,7.022l9.746,7.196l5.468,0.695
			l-37.66,20.982l-17.068,24.833l0.116,13.06l-6.3-1.496l-2.987-8.556l-20.355-3.787l-8.16,4.535l-6.864,9.324l-1.349,5.047
			l0.764,6.152l3.914,4.204l10.92-5.247l3.492,0.411l13.302,22.441l43.802,1.485l18.648,7.08l15.14,19.828l25.844,7.67l9.018,6.68
			L246.97,387.401z M186.116,153.945l-2.36,1.486l-7.506-0.032l-1.112-1.169l6.143-7.712l1.654,0.4l1.66,2.402L186.116,153.945z
			 M253.176,158.971l-4.114-11.8l1.554-11.184l6.479-15.208l-3.782-25.27l-13.064-1.696l-1.854-3.382l0.938-4.588l4.789-6.879
			l2.35-1.275c3.071-0.19,6.1-0.506,9.203-0.538c23.589-0.168,46.052,4.32,66.744,12.375l-11.926,31.95l-50.835,43.971
			L253.176,158.971z M430.861,305.266c-11.073,40.383-35.759,75.108-68.936,98.888l-24.369-81.704l-12.801-3.656l-28.384,0.095
			l-17.173-10.125l0.969-20.102l23.053-45.314l-1.128-9.477l1.17-7.744l15.045-5.984l-0.948-4.256l-2.813-4.704l-0.253-3.309
			l34.8-25.649v-4.91l-12.39-9.519l-1.232-4.646l26.35-35.758l10.04-4.314l5.511,0.358c6.553,5.884,12.801,12.111,18.427,18.88
			l-2.402,0.727l6.532,6.701l1.138-0.474c15.341,20.36,26.604,43.998,32.197,69.81l-0.348,1.317l0.97,1.959
			c2.159,10.947,3.424,22.268,3.54,33.873c0.105,16.336-2.139,32.118-6.09,47.185l-1.391,0.863L430.861,305.266z"/>
		<polygon style="fill:#999999;" points="405.691,242.282 378.688,234.944 375.97,231.646 376.507,239.501 375.812,240.107 
			354.666,218.035 354.635,218.192 351.242,219.014 350.673,218.203 351.695,222.459 360.029,228.56 360.661,233.016 
			359.028,235.755 357.827,236.641 356.31,237.188 348.366,224.693 336.418,224.767 311.501,243.262 344.193,242.061 
			358.976,255.468 366.014,257.934 405.248,250.058 		"/>
	</g>
</g>
<g id="Ebene_1">
</g>
</svg>
