<svg xmlns="http://www.w3.org/2000/svg" viewBox="0 0 539.37 382.96" width="539" height="383"><defs><style>.cls-1,.cls-2{fill:none;}.cls-1{stroke:#231f20;stroke-miterlimit:10;stroke-width:0.57px;}</style></defs><title>ElementaryHouse19</title><g id="Layer_2" data-name="Layer 2"><g id="Layer_1-2" data-name="Layer 1"><line class="cls-1" x1="3.34" y1="28.63" x2="539.08" y2="28.63"/><line class="cls-1" x1="28.85" y1="14.46" x2="28.85" y2="42.8"/><rect class="cls-1" x="7.59" y="17.29" width="5.67" height="5.67"/><polyline class="cls-1" points="18.93 28.63 18.93 17.29 24.59 17.29 24.59 28.63"/><line class="cls-1" x1="18.93" y1="22.96" x2="20.34" y2="22.96"/><polyline class="cls-1" points="7.59 28.63 7.59 31.46 10.42 31.46 10.42 34.3 13.26 34.3 13.26 37.13 16.09 37.13 16.09 39.97 18.93 39.97 18.93 42.8"/><polyline class="cls-1" points="539.08 14.46 0.5 14.46 9.01 0.28 539.08 0.28 539.08 42.8 3.33 42.8 3.33 14.46"/><line class="cls-1" x1="31.68" y1="14.46" x2="23.18" y2="0.28"/><rect class="cls-2" x="0.5" y="361.7" width="538.58" height="21.26"/><line class="cls-1" x1="3.34" y1="92.41" x2="539.08" y2="92.41"/><line class="cls-1" x1="28.85" y1="78.24" x2="28.85" y2="106.58"/><rect class="cls-1" x="7.59" y="81.07" width="5.67" height="5.67"/><polyline class="cls-1" points="18.93 92.41 18.93 81.07 24.59 81.07 24.59 92.41"/><line class="cls-1" x1="18.93" y1="86.74" x2="20.34" y2="86.74"/><polyline class="cls-1" points="7.59 92.41 7.59 95.24 10.42 95.24 10.42 98.08 13.26 98.08 13.26 100.91 16.09 100.91 16.09 103.75 18.93 103.75 18.93 106.58"/><polyline class="cls-1" points="539.08 78.24 0.5 78.24 9.01 64.06 539.08 64.06 539.08 106.58 3.33 106.58 3.33 78.24"/><line class="cls-1" x1="31.68" y1="78.24" x2="23.18" y2="64.06"/><line class="cls-1" x1="3.34" y1="156.19" x2="539.08" y2="156.19"/><line class="cls-1" x1="28.85" y1="142.02" x2="28.85" y2="170.36"/><rect class="cls-1" x="7.59" y="144.85" width="5.67" height="5.67"/><polyline class="cls-1" points="18.93 156.19 18.93 144.85 24.59 144.85 24.59 156.19"/><line class="cls-1" x1="18.93" y1="150.52" x2="20.34" y2="150.52"/><polyline class="cls-1" points="7.59 156.19 7.59 159.02 10.42 159.02 10.42 161.86 13.26 161.86 13.26 164.69 16.09 164.69 16.09 167.53 18.93 167.53 18.93 170.36"/><polyline class="cls-1" points="539.08 142.02 0.5 142.02 9.01 127.84 539.08 127.84 539.08 170.36 3.33 170.36 3.33 142.02"/><line class="cls-1" x1="31.68" y1="142.02" x2="23.18" y2="127.84"/><line class="cls-1" x1="3.34" y1="219.97" x2="539.08" y2="219.97"/><line class="cls-1" x1="28.85" y1="205.8" x2="28.85" y2="234.14"/><rect class="cls-1" x="7.59" y="208.63" width="5.67" height="5.67"/><polyline class="cls-1" points="18.93 219.97 18.93 208.63 24.59 208.63 24.59 219.97"/><line class="cls-1" x1="18.93" y1="214.3" x2="20.34" y2="214.3"/><polyline class="cls-1" points="7.59 219.97 7.59 222.8 10.42 222.8 10.42 225.64 13.26 225.64 13.26 228.47 16.09 228.47 16.09 231.31 18.93 231.31 18.93 234.14"/><polyline class="cls-1" points="539.08 205.79 0.5 205.79 9.01 191.62 539.08 191.62 539.08 234.14 3.33 234.14 3.33 205.79"/><line class="cls-1" x1="31.68" y1="205.8" x2="23.18" y2="191.62"/><line class="cls-1" x1="3.34" y1="283.75" x2="539.08" y2="283.75"/><line class="cls-1" x1="28.85" y1="269.57" x2="28.85" y2="297.92"/><rect class="cls-1" x="7.59" y="272.41" width="5.67" height="5.67"/><polyline class="cls-1" points="18.93 283.75 18.93 272.41 24.59 272.41 24.59 283.75"/><line class="cls-1" x1="18.93" y1="278.08" x2="20.34" y2="278.08"/><polyline class="cls-1" points="7.59 283.75 7.59 286.58 10.42 286.58 10.42 289.42 13.26 289.42 13.26 292.25 16.09 292.25 16.09 295.09 18.93 295.09 18.93 297.92"/><polyline class="cls-1" points="539.08 269.57 0.5 269.57 9.01 255.4 539.08 255.4 539.08 297.92 3.33 297.92 3.33 269.57"/><line class="cls-1" x1="31.68" y1="269.57" x2="23.18" y2="255.4"/><line class="cls-1" x1="3.34" y1="347.53" x2="539.08" y2="347.53"/><line class="cls-1" x1="28.85" y1="333.35" x2="28.85" y2="361.7"/><rect class="cls-1" x="7.59" y="336.19" width="5.67" height="5.67"/><polyline class="cls-1" points="18.93 347.53 18.93 336.19 24.59 336.19 24.59 347.53"/><line class="cls-1" x1="18.93" y1="341.86" x2="20.34" y2="341.86"/><polyline class="cls-1" points="7.59 347.53 7.59 350.36 10.42 350.36 10.42 353.2 13.26 353.2 13.26 356.03 16.09 356.03 16.09 358.87 18.93 358.87 18.93 361.7"/><polyline class="cls-1" points="539.08 333.35 0.5 333.35 9.01 319.18 539.08 319.18 539.08 361.7 3.33 361.7 3.33 333.35"/><line class="cls-1" x1="31.68" y1="333.35" x2="23.18" y2="319.18"/></g></g></svg>