<?xml version="1.0" encoding="UTF-8" standalone="no"?>
<!-- Created with Inkscape (http://www.inkscape.org/) -->

<svg
   xmlns:dc="http://purl.org/dc/elements/1.1/"
   xmlns:cc="http://creativecommons.org/ns#"
   xmlns:rdf="http://www.w3.org/1999/02/22-rdf-syntax-ns#"
   xmlns:svg="http://www.w3.org/2000/svg"
   xmlns="http://www.w3.org/2000/svg"
   xmlns:sodipodi="http://sodipodi.sourceforge.net/DTD/sodipodi-0.dtd"
   xmlns:inkscape="http://www.inkscape.org/namespaces/inkscape"
   id="svg2"
   version="1.1"
   inkscape:version="0.48.2 r9819"
   width="115"
   height="115"
   sodipodi:docname="hyperbola.svg">
  <metadata
     id="metadata8">
    <rdf:RDF>
      <cc:Work
         rdf:about="">
        <dc:format>image/svg+xml</dc:format>
        <dc:type
           rdf:resource="http://purl.org/dc/dcmitype/StillImage" />
        <dc:title />
      </cc:Work>
    </rdf:RDF>
  </metadata>
  <defs
     id="defs6" />
  <sodipodi:namedview
     pagecolor="#ffffff"
     bordercolor="#666666"
     borderopacity="1"
     objecttolerance="10"
     gridtolerance="10"
     guidetolerance="10"
     inkscape:pageopacity="0"
     inkscape:pageshadow="2"
     inkscape:window-width="1280"
     inkscape:window-height="962"
     id="namedview4"
     showgrid="false"
     inkscape:zoom="5.8044243"
     inkscape:cx="63.998287"
     inkscape:cy="52.950157"
     inkscape:window-x="1358"
     inkscape:window-y="-8"
     inkscape:window-maximized="1"
     inkscape:current-layer="svg2" />
  <g
     id="g3198">
    <path
       sodipodi:nodetypes="sssssssssscsscs"
       inkscape:connector-curvature="0"
       id="path3031"
       d="m 66.382404,94.115428 c 0,-1.0716 -1.053607,-2.59392 -4.105306,-5.931601 C 54.568986,79.753366 44.238059,71.379651 36.528531,67.313372 30.106736,63.926289 11.285862,57.250753 4.7137094,56.02904 3.4864952,55.80091 -0.83987558,55.226301 -1.1381654,55.09068 c -1.4741925,-0.670263 -4.3841255,-3.017072 3.1225433,-1.881277 0.5965857,0.09027 2.8992761,0.289405 7.9819931,1.727552 15.277822,4.322838 23.980697,7.848958 32.405897,13.129812 6.044451,3.788617 9.52065,6.670915 18.552439,15.382812 7.525046,7.258519 7.217504,6.987024 8.359456,7.379609 l 0.902794,0.310366 -1.129044,0.795822 c -0.620973,0.437702 -1.476996,1.276161 -1.902275,1.863245 l -0.773234,1.067414 z"
       style="fill:#ff1010;fill-opacity:1;stroke:none" />
    <path
       sodipodi:nodetypes="cscssccssccc"
       inkscape:connector-curvature="0"
       id="path3035"
       d="m 83.800841,115.46959 c -1.204403,-0.77382 -2.936863,-4.51018 -5.75138,-7.86016 -1.937472,-2.30607 -3.554471,-3.59148 -4.986542,-3.61889 -0.543062,-0.0104 -0.09647,0.21676 1.041193,-0.14386 1.024323,-0.32469 1.890651,-0.82805 2.740995,-1.59258 l 1.243309,-1.11784 -0.468377,0.56339 c 0.0091,1.18352 1.261444,2.63086 4.443646,6.85065 3.212061,4.25939 5.035727,7.3491 4.791544,7.7442 -0.219409,0.35501 -0.898016,4.0763 -2.079763,3.31704 l 0.243644,-3.16738 z"
       style="fill:#ff1010;fill-opacity:1;stroke:none" />
    <path
       inkscape:connector-curvature="0"
       id="path3021"
       d=""
       style="fill:#000000;fill-opacity:1;stroke:none" />
    <path
       inkscape:connector-curvature="0"
       id="path3023"
       d=""
       style="fill:#000000;fill-opacity:1;stroke:none" />
    <path
       inkscape:connector-curvature="0"
       id="path3025"
       d=""
       style="fill:#000000;fill-opacity:1;stroke:none" />
    <path
       sodipodi:nodetypes="sssssssssscs"
       inkscape:connector-curvature="0"
       id="path3033"
       d="M 105.40701,62.592364 C 79.788028,56.809345 67.32157,52.957364 56.069083,47.347555 47.881517,43.265732 43.600866,39.956985 33.761883,30.105115 25.874539,22.20744 20.557764,16.217645 13.52123,7.3023131 8.4793741,0.91425116 5.1274962,-2.9353664 5.5299367,-3.1900428 5.7215945,-3.3113295 7.5024011,-3.290421 7.7005615,-3.292473 8.3256927,-3.298943 14.146308,4.5435959 18.802718,10.226042 32.933274,27.47025 45.005979,38.708798 55.996526,44.849954 c 8.704021,4.863521 27.183766,10.493453 51.932544,15.821464 4.99348,1.075016 9.64652,1.983382 10.05636,2.882872 0.34064,0.747622 -0.11263,2.229579 -0.69313,2.201914 -0.23871,-0.01138 -7.19514,-2.105126 -11.88529,-3.16384 z"
       style="fill:#ff1010;fill-opacity:1;stroke:none" />
    <path
       inkscape:connector-curvature="0"
       id="path3039"
       d=""
       style="fill:#000000;fill-opacity:1;stroke:none" />
    <path
       inkscape:connector-curvature="0"
       id="path3043"
       d=""
       style="fill:#000000;fill-opacity:1;stroke:none" />
    <path
       inkscape:transform-center-y="-51.153133"
       inkscape:transform-center-x="-25.448041"
       transform="matrix(0.31190419,0,0,0.32840391,11.689791,35.394384)"
       d="m 76.715099,149.80632 a 25.398918,24.621399 0 1 1 -50.797836,0 25.398918,24.621399 0 1 1 50.797836,0 z"
       sodipodi:ry="24.621399"
       sodipodi:rx="25.398918"
       sodipodi:cy="149.80632"
       sodipodi:cx="51.316181"
       id="path3754-1-0-4"
       style="fill:#0000ff;fill-opacity:1;stroke:#000000;stroke-width:7.85547733;stroke-miterlimit:4;stroke-opacity:1;stroke-dasharray:none"
       sodipodi:type="arc" />
    <path
       inkscape:transform-center-y="-51.153133"
       inkscape:transform-center-x="-25.448041"
       transform="matrix(0.31190419,0,0,0.32840391,46.194867,-22.883422)"
       d="m 76.715099,149.80632 a 25.398918,24.621399 0 1 1 -50.797836,0 25.398918,24.621399 0 1 1 50.797836,0 z"
       sodipodi:ry="24.621399"
       sodipodi:rx="25.398918"
       sodipodi:cy="149.80632"
       sodipodi:cx="51.316181"
       id="path3754-1-0-4-8"
       style="fill:#0000ff;fill-opacity:1;stroke:#000000;stroke-width:7.85547733;stroke-miterlimit:4;stroke-opacity:1;stroke-dasharray:none"
       sodipodi:type="arc" />
    <path
       inkscape:transform-center-y="-51.153133"
       inkscape:transform-center-x="-25.448041"
       transform="matrix(0.31190419,0,0,0.32840391,55.922159,48.531711)"
       d="m 76.715099,149.80632 a 25.398918,24.621399 0 1 1 -50.797836,0 25.398918,24.621399 0 1 1 50.797836,0 z"
       sodipodi:ry="24.621399"
       sodipodi:rx="25.398918"
       sodipodi:cy="149.80632"
       sodipodi:cx="51.316181"
       id="path3754-1-0-4-8-4"
       style="fill:#0000ff;fill-opacity:1;stroke:#000000;stroke-width:7.85547733;stroke-miterlimit:4;stroke-opacity:1;stroke-dasharray:none"
       sodipodi:type="arc" />
  </g>
</svg>
