<?xml version="1.0" encoding="UTF-8" standalone="no"?>
<!-- Created with Inkscape (http://www.inkscape.org/) -->

<svg
   xmlns:dc="http://purl.org/dc/elements/1.1/"
   xmlns:cc="http://creativecommons.org/ns#"
   xmlns:rdf="http://www.w3.org/1999/02/22-rdf-syntax-ns#"
   xmlns:svg="http://www.w3.org/2000/svg"
   xmlns="http://www.w3.org/2000/svg"
   xmlns:sodipodi="http://sodipodi.sourceforge.net/DTD/sodipodi-0.dtd"
   xmlns:inkscape="http://www.inkscape.org/namespaces/inkscape"
   id="svg2"
   version="1.1"
   inkscape:version="0.48.2 r9819"
   width="115"
   height="115"
   sodipodi:docname="parabola.svg">
  <metadata
     id="metadata8">
    <rdf:RDF>
      <cc:Work
         rdf:about="">
        <dc:format>image/svg+xml</dc:format>
        <dc:type
           rdf:resource="http://purl.org/dc/dcmitype/StillImage" />
        <dc:title />
      </cc:Work>
    </rdf:RDF>
  </metadata>
  <defs
     id="defs6" />
  <sodipodi:namedview
     pagecolor="#ffffff"
     bordercolor="#666666"
     borderopacity="1"
     objecttolerance="10"
     gridtolerance="10"
     guidetolerance="10"
     inkscape:pageopacity="0"
     inkscape:pageshadow="2"
     inkscape:window-width="1280"
     inkscape:window-height="962"
     id="namedview4"
     showgrid="false"
     inkscape:zoom="4.1043478"
     inkscape:cx="96.759619"
     inkscape:cy="44.93563"
     inkscape:window-x="1358"
     inkscape:window-y="-8"
     inkscape:window-maximized="1"
     inkscape:current-layer="svg2" />
  <g
     id="g3874">
    <path
       inkscape:connector-curvature="0"
       id="path3104"
       d="m -2.1927966,56.525423 116.9491566,61.641947 0,0"
       style="fill:none;stroke:#000000;stroke-width:2.7;stroke-linecap:butt;stroke-linejoin:miter;stroke-opacity:1;stroke-miterlimit:4;stroke-dasharray:none" />
    <path
       sodipodi:nodetypes="csssssssssssssscc"
       inkscape:connector-curvature="0"
       id="path3031"
       d="M 76.726713,71.417309 C 68.428288,70.781129 60.504632,67.717987 53.382451,62.392838 50.788775,60.453585 45.684051,55.377507 43.576221,52.641637 36.761657,43.796634 31.703242,32.829424 28.160603,19.218857 26.827498,14.097162 24.070562,1.5371707 23.898702,-0.95713102 23.801862,-2.362643 25.035272,-1.3603437 25.389707,-1.55003 c 1.299647,-0.69555 1.507579,2.6790349 3.022521,10.9694687 2.192472,11.9981753 4.807634,20.3099663 9.065691,28.8135603 3.61305,7.215475 7.21339,12.349814 12.108828,17.268043 7.389633,7.424037 15.4843,11.656713 25.072577,13.110375 2.800085,0.424516 11.330385,0.417284 15.333131,-0.01299 6.36677,-0.684409 10.057345,-1.388084 16.743885,-3.19253 3.89488,-1.051081 6.69077,-2.425552 8.76688,-2.779449 0.98336,-0.167626 1.55575,1.563545 0.77656,2.201049 -2.10046,1.718489 -13.93967,4.611143 -22.410971,5.805306 -5.380415,0.758454 -12.958286,1.105258 -17.142096,0.784515 z"
       style="fill:#ff0000;fill-opacity:1;stroke:none" />
    <path
       inkscape:connector-curvature="0"
       id="path3041"
       d=""
       style="fill:#000000;fill-opacity:1;stroke:none" />
    <path
       inkscape:connector-curvature="0"
       id="path3055"
       d="M 43.536801,52.762679 C 40.913669,49.422362 38.564777,45.750874 36.408646,41.620855 35.906562,40.659124 35.05227,38.92826 34.778417,38.317878 l -0.02536,-0.05653 0.06843,0 0.06843,0 0.09469,0.201894 c 0.186169,0.396947 0.588295,1.223161 0.855547,1.757818 2.003529,4.008218 4.264751,7.731329 6.755516,11.122981 0.369114,0.50262 0.881325,1.180747 1.114241,1.475168 0.09136,0.115483 0.170861,0.216026 0.176673,0.223428 0.0082,0.01045 -0.004,0.01346 -0.0544,0.01346 l -0.06497,0 -0.23042,-0.293418 z"
       style="fill:#ff0000;fill-opacity:1;stroke:none" />
    <path
       inkscape:connector-curvature="0"
       id="path3057"
       d="m 47.117001,52.864971 c -2.832116,-3.174236 -5.389156,-6.822476 -7.73482,-11.035603 -0.540324,-0.970494 -1.357273,-2.504371 -1.341983,-2.519662 0.0026,-0.0026 0.119897,0.214781 0.260762,0.482967 2.508273,4.775362 5.504621,9.204312 8.73213,12.907099 0.136319,0.156392 0.26153,0.300544 0.278247,0.320337 l 0.03039,0.03599 -0.0271,0 c -0.02153,0 -0.06213,-0.03926 -0.197628,-0.191126 l 0,0 z"
       style="fill:#ff0000;fill-opacity:1;stroke:none" />
    <path
       inkscape:connector-curvature="0"
       id="path3059"
       d="m 34.616671,37.973314 c -0.598348,-1.276789 -1.430635,-3.214714 -2.061335,-4.79968 -0.347557,-0.873418 -1.015382,-2.623139 -1.015382,-2.660328 0,-0.0026 0.02803,-0.0047 0.0623,-0.0047 l 0.0623,0 0.122137,0.331106 c 0.473474,1.28355 1.117804,2.905543 1.686368,4.245145 0.407218,0.959452 0.96913,2.22469 1.286379,2.896497 0.05453,0.115483 0.105992,0.225717 0.11435,0.244964 l 0.0152,0.03499 -0.06866,0 -0.06866,0 -0.134983,-0.288034 z"
       style="fill:#ff0000;fill-opacity:1;stroke:none" />
    <path
       inkscape:connector-curvature="0"
       id="path3061"
       d="m 31.535331,30.499106 c -0.01376,-0.02227 -0.262779,-0.713308 -0.487399,-1.352572 -0.759373,-2.161159 -1.559313,-4.685914 -2.162263,-6.82449 l -0.120814,-0.428508 0.05935,0.0032 0.05935,0.0032 0.15847,0.554534 c 0.536264,1.876555 1.190796,3.960466 1.814438,5.776843 0.226849,0.660704 0.591291,1.691718 0.736295,2.082995 0.0361,0.09742 0.06564,0.181001 0.06564,0.185742 0,0.01182 -0.115726,0.01096 -0.123067,-9.15e-4 l 0,0 z"
       style="fill:#ff0000;fill-opacity:1;stroke:none" />
    <path
       inkscape:connector-curvature="0"
       id="path3063"
       d="m 28.761713,21.870296 c -0.03849,-0.08885 -0.540155,-1.959069 -0.812343,-3.028401 -0.261556,-1.027561 -0.716476,-2.911226 -0.716476,-2.966674 0,-0.0073 0.02079,-0.01049 0.05577,-0.0085 l 0.05577,0.0033 0.158295,0.678361 c 0.298309,1.278379 0.516436,2.157103 0.813887,3.278749 0.175967,0.663544 0.474558,1.756447 0.559682,2.048545 0.0047,0.0162 -0.0022,0.01884 -0.0493,0.01884 -0.04654,0 -0.05638,-0.0037 -0.06529,-0.02423 z"
       style="fill:#ff0000;fill-opacity:1;stroke:none" />
    <path
       inkscape:connector-curvature="0"
       id="path3065"
       d="M 27.122164,15.407556 C 26.693184,13.535916 26.308659,11.653484 25.75728,8.7258045 25.609485,7.9410486 25.48604,7.2880733 25.482959,7.2747483 c -0.0051,-0.021979 -0.0017,-0.024227 0.03691,-0.024227 l 0.04251,0 0.01147,0.05653 c 0.0063,0.031092 0.0529,0.2769977 0.103532,0.5464581 0.431203,2.2947216 1.020691,5.1474936 1.534307,7.4251376 0.07089,0.314341 0.128882,0.574784 0.128882,0.578761 0,0.004 -0.02557,0.0072 -0.05682,0.0072 l -0.05682,0 -0.104764,-0.457084 z"
       style="fill:#ff0000;fill-opacity:1;stroke:none" />
    <path
       inkscape:connector-curvature="0"
       id="path3067"
       d="M 29.171991,13.315399 C 28.928678,12.128263 28.704275,10.966835 28.379858,9.2156169 27.796835,6.0684241 27.450278,4.3788125 27.124704,3.0961934 26.864474,2.0710076 26.650586,1.4251097 26.409126,0.93529539 26.207313,0.52590985 26.028318,0.30668255 25.806181,0.19683122 c -0.230144,-0.1138112 -0.452314,-0.0928996 -0.771207,0.0725893 -0.310275,0.1610173 -0.349349,0.26653299 -0.331203,0.89440018 0.0097,0.336551 0.0437,0.8633839 0.07484,1.1605013 0.07508,0.7163765 0.245761,1.8612997 0.479144,3.214143 0.0866,0.5020083 0.289707,1.6349224 0.302586,1.6878289 0.0054,0.022098 0.0021,0.024227 -0.03758,0.024227 l -0.04348,0 -0.01119,-0.05653 C 25.348213,6.5881324 24.998203,4.6326154 24.870175,3.8533281 24.584268,2.1130476 24.503909,1.1692755 24.601544,0.69840713 24.655961,0.43596974 24.76032,0.27045222 24.9259,0.18396365 c 0.142562,-0.0744656 0.259859,-0.09446586 0.594938,-0.10144334 0.298391,-0.0062135 0.320188,-0.0022345 0.448428,0.08186334 0.675032,0.44267565 1.394807,2.74508755 2.075555,6.63928005 0.04452,0.2546549 0.170972,1.0153893 0.281013,1.6905208 0.28541,1.7510765 0.603409,3.5285355 0.828632,4.6316445 0.06632,0.324804 0.0631,0.305322 0.05046,0.305322 -0.0051,0 -0.01989,-0.05209 -0.03294,-0.115752 l 0,0 z"
       style="fill:#ff0000;fill-opacity:1;stroke:none" />
    <path
       inkscape:connector-curvature="0"
       id="path3069"
       d="m 34.454274,31.512725 c -0.02366,-0.03835 -0.483251,-1.218027 -0.701604,-1.800889 -1.450356,-3.871523 -2.631469,-7.829406 -3.715799,-12.451561 -0.105624,-0.450239 -0.127872,-0.559331 -0.108769,-0.533326 0.0018,0.0025 0.02414,0.09655 0.04961,0.209072 0.09385,0.414584 0.402984,1.677729 0.571841,2.336579 0.965097,3.765628 2.104292,7.388844 3.402443,10.821487 0.141098,0.373099 0.322359,0.844648 0.402802,1.047885 0.08044,0.203238 0.146261,0.371617 0.146261,0.374176 0,0.0081 -0.04157,0.005 -0.04678,-0.0034 l 0,0 z"
       style="fill:#ff0000;fill-opacity:1;stroke:none" />
    <path
       inkscape:connector-curvature="0"
       id="path3071"
       d="m 37.269457,37.801213 c -0.267113,-0.534111 -0.766014,-1.580262 -1.123368,-2.355605 -0.575477,-1.248596 -1.23956,-2.790062 -1.685059,-3.911348 -0.0034,-0.0085 0.004,-0.01339 0.02003,-0.01328 0.02288,1.64e-4 0.0327,0.01901 0.09965,0.191125 0.1447,0.372016 0.604666,1.481107 0.878531,2.118353 0.52136,1.213136 1.109625,2.499745 1.646634,3.601398 0.142796,0.292939 0.258333,0.536505 0.25675,0.541256 -0.0016,0.0048 -0.04351,-0.07261 -0.09317,-0.171902 l 0,0 z"
       style="fill:#ff0000;fill-opacity:1;stroke:none" />
    <path
       inkscape:connector-curvature="0"
       id="path3073"
       d="m 49.066096,58.860935 c -1.369695,-1.298938 -2.8273,-2.84536 -4.113479,-4.364127 -0.421838,-0.498122 -1.177114,-1.418861 -1.177114,-1.434992 0,-0.0031 0.02816,-0.0057 0.06258,-0.0057 0.05812,0 0.06442,0.0025 0.08844,0.035 0.05786,0.0783 0.539367,0.648396 0.811672,0.961013 0.890036,1.021793 1.928639,2.128548 3.161314,3.368756 0.565714,0.569171 1.409623,1.398812 1.647451,1.619598 l 0.04845,0.04498 -0.146009,2.69e-4 -0.146009,2.69e-4 -0.237303,-0.225045 z"
       style="fill:#ff0000;fill-opacity:1;stroke:none" />
    <path
       inkscape:connector-curvature="0"
       id="path3075"
       d="m 53.093358,62.311531 c -1.308376,-1.009033 -2.62067,-2.124825 -3.770119,-3.205584 -0.02075,-0.01951 -0.01789,-0.01996 0.123828,-0.01971 l 0.145064,2.55e-4 0.344565,0.324532 c 1.352752,1.274101 2.581423,2.340871 3.407961,2.958897 0.237828,0.177831 0.225699,0.161708 0.121646,0.161708 l -0.08755,0 -0.285391,-0.220097 z"
       style="fill:#ff0000;fill-opacity:1;stroke:none" />
    <path
       inkscape:connector-curvature="0"
       id="path3077"
       d=""
       style="fill:#ff0000;fill-opacity:1;stroke:none" />
    <path
       inkscape:connector-curvature="0"
       id="path3079"
       d="m 57.80135,62.237608 c -3.291683,-2.151619 -6.302099,-4.699778 -9.346036,-7.910928 -0.384398,-0.405514 -1.111501,-1.196635 -1.148973,-1.250134 -0.0129,-0.01841 -0.01171,-0.02045 0.01189,-0.02045 0.01915,0 0.04611,0.02246 0.100127,0.08345 1.33886,1.511522 2.848172,3.033592 4.327307,4.363887 2.077007,1.868004 4.301298,3.555141 6.554174,4.971375 l 0.08946,0.05624 -0.06999,-3.12e-4 -0.06999,-3.12e-4 -0.447971,-0.292817 0,0 z"
       style="fill:#ff0000;fill-opacity:1;stroke:none" />
    <path
       inkscape:connector-curvature="0"
       id="path3081"
       d="M 66.135675,69.335995 C 64.413937,68.740461 63.12075,68.217804 61.516354,67.46904 61.157598,67.30161 60.093579,66.770723 59.723541,66.574525 57.811931,65.560969 56.03798,64.460907 54.321076,63.224347 53.926221,62.939962 53.389461,62.541509 53.39447,62.536499 c 0.0018,-0.0018 0.0389,-0.0044 0.08246,-0.0058 l 0.0792,-0.0026 0.228595,0.167968 c 3.915118,2.87678 8.22751,5.139903 12.60399,6.614515 l 0.328413,0.110656 -0.166898,2.07e-4 -0.166899,2.07e-4 -0.247656,-0.08566 0,0 z"
       style="fill:#ff0000;fill-opacity:1;stroke:none" />
    <path
       inkscape:connector-curvature="0"
       id="path3083"
       d="M 71.454894,68.001817 C 66.848942,66.959703 62.637968,65.240644 58.640377,62.770508 l -0.377883,-0.233497 0.06266,-0.0032 0.06266,-0.0032 0.277534,0.170909 c 1.714025,1.055521 3.486088,1.987696 5.295259,2.785514 2.472512,1.090342 5.18589,1.980212 7.739138,2.538103 0.137779,0.0301 0.21259,0.05118 0.212661,0.0599 1.08e-4,0.0074 -0.0084,0.01308 -0.01873,0.01262 -0.01036,-4.6e-4 -0.207815,-0.04359 -0.438781,-0.09585 z"
       style="fill:#ff0000;fill-opacity:1;stroke:none" />
    <path
       inkscape:connector-curvature="0"
       id="path3085"
       d="m 79.808992,71.640415 c -2.557328,-0.05069 -4.866364,-0.241385 -6.769276,-0.559039 -1.776291,-0.296517 -3.753293,-0.7629 -5.529187,-1.304357 -0.294137,-0.08968 -0.877625,-0.275445 -1.006775,-0.320527 l -0.09153,-0.03195 0.154184,-8.11e-4 0.154185,-8.11e-4 0.405733,0.128522 c 3.040204,0.963031 6.106667,1.57306 9.25674,1.841498 0.742233,0.06325 1.542034,0.104727 2.525014,0.130943 0.532305,0.0142 2.423339,0.01735 2.953027,0.0049 l 0.363408,-0.0085 0,0.05877 0,0.05877 -0.09856,0.007 c -0.12705,0.009 -1.800149,0.0058 -2.316966,-0.0044 l 0,0 z"
       style="fill:#ff0000;fill-opacity:1;stroke:none" />
    <path
       inkscape:connector-curvature="0"
       id="path3087"
       d="m 77.702336,68.844801 c -0.03553,-0.0019 -0.265692,-0.01315 -0.511464,-0.02511 -0.963135,-0.04688 -1.848267,-0.11878 -2.390418,-0.194169 -0.823668,-0.114535 -2.885729,-0.496257 -2.885729,-0.534197 0,-0.0079 0.0037,-0.01435 0.0083,-0.01435 0.0046,0 0.122053,0.02403 0.261116,0.05339 1.534116,0.323949 3.531476,0.575303 5.561291,0.699851 0.256297,0.01573 0.28621,0.01905 0.166899,0.01856 -0.07995,-3.31e-4 -0.174436,-0.0021 -0.209969,-0.004 l 0,0 z"
       style="fill:#ff0000;fill-opacity:1;stroke:none" />
    <path
       inkscape:connector-curvature="0"
       id="path3089"
       d="m 82.234328,71.583028 0,-0.05803 0.228813,-0.007 c 0.125847,-0.0038 0.468662,-0.0141 0.761811,-0.02279 3.378591,-0.100093 7.130041,-0.391815 10.110822,-0.786242 2.903223,-0.384165 6.566644,-1.072733 9.764016,-1.835221 0.099,-0.0236 0.19081,-0.04545 0.20413,-0.04856 0.0232,-0.0054 0.0242,-0.0027 0.0241,0.06184 l -1.1e-4,0.0675 -0.55711,0.131958 c -6.251233,1.480661 -13.272167,2.383693 -19.777373,2.543764 -0.236888,0.0058 -0.504599,0.01064 -0.594912,0.0107 l -0.164207,1.04e-4 0,-0.05803 z"
       style="fill:#ff0000;fill-opacity:1;stroke:none" />
    <path
       inkscape:connector-curvature="0"
       id="path3091"
       d=""
       style="fill:#ff0000;fill-opacity:1;stroke:none" />
    <path
       inkscape:connector-curvature="0"
       id="path3093"
       d="m 85.550764,68.85091 c 3.91527,-0.184566 8.246181,-0.677934 12.188978,-1.388542 1.810833,-0.326365 3.813098,-0.753133 5.294988,-1.128587 0.22298,-0.05649 0.29342,-0.07073 0.29342,-0.05929 0,0.0083 -10e-4,0.01505 -0.003,0.01505 -0.002,0 -0.25255,0.06085 -0.55723,0.135226 -4.141033,1.010842 -7.420656,1.576145 -12.236869,2.109247 -0.973813,0.107791 -1.707998,0.169907 -2.67576,0.226385 -0.799391,0.04665 -2.177969,0.104585 -2.401186,0.100906 -0.05778,-9.52e-4 -0.02206,-0.0048 0.09691,-0.01039 z"
       style="fill:#ff0000;fill-opacity:1;stroke:none" />
    <path
       inkscape:connector-curvature="0"
       id="path3095"
       d="m 103.33321,68.888402 c -0.004,-0.03341 -0.005,-0.06302 -0.002,-0.06579 0.003,-0.0028 0.13494,-0.03609 0.29369,-0.07403 0.15875,-0.03794 0.54303,-0.132499 0.85394,-0.210126 4.50978,-1.12597 8.19792,-2.360893 9.83625,-3.293529 0.65281,-0.371618 0.95369,-0.65858 1.04012,-0.991983 0.0511,-0.19726 0.005,-0.371868 -0.13032,-0.497515 -0.12133,-0.11233 -0.27372,-0.166474 -0.49524,-0.175965 -0.17461,-0.0075 -0.21776,-0.0022 -0.7322,0.0891 -1.86373,0.330877 -3.34874,0.685061 -7.27893,1.736068 -2.13061,0.569764 -3.34954,0.881881 -3.38401,0.866502 -0.0143,-0.0064 0.0281,-0.02067 0.15035,-0.05067 0.26133,-0.06413 1.31343,-0.347939 1.69927,-0.458386 0.18951,-0.05425 0.6256,-0.180235 0.96908,-0.279972 0.76139,-0.221083 1.31982,-0.37917 1.91665,-0.542586 3.85538,-1.055641 6.81031,-1.639982 7.14672,-1.413273 0.0972,0.06551 0.23863,0.291316 0.26589,0.42455 0.0254,0.124356 0.008,0.270536 -0.0486,0.398283 -0.0698,0.158647 -0.25918,0.381716 -0.47263,0.556696 -1.19774,0.981856 -4.36534,2.135164 -9.86018,3.590051 -0.64543,0.170893 -1.74025,0.453321 -1.75728,0.453321 -0.002,0 -0.007,-0.02733 -0.0105,-0.06074 l 0,0 z"
       style="fill:#ff0000;fill-opacity:1;stroke:none" />
    <path
       inkscape:transform-center-y="-51.153133"
       inkscape:transform-center-x="-25.448041"
       transform="matrix(0.31190419,0,0,0.32840391,54.113195,-3.6267784)"
       d="m 76.715099,149.80632 c 0,13.59802 -11.371483,24.6214 -25.398918,24.6214 -14.027435,0 -25.398918,-11.02338 -25.398918,-24.6214 0,-13.59802 11.371483,-24.6214 25.398918,-24.6214 14.027435,0 25.398918,11.02338 25.398918,24.6214 z"
       sodipodi:ry="24.621399"
       sodipodi:rx="25.398918"
       sodipodi:cy="149.80632"
       sodipodi:cx="51.316181"
       id="path3754-1-0-4-8"
       style="fill:#0000ff;fill-opacity:1;stroke:#000000;stroke-width:7.85547733;stroke-miterlimit:4;stroke-opacity:1;stroke-dasharray:none"
       sodipodi:type="arc" />
  </g>
</svg>
