<?xml version="1.0" encoding="UTF-8" standalone="no"?>
<!-- Created with Inkscape (http://www.inkscape.org/) -->

<svg
   xmlns:dc="http://purl.org/dc/elements/1.1/"
   xmlns:cc="http://creativecommons.org/ns#"
   xmlns:rdf="http://www.w3.org/1999/02/22-rdf-syntax-ns#"
   xmlns:svg="http://www.w3.org/2000/svg"
   xmlns="http://www.w3.org/2000/svg"
   xmlns:xlink="http://www.w3.org/1999/xlink"
   xmlns:sodipodi="http://sodipodi.sourceforge.net/DTD/sodipodi-0.dtd"
   xmlns:inkscape="http://www.inkscape.org/namespaces/inkscape"
   id="svg2"
   version="1.1"
   inkscape:version="0.48.2 r9819"
   width="203"
   height="203"
   sodipodi:docname="angle_with_given_size.svg">
  <metadata
     id="metadata8">
    <rdf:RDF>
      <cc:Work
         rdf:about="">
        <dc:format>image/svg+xml</dc:format>
        <dc:type
           rdf:resource="http://purl.org/dc/dcmitype/StillImage" />
        <dc:title />
      </cc:Work>
    </rdf:RDF>
  </metadata>
  <defs
     id="defs6" />
  <sodipodi:namedview
     pagecolor="#ffffff"
     bordercolor="#666666"
     borderopacity="1"
     objecttolerance="10"
     gridtolerance="10"
     guidetolerance="10"
     inkscape:pageopacity="0"
     inkscape:pageshadow="2"
     inkscape:window-width="1618"
     inkscape:window-height="1028"
     id="namedview4"
     showgrid="false"
     inkscape:zoom="6.5764414"
     inkscape:cx="148.83146"
     inkscape:cy="94.805061"
     inkscape:window-x="54"
     inkscape:window-y="-8"
     inkscape:window-maximized="1"
     inkscape:current-layer="svg2" />
  <g
     id="g3025">
    <path
       style="fill:#fdfcfc"
       d="m 0.23448278,102.25211 0,-101.50000468 101.49999722,0 101.5,0 0,101.50000468 0,101.5 -101.5,0 -101.49999722,0 0,-101.5 z"
       id="path3005"
       inkscape:connector-curvature="0" />
    <path
       sodipodi:nodetypes="sssssssscsssssscssscssscsscscccssscsssscsssssssssssss"
       style="fill:#dd1010"
       d="m 153.6849,187.34551 c -4.22316,-1.83949 -8.25211,-6.93717 -8.98854,-11.37284 -0.33974,-2.04631 0.26425,-4.88729 0.0938,-5.4591 -0.27622,-0.92642 -84.443327,-24.46035 -87.404183,-24.46035 -0.659829,0 -1.724047,2.22392 -3.481956,4.08785 -6.15835,6.52975 -15.695189,7.16141 -22.178524,1.46897 -6.847009,-6.01175 -6.679014,-14.61493 -0.178536,-21.11541 4.67364,-4.67364 9.116072,-6.62681 15.778818,-4.49615 l 4.454996,2.11917 18.973189,-19.97845 C 80.942857,97.410426 90.335455,88.644584 91.14469,88.644584 c 3.514859,0 14.07522,15.220586 18.36132,26.107526 3.87008,9.8302 5.0481,17.62629 4.49429,29.74305 -0.27041,5.91632 -1.09593,13.25491 -1.30882,14.07392 -0.42592,1.63854 5.73156,4.24975 22.15341,7.03344 l 9.86306,3.17536 3.47461,-4.0368 c 6.61109,-7.68077 16.76138,-8.50071 22.90985,-1.498 10.69759,12.18389 -2.57607,30.5626 -17.40751,24.10243 z m -43.03965,-33.0746 c 1.54461,-3.88817 1.25792,-21.97215 -0.2972,-28.5188 -2.80564,-11.81126 -15.163047,-33.376329 -19.365671,-33.376329 -0.721328,0 -9.504773,8.698789 -19.255939,18.870689 l -17.729392,18.49437 1.681099,2.56568 c 0.924604,1.41112 2.002696,4.44953 2.39576,6.75202 l -0.468071,4.5089 24.655675,6.35661 c 12.99758,3.35097 25.868189,7.39693 26.844299,7.43788 1.04466,0.0438 -0.12509,1.53829 0.51796,-0.0804 z m 24.72924,-30.59719 c -3.14816,-1.71059 -6.14001,-8.42229 -6.14001,-13.97397 0,-11.599221 9.42744,-17.539889 18.29016,-11.525482 l 3.7843,3.174812 1.24594,-2.924812 c 1.63701,-3.84285 2.88605,-3.339062 1.65496,3.730422 -0.85523,4.91108 -0.74771,11.36983 0.10752,16.28091 1.27268,7.30829 0.65033,7.94001 -1.97524,4.45921 l -1.1642,-2.54245 -4.71629,2.67998 c -4.03139,2.29081 -7.33683,2.67917 -11.08714,0.64138 z m 11.09421,-3.83958 c 3.05507,-2.7297 2.56689,-3.33842 2.56689,-9.43434 0,-5.84687 0.39713,-6.13244 -2.2382,-8.88314 -3.75735,-3.921832 -7.9984,-3.94005 -11.61225,-0.168 -4.71832,4.92487 -4.10548,13.78632 0.52406,18.78167 3.18015,3.43145 6.69587,3.33466 10.7595,-0.29619 z M 125.6849,59.345509 C 119.16881,56.507275 115.20462,48.717528 116.73362,41.756 c 0.97665,-4.446615 6.00667,-9.77555 10.49714,-11.120928 14.34361,-4.297449 25.84385,12.834549 16.26062,24.223571 -4.60923,5.477758 -11.52866,7.221312 -17.80648,4.486866 z"
       id="path2995"
       inkscape:connector-curvature="0" />
    <path
       sodipodi:nodetypes="sssssssssscscsssssssssssssssssssssssssss"
       style="fill:#140f15"
       d="m 153.6849,187.34551 c -4.22316,-1.83949 -8.25211,-6.93717 -8.98854,-11.37284 -0.33974,-2.04631 -0.32712,-4.29592 -0.49761,-4.86773 -0.27622,-0.92642 -84.013239,-24.89043 -86.974095,-24.89043 -0.659829,0 -1.616526,2.22391 -3.374435,4.08784 -6.15835,6.52975 -15.641428,7.26893 -22.124763,1.57649 -6.847009,-6.01175 -7.109099,-15.63638 -0.608621,-22.13686 4.81466,-4.81466 9.426002,-5.89349 17.017326,-3.57645 5.007984,1.52854 6.844158,4.51072 8.567897,8.17911 1.070369,2.27792 1.181057,3.46103 1.494414,5.38884 l -0.02163,3.61262 24.075503,6.5748 c 12.95461,3.53779 24.737464,6.93086 26.269314,6.97181 1.53185,0.0409 4.15817,0.81907 5.37632,1.59777 2.22494,1.42228 28.11076,8.79924 30.83429,8.79924 0.80074,0 1.64988,-2.12443 3.52966,-4.06387 6.30012,-6.50008 14.98402,-7.03835 21.48358,-1.33167 6.28603,5.51921 6.99478,15.14883 1.69411,21.44832 -4.60923,5.47776 -11.4749,6.73746 -17.75272,4.00301 z m 11.58231,-4.11033 c 3.32805,-1.72099 5.96727,-6.13634 5.96727,-9.98307 0,-3.84673 -2.63922,-8.26208 -5.96727,-9.98307 -10.27128,-5.31149 -20.83025,5.23879 -15.52016,15.50738 2.81926,5.45184 9.74959,7.44284 15.52016,4.45876 z M 50.950134,147.36533 c 4.47488,-4.88294 4.055376,-9.76203 -0.396335,-14.61969 -9.579984,-10.45357 -25.268672,0.53479 -18.806743,13.03078 2.156766,4.17073 6.093246,6.09227 11.45308,5.59067 3.563066,-0.33345 5.129475,-1.14228 7.749998,-4.00176 z M 125.6849,59.345509 C 119.16881,56.507275 115.20462,48.717528 116.73362,41.756 c 0.97665,-4.446615 6.00667,-9.77555 10.49714,-11.120928 14.34361,-4.297449 25.84385,12.834549 16.26062,24.223571 -4.60923,5.477758 -11.52866,7.221312 -17.80648,4.486866 z m 14.41728,-6.006561 c 2.19962,-2.199613 2.6323,-3.52889 2.6323,-8.086843 0,-4.539402 -0.43579,-5.89033 -2.59742,-8.051964 -5.25699,-5.256993 -15.05894,-3.913915 -18.38565,2.519231 -2.91286,5.63284 -1.01866,12.558829 4.24564,15.523829 4.05666,2.284825 10.83056,1.37032 14.10513,-1.904253 z"
       id="path2991"
       inkscape:connector-curvature="0" />
    <path
       transform="matrix(1.0384615,0,0,1.0384615,-11.878062,45.757634)"
       d="m 63.712268,91.313461 a 11.860518,11.936546 0 1 1 -23.721037,0 11.860518,11.936546 0 1 1 23.721037,0 z"
       sodipodi:ry="11.936546"
       sodipodi:rx="11.860518"
       sodipodi:cy="91.313461"
       sodipodi:cx="51.851749"
       id="path3015"
       style="fill:#0000ff;fill-opacity:1;stroke:none"
       sodipodi:type="arc" />
    <use
       height="203"
       width="203"
       transform="translate(117.38871,32.692453)"
       id="use3017"
       xlink:href="#path3015"
       y="0"
       x="0" />
    <path
       inkscape:connector-curvature="0"
       id="path3021"
       d="m 130.13033,57.455529 c -4.30461,-0.723604 -8.02028,-3.655099 -9.5846,-7.561814 -0.64498,-1.610742 -0.90211,-2.936055 -0.90211,-4.64956 0,-6.483316 5.02711,-11.857531 11.47509,-12.267407 6.95492,-0.4421 12.90251,5.212733 12.90251,12.267407 0,5.129773 -3.32976,9.91571 -8.04596,11.564643 -1.80954,0.632671 -4.29353,0.90752 -5.84493,0.646731 z"
       style="fill:#dd1010;fill-opacity:1;stroke:none" />
    <path
       inkscape:connector-curvature="0"
       id="path3023"
       d="m 103.54861,155.55664 c -2.84348,-0.72939 -6.606917,-1.74287 -8.363186,-2.25218 -1.756268,-0.50931 -10.309527,-2.85679 -19.00724,-5.21664 -8.697713,-2.35985 -16.258793,-4.43162 -16.8024,-4.60394 -0.973754,-0.30866 -0.988443,-0.34107 -0.992871,-2.19044 -0.0078,-3.25868 -1.498949,-7.79005 -3.506809,-10.65667 -0.243211,-0.34724 -0.442202,-0.74781 -0.442202,-0.89017 0,-0.49687 28.514495,-29.85131 33.513164,-34.500355 2.967964,-2.760372 3.036144,-2.802671 3.837513,-2.380758 4.73492,2.492902 15.261181,21.166633 18.108191,32.124163 1.06422,4.09596 1.48949,9.08218 1.48979,17.46781 2e-4,5.23003 -0.12978,7.98837 -0.45858,9.73171 -0.53884,2.85703 -1.25479,4.71785 -1.80974,4.70371 -0.21761,-0.006 -2.72215,-0.60685 -5.56563,-1.33624 z"
       style="fill:#fae5e5;fill-opacity:1;stroke:none" />
  </g>
  <path
     style="fill:#dd1010;fill-opacity:1;stroke:none"
     d="m 111.59248,157.4482 c -0.58543,-0.19109 -1.18012,-0.35089 -1.32154,-0.3551 -0.14142,-0.004 -0.29307,-0.0658 -0.33702,-0.13693 -0.0439,-0.0711 0.19017,-0.92263 0.52023,-1.8923 0.89849,-2.63958 1.08441,-4.41325 1.17446,-11.20396 0.10209,-7.69867 -0.24288,-13.11317 -1.11271,-17.46482 -1.43151,-7.16164 -7.60519,-20.17723 -13.463458,-28.38416 -2.644978,-3.705388 -5.045732,-5.914335 -6.131668,-5.641782 -0.190406,0.04779 -0.9544,0.614279 -1.697764,1.258867 -2.397821,2.079207 -13.70813,13.519365 -24.637649,24.920515 l -10.650426,11.11001 -0.922021,-0.86664 -0.92202,-0.86664 10.666381,-11.23174 c 11.189023,-11.7821 19.059288,-19.76573 23.520154,-23.85896 3.49426,-3.206285 4.520445,-4.023134 5.05415,-4.023134 1.631279,0 5.683072,4.426617 9.951541,10.872141 6.21323,9.382173 10.08214,18.403353 11.73835,27.370423 1.14135,6.17952 1.29576,13.99233 0.46632,23.59481 -0.29298,3.39183 -0.69851,7.05288 -0.78831,7.11661 -0.0234,0.0166 -0.52158,-0.12612 -1.107,-0.31721 l 0,0 z"
     id="path2989"
     inkscape:connector-curvature="0" />
  <path
     style="fill:#dd1010;fill-opacity:1;stroke:none"
     d="m 137.97452,124.61027 c -1.50793,-0.39463 -3.24858,-1.35761 -4.03587,-2.23275 -3.19242,-3.54866 -5.09002,-9.76356 -4.49172,-14.71091 0.46343,-3.83208 1.64055,-6.48 3.89171,-8.754377 1.98038,-2.000794 4.26396,-2.954085 7.07643,-2.954085 3.09594,0 5.58504,1.06222 8.80193,3.756222 1.12704,0.94385 2.09648,1.66516 2.1543,1.60293 0.0578,-0.0622 0.42409,-0.86584 0.81393,-1.785791 0.7522,-1.775059 1.28911,-2.781253 1.70718,-3.199326 0.23956,-0.239565 0.26835,-0.23841 0.45607,0.01831 0.31723,0.433839 0.24313,2.742719 -0.17842,5.560077 -0.51487,3.44092 -0.70223,7.2102 -0.52671,10.59599 0.13652,2.63348 0.22688,3.42905 0.90096,7.93291 0.50324,3.36234 0.37241,4.69864 -0.41858,4.27532 -0.57126,-0.30573 -1.68497,-1.82936 -2.30621,-3.15506 -0.57987,-1.2374 -0.61821,-1.28198 -0.95221,-1.10711 -0.1914,0.10021 -1.42869,0.79393 -2.74954,1.54161 -2.92451,1.65546 -4.06779,2.18311 -5.55362,2.56312 -1.35869,0.34749 -3.37518,0.37075 -4.58963,0.0529 z m 4.84345,-2.34372 c 2.11533,-0.82418 5.03081,-3.27788 5.78444,-4.86824 l 0.39631,-0.83631 0,-6.00629 c 0,-5.79681 -0.0112,-6.03015 -0.3214,-6.69055 -0.75149,-1.59987 -3.03858,-3.77961 -4.92459,-4.69343 -1.10881,-0.537241 -1.18894,-0.552569 -2.88911,-0.552569 -1.71831,0 -1.76935,0.01011 -2.9404,0.582325 -0.92414,0.451565 -1.48837,0.878374 -2.51271,1.900724 -1.34638,1.34376 -2.03185,2.39811 -2.71453,4.17539 -1.14691,2.9858 -1.03249,7.31068 0.28044,10.60014 1.28201,3.21201 3.83772,5.94932 6.19002,6.62988 0.93845,0.27151 2.62107,0.16043 3.65153,-0.24107 z"
     id="path2992"
     inkscape:connector-curvature="0" />
  <path
     style="fill:#dd1010;fill-opacity:1;stroke:none"
     d="m 137.97452,124.61027 c -1.50793,-0.39463 -3.24858,-1.35761 -4.03587,-2.23275 -3.19745,-3.55426 -5.09097,-9.75576 -4.49172,-14.71091 0.46343,-3.83208 1.64055,-6.48 3.89171,-8.754377 1.98038,-2.000794 4.26396,-2.954085 7.07643,-2.954085 3.06356,0 5.54487,1.047328 8.72973,3.684702 1.08746,0.90053 2.04688,1.63616 2.13203,1.63473 0.0851,-0.001 0.31951,-0.39488 0.5208,-0.87433 0.7616,-1.814093 1.67342,-3.621937 2.00307,-3.971439 0.3265,-0.346165 0.35129,-0.35003 0.5451,-0.08498 0.32203,0.440408 0.24671,2.740499 -0.18396,5.61761 -0.47813,3.19417 -0.67558,7.23977 -0.51206,10.49155 0.13315,2.64796 0.22103,3.44908 0.81739,7.45128 0.58229,3.90786 0.48691,5.25084 -0.34144,4.80752 -0.57126,-0.30573 -1.68497,-1.82936 -2.30621,-3.15506 -0.58047,-1.23869 -0.61786,-1.28209 -0.95221,-1.1054 -0.1914,0.10116 -1.3744,0.76624 -2.62888,1.47798 -2.89082,1.64012 -4.20697,2.24976 -5.6583,2.62095 -1.37495,0.35166 -3.38468,0.37653 -4.60561,0.057 z m 4.79986,-2.35782 c 2.02535,-0.74632 5.0221,-3.24233 5.80372,-4.83394 l 0.42062,-0.85651 0,-5.93026 c 0,-4.57873 -0.0466,-6.06201 -0.20445,-6.50833 -0.50063,-1.41546 -3.12028,-3.99887 -4.99399,-4.924907 -1.92453,-0.951156 -4.38742,-0.866625 -6.28193,0.215609 -1.79123,1.023238 -3.50616,2.973208 -4.4708,5.083568 -0.74907,1.63874 -1.01437,2.85574 -1.10518,5.06965 -0.0679,1.65528 -0.0275,2.23579 0.24835,3.5696 0.60061,2.90396 1.80548,5.26034 3.65499,7.14811 0.62724,0.64022 1.46097,1.34768 1.85274,1.57214 1.59069,0.91139 3.31164,1.04541 5.07593,0.39527 z"
     id="path2994"
     inkscape:connector-curvature="0" />
  <path
     style="fill:#dd1010;fill-opacity:1;stroke:none"
     d="m 139.32121,124.92381 c -1.499,-0.15259 -3.27974,-0.80035 -4.43525,-1.61337 -2.23437,-1.57213 -4.41207,-5.75247 -5.26257,-10.10211 -0.65618,-3.35588 -0.36734,-7.01936 0.78415,-9.94571 1.64809,-4.188394 4.86183,-6.879584 8.79862,-7.36797 0.66361,-0.08232 2.35609,-0.03816 2.98306,0.07784 1.16663,0.215847 2.3519,0.611491 3.46497,1.156606 1.18153,0.578644 1.72437,0.961222 3.60658,2.541834 0.97237,0.816562 1.82586,1.515652 1.89665,1.553532 0.10683,0.0572 0.14126,0.0558 0.20263,-0.008 0.0407,-0.0424 0.35626,-0.74242 0.70134,-1.555554 1.02217,-2.408592 1.50843,-3.273316 1.98014,-3.521319 l 0.20451,-0.107521 0.12943,0.148699 c 0.22692,0.260703 0.26775,0.519969 0.26445,1.679161 -0.003,1.120071 -0.075,1.885761 -0.32315,3.444094 -0.57724,3.62519 -0.76565,6.12332 -0.70322,9.32405 0.0651,3.34061 0.22823,4.99554 0.9218,9.35434 0.37921,2.38313 0.47798,3.98311 0.28077,4.54797 -0.13293,0.38074 -0.27355,0.45007 -0.59611,0.29393 -0.29004,-0.14041 -0.85997,-0.70054 -1.41963,-1.39522 -0.35764,-0.44393 -0.47395,-0.65115 -0.96564,-1.72034 -0.30747,-0.66859 -0.59212,-1.24946 -0.63256,-1.29084 -0.0627,-0.0642 -0.43517,0.13038 -2.53657,1.32506 -2.93393,1.668 -3.2927,1.86084 -4.11828,2.2135 -1.92366,0.82174 -3.60352,1.13276 -5.22612,0.96759 l 0,0 z m 2.41923,-2.39391 c 0.95194,-0.19469 1.99981,-0.66015 3.01059,-1.33729 0.73395,-0.49168 1.15983,-0.83121 2.00899,-1.60168 1.0583,-0.96022 1.69614,-1.78804 1.989,-2.58144 0.26544,-0.71915 0.2761,-0.93251 0.27423,-5.48823 -0.002,-4.64169 -0.0523,-6.59924 -0.18228,-7.08602 -0.21355,-0.79956 -0.75333,-1.59615 -1.86609,-2.75388 -1.14654,-1.19288 -2.10719,-1.931803 -3.1802,-2.446179 -1.12837,-0.540915 -1.79499,-0.673823 -3.18907,-0.635825 -1.02848,0.02803 -1.41187,0.103367 -2.22468,0.437136 -1.93979,0.796554 -3.89056,2.680468 -5.04408,4.871248 -0.57942,1.10043 -1.077,2.67392 -1.27505,4.03205 -0.13926,0.95498 -0.1673,2.96249 -0.0544,3.89764 0.41204,3.4143 1.82599,6.45953 4.00649,8.62882 1.79585,1.78662 3.70947,2.47621 5.72659,2.06365 z"
     id="path2996"
     inkscape:connector-curvature="0" />
  <path
     style="fill:#dd1010;fill-opacity:1;stroke:none"
     d="m 111.66103,141.17727 c -9.7e-4,-5.3293 -0.48046,-11.48316 -1.15142,-14.77756 -1.26189,-6.1959 -6.20206,-17.10485 -11.500264,-25.39504 -3.355719,-5.250746 -6.061245,-8.261388 -7.740701,-8.613658 -0.27465,-0.05761 -0.30351,-0.05294 -0.544092,0.08805 -0.512625,0.300418 -2.153166,1.760379 -4.14308,3.687038 -0.473421,0.458372 -0.951218,0.916775 -1.061772,1.018672 l -0.201006,0.185267 2.04e-4,-1.878726 2.03e-4,-1.878727 0.873406,-0.810379 c 2.023635,-1.877606 3.715344,-3.337957 4.425924,-3.820634 0.426116,-0.28945 0.457107,-0.301332 0.720013,-0.27607 1.273007,0.12232 3.840434,2.517705 6.700067,6.251098 4.747848,6.198556 9.310658,14.215486 11.780098,20.697826 2.65829,6.97809 3.87354,12.74565 4.20818,19.97206 0.06,1.2945 0.0728,6.06998 0.0188,6.95363 l -0.035,0.57286 -1.17456,0 -1.17456,0 -3.8e-4,-1.97571 2e-5,0 z"
     id="path2998"
     inkscape:connector-curvature="0" />
  <path
     style="fill:#dd1010;fill-opacity:1;stroke:none"
     d="m 132.87274,121.23486 c -0.0159,-0.0183 -0.123,-0.1744 -0.23794,-0.34689 -1.69916,-2.54981 -2.95688,-6.14447 -3.29194,-9.40858 -0.0768,-0.74821 -0.087,-0.96648 -0.0863,-1.85321 6.5e-4,-0.81061 0.0117,-1.09534 0.0668,-1.72015 0.42164,-4.78363 2.59674,-8.691821 5.95103,-10.692709 2.67165,-1.593684 5.87665,-1.841856 9.01615,-0.698145 1.03384,0.376624 2.14911,0.94512 3.07372,1.566795 0.091,0.06122 0.9421,0.762877 1.89122,1.559241 0.94912,0.796368 1.77595,1.485028 1.8374,1.530358 0.14655,0.10812 0.1924,0.11907 0.25144,0.06 0.0283,-0.0283 0.27139,-0.57513 0.63276,-1.423304 0.77559,-1.820425 0.96556,-2.237349 1.23381,-2.707883 0.42558,-0.746491 0.8506,-1.148657 1.08552,-1.027172 0.39281,0.203129 0.49603,1.287195 0.30501,3.203501 -0.0654,0.656577 -0.17527,1.489178 -0.28456,2.157318 -0.42958,2.62612 -0.5575,3.82756 -0.66888,6.2819 -0.0317,0.69914 -0.0317,3.40553 0,4.13407 0.0708,1.62631 0.16475,2.86032 0.31908,4.1911 0.0968,0.83438 0.19157,1.48432 0.41586,2.85108 0.17942,1.09335 0.30475,1.90161 0.34849,2.24761 l 0.0162,0.1283 -1.56961,0 -1.5696,0 -0.18654,-0.40676 c -0.10261,-0.22372 -0.20196,-0.42071 -0.22079,-0.43775 -0.0317,-0.0286 -0.0413,-0.0286 -0.12707,0 -0.105,0.0351 -0.0684,0.0153 -0.90584,0.49083 l -0.62292,0.35374 -2.45471,0 -2.45471,0 0.22655,-0.15431 c 0.90274,-0.6149 2.06375,-1.62346 2.80901,-2.44018 0.61975,-0.67918 0.98415,-1.3108 1.17274,-2.03273 0.0956,-0.36591 0.13251,-0.63536 0.15122,-1.10346 0.0361,-0.90281 0.006,-8.93247 -0.0374,-9.91228 -0.0361,-0.81958 -0.063,-1.0058 -0.20428,-1.41604 -0.25683,-0.74572 -0.72862,-1.40905 -1.83058,-2.57376 -1.55871,-1.647484 -3.10137,-2.600556 -4.80883,-2.970945 -0.19383,-0.04205 -0.22913,-0.0433 -1.22597,-0.04339 -1.14646,-1.14e-4 -1.14063,-6.02e-4 -1.67124,0.14272 -1.23283,0.332998 -2.42221,1.039506 -3.58232,2.127953 -1.8859,1.76941 -3.10058,4.1449 -3.53536,6.91397 -0.10624,0.67662 -0.14661,1.19037 -0.1662,2.11507 -0.0672,3.17074 0.95128,6.46968 2.77968,9.00386 0.5858,0.81192 1.36618,1.6579 2.01286,2.18205 0.0732,0.0593 0.14557,0.1199 0.16088,0.13463 0.024,0.023 -0.25215,0.0268 -1.97856,0.0268 -1.88715,0 -2.00811,-0.002 -2.03533,-0.0333 l 0,0 z"
     id="path3000"
     inkscape:connector-curvature="0" />
  <path
     style="fill:#dd1010;fill-opacity:1;stroke:none"
     d="m 111.14881,157.33678 c -0.66217,-0.19909 -1.22617,-0.38421 -1.25333,-0.41137 -0.0272,-0.0272 0.19172,-0.76266 0.4864,-1.63446 0.99253,-2.93628 1.28699,-5.87416 1.28592,-12.82974 -0.001,-8.42816 -0.55977,-14.2937 -1.76261,-18.51263 -1.87238,-6.56729 -6.69217,-16.5939 -11.424847,-23.76709 -3.450059,-5.229165 -6.237872,-8.102321 -7.543653,-7.774591 -0.19146,0.04805 -0.891039,0.545969 -1.554622,1.10648 -2.087203,1.763006 -14.649291,14.459221 -25.216036,25.485271 -5.590326,5.83333 -10.218685,10.60604 -10.285241,10.60604 -0.06656,0 -0.14382,-0.0513 -0.171697,-0.11404 -0.02788,-0.0627 -0.407504,-0.43955 -0.843615,-0.83738 l -0.79293,-0.72334 10.289311,-10.83307 c 14.262648,-15.01637 24.493141,-25.199058 27.898522,-27.768157 0.82994,-0.626125 0.892123,-0.647273 1.405251,-0.477925 3.889528,1.283659 13.657457,15.579102 17.768457,26.004302 4.15134,10.52747 5.2292,18.81396 4.27225,32.84451 -0.22663,3.32271 -0.75017,8.85705 -0.90982,9.61766 -0.10264,0.48898 -0.0869,0.48879 -1.64771,0.0195 z"
     id="path3002"
     inkscape:connector-curvature="0" />
</svg>
