<?xml version="1.0" encoding="UTF-8" standalone="no"?>
<!-- Created with Inkscape (http://www.inkscape.org/) -->

<svg
   xmlns:dc="http://purl.org/dc/elements/1.1/"
   xmlns:cc="http://creativecommons.org/ns#"
   xmlns:rdf="http://www.w3.org/1999/02/22-rdf-syntax-ns#"
   xmlns:svg="http://www.w3.org/2000/svg"
   xmlns="http://www.w3.org/2000/svg"
   xmlns:sodipodi="http://sodipodi.sourceforge.net/DTD/sodipodi-0.dtd"
   xmlns:inkscape="http://www.inkscape.org/namespaces/inkscape"
   id="svg2993"
   version="1.1"
   inkscape:version="0.48.2 r9819"
   width="512"
   height="512"
   sodipodi:docname="area.svg">
  <metadata
     id="metadata2999">
    <rdf:RDF>
      <cc:Work
         rdf:about="">
        <dc:format>image/svg+xml</dc:format>
        <dc:type
           rdf:resource="http://purl.org/dc/dcmitype/StillImage" />
        <dc:title />
      </cc:Work>
    </rdf:RDF>
  </metadata>
  <defs
     id="defs2997" />
  <sodipodi:namedview
     pagecolor="#ffffff"
     bordercolor="#666666"
     borderopacity="1"
     objecttolerance="10"
     gridtolerance="10"
     guidetolerance="10"
     inkscape:pageopacity="0"
     inkscape:pageshadow="2"
     inkscape:window-width="1280"
     inkscape:window-height="1002"
     id="namedview2995"
     showgrid="false"
     inkscape:zoom="1.1364934"
     inkscape:cx="406.75602"
     inkscape:cy="272.24325"
     inkscape:window-x="1358"
     inkscape:window-y="-8"
     inkscape:window-maximized="1"
     inkscape:current-layer="svg2993" />
  <g
     id="g3782">
    <path
       sodipodi:nodetypes="cccccc"
       inkscape:connector-curvature="0"
       id="path3001"
       d="m 163.27523,475.10744 c 0.9445,0 302.25919,-65.17462 302.25919,-65.17462 L 463.64529,163.40268 322.90586,311.69859 161.38612,271.08251 z"
       style="fill:#666666;fill-opacity:1;stroke:#000000;stroke-width:17;stroke-linecap:butt;stroke-linejoin:miter;stroke-opacity:1;stroke-miterlimit:4;stroke-dasharray:none" />
    <g
       id="text3771"
       style="font-size:11.21322441px;font-style:normal;font-variant:normal;font-weight:normal;font-stretch:normal;line-height:125%;letter-spacing:0px;word-spacing:0px;fill:#000000;fill-opacity:1;stroke:none;font-family:FreeUniversal;-inkscape-font-specification:FreeUniversal"
       transform="matrix(15.706848,0,0,18.782084,-28.470433,-26.344891)">
      <path
         id="path2993"
         d="M 8.9427807,9.1336735 C 8.9427755,9.717697 8.7639189,10.203165 8.4062104,10.590079 8.0484925,10.976993 7.4827216,11.17045 6.7088962,11.170451 5.0517321,11.17045 4.2231515,10.188564 4.2231521,8.2247891 4.2231515,7.2319554 4.4129585,6.4928031 4.7925736,6.0073302 5.1721865,5.5218673 5.7744587,5.2791334 6.599392,5.2791277 c 0.8176272,5.7e-6 1.4198994,0.1733871 1.8068184,0.5201446 0.3869095,0.346768 0.5475155,0.8085101 0.4818183,1.3852275 l -0.9964878,0 C 7.9426386,6.9070934 7.9006621,6.67896 7.7656112,6.5000989 7.6305521,6.3212468 7.4571707,6.1989673 7.2454665,6.13326 7.0337551,6.0675625 6.7928462,6.0347112 6.5227391,6.0347062 6.1285217,6.0347112 5.8146102,6.2099177 5.5810035,6.5603261 5.347393,6.9107435 5.2305887,7.465564 5.2305902,8.2247891 c -1.5e-6,0.7738314 0.124103,1.3323019 0.3723141,1.6754135 0.2482072,0.3431134 0.6205209,0.5146704 1.1169423,0.5146694 0.4307128,10e-7 0.7427993,-0.133229 0.9362604,-0.39969 C 7.8495602,9.7487231 7.9462887,9.4548873 7.946293,9.1336735 z"
         inkscape:connector-curvature="0" />
      <path
         id="path2995"
         d="m 18.776253,11.028095 -1.007438,0 0,-3.6245869 c -8e-6,-0.4453128 -0.105862,-0.7920756 -0.317562,-1.0402894 -0.211716,-0.2482045 -0.529278,-0.3723091 -0.952686,-0.3723141 -0.386922,5e-6 -0.722734,0.1533107 -1.007438,0.4599174 -0.284717,0.3066159 -0.427072,0.6241776 -0.427067,0.9526861 l 0,3.6245869 -1.007438,0 0,-3.6245869 C 14.05662,7.0238977 13.94164,6.6935605 13.711686,6.4124955 13.481724,6.1314398 13.180587,5.9909096 12.808277,5.9909046 c -0.408818,5e-6 -0.761056,0.1551357 -1.056715,0.4653926 -0.295663,0.310266 -0.443494,0.6260026 -0.443492,0.9472109 l 0,3.6245869 -1.007438,0 0,-5.606612 1.007438,0 0,0.7774795 c 0.445315,-0.6132178 1.000135,-0.9198291 1.664463,-0.9198348 0.518316,5.7e-6 0.91253,0.076658 1.182645,0.2299587 0.270105,0.1533111 0.511014,0.4088205 0.722727,0.766529 0.474512,-0.6643198 1.080435,-0.996482 1.817769,-0.9964877 1.387044,5.7e-6 2.08057,0.7081318 2.080579,2.1243804 z"
         inkscape:connector-curvature="0" />
    </g>
    <g
       id="text3775"
       style="font-size:6.51527548px;font-style:normal;font-variant:normal;font-weight:normal;font-stretch:normal;line-height:125%;letter-spacing:0px;word-spacing:0px;fill:#000000;fill-opacity:1;stroke:none;font-family:FreeUniversal;-inkscape-font-specification:FreeUniversal"
       transform="matrix(17.407766,0,0,16.946881,-28.470433,-26.344891)">
      <path
         id="path2998"
         d="m 20.675928,7.8245478 -2.837708,0 0,-0.6044445 C 18.389642,6.6050557 18.827599,6.1161984 19.152092,5.75353 19.476581,5.3908658 19.703512,5.1109128 19.832887,4.9136703 19.962257,4.7164336 20.026943,4.5435839 20.026945,4.3951205 20.026943,4.1109293 19.971801,3.902025 19.861519,3.768407 19.751232,3.6347972 19.566717,3.5679902 19.307975,3.567986 c -0.229055,4.2e-6 -0.400844,0.065751 -0.515369,0.1972397 -0.114527,0.1314972 -0.188757,0.3414619 -0.22269,0.6298948 l -0.661708,0 c 0.06787,-0.9119645 0.534456,-1.3679485 1.399767,-1.3679533 0.428411,4.8e-6 0.763506,0.1304374 1.005286,0.3912983 0.241775,0.2608696 0.362664,0.556729 0.362667,0.887579 -3e-6,0.1018046 -0.0085,0.1951223 -0.02545,0.2799532 -0.01697,0.084837 -0.04454,0.1749739 -0.08271,0.2704094 -0.03818,0.095441 -0.09014,0.1940613 -0.155883,0.2958597 -0.06575,0.1018038 -0.148463,0.2173904 -0.24814,0.3467603 -0.09968,0.1293745 -0.217391,0.2704114 -0.353123,0.4231111 -0.135737,0.1527035 -0.293741,0.3308554 -0.474012,0.5344562 -0.180274,0.2036035 -0.384937,0.4284143 -0.613988,0.6744328 -0.07211,0.080593 -0.127253,0.1420981 -0.165427,0.1845147 l 2.118737,0 z"
         inkscape:connector-curvature="0" />
    </g>
  </g>
</svg>
