<?xml version="1.0" encoding="iso-8859-1"?>
<!-- Generator: Adobe Illustrator 15.1.0, SVG Export Plug-In . SVG Version: 6.00 Build 0)  -->
<!DOCTYPE svg PUBLIC "-//W3C//DTD SVG 1.1//EN" "http://www.w3.org/Graphics/SVG/1.1/DTD/svg11.dtd">
<svg version="1.1" xmlns="http://www.w3.org/2000/svg" xmlns:xlink="http://www.w3.org/1999/xlink" x="0px" y="0px" width="512px"
	 height="512px" viewBox="0 0 512 512" style="enable-background:new 0 0 512 512;" xml:space="preserve">
<g id="mode_x5F_spherepointradius">
	<line style="fill:none;stroke:#1A171B;stroke-width:13;stroke-miterlimit:10;" x1="256" y1="256" x2="409" y2="132"/>
	<g>
		<circle style="fill:#0000FF;" cx="256" cy="256" r="35"/>
		<path d="M256,229c14.888,0,27,12.111,27,27c0,14.887-12.112,27-27,27s-27-12.113-27-27C229,241.111,241.112,229,256,229 M256,216
			c-22.092,0-40,17.908-40,40c0,22.09,17.908,40,40,40s40-17.91,40-40C296,233.908,278.092,216,256,216L256,216z"/>
	</g>
	<circle style="opacity:0.2;fill:#993300;" cx="256" cy="256" r="200"/>
	<radialGradient id="SVGID_1_" cx="256" cy="256" r="200" fx="157.4498" fy="104.3844" gradientUnits="userSpaceOnUse">
		<stop  offset="0" style="stop-color:#FFFFFF;stop-opacity:0"/>
		<stop  offset="0.0704" style="stop-color:#FCF8F7;stop-opacity:0.0855"/>
		<stop  offset="0.1808" style="stop-color:#F3E7E0;stop-opacity:0.2194"/>
		<stop  offset="0.3174" style="stop-color:#E4C9BC;stop-opacity:0.385"/>
		<stop  offset="0.4748" style="stop-color:#D0A189;stop-opacity:0.576"/>
		<stop  offset="0.6495" style="stop-color:#B66D48;stop-opacity:0.7879"/>
		<stop  offset="0.8242" style="stop-color:#993300"/>
	</radialGradient>
	<circle style="opacity:0.3;fill:url(#SVGID_1_);" cx="256" cy="256" r="200"/>
	<circle style="fill:none;stroke:#993300;stroke-width:13;stroke-miterlimit:10;" cx="256" cy="256" r="200"/>
</g>
<g id="Ebene_1">
</g>
</svg>
