<?xml version="1.0" encoding="iso-8859-1"?>
<!-- Generator: Adobe Illustrator 15.1.0, SVG Export Plug-In . SVG Version: 6.00 Build 0)  -->
<!DOCTYPE svg PUBLIC "-//W3C//DTD SVG 1.1//EN" "http://www.w3.org/Graphics/SVG/1.1/DTD/svg11.dtd">
<svg version="1.1" xmlns="http://www.w3.org/2000/svg" xmlns:xlink="http://www.w3.org/1999/xlink" x="0px" y="0px" width="512px"
	 height="512px" viewBox="0 0 512 512" style="enable-background:new 0 0 512 512;" xml:space="preserve">
<g id="mode_x5F_rotateview">
	<g>
		<path d="M373.578,202.281v13.666c6.876,1.74,13.449,3.64,19.658,5.702c36.523,12.127,49.482,26.084,49.482,34.352
			s-12.959,22.225-49.482,34.352c-36.461,12.105-85.199,18.773-137.236,18.773s-100.775-6.668-137.236-18.773
			C82.241,278.225,69.281,264.268,69.281,256s12.959-22.225,49.483-34.352c6.208-2.062,12.781-3.961,19.658-5.702v-13.666
			C88.474,214.354,56,233.917,56,256c0,36.676,89.543,66.406,200,66.406S456,292.676,456,256
			C456,233.917,423.526,214.354,373.578,202.281z"/>
		<polygon points="56,194.321 186.513,189.458 137.883,243.827 		"/>
	</g>
	<path d="M325.276,373.578h-13.665c-1.74,6.876-3.641,13.449-5.702,19.658c-12.127,36.523-26.084,49.482-34.352,49.482
		c-8.267,0-22.225-12.959-34.352-49.482C225.1,356.775,218.433,308.037,218.433,256s6.667-100.776,18.773-137.236
		c12.127-36.523,26.085-49.483,34.352-49.483c8.268,0,22.225,12.959,34.352,49.483c2.062,6.208,3.962,12.781,5.702,19.658h13.665
		C313.203,88.474,293.641,56,271.558,56c-36.675,0-66.406,89.543-66.406,200s29.731,200,66.406,200
		C293.641,456,313.203,423.526,325.276,373.578z"/>
	<polygon points="333.237,56 338.099,186.513 283.73,137.882 	"/>
</g>
<g id="Ebene_1">
</g>
</svg>
