<?xml version="1.0" encoding="iso-8859-1"?>
<!-- Generator: Adobe Illustrator 15.1.0, SVG Export Plug-In . SVG Version: 6.00 Build 0)  -->
<!DOCTYPE svg PUBLIC "-//W3C//DTD SVG 1.1//EN" "http://www.w3.org/Graphics/SVG/1.1/DTD/svg11.dtd">
<svg version="1.1" xmlns="http://www.w3.org/2000/svg" xmlns:xlink="http://www.w3.org/1999/xlink" x="0px" y="0px" width="512px"
	 height="512px" viewBox="0 0 512 512" style="enable-background:new 0 0 512 512;" xml:space="preserve">
<g id="mode_x5F_multivarstats">
	<g>
		
			<line style="fill:none;stroke:#993300;stroke-width:13;stroke-miterlimit:10;" x1="80.178" y1="60.674" x2="80.178" y2="144.022"/>
		
			<line style="fill:none;stroke:#993300;stroke-width:13;stroke-miterlimit:10;" x1="80.178" y1="102.348" x2="175.826" y2="102.348"/>
		<line style="fill:none;stroke:#993300;stroke-width:13;stroke-miterlimit:10;" x1="482" y1="144.023" x2="482" y2="60.673"/>
		<line style="fill:none;stroke:#993300;stroke-width:13;stroke-miterlimit:10;" x1="482" y1="102.348" x2="386.352" y2="102.348"/>
		<rect x="175.826" y="68" style="opacity:0.2;fill:#993300;" width="210.525" height="70"/>
		<rect x="175.826" y="68" style="fill:none;stroke:#993300;stroke-width:13;stroke-miterlimit:10;" width="210.525" height="70"/>
		<line style="fill:none;stroke:#993300;stroke-width:13;stroke-miterlimit:10;" x1="225.826" y1="68" x2="225.826" y2="138"/>
	</g>
	<g>
		<line style="fill:none;stroke:#993300;stroke-width:13;stroke-miterlimit:10;" x1="30" y1="197.525" x2="30" y2="280.874"/>
		<line style="fill:none;stroke:#993300;stroke-width:13;stroke-miterlimit:10;" x1="30" y1="239.2" x2="125.648" y2="239.2"/>
		
			<line style="fill:none;stroke:#993300;stroke-width:13;stroke-miterlimit:10;" x1="431.822" y1="280.875" x2="431.822" y2="197.525"/>
		<line style="fill:none;stroke:#993300;stroke-width:13;stroke-miterlimit:10;" x1="431.822" y1="239.2" x2="336.174" y2="239.2"/>
		<rect x="125.648" y="204.852" style="opacity:0.2;fill:#993300;" width="210.525" height="70"/>
		
			<rect x="125.648" y="204.852" style="fill:none;stroke:#993300;stroke-width:13;stroke-miterlimit:10;" width="210.525" height="70"/>
		
			<line style="fill:none;stroke:#993300;stroke-width:13;stroke-miterlimit:10;" x1="175.648" y1="204.852" x2="175.648" y2="274.852"/>
	</g>
	<rect x="30" y="343.736" style="fill:#FFFFFF;stroke:#666666;stroke-width:13;stroke-miterlimit:10;" width="452" height="120"/>
	<line style="fill:none;stroke:#666666;stroke-width:13;stroke-miterlimit:10;" x1="30" y1="403.736" x2="482" y2="403.736"/>
	<line style="fill:none;stroke:#666666;stroke-width:13;stroke-miterlimit:10;" x1="180" y1="343.736" x2="180" y2="463.736"/>
	<line style="fill:none;stroke:#666666;stroke-width:13;stroke-miterlimit:10;" x1="332" y1="343.736" x2="332" y2="463.736"/>
</g>
<g id="Ebene_1">
</g>
</svg>
