<?xml version="1.0" encoding="iso-8859-1"?>
<!-- Generator: Adobe Illustrator 15.1.0, SVG Export Plug-In . SVG Version: 6.00 Build 0)  -->
<!DOCTYPE svg PUBLIC "-//W3C//DTD SVG 1.1//EN" "http://www.w3.org/Graphics/SVG/1.1/DTD/svg11.dtd">
<svg version="1.1" xmlns="http://www.w3.org/2000/svg" xmlns:xlink="http://www.w3.org/1999/xlink" x="0px" y="0px" width="512px"
	 height="512px" viewBox="0 0 512 512" style="enable-background:new 0 0 512 512;" xml:space="preserve">
<g id="mode_x5F_point">
	<g>
		<circle style="fill:#0000FF;" cx="168.704" cy="351.725" r="53.375"/>
		<path d="M168.704,310.55c22.704,0,41.175,18.472,41.175,41.175s-18.471,41.175-41.175,41.175s-41.175-18.472-41.175-41.175
			S146,310.55,168.704,310.55 M168.704,290.725c-33.689,0-61,27.312-61,61s27.311,61,61,61c33.689,0,61-27.312,61-61
			S202.393,290.725,168.704,290.725L168.704,290.725z"/>
	</g>
	<g id="text3787-1" transform="scale(0.99360901,1.0064321)">
		<path id="path3020" style="fill:#0000FF;" d="M430.953,251.257h-24.914l-18.286-45.256h-82.742l-18.515,45.256h-24.228
			l71.085-168.913h25.6L430.953,251.257z M377.925,186.115l-32.228-77.943l-31.542,77.943H377.925z"/>
	</g>
</g>
<g id="Ebene_1">
</g>
</svg>
