<?xml version="1.0" encoding="iso-8859-1"?>
<!-- Generator: Adobe Illustrator 15.1.0, SVG Export Plug-In . SVG Version: 6.00 Build 0)  -->
<!DOCTYPE svg PUBLIC "-//W3C//DTD SVG 1.1//EN" "http://www.w3.org/Graphics/SVG/1.1/DTD/svg11.dtd">
<svg version="1.1" xmlns="http://www.w3.org/2000/svg" xmlns:xlink="http://www.w3.org/1999/xlink" x="0px" y="0px" width="512px"
	 height="512px" viewBox="0 0 512 512" style="enable-background:new 0 0 512 512;" xml:space="preserve">
<g id="mode_x5F_zoomout">
	<path d="M407.07,360.434l-62.21-62.23c-5.476-5.464-15.385-4.944-25.317,0.229l-27.146-27.129
		c35.36-46.202,32.025-112.528-10.243-154.801c-46.023-46.004-120.631-46.004-166.659,0c-45.999,46.028-45.999,120.636,0,166.662
		c42.283,42.268,108.609,45.604,154.808,10.233l27.14,27.125c-5.174,9.953-5.705,19.853-0.241,25.326l62.222,62.23
		c7.861,7.852,24.927,3.537,38.059-9.629C410.626,385.321,414.94,368.285,407.07,360.434z M133.025,265.649
		c-36.33-36.362-36.33-95.292,0-131.621c36.36-36.36,95.234-36.329,131.612,0c36.33,36.33,36.33,95.239,0,131.621
		C228.259,301.979,169.354,301.979,133.025,265.649z"/>
	<line style="fill:none;stroke:#000000;stroke-width:13;" x1="128.14" y1="199.386" x2="269.567" y2="199.386"/>
</g>
<g id="Ebene_1">
</g>
</svg>
