<?xml version="1.0" encoding="iso-8859-1"?>
<!-- Generator: Adobe Illustrator 15.1.0, SVG Export Plug-In . SVG Version: 6.00 Build 0)  -->
<!DOCTYPE svg PUBLIC "-//W3C//DTD SVG 1.1//EN" "http://www.w3.org/Graphics/SVG/1.1/DTD/svg11.dtd">
<svg version="1.1" xmlns="http://www.w3.org/2000/svg" xmlns:xlink="http://www.w3.org/1999/xlink" x="0px" y="0px" width="512px"
	 height="512px" viewBox="0 0 512 512" style="enable-background:new 0 0 512 512;" xml:space="preserve">
<g id="mode_x5F_semicircle">
	
		<path id="path2984_7_" style="fill:none;stroke:#000000;stroke-width:13;" d="
		M105.152,361.555c-58.193-83.165-37.83-197.841,45.48-256.136c83.311-58.296,198.022-38.136,256.215,45.028"/>
	<g>
		<circle style="fill:#0000FF;" cx="406.328" cy="149.447" r="35"/>
		<path d="M428.446,133.961c8.537,12.193,5.563,29.064-6.631,37.604c-12.195,8.539-29.066,5.564-37.605-6.631
			s-5.564-29.064,6.631-37.604S419.905,121.766,428.446,133.961 M439.095,126.504c-12.672-18.096-37.615-22.492-55.709-9.822
			c-18.096,12.67-22.496,37.613-9.824,55.709c12.672,18.098,37.613,22.494,55.709,9.824
			C447.366,169.543,451.767,144.602,439.095,126.504L439.095,126.504z"/>
	</g>
	<g>
		<circle style="fill:#0000FF;" cx="105.328" cy="361.554" r="35"/>
		<path d="M127.446,346.067c8.537,12.193,5.563,29.064-6.631,37.604c-12.195,8.539-29.066,5.564-37.605-6.631
			s-5.564-29.064,6.631-37.604S118.905,333.872,127.446,346.067 M138.095,338.61c-12.672-18.096-37.615-22.492-55.709-9.822
			c-18.096,12.67-22.496,37.613-9.824,55.709c12.672,18.098,37.613,22.494,55.709,9.824
			C146.366,381.649,150.767,356.708,138.095,338.61L138.095,338.61z"/>
	</g>
</g>
<g id="Ebene_1">
</g>
</svg>
