<?xml version="1.0" encoding="iso-8859-1"?>
<!-- Generator: Adobe Illustrator 15.1.0, SVG Export Plug-In . SVG Version: 6.00 Build 0)  -->
<!DOCTYPE svg PUBLIC "-//W3C//DTD SVG 1.1//EN" "http://www.w3.org/Graphics/SVG/1.1/DTD/svg11.dtd">
<svg version="1.1" xmlns="http://www.w3.org/2000/svg" xmlns:xlink="http://www.w3.org/1999/xlink" x="0px" y="0px" width="512px"
	 height="512px" viewBox="0 0 512 512" style="enable-background:new 0 0 512 512;" xml:space="preserve">
<g id="mode_x5F_attachdetachpoint">
	<g id="g2990" transform="matrix(0.81910949,-0.2825267,0.2825267,0.81910949,-60.428705,27.966614)">
	</g>
	<path style="fill:none;stroke:#000000;stroke-width:13;" d="M146.711,572.063c0-119.018-96.483-215.5-215.5-215.5"/>
	<polygon points="257.921,193.726 403.585,106.328 316.187,251.992 	"/>
	<polygon points="256.645,316.916 110.98,404.313 198.379,258.65 	"/>
	<g>
		<circle style="fill:#FF0000;" cx="423.585" cy="87.686" r="35"/>
		<path d="M423.585,60.686c14.888,0,27,12.112,27,27c0,14.887-12.112,27-27,27s-27-12.113-27-27
			C396.585,72.798,408.697,60.686,423.585,60.686 M423.585,47.686c-22.091,0-40,17.909-40,40c0,22.09,17.909,40,40,40
			c22.092,0,40-17.91,40-40C463.585,65.595,445.677,47.686,423.585,47.686L423.585,47.686z"/>
	</g>
	<g>
		<circle style="fill:#FF0000;" cx="88.415" cy="424.313" r="35"/>
		<path d="M88.415,397.313c14.888,0,27,12.113,27,27c0,14.888-12.112,27.001-27,27.001s-27-12.113-27-27.001
			C61.415,409.426,73.527,397.313,88.415,397.313 M88.415,384.313c-22.091,0-40,17.91-40,40c0,22.091,17.909,40.001,40,40.001
			c22.092,0,40-17.91,40-40.001C128.415,402.223,110.507,384.313,88.415,384.313L88.415,384.313z"/>
	</g>
	<line style="fill:none;stroke:#000000;stroke-width:13;" x1="183.813" y1="331.482" x2="330.753" y2="179.16"/>
</g>
<g id="Ebene_1">
</g>
</svg>
