<?xml version="1.0" encoding="iso-8859-1"?>
<!-- Generator: Adobe Illustrator 19.2.1, SVG Export Plug-In . SVG Version: 6.00 Build 0)  -->
<svg version="1.1" xmlns="http://www.w3.org/2000/svg" xmlns:xlink="http://www.w3.org/1999/xlink" x="0px" y="0px"
	 viewBox="0 0 512 512" style="enable-background:new 0 0 512 512;" xml:space="preserve">
<g id="mode_x5F_roots">
	<g>
		<line style="fill:none;stroke:#CCCCCC;stroke-width:13;stroke-miterlimit:10;" x1="-13.001" y1="256" x2="525" y2="256"/>
	</g>
	<path style="fill:none;stroke:#000000;stroke-width:13;stroke-miterlimit:10;" d="M12.407,522
		C60.462,192,135.204-91.705,256.012,256.002C377.815,606.572,448.708,320,500.093-10.167"/>
	<g>
		
			<ellipse transform="matrix(0.8191 -0.5736 0.5736 0.8191 -100.4457 193.265)" style="fill:#FF0000;" cx="256.25" cy="255.916" rx="35.001" ry="34.999"/>
		<path d="M278.368,240.43c8.537,12.193,5.563,29.064-6.631,37.603c-12.195,8.539-29.066,5.564-37.605-6.631
			c-8.539-12.195-5.564-29.064,6.631-37.603C252.958,225.26,269.827,228.234,278.368,240.43 M289.017,232.973
			c-12.672-18.096-37.615-22.492-55.709-9.822c-18.096,12.67-22.496,37.613-9.824,55.708c12.672,18.098,37.613,22.494,55.709,9.824
			C297.288,276.011,301.689,251.07,289.017,232.973L289.017,232.973z"/>
	</g>
	<g>
		
			<ellipse transform="matrix(0.8191 -0.5736 0.5736 0.8191 -135.5664 82.0482)" style="fill:#FF0000;" cx="62.326" cy="256.001" rx="35.001" ry="34.999"/>
		<path d="M84.444,240.515c8.537,12.193,5.563,29.064-6.631,37.603c-12.195,8.539-29.066,5.564-37.605-6.631
			c-8.539-12.195-5.564-29.064,6.631-37.603S75.903,228.319,84.444,240.515 M95.093,233.057
			c-12.672-18.096-37.615-22.492-55.709-9.822c-18.096,12.67-22.496,37.613-9.824,55.709c12.672,18.098,37.613,22.494,55.709,9.824
			C103.364,276.096,107.764,251.155,95.093,233.057L95.093,233.057z"/>
	</g>
	<g>
		
			<ellipse transform="matrix(0.8191 -0.5736 0.5736 0.8191 -65.7072 303.609)" style="fill:#FF0000;" cx="448.599" cy="256.001" rx="35.001" ry="34.999"/>
		<path d="M470.717,240.515c8.537,12.193,5.563,29.064-6.631,37.603c-12.195,8.539-29.066,5.564-37.605-6.631
			c-8.539-12.195-5.564-29.064,6.631-37.603C445.307,225.345,462.176,228.319,470.717,240.515 M481.366,233.057
			c-12.672-18.096-37.615-22.492-55.709-9.822c-18.096,12.67-22.496,37.613-9.824,55.709c12.672,18.098,37.613,22.494,55.709,9.824
			C489.637,276.096,494.038,251.155,481.366,233.057L481.366,233.057z"/>
	</g>
</g>
<g id="Layer_1">
</g>
</svg>
