<?xml version="1.0" encoding="iso-8859-1"?>
<!-- Generator: Adobe Illustrator 15.1.0, SVG Export Plug-In . SVG Version: 6.00 Build 0)  -->
<!DOCTYPE svg PUBLIC "-//W3C//DTD SVG 1.1//EN" "http://www.w3.org/Graphics/SVG/1.1/DTD/svg11.dtd">
<svg version="1.1" xmlns="http://www.w3.org/2000/svg" xmlns:xlink="http://www.w3.org/1999/xlink" x="0px" y="0px" width="512px"
	 height="512px" viewBox="0 0 512 512" style="enable-background:new 0 0 512 512;" xml:space="preserve">
<g id="mode_x5F_twovarstats">
	<rect x="30" y="30" style="fill:none;stroke:#666666;stroke-width:13;stroke-miterlimit:10;" width="120" height="180"/>
	<line style="fill:none;stroke:#666666;stroke-width:13;stroke-miterlimit:10;" x1="30" y1="90" x2="150" y2="90"/>
	<line style="fill:none;stroke:#666666;stroke-width:13;stroke-miterlimit:10;" x1="30" y1="150" x2="150" y2="150"/>
	<line style="fill:none;stroke:#666666;stroke-width:13;stroke-miterlimit:10;" x1="90" y1="30" x2="90" y2="210"/>
	<g>
		<line style="fill:none;stroke:#FF0000;stroke-width:13;stroke-miterlimit:10;" x1="12.544" y1="575.295" x2="512" y2="-20.458"/>
		<g>
			<circle style="fill:#0000FF;" cx="145.563" cy="299.097" r="35"/>
			<path d="M167.682,283.61c8.537,12.193,5.563,29.064-6.631,37.604c-12.195,8.539-29.066,5.564-37.605-6.631
				s-5.564-29.064,6.631-37.604S159.141,271.414,167.682,283.61 M178.33,276.153c-12.672-18.096-37.615-22.493-55.709-9.822
				c-18.096,12.67-22.496,37.613-9.824,55.709c12.672,18.097,37.613,22.493,55.709,9.823
				C186.602,319.192,191.002,294.25,178.33,276.153L178.33,276.153z"/>
		</g>
		<g>
			<circle style="fill:#0000FF;" cx="123.869" cy="446.622" r="35"/>
			<path d="M145.986,431.136c8.538,12.193,5.563,29.064-6.631,37.604c-12.195,8.539-29.066,5.564-37.604-6.631
				c-8.54-12.195-5.564-29.064,6.631-37.604C120.576,415.966,137.446,418.939,145.986,431.136 M156.635,423.679
				c-12.671-18.096-37.614-22.493-55.709-9.822c-18.096,12.67-22.495,37.613-9.824,55.709c12.672,18.097,37.614,22.493,55.71,9.823
				C164.907,466.718,169.307,441.775,156.635,423.679L156.635,423.679z"/>
		</g>
		<g>
			<circle style="fill:#0000FF;" cx="326.716" cy="334.894" r="35"/>
			<path d="M348.834,319.407c8.537,12.193,5.563,29.064-6.631,37.604c-12.195,8.539-29.066,5.564-37.605-6.631
				s-5.564-29.064,6.631-37.604S340.293,307.211,348.834,319.407 M359.482,311.95c-12.672-18.096-37.615-22.493-55.709-9.822
				c-18.096,12.67-22.496,37.613-9.824,55.709c12.672,18.097,37.613,22.493,55.709,9.823
				C367.754,354.989,372.154,330.047,359.482,311.95L359.482,311.95z"/>
		</g>
		<g>
			<circle style="fill:#0000FF;" cx="286.712" cy="173.266" r="35"/>
			<path d="M308.83,157.78c8.537,12.193,5.563,29.064-6.631,37.604c-12.195,8.539-29.066,5.564-37.605-6.631
				s-5.564-29.064,6.631-37.604S300.289,145.583,308.83,157.78 M319.479,150.323c-12.672-18.096-37.615-22.493-55.709-9.822
				c-18.096,12.67-22.496,37.613-9.824,55.709c12.672,18.097,37.613,22.493,55.709,9.823
				C327.75,193.362,332.15,168.419,319.479,150.323L319.479,150.323z"/>
		</g>
		<g>
			<circle style="fill:#0000FF;" cx="447.122" cy="149.402" r="35"/>
			<path d="M469.24,133.916c8.537,12.193,5.563,29.064-6.631,37.604c-12.195,8.539-29.066,5.564-37.605-6.631
				s-5.564-29.064,6.631-37.604S460.699,121.719,469.24,133.916 M479.889,126.458c-12.672-18.096-37.615-22.493-55.709-9.822
				c-18.096,12.67-22.496,37.613-9.824,55.709c12.672,18.097,37.613,22.493,55.709,9.823
				C488.16,169.498,492.561,144.555,479.889,126.458L479.889,126.458z"/>
		</g>
	</g>
</g>
<g id="Ebene_1">
</g>
</svg>
