<?xml version="1.0" encoding="iso-8859-1"?>
<!-- Generator: Adobe Illustrator 15.1.0, SVG Export Plug-In . SVG Version: 6.00 Build 0)  -->
<!DOCTYPE svg PUBLIC "-//W3C//DTD SVG 1.1//EN" "http://www.w3.org/Graphics/SVG/1.1/DTD/svg11.dtd">
<svg version="1.1" xmlns="http://www.w3.org/2000/svg" xmlns:xlink="http://www.w3.org/1999/xlink" x="0px" y="0px" width="512px"
	 height="512px" viewBox="0 0 512 512" style="enable-background:new 0 0 512 512;" xml:space="preserve">
<g id="mode_x5F_meancells">
	<g>
		<path d="M325.238,189.336c-4.297,18.1-7.294,33.722-8.984,46.875c-0.521-0.131-2.802-0.586-6.836-1.367
			c-4.037-0.781-7.099-1.172-9.18-1.172H196.723c-1.435,0-3.485,0.098-6.152,0.293c-2.67,0.195-4.657,0.293-5.957,0.293
			l72.07-82.031l-71.68-94.141c1.041,0,4.229,0.229,9.57,0.684c5.337,0.458,9.375,0.684,12.109,0.684h103.711l2.734,33.203h-4.297
			c-1.435-4.556-2.539-7.779-3.32-9.668c-0.781-1.886-2.344-4.166-4.688-6.836c-2.344-2.667-5.536-4.522-9.57-5.566
			c-4.037-1.041-9.247-1.563-15.625-1.563h-54.883l56.055,73.828l-60.547,70.117h75.977c8.072,0,13.867-1.563,17.383-4.688
			s7.159-9.439,10.938-18.945H325.238z"/>
		<path d="M299.457,454.336h-17.773v-66.211c0-6.769-2.441-12.53-7.324-17.285c-4.883-4.752-10.645-7.129-17.285-7.129
			c-7.294,0-13.51,2.441-18.652,7.324c-5.146,4.883-7.715,11.103-7.715,18.652v64.648h-17.969v-100h17.969v12.891
			c0.65-0.519,1.822-1.822,3.516-3.906c1.69-2.081,3.351-3.873,4.98-5.371c1.626-1.495,4.361-2.896,8.203-4.199
			c3.839-1.3,8.365-1.953,13.574-1.953c25.65,0,38.477,12.24,38.477,36.719V454.336z"/>
	</g>
	<line style="fill:none;stroke:#000000;stroke-width:13;" x1="106" y1="294.5" x2="406" y2="294.5"/>
</g>
<g id="Ebene_1">
</g>
</svg>
