<?xml version="1.0" encoding="iso-8859-1"?>
<!-- Generator: Adobe Illustrator 15.1.0, SVG Export Plug-In . SVG Version: 6.00 Build 0)  -->
<!DOCTYPE svg PUBLIC "-//W3C//DTD SVG 1.1//EN" "http://www.w3.org/Graphics/SVG/1.1/DTD/svg11.dtd">
<svg version="1.1" xmlns="http://www.w3.org/2000/svg" xmlns:xlink="http://www.w3.org/1999/xlink" x="0px" y="0px" width="512px"
	 height="512px" viewBox="0 0 512 512" style="enable-background:new 0 0 512 512;" xml:space="preserve">
<g id="mode_x5F_recordtospreadsheet">
	<polygon style="fill:#FFFFFF;stroke:#000000;stroke-width:13;stroke-miterlimit:10;" points="409.92,420.604 451.046,400.042 
		382.502,259.524 468.183,250.957 279.685,86.45 276.258,345.206 339.661,280.089 	"/>
	<g>
		<path d="M96.404,99.748c0,8.888-3.346,16.285-10.034,22.192c-6.69,5.91-15.161,8.862-25.415,8.862
			c-11.33,0-19.922-3.026-25.781-9.082c-5.859-6.054-8.789-13.231-8.789-21.533h15.967c1.172,12.696,7.519,19.043,19.043,19.043
			c5.077,0,9.691-1.831,13.843-5.493c4.149-3.662,6.226-7.885,6.226-12.671c0-15.429-10.107-22.998-30.322-22.705V66.35
			c9.375,0,16.479-1.611,21.313-4.834s7.251-8.446,7.251-15.674c0-5.663-1.978-9.741-5.933-12.231s-8.229-3.735-12.817-3.735
			c-9.279,0-14.992,6.251-17.139,18.75H28.582c1.268-9.764,4.637-17.26,10.107-22.485c5.468-5.223,12.792-7.837,21.973-7.837
			c10.057,0,18.237,2.71,24.536,8.13s9.448,12.231,9.448,20.435c0,3.419-0.709,6.592-2.124,9.521c-1.417,2.93-3.149,5.25-5.2,6.958
			c-2.051,1.71-4.2,3.369-6.445,4.98c-2.248,1.611-4.152,2.809-5.713,3.589c0.682,0.392,2.147,1.172,4.395,2.344
			c2.245,1.172,4.149,2.321,5.713,3.442c1.561,1.124,3.296,2.662,5.2,4.614c1.904,1.955,3.369,4.395,4.395,7.324
			S96.404,95.939,96.404,99.748z"/>
		<path d="M180.047,96.379c0,5.47-0.879,10.4-2.637,14.795c-2.442,6.349-6.544,11.279-12.305,14.795
			c-5.47,3.319-11.671,4.93-18.604,4.834c-7.814-0.099-14.795-2.293-20.947-6.592c-6.251-4.395-10.646-10.254-13.184-17.578
			c-1.465-4.198-2.296-9.032-2.49-14.502c-0.197-5.468-0.05-10.4,0.439-14.795c0.879-13.866,1.708-23.145,2.49-27.832
			c0.879-4.589,2.051-8.592,3.516-12.012c1.854-4.003,4.296-7.372,7.324-10.107c3.026-2.831,6.64-5.028,10.84-6.592
			c3.905-1.465,8.057-2.293,12.451-2.49c6.249-0.293,11.62,0.732,16.113,3.076c3.905,2.149,7.079,5.324,9.521,9.521
			c2.831,4.591,4.344,9.718,4.541,15.381h-14.355c0.194-3.612-0.685-6.885-2.637-9.814c-1.465-2.245-3.321-3.955-5.566-5.127
			c-2.344-1.268-4.98-1.758-7.91-1.465c-3.419,0.293-6.642,1.611-9.668,3.955c-2.637,2.051-4.884,4.688-6.738,7.91
			c-2.833,5.177-4.493,12.55-4.98,22.119c-0.197,3.712-0.293,7.667-0.293,11.865c1.659-2.538,3.417-4.834,5.273-6.885
			c2.245-2.245,4.589-3.955,7.031-5.127c2.93-1.366,6.542-2,10.84-1.904c3.71,0.099,7.324,0.586,10.84,1.465
			c3.905,1.076,7.226,2.637,9.961,4.688c4.198,3.223,7.226,7.862,9.082,13.916C179.362,86.37,180.047,91.204,180.047,96.379z
			 M164.813,96.379c0-5.37-0.636-9.569-1.904-12.598c-1.369-3.319-3.614-5.907-6.738-7.764c-3.028-1.758-6.445-2.637-10.254-2.637
			s-7.228,0.879-10.254,2.637c-3.223,1.856-5.519,4.445-6.885,7.764c-1.271,3.028-1.904,7.228-1.904,12.598
			c0,5.372,0.634,9.521,1.904,12.451c1.465,3.419,3.758,6.006,6.885,7.764c3.026,1.758,6.445,2.637,10.254,2.637
			s7.178-0.879,10.107-2.637c3.223-1.758,5.516-4.344,6.885-7.764C164.176,105.9,164.813,101.751,164.813,96.379z"/>
		<path d="M94.061,308.752H28.729v-13.916c12.694-14.158,22.778-25.415,30.249-33.765s12.694-14.795,15.674-19.336
			c2.978-4.541,4.468-8.519,4.468-11.938c0-6.542-1.271-11.353-3.809-14.429c-2.541-3.076-6.789-4.614-12.744-4.614
			c-5.273,0-9.229,1.515-11.865,4.541c-2.637,3.028-4.347,7.862-5.127,14.502H30.34c1.561-20.995,12.305-31.494,32.227-31.494
			c9.862,0,17.578,3.003,23.145,9.009s8.35,12.817,8.35,20.435c0,2.344-0.197,4.493-0.586,6.445
			c-0.392,1.955-1.025,4.028-1.904,6.226s-2.076,4.468-3.589,6.812c-1.515,2.344-3.419,5.006-5.713,7.983
			c-2.296,2.979-5.006,6.226-8.13,9.741c-3.126,3.516-6.764,7.617-10.913,12.305c-4.152,4.688-8.862,9.865-14.136,15.527
			c-1.662,1.856-2.93,3.273-3.809,4.248h48.779V308.752z"/>
		<path d="M182.684,282.385h-13.33v26.367h-14.063v-26.367H107.83v-15.82l44.971-66.064h16.553v69.434h13.33V282.385z
			 M155.291,269.934v-53.027l-35.449,53.027H155.291z"/>
		<path d="M76.336,488.752H62.42v-90.234c-5.566,3.907-13.38,8.057-23.438,12.451v-12.451c4.296-2.637,8.324-5.516,12.085-8.643
			c3.758-3.124,6.42-5.493,7.983-7.104c1.561-1.611,2.344-2.366,2.344-2.271h14.941V488.752z"/>
		<path d="M177.85,488.752h-65.332v-13.916c12.694-14.158,22.778-25.415,30.249-33.765s12.694-14.795,15.674-19.336
			c2.978-4.541,4.468-8.519,4.468-11.938c0-6.541-1.271-11.353-3.809-14.429c-2.541-3.076-6.789-4.614-12.744-4.614
			c-5.273,0-9.229,1.516-11.865,4.541c-2.637,3.028-4.347,7.862-5.127,14.502h-15.234c1.561-20.995,12.305-31.494,32.227-31.494
			c9.862,0,17.578,3.003,23.145,9.009s8.35,12.817,8.35,20.435c0,2.344-0.197,4.493-0.586,6.445
			c-0.392,1.955-1.025,4.028-1.904,6.226s-2.076,4.468-3.589,6.812c-1.515,2.344-3.419,5.006-5.713,7.983
			c-2.296,2.98-5.006,6.226-8.13,9.741c-3.126,3.516-6.764,7.617-10.913,12.305c-4.152,4.688-8.862,9.865-14.136,15.527
			c-1.662,1.856-2.93,3.273-3.809,4.248h48.779V488.752z"/>
	</g>
</g>
<g id="Ebene_1">
</g>
</svg>
