<?xml version="1.0" encoding="iso-8859-1"?>
<!-- Generator: Adobe Illustrator 15.1.0, SVG Export Plug-In . SVG Version: 6.00 Build 0)  -->
<!DOCTYPE svg PUBLIC "-//W3C//DTD SVG 1.1//EN" "http://www.w3.org/Graphics/SVG/1.1/DTD/svg11.dtd">
<svg version="1.1" xmlns="http://www.w3.org/2000/svg" xmlns:xlink="http://www.w3.org/1999/xlink" x="0px" y="0px" width="512px"
	 height="512px" viewBox="0 0 512 512" style="enable-background:new 0 0 512 512;" xml:space="preserve">
<g id="mode_x5F_cone">
	<g>
		<g>
			<path style="fill:none;stroke:#993300;stroke-width:13;stroke-miterlimit:10;" d="M67.075,369c0-4.182,0.619-8.295,1.817-12.322"
				/>
			<path style="fill:none;stroke:#993300;stroke-width:13;stroke-miterlimit:10;stroke-dasharray:25.0092,25.0092;" d="
				M81.338,335.21c28.345-32.106,95.871-54.696,174.662-54.696c86.783,0,159.901,27.406,182.049,64.748"/>
			<path style="fill:none;stroke:#993300;stroke-width:13;stroke-miterlimit:10;" d="M443.108,356.678
				c1.198,4.027,1.817,8.141,1.817,12.322"/>
		</g>
	</g>
	<rect x="288" y="362.5" width="158" height="13"/>
	<g>
		<circle style="fill:#0000FF;" cx="256" cy="369" r="35"/>
		<path d="M256,342c14.888,0,27,12.112,27,27s-12.112,27-27,27s-27-12.112-27-27S241.112,342,256,342 M256,329
			c-22.092,0-40,17.909-40,40s17.908,40,40,40s40-17.909,40-40S278.092,329,256,329L256,329z"/>
	</g>
	<path style="opacity:0.4;fill:#993300;" d="M448.338,343.32h0.312l-1.564-2.414c-1.618-2.961-3.504-5.867-5.644-8.711
		L255.999,45.896L70.554,332.201c-2.136,2.84-4.019,5.742-5.634,8.699l-1.569,2.42h0.313c-3.744,7.609-5.744,15.559-5.744,23.744
		c0,54.697,88.685,99.039,198.08,99.039c109.398,0,198.082-44.342,198.082-99.039C454.081,358.879,452.081,350.93,448.338,343.32z"
		/>
	<linearGradient id="SVGID_1_" gradientUnits="userSpaceOnUse" x1="81.6191" y1="228.2554" x2="467.3445" y2="296.2692">
		<stop  offset="0" style="stop-color:#993300"/>
		<stop  offset="0.3333" style="stop-color:#FFFFFF"/>
		<stop  offset="1" style="stop-color:#993300"/>
	</linearGradient>
	<path style="opacity:0.5;fill:url(#SVGID_1_);" d="M448.338,343.32h0.312l-1.564-2.414c-1.618-2.961-3.504-5.867-5.644-8.711
		L255.999,45.896L70.554,332.201c-2.136,2.84-4.019,5.742-5.634,8.699l-1.569,2.42h0.313c-3.744,7.609-5.744,15.559-5.744,23.744
		c0,54.697,88.685,99.039,198.08,99.039c109.398,0,198.082-44.342,198.082-99.039C454.081,358.879,452.081,350.93,448.338,343.32z"
		/>
	<g>
		<path style="fill:#993300;" d="M255.999,69.809L430.53,339.263l0.248,0.384l0.275,0.365c1.765,2.345,3.32,4.743,4.624,7.129
			l0.233,0.427l0.118,0.184l0.644,1.308c2.925,5.946,4.408,12.004,4.408,18.006c0,10.211-4.202,20.356-12.491,30.154
			c-8.708,10.294-21.966,20.063-38.339,28.249c-35.643,17.821-83.321,27.636-134.252,27.636c-50.93,0-98.607-9.814-134.25-27.636
			c-16.374-8.187-29.631-17.955-38.339-28.249c-8.289-9.798-12.491-19.943-12.491-30.154c0-6.002,1.483-12.06,4.409-18.005
			l0.644-1.308l0.123-0.189l0.235-0.43c1.3-2.38,2.853-4.774,4.615-7.118l0.274-0.364l0.248-0.382L255.999,69.809 M255.999,45.896
			L70.554,332.201c-2.136,2.84-4.019,5.742-5.634,8.699l-1.569,2.42h0.313c-3.744,7.609-5.744,15.559-5.744,23.744
			c0,54.697,88.685,99.039,198.08,99.039c109.398,0,198.082-44.342,198.082-99.039c0-8.186-2-16.135-5.743-23.744h0.312
			l-1.564-2.414c-1.618-2.961-3.504-5.867-5.644-8.711L255.999,45.896L255.999,45.896z"/>
	</g>
	<g>
		<circle style="fill:#0000FF;" cx="256" cy="63" r="35"/>
		<path d="M256,36c14.888,0,27,12.112,27,27s-12.112,27-27,27s-27-12.112-27-27S241.112,36,256,36 M256,23
			c-22.092,0-40,17.909-40,40s17.908,40,40,40s40-17.909,40-40S278.092,23,256,23L256,23z"/>
	</g>
</g>
<g id="Ebene_1">
</g>
</svg>
