<?xml version="1.0" encoding="iso-8859-1"?>
<!-- Generator: Adobe Illustrator 15.1.0, SVG Export Plug-In . SVG Version: 6.00 Build 0)  -->
<!DOCTYPE svg PUBLIC "-//W3C//DTD SVG 1.1//EN" "http://www.w3.org/Graphics/SVG/1.1/DTD/svg11.dtd">
<svg version="1.1" xmlns="http://www.w3.org/2000/svg" xmlns:xlink="http://www.w3.org/1999/xlink" x="0px" y="0px" width="512px"
	 height="512px" viewBox="0 0 512 512" style="enable-background:new 0 0 512 512;" xml:space="preserve">
<g id="mode_x5F_sumcells">
	<rect x="589" style="fill:none;" width="378" height="481"/>
	<g>
		<path d="M396.625,340.375c-8.594,36.2-14.588,67.443-17.969,93.75c-1.044-0.263-5.604-1.172-13.672-2.734
			c-8.075-1.563-14.197-2.344-18.359-2.344H139.594c-2.869,0-6.97,0.195-12.305,0.586c-5.341,0.391-9.314,0.586-11.914,0.586
			l144.141-164.063L116.156,77.875c2.081,0,8.459,0.458,19.141,1.367c10.675,0.916,18.75,1.367,24.219,1.367h207.422l5.469,66.406
			h-8.594c-2.869-9.112-5.078-15.558-6.641-19.336c-1.563-3.772-4.688-8.331-9.375-13.672c-4.688-5.334-11.072-9.045-19.141-11.133
			c-8.075-2.081-18.494-3.125-31.25-3.125H187.641L299.75,247.406L178.656,387.641h151.953c16.144,0,27.734-3.125,34.766-9.375
			s14.318-18.878,21.875-37.891H396.625z"/>
	</g>
</g>
<g id="Ebene_1">
</g>
</svg>
