<?xml version="1.0" encoding="iso-8859-1"?>
<!-- Generator: Adobe Illustrator 15.1.0, SVG Export Plug-In . SVG Version: 6.00 Build 0)  -->
<!DOCTYPE svg PUBLIC "-//W3C//DTD SVG 1.1//EN" "http://www.w3.org/Graphics/SVG/1.1/DTD/svg11.dtd">
<svg version="1.1" xmlns="http://www.w3.org/2000/svg" xmlns:xlink="http://www.w3.org/1999/xlink" x="0px" y="0px" width="512px"
	 height="512px" viewBox="0 0 512 512" style="enable-background:new 0 0 512 512;" xml:space="preserve">
<g id="mode_x5F_copyvisualstyle">
	<path style="display:none;opacity:0.2;fill:#993300;" d="M243.722,242.408v-134.69c0,0,23.723-27.677,47.444,0v134.69"/>
	<path style="display:none;opacity:0.2;fill:#993300;" d="M350.473,304.732c0,13.102-166.057,13.102-166.057,0v-38.604
		c0-13.1,10.621-23.721,23.723-23.721H326.75c13.102,0,23.723,10.621,23.723,23.721V304.732z"/>
	<g>
		<path style="stroke:#000000;stroke-width:13;stroke-miterlimit:10;" d="M246.269,240.482l23.389-132.644
			c0,0,28.168-23.137,46.724,8.239l-23.389,132.644"/>
		<path style="stroke:#000000;stroke-width:13;stroke-miterlimit:10;" d="M340.575,320.397
			c-2.275,12.902-165.81-15.934-163.534-28.836l6.703-38.017c2.275-12.901,14.579-21.517,27.481-19.241l116.81,20.597
			c12.903,2.275,21.519,14.579,19.243,27.48L340.575,320.397z"/>
		<path style="fill:#CCCCCC;stroke:#000000;stroke-width:13;" d="M177.041,291.562c0,0-2.214,55.816-35.649,86.053
			c-33.434,30.237,158.682,47.251,168.207,29.659c9.525-17.591,30.977-86.876,30.977-86.876S271.384,323.453,177.041,291.562z"/>
		<path style="opacity:0.4;fill:#0000FF;" d="M309.599,407.273c3.737-6.9,9.308-21.756,14.701-37.264
			c-3.743,0.172-7.579,1.076-10.958,2.374c-11.689,4.488-10.938,11.942-20.145,9.516c-9.208-2.427-5.454-14.611-10.951-24.413
			c-5.499-9.803-9.942-7.374-29.636,13.241c-19.694,20.616-20.934,0.324-21.97-41.612s-8.636-7.945-25.032,7.631
			s-14.152,11.957-24.37-7.51c-2.458-4.681-5.932-5.82-9.791-4.858c-4.807,17.511-13.689,38.437-30.055,53.236
			C107.958,407.852,300.074,424.865,309.599,407.273z"/>
		<path style="fill:none;stroke:#0000FF;stroke-width:13;stroke-miterlimit:10;" d="M309.599,407.273
			c3.737-6.9,9.308-21.756,14.701-37.264c-3.743,0.172-7.579,1.076-10.958,2.374c-11.689,4.488-10.938,11.942-20.145,9.516
			c-9.208-2.427-5.454-14.611-10.951-24.413c-5.499-9.803-9.942-7.374-29.636,13.241c-19.694,20.616-20.934,0.324-21.97-41.612
			s-8.636-7.945-25.032,7.631s-14.152,11.957-24.37-7.51c-2.458-4.681-5.932-5.82-9.791-4.858
			c-4.807,17.511-13.689,38.437-30.055,53.236C107.958,407.852,300.074,424.865,309.599,407.273z"/>
	</g>
</g>
<g id="Ebene_1">
</g>
</svg>
