<?xml version="1.0" encoding="iso-8859-1"?>
<!-- Generator: Adobe Illustrator 15.1.0, SVG Export Plug-In . SVG Version: 6.00 Build 0)  -->
<!DOCTYPE svg PUBLIC "-//W3C//DTD SVG 1.1//EN" "http://www.w3.org/Graphics/SVG/1.1/DTD/svg11.dtd">
<svg version="1.1" xmlns="http://www.w3.org/2000/svg" xmlns:xlink="http://www.w3.org/1999/xlink" x="0px" y="0px" width="512px"
	 height="512px" viewBox="0 0 512 512" style="enable-background:new 0 0 512 512;" xml:space="preserve">
<g id="mode_x5F_complexnumber">
	<g>
		<circle style="fill:#0000FF;" cx="168.704" cy="351.725" r="53.375"/>
		<path d="M168.704,310.55c22.704,0,41.175,18.472,41.175,41.175s-18.471,41.175-41.175,41.175s-41.175-18.472-41.175-41.175
			S146,310.55,168.704,310.55 M168.704,290.725c-33.689,0-61,27.312-61,61s27.311,61,61,61c33.689,0,61-27.312,61-61
			S202.393,290.725,168.704,290.725L168.704,290.725z"/>
	</g>
	<g>
		<path style="fill:#0000FF;" d="M407.753,253.469H284.057v-25.933l95.469-123.237h-90.649V83.874h116.353v25.703l-95.239,123.467
			h97.764V253.469z"/>
	</g>
</g>
<g id="Ebene_1">
</g>
</svg>
