<svg xmlns="http://www.w3.org/2000/svg" xml:space="preserve" style="enable-background:new 0 0 512 512" viewBox="0 0 512 512"><path d="M409.8 198.2c-2-.6-11-1.3-19.9-1.7l-16.3-.7v46.7l15.4-.7c9.3-.4 17.5-1.3 20.8-2.3 7-2 13.3-8.1 15-14.4 3.2-11.8-3.4-23.8-15-26.9z"/><path d="M485.7 0H26.3C11.8 0 0 11.8 0 26.3v459.4C0 500.2 11.8 512 26.3 512h459.4c14.5 0 26.3-11.8 26.3-26.3V26.3C512 11.8 500.2 0 485.7 0zm-224 311.7c-8.1-.1-14.7-3-20.8-9.6l-4.9-5.2-26.7 3.8c-14.7 2.1-26.9 4-27.2 4.3-1 1 4.4 14.2 8.7 21.2 8 12.8 17.5 20.9 31.5 26.8 3.6 1.5 6.7 2.9 6.9 3.1s-16.2.4-36.4.4H156v-74.2H88.8v74.2H26.6V155.9h62.2v86.2h67.1v-86.2h50.2l-.5 2.3c-1 4.4-19.4 85.7-21.6 95.8-1.2 5.6-2 10.5-1.7 10.8s12.6 2.2 27.3 4.2l26.8 3.7 4.1-4.8c11.5-13.4 31-13.7 42.3-.4 14.8 17.3 1.9 44.3-21.1 44.2zm222.1-74.5c-5.8 21.2-21.1 36.1-42.9 41.7-8 2-27 3.4-49.9 3.4h-17.3v74.2h-36.3c-20.9 0-35.9-.4-35.4-.9s3.3-1.7 6.1-2.6c24-7.7 42.5-37.5 42.5-68.3 0-17.8-5.4-31.6-17.1-43.9-8-8.4-16.4-13.7-27.6-17.4-7.4-2.4-9.5-2.6-25.1-2.7-15.9-.1-17.6.1-25.8 2.7-4.9 1.5-9.5 3.1-10.3 3.4-1 .4-1.4.1-1.1-.8.2-.8 1.9-7.6 3.6-15.2l3.2-13.8h91.2v-41.3l46.9.5c43.7.4 47.4.6 54.9 2.6 20.8 5.5 33 16.6 39.3 35.7 2.3 7.1 2.6 9.8 2.7 22.1.1 10.5-.4 15.7-1.6 20.6z"/></svg>