<?xml version="1.0" encoding="utf-8"?>
<!-- Generator: Adobe Illustrator 21.1.0, SVG Export Plug-In . SVG Version: 6.00 Build 0)  -->
<svg version="1.1" id="Layer_1" xmlns="http://www.w3.org/2000/svg" xmlns:xlink="http://www.w3.org/1999/xlink" x="0px" y="0px"
	 viewBox="0 0 512 512" style="enable-background:new 0 0 512 512;" xml:space="preserve">
<style type="text/css">
	.st0{fill:#00A8D5;}
</style>
<path class="st0" d="M190.8,338.4h-23.6l-17.3-44.1H71.3l-17.6,44.1h-23l67.4-164.5h24.3L190.8,338.4L190.8,338.4z M140.5,274.9
	L109.9,199L80,274.9L140.5,274.9L140.5,274.9z M330.1,292.5c0,12.9-4.8,23.8-14.3,32.6c-9.5,8.8-20.8,13.2-33.8,13.2h-70.2V173.9
	h64.4c13.9,0,25.4,3.5,34.5,10.4c9.1,6.9,13.7,17,13.7,30.2c0,5.2-0.9,10-2.8,14.5c-1.9,4.5-4.2,7.9-6.8,10.5
	c-2.7,2.5-5.3,4.7-8,6.6c-2.7,1.9-5,3.2-6.8,3.9l-2.8,0.9c0.9,0.3,2.1,0.7,3.6,1.1c1.5,0.4,4.2,1.8,8,4c3.8,2.2,7.2,4.8,10.1,7.6
	c2.9,2.8,5.5,6.8,7.9,12C328.9,280.6,330.1,286.3,330.1,292.5L330.1,292.5z M303.7,217.5c0-15.9-11.4-23.8-34.3-23.8h-35.3v49H269
	C292.1,242.6,303.7,234.3,303.7,217.5z M308.5,290.1c0-9.2-3.4-16.3-10.3-21.1c-6.9-4.9-16.9-7.3-30.2-7.3h-33.8v57H269
	c11.7,0,21.2-2.7,28.5-8C304.8,305.2,308.5,298.4,308.5,290.1L308.5,290.1z M481.2,294.3c0,13.7-5.2,24.9-15.6,33.8
	c-10.4,8.9-24.6,13.4-42.7,13.4c-12,0-22.4-2.3-31.2-6.8c-8.8-4.5-15.7-10.8-20.6-18.8c-4.9-8-8.5-16.9-10.8-26.6
	c-2.3-9.7-3.5-20.4-3.5-32.2c0-11.7,1.2-22.5,3.5-32.4s5.9-19,10.8-27.4c4.9-8.4,11.8-15,20.7-19.7c8.9-4.7,19.4-7.1,31.5-7.1
	c19.1,0,33.3,4.4,42.8,13.2c9.5,8.8,14.2,20.1,14.2,33.9h-22.5c0-9.8-2.7-17.1-8-21.9c-5.3-4.8-14.1-7.2-26.2-7.2
	c-29.3,0-44,22.9-44,68.6c0,23.7,3.6,40.7,10.8,50.8c7.2,10.1,18,15.1,32.3,15.1c24,0,36-9.6,36-28.7L481.2,294.3L481.2,294.3z"/>
</svg>
