<?xml version="1.0" encoding="iso-8859-1"?>
<!-- Generator: Adobe Illustrator 15.1.0, SVG Export Plug-In . SVG Version: 6.00 Build 0)  -->
<!DOCTYPE svg PUBLIC "-//W3C//DTD SVG 1.1//EN" "http://www.w3.org/Graphics/SVG/1.1/DTD/svg11.dtd">
<svg version="1.1" xmlns="http://www.w3.org/2000/svg" xmlns:xlink="http://www.w3.org/1999/xlink" x="0px" y="0px" width="512px"
	 height="512px" viewBox="0 0 512 512" style="enable-background:new 0 0 512 512;" xml:space="preserve">
<g id="mode_x5F_functioninspector">
	<path style="fill:none;stroke:#1A171B;stroke-width:13;" d="M-24.5,271.5c0,0,107.142,193.066,242.071,193.066
		S464.498,160.5,504.499-18.5"/>
	<path style="fill:none;stroke:#FF0000;stroke-width:17;stroke-linecap:round;" d="M80.536,402.466
		c38.819,34.408,85.935,62.101,137.035,62.101c78.209,0,148.714-102.158,201.96-222.905"/>
	<rect x="73.536" y="71.5" style="opacity:0.4;fill:#0000FF;" width="200" height="50"/>
	<rect x="73.536" y="121.5" style="fill:#FFFFFF;" width="200" height="150"/>
	<rect x="73.536" y="71.5" style="fill:none;stroke:#666666;stroke-width:13;" width="200" height="200"/>
	<line style="fill:none;stroke:#666666;stroke-width:13;" x1="73.536" y1="121.5" x2="273.536" y2="121.5"/>
	<line style="fill:none;stroke:#666666;stroke-width:13;" x1="73.536" y1="171.5" x2="273.536" y2="171.5"/>
	<line style="fill:none;stroke:#666666;stroke-width:13;" x1="73.536" y1="221.5" x2="273.536" y2="221.5"/>
	<g>
		<path d="M128.617,106.65h-3.428l-4.395-5.918l-4.248,5.918h-3.164l5.977-7.764l-5.508-7.236h3.428l3.955,5.361l3.838-5.361h3.135
			l-5.566,7.236L128.617,106.65z"/>
	</g>
	<g>
		<path d="M203.231,87.197c-0.43-0.234-0.918-0.352-1.465-0.352c-0.86-0.039-1.479,0.142-1.86,0.542
			c-0.381,0.4-0.571,1.089-0.571,2.065v2.197h3.604v1.963h-3.604v13.037h-2.695V93.613h-3.018V91.65h3.018v-2.256
			c0-1.816,0.381-3.062,1.143-3.735s1.923-1,3.486-0.981c0.703,0,1.357,0.107,1.963,0.322V87.197z"/>
		<path d="M211.229,110.605h-1.904c-2.266-4.102-3.398-8.438-3.398-13.008c0-4.589,1.132-8.936,3.398-13.037h1.904
			c-1.641,4.61-2.461,8.955-2.461,13.037C208.769,101.582,209.589,105.918,211.229,110.605z"/>
		<path d="M229.804,106.65h-3.428l-4.395-5.918l-4.248,5.918h-3.164l5.977-7.764l-5.508-7.236h3.428l3.955,5.361l3.838-5.361h3.135
			l-5.566,7.236L229.804,106.65z"/>
		<path d="M238.446,97.598c0,4.551-1.124,8.887-3.369,13.008h-1.934c1.641-4.688,2.461-9.023,2.461-13.008
			c0-4.082-0.82-8.427-2.461-13.037h1.934C237.323,88.682,238.446,93.027,238.446,97.598z"/>
	</g>
	<circle style="stroke:#000000;stroke-width:1.1;" cx="419.531" cy="241.661" r="11"/>
	<circle style="stroke:#000000;stroke-width:1.1;" cx="79.536" cy="401.21" r="11"/>
</g>
<g id="Ebene_1">
</g>
</svg>
