<svg xmlns="http://www.w3.org/2000/svg" viewBox="0 0 512 512" width="512" height="512"><g mask="url(#SVGID_1_)" opacity=".4"><path fill="#930" d="M543.06 300.01L182.8 422.85-31.06 211.99 329.2 89.15z"/></g><g fill="none" stroke="#1a171b" stroke-miterlimit="10" stroke-width="13"><path d="M256.62 602.54l-.26-200"/><path stroke-dasharray="25" d="M256.37 382.84l-.19-138"/><path d="M256.18 237.81l-.39-300"/></g><circle cx="379" cy="259.61" r="35" fill="#00f"/><path d="M379 232.606c14.888 0 27 12.112 27 27s-12.112 27.001-27 27.001-27-12.113-27-27.001c0-14.887 12.112-27 27-27m0-13c-22.092 0-40 17.909-40 40s17.908 40.001 40 40.001 40-17.91 40-40.001c0-22.09-17.908-40-40-40z"/></svg>