<svg xmlns="http://www.w3.org/2000/svg" width="512" height="512" viewBox="0 0 512 512"><path fill="none" stroke="#000" stroke-width="13" d="M141.07 287.85l220.44 80.03"/><path fill="none" stroke="red" stroke-width="13" d="M-33.78 333.65l579.56-155.3"/><path fill="none" stroke="#000" stroke-width="13" d="M140.7 287.85l150.6-179.77"/><circle cx="291.3" cy="108.08" r="35" fill="#00f"/><path d="M284.313 81.999c14.379-3.853 29.215 4.712 33.067 19.092 3.854 14.38-4.712 29.216-19.092 33.069-14.381 3.854-29.215-4.712-33.068-19.093-3.852-14.379 4.712-29.214 19.093-33.068m-3.365-12.557c-21.339 5.718-34.001 27.653-28.284 48.99 5.718 21.338 27.651 34.003 48.99 28.286s34.001-27.653 28.284-48.991c-5.717-21.338-27.651-34.003-48.99-28.285z"/><circle cx="140.7" cy="287.85" r="35" fill="#00f"/><path d="M133.71 261.773c14.38-3.854 29.215 4.712 33.068 19.092 3.854 14.38-4.711 29.216-19.091 33.068-14.381 3.854-29.215-4.712-33.068-19.093-3.853-14.378 4.711-29.214 19.091-33.067m-3.364-12.557c-21.338 5.718-34.001 27.653-28.284 48.99 5.717 21.338 27.652 34.003 48.99 28.285 21.339-5.718 34.002-27.652 28.284-48.991-5.718-21.337-27.651-34.002-48.99-28.284z"/><circle cx="361.51" cy="367.88" r="35" fill="#00f"/><path d="M383.63 352.395c8.538 12.193 5.563 29.064-6.631 37.604-12.195 8.539-29.066 5.564-37.604-6.631-8.54-12.195-5.564-29.064 6.631-37.604 12.194-8.539 29.064-5.566 37.604 6.631m10.648-7.457c-12.671-18.096-37.614-22.493-55.709-9.822-18.096 12.67-22.495 37.613-9.824 55.709 12.672 18.097 37.614 22.493 55.71 9.823 18.096-12.671 22.495-37.614 9.823-55.71z"/></svg>