<svg xmlns="http://www.w3.org/2000/svg" width="512" height="512" viewBox="0 0 512 512"><path fill="none" stroke="#000" stroke-width="13" d="M226.73 179.02L543.5 407.63"/><path fill="red" d="M186.502 456.874c-28.347.001-57.585-5.133-83.047-14.956-26.965-10.403-47.925-25.252-60.615-42.941-14.559-20.293-17.792-43.863-9.352-68.162 15.819-45.539 77.935-96.229 184.85-150.945-42.88-41.28-97.453-84.82-157.498-131.812l8.012-10.237c61.836 48.394 117.937 93.183 161.764 135.847a1517.926 1517.926 0 0 1 31.159-15.089c98.649-46.432 193.449-78.606 194.396-78.926l4.16 12.316c-2.036.688-112.89 38.49-219.915 91.412 12.754 12.884 24.323 25.579 34.529 38.132 50.423 62.019 63.292 115.865 40.499 169.459-13.633 32.055-45.68 54.247-90.239 62.488-12.384 2.291-25.449 3.414-38.703 3.414zm41.673-267.365C143.097 232.656 63.197 284.906 45.768 335.08c-20.08 57.806 42.659 87.106 62.366 94.709 35.22 13.588 78.101 17.658 114.707 10.888 40.131-7.423 68.77-26.882 80.64-54.793 20.701-48.675 8.429-98.299-38.623-156.17-10.723-13.189-23.03-26.58-36.683-40.205z"/><circle cx="228.93" cy="442.63" r="35" fill="#00f"/><path d="M251.052 427.146c8.537 12.193 5.563 29.064-6.631 37.604-12.195 8.539-29.066 5.564-37.605-6.631s-5.564-29.064 6.631-37.604 29.064-5.564 37.605 6.631m10.648-7.457c-12.672-18.096-37.615-22.492-55.709-9.822-18.096 12.67-22.496 37.613-9.824 55.709 12.672 18.098 37.613 22.494 55.709 9.824 18.096-12.671 22.496-37.613 9.824-55.711z"/><path fill="#8e8eee" stroke="#000" stroke-linecap="round" stroke-linejoin="round" stroke-width="16.66" d="M452.217 317.886c0 18.516-15.011 33.527-33.527 33.527-18.518 0-33.528-15.012-33.528-33.527 0-18.518 15.011-33.527 33.528-33.527 18.516-.001 33.527 15.009 33.527 33.527z"/><circle cx="418.69" cy="317.88" r="35" fill="#fff"/><circle cx="418.69" cy="317.88" r="35" fill="#00f" opacity=".4"/><path d="M440.808 302.398c8.537 12.193 5.563 29.064-6.631 37.604-12.195 8.539-29.066 5.564-37.605-6.631s-5.564-29.064 6.631-37.604c12.194-8.538 29.064-5.565 37.605 6.631m10.648-7.457c-12.672-18.095-37.615-22.493-55.709-9.821-18.096 12.669-22.496 37.612-9.824 55.708 12.672 18.098 37.613 22.494 55.709 9.824 18.096-12.672 22.496-37.613 9.824-55.711z"/></svg>