<svg xmlns="http://www.w3.org/2000/svg" width="512" height="512" viewBox="0 0 512 512"><path fill="#dcdcdc" stroke="#fff" stroke-miterlimit="10" d="M112.124 405.7l209.033-109.12s-49.519-75.817-169.002-58.011L112.124 405.7z"/><path fill="#666" d="M120.028 400.1c-.815.207-1.645.2-2.318-.038-.96-.34-1.447-1.098-1.268-1.977l32.812-161.004c.27-1.324 1.946-2.512 3.744-2.647 36.983-2.827 72.289 1.262 102.102 11.823 29.813 10.562 53.692 27.442 69.059 48.814.748 1.038.01 2.557-1.647 3.389L121.05 399.719a5.131 5.131 0 0 1-1.022.381zM155.271 239L123.85 393.189l192.932-96.972c-30.536-40.629-90.52-61.878-161.511-57.217z"/><path fill="#666" d="M200.551 332.313c-10.299 2.62-20.245 1.53-26.385-3.245l-.078-.063c-14.687-12.095-10.508-32.597 1.788-44.655 9.144-8.968 21.91-12.849 34.148-10.383l.292.066c5.672 1.445 9.911 3.72 13.223 6.509 2.135-6.439 4.264-9.366 5.984-11.729.932-1.28 1.399-1.923 1.723-3.04l11.718-.334c-.739 2.544-1.958 4.219-3.136 5.839-1.939 2.666-4.837 6.648-7.552 20.854 1.089 2.123 2.064 4.296 3.033 6.454 2.981 6.643 5.797 12.917 11.616 17.105l-9.428 6.979c-4.052-2.915-6.862-6.483-9.108-10.3-4.392 7.785-11.843 13.524-19.314 16.932a50.745 50.745 0 0 1-8.524 3.011zm-16.699-10.033c4.592 3.534 12.99 3.486 20.913-.128 11.235-5.125 16.96-15.004 15.313-26.427l-.068-.475c-3.259-5.811-7.606-10.646-15.846-12.789-9.169-1.792-15.566 2.215-19.326 5.899-9.284 9.108-11.888 24.898-.986 33.92z"/><path fill="none" stroke="#00f" stroke-width="13" d="M128 517L44-16"/><circle cx="112.12" cy="405.7" r="35" fill="#00f"/><path d="M112.124 378.699c14.888 0 27 12.113 27 27 0 14.889-12.112 27.002-27 27.002s-27-12.113-27-27.002c0-14.886 12.112-27 27-27m0-13c-22.092 0-40 17.91-40 40 0 22.092 17.908 40.002 40 40.002s40-17.91 40-40.002c0-22.09-17.908-40-40-40z"/><circle cx="440.33" cy="238.57" r="35" fill="#00f"/><path d="M440.327 211.568c14.888 0 27 12.113 27 27 0 14.889-12.112 27.002-27 27.002s-27-12.113-27-27.002c0-14.887 12.112-27 27-27m0-13c-22.092 0-40 17.91-40 40 0 22.092 17.908 40.002 40 40.002s40-17.91 40-40.002c0-22.09-17.908-40-40-40z"/><circle cx="164.74" cy="163.07" r="35" fill="red"/><path d="M164.742 136.071c14.888 0 27 12.112 27 27s-12.112 27.001-27 27.001-27-12.113-27-27.001 12.112-27 27-27m0-13c-22.092 0-40 17.909-40 40s17.908 40.001 40 40.001 40-17.91 40-40.001-17.909-40-40-40z"/></svg>