<svg xmlns="http://www.w3.org/2000/svg" width="512" height="512" viewBox="0 0 512 512"><linearGradient id="a" x1="193.8" x2="106.27" y1="503.76" y2="7.36" gradientUnits="userSpaceOnUse"><stop offset="0" stop-color="red"/><stop offset="1" stop-color="red" stop-opacity=".2"/></linearGradient><path fill="url(#a)" d="M245.403 492.382c-21.114 0-42.145-4.122-61.744-12.186-27.983-11.511-53.021-31.434-70.504-56.098-16.416-23.158-25.152-48.567-25.263-73.481-.116-25.792 8.685-52.563 27.695-84.25 12.115-20.195 26.253-39.35 39.925-57.874l1.084-1.469c10.586-14.344 21.532-29.176 28.71-45.736 5.388-12.428 10.749-31.181 5.695-49.942-2.739-10.17-8.657-20.259-17.111-29.177-7.199-7.593-16.414-14.626-28.17-21.5C113.256 41.69 74.671 31.741 37.082 32.688c-3.586.106-6.57-2.748-6.66-6.336s2.748-6.57 6.336-6.66a218.064 218.064 0 0 1 115.524 29.756c12.832 7.502 22.986 15.28 31.042 23.778 9.936 10.48 16.931 22.493 20.23 34.741 6.03 22.385-.109 44.164-6.32 58.493-7.767 17.917-19.673 34.051-30.178 48.285l-1.084 1.469c-13.491 18.278-27.441 37.179-39.237 56.841-17.735 29.563-25.947 54.189-25.843 77.504.098 21.909 8.22 45.356 22.869 66.022 16.078 22.684 39.107 41.006 64.844 51.593a149.434 149.434 0 0 0 74.96 10.096 6.5 6.5 0 0 1 1.59 12.902 161.701 161.701 0 0 1-19.752 1.21z"/><path fill="red" d="M645.5 26.3h50v392.23h-50z" opacity=".5"/><path fill="#333" d="M640.5 26.3h12v400h-12zm24 0h12v390.87h-12zm24 0h12v400h-12z"/><path fill="#333" d="M669.606 30.501c10.008 0 18.864 3.27 24.314 8.291 4.113-3.423 6.579-7.765 6.579-12.492 0-11.045-13.433-20-30-20s-30 8.955-30 20c0 4.375 2.112 8.417 5.687 11.709 5.499-4.574 13.944-7.508 23.42-7.508zm.894 389.476c8.92 0 14.542 3.461 16.349 5.704L670.5 469.276l-16.349-43.596c1.807-2.242 7.429-5.703 16.349-5.703m0-13c-16.228 0-29.429 8.593-29.966 19.324h-.034l.029.078c-.005.106-.017.213-.019.32h.139l29.851 79.602 29.851-79.602h.139c-.002-.107-.014-.214-.019-.32l.029-.078h-.034c-.537-10.732-13.738-19.324-29.966-19.324z"/><path fill="red" d="M679.02 483.6l-8.51 22.7-10.32-27.52z"/><path fill="red" d="M445.042 46.023l45.315 21.13L324.601 422.63l-45.315-21.13z" opacity=".5"/><path fill="#333" d="M440.508 43.912l10.875 5.071-169.04 362.52-10.875-5.071zm21.749 10.141l10.876 5.071L307.951 413.37l-10.875-5.071zM484.005 64.2l10.876 5.071-169.04 362.52-10.876-5.071z"/><path fill="#333" d="M465.117 60.025c9.07 4.229 15.715 10.936 18.533 17.789 5.174-1.364 9.244-4.256 11.241-8.541 4.668-10.011-3.722-23.803-18.736-30.805-15.016-7.002-30.974-4.563-35.642 5.447-1.849 3.965-1.644 8.521.205 13.016 6.917-1.822 15.81-.911 24.399 3.094zM289.751 410.612c3.629 0 7.74.985 11.577 2.774 8.084 3.77 11.718 9.282 12.406 12.079l-33.242 32.603 3.604-46.384c1.118-.549 3.028-1.072 5.655-1.072m0-13c-8.271 0-15.207 3.079-18.254 8.842l-.031-.015-.007.084c-.049.094-.104.186-.151.282l.125.059-6.587 84.759 60.695-59.528.125.059c.044-.098.078-.199.119-.298l.06-.059-.031-.015c4.049-9.953-4.284-23.319-18.991-30.178-5.786-2.697-11.71-3.992-17.072-3.992z"/><path fill="red" d="M282.16 474.65l-17.3 16.98 2.27-29.3z"/></svg>