<?xml version="1.0" encoding="utf-8"?>
<!-- Generator: Adobe Illustrator 25.0.0, SVG Export Plug-In . SVG Version: 6.00 Build 0)  -->
<svg version="1.1"
	 id="Layer_1" xmlns:cc="http://creativecommons.org/ns#" xmlns:dc="http://purl.org/dc/elements/1.1/" xmlns:rdf="http://www.w3.org/1999/02/22-rdf-syntax-ns#"
	 xmlns="http://www.w3.org/2000/svg" xmlns:xlink="http://www.w3.org/1999/xlink" x="0px" y="0px" viewBox="0 0 512 512"
	 style="enable-background:new 0 0 512 512;" xml:space="preserve">
<g>
	<path d="M409.8,198.2c-2-0.6-11-1.3-19.9-1.7l-16.3-0.7v46.7l15.4-0.7c9.3-0.4,17.5-1.3,20.8-2.3c7-2,13.3-8.1,15-14.4
		C428,213.3,421.4,201.3,409.8,198.2z"/>
	<path d="M485.7,0H26.3C11.8,0,0,11.8,0,26.3v459.4C0,500.2,11.8,512,26.3,512h459.4c14.5,0,26.3-11.8,26.3-26.3V26.3
		C512,11.8,500.2,0,485.7,0z M261.7,311.7c-8.1-0.1-14.7-3-20.8-9.6l-4.9-5.2l-26.7,3.8c-14.7,2.1-26.9,4-27.2,4.3
		c-1,1,4.4,14.2,8.7,21.2c8,12.8,17.5,20.9,31.5,26.8c3.6,1.5,6.7,2.9,6.9,3.1s-16.2,0.4-36.4,0.4H156v-74.2H88.8v74.2H26.6V256.2
		V155.9h62.2v86.2h67.1v-86.2h50.2l-0.5,2.3c-1,4.4-19.4,85.7-21.6,95.8c-1.2,5.6-2,10.5-1.7,10.8s12.6,2.2,27.3,4.2l26.8,3.7
		l4.1-4.8c11.5-13.4,31-13.7,42.3-0.4C297.6,284.8,284.7,311.8,261.7,311.7z M483.8,237.2c-5.8,21.2-21.1,36.1-42.9,41.7
		c-8,2-27,3.4-49.9,3.4h-17.3v74.2h-36.3c-20.9,0-35.9-0.4-35.4-0.9s3.3-1.7,6.1-2.6c24-7.7,42.5-37.5,42.5-68.3
		c0-17.8-5.4-31.6-17.1-43.9c-8-8.4-16.4-13.7-27.6-17.4c-7.4-2.4-9.5-2.6-25.1-2.7c-15.9-0.1-17.6,0.1-25.8,2.7
		c-4.9,1.5-9.5,3.1-10.3,3.4c-1,0.4-1.4,0.1-1.1-0.8c0.2-0.8,1.9-7.6,3.6-15.2l3.2-13.8h91.2v-41.3l46.9,0.5
		c43.7,0.4,47.4,0.6,54.9,2.6c20.8,5.5,33,16.6,39.3,35.7c2.3,7.1,2.6,9.8,2.7,22.1C485.5,227.1,485,232.3,483.8,237.2z"/>
</g>
</svg>
