<svg xmlns="http://www.w3.org/2000/svg" width="512" height="512" viewBox="0 0 512 512"><path fill="none" stroke="#000" stroke-width="13" d="M74.314 226.099C88.621 138.818 164.519 72.215 256 72.215c101.682 0 184.11 82.283 184.11 183.785 0 82.378-54.294 152.097-129.109 175.444"/><circle cx="406.33" cy="149.45" r="35" fill="#00f"/><path d="M428.446 133.961c8.537 12.193 5.563 29.064-6.631 37.604-12.195 8.539-29.066 5.564-37.605-6.631s-5.564-29.064 6.631-37.604 29.064-5.564 37.605 6.631m10.649-7.457c-12.672-18.096-37.615-22.492-55.709-9.822-18.096 12.67-22.496 37.613-9.824 55.709 12.672 18.098 37.613 22.494 55.709 9.824 18.095-12.672 22.496-37.613 9.824-55.711z"/><circle cx="74.33" cy="224.45" r="35" fill="#00f"/><path d="M96.446 208.967c8.537 12.193 5.563 29.064-6.631 37.604-12.195 8.539-29.066 5.564-37.605-6.631s-5.564-29.064 6.631-37.604 29.064-5.564 37.605 6.631m10.649-7.457c-12.672-18.096-37.615-22.492-55.709-9.822-18.096 12.67-22.496 37.613-9.824 55.709 12.672 18.097 37.613 22.494 55.709 9.824 18.095-12.672 22.496-37.613 9.824-55.711z"/><circle cx="311" cy="431.45" r="35" fill="#00f"/><path d="M333.122 415.967c8.537 12.193 5.563 29.064-6.631 37.604-12.195 8.539-29.066 5.564-37.605-6.631s-5.564-29.064 6.631-37.604 29.064-5.565 37.605 6.631m10.649-7.457c-12.672-18.096-37.615-22.492-55.709-9.822-18.096 12.67-22.496 37.613-9.824 55.709 12.672 18.098 37.613 22.494 55.709 9.824 18.095-12.672 22.495-37.614 9.824-55.711z"/></svg>