<svg xmlns="http://www.w3.org/2000/svg" width="512" height="512" viewBox="0 0 512 512"><path d="M338.031 88.422c0 5.994-1.825 11.005-5.469 15.039-3.65 4.041-8.466 6.055-14.453 6.055-4.432 0-9.766-2.539-16.016-7.617s-11.719-7.617-16.406-7.617-7.422 3.516-8.203 10.547l-1.172 57.422c-3.65 110.419-6.122 171.229-7.422 182.422-2.869 32.813-9.314 57.678-19.336 74.609-10.028 16.925-25.849 25.391-47.461 25.391-18.75 0-28.125-6.775-28.125-20.313 0-6.513 1.886-11.854 5.664-16.016 3.772-4.169 8.789-6.122 15.039-5.859 3.125 0 8.526 2.539 16.211 7.617 7.678 5.078 12.952 7.617 15.82 7.617 4.425 0 7.031-3.516 7.813-10.547l3.125-60.156c4.688-114.319 7.55-176.819 8.594-187.5 1.3-11.719 2.667-21.612 4.102-29.688 1.428-8.069 3.644-16.339 6.641-24.805 2.99-8.459 6.701-15.234 11.133-20.313 4.425-5.078 10.217-9.241 17.383-12.5 7.159-3.253 15.558-4.883 25.195-4.883 8.594 0 15.295 1.892 20.117 5.664 4.815 3.78 7.226 8.925 7.226 15.431z"/></svg>