<?xml version="1.0" encoding="iso-8859-1"?>
<!-- Generator: Adobe Illustrator 15.1.0, SVG Export Plug-In . SVG Version: 6.00 Build 0)  -->
<!DOCTYPE svg PUBLIC "-//W3C//DTD SVG 1.1//EN" "http://www.w3.org/Graphics/SVG/1.1/DTD/svg11.dtd">
<svg version="1.1" xmlns="http://www.w3.org/2000/svg" xmlns:xlink="http://www.w3.org/1999/xlink" x="0px" y="0px" width="512px"
	 height="512px" viewBox="0 0 512 512" style="enable-background:new 0 0 512 512;" xml:space="preserve">
<g id="mode_x5F_showhideobject">
	<circle style="fill:#6666FF;" cx="164" cy="165.435" r="85"/>
	<g>
		<path style="fill:#FFFFFF;" d="M358,436.694c-43.285,0-78.5-35.215-78.5-78.5s35.215-78.5,78.5-78.5s78.5,35.215,78.5,78.5
			S401.285,436.694,358,436.694z"/>
		<path style="fill:#999999;" d="M358,286.194c39.701,0,72,32.299,72,72s-32.299,72-72,72s-72-32.299-72-72
			S318.299,286.194,358,286.194 M358,273.194c-46.944,0-85,38.056-85,85s38.056,85,85,85s85-38.056,85-85
			S404.944,273.194,358,273.194L358,273.194z"/>
	</g>
</g>
<g id="Ebene_1">
</g>
</svg>
