<?xml version="1.0" encoding="iso-8859-1"?>
<!-- Generator: Adobe Illustrator 15.1.0, SVG Export Plug-In . SVG Version: 6.00 Build 0)  -->
<!DOCTYPE svg PUBLIC "-//W3C//DTD SVG 1.1//EN" "http://www.w3.org/Graphics/SVG/1.1/DTD/svg11.dtd">
<svg version="1.1" xmlns="http://www.w3.org/2000/svg" xmlns:xlink="http://www.w3.org/1999/xlink" x="0px" y="0px" width="512px"
	 height="512px" viewBox="0 0 512 512" style="enable-background:new 0 0 512 512;" xml:space="preserve">
<g id="mode_x5F_angularbisector">
	<line style="fill:none;stroke:#000000;stroke-width:13;" x1="141.07" y1="287.847" x2="361.512" y2="367.881"/>
	<line style="fill:none;stroke:#FF0000;stroke-width:13;" x1="-33.778" y1="333.646" x2="545.777" y2="178.354"/>
	<g>
		<line style="fill:none;stroke:#000000;stroke-width:13;" x1="140.698" y1="287.854" x2="291.302" y2="108.08"/>
		<g>
			<circle style="fill:#0000FF;" cx="291.301" cy="108.079" r="35"/>
			<path d="M284.313,81.999c14.379-3.853,29.215,4.712,33.067,19.092c3.854,14.38-4.712,29.216-19.092,33.069
				c-14.381,3.854-29.215-4.712-33.068-19.093C261.368,100.688,269.932,85.853,284.313,81.999 M280.948,69.442
				c-21.339,5.718-34.001,27.653-28.284,48.99c5.718,21.338,27.651,34.003,48.99,28.286s34.001-27.653,28.284-48.991
				C324.221,76.389,302.287,63.724,280.948,69.442L280.948,69.442z"/>
		</g>
		<g>
			<circle style="fill:#0000FF;" cx="140.698" cy="287.853" r="35"/>
			<path d="M133.71,261.773c14.38-3.854,29.215,4.712,33.068,19.092c3.854,14.38-4.711,29.216-19.091,33.068
				c-14.381,3.854-29.215-4.712-33.068-19.093C110.766,280.462,119.33,265.626,133.71,261.773 M130.346,249.216
				c-21.338,5.718-34.001,27.653-28.284,48.99c5.717,21.338,27.652,34.003,48.99,28.285c21.339-5.718,34.002-27.652,28.284-48.991
				C173.618,256.163,151.685,243.498,130.346,249.216L130.346,249.216z"/>
		</g>
	</g>
	<g>
		<circle style="fill:#0000FF;" cx="361.513" cy="367.881" r="35"/>
		<path d="M383.63,352.395c8.538,12.193,5.563,29.064-6.631,37.604c-12.195,8.539-29.066,5.564-37.604-6.631
			c-8.54-12.195-5.564-29.064,6.631-37.604C358.22,337.225,375.09,340.198,383.63,352.395 M394.278,344.938
			c-12.671-18.096-37.614-22.493-55.709-9.822c-18.096,12.67-22.495,37.613-9.824,55.709c12.672,18.097,37.614,22.493,55.71,9.823
			C402.551,387.977,406.95,363.034,394.278,344.938L394.278,344.938z"/>
	</g>
</g>
<g id="Ebene_1">
</g>
</svg>
