<?xml version="1.0" encoding="utf-8"?>
<!-- Generator: Adobe Illustrator 24.3.0, SVG Export Plug-In . SVG Version: 6.00 Build 0)  -->
<svg version="1.1"
	 id="Layer_1" xmlns:cc="http://creativecommons.org/ns#" xmlns:dc="http://purl.org/dc/elements/1.1/" xmlns:rdf="http://www.w3.org/1999/02/22-rdf-syntax-ns#"
	 xmlns="http://www.w3.org/2000/svg" xmlns:xlink="http://www.w3.org/1999/xlink" x="0px" y="0px" viewBox="0 0 512 512"
	 style="enable-background:new 0 0 512 512;" xml:space="preserve">
<g>
	<path d="M240.1,267.8l-4.1,4.8l-26.8-3.7c-14.7-2-27-3.9-27.3-4.2c-0.3-0.3,0.5-5.2,1.7-10.8c2.2-10.1,20.6-91.4,21.6-95.8l0.5-2.3
		h-50.2V242H88.4v-86.2H26.2v100.3v100.3h62.2v-74.2h67.2v74.2h36.8c20.2,0,36.6-0.2,36.4-0.4c-0.2-0.2-3.3-1.6-6.9-3.1
		c-14-5.9-23.5-14-31.5-26.8c-4.3-7-9.7-20.2-8.7-21.2c0.3-0.3,12.5-2.2,27.2-4.3l26.7-3.8l4.9,5.2c6.1,6.6,12.7,9.5,20.8,9.6
		c23,0.1,35.9-26.9,21.1-44.2C271.1,254.1,251.6,254.4,240.1,267.8z"/>
	<path d="M485,216.5c-0.1-12.3-0.4-15-2.7-22.1c-6.3-19.1-18.5-30.2-39.3-35.7c-7.5-2-11.2-2.2-54.9-2.6l-46.9-0.5v41.3H250
		l-3.2,13.8c-1.7,7.6-3.4,14.4-3.6,15.2c-0.3,0.9,0.1,1.2,1.1,0.8c0.8-0.3,5.4-1.9,10.3-3.4c8.2-2.6,9.9-2.8,25.8-2.7
		c15.6,0.1,17.7,0.3,25.1,2.7c11.2,3.7,19.6,9,27.6,17.4c11.7,12.3,17.1,26.1,17.1,43.9c0,30.8-18.5,60.6-42.5,68.3
		c-2.8,0.9-5.6,2.1-6.1,2.6l0,0c-0.5,0.5,14.5,0.9,35.4,0.9h36.3v-74.2l17.3,0c22.9,0,41.9-1.4,49.9-3.4
		c21.8-5.6,37.1-20.5,42.9-41.7C484.6,232.2,485.1,227,485,216.5z M424.4,225c-1.7,6.3-8,12.4-15,14.4l0,0c-3.3,1-11.5,1.9-20.8,2.3
		l-15.4,0.7v-46.7l16.3,0.7c8.9,0.4,17.9,1.1,19.9,1.7C421,201.2,427.6,213.2,424.4,225z"/>
</g>
</svg>
