<svg xmlns="http://www.w3.org/2000/svg" width="512" height="512" viewBox="0 0 512 512"><path fill="none" stroke="#1a171b" stroke-miterlimit="10" stroke-width="13" d="M256 256l153-124"/><circle cx="256" cy="256" r="35" fill="#00f"/><path d="M256 229c14.888 0 27 12.111 27 27 0 14.887-12.112 27-27 27s-27-12.113-27-27c0-14.889 12.112-27 27-27m0-13c-22.092 0-40 17.908-40 40 0 22.09 17.908 40 40 40s40-17.91 40-40c0-22.092-17.908-40-40-40z"/><circle cx="256" cy="256" r="200" fill="#930" opacity=".2"/><radialGradient id="a" cx="256" cy="256" r="200" fx="157.45" fy="104.38" gradientUnits="userSpaceOnUse"><stop offset="0" stop-color="#fff" stop-opacity="0"/><stop offset=".07" stop-color="#fcf8f7" stop-opacity=".09"/><stop offset=".18" stop-color="#f3e7e0" stop-opacity=".22"/><stop offset=".32" stop-color="#e4c9bc" stop-opacity=".39"/><stop offset=".47" stop-color="#d0a189" stop-opacity=".58"/><stop offset=".65" stop-color="#b66d48" stop-opacity=".79"/><stop offset=".82" stop-color="#930"/></radialGradient><circle cx="256" cy="256" r="200" fill="url(#a)" opacity=".3"/><circle cx="256" cy="256" r="200" fill="none" stroke="#930" stroke-miterlimit="10" stroke-width="13"/></svg>