<svg xmlns="http://www.w3.org/2000/svg" width="512" height="512" viewBox="0 0 512 512"><path fill="none" stroke="#000" stroke-width="13" d="M68.33 441.2L423.7 127.22"/><path d="M340.08 143.73l150.56-78.66-95.83 140.26zM171.92 407.67L21.36 486.33l95.83-140.26zM96.566 128.272c0 8.335-2.554 15.261-7.656 20.781-5.105 5.522-13.179 8.281-24.219 8.281-23.647 0-35.469-14.009-35.469-42.031 0-14.165 2.708-24.712 8.125-31.641 5.415-6.927 14.009-10.391 25.781-10.391 11.665 0 20.259 2.476 25.781 7.422 5.52 4.948 7.813 11.538 6.875 19.766H81.566c.728-3.958.129-7.212-1.797-9.766-1.929-2.552-4.402-4.297-7.422-5.234-3.022-.938-6.46-1.406-10.313-1.406-5.625 0-10.105 2.5-13.438 7.5-3.335 5-5 12.917-5 23.75 0 11.042 1.77 19.011 5.313 23.906 3.54 4.897 8.853 7.344 15.938 7.344 6.145 0 10.598-1.899 13.359-5.703 2.759-3.802 4.141-7.993 4.141-12.578h14.219zm140.157 27.032h-14.375v-51.719c0-6.353-1.512-11.302-4.531-14.844-3.022-3.54-7.554-5.313-13.594-5.313-5.522 0-10.313 2.188-14.375 6.563s-6.094 8.906-6.094 13.594v51.719h-14.375v-51.719c0-5.415-1.641-10.13-4.922-14.141-3.281-4.009-7.578-6.016-12.891-6.016-5.835 0-10.859 2.214-15.078 6.641-4.219 4.429-6.328 8.933-6.328 13.516v51.719h-14.375v-80h14.375v11.094c6.353-8.75 14.27-13.125 23.75-13.125 7.395 0 13.02 1.094 16.875 3.281 3.853 2.188 7.29 5.835 10.313 10.938 6.77-9.478 15.415-14.219 25.938-14.219 19.79 0 29.688 10.104 29.688 30.313v51.718z"/></svg>