<?xml version="1.0" encoding="UTF-8"?>
<svg xmlns="http://www.w3.org/2000/svg" xmlns:xlink="http://www.w3.org/1999/xlink" viewBox="0 0 26 26" version="1.1" width="32px" height="32px">
<g id="surface1">
<path style=" " d="M 21.625 0.1875 C 21.4375 0.179688 21.246094 0.246094 21.09375 0.375 L 6.375 13.0625 L 12.9375 19.65625 L 25.65625 4.90625 C 25.914063 4.601563 25.898438 4.148438 25.625 3.875 L 22.15625 0.40625 C 22.019531 0.269531 21.8125 0.195313 21.625 0.1875 Z M 5.65625 13.8125 L 3.4375 16 C 3.035156 16.402344 3.273438 16.914063 3.4375 17.46875 C 3.699219 18.34375 4.1875 19.625 2.71875 21.09375 L 4.90625 23.28125 C 6.347656 21.839844 7.988281 22.421875 8.5625 22.5625 C 9.117188 22.699219 9.628906 22.964844 10.03125 22.5625 L 12.21875 20.375 Z M 2 21.84375 L 0.0625 23.75 L 3.4375 24.75 L 4.1875 24.03125 Z "/>
</g>
</svg>
