<svg xmlns="http://www.w3.org/2000/svg" viewBox="0 0 24 24"><title>geogebra_black</title><g id="mode_shape_polygon"><path d="M22,9.51a2.35,2.35,0,0,0-2.35-2.35l-.28,0a7.22,7.22,0,0,0-5.74-3,2.34,2.34,0,0,0-4.45.88A10.66,10.66,0,0,0,8,5.71,10.28,10.28,0,0,0,4.94,8.57,2.34,2.34,0,0,0,3.36,13a6.62,6.62,0,0,0,.94,3.83A6.42,6.42,0,0,0,5.21,18a2.34,2.34,0,0,0,4.2,2,9.64,9.64,0,0,0,5.34-.84,2.34,2.34,0,0,0,3.7-2.83,8.79,8.79,0,0,0,2-4.63A2.35,2.35,0,0,0,22,9.51ZM9.74,18.42a2.34,2.34,0,0,0-3.5-1.69,4.91,4.91,0,0,1-.62-.8,5.07,5.07,0,0,1-.73-2.81A2.34,2.34,0,0,0,6.2,9.41,8.66,8.66,0,0,1,8.77,7a9,9,0,0,1,.83-.45,2.34,2.34,0,0,0,4.21-.79A5.6,5.6,0,0,1,17.89,8a2.34,2.34,0,0,0,.91,3.74,7.18,7.18,0,0,1-1.63,3.6,2.34,2.34,0,0,0-3.09,2.23s0,.1,0,.15A8,8,0,0,1,9.74,18.42Z"/></g></svg>