<svg xmlns="http://www.w3.org/2000/svg" width="512" height="512" viewBox="0 0 512 512"><path d="M407.07 360.434l-62.21-62.23c-5.476-5.464-15.385-4.944-25.317.229l-27.146-27.129c35.36-46.202 32.025-112.528-10.243-154.801-46.023-46.004-120.631-46.004-166.659 0-45.999 46.028-45.999 120.636 0 166.662 42.283 42.268 108.609 45.604 154.808 10.233l27.14 27.125c-5.174 9.953-5.705 19.853-.241 25.326l62.222 62.23c7.861 7.852 24.927 3.537 38.059-9.629 13.143-13.129 17.457-30.165 9.587-38.016zm-274.045-94.785c-36.33-36.362-36.33-95.292 0-131.621 36.36-36.36 95.234-36.329 131.612 0 36.33 36.33 36.33 95.239 0 131.621-36.378 36.33-95.283 36.33-131.612 0z"/><path fill="none" stroke="#000" stroke-width="13" d="M128.14 199.39h141.43"/></svg>