<svg xmlns="http://www.w3.org/2000/svg" xml:space="preserve" id="svg4326" x="0" y="0" style="enable-background:new 0 0 120 120" version="1.1" viewBox="0 0 120 120"><style>.st0{fill:none;stroke:#000;stroke-width:3;stroke-miterlimit:10}</style><path id="path4338" d="M36 68.5 18.4 90c-.7.8-1.1 1.4-1.1 2.4 0 1.6 1.1 2.9 2.6 3.1h10.5s2 0 2.9-.6 2.5-2.6 2.5-2.6l10-12.4"/><path id="path4340" d="m101 24.8-37.7 34 8.6 9.5s25.5-35.4 30.9-42.7c.4-.6-.7-1.9-1.8-.8" class="st0"/><path id="path4344" d="M50.5 85.9c1.8 2.1 3.1 2.9 4.5 2.8 1.9-.1 2.8-.7 4.5-2.5 1.8-1.8 4.7-6.3 4.7-6.3s-29.7-35.2-31-36.4c-.7-.7-2.9-.6-2.9-.6H19.8c-1.5.3-2.6 1.6-2.6 3.1 0 1 .5 1.6 1.1 2.4.1.1 23.4 26.8 32.2 37.5z" class="st0"/><path id="path4348" d="M91.7 90S68.3 61.5 59.6 50.8c-1.8-2.2-3.1-2.9-4.5-2.8-1.9 0-2.9.5-4.5 2.5l-5.4 7 28.6 34.9c.8.9 1.6 2 2.5 2.6s2.9.6 2.9.6h11.1c1.5-.3 2.6-1.6 2.6-3.1-.1-1.1-.5-1.7-1.2-2.5"/></svg>