<?xml version="1.0" encoding="iso-8859-1"?>
<!-- Generator: Adobe Illustrator 15.1.0, SVG Export Plug-In . SVG Version: 6.00 Build 0)  -->
<!DOCTYPE svg PUBLIC "-//W3C//DTD SVG 1.1//EN" "http://www.w3.org/Graphics/SVG/1.1/DTD/svg11.dtd">
<svg version="1.1" xmlns="http://www.w3.org/2000/svg" xmlns:xlink="http://www.w3.org/1999/xlink" x="0px" y="0px" width="512px"
	 height="512px" viewBox="0 0 512 512" style="enable-background:new 0 0 512 512;" xml:space="preserve">
<g id="mode_x5F_circumcirclearc3">
	
		<path id="path2984_6_" style="fill:none;stroke:#000000;stroke-width:13;" d="
		M74.314,226.099C88.621,138.818,164.519,72.215,256,72.215c101.682,0,184.11,82.283,184.11,183.785
		c0,82.378-54.294,152.097-129.109,175.444"/>
	<g>
		<circle style="fill:#0000FF;" cx="406.328" cy="149.447" r="35"/>
		<path d="M428.446,133.961c8.537,12.193,5.563,29.064-6.631,37.604c-12.195,8.539-29.066,5.564-37.605-6.631
			s-5.564-29.064,6.631-37.604S419.905,121.766,428.446,133.961 M439.095,126.504c-12.672-18.096-37.615-22.492-55.709-9.822
			c-18.096,12.67-22.496,37.613-9.824,55.709c12.672,18.098,37.613,22.494,55.709,9.824
			C447.366,169.543,451.767,144.602,439.095,126.504L439.095,126.504z"/>
	</g>
	<g>
		<circle style="fill:#0000FF;" cx="74.328" cy="224.454" r="35"/>
		<path d="M96.446,208.967c8.537,12.193,5.563,29.064-6.631,37.604c-12.195,8.539-29.066,5.564-37.605-6.631
			s-5.564-29.064,6.631-37.604S87.905,196.772,96.446,208.967 M107.095,201.51c-12.672-18.096-37.615-22.492-55.709-9.822
			c-18.096,12.67-22.496,37.613-9.824,55.709c12.672,18.097,37.613,22.494,55.709,9.824
			C115.366,244.549,119.767,219.608,107.095,201.51L107.095,201.51z"/>
	</g>
	<g>
		<circle style="fill:#0000FF;" cx="311.004" cy="431.453" r="35"/>
		<path d="M333.122,415.967c8.537,12.193,5.563,29.064-6.631,37.604c-12.195,8.539-29.066,5.564-37.605-6.631
			s-5.564-29.064,6.631-37.604S324.581,403.771,333.122,415.967 M343.771,408.51c-12.672-18.096-37.615-22.492-55.709-9.822
			c-18.096,12.67-22.496,37.613-9.824,55.709c12.672,18.098,37.613,22.494,55.709,9.824
			C352.042,451.549,356.442,426.607,343.771,408.51L343.771,408.51z"/>
	</g>
</g>
<g id="Ebene_1">
</g>
</svg>
