<svg xmlns="http://www.w3.org/2000/svg" width="512" height="512" viewBox="0 0 512 512"><path fill="#090" d="M102.305 366.824c-10.842 0-19.593-1.1-26.257-3.297-6.667-2.197-11.755-7.178-15.271-14.941-2.345-5.42-3.811-12.051-4.395-19.885-.587-7.838-.845-15.018-.769-21.533.072-6.516-.33-12.926-1.208-19.227-.879-6.296-3.406-11.68-7.581-16.149-4.175-4.467-10.293-7.505-18.347-9.118v-16.48c8.202-1.902 14.392-5.126 18.567-9.668 4.175-4.539 6.664-9.96 7.471-16.26a129.236 129.236 0 0 0 .989-19.226c-.147-6.516.034-13.623.549-21.313.512-7.69 2.087-14.245 4.724-19.666 3.808-7.763 9.043-12.744 15.71-14.941 6.664-2.197 15.271-3.296 25.818-3.296v16.699c-6.887 0-12.342 1.174-16.37 3.516-4.031 2.345-6.667 5.421-7.91 9.229-1.246 3.811-2.053 8.096-2.417 12.854a79.866 79.866 0 0 0 .22 14.502c.512 4.91.474 9.634-.11 14.172-1.026 10.986-2.894 19.116-5.603 24.39-2.712 5.273-7.217 11.062-13.513 17.358 6.296 6.152 10.801 11.865 13.513 17.138 2.709 5.273 4.577 13.332 5.603 24.17.583 4.543.622 9.267.11 14.173a80.982 80.982 0 0 0-.22 14.612c.364 4.834 1.171 9.118 2.417 12.854 1.243 3.735 3.879 6.773 7.91 9.119 4.027 2.341 9.482 3.516 16.37 3.516v16.698zm79.052-31.053h-20.874V200.419c-8.35 5.86-20.071 12.085-35.156 18.677v-18.677c6.444-3.955 12.487-8.274 18.127-12.964 5.637-4.687 9.63-8.24 11.975-10.657 2.341-2.417 3.516-3.55 3.516-3.406h22.412v162.379zm79.434-27.647l-24.609 56.25h-15.82l13.623-56.25h26.806zm127.607 27.686H290.4v-20.875a63696.18 63696.18 0 0 0 45.373-50.646c11.207-12.524 19.041-22.192 23.512-29.003 4.467-6.812 6.701-12.778 6.701-17.908 0-9.812-1.904-17.029-5.713-21.643-3.811-4.614-10.182-6.921-19.115-6.921-7.91 0-13.844 2.273-17.799 6.812-3.955 4.542-6.52 11.793-7.689 21.753h-22.852c2.342-31.493 18.457-47.241 48.34-47.241 14.793 0 26.367 4.504 34.717 13.513s12.523 19.226 12.523 30.652c0 3.516-.295 6.739-.879 9.668-.586 2.932-1.537 6.042-2.855 9.338s-3.115 6.702-5.385 10.217c-2.271 3.516-5.129 7.508-8.568 11.975-3.443 4.471-7.508 9.338-12.195 14.611a11184.807 11184.807 0 0 0-16.369 18.457c-6.229 7.031-13.293 14.799-21.203 23.291-2.492 2.785-4.395 4.91-5.713 6.373h73.168v17.577zm94.881-73.357c-8.205 1.906-14.393 5.13-18.568 9.668-4.174 4.543-6.666 9.964-7.471 16.26a128.37 128.37 0 0 0-.988 19.227c.145 6.516-.074 13.623-.658 21.313-.588 7.69-2.197 14.245-4.834 19.665-3.811 7.764-9.01 12.744-15.602 14.941s-15.16 3.297-25.707 3.297v-16.699c6.883 0 12.338-1.175 16.369-3.516 4.027-2.346 6.664-5.422 7.91-9.229 1.242-3.812 2.049-8.096 2.416-12.854.365-4.762.293-9.634-.219-14.612-.516-4.978-.477-9.74.109-14.281 1.023-10.84 2.891-18.896 5.604-24.17 2.709-5.273 7.213-11.059 13.514-17.359-6.301-6.152-10.805-11.899-13.514-17.249-2.713-5.346-4.58-13.438-5.604-24.28-.586-4.539-.625-9.263-.109-14.172a80.32 80.32 0 0 0 .219-14.502c-.367-4.758-1.174-9.009-2.416-12.744-1.246-3.735-3.883-6.774-7.91-9.119-4.031-2.341-9.486-3.516-16.369-3.516v-16.699c10.838 0 19.59 1.099 26.256 3.296 6.664 2.197 11.682 7.179 15.053 14.941 2.488 5.421 4.027 12.051 4.613 19.885.584 7.838.805 15.017.66 21.533-.148 6.52.254 12.93 1.207 19.226.951 6.3 3.516 11.683 7.691 16.15 4.174 4.47 10.289 7.508 18.348 9.119v16.48z"/></svg>