<svg xmlns="http://www.w3.org/2000/svg" width="512" height="512" viewBox="0 0 512 512"><circle cx="115.85" cy="373.52" r="35" fill="#00f"/><path d="M115.852 346.521c14.888 0 27 12.112 27 27s-12.112 27.001-27 27.001-27-12.113-27-27.001 12.112-27 27-27m0-13c-22.092 0-40 17.909-40 40s17.908 40.001 40 40.001 40-17.91 40-40.001-17.908-40-40-40z"/><circle cx="256" cy="256" r="35" fill="#00f"/><path d="M256 228.999c14.888 0 27 12.112 27 27S270.889 283 256 283c-14.888 0-27-12.113-27-27.001s12.113-27 27-27m0-13c-22.092 0-40 17.909-40 40S233.909 296 256 296s40-17.91 40-40.001-17.908-40-40-40z"/><circle cx="390.22" cy="143.29" r="35" fill="red"/><path d="M390.217 116.288c14.888 0 27 12.112 27 27s-12.112 27.001-27 27.001-27-12.113-27-27.001c0-14.888 12.112-27 27-27m0-13c-22.092 0-40 17.909-40 40s17.908 40.001 40 40.001 40-17.91 40-40.001c0-22.091-17.908-40-40-40z"/></svg>