<svg xmlns="http://www.w3.org/2000/svg" width="512" height="512" viewBox="0 0 512 512"><path fill="none" stroke="#999" stroke-miterlimit="10" stroke-width="13" d="M491.5 368.666c0 12.887-13.083 27.334-29.221 27.334H370.72c-16.138 0-29.221-14.447-29.221-27.334V143.333c0-12.886 13.083-27.333 29.221-27.333h91.559c16.138 0 29.221 14.447 29.221 27.333v225.333z"/><path d="M143.793 326.904h-17.969c-1.435-7.55-2.216-12.433-2.344-14.648-3.388 4.037-6.122 7.064-8.203 9.082-2.084 2.021-5.078 3.876-8.984 5.566s-8.334 2.539-13.281 2.539c-9.506 0-18.262-2.569-26.27-7.715-8.008-5.143-12.012-12.207-12.012-21.191 0-5.859 1.138-11.002 3.418-15.43 2.276-4.425 5.206-7.975 8.789-10.645 3.58-2.667 7.843-4.85 12.793-6.543 4.947-1.69 9.766-2.832 14.453-3.418s9.634-.879 14.844-.879c1.563 0 3.839.067 6.836.195 2.994.131 5.273.195 6.836.195 1.69-7.682.714-13.996-2.93-18.946-3.647-4.947-9.833-7.422-18.555-7.422-6.122 0-11.396 1.303-15.82 3.906-4.428 2.606-6.641 6.708-6.641 12.305H60.199c0-19.659 13.409-29.492 40.234-29.492 21.222 0 34.048 5.664 38.477 16.992 1.563 3.647 2.344 14.194 2.344 31.641v17.383c0 19.405.845 31.578 2.539 36.525zm-21.289-49.218c-6.641-.391-10.092-.586-10.352-.586-3.778 0-7.617.293-11.523.879s-8.075 1.563-12.5 2.93c-4.428 1.367-8.008 3.549-10.742 6.543-2.734 2.997-4.102 6.576-4.102 10.742 0 5.469 1.953 9.833 5.859 13.086 3.906 3.256 8.594 4.883 14.063 4.883 11.456 0 19.205-3.351 23.242-10.059 4.034-6.706 6.055-16.178 6.055-28.418zm192.773-22.853H195.355v-12.305h119.922v12.305zm0 36.524H195.355v-12.5h119.922v12.5zm115.821 35.547h-18.555V206.591c-7.422 5.209-17.841 10.742-31.25 16.602v-16.602a138.198 138.198 0 0 0 16.113-11.523c5.011-4.166 8.561-7.324 10.645-9.473 2.081-2.148 3.125-3.155 3.125-3.027h19.922v144.336z"/></svg>