<?xml version="1.0" encoding="iso-8859-1"?>
<!-- Generator: Adobe Illustrator 15.1.0, SVG Export Plug-In . SVG Version: 6.00 Build 0)  -->
<!DOCTYPE svg PUBLIC "-//W3C//DTD SVG 1.1//EN" "http://www.w3.org/Graphics/SVG/1.1/DTD/svg11.dtd">
<svg version="1.1" xmlns="http://www.w3.org/2000/svg" xmlns:xlink="http://www.w3.org/1999/xlink" x="0px" y="0px" width="512px"
	 height="512px" viewBox="0 0 512 512" style="enable-background:new 0 0 512 512;" xml:space="preserve">
<g id="mode_x5F_vectorfrompoint">
	<g>
		<line style="fill:none;stroke:#FF0000;stroke-width:13;" x1="110" y1="297.301" x2="324.67" y2="147.871"/>
		<polygon style="fill:#FF0000;" points="223.372,168.741 382,107.964 270.635,236.24 		"/>
		<line style="fill:none;stroke:#000000;stroke-width:13;" x1="110" y1="446.637" x2="308.688" y2="308.333"/>
		<polygon points="223.372,318.076 382,257.301 270.635,385.576 		"/>
		<g>
			<circle style="fill:#FF0000;" cx="402" cy="94.964" r="35"/>
			<path d="M402,67.964c14.887,0,27,12.113,27,27c0,14.888-12.113,27.001-27,27.001c-14.889,0-27-12.113-27-27.001
				C375,80.077,387.111,67.964,402,67.964 M402,54.964c-22.092,0-40,17.91-40,40c0,22.091,17.908,40.001,40,40.001
				s40-17.91,40-40.001C442,72.874,424.092,54.964,402,54.964L402,54.964z"/>
		</g>
		<g>
			<circle style="fill:#0000FF;" cx="110" cy="297.301" r="35"/>
			<path d="M110,270.301c14.888,0,27,12.113,27,27c0,14.888-12.112,27.001-27,27.001s-27-12.113-27-27.001
				C83,282.414,95.112,270.301,110,270.301 M110,257.301c-22.091,0-40,17.91-40,40c0,22.091,17.909,40.001,40,40.001
				c22.092,0,40-17.91,40-40.001C150,275.211,132.092,257.301,110,257.301L110,257.301z"/>
		</g>
	</g>
</g>
<g id="Ebene_1">
</g>
</svg>
