<svg xmlns="http://www.w3.org/2000/svg" width="512" height="512" viewBox="0 0 512 512"><path fill="none" d="M589 0h378v481H589z"/><path d="M396.625 340.375c-8.594 36.2-14.588 67.443-17.969 93.75-1.044-.263-5.604-1.172-13.672-2.734-8.075-1.563-14.197-2.344-18.359-2.344H139.594c-2.869 0-6.97.195-12.305.586-5.341.391-9.314.586-11.914.586l144.141-164.063-143.36-188.281c2.081 0 8.459.458 19.141 1.367 10.675.916 18.75 1.367 24.219 1.367h207.422l5.469 66.406h-8.594c-2.869-9.112-5.078-15.558-6.641-19.336-1.563-3.772-4.688-8.331-9.375-13.672-4.688-5.334-11.072-9.045-19.141-11.133-8.075-2.081-18.494-3.125-31.25-3.125H187.641L299.75 247.406 178.656 387.641h151.953c16.144 0 27.734-3.125 34.766-9.375s14.318-18.878 21.875-37.891h9.375z"/></svg>