<svg xmlns="http://www.w3.org/2000/svg" width="512" height="512" viewBox="0 0 512 512"><path fill="#666" d="M117.479 397.479l176.474-59.098s-24.651-92.627-130.552-121.254l-45.922 180.352z" opacity=".2"/><path fill="none" stroke="#666" stroke-miterlimit="10" stroke-width="13" d="M117.479 397.479l176.474-59.098s-24.651-92.627-130.552-121.254l-45.922 180.352z"/><path fill="#666" d="M191.263 344.312c-8.7 0-16.673-4.267-21.107-11.738l-.055-.095c-10.538-18.681-4.697-41.619 6.758-52.157 8.512-7.831 19.37-8.579 29.046-2.003l.229.165c4.484 3.433 7.683 7.421 10.059 11.744 2.521-7.035 4.618-9.867 6.31-12.152.916-1.236 1.375-1.857 1.774-3.086l9.51 3.094c-.903 2.776-2.095 4.386-3.247 5.941-1.903 2.571-4.746 6.412-8.654 22.397.638 2.839 1.176 5.702 1.71 8.545 1.644 8.748 3.197 17.012 7.455 23.715l-8.441 5.361c-2.979-4.691-4.854-9.79-6.234-15.009-4.503 7.93-11.288 12.496-17.808 14.281a27.673 27.673 0 0 1-7.305.997zm-12.481-16.797c3.34 5.579 10.224 8.051 17.142 6.156 9.803-2.685 15.664-12.654 15.677-26.668l.001-.584c-1.971-7.857-4.948-14.889-11.435-19.907-7.298-4.891-13.019-2.07-16.539 1.168-8.674 7.981-12.683 25.882-4.846 39.835z"/><circle cx="402.1" cy="316.92" r="35" fill="#00f"/><path d="M402.102 289.916c14.889 0 27 12.112 27 27s-12.111 27.001-27 27.001c-14.887 0-27-12.113-27-27.001s12.113-27 27-27m0-13c-22.092 0-40 17.909-40 40s17.908 40.001 40 40.001 40-17.91 40-40.001-17.909-40-40-40z"/><circle cx="109.9" cy="405.26" r="35" fill="#00f"/><path d="M109.898 378.256c14.889 0 27 12.112 27 27s-12.111 27.001-27 27.001c-14.887 0-27-12.113-27-27.001s12.114-27 27-27m0-13c-22.092 0-40 17.909-40 40s17.908 40.001 40 40.001 40-17.91 40-40.001-17.908-40-40-40z"/><circle cx="188.05" cy="106.74" r="35" fill="red"/><path d="M188.046 79.743c14.888 0 27 12.112 27 27s-12.112 27.001-27 27.001-27-12.113-27-27.001c0-14.888 12.112-27 27-27m0-13c-22.092 0-40 17.909-40 40s17.908 40.001 40 40.001 40-17.91 40-40.001c0-22.091-17.908-40-40-40z"/></svg>