<svg id="tool_selection_NEW" data-name="tool_selection NEW" xmlns="http://www.w3.org/2000/svg" viewBox="0 0 24 24"><title>selection_tool</title><rect x="15" y="3" width="2" height="2"/><path d="M5,21V19H3A2,2,0,0,0,5,21Z"/><rect x="3" y="15" width="2" height="2"/><rect x="19" y="11" width="2" height="2"/><path d="M19,3V5h2A2,2,0,0,0,19,3Z"/><rect x="19" y="7" width="2" height="2"/><rect x="3" y="11" width="2" height="2"/><rect x="7" y="3" width="2" height="2"/><rect x="11" y="19" width="2" height="2"/><rect x="11" y="3" width="2" height="2"/><rect x="7" y="19" width="2" height="2"/><rect x="3" y="7" width="2" height="2"/><path d="M3,5H5V3A2,2,0,0,0,3,5Z"/><polygon points="18.41 17 21 17 21 15 17 15 15 15 15 21 17 21 17 18.41 19.71 21.12 21.12 19.71 18.41 17"/></svg>