<svg id="Surface_of_Revolution" xmlns="http://www.w3.org/2000/svg" width="512" height="512" viewBox="0 0 512 512"><defs><linearGradient id="gr51" x1="156.96" y1="120.23" x2="152.97" y2="385.09" gradientUnits="userSpaceOnUse"><stop offset="0" stop-color="#993415"/><stop offset=".5" stop-color="#fff"/><stop offset="1" stop-color="#930"/></linearGradient><style>.cls-2{fill:none;stroke-miterlimit:10;stroke-width:13px;stroke:#930}</style></defs><path d="M-80.49 249.5h641.22v13H-80.49z"/><path d="M483.1 138.42H471c-1.55-6.87-3.24-13.45-5.08-19.66-10.78-36.52-23.2-49.48-30.55-49.48s-19.77 13-30.55 49.48S388.07 204 388.07 256s5.93 100.78 16.7 137.24 23.2 49.48 30.55 49.48 19.77-13 30.55-49.48c1.84-6.21 3.53-12.79 5.08-19.66h12.15C472.36 423.53 455 456 435.32 456c-32.62 0-59.06-89.54-59.06-200S402.7 56 435.32 56c19.68 0 37.04 32.47 47.78 82.42z"/><path d="M491.06 456l4.86-130.51-54.37 48.63L491.06 456z"/><ellipse cx="286.35" cy="256" rx="35.67" ry="196" opacity=".2" fill="#930"/><path class="cls-2" d="M50.82 145.36a9.22 9.22 0 015.89 2.42"/><path d="M64.18 158.58C73 177.27 79 213.89 79 256c0 47-7.46 87.18-18 103.2" stroke-dasharray="13.22 13.22" stroke="#930" fill="none" stroke-miterlimit="10" stroke-width="13"/><path class="cls-2" d="M56.71 364.22a9.22 9.22 0 01-5.89 2.42"/><path d="M250.68 256c0-111 15.71-201.16 35.18-202.67h-.58a10.46 10.46 0 00-6.35 2.38q-9.65 4.31-18.79 8.84c-42.41 21-77.47 44.66-115.56 60.62-28.45 11.89-58.58 19.48-94.76 18.33v.5h-.35C33.73 144 21 194.14 21 256s12.76 112 28.5 112h.35v.28a218.91 218.91 0 0125 .63c74.16 6.16 124 49.9 196.23 83.61 2.38 1.1 4.77 2.2 7.19 3.28a10.89 10.89 0 007 2.92h.58C266.39 457.16 250.68 367 250.68 256z" opacity=".4" fill="#930"/><path d="M250.68 256c0-111 15.71-201.16 35.18-202.67h-.58a10.46 10.46 0 00-6.35 2.38q-9.65 4.31-18.79 8.84c-42.41 21-77.47 44.66-115.56 60.62-28.45 11.89-58.58 19.48-94.76 18.33v.5h-.35C33.73 144 21 194.14 21 256s12.76 112 28.5 112h.35v.28a218.91 218.91 0 0125 .63c74.16 6.16 124 49.9 196.23 83.61 2.38 1.1 4.77 2.2 7.19 3.28a10.89 10.89 0 007 2.92h.58C266.39 457.16 250.68 367 250.68 256z" fill="url(#gr51)" opacity=".4"/><path class="cls-2" d="M50.82 366.64c-15.55 0-28.16-49.54-28.16-110.64s12.61-110.64 28.16-110.64"/><ellipse class="cls-2" cx="286.28" cy="256" rx="41.28" ry="202.7"/><path d="M-27 123.77C191.35 190.66 207.12-14.9 517.68 16.55" stroke="#00f" fill="none" stroke-miterlimit="10" stroke-width="13"/><path d="M251.72 249.5h309v13h-309z"/></svg>