<svg xmlns="http://www.w3.org/2000/svg" width="512" height="512" viewBox="0 0 512 512"><path fill="none" stroke="red" stroke-miterlimit="10" stroke-width="13" d="M450.52 128.89l-234.45 58.58 217.09 218.17-259.39 44.47"/><g fill="none" stroke="#1a171b" stroke-miterlimit="10" stroke-width="13"><path d="M173.77 450.11l16.32-18.94"/><path stroke-dasharray="53.43 53.43" d="M224.96 390.69l191.8-222.62"/><path d="M434.2 147.83l16.32-18.94"/></g><circle cx="216.07" cy="187.47" r="35" fill="#00f"/><path d="M216.074 160.466c14.889 0 27 12.113 27 27 0 14.888-12.111 27.001-27 27.001-14.887 0-27-12.113-27-27.001 0-14.887 12.114-27 27-27m0-13c-22.09 0-40 17.91-40 40 0 22.091 17.91 40.001 40 40.001 22.092 0 40-17.91 40-40.001 0-22.09-17.908-40-40-40z"/><circle cx="450.52" cy="128.89" r="35" fill="#00f"/><path d="M450.516 101.89c14.889 0 27 12.113 27 27 0 14.888-12.111 27.001-27 27.001-14.887 0-27-12.113-27-27.001 0-14.887 12.113-27 27-27m0-13c-22.09 0-40 17.91-40 40 0 22.091 17.91 40.001 40 40.001 22.092 0 40-17.91 40-40.001 0-22.09-17.909-40-40-40z"/><circle cx="433.16" cy="405.64" r="35" fill="#00f"/><path d="M433.158 378.636c14.889 0 27 12.113 27 27 0 14.888-12.111 27.001-27 27.001-14.887 0-27-12.113-27-27.001 0-14.887 12.113-27 27-27m0-13c-22.09 0-40 17.91-40 40 0 22.091 17.91 40.001 40 40.001 22.092 0 40-17.91 40-40.001 0-22.09-17.908-40-40-40z"/><circle cx="173.77" cy="450.11" r="35" fill="#00f"/><path d="M173.77 423.11c14.889 0 27 12.113 27 27 0 14.888-12.111 27.001-27 27.001-14.887 0-27-12.113-27-27.001 0-14.886 12.113-27 27-27m0-13c-22.09 0-40 17.91-40 40 0 22.091 17.91 40.001 40 40.001 22.092 0 40-17.91 40-40.001 0-22.089-17.909-40-40-40z"/><path fill="none" stroke="#666" stroke-miterlimit="10" stroke-width="13" d="M30 30h120v180H30zm0 60h120M30 150h120M90 30v180"/></svg>