<svg xmlns="http://www.w3.org/2000/svg" width="512" height="512" viewBox="0 0 512 512"><path fill="#fff" stroke="#000" stroke-miterlimit="10" stroke-width="13" d="M409.92 420.6l41.13-20.56-68.55-140.52 85.68-8.56L279.69 86.45l-3.43 258.76 63.4-65.12z"/><path d="M96.404 99.748c0 8.888-3.346 16.285-10.034 22.192-6.69 5.91-15.161 8.862-25.415 8.862-11.33 0-19.922-3.026-25.781-9.082-5.859-6.054-8.789-13.231-8.789-21.533h15.967c1.172 12.696 7.519 19.043 19.043 19.043 5.077 0 9.691-1.831 13.843-5.493 4.149-3.662 6.226-7.885 6.226-12.671 0-15.429-10.107-22.998-30.322-22.705V66.35c9.375 0 16.479-1.611 21.313-4.834s7.251-8.446 7.251-15.674c0-5.663-1.978-9.741-5.933-12.231s-8.229-3.735-12.817-3.735c-9.279 0-14.992 6.251-17.139 18.75H28.582c1.268-9.764 4.637-17.26 10.107-22.485 5.468-5.223 12.792-7.837 21.973-7.837 10.057 0 18.237 2.71 24.536 8.13s9.448 12.231 9.448 20.435c0 3.419-.709 6.592-2.124 9.521-1.417 2.93-3.149 5.25-5.2 6.958-2.051 1.71-4.2 3.369-6.445 4.98-2.248 1.611-4.152 2.809-5.713 3.589.682.392 2.147 1.172 4.395 2.344 2.245 1.172 4.149 2.321 5.713 3.442 1.561 1.124 3.296 2.662 5.2 4.614 1.904 1.955 3.369 4.395 4.395 7.324s1.537 6.298 1.537 10.107zm83.643-3.369c0 5.47-.879 10.4-2.637 14.795-2.442 6.349-6.544 11.279-12.305 14.795-5.47 3.319-11.671 4.93-18.604 4.834-7.814-.099-14.795-2.293-20.947-6.592-6.251-4.395-10.646-10.254-13.184-17.578-1.465-4.198-2.296-9.032-2.49-14.502-.197-5.468-.05-10.4.439-14.795.879-13.866 1.708-23.145 2.49-27.832.879-4.589 2.051-8.592 3.516-12.012 1.854-4.003 4.296-7.372 7.324-10.107 3.026-2.831 6.64-5.028 10.84-6.592 3.905-1.465 8.057-2.293 12.451-2.49 6.249-.293 11.62.732 16.113 3.076 3.905 2.149 7.079 5.324 9.521 9.521 2.831 4.591 4.344 9.718 4.541 15.381H162.76c.194-3.612-.685-6.885-2.637-9.814-1.465-2.245-3.321-3.955-5.566-5.127-2.344-1.268-4.98-1.758-7.91-1.465-3.419.293-6.642 1.611-9.668 3.955-2.637 2.051-4.884 4.688-6.738 7.91-2.833 5.177-4.493 12.55-4.98 22.119a224.562 224.562 0 0 0-.293 11.865c1.659-2.538 3.417-4.834 5.273-6.885 2.245-2.245 4.589-3.955 7.031-5.127 2.93-1.366 6.542-2 10.84-1.904 3.71.099 7.324.586 10.84 1.465 3.905 1.076 7.226 2.637 9.961 4.688 4.198 3.223 7.226 7.862 9.082 13.916 1.367 4.493 2.052 9.327 2.052 14.502zm-15.234 0c0-5.37-.636-9.569-1.904-12.598-1.369-3.319-3.614-5.907-6.738-7.764-3.028-1.758-6.445-2.637-10.254-2.637s-7.228.879-10.254 2.637c-3.223 1.856-5.519 4.445-6.885 7.764-1.271 3.028-1.904 7.228-1.904 12.598 0 5.372.634 9.521 1.904 12.451 1.465 3.419 3.758 6.006 6.885 7.764 3.026 1.758 6.445 2.637 10.254 2.637s7.178-.879 10.107-2.637c3.223-1.758 5.516-4.344 6.885-7.764 1.267-2.93 1.904-7.079 1.904-12.451zM94.061 308.752H28.729v-13.916c12.694-14.158 22.778-25.415 30.249-33.765s12.694-14.795 15.674-19.336c2.978-4.541 4.468-8.519 4.468-11.938 0-6.542-1.271-11.353-3.809-14.429-2.541-3.076-6.789-4.614-12.744-4.614-5.273 0-9.229 1.515-11.865 4.541-2.637 3.028-4.347 7.862-5.127 14.502H30.34c1.561-20.995 12.305-31.494 32.227-31.494 9.862 0 17.578 3.003 23.145 9.009s8.35 12.817 8.35 20.435c0 2.344-.197 4.493-.586 6.445-.392 1.955-1.025 4.028-1.904 6.226s-2.076 4.468-3.589 6.812c-1.515 2.344-3.419 5.006-5.713 7.983-2.296 2.979-5.006 6.226-8.13 9.741a7303.957 7303.957 0 0 0-10.913 12.305 842.538 842.538 0 0 1-14.136 15.527c-1.662 1.856-2.93 3.273-3.809 4.248h48.779v11.718zm88.623-26.367h-13.33v26.367h-14.063v-26.367H107.83v-15.82l44.971-66.064h16.553v69.434h13.33v12.45zm-27.393-12.451v-53.027l-35.449 53.027h35.449zM76.336 488.752H62.42v-90.234c-5.566 3.907-13.38 8.057-23.438 12.451v-12.451a103.797 103.797 0 0 0 12.085-8.643c3.758-3.124 6.42-5.493 7.983-7.104 1.561-1.611 2.344-2.366 2.344-2.271h14.941v108.252zm101.514 0h-65.332v-13.916c12.694-14.158 22.778-25.415 30.249-33.765s12.694-14.795 15.674-19.336c2.978-4.541 4.468-8.519 4.468-11.938 0-6.541-1.271-11.353-3.809-14.429-2.541-3.076-6.789-4.614-12.744-4.614-5.273 0-9.229 1.516-11.865 4.541-2.637 3.028-4.347 7.862-5.127 14.502H114.13c1.561-20.995 12.305-31.494 32.227-31.494 9.862 0 17.578 3.003 23.145 9.009s8.35 12.817 8.35 20.435c0 2.344-.197 4.493-.586 6.445-.392 1.955-1.025 4.028-1.904 6.226s-2.076 4.468-3.589 6.812c-1.515 2.344-3.419 5.006-5.713 7.983-2.296 2.98-5.006 6.226-8.13 9.741a7303.957 7303.957 0 0 0-10.913 12.305 842.538 842.538 0 0 1-14.136 15.527c-1.662 1.856-2.93 3.273-3.809 4.248h48.779v11.718z"/></svg>