<?xml version="1.0" encoding="iso-8859-1"?>
<!-- Generator: Adobe Illustrator 15.1.0, SVG Export Plug-In . SVG Version: 6.00 Build 0)  -->
<!DOCTYPE svg PUBLIC "-//W3C//DTD SVG 1.1//EN" "http://www.w3.org/Graphics/SVG/1.1/DTD/svg11.dtd">
<svg version="1.1" xmlns="http://www.w3.org/2000/svg" xmlns:xlink="http://www.w3.org/1999/xlink" x="0px" y="0px" width="512px"
	 height="512px" viewBox="0 0 512 512" style="enable-background:new 0 0 512 512;" xml:space="preserve">
<g id="mode_x5F_text">
	<g id="text2995" transform="scale(0.98677943,1.0133977)">
		<path id="path2984_9_" d="M193.309,333.894h-23.944L151.791,290.4H72.27l-17.794,43.493H31.191l68.318-162.337h24.604
			L193.309,333.894z M142.345,271.287l-30.974-74.907l-30.314,74.907H142.345z"/>
		<path id="path2986_2_" d="M334.558,288.643c0,12.741-4.832,23.469-14.498,32.182c-9.666,8.713-21.088,13.069-34.268,13.069
			h-71.174V171.557h65.243c14.059,0,25.701,3.405,34.928,10.215c9.225,6.81,13.839,16.732,13.839,29.766
			c0,5.126-0.952,9.885-2.856,14.278c-1.904,4.393-4.21,7.834-6.92,10.325c-2.709,2.49-5.418,4.65-8.128,6.481
			c-2.709,1.83-5.016,3.112-6.92,3.844l-2.855,0.879c0.878,0.293,2.086,0.659,3.624,1.099c1.538,0.439,4.248,1.758,8.128,3.954
			c3.88,2.197,7.286,4.687,10.215,7.47c2.928,2.781,5.601,6.736,8.018,11.861C333.35,276.853,334.558,282.491,334.558,288.643
			L334.558,288.643z M307.758,214.612c0-15.669-11.569-23.504-34.709-23.505h-35.806v48.329h35.367
			C296.043,239.436,307.758,231.161,307.758,214.612L307.758,214.612z M312.591,286.226c0-9.08-3.478-16.035-10.434-20.869
			c-6.957-4.832-17.171-7.249-30.644-7.249h-34.27v56.235h35.367c11.863,0,21.491-2.635,28.888-7.908
			C308.893,301.164,312.591,294.426,312.591,286.226L312.591,286.226z"/>
		<path id="path2988_1_" d="M487.669,290.4c0,13.472-5.272,24.602-15.817,33.389c-10.544,8.788-24.969,13.181-43.275,13.181
			c-12.155,0-22.7-2.234-31.632-6.699c-8.934-4.467-15.89-10.654-20.87-18.562c-4.979-7.91-8.64-16.66-10.983-26.252
			c-2.343-9.592-3.515-20.173-3.515-31.743c0-11.569,1.172-22.223,3.515-31.962s6.004-18.746,10.983-27.02
			c4.98-8.274,11.973-14.754,20.98-19.441c9.006-4.686,19.66-7.029,31.962-7.03c19.331,0,33.792,4.357,43.385,13.07
			c9.593,8.714,14.388,19.881,14.388,33.5h-22.846c0-9.665-2.709-16.877-8.127-21.638c-5.419-4.759-14.28-7.139-26.581-7.139
			c-29.729,0-44.593,22.554-44.593,67.659c0,23.432,3.662,40.126,10.984,50.085c7.322,9.958,18.232,14.939,32.731,14.939
			c24.311,0,36.466-9.446,36.466-28.337H487.669z"/>
	</g>
</g>
<g id="Ebene_1">
</g>
</svg>
