<svg xmlns="http://www.w3.org/2000/svg" viewBox="0 0 512 512" width="512" height="512"><path fill="none" stroke="#ccc" stroke-miterlimit="10" stroke-width="13" d="M-13 256h538"/><path fill="none" stroke="#000" stroke-miterlimit="10" stroke-width="13" d="M12.407 522C60.462 192 135.204-91.705 256.012 256.002 377.815 606.572 448.708 320 500.093-10.167"/><ellipse cx="256.25" cy="255.92" fill="red" rx="35" ry="35" transform="rotate(-35.003 256.237 255.913)"/><path d="M278.368 240.43c8.537 12.193 5.563 29.064-6.631 37.603-12.195 8.539-29.066 5.564-37.605-6.631-8.539-12.195-5.564-29.064 6.631-37.603 12.195-8.539 29.064-5.565 37.605 6.631m10.649-7.457c-12.672-18.096-37.615-22.492-55.709-9.822-18.096 12.67-22.496 37.613-9.824 55.708 12.672 18.098 37.613 22.494 55.709 9.824 18.095-12.672 22.496-37.613 9.824-55.71z"/><ellipse cx="62.33" cy="256" fill="red" rx="35" ry="35" transform="rotate(-35.003 62.32 255.994)"/><path d="M84.444 240.515c8.537 12.193 5.563 29.064-6.631 37.603-12.195 8.539-29.066 5.564-37.605-6.631-8.539-12.195-5.564-29.064 6.631-37.603s29.064-5.565 37.605 6.631m10.649-7.458c-12.672-18.096-37.615-22.492-55.709-9.822-18.096 12.67-22.496 37.613-9.824 55.709 12.672 18.098 37.613 22.494 55.709 9.824 18.095-12.672 22.495-37.613 9.824-55.711z"/><ellipse cx="448.6" cy="256" fill="red" rx="35" ry="35" transform="rotate(-35.003 448.58 256.001)"/><path d="M470.717 240.515c8.537 12.193 5.563 29.064-6.631 37.603-12.195 8.539-29.066 5.564-37.605-6.631-8.539-12.195-5.564-29.064 6.631-37.603 12.195-8.539 29.064-5.565 37.605 6.631m10.649-7.458c-12.672-18.096-37.615-22.492-55.709-9.822-18.096 12.67-22.496 37.613-9.824 55.709 12.672 18.098 37.613 22.494 55.709 9.824 18.095-12.672 22.496-37.613 9.824-55.711z"/></svg>