<svg xmlns="http://www.w3.org/2000/svg" width="512" height="512" viewBox="0 0 512 512"><path d="M65.5 178.59h13v191.18h-13z"/><path d="M30.8 190.39L72 25.59l41.2 164.8z"/><g fill="none" stroke="#00f" stroke-width="13"><path d="M139.21 362.12l12.33-2.1"/><path stroke-dasharray="23.98 23.98" d="M175.18 355.98l271.89-46.35"/><path d="M458.89 307.61l12.32-2.1"/></g><path fill="#00f" d="M139.21 362.12l264 85.39 68-142z" opacity=".4"/><path fill="#930" d="M471.21 305.51v-242l-68 142v242z" opacity=".2"/><path fill="#930" d="M471.21 305.51v-242l-68 142v242z" opacity=".4"/><path fill="#930" d="M139.21 120.51l264 85 68-142z" opacity=".2"/><path fill="#fff" d="M139.21 120.51l264 85 68-142z" opacity=".2"/><path fill="#930" d="M139.21 362.51l264 85v-242l-264-85z" opacity=".2"/><linearGradient id="a" x1="123.46" x2="418.96" y1="136.26" y2="431.76" gradientUnits="userSpaceOnUse"><stop offset="0" stop-color="#fff"/><stop offset="1" stop-color="#930"/></linearGradient><path fill="url(#a)" d="M139.21 362.51l264 85v-242l-264-85z" opacity=".4"/><path fill="none" stroke="#930" stroke-width="13" d="M403.21 205.51v242"/><path fill="#00f" d="M406.62 455.44l-273.91-88.56 8.5-10.95 258.6 83.64 65.54-136.87 12.36 4.42z"/><path fill="none" stroke="#930" stroke-width="13" d="M139.21 120.12l264 85.39m0 0l68-142"/><path fill="#930" d="M145.71 357.39l-13 9.49V114.63l345-58.82v251.31l-13-3.09V71.21l-319 54.39z"/></svg>