<svg xmlns="http://www.w3.org/2000/svg" width="512" height="512" viewBox="0 0 512 512"><path fill="none" stroke="#666" stroke-miterlimit="10" stroke-width="13" d="M30 30h120v180H30zm0 60h120M30 150h120M90 30v180"/><path fill="none" stroke="red" stroke-miterlimit="10" stroke-width="13" d="M12.54 575.29L512-20.46"/><circle cx="145.56" cy="299.1" r="35" fill="#00f"/><path d="M167.682 283.61c8.537 12.193 5.563 29.064-6.631 37.604-12.195 8.539-29.066 5.564-37.605-6.631s-5.564-29.064 6.631-37.604 29.064-5.565 37.605 6.631m10.648-7.457c-12.672-18.096-37.615-22.493-55.709-9.822-18.096 12.67-22.496 37.613-9.824 55.709 12.672 18.097 37.613 22.493 55.709 9.823 18.096-12.671 22.496-37.613 9.824-55.71z"/><circle cx="123.87" cy="446.62" r="35" fill="#00f"/><path d="M145.986 431.136c8.538 12.193 5.563 29.064-6.631 37.604-12.195 8.539-29.066 5.564-37.604-6.631-8.54-12.195-5.564-29.064 6.631-37.604 12.194-8.539 29.064-5.566 37.604 6.631m10.649-7.457c-12.671-18.096-37.614-22.493-55.709-9.822-18.096 12.67-22.495 37.613-9.824 55.709 12.672 18.097 37.614 22.493 55.71 9.823 18.095-12.671 22.495-37.614 9.823-55.71z"/><circle cx="326.72" cy="334.89" r="35" fill="#00f"/><path d="M348.834 319.407c8.537 12.193 5.563 29.064-6.631 37.604-12.195 8.539-29.066 5.564-37.605-6.631s-5.564-29.064 6.631-37.604 29.064-5.565 37.605 6.631m10.648-7.457c-12.672-18.096-37.615-22.493-55.709-9.822-18.096 12.67-22.496 37.613-9.824 55.709 12.672 18.097 37.613 22.493 55.709 9.823 18.096-12.671 22.496-37.613 9.824-55.71z"/><circle cx="286.71" cy="173.27" r="35" fill="#00f"/><path d="M308.83 157.78c8.537 12.193 5.563 29.064-6.631 37.604-12.195 8.539-29.066 5.564-37.605-6.631s-5.564-29.064 6.631-37.604 29.064-5.566 37.605 6.631m10.649-7.457c-12.672-18.096-37.615-22.493-55.709-9.822-18.096 12.67-22.496 37.613-9.824 55.709 12.672 18.097 37.613 22.493 55.709 9.823 18.095-12.671 22.495-37.614 9.824-55.71z"/><circle cx="447.12" cy="149.4" r="35" fill="#00f"/><path d="M469.24 133.916c8.537 12.193 5.563 29.064-6.631 37.604-12.195 8.539-29.066 5.564-37.605-6.631s-5.564-29.064 6.631-37.604 29.064-5.566 37.605 6.631m10.649-7.458c-12.672-18.096-37.615-22.493-55.709-9.822-18.096 12.67-22.496 37.613-9.824 55.709 12.672 18.097 37.613 22.493 55.709 9.823 18.095-12.67 22.496-37.613 9.824-55.71z"/></svg>