<svg xmlns="http://www.w3.org/2000/svg" width="512" height="512" viewBox="0 0 512 512"><g fill="none" stroke="#000" stroke-linecap="round" stroke-width="13"><path d="M99.31 387.18l.38-.32"/><path stroke-dasharray="1.02 35.88" d="M127.2 363.83l269.18-225.35"/><path d="M410.14 126.96l.38-.32"/></g><path fill="#666" d="M262.726 178.041h-17.725l-30.029-39.99v39.99h-13.477V69.789h13.477v64.453l28.418-31.201h16.992l-30.029 32.666 32.373 42.334z"/><circle cx="99.85" cy="387.85" r="35" fill="#00f"/><path d="M99.852 360.848c14.888 0 27 12.112 27 27s-12.112 27.001-27 27.001-27-12.113-27-27.001 12.112-27 27-27m0-13c-22.092 0-40 17.909-40 40s17.908 40.001 40 40.001 40-17.91 40-40.001-17.908-40-40-40z"/><circle cx="192.95" cy="308.79" r="35" fill="#00f"/><path d="M192.949 281.789c14.888 0 27 12.112 27 27s-12.111 27.001-27 27.001c-14.888 0-27-12.113-27-27.001s12.112-27 27-27m0-13c-22.092 0-40 17.909-40 40s17.908 40.001 40 40.001c22.091 0 40-17.91 40-40.001s-17.909-40-40-40z"/><circle cx="410.22" cy="126.29" r="35" fill="red"/><path d="M410.217 99.288c14.888 0 27 12.112 27 27s-12.112 27.001-27 27.001-27-12.113-27-27.001c0-14.888 12.112-27 27-27m0-13c-22.092 0-40 17.909-40 40s17.908 40.001 40 40.001 40-17.91 40-40.001c0-22.091-17.908-40-40-40z"/></svg>