<?xml version="1.0" encoding="iso-8859-1"?>
<!-- Generator: Adobe Illustrator 15.1.0, SVG Export Plug-In . SVG Version: 6.00 Build 0)  -->
<!DOCTYPE svg PUBLIC "-//W3C//DTD SVG 1.1//EN" "http://www.w3.org/Graphics/SVG/1.1/DTD/svg11.dtd">
<svg version="1.1" xmlns="http://www.w3.org/2000/svg" xmlns:xlink="http://www.w3.org/1999/xlink" x="0px" y="0px" width="512px"
	 height="512px" viewBox="0 0 512 512" style="enable-background:new 0 0 512 512;" xml:space="preserve">
<g id="mode_x5F_dilatefrompoint">
	<g>
		<g>
			
				<line style="fill:none;stroke:#000000;stroke-width:13;stroke-linecap:round;" x1="99.305" y1="387.179" x2="99.688" y2="386.857"/>
			
				<line style="fill:none;stroke:#000000;stroke-width:13;stroke-linecap:round;stroke-dasharray:1.025,35.8753;" x1="127.196" y1="363.829" x2="396.385" y2="138.476"/>
			
				<line style="fill:none;stroke:#000000;stroke-width:13;stroke-linecap:round;" x1="410.139" y1="126.961" x2="410.522" y2="126.64"/>
		</g>
	</g>
	<g>
		<path style="fill:#666666;" d="M262.726,178.041h-17.725l-30.029-39.99v39.99h-13.477V69.789h13.477v64.453l28.418-31.201h16.992
			l-30.029,32.666L262.726,178.041z"/>
	</g>
	<g>
		<circle style="fill:#0000FF;" cx="99.852" cy="387.848" r="35"/>
		<path d="M99.852,360.848c14.888,0,27,12.112,27,27s-12.112,27.001-27,27.001s-27-12.113-27-27.001S84.964,360.848,99.852,360.848
			 M99.852,347.848c-22.092,0-40,17.909-40,40s17.908,40.001,40,40.001s40-17.91,40-40.001S121.944,347.848,99.852,347.848
			L99.852,347.848z"/>
	</g>
	<g>
		<circle style="fill:#0000FF;" cx="192.948" cy="308.789" r="35"/>
		<path d="M192.949,281.789c14.888,0,27,12.112,27,27s-12.111,27.001-27,27.001c-14.888,0-27-12.113-27-27.001
			S178.061,281.789,192.949,281.789 M192.949,268.789c-22.092,0-40,17.909-40,40s17.908,40.001,40,40.001
			c22.091,0,40-17.91,40-40.001S215.04,268.789,192.949,268.789L192.949,268.789z"/>
	</g>
	<g>
		<circle style="fill:#FF0000;" cx="410.217" cy="126.288" r="35"/>
		<path d="M410.217,99.288c14.888,0,27,12.112,27,27c0,14.888-12.112,27.001-27,27.001s-27-12.113-27-27.001
			C383.217,111.4,395.329,99.288,410.217,99.288 M410.217,86.288c-22.092,0-40,17.909-40,40c0,22.091,17.908,40.001,40,40.001
			s40-17.91,40-40.001C450.217,104.197,432.309,86.288,410.217,86.288L410.217,86.288z"/>
	</g>
</g>
<g id="Ebene_1">
</g>
</svg>
