<svg xmlns="http://www.w3.org/2000/svg" width="512" height="512" viewBox="0 0 512 512"><path fill="none" stroke="#000" stroke-width="13" d="M370.095 437.158c60.62-129.999 4.377-284.522-125.619-345.141M134.72 327.4l243.56 88.79M134.72 327.4L244.3 92.81"/><circle cx="134.72" cy="327.4" r="35" fill="#00f"/><path d="M161.307 322.709c2.585 14.658-7.241 28.692-21.901 31.278-14.661 2.584-28.694-7.242-31.28-21.903-2.585-14.662 7.241-28.693 21.902-31.277 14.66-2.586 28.692 7.238 31.279 21.902m12.802-2.26c-3.837-21.754-24.586-36.281-46.339-32.445-21.754 3.836-36.284 24.582-32.447 46.338 3.836 21.759 24.583 36.282 46.338 32.448 21.756-3.838 36.284-24.582 32.448-46.341z"/><circle cx="244.3" cy="92.81" r="35" fill="#00f"/><path d="M270.895 88.125c2.585 14.659-7.241 28.692-21.901 31.278-14.661 2.585-28.694-7.241-31.279-21.902-2.585-14.661 7.24-28.693 21.901-31.278s28.693 7.24 31.279 21.902m12.802-2.258c-3.837-21.755-24.585-36.282-46.339-32.446-21.755 3.835-36.284 24.582-32.447 46.338 3.837 21.757 24.583 36.283 46.338 32.447 21.756-3.836 36.284-24.581 32.448-46.339z"/><circle cx="378.28" cy="416.19" r="35" fill="#00f"/><path d="M404.875 411.498c2.584 14.658-7.242 28.691-21.901 31.277-14.661 2.586-28.695-7.24-31.28-21.902s7.24-28.693 21.902-31.277c14.661-2.586 28.692 7.24 31.279 21.902m12.803-2.26c-3.838-21.754-24.586-36.281-46.339-32.445-21.755 3.836-36.284 24.582-32.447 46.338 3.836 21.758 24.583 36.283 46.338 32.447s36.284-24.582 32.448-46.34z"/></svg>