<svg xmlns="http://www.w3.org/2000/svg" width="512" height="512" viewBox="0 0 512 512"><path d="M159.043 223.595h-21.802V82.228c-8.721 6.121-20.963 12.622-36.719 19.507V82.228c6.73-4.131 13.042-8.642 18.933-13.54 5.888-4.895 10.058-8.606 12.507-11.13 2.445-2.524 3.672-3.708 3.672-3.557h23.408v169.594zm266.318 0H323.008v-21.802a77970.618 77970.618 0 0 0 47.391-52.898c11.703-13.081 19.887-23.179 24.555-30.293 4.666-7.114 7-13.346 7-18.704 0-10.248-1.99-17.786-5.967-22.605-3.98-4.819-10.636-7.229-19.966-7.229-8.262 0-14.458 2.374-18.589 7.114-4.131 4.744-6.81 12.317-8.032 22.72h-23.867c2.445-32.893 19.277-49.341 50.488-49.341 15.451 0 27.539 4.705 36.26 14.114s13.081 20.081 13.081 32.014c0 3.672-.309 7.039-.918 10.098-.613 3.063-1.606 6.311-2.983 9.753s-3.253 7-5.622 10.671c-2.375 3.672-5.357 7.842-8.951 12.507-3.596 4.669-7.842 9.753-12.736 15.261a12483.33 12483.33 0 0 0-17.098 19.277c-6.504 7.344-13.884 15.455-22.146 24.326-2.604 2.908-4.59 5.128-5.967 6.655h76.421v18.362zm-237.878 187.73c0 13.924-5.243 25.513-15.72 34.769-10.481 9.258-23.752 13.884-39.817 13.884-17.75 0-31.211-4.74-40.391-14.229-9.18-9.484-13.77-20.729-13.77-33.735H102.8c1.836 19.891 11.779 29.834 29.834 29.834 7.953 0 15.182-2.869 21.687-8.605 6.501-5.738 9.753-12.354 9.753-19.852 0-24.172-15.835-36.03-47.505-35.571v-18.818c14.688 0 25.818-2.524 33.391-7.573s11.36-13.231 11.36-24.556c0-8.871-3.098-15.261-9.294-19.163-6.196-3.9-12.891-5.852-20.081-5.852-14.537 0-23.487 9.793-26.851 29.375H81.229c1.986-15.297 7.265-27.041 15.835-35.227 8.566-8.184 20.041-12.278 34.424-12.278 15.756 0 28.572 4.245 38.44 12.737 9.868 8.49 14.802 19.162 14.802 32.014 0 5.357-1.112 10.327-3.328 14.917-2.22 4.59-4.934 8.226-8.147 10.901a177.004 177.004 0 0 1-10.098 7.803c-3.521 2.523-6.505 4.399-8.95 5.622 1.068.613 3.363 1.836 6.885 3.672 3.518 1.836 6.501 3.636 8.95 5.394 2.445 1.76 5.164 4.17 8.147 7.229 2.983 3.063 5.278 6.885 6.885 11.475s2.409 9.866 2.409 15.833zm242.452 4.131h-20.884v41.309H387.02v-41.309h-74.355v-24.785l70.454-103.501h25.933v108.779h20.884v19.507zm-42.915-19.507v-83.076l-55.537 83.076h55.537z"/></svg>