<svg xmlns="http://www.w3.org/2000/svg" width="512" height="512" viewBox="0 0 512 512"><path d="M288 378.18h158v13H288z"/><circle cx="256" cy="384.68" r="35" fill="#00f"/><path d="M256 357.684c14.888 0 27 12.111 27 27 0 14.887-12.112 27-27 27s-27-12.113-27-27c0-14.889 12.112-27 27-27m0-13c-22.092 0-40 17.908-40 40 0 22.09 17.908 40 40 40s40-17.91 40-40c0-22.092-17.908-40-40-40z"/><path fill="#930" d="M67.418 127.183v257.633s6.262 88.5 188.922 88.5 188.921-88.5 188.921-88.5V127.183s-4.581 88.5-188.921 88.5-188.922-88.5-188.922-88.5z" opacity=".4"/><ellipse cx="257.07" cy="384.83" fill="none" stroke="#930" stroke-dasharray="25.01 25.01" stroke-miterlimit="10" stroke-width="13" rx="188.93" ry="88.49"/><linearGradient id="a" x1="67.42" x2="445.26" y1="300.25" y2="300.25" gradientUnits="userSpaceOnUse"><stop offset="0" stop-color="#930"/><stop offset=".33" stop-color="#fff"/><stop offset="1" stop-color="#930"/></linearGradient><path fill="url(#a)" d="M67.418 127.183v257.633s6.262 88.5 188.922 88.5 188.921-88.5 188.921-88.5V127.183s-4.581 88.5-188.921 88.5-188.922-88.5-188.922-88.5z" opacity=".4"/><ellipse cx="256.34" cy="127.18" fill="#930" opacity=".2" rx="188.92" ry="88.5"/><ellipse cx="256.34" cy="127.18" fill="#fff" opacity=".2" rx="188.92" ry="88.5"/><circle cx="256.34" cy="127.18" r="35" fill="#00f"/><path d="M256.34 100.183c14.888 0 27 12.112 27 27s-12.112 27-27 27-27-12.112-27-27 12.112-27 27-27m0-13c-22.092 0-40 17.909-40 40s17.908 40 40 40 40-17.909 40-40-17.908-40-40-40z"/><path fill="none" stroke="#930" stroke-miterlimit="10" stroke-width="13" d="M446 384.83c0 48.87-84.585 88.486-188.925 88.486-104.341 0-188.925-39.616-188.925-88.486"/><ellipse cx="257" cy="127.18" fill="none" stroke="#930" stroke-miterlimit="10" stroke-width="13" rx="188.93" ry="88.49"/><path fill="none" stroke="#930" stroke-miterlimit="10" stroke-width="13" d="M68.08 127.18v257.65m377.92 0V127.18"/></svg>