<svg xmlns="http://www.w3.org/2000/svg" width="512" height="512" viewBox="0 0 512 512"><g fill="none" stroke="#930" stroke-miterlimit="10" stroke-width="13"><path d="M67.075 369c0-4.182.619-8.295 1.817-12.322"/><path stroke-dasharray="25.01 25.01" d="M81.338 335.21c28.345-32.106 95.871-54.696 174.662-54.696 86.783 0 159.901 27.406 182.049 64.748"/><path d="M443.108 356.678c1.198 4.027 1.817 8.141 1.817 12.322"/></g><path d="M288 362.5h158v13H288z"/><circle cx="256" cy="369" r="35" fill="#00f"/><path d="M256 342c14.888 0 27 12.112 27 27s-12.112 27-27 27-27-12.112-27-27 12.112-27 27-27m0-13c-22.092 0-40 17.909-40 40s17.908 40 40 40 40-17.909 40-40-17.908-40-40-40z"/><path fill="#930" d="M448.338 343.32h.312l-1.564-2.414a71.661 71.661 0 0 0-5.644-8.711L255.999 45.896 70.554 332.201a71.562 71.562 0 0 0-5.634 8.699l-1.569 2.42h.313c-3.744 7.609-5.744 15.559-5.744 23.744 0 54.697 88.685 99.039 198.08 99.039 109.398 0 198.082-44.342 198.082-99.039-.001-8.185-2.001-16.134-5.744-23.744z" opacity=".4"/><linearGradient id="a" x1="81.62" x2="467.34" y1="228.26" y2="296.27" gradientUnits="userSpaceOnUse"><stop offset="0" stop-color="#930"/><stop offset=".33" stop-color="#fff"/><stop offset="1" stop-color="#930"/></linearGradient><path fill="url(#a)" d="M448.338 343.32h.312l-1.564-2.414a71.661 71.661 0 0 0-5.644-8.711L255.999 45.896 70.554 332.201a71.562 71.562 0 0 0-5.634 8.699l-1.569 2.42h.313c-3.744 7.609-5.744 15.559-5.744 23.744 0 54.697 88.685 99.039 198.08 99.039 109.398 0 198.082-44.342 198.082-99.039-.001-8.185-2.001-16.134-5.744-23.744z" opacity=".5"/><path fill="#930" d="M255.999 69.809L430.53 339.263l.248.384.275.365a58.89 58.89 0 0 1 4.624 7.129l.233.427.118.184.644 1.308c2.925 5.946 4.408 12.004 4.408 18.006 0 10.211-4.202 20.356-12.491 30.154-8.708 10.294-21.966 20.063-38.339 28.249-35.643 17.821-83.321 27.636-134.252 27.636-50.93 0-98.607-9.814-134.25-27.636-16.374-8.187-29.631-17.955-38.339-28.249-8.289-9.798-12.491-19.943-12.491-30.154 0-6.002 1.483-12.06 4.409-18.005l.644-1.308.123-.189.235-.43a58.958 58.958 0 0 1 4.615-7.118l.274-.364.248-.382L255.999 69.809m0-23.913L70.554 332.201a71.562 71.562 0 0 0-5.634 8.699l-1.569 2.42h.313c-3.744 7.609-5.744 15.559-5.744 23.744 0 54.697 88.685 99.039 198.08 99.039 109.398 0 198.082-44.342 198.082-99.039 0-8.186-2-16.135-5.743-23.744h.312l-1.564-2.414a71.661 71.661 0 0 0-5.644-8.711L255.999 45.896z"/><circle cx="256" cy="63" r="35" fill="#00f"/><path d="M256 36c14.888 0 27 12.112 27 27s-12.112 27-27 27-27-12.112-27-27 12.112-27 27-27m0-13c-22.092 0-40 17.909-40 40s17.908 40 40 40 40-17.909 40-40-17.908-40-40-40z"/></svg>