<svg xmlns="http://www.w3.org/2000/svg" width="512" height="512" viewBox="0 0 512 512"><path d="M325.238 189.336c-4.297 18.1-7.294 33.722-8.984 46.875-.521-.131-2.802-.586-6.836-1.367-4.037-.781-7.099-1.172-9.18-1.172H196.723c-1.435 0-3.485.098-6.152.293-2.67.195-4.657.293-5.957.293l72.07-82.031-71.68-94.141c1.041 0 4.229.229 9.57.684 5.337.458 9.375.684 12.109.684h103.711l2.734 33.203h-4.297c-1.435-4.556-2.539-7.779-3.32-9.668-.781-1.886-2.344-4.166-4.688-6.836-2.344-2.667-5.536-4.522-9.57-5.566-4.037-1.041-9.247-1.563-15.625-1.563h-54.883l56.055 73.828-60.547 70.117h75.977c8.072 0 13.867-1.563 17.383-4.688s7.159-9.439 10.938-18.945h4.687zm-25.781 265h-17.773v-66.211c0-6.769-2.441-12.53-7.324-17.285-4.883-4.752-10.645-7.129-17.285-7.129-7.294 0-13.51 2.441-18.652 7.324-5.146 4.883-7.715 11.103-7.715 18.652v64.648h-17.969v-100h17.969v12.891c.65-.519 1.822-1.822 3.516-3.906 1.69-2.081 3.351-3.873 4.98-5.371 1.626-1.495 4.361-2.896 8.203-4.199 3.839-1.3 8.365-1.953 13.574-1.953 25.65 0 38.477 12.24 38.477 36.719v65.82z"/><path fill="none" stroke="#000" stroke-width="13" d="M106 294.5h300"/></svg>