<svg xmlns="http://www.w3.org/2000/svg" width="512" height="512" viewBox="0 0 512 512"><path fill="red" d="M645.5 26.3h50v392.23h-50z" opacity=".5"/><path fill="#333" d="M640.5 26.3h12v400h-12zm24 0h12v390.87h-12zm24 0h12v400h-12z"/><path fill="#333" d="M669.606 30.501c10.008 0 18.864 3.27 24.314 8.291 4.113-3.423 6.579-7.765 6.579-12.492 0-11.045-13.433-20-30-20s-30 8.955-30 20c0 4.375 2.112 8.417 5.687 11.709 5.499-4.574 13.944-7.508 23.42-7.508z"/><path fill="none" stroke="#ccc" stroke-miterlimit="10" stroke-width="13" d="M-19.5 170h538M-13 342h538M342-16.25v538M170-9.75v538"/><path fill="#333" d="M670.5 419.977c8.92 0 14.542 3.461 16.349 5.704L670.5 469.276l-16.349-43.596c1.807-2.242 7.429-5.703 16.349-5.703m0-13c-16.228 0-29.429 8.593-29.966 19.324h-.034l.029.078c-.005.106-.017.213-.019.32h.139l29.851 79.602 29.851-79.602h.139c-.002-.107-.014-.214-.019-.32l.029-.078h-.034c-.537-10.732-13.738-19.324-29.966-19.324z"/><path fill="red" d="M679.02 483.6l-8.51 22.7-10.32-27.52z"/><linearGradient id="a" x1="277.95" x2="0" y1="310.92" y2="310.92" gradientUnits="userSpaceOnUse"><stop offset="0" stop-color="red"/><stop offset="1" stop-color="red" stop-opacity=".2"/></linearGradient><path fill="url(#a)" d="M12.892 522.837L0 521.163c.132-1.02 13.536-113.166 38.763-213.991 14.875-59.447 30.912-106.894 47.667-141.021C108.613 120.965 131.725 99 157.086 99c25.181 0 47.09 21.635 65.118 64.303 13.728 32.49 25.536 77.634 35.097 134.178 16.201 95.825 20.61 180.334 20.651 181.303l-13.146 13.12c-.041-.963-4.266-97.327-20.342-192.358-9.393-55.525-20.917-99.674-34.251-131.22C194.416 130.95 176.541 112 157.086 112c-19.634 0-39.48 20.146-58.987 59.88-16.352 33.306-32.072 79.887-46.725 138.448-25.046 100.101-38.351 211.496-38.482 212.509z"/><path fill="red" d="M445.042 46.023l45.315 21.13L324.601 422.63l-45.315-21.13z" opacity=".5"/><path fill="#333" d="M440.508 43.912l10.875 5.071-169.04 362.52-10.875-5.071zm21.749 10.141l10.876 5.071L307.951 413.37l-10.875-5.071zM484.005 64.2l10.876 5.071-169.04 362.52-10.876-5.071z"/><path fill="#333" d="M465.117 60.025c9.07 4.229 15.715 10.936 18.533 17.789 5.174-1.364 9.244-4.256 11.241-8.541 4.668-10.011-3.722-23.803-18.736-30.805-15.016-7.002-30.974-4.563-35.642 5.447-1.849 3.965-1.644 8.521.205 13.016 6.917-1.822 15.81-.911 24.399 3.094zM289.751 410.612c3.629 0 7.74.985 11.577 2.774 8.084 3.77 11.718 9.282 12.406 12.079l-33.242 32.603 3.604-46.384c1.118-.549 3.028-1.072 5.655-1.072m0-13c-8.271 0-15.207 3.079-18.254 8.842l-.031-.015-.007.084c-.049.094-.104.186-.151.282l.125.059-6.587 84.759 60.695-59.528.125.059c.044-.098.078-.199.119-.298l.06-.059-.031-.015c4.049-9.953-4.284-23.319-18.991-30.178-5.786-2.697-11.71-3.992-17.072-3.992z"/><path fill="red" d="M282.16 474.65l-17.3 16.98 2.27-29.3z"/></svg>