<svg xmlns="http://www.w3.org/2000/svg" width="512" height="512" viewBox="0 0 512 512"><path d="M97.313 128.344c0 8.335-2.554 15.261-7.656 20.781-5.105 5.522-13.179 8.281-24.219 8.281-23.647 0-35.469-14.009-35.469-42.031 0-14.165 2.708-24.712 8.125-31.641 5.415-6.926 14.009-10.391 25.781-10.391 11.665 0 20.259 2.476 25.781 7.422 5.52 4.949 7.813 11.538 6.875 19.766H82.313c.728-3.958.129-7.212-1.797-9.766-1.929-2.551-4.402-4.297-7.422-5.234-3.022-.938-6.46-1.406-10.313-1.406-5.625 0-10.105 2.5-13.438 7.5-3.335 5-5 12.917-5 23.75 0 11.042 1.77 19.011 5.313 23.906 3.54 4.897 8.853 7.344 15.938 7.344 6.145 0 10.598-1.899 13.359-5.703 2.759-3.801 4.141-7.993 4.141-12.578h14.219zm140.156 27.031h-14.375v-51.719c0-6.353-1.511-11.301-4.531-14.844-3.022-3.54-7.554-5.313-13.594-5.313-5.522 0-10.313 2.188-14.375 6.563s-6.094 8.906-6.094 13.594v51.719h-14.375v-51.719c0-5.415-1.641-10.129-4.922-14.141-3.281-4.009-7.578-6.016-12.891-6.016-5.835 0-10.859 2.214-15.078 6.641-4.219 4.429-6.328 8.933-6.328 13.516v51.719h-14.375v-80h14.375v11.094c6.353-8.75 14.27-13.125 23.75-13.125 7.395 0 13.02 1.094 16.875 3.281 3.853 2.188 7.29 5.835 10.313 10.938 6.77-9.478 15.415-14.219 25.938-14.219 19.79 0 29.688 10.105 29.688 30.313v51.718zm84.054-67.482c0 7.11-2.677 13.028-8.027 17.754-5.352 4.728-12.129 7.09-20.332 7.09-9.063 0-15.938-2.42-20.625-7.266-4.688-4.843-7.031-10.585-7.031-17.227h12.773c.938 10.157 6.016 15.234 15.234 15.234 4.062 0 7.753-1.465 11.074-4.395 3.32-2.93 4.98-6.308 4.98-10.137 0-12.343-8.086-18.398-24.258-18.164v-9.609c7.5 0 13.184-1.289 17.051-3.867s5.801-6.756 5.801-12.539c0-4.53-1.582-7.793-4.746-9.785s-6.582-2.988-10.254-2.988c-7.423 0-11.993 5-13.711 15h-12.188c1.015-7.811 3.71-13.808 8.086-17.988 4.375-4.178 10.234-6.27 17.578-6.27 8.046 0 14.59 2.168 19.629 6.504s7.559 9.785 7.559 16.348c0 2.736-.567 5.273-1.699 7.617-1.133 2.344-2.52 4.201-4.16 5.566a89.653 89.653 0 0 1-5.156 3.984c-1.798 1.289-3.321 2.247-4.57 2.871.546.313 1.718.938 3.516 1.875 1.797.938 3.32 1.857 4.57 2.754 1.249.899 2.637 2.129 4.16 3.691 1.523 1.564 2.695 3.516 3.516 5.859s1.23 5.041 1.23 8.088z"/><path fill="#1a171b" d="M179.21 482L482 418.28V183.33L335.98 317.77l-156.77-38.34z" opacity=".2"/><linearGradient id="a" x1="179.21" x2="482" y1="332.67" y2="332.67" gradientUnits="userSpaceOnUse"><stop offset="0" stop-color="#fff"/><stop offset="1"/></linearGradient><path fill="url(#a)" d="M179.21 482L482 418.28V183.33L335.98 317.77l-156.77-38.34z" opacity=".5"/><path fill="#1a171b" d="M108.74 256l75.56 33v185l-75.56-30z" opacity=".2"/><linearGradient id="b" x1="86.76" x2="206.28" y1="351.2" y2="378.8" gradientUnits="userSpaceOnUse"><stop offset="0" stop-color="#fff"/><stop offset="1"/></linearGradient><path fill="url(#b)" d="M108.74 256l75.56 33v185l-75.56-30z" opacity=".4"/><path fill="#1a171b" d="M270.73 292.33l70.8 33.48 129.99-132.83-71.26-35.57z" opacity=".2"/><path fill="#1a171b" d="M108.74 256l161.99 36.33 70.8 33.48L184.3 289z" opacity=".2"/><linearGradient id="c" x1="108.74" x2="341.53" y1="290.9" y2="290.9" gradientUnits="userSpaceOnUse"><stop offset="0" stop-color="#fff"/><stop offset=".03" stop-color="#e8e8e8"/><stop offset=".1" stop-color="#b8b8b8"/><stop offset=".17" stop-color="#8c8c8c"/><stop offset=".25" stop-color="#666"/><stop offset=".33" stop-color="#474747"/><stop offset=".42" stop-color="#2d2d2d"/><stop offset=".52" stop-color="#191919"/><stop offset=".63" stop-color="#0b0b0b"/><stop offset=".76" stop-color="#020202"/><stop offset="1"/></linearGradient><path fill="url(#c)" d="M108.74 256l161.99 36.33 70.8 33.48L184.3 289z" opacity=".5"/><path fill="#1a171b" d="M469 203.138v204.596L192.21 465.98V295.995l140.684 34.404 7.106 1.738 5.174-5.174L469 203.138m13-19.805l-10.467-1.063-135.552 135.501-156.771-38.338V482L482 418.282V183.333z"/><path fill="#1a171b" d="M107.358 437.045l76.93 32.999-5.125 11.947-76.93-32.999zm.002-189.665l76.929 32.999-5.125 11.947-76.93-32.999zm229.04 78.43l-76.93-33 7.67-10.86 74.39 31.91zm140.48-130.53l-76.94-33 .92-13.99L482 183.33z"/><path fill="#1a171b" d="M102.24 247.39h13v201.58h-13zm168.3 49.54l-9.19-9.19 139.51-139.45 6.64 11.68z"/><path fill="#1a171b" d="M267.69 296.22l-165.45-39.53V243.1l168.49 40.47z"/></svg>