<svg xmlns="http://www.w3.org/2000/svg" width="512" height="512" viewBox="0 0 512 512"><path fill="#fff" stroke="#000" stroke-miterlimit="10" stroke-width="13" d="M298.77 426.17l41.12-20.56-68.54-140.52 85.68-8.57-188.5-164.51-3.42 258.76 63.4-65.12z"/><path fill="#666" d="M75.378 439.352l176.474-59.098S225.1 287.5 121.3 259L75.378 439.352z" opacity=".2"/><path fill="none" stroke="#666" stroke-miterlimit="10" stroke-width="13" d="M75.378 439.352l176.474-59.098S225.1 287.5 121.3 259L75.378 439.352z"/><path fill="#666" d="M149.162 386.185c-8.7 0-16.673-4.267-21.107-11.738l-.055-.095c-10.538-18.682-4.697-41.619 6.758-52.158 8.512-7.83 19.37-8.577 29.046-2.002l.229.165c4.484 3.432 7.683 7.421 10.058 11.743 2.521-7.033 4.618-9.866 6.309-12.15.916-1.237 1.375-1.858 1.774-3.086l9.51 3.092c-.903 2.776-2.094 4.387-3.247 5.943-1.903 2.571-4.746 6.411-8.654 22.396.638 2.839 1.176 5.703 1.71 8.546 1.644 8.748 3.197 17.012 7.455 23.715l-8.441 5.361c-2.979-4.691-4.854-9.79-6.234-15.01-4.503 7.93-11.288 12.497-17.808 14.283-2.45.669-4.905.995-7.303.995zm-12.48-16.796c3.34 5.577 10.221 8.051 17.141 6.155 9.803-2.685 15.664-12.654 15.677-26.668l.001-.584c-1.971-7.858-4.948-14.889-11.434-19.907-7.299-4.891-13.019-2.07-16.539 1.168-8.675 7.981-12.685 25.882-4.846 39.836z"/><circle cx="67.8" cy="447.13" r="35" fill="#00f"/><path d="M67.798 420.129c14.889 0 27 12.112 27 27s-12.111 27.001-27 27.001c-14.887 0-27-12.113-27-27.001s12.113-27 27-27m0-13c-22.092 0-40 17.909-40 40s17.908 40.001 40 40.001 40-17.91 40-40.001-17.908-40-40-40z"/></svg>