<?xml version="1.0" encoding="iso-8859-1"?>
<!-- Generator: Adobe Illustrator 15.1.0, SVG Export Plug-In . SVG Version: 6.00 Build 0)  -->
<!DOCTYPE svg PUBLIC "-//W3C//DTD SVG 1.1//EN" "http://www.w3.org/Graphics/SVG/1.1/DTD/svg11.dtd">
<svg version="1.1" xmlns="http://www.w3.org/2000/svg" xmlns:xlink="http://www.w3.org/1999/xlink" x="0px" y="0px" width="512px"
	 height="512px" viewBox="0 0 512 512" style="enable-background:new 0 0 512 512;" xml:space="preserve">
<g id="mode_x5F_mirroratcircle">
	<path style="fill:none;stroke:#000000;stroke-width:13;" d="M126.643-61.979c0,253.774,205.725,459.5,459.5,459.5"/>
	<g>
		<circle style="fill:#0000FF;" cx="115.852" cy="373.521" r="35"/>
		<path d="M115.852,346.521c14.888,0,27,12.112,27,27s-12.112,27.001-27,27.001s-27-12.113-27-27.001
			S100.964,346.521,115.852,346.521 M115.852,333.521c-22.092,0-40,17.909-40,40s17.908,40.001,40,40.001s40-17.91,40-40.001
			S137.944,333.521,115.852,333.521L115.852,333.521z"/>
	</g>
	<g>
		<circle style="fill:#FF0000;" cx="390.217" cy="143.288" r="35"/>
		<path d="M390.217,116.288c14.888,0,27,12.112,27,27c0,14.888-12.112,27.001-27,27.001s-27-12.113-27-27.001
			C363.217,128.4,375.329,116.288,390.217,116.288 M390.217,103.288c-22.092,0-40,17.909-40,40c0,22.091,17.908,40.001,40,40.001
			s40-17.91,40-40.001C430.217,121.197,412.309,103.288,390.217,103.288L390.217,103.288z"/>
	</g>
</g>
<g id="Ebene_1">
</g>
</svg>
