<svg xmlns="http://www.w3.org/2000/svg" viewBox="0 0 512 512" width="512" height="512"><path fill="none" stroke="#000" stroke-width="13" d="M467.92 373.39c0 18-12.62 32.61-28.19 32.61H72.27c-15.57 0-28.19-14.6-28.19-32.61V138.61c0-18 12.62-32.61 28.19-32.61h367.46c15.57 0 28.19 14.6 28.19 32.61v234.78z"/><path d="M251.93 253.52c0 12.873-2.067 24.503-6.2 34.89A57.334 57.334 0 0 1 225.8 314c-9.153 6.667-20.153 10-33 10-12.847 0-23.887-3.333-33.12-10a57.68 57.68 0 0 1-20.1-25.59c-4.193-10.387-6.29-22.017-6.29-34.89 0-19.6 5.047-35.42 15.14-47.46S173.303 188 192.77 188c19.333 0 34.033 6.02 44.1 18.06s15.087 27.86 15.06 47.46zm-18.6 0a89.033 89.033 0 0 0-1.95-19.52 49.384 49.384 0 0 0-6.38-15.63 29.003 29.003 0 0 0-12.57-10.8c-5.433-2.54-11.987-3.81-19.66-3.81-27.16 0-40.737 16.59-40.73 49.77a108.83 108.83 0 0 0 1.15 16.29 64.646 64.646 0 0 0 4.07 14.79 41.736 41.736 0 0 0 7.44 12.22 32.879 32.879 0 0 0 11.69 8.17 44.848 44.848 0 0 0 32.76 0 32.866 32.866 0 0 0 11.69-8.15 40.133 40.133 0 0 0 7.35-12.31 69.64 69.64 0 0 0 4-14.79 107.363 107.363 0 0 0 1.14-16.23zm145.4 68.01h-24.44l-58.8-69.07v69.07h-18.24V190.65h18.24v55.61l54-55.61H372L316.39 247l62.34 74.53z"/></svg>