<svg xmlns="http://www.w3.org/2000/svg" width="512" height="512" viewBox="0 0 512 512"><path fill="#fff" stroke="#999" stroke-width="13" d="M260.915 337.496c0 15.742-12.777 28.504-28.537 28.504H69.452c-15.76 0-28.537-12.762-28.537-28.504V174.504c0-15.742 12.777-28.504 28.537-28.504h162.926c15.76 0 28.537 12.762 28.537 28.504v162.992z"/><path fill="#fff" stroke="#666" stroke-linecap="round" stroke-linejoin="round" stroke-width="26" d="M81.72 285.22l47 40.28 88-133"/><circle cx="397" cy="157.44" r="85" fill="#66f"/><path fill="#fff" d="M397 436.694c-43.285 0-78.5-35.215-78.5-78.5s35.215-78.5 78.5-78.5 78.5 35.215 78.5 78.5-35.215 78.5-78.5 78.5z"/><path fill="#999" d="M397 286.194c39.701 0 72 32.299 72 72s-32.299 72-72 72-72-32.299-72-72 32.299-72 72-72m0-13c-46.944 0-85 38.056-85 85s38.056 85 85 85 85-38.056 85-85-38.056-85-85-85z"/></svg>