<svg xmlns="http://www.w3.org/2000/svg" width="512" height="512" viewBox="0 0 512 512"><path fill="#1a171b" d="M249.5 280h13v25h-13zm0 100h13v132h-13zm0-50h13v25h-13zm0-330h13v255h-13z"/><path fill="red" d="M286 124.072v13.041c16.416 1.57 32.398 4.441 47.77 8.59 23.551 6.357 44.636 15.416 62.669 26.924 35.507 22.659 55.062 52.181 55.062 83.127s-19.555 60.469-55.062 83.128c-18.033 11.508-39.118 20.566-62.669 26.924-24.601 6.64-50.766 10.007-77.77 10.007s-53.169-3.367-77.77-10.007c-23.551-6.357-44.636-15.416-62.669-26.924-35.506-22.66-55.061-52.183-55.061-83.129s19.555-60.468 55.062-83.127c18.033-11.508 39.118-20.566 62.669-26.924 15.371-4.148 31.354-7.02 47.77-8.59v-13.041C125.064 133.355 47.5 188.77 47.5 255.753c0 73.486 93.349 133.059 208.5 133.059s208.5-59.572 208.5-133.059c0-66.983-77.564-122.398-178.5-131.681z"/><circle cx="388" cy="162" r="35" fill="#00f"/><path d="M388 135c14.888 0 27 12.112 27 27s-12.112 27-27 27-27-12.112-27-27 12.112-27 27-27m0-13c-22.092 0-40 17.909-40 40s17.908 40 40 40 40-17.909 40-40-17.908-40-40-40z"/><path fill="red" d="M403.895 161.972c-9.02-.329-11.312 4.147-11.593 8.097 1.394.84 2.776 1.689 4.137 2.557 8.374 5.344 15.848 11.073 22.4 17.109l11.005-7.46c-7.599-7.307-16.299-14.107-25.949-20.303z"/></svg>