<svg id="menu_view_algebra_Kopie" data-name="menu_view_algebra Kopie" xmlns="http://www.w3.org/2000/svg" xmlns:xlink="http://www.w3.org/1999/xlink" width="512" height="512" viewBox="0 0 512 512">
  <defs>
    <style>
      .cls-1, .cls-3 {
        fill: none;
      }

      .cls-2 {
        clip-path: url(#clip-path);
      }

      .cls-3 {
        stroke: #000;
        stroke-miterlimit: 10;
        stroke-width: 30px;
      }
    </style>
    <clipPath id="clip-path">
      <rect class="cls-1" x="27" y="27" width="458" height="458" rx="44.76" ry="44.76"/>
    </clipPath>
  </defs>
  <title>graphing_black</title>
  <g class="cls-2">
    <g>
      <path class="cls-3" d="M44,480.09c41.78-277.92,106.76-516.85,211.79-224C361.69,551.32,423.32,310,468,31.91"/>
      <g>
        <path d="M227,122a63,63,0,1,1-63.05-63A63,63,0,0,1,227,122Z"/>
        <path d="M164,58.91A63,63,0,1,0,227,122,63,63,0,0,0,164,58.91Zm0,107.18A44.14,44.14,0,1,1,208.09,122,44.14,44.14,0,0,1,164,166.09Z"/>
      </g>
      <g>
        <path d="M409.09,391.05a63,63,0,1,1-63-63.05A63,63,0,0,1,409.09,391.05Z"/>
        <path d="M346.05,328a63,63,0,1,0,63,63.05A63.05,63.05,0,0,0,346.05,328Zm0,107.18a44.14,44.14,0,1,1,44.13-44.13A44.14,44.14,0,0,1,346.05,435.18Z"/>
      </g>
    </g>
  </g>
</svg>
