<svg xmlns="http://www.w3.org/2000/svg" width="512" height="512" viewBox="0 0 512 512"><circle cx="331.44" cy="247.59" r="114.62" fill="none" stroke="#000" stroke-width="13"/><path fill="none" stroke="red" stroke-width="13" d="M35.25 530.63L331.44-13.5M-27.22 443l566.44-107.09"/><circle cx="95.37" cy="419.81" r="35" fill="#00f"/><path d="M117.489 404.32c8.538 12.193 5.563 29.064-6.631 37.604-12.195 8.539-29.066 5.564-37.604-6.631-8.54-12.195-5.564-29.064 6.631-37.604 12.194-8.539 29.064-5.565 37.604 6.631m10.649-7.457c-12.671-18.096-37.614-22.493-55.709-9.822-18.096 12.67-22.495 37.613-9.824 55.709 12.672 18.097 37.614 22.493 55.71 9.823 18.095-12.671 22.495-37.613 9.823-55.71z"/></svg>