<?xml version="1.0" encoding="iso-8859-1"?>
<!-- Generator: Adobe Illustrator 15.1.0, SVG Export Plug-In . SVG Version: 6.00 Build 0)  -->
<!DOCTYPE svg PUBLIC "-//W3C//DTD SVG 1.1//EN" "http://www.w3.org/Graphics/SVG/1.1/DTD/svg11.dtd">
<svg version="1.1" xmlns="http://www.w3.org/2000/svg" xmlns:xlink="http://www.w3.org/1999/xlink" x="0px" y="0px" width="512px"
	 height="512px" viewBox="0 0 512 512" style="enable-background:new 0 0 512 512;" xml:space="preserve">
<g id="mode_x5F_distance">
	<g>
		<line style="fill:none;stroke:#000000;stroke-width:13;" x1="68.335" y1="441.205" x2="423.7" y2="127.219"/>
		<polygon points="340.077,143.734 490.64,65.073 394.808,205.333 		"/>
		<polygon points="171.923,407.674 21.36,486.335 117.192,346.075 		"/>
	</g>
	<g>
		<path d="M96.566,128.272c0,8.335-2.554,15.261-7.656,20.781c-5.105,5.522-13.179,8.281-24.219,8.281
			c-23.647,0-35.469-14.009-35.469-42.031c0-14.165,2.708-24.712,8.125-31.641c5.415-6.927,14.009-10.391,25.781-10.391
			c11.665,0,20.259,2.476,25.781,7.422c5.52,4.948,7.813,11.538,6.875,19.766H81.566c0.728-3.958,0.129-7.212-1.797-9.766
			c-1.929-2.552-4.402-4.297-7.422-5.234c-3.022-0.938-6.46-1.406-10.313-1.406c-5.625,0-10.105,2.5-13.438,7.5
			c-3.335,5-5,12.917-5,23.75c0,11.042,1.77,19.011,5.313,23.906c3.54,4.897,8.853,7.344,15.938,7.344
			c6.145,0,10.598-1.899,13.359-5.703c2.759-3.802,4.141-7.993,4.141-12.578H96.566z"/>
		<path d="M236.723,155.304h-14.375v-51.719c0-6.353-1.512-11.302-4.531-14.844c-3.022-3.54-7.554-5.313-13.594-5.313
			c-5.522,0-10.313,2.188-14.375,6.563s-6.094,8.906-6.094,13.594v51.719h-14.375v-51.719c0-5.415-1.641-10.13-4.922-14.141
			c-3.281-4.009-7.578-6.016-12.891-6.016c-5.835,0-10.859,2.214-15.078,6.641c-4.219,4.429-6.328,8.933-6.328,13.516v51.719
			h-14.375v-80h14.375v11.094c6.353-8.75,14.27-13.125,23.75-13.125c7.395,0,13.02,1.094,16.875,3.281
			c3.853,2.188,7.29,5.835,10.313,10.938c6.77-9.478,15.415-14.219,25.938-14.219c19.79,0,29.688,10.104,29.688,30.313V155.304z"/>
	</g>
</g>
<g id="Ebene_1">
</g>
</svg>
