<?xml version="1.0" encoding="utf-8"?>
<!-- Generator: Adobe Illustrator 23.0.2, SVG Export Plug-In . SVG Version: 6.00 Build 0)  -->
<svg version="1.1"
     id="svg4326" inkscape:export-filename="/Users/erik/Code/graspable-math/gm-apps/shared/imgs/path4338.png"
     inkscape:export-xdpi="886.83606" inkscape:export-ydpi="886.83606" inkscape:version="0.91+devel+osxmenu r12844"
     sodipodi:docname="gm-logo.svg"
     xmlns:inkscape="http://www.inkscape.org/namespaces/inkscape"
     xmlns:sodipodi="http://sodipodi.sourceforge.net/DTD/sodipodi-0.dtd"
     xmlns="http://www.w3.org/2000/svg" x="0px" y="0px" viewBox="0 0 120 120"
     style="enable-background:new 0 0 120 120;" xml:space="preserve">
<style type="text/css">
	.st0{fill:none;stroke:#000000;stroke-width:3;stroke-miterlimit:10;}
</style>
<sodipodi:namedview  bordercolor="#666666" borderopacity="1" fit-margin-bottom="0.5" fit-margin-left="0.5" fit-margin-right="0.5" fit-margin-top="0.5" gridtolerance="10" guidetolerance="10" id="namedview4328" inkscape:current-layer="g4336" inkscape:cx="89.545407" inkscape:cy="15.012781" inkscape:pageopacity="0" inkscape:pageshadow="2" inkscape:window-height="995" inkscape:window-maximized="0" inkscape:window-width="1502" inkscape:window-x="253" inkscape:window-y="44" inkscape:zoom="2.8284271" objecttolerance="10" pagecolor="#ffffff" showgrid="false">
	</sodipodi:namedview>
<path id="path4338" inkscape:connector-curvature="0" sodipodi:nodetypes="ccsccccccc" d="M36,68.5L18.4,90
	c-0.7,0.8-1.1,1.4-1.1,2.4c0,1.6,1.1,2.9,2.6,3.1c0,0,0,0,0.1,0h0.1c0.1,0,10.3,0,10.3,0s2,0,2.9-0.6s2.5-2.6,2.5-2.6l10-12.4"/>
<path id="path4340" inkscape:connector-curvature="0" sodipodi:nodetypes="ccccc" class="st0" d="M101,24.8l-37.7,34l8.6,9.5
	c0,0,25.5-35.4,30.9-42.7C103.2,25,102.1,23.7,101,24.8"/>
<path id="path4344" inkscape:connector-curvature="0" sodipodi:nodetypes="ccscsccccssc" class="st0" d="M50.5,85.9
	c1.8,2.1,3.1,2.9,4.5,2.8c1.9-0.1,2.8-0.7,4.5-2.5c1.8-1.8,4.7-6.3,4.7-6.3s-29.7-35.2-31-36.4c-0.7-0.7-2.9-0.6-2.9-0.6
	s-10.2,0-10.3,0h-0.1c0,0,0,0-0.1,0c-1.5,0.3-2.6,1.6-2.6,3.1c0,1,0.5,1.6,1.1,2.4C18.4,48.5,41.7,75.2,50.5,85.9z"/>
<path id="path4348" inkscape:connector-curvature="0" sodipodi:nodetypes="cscscscccccsc" d="M91.7,90c0,0-23.4-28.5-32.1-39.2
	c-1.8-2.2-3.1-2.9-4.5-2.8c-1.9,0-2.9,0.5-4.5,2.5l-5.4,7l28.6,34.9c0.8,0.9,1.6,2,2.5,2.6s2.9,0.6,2.9,0.6s10.7,0,10.9,0h0.1
	c0,0,0,0,0.1,0c1.5-0.3,2.6-1.6,2.6-3.1C92.8,91.4,92.4,90.8,91.7,90"/>
</svg>
