<svg xmlns="http://www.w3.org/2000/svg" width="512" height="512" viewBox="0 0 512 512"><path stroke="#000" stroke-miterlimit="10" stroke-width="13" d="M246.269 240.482l23.389-132.644s28.168-23.137 46.724 8.239l-23.389 132.644"/><path stroke="#000" stroke-miterlimit="10" stroke-width="13" d="M340.575 320.397c-2.275 12.902-165.81-15.934-163.534-28.836l6.703-38.017c2.275-12.901 14.579-21.517 27.481-19.241l116.81 20.597c12.903 2.275 21.519 14.579 19.243 27.48l-6.703 38.017z"/><path fill="#ccc" stroke="#000" stroke-width="13" d="M177.041 291.562s-2.214 55.816-35.649 86.053c-33.434 30.237 158.682 47.251 168.207 29.659 9.525-17.591 30.977-86.876 30.977-86.876s-69.192 3.055-163.535-28.836z"/><path fill="#00f" d="M309.599 407.273c3.737-6.9 9.308-21.756 14.701-37.264-3.743.172-7.579 1.076-10.958 2.374-11.689 4.488-10.938 11.942-20.145 9.516-9.208-2.427-5.454-14.611-10.951-24.413-5.499-9.803-9.942-7.374-29.636 13.241-19.694 20.616-20.934.324-21.97-41.612s-8.636-7.945-25.032 7.631-14.152 11.957-24.37-7.51c-2.458-4.681-5.932-5.82-9.791-4.858-4.807 17.511-13.689 38.437-30.055 53.236-33.434 30.238 158.682 47.251 168.207 29.659z" opacity=".4"/><path fill="none" stroke="#00f" stroke-miterlimit="10" stroke-width="13" d="M309.599 407.273c3.737-6.9 9.308-21.756 14.701-37.264-3.743.172-7.579 1.076-10.958 2.374-11.689 4.488-10.938 11.942-20.145 9.516-9.208-2.427-5.454-14.611-10.951-24.413-5.499-9.803-9.942-7.374-29.636 13.241-19.694 20.616-20.934.324-21.97-41.612s-8.636-7.945-25.032 7.631-14.152 11.957-24.37-7.51c-2.458-4.681-5.932-5.82-9.791-4.858-4.807 17.511-13.689 38.437-30.055 53.236-33.434 30.238 158.682 47.251 168.207 29.659z"/></svg>