<?xml version="1.0" encoding="iso-8859-1"?>
<!-- Generator: Adobe Illustrator 15.1.0, SVG Export Plug-In . SVG Version: 6.00 Build 0)  -->
<!DOCTYPE svg PUBLIC "-//W3C//DTD SVG 1.1//EN" "http://www.w3.org/Graphics/SVG/1.1/DTD/svg11.dtd">
<svg version="1.1" xmlns="http://www.w3.org/2000/svg" xmlns:xlink="http://www.w3.org/1999/xlink" x="0px" y="0px" width="512px"
	 height="512px" viewBox="0 0 512 512" style="enable-background:new 0 0 512 512;" xml:space="preserve">
<g id="mode_x5F_segmentfixed">
	<line style="fill:none;stroke:#FF0000;stroke-width:13;" x1="120" y1="350.301" x2="392" y2="160.964"/>
	<g>
		<circle style="fill:#FF0000;" cx="392" cy="160.964" r="35"/>
		<path d="M392,133.964c14.887,0,27,12.113,27,27c0,14.888-12.113,27.001-27,27.001c-14.889,0-27-12.113-27-27.001
			C365,146.077,377.111,133.964,392,133.964 M392,120.964c-22.092,0-40,17.91-40,40c0,22.091,17.908,40.001,40,40.001
			s40-17.91,40-40.001C432,138.874,414.092,120.964,392,120.964L392,120.964z"/>
	</g>
	<g>
		<circle style="fill:#0000FF;" cx="120" cy="350.301" r="35"/>
		<path d="M120,323.301c14.888,0,27,12.113,27,27c0,14.888-12.112,27.001-27,27.001s-27-12.113-27-27.001
			C93,335.414,105.112,323.301,120,323.301 M120,310.301c-22.091,0-40,17.91-40,40c0,22.091,17.909,40.001,40,40.001
			c22.092,0,40-17.91,40-40.001C160,328.211,142.092,310.301,120,310.301L120,310.301z"/>
	</g>
	<g id="text3813" transform="scale(1.0197712,0.98061212)">
		<path id="path2988" style="fill:#666666;" d="M228.931,211.995h-17.196c-1.37-7.227-2.118-11.9-2.243-14.018
			c-3.24,3.862-5.856,6.76-7.85,8.691c-1.994,1.931-4.859,3.707-8.598,5.327c-3.738,1.62-7.975,2.43-12.71,2.43
			c-9.096,0-17.476-2.461-25.139-7.383c-7.663-4.922-11.494-11.682-11.494-20.279c0-5.607,1.09-10.529,3.271-14.766
			c2.181-4.236,4.984-7.632,8.411-10.186c3.426-2.554,7.507-4.641,12.242-6.262c4.735-1.62,9.345-2.71,13.831-3.271
			c4.486-0.561,9.221-0.841,14.205-0.841c1.495,0.001,3.676,0.063,6.542,0.187c2.866,0.124,5.047,0.187,6.542,0.187
			c1.62-7.352,0.685-13.395-2.804-18.13c-3.489-4.735-9.408-7.103-17.756-7.103c-5.856,0-10.903,1.246-15.14,3.738
			c-4.237,2.492-6.355,6.417-6.355,11.775h-17.756c0-18.815,12.834-28.223,38.502-28.223c20.311,0,32.584,5.421,36.821,16.261
			c1.495,3.489,2.243,13.582,2.243,30.279v16.635C226.501,195.609,227.311,207.26,228.931,211.995L228.931,211.995z
			 M208.558,164.895c-6.355-0.374-9.657-0.561-9.906-0.561c-3.614,0-7.289,0.28-11.028,0.841c-3.738,0.561-7.726,1.495-11.962,2.803
			c-4.237,1.309-7.663,3.395-10.28,6.262c-2.617,2.866-3.925,6.292-3.925,10.28c0,5.233,1.869,9.408,5.607,12.523
			c3.738,3.115,8.224,4.673,13.457,4.673c10.965,0,18.379-3.209,22.242-9.626C206.627,185.673,208.558,176.607,208.558,164.895
			L208.558,164.895z"/>
	</g>
</g>
<g id="Ebene_1">
</g>
</svg>
