<?xml version="1.0" encoding="iso-8859-1"?>
<!-- Generator: Adobe Illustrator 15.1.0, SVG Export Plug-In . SVG Version: 6.00 Build 0)  -->
<!DOCTYPE svg PUBLIC "-//W3C//DTD SVG 1.1//EN" "http://www.w3.org/Graphics/SVG/1.1/DTD/svg11.dtd">
<svg version="1.1" xmlns="http://www.w3.org/2000/svg" xmlns:xlink="http://www.w3.org/1999/xlink" x="0px" y="0px" width="512px"
	 height="512px" viewBox="0 0 512 512" style="enable-background:new 0 0 512 512;" xml:space="preserve">
<g id="mode_x5F_regularpolygon">
	<polygon style="opacity:0.2;fill:#993300;" points="83.114,351.354 99.308,131.269 313.627,78.66 429.887,266.231 287.422,434.766 
			"/>
	<polygon style="fill:none;stroke:#993300;stroke-width:13;stroke-miterlimit:10;" points="83.114,351.354 99.308,131.269 
		313.627,78.66 429.887,266.231 287.422,434.766 	"/>
	<g>
		<circle style="fill:#0000FF;" cx="286.668" cy="432.34" r="35"/>
		<path d="M308.786,416.854c8.537,12.193,5.563,29.064-6.631,37.604c-12.195,8.539-29.066,5.564-37.605-6.631
			s-5.564-29.064,6.631-37.604S300.245,404.658,308.786,416.854 M319.435,409.396c-12.672-18.096-37.615-22.492-55.709-9.822
			c-18.096,12.67-22.496,37.613-9.824,55.709c12.672,18.098,37.613,22.494,55.709,9.824
			C327.706,452.436,332.106,427.494,319.435,409.396L319.435,409.396z"/>
	</g>
	<g>
		<circle style="fill:#0000FF;" cx="83.114" cy="352.333" r="35"/>
		<path d="M105.232,336.847c8.537,12.193,5.563,29.064-6.631,37.604c-12.195,8.539-29.066,5.564-37.605-6.631
			s-5.564-29.064,6.631-37.604S96.691,324.651,105.232,336.847 M115.88,329.39c-12.672-18.096-37.615-22.492-55.709-9.822
			c-18.096,12.67-22.496,37.613-9.824,55.709c12.672,18.098,37.613,22.494,55.709,9.824
			C124.152,372.429,128.552,347.487,115.88,329.39L115.88,329.39z"/>
	</g>
	<g>
		<circle style="fill:#FF0000;" cx="99.696" cy="132.188" r="35"/>
		<path d="M121.814,116.702c8.537,12.193,5.563,29.064-6.631,37.604c-12.195,8.539-29.066,5.564-37.605-6.631
			s-5.564-29.064,6.631-37.604S113.273,104.507,121.814,116.702 M132.462,109.245c-12.672-18.096-37.615-22.492-55.709-9.822
			c-18.096,12.67-22.496,37.613-9.824,55.709c12.672,18.098,37.613,22.494,55.709,9.824
			C140.734,152.284,145.134,127.343,132.462,109.245L132.462,109.245z"/>
	</g>
	<g>
		<circle style="fill:#FF0000;" cx="312.668" cy="79.659" r="35"/>
		<path d="M334.786,64.172c8.537,12.193,5.563,29.064-6.631,37.604c-12.195,8.539-29.066,5.564-37.605-6.631
			s-5.564-29.064,6.631-37.604S326.245,51.977,334.786,64.172 M345.435,56.715c-12.672-18.096-37.615-22.492-55.709-9.822
			c-18.096,12.67-22.496,37.613-9.824,55.709c12.672,18.098,37.613,22.494,55.709,9.824
			C353.706,99.754,358.106,74.813,345.435,56.715L345.435,56.715z"/>
	</g>
	<g>
		<circle style="fill:#FF0000;" cx="428.887" cy="265.329" r="34.999"/>
		<path d="M451.005,249.843c8.537,12.193,5.563,29.064-6.631,37.603c-12.195,8.539-29.066,5.564-37.605-6.631
			s-5.564-29.064,6.631-37.603S442.464,237.648,451.005,249.843 M461.653,242.386c-12.672-18.096-37.615-22.492-55.709-9.822
			c-18.096,12.67-22.496,37.613-9.824,55.708c12.672,18.098,37.613,22.494,55.709,9.824
			C469.925,285.425,474.325,260.483,461.653,242.386L461.653,242.386z"/>
	</g>
</g>
<g id="Ebene_1">
</g>
</svg>
