<svg xmlns="http://www.w3.org/2000/svg" viewBox="0 0 24 24"><defs><style>.cls-1{fill:#fff;}.cls-2{fill:none;}.cls-3{fill:#666;}</style></defs><title>mode_pen_white copy</title><g id="mode_pen_white"><path class="cls-1" d="M0,0V24H24V0ZM6.75,21H3V17.25L14.06,6.19l3.75,3.75Z"/><path class="cls-2" d="M22.68,0h24V24h-24Z"/><path class="cls-2" d="M22.68,0h24V24h-24Z"/><path class="cls-3" d="M20.71,7a1,1,0,0,0,0-1.41L18.37,3.29a1,1,0,0,0-1.41,0L15.13,5.12l3.75,3.75Z"/><path class="cls-3" d="M14.06,6.19,3,17.25V21H6.75L17.81,9.94ZM6.35,20H4V17.65l10-10L16.4,9.94Z"/></g></svg>