<svg id="Layer_2" xmlns="http://www.w3.org/2000/svg" viewBox="0 0 906.35 445.14"><defs><style>.cls-1,.cls-2{fill:#fbc02d}.cls-3,.cls-4,.cls-5{fill:#1c1c1f}.cls-2,.cls-6,.cls-7{stroke:#1c1c1f;stroke-miterlimit:10}.cls-6{stroke-dasharray:0 0 30 15}.cls-6,.cls-7{fill:none}.cls-4{font-family:Roboto-Regular,Roboto;font-size:10px}.cls-5{font-family:Roboto-Medium,Roboto;font-size:12px}</style></defs><g id="Layer_2-2"><path class="cls-1" d="m730.37 420.7 23.1-2.07C735.5 263.98 607.7 144.08 452.66 144.08S169.77 264.03 151.84 418.72l24.65 2.21c18.21-140.79 135.25-249.41 276.96-249.41s258.63 108.5 276.93 249.18Z"/><path class="cls-1" d="m475.94 157.54-22.76 23-22.76-23 22.76-23 22.76 23z"/><g id="bottom_scale"><path class="cls-3" d="M52.95 431.14h1v14h-1zM77.91 431.14h1v14h-1zM57.94 437.14h1v8h-1zM62.93 437.14h1v8h-1zM67.92 437.14h1v8h-1zM72.91 437.14h1v8h-1zM82.91 437.14h1v8h-1zM87.91 437.14h1v8h-1zM102.91 431.14h1v14h-1zM92.91 437.14h1v8h-1zM97.91 437.14h1v8h-1zM127.88 431.14h1v14h-1zM107.91 437.14h1v8h-1zM112.9 437.14h1v8h-1zM117.89 437.14h1v8h-1zM122.88 437.14h1v8h-1zM132.88 437.14h1v8h-1zM137.88 437.14h1v8h-1zM152.88 431.14h1v14h-1zM142.88 437.14h1v8h-1zM147.88 437.14h1v8h-1zM177.84 431.14h1v14h-1zM157.87 437.14h1v8h-1zM162.86 437.14h1v8h-1zM167.85 437.14h1v8h-1zM172.84 437.14h1v8h-1zM182.84 437.14h1v8h-1zM187.84 437.14h1v8h-1zM202.84 431.14h1v14h-1zM192.84 437.14h1v8h-1zM197.84 437.14h1v8h-1zM227.81 431.14h1v14h-1zM207.84 437.14h1v8h-1zM212.83 437.14h1v8h-1zM217.82 437.14h1v8h-1zM222.81 437.14h1v8h-1zM232.81 437.14h1v8h-1zM237.81 437.14h1v8h-1zM252.81 431.14h1v14h-1zM242.81 437.14h1v8h-1zM247.81 437.14h1v8h-1zM277.78 431.14h1v14h-1zM257.8 437.14h1v8h-1zM262.79 437.14h1v8h-1zM267.78 437.14h1v8h-1zM272.78 437.14h1v8h-1zM282.78 437.14h1v8h-1zM287.78 437.14h1v8h-1zM302.78 431.14h1v14h-1zM292.78 437.14h1v8h-1zM297.78 437.14h1v8h-1zM327.74 431.14h1v14h-1zM307.77 437.14h1v8h-1zM312.76 437.14h1v8h-1zM317.75 437.14h1v8h-1zM322.74 437.14h1v8h-1zM332.74 437.14h1v8h-1zM337.74 437.14h1v8h-1zM352.74 431.14h1v14h-1zM342.74 437.14h1v8h-1zM347.74 437.14h1v8h-1zM377.71 431.14h1v14h-1zM357.73 437.14h1v8h-1zM362.72 437.14h1v8h-1zM367.72 437.14h1v8h-1zM372.71 437.14h1v8h-1zM382.71 437.14h1v8h-1zM387.71 437.14h1v8h-1zM402.71 431.14h1v14h-1zM392.71 437.14h1v8h-1zM397.71 437.14h1v8h-1zM427.67 431.14h1v14h-1zM407.7 437.14h1v8h-1zM412.69 437.14h1v8h-1zM417.68 437.14h1v8h-1zM422.67 437.14h1v8h-1zM432.67 437.14h1v8h-1zM437.67 437.14h1v8h-1zM452.67 431.14h1v14h-1zM442.67 437.14h1v8h-1zM447.67 437.14h1v8h-1zM477.65 431.14h1v14h-1zM457.66 437.14h1v8h-1zM462.65 437.14h1v8h-1zM467.65 437.14h1v8h-1zM472.65 437.14h1v8h-1zM482.65 437.14h1v8h-1zM487.65 437.14h1v8h-1zM502.65 431.14h1v14h-1zM492.65 437.14h1v8h-1zM497.65 437.14h1v8h-1zM527.61 431.14h1v14h-1zM507.64 437.14h1v8h-1zM512.63 437.14h1v8h-1zM517.62 437.14h1v8h-1zM522.61 437.14h1v8h-1zM532.61 437.14h1v8h-1zM537.61 437.14h1v8h-1zM552.61 431.14h1v14h-1zM542.61 437.14h1v8h-1zM547.61 437.14h1v8h-1zM577.58 431.14h1v14h-1zM557.6 437.14h1v8h-1zM562.59 437.14h1v8h-1zM567.59 437.14h1v8h-1zM572.58 437.14h1v8h-1zM582.58 437.14h1v8h-1zM587.58 437.14h1v8h-1zM602.58 431.14h1v14h-1zM592.58 437.14h1v8h-1zM597.58 437.14h1v8h-1zM627.54 431.14h1v14h-1zM607.57 437.14h1v8h-1zM612.56 437.14h1v8h-1zM617.55 437.14h1v8h-1zM622.54 437.14h1v8h-1zM632.54 437.14h1v8h-1zM637.54 437.14h1v8h-1zM652.54 431.14h1v14h-1zM642.54 437.14h1v8h-1zM647.54 437.14h1v8h-1zM677.51 431.14h1v14h-1zM657.53 437.14h1v8h-1zM662.52 437.14h1v8h-1zM667.52 437.14h1v8h-1zM672.51 437.14h1v8h-1zM682.51 437.14h1v8h-1zM687.51 437.14h1v8h-1zM702.51 431.14h1v14h-1zM692.51 437.14h1v8h-1zM697.51 437.14h1v8h-1zM727.47 431.14h1v14h-1zM707.5 437.14h1v8h-1zM712.49 437.14h1v8h-1zM717.48 437.14h1v8h-1zM722.47 437.14h1v8h-1zM732.47 437.14h1v8h-1zM737.47 437.14h1v8h-1zM752.47 431.14h1v14h-1zM742.47 437.14h1v8h-1zM747.47 437.14h1v8h-1zM777.44 431.14h1v14h-1zM757.46 437.14h1v8h-1zM762.46 437.14h1v8h-1zM767.45 437.14h1v8h-1zM772.44 437.14h1v8h-1zM782.44 437.14h1v8h-1zM787.44 437.14h1v8h-1zM802.44 431.14h1v14h-1zM792.44 437.14h1v8h-1zM797.44 437.14h1v8h-1zM827.4 431.14h1v14h-1zM807.43 437.14h1v8h-1zM812.42 437.14h1v8h-1zM817.41 437.14h1v8h-1zM822.4 437.14h1v8h-1zM832.4 437.14h1v8h-1zM837.4 437.14h1v8h-1zM852.4 431.14h1v14h-1zM842.4 437.14h1v8h-1zM847.4 437.14h1v8h-1z"/><text class="cls-5" transform="rotate(-180 28.43 210.05)"><tspan x="0" y="0">8</tspan></text><text class="cls-5" transform="rotate(-180 428.155 210.045)"><tspan x="0" y="0">8</tspan></text><text class="cls-5" transform="rotate(-180 53.41 210.05)"><tspan x="0" y="0">7</tspan></text><text class="cls-5" transform="rotate(-180 403.175 210.045)"><tspan x="0" y="0">7</tspan></text><text class="cls-5" transform="rotate(-180 78.395 210.05)"><tspan x="0" y="0">6</tspan></text><text class="cls-5" transform="rotate(-180 378.19 210.045)"><tspan x="0" y="0">6</tspan></text><text class="cls-5" transform="rotate(-180 103.38 210.05)"><tspan x="0" y="0">5</tspan></text><text class="cls-5" transform="rotate(-180 353.21 210.045)"><tspan x="0" y="0">5</tspan></text><text class="cls-5" transform="rotate(-180 128.36 210.05)"><tspan x="0" y="0">4</tspan></text><text class="cls-5" transform="rotate(-180 328.225 210.045)"><tspan x="0" y="0">4</tspan></text><text class="cls-5" transform="rotate(-180 153.345 210.05)"><tspan x="0" y="0">3</tspan></text><text class="cls-5" transform="rotate(-180 303.245 210.045)"><tspan x="0" y="0">3</tspan></text><text class="cls-5" transform="rotate(-180 178.325 210.05)"><tspan x="0" y="0">2</tspan></text><text class="cls-5" transform="rotate(-180 278.26 210.045)"><tspan x="0" y="0">2</tspan></text><text class="cls-5" transform="rotate(-180 203.31 210.05)"><tspan x="0" y="0">1</tspan></text><text class="cls-5" transform="rotate(-180 253.28 210.045)"><tspan x="0" y="0">1</tspan></text><text class="cls-5" transform="rotate(-180 228.295 210.05)"><tspan x="0" y="0">0</tspan></text></g><path class="cls-3" d="M452.66 237.06h1v170.96h-1zM452.68.72h1v128.29h-1z"/><g id="half_circle"><path class="cls-7" d="m210.88 419.17 17.46 1.84M211.36 414.95l17.43 2.14M211.92 410.73l17.38 2.45M212.55 406.53l17.33 2.74M214.02 398.15l17.24 3.35M214.87 393.99l17.17 3.65M215.79 389.83l17.11 3.95M216.78 385.7l17.04 4.25M218.99 377.49l16.87 4.83M220.19 373.41l16.79 5.13M221.47 369.35l16.7 5.43M222.82 365.32l16.6 5.72M225.73 357.33l16.39 6.29M227.29 353.37l16.27 6.58M228.91 349.45l16.16 6.85M230.61 345.55l16.04 7.14M234.2 337.84l15.78 7.69M236.1 334.03l15.64 7.97M238.06 330.26l15.5 8.24M240.09 326.53l15.36 8.51M244.35 319.16l15.04 9.04M246.57 315.54l14.88 9.3M248.85 311.95l14.72 9.56M251.2 308.4l14.55 9.82M256.08 301.44l14.2 10.32M258.61 298.02l14.01 10.56M261.19 294.65l13.84 10.8M263.84 291.32l13.64 11.05M269.31 284.8l13.25 11.52M272.12 281.62l13.05 11.75M275 278.49l12.84 11.97M277.92 275.4l12.63 12.19M283.94 269.39l12.19 12.62M287.02 266.46l11.97 12.84M290.16 263.59l11.74 13.04M293.34 260.77l11.52 13.25M299.86 255.3l11.04 13.65M303.18 252.66l10.81 13.83M306.56 250.07l10.56 14.02M309.97 247.54l10.32 14.2M316.94 242.66l9.82 14.56M320.49 240.32l9.56 14.72M324.07 238.03l9.3 14.89M327.7 235.81l9.04 15.05M335.06 231.56l8.51 15.35M338.8 229.53l8.24 15.5M342.57 227.56l7.97 15.65M346.38 225.67l7.69 15.78M354.08 222.07l7.14 16.04M357.98 220.38l6.86 16.16M361.91 218.75l6.58 16.28M365.87 217.19l6.29 16.39M373.86 214.28l5.71 16.6M377.89 212.93l5.43 16.7M381.95 211.66l5.13 16.78M386.02 210.45l4.84 16.87M394.24 208.25l4.24 17.03M398.37 207.26l3.95 17.1M402.52 206.33l3.65 17.18M406.69 205.49l3.35 17.23M415.06 204.01l2.75 17.34M419.27 203.38l2.44 17.39M423.48 202.83l2.14 17.42M427.71 202.35l1.83 17.45M436.18 201.6l1.23 17.52M440.43 201.34l.91 17.53M444.67 201.16l.62 17.54M448.92 201.05l.31 17.55M457.43 201.05l-.31 17.55M461.68 201.16l-.61 17.54M465.93 201.34l-.92 17.53M470.17 201.6l-1.22 17.52M478.64 202.35l-1.83 17.45M482.87 202.83l-2.14 17.42M487.08 203.38l-2.44 17.39M491.29 204.01l-2.75 17.34M499.66 205.49l-3.35 17.23M503.83 206.33l-3.65 17.18M507.98 207.26l-3.95 17.1M512.11 208.25l-4.24 17.03M520.33 210.45l-4.84 16.87M524.41 211.66l-5.14 16.78M528.46 212.93l-5.42 16.7M532.49 214.28l-5.71 16.6M540.48 217.19l-6.29 16.39M544.44 218.75l-6.58 16.28M548.37 220.38l-6.86 16.16M552.27 222.07l-7.14 16.04M559.98 225.67l-7.7 15.78M563.78 227.56l-7.97 15.65M567.55 229.53l-8.24 15.5M571.29 231.56l-8.51 15.35M578.65 235.81l-9.04 15.05M582.28 238.03l-9.3 14.89M585.87 240.32l-9.57 14.72M589.41 242.66l-9.82 14.56M596.38 247.54l-10.32 14.2M599.79 250.07l-10.56 14.02M603.17 252.66l-10.81 13.83M606.5 255.3l-11.05 13.65M613.01 260.77l-11.52 13.25M616.19 263.59l-11.74 13.04M619.33 266.46l-11.97 12.84M622.41 269.39l-12.19 12.62M628.43 275.4l-12.63 12.19M631.35 278.49l-12.83 11.97M634.23 281.62l-13.05 11.75M637.04 284.8l-13.24 11.52M642.51 291.32l-13.64 11.05M645.16 294.65l-13.84 10.8M647.75 298.02l-14.02 10.56M650.28 301.44l-14.21 10.32M655.15 308.4l-14.55 9.82M657.5 311.95l-14.72 9.56M659.78 315.54l-14.88 9.3M662.01 319.16l-15.05 9.04M666.26 326.53l-15.36 8.51M668.29 330.26l-15.5 8.24M670.25 334.03 654.61 342M672.15 337.84l-15.78 7.69M675.74 345.55l-16.04 7.14M677.44 349.45l-16.16 6.85M679.06 353.37l-16.27 6.58M680.62 357.33l-16.39 6.29M683.53 365.32l-16.6 5.72M684.88 369.35l-16.69 5.43M686.16 373.41l-16.79 5.13M687.37 377.49l-16.88 4.83M689.57 385.7l-17.04 4.25M690.56 389.83l-17.1 3.95M691.48 393.99l-17.17 3.65M692.33 398.15l-17.23 3.35M693.8 406.53l-17.33 2.74M694.43 410.73l-17.38 2.45M694.99 414.95l-17.43 2.14M695.47 419.17l-17.46 1.84M696.8 444.64h-17.55M209.55 444.64h31.59M213.25 402.33l31.12 5.49M224.24 361.31l29.69 10.81M242.19 322.82l27.36 15.8M266.55 288.04l24.2 20.31M296.57 258.01l20.32 24.2M331.36 233.65l15.8 27.36M369.85 215.7l10.81 29.69M410.87 204.71l5.49 31.12M453.18 201.01v31.6M495.48 204.71l-5.49 31.12M536.5 215.7l-10.81 29.7M574.99 233.65l-15.8 27.36M609.78 258.01l-20.31 24.2M639.81 288.04l-24.21 20.31M664.16 322.82l-27.36 15.8M682.11 361.31l-29.69 10.81M693.1 402.33l-31.11 5.49M210.47 423.4l22.74 1.99M217.85 381.58l22.04 5.91M232.37 341.68l20.69 9.64M253.61 304.9l18.69 13.09M280.9 272.37l16.14 16.13M313.44 245.07l13.09 18.69M350.21 223.84l9.65 20.68M390.12 209.31l5.91 22.04M431.94 201.94l1.99 22.73M474.41 201.94l-1.99 22.73M516.23 209.31l-5.9 22.04M556.14 223.84l-9.65 20.68M592.92 245.07l-13.09 18.69M625.45 272.37l-16.14 16.13M652.74 304.9l-18.69 13.09M673.98 341.68l-20.68 9.64M688.5 381.58l-22.04 5.91"/></g><g id="numbers_half_circle"><text class="cls-5" transform="translate(446.86 161.73)"><tspan x="0" y="0">90</tspan></text><text class="cls-5" transform="rotate(10 -695.037 2892.798)"><tspan x="0" y="0">100</tspan></text><text class="cls-5" transform="rotate(20 -230.219 1619.214)"><tspan x="0" y="0">110</tspan></text><text class="cls-5" transform="rotate(30 -73.027 1189.528)"><tspan x="0" y="0">120</tspan></text><text class="cls-5" transform="rotate(40 8.85 971.331)"><tspan x="0" y="0">130</tspan></text><text class="cls-5" transform="rotate(50 56.538 837.907)"><tspan x="0" y="0">140</tspan></text><text class="cls-5" transform="rotate(60 91.349 747.34)"><tspan x="0" y="0">150</tspan></text><text class="cls-5" transform="rotate(70 116.967 680.678)"><tspan x="0" y="0">160</tspan></text><text class="cls-5" transform="rotate(80 136.228 628.568)"><tspan x="0" y="0">170</tspan></text><text class="cls-5" transform="rotate(-10 1153.019 -2189.905)"><tspan x="0" y="0">80</tspan></text><text class="cls-5" transform="rotate(-20 691.7 -901.308)"><tspan x="0" y="0">70</tspan></text><text class="cls-5" transform="rotate(-30 533.378 -469.782)"><tspan x="0" y="0">60</tspan></text><text class="cls-5" transform="rotate(-40 453.856 -250.017)"><tspan x="0" y="0">50</tspan></text><text class="cls-5" transform="rotate(-50 405.13 -115.637)"><tspan x="0" y="0">40</tspan></text><text class="cls-5" transform="rotate(-60 370.482 -23.554)"><tspan x="0" y="0">30</tspan></text><text class="cls-5" transform="rotate(-70 344.365 45.02)"><tspan x="0" y="0">20</tspan></text><text class="cls-5" transform="rotate(-80 324.677 99.032)"><tspan x="0" y="0">10</tspan></text><text class="cls-4" transform="translate(448.06 189.46)"><tspan x="0" y="0">90</tspan></text><text class="cls-4" transform="rotate(-10 1321.579 -2192.55)"><tspan x="0" y="0">100</tspan></text><text class="cls-4" transform="rotate(10 -857.527 2912.14)"><tspan x="0" y="0">80</tspan></text><text class="cls-4" transform="rotate(20 -314.023 1618.67)"><tspan x="0" y="0">70</tspan></text><text class="cls-4" transform="rotate(30 -127.944 1184.463)"><tspan x="0" y="0">60</tspan></text><text class="cls-4" transform="rotate(40 -32.55 964.573)"><tspan x="0" y="0">50</tspan></text><text class="cls-4" transform="rotate(50 24.946 829.507)"><tspan x="0" y="0">40</tspan></text><text class="cls-4" transform="rotate(60 65.032 737.558)"><tspan x="0" y="0">30</tspan></text><text class="cls-4" transform="rotate(70 94.759 670.103)"><tspan x="0" y="0">20</tspan></text><text class="cls-4" transform="rotate(80 117.167 617.348)"><tspan x="0" y="0">10</tspan></text><text class="cls-4" transform="rotate(-20 770.701 -912.084)"><tspan x="0" y="0">110</tspan></text><text class="cls-4" transform="rotate(-30 586.878 -480.906)"><tspan x="0" y="0">120</tspan></text><text class="cls-4" transform="rotate(-40 492.808 -261.976)"><tspan x="0" y="0">130</tspan></text><text class="cls-4" transform="rotate(-50 435.104 -127.624)"><tspan x="0" y="0">140</tspan></text><text class="cls-4" transform="rotate(-60 394.787 -35.572)"><tspan x="0" y="0">150</tspan></text><text class="cls-4" transform="rotate(-70 365.599 31.9)"><tspan x="0" y="0">160</tspan></text><text class="cls-4" transform="rotate(-80 341.439 85.64)"><tspan x="0" y="0">170</tspan></text></g><path id="triangle" class="cls-3" d="M905.47 444.28 453.53.37l-.35-.37-.35.37L.89 444.28l-.89.86h906.35l-.88-.86Zm-1.57-.14H2.47L453.18 1.42 903.9 444.14Z"/><g id="left_side_ruler"><path class="cls-2" d="m9.22 436.92 15.35.31M16.32 429.71l15.35.59M23.5 422.66l15.07.84M30.82 415.69l14.61 1.08M37.84 408.98l20.6 1.84M44.46 402.46l14.09 1.64M50.87 396.28l13.46 1.56M56.92 390.17l13.68 1.98M63.35 383.97l13.54 2.18M76.65 370.78l12.55 2.7M81.7 365.69l12.55 2.69M87.11 360.59l12.57 3.13M92.78 355.16l12.2 3.16M98.18 349.99l17.52 4.62M102.98 345.13l12.14 3.2M108.14 339.9l11.85 3.68M112.79 335.03l12.04 3.89M117.8 330.19l11.7 3.99M128.23 319.88l11.54 4.37M133.04 315.24l11.25 4.64M137.6 310.85l11.14 4.6M142.02 306.43l11.02 4.74M151.36 297.75l10.38 4.95M155.27 293.19l10.68 5.42M159.63 289.13l10.37 5.26M163.87 284.95l10.4 5.42M173.44 276.18l9.81 5.63M177.29 271.73l10.03 6.1M181.38 267.76l9.86 6.24M185.74 263.87l9.4 6.24M194.08 255.98l8.87 6.36M197.72 251.87l9.14 6.71M201.93 248.12l8.66 6.7M206.04 244.13l8.41 6.71M213.5 236.18l8.27 7.08M217.51 232.24l8.09 7.31M221.15 228.32l8.1 7.32M224.89 224.32l8.19 7.66M233.18 216.86l7.59 7.79M236.98 212.97l7.58 7.93M240.94 209.15l7.35 8.05M244.86 205.07l7.3 8.34M253.48 197.44l6.85 8.49M257.32 193.34l7 8.84M261.47 189.61l6.56 8.66M265.35 185.6l6.49 8.95M273.36 177.53l6.39 9.27M277.62 173.68l6.01 9.27M281.69 169.58l5.97 9.44M285.8 165.3l5.92 9.75M294.42 156.78l5.48 10.01M298.65 152.5l5.44 10.09M302.88 148.35l5.31 10.19M307.32 144.12l5.08 10.35M316.34 135.36l4.73 10.68M320.74 130.84l4.73 10.68M325.37 126.33l4.46 10.94M330.1 121.9l4.29 10.91M339.35 112.59l4.06 11.57M344.15 107.59l4 11.96M349.31 103.03l3.61 11.73M354.35 98l3.46 11.91M364.78 87.64l3.19 12.41M370.31 82.24l2.91 12.66M375.77 76.87l2.73 12.73M381.48 71.36l2.48 12.93M392.29 60.7l2.14 13.19M398.51 54.7l2 13.49M404.66 48.56l1.73 13.67M411.08 42.33l1.49 13.69M424.51 29l.99 14.39M431.51 22.3l.81 14.35M438.79 15.12l.5 14.67M446.24 7.78l.28 14.92M417.78 35.48l1.85 20.7M359.62 93.06l4.73 17.34M311.79 139.76l7.23 15.13M269.35 181.42l9.41 13.39M229.24 220.69l10.54 10.16M189.96 259.92l13.16 9.08M146.67 301.98l15.61 7.03M70.45 376.64l85.64 15.38M168.8 280.38l24.59 14.2M209.68 240.21l13.96 11.72"/><path class="cls-7" d="m123.83 324.72 46.84 17.05"/><path class="cls-2" d="m249.18 201.38 11.31 13.47M289.92 161.65l13.27 22.98M334.37 117.88l16.15 44.38M387.05 66.11l14.44 82.41"/></g><g id="right_side_ruler"><path class="cls-2" d="m897.48 436.92-15.35.31M890.38 429.71l-15.35.59M883.2 422.66l-15.06.84M861.27 416.77l14.61-1.08M868.86 408.98l-20.6 1.84M862.24 402.46l-14.08 1.64M855.83 396.28l-13.46 1.56M849.78 390.17l-13.68 1.98M843.35 383.97l-13.54 2.18M830.05 370.78l-12.55 2.7M825 365.69l-12.54 2.69M819.6 360.59l-12.58 3.13M813.92 355.16l-12.2 3.16M808.52 349.99l-17.51 4.62M803.72 345.13l-12.14 3.2M798.56 339.9l-11.85 3.68M793.92 335.03l-12.05 3.89M788.9 330.19l-11.7 3.99M778.47 319.88l-11.54 4.37M773.67 315.24l-11.25 4.64M769.1 310.85l-11.14 4.6M764.68 306.43l-11.02 4.74M755.35 297.75l-10.39 4.95M751.43 293.19l-10.68 5.42M747.07 289.13l-10.37 5.26M742.83 284.95l-10.4 5.42M733.26 276.18l-9.81 5.63M729.41 271.73l-10.03 6.1M725.32 267.76l-9.85 6.24M720.96 263.87l-9.4 6.24M712.63 255.98l-8.88 6.36M708.98 251.87l-9.14 6.71M704.77 248.12l-8.66 6.7M700.66 244.13l-8.41 6.71M693.2 236.18l-8.27 7.08M689.19 232.24l-8.09 7.31M685.55 228.32l-8.1 7.32M681.81 224.32l-8.19 7.66M673.52 216.86l-7.59 7.79M669.73 212.97l-7.59 7.93M665.76 209.15l-7.35 8.05M661.84 205.07l-7.3 8.34M653.22 197.44l-6.85 8.49M649.38 193.34l-7 8.84M645.23 189.61l-6.56 8.66M641.35 185.6l-6.49 8.95M633.34 177.53l-6.39 9.27M629.08 173.68l-6 9.27M625.01 169.58l-5.97 9.44M620.9 165.3l-5.92 9.75M612.28 156.78l-5.48 10.01M608.05 152.5l-5.44 10.09M603.82 148.35l-5.31 10.19M599.39 144.12l-5.08 10.35M590.36 135.36l-4.73 10.68M585.96 130.84l-4.73 10.68M581.33 126.33l-4.45 10.94M576.6 121.9l-4.28 10.91M567.35 112.59l-4.06 11.57M562.55 107.59l-4 11.96M557.39 103.03l-3.61 11.73M552.36 98l-3.46 11.91M541.92 87.64l-3.19 12.41M536.39 82.24l-2.91 12.66M530.93 76.87 528.2 89.6M525.22 71.36l-2.48 12.93M514.41 60.7l-2.14 13.19M508.19 54.7l-2 13.49M502.04 48.56l-1.73 13.67M495.62 42.33l-1.49 13.69M482.19 29l-.99 14.39M475.19 22.3l-.81 14.35M467.91 15.12l-.5 14.67M460.47 7.78l-.29 14.92M488.93 35.48l-1.86 20.7M547.08 93.06l-4.73 17.34M594.91 139.76l-7.23 15.13M637.35 181.42l-9.41 13.39M677.46 220.69l-10.54 10.16M716.74 259.92 703.59 269M760.03 301.98l-15.61 7.03M836.25 376.64l-86.93 15.8M737.91 280.38l-25.63 14.79M697.02 240.21l-14.71 12.35"/><path class="cls-7" d="m782.87 324.72-48.05 17.49"/><path class="cls-2" d="m657.52 201.38-11.89 14.17M616.79 161.65l-13.63 23.59M572.33 117.88l-16.32 44.83M519.65 66.11l-14.33 82.67"/></g><g id="_5"><path class="cls-7" d="m347.71 339.21-13.95-14M373.26 364.97l-13.95-14M398.55 390.18l-13.95-14M422.39 414.16l-13.96-14"/><path class="cls-6" d="m313.34 304.73-6.48-6.5"/></g><g id="_5-2"><path class="cls-7" d="m558.9 339.21 13.95-14M533.35 364.97l13.95-14M508.05 390.18l13.96-14M484.22 414.16l13.95-14"/><path class="cls-6" d="m593.27 304.73 6.48-6.5"/></g><g id="horizontal_ruler_left"><path class="cls-3" transform="rotate(90 324.865 269.745)" d="M324.37 262.74h1v14h-1z"/><path class="cls-3" transform="rotate(90 321.865 274.745)" d="M321.37 270.74h1v8h-1z"/><path class="cls-3" transform="rotate(90 321.865 279.745)" d="M321.37 275.74h1v8h-1z"/><path class="cls-3" transform="rotate(90 324.865 294.745)" d="M324.37 287.74h1v14h-1z"/><path class="cls-3" transform="rotate(90 321.865 284.745)" d="M321.37 280.74h1v8h-1z"/><path class="cls-3" transform="rotate(90 321.865 289.745)" d="M321.37 285.74h1v8h-1z"/><path class="cls-3" transform="rotate(90 324.87 319.71)" d="M324.37 312.71h1v14h-1z"/><path class="cls-3" transform="rotate(90 321.865 299.735)" d="M321.37 295.74h1v8h-1z"/><path class="cls-3" transform="rotate(90 321.865 304.725)" d="M321.37 300.73h1v8h-1z"/><path class="cls-3" transform="rotate(90 321.87 309.72)" d="M321.37 305.72h1v8h-1z"/><path class="cls-3" transform="rotate(90 321.87 314.71)" d="M321.37 310.71h1v8h-1z"/><path class="cls-3" transform="rotate(90 321.87 324.71)" d="M321.37 320.71h1v8h-1z"/><path class="cls-3" transform="rotate(90 321.87 329.71)" d="M321.37 325.71h1v8h-1z"/><path class="cls-3" transform="rotate(90 324.87 344.71)" d="M324.37 337.71h1v14h-1z"/><path class="cls-3" transform="rotate(90 321.87 334.71)" d="M321.37 330.71h1v8h-1z"/><path class="cls-3" transform="rotate(90 321.87 339.71)" d="M321.37 335.71h1v8h-1z"/><path class="cls-3" transform="rotate(90 324.865 369.675)" d="M324.37 362.68h1v14h-1z"/><path class="cls-3" transform="rotate(90 321.87 349.7)" d="M321.37 345.7h1v8h-1z"/><path class="cls-3" transform="rotate(90 321.87 354.69)" d="M321.37 350.69h1v8h-1z"/><path class="cls-3" transform="rotate(90 321.865 359.685)" d="M321.37 355.68h1v8h-1z"/><path class="cls-3" transform="rotate(90 321.865 364.675)" d="M321.37 360.68h1v8h-1z"/><path class="cls-3" transform="rotate(90 321.865 374.675)" d="M321.37 370.68h1v8h-1z"/><path class="cls-3" transform="rotate(90 321.865 379.675)" d="M321.37 375.68h1v8h-1z"/><path class="cls-3" transform="rotate(90 324.865 394.675)" d="M324.37 387.68h1v14h-1z"/><path class="cls-3" transform="rotate(90 321.865 384.675)" d="M321.37 380.68h1v8h-1z"/><path class="cls-3" transform="rotate(90 321.865 389.675)" d="M321.37 385.68h1v8h-1z"/><path class="cls-3" transform="rotate(90 324.87 419.64)" d="M324.37 412.64h1v14h-1z"/><path class="cls-3" transform="rotate(90 321.865 399.665)" d="M321.37 395.67h1v8h-1z"/><path class="cls-3" transform="rotate(90 321.87 404.66)" d="M321.37 400.66h1v8h-1z"/><path class="cls-3" transform="rotate(90 321.87 409.65)" d="M321.37 405.65h1v8h-1z"/><path class="cls-3" transform="rotate(90 321.87 414.64)" d="M321.37 410.64h1v8h-1z"/><g id="numbers"><text class="cls-5" transform="rotate(-180 170.565 145.735)"><tspan x="0" y="0">3</tspan></text><text class="cls-5" transform="rotate(-180 170.565 171.16)"><tspan x="0" y="0">2</tspan></text><text class="cls-5" transform="rotate(-180 170.565 195.915)"><tspan x="0" y="0">1</tspan></text></g></g><g id="horizontal__ruler_right"><path class="cls-3" transform="rotate(90 581.575 269.745)" d="M581.08 262.74h1v14h-1z"/><path class="cls-3" transform="rotate(90 584.575 274.745)" d="M584.08 270.74h1v8h-1z"/><path class="cls-3" transform="rotate(90 584.575 279.745)" d="M584.08 275.74h1v8h-1z"/><path class="cls-3" transform="rotate(90 581.575 294.745)" d="M581.08 287.74h1v14h-1z"/><path class="cls-3" transform="rotate(90 584.575 284.745)" d="M584.08 280.74h1v8h-1z"/><path class="cls-3" transform="rotate(90 584.575 289.745)" d="M584.08 285.74h1v8h-1z"/><path class="cls-3" transform="rotate(90 581.58 319.71)" d="M581.08 312.71h1v14h-1z"/><path class="cls-3" transform="rotate(90 584.575 299.735)" d="M584.08 295.74h1v8h-1z"/><path class="cls-3" transform="rotate(90 584.575 304.725)" d="M584.08 300.73h1v8h-1z"/><path class="cls-3" transform="rotate(90 584.58 309.72)" d="M584.08 305.72h1v8h-1z"/><path class="cls-3" transform="rotate(90 584.58 314.71)" d="M584.08 310.71h1v8h-1z"/><path class="cls-3" transform="rotate(90 584.58 324.71)" d="M584.08 320.71h1v8h-1z"/><path class="cls-3" transform="rotate(90 584.58 329.71)" d="M584.08 325.71h1v8h-1z"/><path class="cls-3" transform="rotate(90 581.58 344.71)" d="M581.08 337.71h1v14h-1z"/><path class="cls-3" transform="rotate(90 584.58 334.71)" d="M584.08 330.71h1v8h-1z"/><path class="cls-3" transform="rotate(90 584.58 339.71)" d="M584.08 335.71h1v8h-1z"/><path class="cls-3" transform="rotate(90 581.575 369.675)" d="M581.08 362.68h1v14h-1z"/><path class="cls-3" transform="rotate(90 584.58 349.7)" d="M584.08 345.7h1v8h-1z"/><path class="cls-3" transform="rotate(90 584.575 354.695)" d="M584.08 350.69h1v8h-1z"/><path class="cls-3" transform="rotate(90 584.575 359.685)" d="M584.08 355.68h1v8h-1z"/><path class="cls-3" transform="rotate(90 584.575 364.675)" d="M584.08 360.68h1v8h-1z"/><path class="cls-3" transform="rotate(90 584.575 374.675)" d="M584.08 370.68h1v8h-1z"/><path class="cls-3" transform="rotate(90 584.575 379.675)" d="M584.08 375.68h1v8h-1z"/><path class="cls-3" transform="rotate(90 581.575 394.675)" d="M581.08 387.68h1v14h-1z"/><path class="cls-3" transform="rotate(90 584.575 384.675)" d="M584.08 380.68h1v8h-1z"/><path class="cls-3" transform="rotate(90 584.575 389.675)" d="M584.08 385.68h1v8h-1z"/><path class="cls-3" transform="rotate(90 581.58 419.64)" d="M581.08 412.64h1v14h-1z"/><path class="cls-3" transform="rotate(90 584.575 399.665)" d="M584.08 395.67h1v8h-1z"/><path class="cls-3" transform="rotate(90 584.575 404.655)" d="M584.08 400.66h1v8h-1z"/><path class="cls-3" transform="rotate(90 584.58 409.65)" d="M584.08 405.65h1v8h-1z"/><path class="cls-3" transform="rotate(90 584.58 414.64)" d="M584.08 410.64h1v8h-1z"/><g id="numbers-2"><text class="cls-5" transform="rotate(-180 286.075 145.735)"><tspan x="0" y="0">3</tspan></text><text class="cls-5" transform="rotate(-180 286.075 171.16)"><tspan x="0" y="0">2</tspan></text><text class="cls-5" transform="rotate(-180 286.075 195.92)"><tspan x="0" y="0">1</tspan></text></g></g><g id="left_horizontal_lines"><path class="cls-7" d="M336.63 419.64h7.24M236.7 419.64h7.24M363.85 419.64h28.99M263.92 419.64h28.98M248.94 394.68h64.21M263.35 369.71h49.8M276.06 344.71h37.09M285.13 319.71h28.02M296.16 294.71h17.33M413.82 419.64h34.85M337 369.68h111.67M337 319.71h111.67M337 269.74h111.67M346.6 394.68h102.07M346.6 344.71h102.07M346.6 294.74h102.07M393.84 244.78Z"/></g><g id="left_horizontal_lines-2"><path class="cls-7" d="M569.71 419.64h-7.24M669.64 419.64h-7.24M542.49 419.64h-28.98M642.43 419.64h-28.98M657.4 394.68h-64.2M642.99 369.71H593.2M630.29 344.71H593.2M621.22 319.71H593.2M610.19 294.71h-17.34M492.53 419.64h-34.86M569.34 369.68H457.67M569.34 319.71H457.67M569.34 269.74H457.67M559.74 394.68H457.67M559.74 344.71H457.67M559.74 294.74H457.67M512.51 244.78Z"/></g></g></svg>