<svg xmlns="http://www.w3.org/2000/svg" width="512" height="512" viewBox="0 0 512 512"><path fill="none" stroke="#000" stroke-miterlimit="10" stroke-width="13" d="M56 350.56h400"/><circle cx="256" cy="350.56" r="40" fill="#1a171b" opacity=".5"/><circle cx="256" cy="350.56" r="27" fill="#1a171b"/><path d="M160.624 234.123h-15.273c-1.219-6.417-1.883-10.568-1.992-12.451-2.879 3.432-5.204 6.005-6.973 7.72-1.771 1.717-4.316 3.294-7.637 4.731s-7.084 2.158-11.289 2.158c-8.08 0-15.522-2.184-22.329-6.558-6.807-4.371-10.21-10.376-10.21-18.013 0-4.98.968-9.352 2.905-13.115 1.935-3.761 4.425-6.778 7.471-9.048 3.043-2.267 6.667-4.122 10.874-5.562 4.205-1.437 8.301-2.407 12.285-2.905s8.189-.747 12.617-.747c1.328 0 3.263.057 5.811.166 2.545.111 4.482.166 5.811.166 1.437-6.529.607-11.896-2.49-16.104-3.1-4.205-8.358-6.309-15.771-6.309-5.204 0-9.686 1.107-13.447 3.32-3.764 2.215-5.645 5.702-5.645 10.459H89.569c0-16.71 11.398-25.068 34.199-25.068 18.039 0 28.941 4.814 32.705 14.443 1.328 3.1 1.992 12.064 1.992 26.895v14.775c.001 16.495.72 26.842 2.159 31.047zm-18.096-41.836c-5.645-.332-8.578-.498-8.799-.498-3.211 0-6.475.249-9.795.747s-6.864 1.328-10.625 2.49c-3.764 1.162-6.807 3.017-9.131 5.562-2.324 2.547-3.486 5.59-3.486 9.131 0 4.648 1.66 8.358 4.98 11.123 3.32 2.768 7.305 4.15 11.953 4.15 9.738 0 16.324-2.848 19.756-8.55 3.43-5.699 5.147-13.751 5.147-24.155zm163.858-19.424H204.452v-10.459h101.934v10.459zm0 31.045H204.452v-10.625h101.934v10.625zm118.535 30.215h-74.043v-15.771c14.387-16.046 25.815-28.804 34.282-38.267s14.387-16.768 17.764-21.914c3.375-5.146 5.063-9.655 5.063-13.53 0-7.414-1.439-12.866-4.316-16.353-2.879-3.486-7.693-5.229-14.443-5.229-5.977 0-10.459 1.717-13.447 5.146-2.988 3.432-4.926 8.91-5.811 16.436h-17.266c1.77-23.795 13.945-35.693 36.523-35.693 11.178 0 19.922 3.403 26.23 10.21s9.463 14.526 9.463 23.159c0 2.656-.223 5.092-.664 7.305-.443 2.215-1.162 4.565-2.158 7.056s-2.353 5.063-4.067 7.72c-1.717 2.656-3.875 5.673-6.475 9.048-2.602 3.377-5.673 7.056-9.214 11.04a8642.825 8642.825 0 0 0-12.368 13.945c-4.705 5.313-10.044 11.18-16.021 17.598-1.883 2.104-3.32 3.709-4.316 4.814h55.283v13.28z"/></svg>