<svg xmlns="http://www.w3.org/2000/svg" width="512" height="512" viewBox="0 0 512 512"><circle cx="111.25" cy="375.01" r="35" fill="#00f"/><path d="M138.09 372.077c1.618 14.797-9.107 28.156-23.905 29.775-14.799 1.618-28.158-9.106-29.777-23.905-1.618-14.8 9.105-28.157 23.905-29.776 14.799-1.618 28.157 9.105 29.777 23.906m12.923-1.414c-2.403-21.961-22.154-37.814-44.112-35.413-21.959 2.401-37.818 22.15-35.416 44.111s22.152 37.815 44.111 35.414c21.961-2.402 37.818-22.15 35.417-44.112z"/><path fill="none" stroke="red" stroke-width="13" d="M-237.937 271.328s254.176-40.166 387.865 33.205c133.69 73.371 236.314 309.353 236.314 309.353"/><circle cx="235.28" cy="149.02" r="35" fill="#00f"/><path d="M247.215 173.237c-13.354 6.582-29.574 1.073-36.157-12.28-6.582-13.353-1.074-29.573 12.279-36.156 13.354-6.583 29.575-1.074 36.158 12.279 6.58 13.354 1.071 29.575-12.28 36.157m5.748 11.66c19.816-9.769 27.958-33.751 18.191-53.566-9.768-19.813-33.749-27.958-53.565-18.19-19.815 9.767-27.957 33.751-18.189 53.564 9.766 19.814 33.747 27.96 53.563 18.192z"/><path fill="none" stroke="red" stroke-width="13" d="M-39.716-89.854S62.908 146.127 196.597 219.498c133.69 73.37 387.865 33.204 387.865 33.204"/><circle cx="285.65" cy="437.81" r="35" fill="#00f"/><path d="M312.494 434.87c1.617 14.796-9.107 28.156-23.904 29.775-14.8 1.618-28.158-9.106-29.777-23.906-1.618-14.799 9.105-28.156 23.905-29.775 14.8-1.618 28.156 9.105 29.776 23.906m12.923-1.414c-2.402-21.961-22.154-37.815-44.111-35.414-21.96 2.402-37.817 22.151-35.416 44.111 2.401 21.962 22.151 37.816 44.112 35.415 21.96-2.403 37.816-22.15 35.415-44.112z"/></svg>