<svg xmlns="http://www.w3.org/2000/svg" width="512" height="512" viewBox="0 0 512 512"><circle cx="300.74" cy="205.23" r="35" fill="#00f"/><path d="M327.64 202.88c1.297 14.828-9.715 27.952-24.544 29.25-14.832 1.297-27.955-9.714-29.252-24.545-1.298-14.831 9.713-27.953 24.544-29.25s27.953 9.713 29.252 24.545m12.95-1.134c-1.926-22.007-21.329-38.287-43.334-36.361-22.006 1.925-38.289 21.326-36.363 43.333 1.926 22.009 21.327 38.287 43.334 36.362 22.006-1.926 38.289-21.325 36.363-43.334z"/><path fill="none" stroke="red" stroke-width="13" d="M68.695-104.852S110.003 214.601 249 294.851c138.131 79.75 436.305-43.703 436.305-43.703"/><path fill="none" stroke="#000" stroke-width="13" d="M-136.04 166.89l666 385.27"/></svg>