<svg xmlns="http://www.w3.org/2000/svg" width="24" height="24"><path d="m14.865 2.501-3 5.18c.603.402 1.176.844 1.717 1.322l2.146-2.146 1.415 1.414-2.145 2.144c.482.546.925 1.126 1.33 1.734l2.63-1.517 1 1.732-2.627 1.516c.323.65.602 1.324.836 2.02l2.935-.786.517 1.932-2.934.786c.142.707.237 1.43.283 2.168H23v2H1.266L13.135 1.499l1.73 1.002ZM4.735 20h12.23c-.04-.56-.115-1.11-.218-1.648l-2.86.766-.517-1.932 2.861-.768a13.913 13.913 0 0 0-.637-1.535l-2.566 1.482-1-1.732 2.566-1.482c-.312-.46-.651-.899-1.014-1.317l-2.096 2.097-1.414-1.415 2.096-2.097c-.414-.36-.85-.694-1.305-1.003L4.734 20Z"/></svg>