<?xml version="1.0" encoding="UTF-8" standalone="no"?>
<!-- Created with Inkscape (http://www.inkscape.org/) -->

<svg
   xmlns:dc="http://purl.org/dc/elements/1.1/"
   xmlns:cc="http://creativecommons.org/ns#"
   xmlns:rdf="http://www.w3.org/1999/02/22-rdf-syntax-ns#"
   xmlns:svg="http://www.w3.org/2000/svg"
   xmlns="http://www.w3.org/2000/svg"
   xmlns:xlink="http://www.w3.org/1999/xlink"
   xmlns:sodipodi="http://sodipodi.sourceforge.net/DTD/sodipodi-0.dtd"
   xmlns:inkscape="http://www.inkscape.org/namespaces/inkscape"
   id="svg2"
   version="1.1"
   inkscape:version="0.48.2 r9819"
   width="163"
   height="162"
   sodipodi:docname="mode_rotatebyangle.png">
  <metadata
     id="metadata8">
    <rdf:RDF>
      <cc:Work
         rdf:about="">
        <dc:format>image/svg+xml</dc:format>
        <dc:type
           rdf:resource="http://purl.org/dc/dcmitype/StillImage" />
        <dc:title></dc:title>
      </cc:Work>
    </rdf:RDF>
  </metadata>
  <defs
     id="defs6" />
  <sodipodi:namedview
     pagecolor="#ffffff"
     bordercolor="#666666"
     borderopacity="1"
     objecttolerance="10"
     gridtolerance="10"
     guidetolerance="10"
     inkscape:pageopacity="0"
     inkscape:pageshadow="2"
     inkscape:window-width="1858"
     inkscape:window-height="1058"
     id="namedview4"
     showgrid="false"
     inkscape:zoom="2.9135802"
     inkscape:cx="68.135748"
     inkscape:cy="59.729388"
     inkscape:window-x="54"
     inkscape:window-y="-8"
     inkscape:window-maximized="1"
     inkscape:current-layer="svg2" />
  <g
     id="g3070">
    <path
       style="fill:#fcfcfc"
       d="m 0.34322074,81.34322 0,-80.99999964 81.50000026,0 81.499999,0 0,80.99999964 0,81 -81.499999,0 -81.50000026,0 0,-81 z"
       id="path3003"
       inkscape:connector-curvature="0" />
    <path
       sodipodi:nodetypes="sssssssssscsssssscscs"
       style="fill:#afafaf"
       d="m 34.357474,140.3854 c -3.75415,-2.28903 -5.697913,-6.45748 -5.697913,-10.6986 0,-4.17346 5.197229,-9.2265 9.741084,-10.07893 4.268077,-0.80069 3.37955,-1.20008 9.184853,-23.26295 7.3279,-27.849452 7.379017,-28.000003 9.506873,-28.000003 7.485332,0 25.498865,11.087715 33.047565,20.341483 5.32708,6.53034 11.918994,18.95786 11.918994,22.47051 0,2.25893 0.32159,2.14146 -33.500005,12.23651 -7.7,2.29829 -14.515427,4.59362 -15.145393,5.10073 -0.629966,0.50712 -2.718484,0.64471 -3.068058,2.5081 -0.853505,4.54957 -5.250636,9.62786 -9.571345,9.62283 -1.768362,-0.002 -4.655857,0.83395 -6.416655,-0.23968 z m 40.564502,-23.1096 c 11.74968,-3.49609 21.59129,-6.95131 21.87026,-7.67828 1.09607,-2.85631 -6.0488,-14.66486 -13.19998,-21.816046 -7.32033,-7.320331 -20.29708,-15.01944 -24.072066,-14.281963 -1.39786,0.273084 -3.023141,5.01278 -7.762282,22.636609 l -6.680664,24.09311 2.773561,2.4697 c 1.697752,1.51175 1.353063,2.4694 1.924103,2.25928 0.57104,-0.21011 13.397391,-4.18632 25.147068,-7.68241 z"
       id="path2999"
       inkscape:connector-curvature="0" />
    <path
       sodipodi:nodetypes="ssssssssss"
       style="fill:#231a2b"
       d="m 31.340679,137.97288 c -6.244906,-6.24491 -2.218384,-17.18136 6.650643,-19.4146 3.92148,-0.98744 7.964676,0.9796 9.921644,2.45574 4.548457,3.43091 4.838853,7.14826 3.969668,11.90147 -1.660821,9.08232 -14.160168,11.43918 -20.541955,5.05739 z m 13.031658,-1.25476 c 4.883601,-2.22512 5.330191,-8.1065 1.516339,-11.92035 -5.916173,-5.91618 -15.963963,0.72902 -12.385829,8.19147 0.737206,1.5375 2.465374,3.36449 3.840374,4.05997 3.074283,1.555 4.004046,1.04722 7.029116,-0.33109 z"
       id="path2989"
       inkscape:connector-curvature="0" />
    <path
       inkscape:connector-curvature="0"
       id="path3013"
       d="m 50.477799,123.38139 c -0.98595,-1.26551 -2.507196,-2.58144 -3.86901,-3.34682 -0.530562,-0.2982 -0.917928,-0.66395 -0.860814,-0.81278 0.05712,-0.14884 2.295665,-8.18129 4.974556,-17.84988 6.458242,-23.308943 7.634736,-26.895042 9.049599,-27.584315 2.066924,-1.006935 11.966335,4.078467 19.103116,9.813415 5.914769,4.752967 10.986207,10.686367 15.022723,17.57604 2.069151,3.53171 3.474707,7.18424 3.120161,8.10818 -0.08079,0.21052 -0.850244,0.70168 -1.709913,1.09147 -2.166495,0.98234 -11.797318,4.21967 -19.919636,6.69584 -20.248255,6.17288 -23.416975,7.14267 -23.727463,7.26182 -0.206881,0.0794 -0.668905,-0.2927 -1.183319,-0.95297 l 0,0 z"
       style="fill:#efefef;fill-opacity:1;stroke:none" />
    <path
       inkscape:connector-curvature="0"
       id="path3015"
       d="m 63.02379,47.236708 c -1.612424,-0.377807 -4.36724,-1.836644 -5.655551,-2.994946 -5.001593,-4.496863 -4.941435,-11.983657 0.13722,-17.077332 3.094529,-3.10368 6.672995,-3.946458 10.766204,-2.535589 2.427344,0.83667 5.181573,2.583243 6.380106,4.045894 1.124255,1.372005 2.040479,3.427376 2.330445,5.227902 0.844601,5.244484 -3.200324,11.715971 -8.262558,13.219293 -1.413201,0.419676 -4.158506,0.474996 -5.695866,0.114778 l 0,0 z"
       style="fill:#231a2b;fill-opacity:1;stroke:none" />
    <path
       inkscape:connector-curvature="0"
       id="path3017"
       d="m 132.42154,114.00264 c -2.19306,-0.44019 -3.78599,-1.24741 -5.35153,-2.7119 -4.78346,-4.47469 -5.75059,-9.31571 -2.82603,-14.145745 2.51597,-4.155224 7.64292,-7.050394 11.65108,-6.579315 3.55968,0.418372 7.46134,3.727798 9.225,7.824748 0.82982,1.927662 1.01207,5.285232 0.40801,7.516822 -1.5041,5.55658 -7.452,9.23037 -13.10653,8.09539 z"
       style="fill:#231a2b;fill-opacity:1;stroke:none" />
    <path
       transform="matrix(0.88607595,0,0,0.88607595,102.62246,-21.161702)"
       d="m -32.763615,64.558586 a 9.3436966,9.5863905 0 1 1 -18.687393,0 9.3436966,9.5863905 0 1 1 18.687393,0 z"
       sodipodi:ry="9.5863905"
       sodipodi:rx="9.3436966"
       sodipodi:cy="64.558586"
       sodipodi:cx="-42.107311"
       id="path3019"
       style="fill:#ff0000;fill-opacity:1;stroke:none"
       sodipodi:type="arc" />
    <path
       inkscape:connector-curvature="0"
       id="path3025"
       d="m 131.61936,110.59612 c -1.8672,-0.71672 -3.87256,-2.75929 -4.59774,-4.68306 -0.82998,-2.20179 -0.7677,-4.50228 0.17651,-6.520019 1.23252,-2.633818 3.24312,-4.233985 5.94834,-4.734073 4.38402,-0.81043 8.63379,2.311655 9.34824,6.867662 0.98012,6.25015 -5.07182,11.29716 -10.87535,9.06949 z"
       style="fill:#0000ff;fill-opacity:1;stroke:none" />
    <path
       inkscape:connector-curvature="0"
       id="path3027"
       d=""
       style="fill:#0000ff;fill-opacity:1;stroke:none" />
    <path
       inkscape:connector-curvature="0"
       id="path3031"
       d="m 47.539463,120.72469 c -0.413028,-0.29591 -1.19538,-0.75746 -1.748279,-1.03141 -0.253661,-0.12569 -0.461202,-0.24343 -0.461202,-0.26164 0,-0.0182 1.446653,-5.2506 3.214785,-11.62753 1.768132,-6.37693 3.600888,-13.013422 4.072792,-14.747758 C 56.22198,79.809416 57.79168,75.090569 59.006783,73.849 c 0.310637,-0.317403 0.370051,-0.334757 1.146028,-0.334743 0.56398,1e-5 0.766805,0.01799 1.136917,0.100798 1.051355,0.235223 2.037062,0.571553 3.389301,1.156454 1.239935,0.536325 3.167988,1.488147 3.117244,1.538891 -0.01046,0.01046 -0.383319,-0.163326 -0.828578,-0.38619 -2.305928,-1.154179 -4.351141,-1.944763 -5.671981,-2.192525 -0.407072,-0.07636 -1.108219,-0.08835 -1.343572,-0.02299 -1.151004,0.319687 -2.081607,2.594204 -4.642271,11.346328 -1.026701,3.509175 -2.343044,8.186801 -5.469212,19.434852 -1.580512,5.68673 -3.155189,11.33973 -3.499282,12.56221 -0.470827,1.67274 -0.61526,2.24206 -0.583737,2.30096 0.0773,0.14445 0.47886,0.47211 0.853072,0.69609 0.441876,0.26448 1.240792,0.80051 1.274571,0.85517 0.05156,0.0834 -0.0583,0.0264 -0.34582,-0.17962 l 0,0 z"
       style="fill:#efefef;fill-opacity:1;stroke:none" />
    <use
       height="162"
       width="163"
       transform="translate(-94.213983,27.286017)"
       id="use3033"
       xlink:href="#path3025"
       y="0"
       x="0" />
    <path
       inkscape:connector-curvature="0"
       id="path3035"
       d="m 52.262041,128.23427 c 0,-0.7394 -0.418022,-2.46612 -0.765911,-3.16373 l -0.23324,-0.46772 2.43019,-0.7669 c 1.336605,-0.42179 5.094438,-1.57616 8.350741,-2.56526 3.256303,-0.9891 9.009534,-2.73739 12.784957,-3.88509 8.524406,-2.59137 13.913364,-4.35199 17.614283,-5.75475 4.306782,-1.6324 4.689665,-1.87199 4.660071,-2.91602 -0.04449,-1.5696 -2.015141,-5.88077 -4.422978,-9.676082 C 87.29919,90.557057 80.641601,84.036729 71.568185,78.362022 c -2.79039,-1.745168 -6.961401,-3.838833 -8.90273,-4.46878 -0.861696,-0.279614 -1.741022,-0.438676 -2.425079,-0.438676 -1.030313,0 -1.092,0.02466 -1.543932,0.617173 -1.115911,1.463033 -2.550949,5.83272 -5.912168,18.00253 -1.147021,4.152966 -3.2912,11.914041 -4.764843,17.246821 -1.473642,5.33279 -2.725678,9.75139 -2.782301,9.81912 -0.05662,0.0677 -0.703025,-0.0674 -1.436448,-0.30032 -0.733424,-0.2329 -1.510746,-0.42346 -1.727384,-0.42346 -0.216637,0 -0.438502,-0.0446 -0.493033,-0.0992 -0.05453,-0.0545 0.124044,-0.57609 0.396833,-1.15903 0.702977,-1.50223 1.07846,-2.82529 3.758314,-13.24288 6.657935,-25.88187 8.86127,-33.560593 10.003021,-34.860975 0.465789,-0.530504 0.586072,-0.576524 1.506859,-0.576524 2.213374,0 5.503864,1.042627 9.689417,3.070195 9.658906,4.678974 19.149586,11.94154 24.020282,18.381076 2.900251,3.834413 5.822754,8.651461 8.173099,13.471398 2.522478,5.17295 3.314688,8.06279 2.471868,9.01699 -0.90112,1.02021 -6.051738,2.79662 -21.622876,7.45758 -17.95261,5.37381 -23.702477,7.21258 -26.284794,8.40568 -0.718836,0.33212 -1.334712,0.60386 -1.368612,0.60386 -0.0339,0 -0.06164,-0.29267 -0.06164,-0.65038 z"
       style="fill:#666666;fill-opacity:1;stroke:none" />
    <path
       inkscape:connector-curvature="0"
       id="path2996"
       d="m 65.826097,110.45698 c -1.05722,-0.10762 -2.313148,-0.56448 -3.12811,-1.13789 -1.575866,-1.1088 -3.111763,-4.05712 -3.711607,-7.12485 -0.462793,-2.36685 -0.259079,-4.950644 0.553048,-7.014553 1.162372,-2.954007 3.428971,-4.85206 6.205527,-5.196511 0.468033,-0.05806 1.661712,-0.02691 2.103904,0.0549 0.822806,0.152234 1.658758,0.431275 2.443788,0.815736 0.833314,0.408108 1.216171,0.677934 2.543663,1.792715 0.685797,0.575907 1.28775,1.068964 1.337677,1.09568 0.07535,0.04034 0.09963,0.03935 0.142912,-0.0056 0.02871,-0.0299 0.251264,-0.523617 0.494644,-1.097106 0.72092,-1.698741 1.063871,-2.308617 1.396561,-2.48353 l 0.144238,-0.07583 0.09128,0.104875 c 0.160044,0.183869 0.18884,0.366725 0.186513,1.184285 -0.0021,0.789968 -0.0529,1.329997 -0.227913,2.429063 -0.407118,2.556789 -0.54,4.318681 -0.49597,6.576106 0.04591,2.35608 0.160967,3.52327 0.650131,6.59747 0.267451,1.68078 0.337112,2.80922 0.198023,3.20761 -0.09375,0.26853 -0.192931,0.31742 -0.420427,0.2073 -0.204561,-0.099 -0.606523,-0.49408 -1.001242,-0.98403 -0.252238,-0.31309 -0.33427,-0.45924 -0.681051,-1.21332 -0.216853,-0.47155 -0.417613,-0.88123 -0.446134,-0.91041 -0.04422,-0.0453 -0.306919,0.092 -1.789003,0.93454 -2.069253,1.17641 -2.322288,1.31242 -2.904557,1.56115 -1.356726,0.57956 -2.541505,0.79891 -3.685899,0.68242 l 0,0 z m 1.706245,-1.68839 c 0.671388,-0.13731 1.410434,-0.46559 2.123321,-0.94317 0.517643,-0.34677 0.818009,-0.58624 1.416908,-1.12964 0.746402,-0.67723 1.196261,-1.26108 1.40281,-1.82065 0.187211,-0.5072 0.194729,-0.65768 0.19341,-3.87075 -0.0014,-3.273715 -0.03689,-4.654344 -0.128559,-4.997663 -0.150613,-0.563916 -0.531312,-1.125739 -1.316123,-1.942267 -0.808637,-0.841319 -1.486168,-1.36247 -2.242945,-1.725251 -0.795821,-0.381499 -1.265977,-0.475237 -2.2492,-0.448437 -0.72537,0.01977 -0.995769,0.0729 -1.569031,0.308305 -1.368103,0.561797 -2.74395,1.890491 -3.557509,3.435613 -0.408656,0.776116 -0.759591,1.885874 -0.899272,2.843741 -0.09822,0.673532 -0.117994,2.089399 -0.03837,2.748949 0.290605,2.40805 1.287842,4.55579 2.825714,6.08576 1.266584,1.26007 2.616229,1.74643 4.038872,1.45546 z"
       style="fill:#dd1010;fill-opacity:1;stroke:none" />
    <path
       inkscape:connector-curvature="0"
       id="path3044"
       d="m 64.703778,110.12014 c -2.043179,-0.67766 -3.169616,-1.76278 -4.303268,-4.14545 -1.903689,-4.00109 -2.044966,-8.136811 -0.393887,-11.530559 0.723267,-1.486657 2.275088,-3.075532 3.667494,-3.755068 0.950155,-0.463704 1.175423,-0.502245 2.917373,-0.499124 1.669829,0.003 2.01748,0.05799 3.012006,0.476536 0.658211,0.277005 1.854151,1.047925 2.884871,1.859629 0.968317,0.762561 1.791719,1.355332 1.829782,1.317269 0.03806,-0.03806 0.412992,-0.809916 0.833177,-1.71523 0.718639,-1.548352 1.038863,-2.010259 1.248389,-1.800734 0.172693,0.172693 0.06933,2.357307 -0.210255,4.444035 -0.441927,3.298349 -0.380173,7.587126 0.165777,11.513156 0.41487,2.9834 0.442883,4.06615 0.105202,4.06615 -0.274564,0 -1.303624,-1.32209 -1.703898,-2.18909 -0.228501,-0.49494 -0.519433,-0.89989 -0.646515,-0.89989 -0.127081,0 -0.912211,0.38398 -1.744731,0.85329 -3.102839,1.74913 -4.061672,2.12337 -5.587016,2.18063 -0.83504,0.0314 -1.661546,-0.0386 -2.074501,-0.17555 z m 3.947034,-1.65146 c 1.109061,-0.48396 2.738473,-1.81887 3.409644,-2.79338 l 0.623195,-0.90485 0,-4.33851 c 0,-4.912425 -0.01349,-4.97391 -1.406212,-6.406685 -1.60512,-1.651287 -2.967613,-2.287858 -4.660021,-2.17721 -1.338212,0.08749 -2.442225,0.632231 -3.57296,1.762966 -1.697845,1.697845 -2.413088,3.535505 -2.440965,6.271521 -0.02089,2.050088 0.26624,3.341388 1.12799,5.072908 0.966931,1.94287 2.633111,3.49445 4.144733,3.85967 0.720873,0.17416 1.926571,0.0236 2.774596,-0.34643 l 0,0 z"
       style="fill:#666666;fill-opacity:1;stroke:none" />
    <path
       inkscape:connector-curvature="0"
       id="path3046"
       d="m 65.917686,110.4544 c -0.02949,-0.005 -0.140506,-0.0195 -0.24669,-0.0322 -0.942166,-0.11225 -2.086187,-0.53258 -2.868329,-1.05386 -1.579028,-1.0524 -3.089286,-3.84798 -3.75825,-6.95675 -0.372598,-1.73152 -0.383876,-3.633428 -0.03187,-5.373547 0.59534,-2.942987 2.236091,-5.269705 4.491867,-6.369832 0.665627,-0.324622 1.291,-0.521154 2.059322,-0.647171 0.265552,-0.04355 0.372334,-0.04915 0.922405,-0.04836 0.679568,9.84e-4 1.092412,0.02834 1.444721,0.09574 1.203789,0.230299 2.55812,0.797994 3.48242,1.459725 0.329714,0.23605 0.552389,0.414334 1.55309,1.24347 0.461202,0.382131 0.871457,0.720876 0.91168,0.752767 0.04022,0.03189 0.06348,0.05833 0.05168,0.05875 -0.02799,10e-4 -0.60895,-0.427676 -1.190546,-0.878471 -1.374572,-1.065433 -2.420168,-1.745171 -3.18141,-2.068221 -0.506267,-0.214846 -0.913574,-0.334254 -1.321944,-0.387547 -0.695061,-0.09071 -2.677995,-0.09694 -3.291083,-0.01035 -0.605559,0.08553 -1.454933,0.470534 -2.165315,0.981492 -1.126857,0.810516 -2.177627,2.017304 -2.749759,3.158041 -0.733444,1.462367 -1.126337,3.111032 -1.162992,4.880164 -0.02953,1.4254 0.152746,2.77364 0.56988,4.21517 0.409183,1.41406 1.100831,2.96395 1.794897,4.02212 0.500967,0.76377 1.089177,1.37965 1.725947,1.80713 0.56812,0.38139 1.484424,0.78912 2.006269,0.89273 0.675006,0.13402 1.790979,0.15288 2.573577,0.0435 1.066032,-0.14902 2.094788,-0.5887 4.461864,-1.90697 1.010597,-0.56282 1.901356,-1.01872 1.990441,-1.01872 0.01419,0 -0.12555,0.0815 -0.310532,0.18108 -0.184982,0.0996 -0.889616,0.49373 -1.565853,0.87585 -1.691282,0.95569 -2.028004,1.13768 -2.441518,1.31958 -0.844948,0.3717 -1.541431,0.58578 -2.327463,0.71541 -0.195903,0.0323 -0.390692,0.0444 -0.815149,0.0504 -0.306753,0.004 -0.581865,0.004 -0.611361,-0.001 l 0,0 z"
       style="fill:#666666;fill-opacity:1;stroke:none" />
    <path
       inkscape:connector-curvature="0"
       id="path3048"
       d=""
       style="fill:#666666;fill-opacity:1;stroke:none" />
    <path
       inkscape:connector-curvature="0"
       id="path3050"
       d=""
       style="fill:#666666;fill-opacity:1;stroke:none" />
    <path
       inkscape:connector-curvature="0"
       id="path3052"
       d="m 76.045227,96.274051 c -0.0039,-0.102645 0.07607,-0.875036 0.158531,-1.531244 0.203554,-1.619767 0.308727,-3.054371 0.282289,-3.850503 -0.0174,-0.523986 -0.04629,-0.611361 -0.202147,-0.611361 -0.06493,0 -0.09429,0.01743 -0.181087,0.107479 -0.217732,0.225893 -0.451467,0.657384 -1.103775,2.037648 -0.50542,1.069453 -0.669219,1.394469 -0.702536,1.394004 -0.01295,-1.81e-4 -0.03803,-0.0097 -0.05572,-0.02112 -0.02604,-0.01683 -0.02302,-0.02086 0.01587,-0.02112 0.05601,-3.83e-4 0.146824,-0.168913 0.375849,-0.697494 0.412842,-0.952826 0.7248,-1.645175 0.874729,-1.94134 0.283327,-0.559678 0.517237,-0.872435 0.738951,-0.988036 l 0.100406,-0.05235 0.07163,0.0821 c 0.154022,0.176533 0.178121,0.285178 0.195909,0.88321 0.02452,0.824327 -0.02591,1.412346 -0.249266,2.906647 -0.134052,0.896835 -0.211748,1.465119 -0.277152,2.027146 -0.02197,0.188771 -0.04108,0.313126 -0.04248,0.276344 z"
       style="fill:#666666;fill-opacity:1;stroke:none" />
    <path
       inkscape:connector-curvature="0"
       id="path3054"
       d="m 60.720043,98.308239 c 0,-0.09823 0.108228,-0.688355 0.178074,-0.97096 0.275036,-1.11284 0.718502,-2.016944 1.429175,-2.913694 0.356203,-0.449469 0.854255,-0.963085 1.272858,-1.312637 0.395025,-0.329862 0.773958,-0.578216 1.190272,-0.780108 0.27152,-0.131674 0.699546,-0.295306 0.719711,-0.275141 0.0031,0.0031 -0.01999,0.01398 -0.05135,0.02416 -0.125558,0.04075 -0.389697,0.152088 -0.582586,0.245565 -0.626239,0.303482 -1.216115,0.734997 -1.797163,1.314684 -0.637318,0.635828 -1.156509,1.349644 -1.541639,2.119542 -0.335244,0.670172 -0.665407,1.69432 -0.791455,2.455045 -0.01772,0.106942 -0.0259,0.13649 -0.0259,0.09354 z"
       style="fill:#666666;fill-opacity:1;stroke:none" />
    <path
       inkscape:connector-curvature="0"
       id="path3056"
       d="m 72.337017,95.482123 c -0.24303,-0.460701 -0.621768,-0.929691 -1.293058,-1.601189 -0.449107,-0.449247 -0.710171,-0.679937 -1.075911,-0.950736 -0.595581,-0.440974 -1.344845,-0.809484 -1.923002,-0.945787 -0.326832,-0.07705 -0.560941,-0.09776 -1.093409,-0.09673 -0.387817,7.55e-4 -0.511288,0.0057 -0.804422,0.03214 -0.133462,0.01205 -0.07998,-0.0035 0.09132,-0.02662 0.271416,-0.03656 0.438686,-0.04725 0.734549,-0.04691 0.377208,4.31e-4 0.679037,0.02953 0.986758,0.09512 1.188855,0.253419 2.262228,0.962744 3.57695,2.363783 0.406495,0.433183 0.57582,0.654009 0.72332,0.943322 0.06755,0.132498 0.143788,0.316903 0.138014,0.333837 -0.0018,0.0052 -0.02928,-0.03989 -0.06111,-0.100237 z"
       style="fill:#666666;fill-opacity:1;stroke:none" />
    <path
       inkscape:connector-curvature="0"
       id="path3058"
       d="m 63.978777,107.79648 c -0.851747,-0.68779 -1.629185,-1.66238 -2.189059,-2.74419 -0.513806,-0.9928 -0.861307,-1.97454 -1.020827,-2.88398 -0.05508,-0.31402 -0.108501,-0.7511 -0.116822,-0.9558 -0.0025,-0.0619 -0.0026,-0.0957 -2.79e-4,-0.0751 0.277014,2.41877 1.261757,4.58357 2.785292,6.12304 0.201033,0.20313 0.463149,0.44172 0.613319,0.55827 0.101019,0.0784 0.09856,0.0758 0.07264,0.0758 -0.0127,0 -0.07651,-0.0434 -0.14426,-0.0981 l 0,0 z"
       style="fill:#666666;fill-opacity:1;stroke:none" />
    <path
       inkscape:connector-curvature="0"
       id="path3060"
       d="m 66.313462,108.87379 c -0.623533,-0.0428 -1.325092,-0.33542 -2.037712,-0.84985 -0.106879,-0.0772 -0.164661,-0.12507 -0.153422,-0.12724 0.0099,-0.002 0.08601,0.0453 0.169097,0.10495 0.588909,0.42267 1.17653,0.68279 1.791436,0.79303 0.418348,0.075 0.909126,0.0751 1.329979,1.9e-4 0.873345,-0.15539 1.79687,-0.60037 2.756488,-1.32816 0.596165,-0.45213 1.351518,-1.15732 1.71305,-1.59927 0.453241,-0.55407 0.69354,-1.07634 0.742707,-1.61421 0.03055,-0.33424 0.03594,-0.56347 0.04263,-1.81263 l 0.0071,-1.31926 0.0022,1.8221 0.0022,1.8221 -0.280916,0.40883 c -0.154503,0.22486 -0.324137,0.46917 -0.376963,0.54291 -0.563359,0.78638 -1.724327,1.8059 -2.763599,2.42689 -0.200116,0.11958 -0.567249,0.30452 -0.735528,0.37053 -0.484848,0.19018 -1.049774,0.31429 -1.618749,0.35564 -0.139161,0.0101 -0.465151,0.012 -0.58991,0.003 z"
       style="fill:#666666;fill-opacity:1;stroke:none" />
    <path
       inkscape:connector-curvature="0"
       id="path3062"
       d="m 76.438462,110.42167 c -0.143109,-0.0449 -0.302708,-0.16432 -0.55312,-0.41397 -0.191191,-0.1906 -0.339183,-0.35425 -0.504537,-0.5579 -0.226042,-0.2784 -0.301906,-0.39613 -0.463081,-0.71862 -0.140348,-0.28082 -0.619844,-1.30056 -0.614197,-1.30621 0.0085,-0.008 0.145091,0.18566 0.224726,0.31945 0.04389,0.0737 0.151646,0.27646 0.23946,0.45048 0.181943,0.36056 0.275624,0.52096 0.49488,0.84732 0.319672,0.47584 0.675362,0.91661 0.918454,1.13816 0.139531,0.12717 0.213183,0.17037 0.290427,0.17037 0.04346,0 0.05515,-0.005 0.08995,-0.0402 0.215669,-0.21688 0.174872,-1.21478 -0.148758,-3.63867 -0.117986,-0.88368 -0.148113,-1.11898 -0.188139,-1.46941 -0.07376,-0.6458 -0.17265,-1.6964 -0.164843,-1.75131 0.0019,-0.0131 0.01944,0.12584 0.03907,0.30871 0.0692,0.64477 0.203414,1.61828 0.371527,2.69491 0.268329,1.71842 0.340008,2.35667 0.342384,3.04867 0.0016,0.4519 -0.01986,0.60159 -0.112234,0.78458 -0.06576,0.13026 -0.144565,0.17047 -0.261966,0.13366 z"
       style="fill:#666666;fill-opacity:1;stroke:none" />
    <path
       inkscape:connector-curvature="0"
       id="path3064"
       d="m 73.987403,107.31587 c 0.01164,-0.0217 0.07153,-0.0435 0.118233,-0.0429 0.01852,2.2e-4 0.0041,0.0102 -0.04664,0.0321 -0.08706,0.0377 -0.08587,0.0375 -0.07159,0.0108 z"
       style="fill:#666666;fill-opacity:1;stroke:none" />
    <path
       inkscape:connector-curvature="0"
       id="path3066"
       d="m 66.08878,110.47422 c -0.06674,-0.003 -0.126466,-0.008 -0.132723,-0.009 -0.0063,-0.002 0.135378,-0.004 0.314743,-0.004 0.288231,-9.3e-4 0.57715,-0.008 0.80013,-0.0192 0.05117,-0.003 0.03469,4.4e-4 -0.05688,0.0105 -0.267245,0.0293 -0.623432,0.0378 -0.925269,0.0222 z"
       style="fill:#666666;fill-opacity:1;stroke:none" />
    <path
       inkscape:connector-curvature="0"
       id="path3068"
       d=""
       style="fill:#666666;fill-opacity:1;stroke:none" />
  </g>
</svg>
