<?xml version="1.0" encoding="UTF-8" standalone="no"?>
<!-- Created with Inkscape (http://www.inkscape.org/) -->

<svg
   xmlns:dc="http://purl.org/dc/elements/1.1/"
   xmlns:cc="http://creativecommons.org/ns#"
   xmlns:rdf="http://www.w3.org/1999/02/22-rdf-syntax-ns#"
   xmlns:svg="http://www.w3.org/2000/svg"
   xmlns="http://www.w3.org/2000/svg"
   xmlns:sodipodi="http://sodipodi.sourceforge.net/DTD/sodipodi-0.dtd"
   xmlns:inkscape="http://www.inkscape.org/namespaces/inkscape"
   id="svg2"
   version="1.1"
   inkscape:version="0.48.2 r9819"
   width="357"
   height="356"
   sodipodi:docname="translate_object_by_vector.svg">
  <metadata
     id="metadata8">
    <rdf:RDF>
      <cc:Work
         rdf:about="">
        <dc:format>image/svg+xml</dc:format>
        <dc:type
           rdf:resource="http://purl.org/dc/dcmitype/StillImage" />
        <dc:title></dc:title>
      </cc:Work>
    </rdf:RDF>
  </metadata>
  <defs
     id="defs6" />
  <sodipodi:namedview
     pagecolor="#ffffff"
     bordercolor="#666666"
     borderopacity="1"
     objecttolerance="10"
     gridtolerance="10"
     guidetolerance="10"
     inkscape:pageopacity="0"
     inkscape:pageshadow="2"
     inkscape:window-width="1858"
     inkscape:window-height="1058"
     id="namedview4"
     showgrid="false"
     inkscape:zoom="1.4142136"
     inkscape:cx="76.499482"
     inkscape:cy="189.47881"
     inkscape:window-x="54"
     inkscape:window-y="-8"
     inkscape:window-maximized="1"
     inkscape:current-layer="svg2" />
  <g
     id="g3342">
    <g
       id="g3045">
      <path
         style="fill:#000000"
         d="m 66.972393,298.94842 c -2.882538,-5.38607 -4.308187,-4.51888 63.527607,-38.64273 35.2,-17.70686 64.45,-32.37685 65,-32.59997 0.55,-0.22312 -1.45168,-5.409 -4.44817,-11.52419 -2.9965,-6.11518 -5.16638,-11.40031 -4.82197,-11.74473 0.71621,-0.7162 115.3525,-26.36888 118.02014,-26.40989 0.9625,-0.0148 1.72178,0.53559 1.68728,1.22309 -0.0875,1.74339 -90.40031,78.75 -92.35747,78.75 -1.02219,0 -3.4443,-3.72493 -6.76898,-10.40994 l -5.17721,-10.40993 -63.81373,31.90993 C 97.068075,289.46793 72.933574,301 71.038261,301 c -1.969312,0 -3.337319,-0.69028 -4.065868,-2.05158 z M 52.93879,197.63302 c -10.164044,-2.73637 -16.326041,-10.6924 -16.296254,-21.04082 0.05787,-20.10363 22.820538,-29.62947 37.645803,-15.75422 l 2.78834,2.60967 57.039521,-28.47383 c 31.37174,-15.6606 57.23984,-28.7851 57.48467,-29.16555 0.24482,-0.38045 -1.90864,-5.42452 -4.78548,-11.209049 -2.87684,-5.784529 -4.91441,-10.833534 -4.52793,-11.220012 0.38647,-0.386477 20.1674,-5.029425 43.95761,-10.31766 L 269.5,63.446574 270.09315,57.973287 C 271.41906,45.738473 279.80534,38 291.73845,38 c 10.4178,0 18.78221,6.27539 21.35976,16.025139 5.15615,19.503463 -16.1457,34.940781 -33.24815,24.094727 l -4.40969,-2.79654 -33.47018,28.788584 c -18.40861,15.83372 -34.03538,28.81097 -34.72617,28.83834 -0.69079,0.0274 -3.60588,-4.67525 -6.47798,-10.45025 -2.8721,-5.775 -5.57096,-10.5 -5.99747,-10.5 -0.42651,0 -26.47826,12.85295 -57.89278,28.56211 l -57.117316,28.56212 0.580427,3.57674 c 2.523411,15.54996 -12.265367,29.00664 -27.400111,24.93205 z m -0.68256,-9.22187 c -6.736588,-3.4369 -9.273383,-12.59065 -5.296714,-19.1126 5.298567,-8.68994 18.929773,-8.21468 23.60331,0.82294 5.792178,11.20084 -7.050974,24.03211 -18.306596,18.28966 z m 13.887416,-4.04877 c 5.369353,-5.14417 4.349538,-13.86769 -2.064096,-17.65632 -9.961599,-5.88446 -21.263387,5.40268 -15.380889,15.36096 3.71915,6.29602 12.115998,7.40085 17.444985,2.29536 z M 137,138.5 c 31.34621,-15.675 57.66567,-28.5 58.48769,-28.5 0.89483,0 3.60487,4.18916 6.75345,10.43946 L 207.5,130.87891 239,103.89059 c 17.325,-14.843576 32.28093,-27.759762 33.2354,-28.702634 1.637,-1.617105 1.63936,-1.926204 0.0417,-5.451134 -0.93157,-2.055252 -2.3875,-3.72275 -3.23541,-3.705551 -0.84791,0.0172 -20.26954,4.195874 -43.15919,9.285944 l -41.61754,9.254673 4.81674,9.464056 c 2.64921,5.205231 4.8396,10.367156 4.86754,11.470956 0.0422,1.6663 -9.79236,6.92613 -57.9492,30.9931 -31.9,15.94241 -58,29.32681 -58,29.7431 C 78,166.6594 78.451552,167 79.003448,167 79.555345,167 105.65379,154.175 137,138.5 z M 283.08865,69.323948 c -4.97535,-4.975357 -6.05506,-9.686334 -3.44178,-15.017266 6.68832,-13.643817 25.33745,-9.260614 25.34939,5.958003 0.003,4.00915 -0.52513,5.341781 -3.3315,8.404065 -2.91604,3.181946 -4.04653,3.698364 -8.99429,4.108671 -5.49972,0.456079 -5.7695,0.358847 -9.58182,-3.453473 z m 17.12891,-2.241409 c 5.36492,-6.004391 2.61337,-15.854483 -5.07206,-18.157092 -5.35786,-1.605254 -10.86489,0.977064 -13.47502,6.318604 -2.30722,4.721676 -1.03578,9.429334 3.60023,13.330286 4.37277,3.679438 10.90926,3.027051 14.94685,-1.491798 z"
         id="path2987"
         inkscape:connector-curvature="0"
         sodipodi:nodetypes="sssscsssscsssssscscssscsssscscssscssssssssssssscsscsscscscsssscssssssss" />
      <path
         style="fill:#000000;fill-opacity:1;stroke:none"
         d="m 54.288304,194.99268 c -2.699928,-0.66022 -6.163071,-2.68468 -8.780172,-5.13268 -8.065594,-7.54441 -7.835752,-20.09319 0.50606,-27.62952 3.762606,-3.39929 6.414564,-4.33611 12.27406,-4.3359 4.524392,1.6e-4 5.390999,0.16448 8.09792,1.5355 4.103207,2.07821 7.187872,5.23661 9.177336,9.39671 1.399379,2.92619 1.657827,4.09019 1.657827,7.46657 0,3.37637 -0.258448,4.54037 -1.657827,7.46656 -2.838348,5.93517 -7.769442,9.72278 -14.501544,11.13874 -3.125385,0.65737 -4.397634,0.67503 -6.77366,0.094 z m 9.891845,-6.44573 c 6.318309,-3.22336 9.383964,-10.40175 7.222024,-16.91074 -3.401607,-10.24128 -19.185994,-11.79579 -24.674676,-2.43006 -1.84861,3.15441 -2.247008,8.0497 -0.968403,11.89921 2.486077,7.48488 11.331748,11.05828 18.421055,7.44159 l 0,0 z"
         id="path2991"
         inkscape:connector-curvature="0" />
      <path
         style="fill:#000000;fill-opacity:1;stroke:none"
         d="m 69.843655,297.5362 c -0.195553,-0.19555 -0.355551,-0.74977 -0.355551,-1.2316 0,-1.69641 12.373377,-8.31678 61.065866,-32.67322 34.9643,-17.48948 57.06962,-28.87608 63.96414,-32.94836 4.68663,-2.76818 4.68934,-2.77105 4.38608,-4.63983 -0.16689,-1.02847 -1.99415,-5.52942 -4.06057,-10.00212 -2.06642,-4.4727 -3.75712,-8.48466 -3.75712,-8.91546 0,-0.55059 1.4655,-1.12032 4.93327,-1.91787 21.43591,-4.93 29.42199,-6.73706 52.66597,-11.91705 28.03512,-6.2477 48.17658,-10.55661 48.40382,-10.35513 0.21767,0.193 -13.02193,11.68966 -49.22317,42.74311 l -33.61891,28.83834 -3.71393,-7.20324 c -4.69471,-9.10548 -7.05364,-12.88785 -8.03771,-12.88785 -1.8308,0 -15.18644,6.40666 -83.67505,40.1387 -29.531795,14.54501 -47.780669,23.32713 -48.472786,23.32713 -0.08184,0 -0.308796,-0.16 -0.504349,-0.35555 z"
         id="path2993"
         inkscape:connector-curvature="0" />
      <path
         style="fill:#000000;fill-opacity:1;stroke:none"
         d="m 286.48913,77.9935 c -3.10328,-1.165503 -5.44517,-2.816531 -8.34654,-5.884301 -3.90887,-4.133058 -4.5622,-5.919234 -4.61392,-12.614303 -0.0514,-6.649558 0.61876,-8.426709 4.7377,-12.564302 6.93228,-6.963653 16.01678,-8.010914 24.00772,-2.767607 9.71508,6.374624 11.12585,20.483453 2.87336,28.735946 -4.47414,4.474144 -13.6438,6.977876 -18.65832,5.094567 z m 10.05292,-5.511068 c 2.31342,-0.406375 6.18134,-3.903827 7.63245,-6.901439 0.98298,-2.03055 1.13731,-3.070658 0.92897,-6.260577 -0.5263,-8.058343 -5.82129,-13.351905 -13.26234,-13.258763 -4.13269,0.05173 -7.01609,1.357946 -9.77754,4.429347 -3.88654,4.322766 -4.97782,9.297123 -2.99693,13.660856 1.25307,2.760412 5.57703,7.497806 7.75191,8.493111 1.53853,0.704085 5.13188,0.64402 9.72348,-0.162535 z"
         id="path2995"
         inkscape:connector-curvature="0" />
      <path
         style="fill:#000000;fill-opacity:1;stroke:none"
         d="m 234.66169,237.08364 c 48.49097,-41.60715 62.22364,-53.4986 62.44339,-54.07125 0.0447,-0.1166 -0.0211,-0.12985 -0.39332,-0.0792 -4.11479,0.55967 -49.7229,10.57403 -88.2214,19.37114 -13.62581,3.11357 -14.81678,3.39944 -16.07468,3.85838 -1.0016,0.36543 -1.35238,0.62966 -1.34155,1.01054 0.0137,0.48296 1.22615,3.38556 3.69423,8.84415 0.67853,1.50068 1.22223,2.76188 1.20824,2.80267 -0.0281,0.0819 -3.05842,-6.16253 -3.89661,-8.02958 -0.78153,-1.74082 -1.5461,-3.67528 -1.6108,-4.07548 -0.0515,-0.31869 -0.033,-0.3605 0.19917,-0.44875 2.8163,-1.07076 106.75277,-24.19129 107.55214,-23.92484 0.36444,0.12148 -14.112,12.67392 -55.58871,48.20066 -9.32289,7.98548 -17.0388,14.5335 -17.14646,14.55114 -0.10766,0.0176 4.0217,-3.58667 9.17636,-8.00956 z"
         id="path2997"
         inkscape:connector-curvature="0" />
      <path
         style="fill:#000000;fill-opacity:1;stroke:none"
         d="m 211.28009,249.42033 c -2.98116,-5.90321 -4.12043,-8.09462 -5.06521,-9.74301 -0.55429,-0.9671 -0.72589,-1.33911 -0.51515,-1.11678 0.30099,0.31754 3.47358,6.24114 7.01624,13.10016 0.80347,1.55561 1.50272,2.82839 1.55389,2.82839 0.0512,0 2.58071,-2.13361 5.62122,-4.74136 3.0405,-2.60774 5.56959,-4.71576 5.62019,-4.68449 0.0848,0.0524 -11.25293,9.85164 -11.39519,9.84888 -0.0348,-6.6e-4 -1.31097,-2.47198 -2.83599,-5.49179 l 0,0 z"
         id="path2999"
         inkscape:connector-curvature="0" />
      <path
         style="fill:#000000;fill-opacity:1;stroke:none"
         d="m 161.80504,247.56389 c 0.005,-0.005 1.2879,-0.65619 2.84999,-1.44623 20.04894,-10.13992 29.45955,-15.15935 32.70199,-17.44259 0.83136,-0.58542 1.38619,-1.08503 1.56334,-1.40773 l 0.0772,-0.14057 -0.0143,0.0943 c -0.0807,0.53111 -0.45836,0.94622 -1.48348,1.63076 -0.58506,0.39068 -2.23085,1.38178 -3.7594,2.26391 -3.37318,1.94666 -9.57678,5.25601 -18.50239,9.87021 -2.25107,1.16372 -10.00292,5.13789 -11.77514,6.0368 l -1.08618,0.55095 -0.29069,0 c -0.15988,0 -0.28628,-0.004 -0.28087,-0.01 z"
         id="path3001"
         inkscape:connector-curvature="0" />
      <path
         style="fill:#000000;fill-opacity:1;stroke:none"
         d="m 174.28334,247.36403 c 0.23334,-0.11397 1.83492,-0.89174 3.55906,-1.72839 12.63481,-6.13115 19.41022,-9.30082 22.56819,-10.55787 0.55951,-0.22272 1.42152,-0.52413 1.46083,-0.51079 0.0128,0.004 -0.15953,0.0811 -0.38292,0.17046 -2.93078,1.17308 -12.47768,5.66163 -25.49185,11.9852 l -1.75146,0.85104 -0.19305,-0.001 -0.19306,-0.001 0.42426,-0.2072 z"
         id="path3003"
         inkscape:connector-curvature="0" />
      <path
         style="fill:#000000;fill-opacity:1;stroke:none"
         d="m 150.91096,258.91406 0,-0.11459 4.6963,-2.30529 c 2.58297,-1.26791 7.74474,-3.79371 11.47059,-5.6129 l 6.77428,-3.3076 0.19063,0.002 0.19063,0.002 -0.35355,0.17195 c -2.69192,1.30918 -13.18046,6.4587 -17.43307,8.55906 -3.02869,1.49586 -5.51325,2.71974 -5.52126,2.71974 -0.008,0 -0.0146,-0.0516 -0.0146,-0.11459 z"
         id="path3005"
         inkscape:connector-curvature="0" />
      <path
         style="fill:#000000;fill-opacity:1;stroke:none"
         d="m 205.41457,238.35279 c -0.94603,-1.61199 -1.80395,-2.91399 -2.30091,-3.49192 -0.26337,-0.30628 -0.0913,-0.19259 0.23598,0.15593 0.51896,0.55262 1.12738,1.4149 1.98322,2.81072 0.40879,0.66671 0.64474,1.07297 0.63109,1.08662 -0.007,0.007 -0.0514,-0.0525 -0.0994,-0.13145 -0.1094,-0.18009 -0.19563,-0.28343 -0.23651,-0.28343 -0.0419,0 -0.0174,0.084 0.0812,0.27933 0.16167,0.32022 0.0398,0.14415 -0.29466,-0.4258 z"
         id="path3007"
         inkscape:connector-curvature="0" />
      <path
         style="fill:#000000;fill-opacity:1;stroke:none"
         d="m 177.56019,245.76253 c 0.002,-0.007 -0.12717,0.0555 1.70133,-0.83014 2.76042,-1.33696 5.30896,-2.5649 7.44573,-3.58752 0.89983,-0.43064 2.27897,-1.08854 2.29685,-1.09568 0.003,-0.001 0.005,6.7e-4 0.005,0.004 0,0.004 -0.15171,0.0782 -0.44062,0.21563 -2.38869,1.13587 -5.98874,2.8678 -9.60717,4.62186 -1.51244,0.73316 -1.39859,0.67805 -1.40081,0.67805 -0.001,0 -0.001,-0.003 -5.2e-4,-0.006 l 0,0 z"
         id="path3009"
         inkscape:connector-curvature="0" />
      <path
         style="fill:#000000;fill-opacity:1;stroke:none"
         d="m 177.56027,245.99939 0.001,-0.0194 0.14375,-0.0696 c 0.0791,-0.0383 0.69874,-0.33822 1.37706,-0.66657 2.39984,-1.16166 4.76989,-2.30326 6.8145,-3.2824 1.08907,-0.52155 3.10644,-1.48429 3.11023,-1.48429 0.001,0 0.002,0.6778 0.002,1.50623 l 0,1.50623 -2.52914,1.26456 -2.52913,1.26457 -3.19602,0 -3.19602,0 0.001,-0.0194 0,0 z"
         id="path3011"
         inkscape:connector-curvature="0" />
      <path
         style="fill:#000000;fill-opacity:1;stroke:none"
         d=""
         id="path3013"
         inkscape:connector-curvature="0" />
      <path
         style="fill:#000000;fill-opacity:1;stroke:none"
         d=""
         id="path3015"
         inkscape:connector-curvature="0" />
      <path
         style="fill:#000000;fill-opacity:1;stroke:none"
         d="m 177.55952,245.97008 c 7e-5,-0.004 0.11221,-0.0582 1.88741,-0.91698 3.07322,-1.48664 6.02082,-2.90265 8.57247,-4.11817 0.82615,-0.39356 1.0112,-0.48048 0.98956,-0.46484 -9.6e-4,6.9e-4 -0.0289,0.014 -0.0622,0.0297 -0.4971,0.23397 -3.67427,1.75427 -5.31452,2.54303 -1.64409,0.79061 -5.16067,2.48895 -5.9449,2.8711 -0.1163,0.0567 -0.12798,0.0618 -0.12787,0.0562 z"
         id="path3017"
         inkscape:connector-curvature="0" />
      <path
         style="fill:#000000;fill-opacity:1;stroke:none"
         d="m 177.55946,245.99981 0,-0.0189 0.0802,-0.0387 c 0.0441,-0.0213 0.60802,-0.29428 1.25311,-0.60659 0.6451,-0.3123 1.28353,-0.62125 1.41873,-0.68655 2.99144,-1.44463 5.24787,-2.52848 7.57699,-3.63953 1.02185,-0.48745 1.11612,-0.53228 1.11925,-0.53228 8.6e-4,0 0.002,0.6778 0.002,1.50623 l 0,1.50623 -2.52914,1.26456 -2.52913,1.26457 -3.19579,0 -3.19579,0 0,-0.0189 z"
         id="path3019"
         inkscape:connector-curvature="0" />
      <path
         style="fill:#000000;fill-opacity:1;stroke:none"
         d=""
         id="path3021"
         inkscape:connector-curvature="0" />
      <path
         style="fill:#000000;fill-opacity:1;stroke:none"
         d=""
         id="path3023"
         inkscape:connector-curvature="0" />
      <path
         style="fill:#000000;fill-opacity:1;stroke:none"
         d=""
         id="path3025"
         inkscape:connector-curvature="0" />
      <path
         style="fill:#000000;fill-opacity:1;stroke:none"
         d="m 96.80291,280.42247 c 4.27e-4,-0.13151 0.602305,-0.45549 4.88327,-2.62859 7.12793,-3.61827 22.79096,-11.49125 36.78236,-18.48856 6.72824,-3.36489 14.7344,-7.38123 17.79145,-8.9252 4.3179,-2.18076 5.6122,-2.80686 5.79992,-2.80561 0.20424,0.001 -0.0318,0.14156 -1.52499,0.90571 -2.99012,1.53025 -18.29883,9.23901 -30.63293,15.42533 -13.07608,6.55848 -24.8688,12.50226 -29.77935,15.00943 -1.785503,0.91162 -3.262984,1.65749 -3.283292,1.65749 -0.02031,0 -0.03671,-0.0675 -0.03644,-0.15 z"
         id="path3027"
         inkscape:connector-curvature="0" />
      <path
         style="fill:#000000;fill-opacity:1;stroke:none"
         d="m 70.037482,298.111 c -0.265503,-0.1619 -0.507462,-0.47909 -0.718226,-0.94156 -0.178707,-0.39213 -0.324656,-1.13207 -0.25973,-1.3168 0.311404,-0.88601 3.941247,-3.12986 12.020088,-7.43042 3.200866,-1.7039 15.590709,-8.1166 15.681459,-8.11636 0.01008,2e-5 0.02228,0.0688 0.02709,0.15293 0.0078,0.13673 -0.35165,0.33761 -3.399955,1.89986 -6.272011,3.2144 -13.279877,6.92121 -16.476312,8.71515 -3.938453,2.21038 -6.025604,3.55299 -6.948806,4.47 -0.48174,0.4785 -0.483327,0.48127 -0.483327,0.84217 0,0.56586 0.158636,1.00006 0.467234,1.27886 0.146561,0.13241 0.325606,0.24075 0.397878,0.24075 0.84272,0 15.477071,-7.07451 65.419651,-31.62502 7.65534,-3.76317 14.19025,-6.97846 14.52203,-7.14509 0.43178,-0.21685 0.59693,-0.27335 0.58102,-0.19877 -0.0405,0.19007 -38.22354,19.14901 -55.421489,27.51832 -14.247622,6.93355 -24.603763,11.78623 -25.147517,11.78364 -0.02868,-1.4e-4 -0.146174,-0.0576 -0.261092,-0.12766 l 0,0 z"
         id="path3029"
         inkscape:connector-curvature="0" />
      <path
         sodipodi:nodetypes="cc"
         style="fill:#989898;fill-opacity:1;stroke:none"
         d="m 78.330398,166.50929 c -52.220265,126.32714 -26.110133,63.16357 0,0 z"
         id="path3037"
         inkscape:connector-curvature="0" />
      <path
         sodipodi:type="arc"
         style="fill:#0000ff;fill-opacity:1;stroke:none"
         id="path3039"
         sodipodi:cx="-197.5974"
         sodipodi:cy="106.93661"
         sodipodi:rx="18.933084"
         sodipodi:ry="18.66642"
         d="m -178.66431,106.93661 c 0,10.30918 -8.47663,18.66642 -18.93309,18.66642 -10.45645,0 -18.93308,-8.35724 -18.93308,-18.66642 0,-10.309182 8.47663,-18.666423 18.93308,-18.666423 10.45646,0 18.93309,8.357241 18.93309,18.666423 z"
         transform="matrix(0.79444784,0,0,0.82985074,215.22159,87.551484)" />
      <path
         style="fill:#ff0000;fill-opacity:1;stroke:none"
         d="m 285.52632,73.68865 c -3.48752,-1.66792 -5.98607,-4.21693 -7.60967,-7.76333 -1.1279,-2.46366 -1.27594,-3.42551 -1.06765,-6.93649 0.44738,-7.54066 4.61553,-12.37562 12.04188,-13.96829 10.00029,-2.14468 19.42801,8.61996 16.45625,18.78986 -1.10895,3.79506 -3.63472,7.1517 -6.90092,9.17103 -3.61297,2.23373 -9.10003,2.53409 -12.91989,0.70722 z"
         id="path3043"
         inkscape:connector-curvature="0" />
      <path
         sodipodi:nodetypes="cc"
         inkscape:connector-curvature="0"
         id="path3098"
         d="m 78.302908,166.64385 c -52.201939,126.23743 -26.100969,63.11872 0,0 z"
         style="fill:#989898;fill-opacity:1;stroke:none" />
      <path
         sodipodi:nodetypes="cc"
         inkscape:connector-curvature="0"
         id="path3104"
         d="m 231.08364,110.6547 c -154.05576,163.56353 -77.02788,81.78177 0,0 z"
         style="fill:#989898;fill-opacity:1;stroke:none" />
      <path
         sodipodi:nodetypes="ccc"
         inkscape:connector-curvature="0"
         id="path3112"
         d="m 183.16412,115.653 c 4.03531,-1.85728 8.37954,-4.16171 12.08206,-5.59384 -4.25343,1.77525 -8.42688,3.98644 -12.08206,5.59384 z"
         style="fill:#989898;fill-opacity:1;stroke:none" />
      <path
         inkscape:connector-curvature="0"
         id="path3114"
         d=""
         style="fill:#989898;fill-opacity:1;stroke:none" />
      <path
         inkscape:connector-curvature="0"
         id="path3116"
         d=""
         style="fill:#989898;fill-opacity:1;stroke:none" />
      <path
         sodipodi:nodetypes="cc"
         inkscape:connector-curvature="0"
         id="path3118"
         d="m 183.36641,112.46997 c -122.244273,162.35335 -61.12214,81.17668 0,0 z"
         style="fill:#989898;fill-opacity:1;stroke:none" />
    </g>
    <path
       sodipodi:nodetypes="cc"
       inkscape:connector-curvature="0"
       id="path3074"
       d="m 78.555322,166.59484 c -52.370215,126.27011 -26.185107,63.13505 0,0 z"
       style="fill:#ff0000;fill-opacity:1;stroke:none" />
    <path
       inkscape:connector-curvature="0"
       id="path3082"
       d=""
       style="fill:#ff0000;fill-opacity:1;stroke:none" />
    <path
       inkscape:connector-curvature="0"
       id="path3094"
       d=""
       style="fill:#ff0000;fill-opacity:1;stroke:none" />
    <path
       inkscape:connector-curvature="0"
       id="path3126"
       d="m 205.28677,126.39932 c -0.80679,-1.58984 -1.82449,-3.60656 -2.26154,-4.48159 -3.36032,-6.72772 -6.01582,-11.08589 -7.2055,-11.8256 -0.26963,-0.16765 -0.41185,-0.13786 -1.52514,0.31949 -1.21637,0.4997 -4.42047,1.95228 -5.1288,2.32515 -0.10293,0.0542 -0.10938,-0.045 -0.10938,-1.68164 l 0,-1.73921 0.42188,-0.24395 c 1.60087,-0.92571 3.11692,-1.94871 3.8143,-2.5738 0.53757,-0.48185 0.73037,-0.80814 0.67256,-1.13825 -0.24802,-1.41641 -1.91739,-5.413101 -4.10976,-9.83931 l -0.79898,-1.613085 0,-5.182599 0,-5.1826 0.14063,-0.03339 c 0.50933,-0.120917 36.06326,-8.018429 43.07812,-9.568845 17.73706,-3.92022 33.36536,-7.283796 35.96023,-7.739481 0.97586,-0.171372 1.08141,-0.155928 1.61403,0.236165 1.14056,0.839632 2.34368,2.851085 3.3375,5.579827 0.25082,0.688689 0.29164,1.470399 0.0959,1.835837 -0.38994,0.727866 -1.37837,1.635606 -8.44513,7.755642 -5.58079,4.833137 -24.10804,20.750224 -40.45871,34.758784 l -15.08371,12.92307 -1.27078,0 -1.27079,0 -1.4669,-2.89062 z"
       style="fill:#989898;fill-opacity:1;stroke:none" />
    <path
       inkscape:connector-curvature="0"
       id="path3128"
       d="m 186.68766,89.164959 c -1.22031,-2.392572 -2.21875,-4.40115 -2.21875,-4.463505 0,-0.118912 4.35042,-1.115255 4.44718,-1.018502 0.0307,0.03067 0.041,2.255447 0.023,4.94395 l -0.0327,4.888188 -2.21875,-4.350131 z"
       style="fill:#989898;fill-opacity:1;stroke:none" />
    <path
       inkscape:connector-curvature="0"
       id="path3130"
       d="m 103.22217,154.12119 0.003,-1.03125 4.9655,-2.51349 c 2.73102,-1.38243 16.69362,-8.40688 31.02799,-15.60991 26.42361,-13.27786 33.86004,-17.04851 40.5,-20.53552 3.4792,-1.82712 8.35831,-4.47865 8.96186,-4.87027 l 0.27436,-0.17803 0.0381,1.6892 0.0381,1.6892 -2.8125,1.34141 c -1.54687,0.73777 -2.89687,1.40516 -3,1.48309 -0.10312,0.0779 -1.17187,0.61304 -2.375,1.18913 -5.5697,2.66692 -28.71822,14.10522 -51.95794,25.67379 -14.03624,6.98715 -25.55342,12.7039 -25.59375,12.7039 -0.0403,0 -0.0718,-0.46406 -0.07,-1.03125 z"
       style="fill:#989898;fill-opacity:1;stroke:none" />
    <path
       inkscape:connector-curvature="0"
       id="path3132"
       d=""
       style="fill:#989898;fill-opacity:1;stroke:none" />
    <path
       inkscape:connector-curvature="0"
       id="path3134"
       d="m 207.18291,130.08811 -0.33628,-0.68567 1.124,0 1.124,0 -0.53161,0.46299 c -1.17818,1.0261 -1.00016,0.99738 -1.38011,0.22268 z"
       style="fill:#989898;fill-opacity:1;stroke:none" />
    <path
       inkscape:connector-curvature="0"
       id="path3136"
       d="m 186.6808,89.298235 c -1.31688,-2.587836 -2.38835,-4.710513 -2.38104,-4.717061 0.0151,-0.01354 4.79779,-1.079488 4.83369,-1.07732 0.0128,7.75e-4 5e-4,0.008 -0.0274,0.01607 l -0.0508,0.01466 0,5.195893 c 0,3.693663 0.005,5.205018 0.0169,5.227454 0.009,0.01736 0.0138,0.03469 0.01,0.03851 -0.004,0.0038 -1.08439,-2.110373 -2.40127,-4.698209 z m 2.26313,-0.584853 c 0.01,-1.836399 0.0108,-3.425428 0.002,-4.03125 -0.008,-0.55 -0.0143,-1.001758 -0.0149,-1.003906 -0.005,-0.01715 -0.21616,0.005 -0.47002,0.04933 -1.26137,0.220432 -3.93154,0.864305 -3.99235,0.9627 -0.0135,0.02191 0.0523,0.166904 0.3762,0.82781 0.52605,1.073554 3.26508,6.479477 3.91087,7.71875 l 0.15063,0.289063 0.0105,-0.890625 c 0.006,-0.489844 0.0178,-2.254688 0.0267,-3.921875 z"
       style="fill:#989898;fill-opacity:1;stroke:none" />
    <path
       inkscape:connector-curvature="0"
       id="path3138"
       d="m 185.03643,86.082714 c -0.41999,-0.825109 -0.76411,-1.502372 -0.76472,-1.505028 -7.8e-4,-0.0034 0.29649,-0.07103 1.00497,-0.228615 0.55333,-0.123082 1.00797,-0.22315 1.0103,-0.222373 0.002,7.77e-4 -0.2416,0.05643 -0.54208,0.123674 -0.87483,0.195783 -1.44045,0.324992 -1.44571,0.330255 -0.005,0.0051 0.37032,0.755404 1.04984,2.097989 0.47304,0.934619 0.45781,0.904297 0.45403,0.904297 -0.002,0 -0.34664,-0.675089 -0.76663,-1.500199 z"
       style="fill:#989898;fill-opacity:1;stroke:none" />
    <path
       inkscape:connector-curvature="0"
       id="path3140"
       d=""
       style="fill:#989898;fill-opacity:1;stroke:none" />
    <path
       inkscape:connector-curvature="0"
       id="path3142"
       d=""
       style="fill:#989898;fill-opacity:1;stroke:none" />
    <path
       inkscape:connector-curvature="0"
       id="path3144"
       d="m 190.15565,96.189358 c -0.40822,-0.840811 -0.78454,-1.590139 -1.84153,-3.666842 -0.48766,-0.958121 -0.88586,-1.742838 -0.88488,-1.743815 9.8e-4,-9.78e-4 0.002,-0.001 0.003,-1.5e-4 8.1e-4,8.95e-4 0.20934,0.40944 0.46339,0.907878 0.62655,1.229273 1.10603,2.165367 1.16547,2.27539 0.0156,0.02893 0.0203,0.03509 0.0213,0.02795 7.2e-4,-0.005 -8.4e-4,-0.01432 -0.003,-0.02063 -0.003,-0.0063 -0.004,-0.01212 -0.003,-0.01291 0.002,-0.0023 1.02881,2.072691 1.14618,2.317117 l 0.0286,0.05957 -0.0127,0 -0.0127,0 -0.0697,-0.143555 z"
       style="fill:#989898;fill-opacity:1;stroke:none" />
    <path
       inkscape:connector-curvature="0"
       id="path3146"
       d="m 191.90044,99.929567 c -0.38617,-0.868215 -0.822,-1.81337 -1.26581,-2.745091 -0.13817,-0.290068 -0.35855,-0.748556 -0.38891,-0.809085 l -0.0216,-0.04297 0.0144,0.0012 0.0144,0.0012 0.19115,0.396485 c 0.38764,0.803999 0.77114,1.621441 1.11056,2.367187 0.16689,0.366652 0.43415,0.962592 0.4384,0.977542 0.002,0.006 -5.4e-4,0.007 -0.0112,0.007 l -0.0132,-3e-5 -0.0682,-0.153295 0,2e-6 z"
       style="fill:#989898;fill-opacity:1;stroke:none" />
    <path
       inkscape:connector-curvature="0"
       id="path3148"
       d=""
       style="fill:#989898;fill-opacity:1;stroke:none" />
    <path
       inkscape:connector-curvature="0"
       id="path3150"
       d="m 193.25965,103.1835 c -0.005,-0.0134 -0.0454,-0.11846 -0.09,-0.2334 -0.29861,-0.76929 -0.6908,-1.70903 -1.11834,-2.67969 -0.0839,-0.19041 -0.0825,-0.18628 -0.0608,-0.18722 0.008,-3.3e-4 -1.6e-4,-0.0175 0.20456,0.45285 0.32482,0.74637 0.65443,1.53745 0.88225,2.11748 0.0597,0.15212 0.18117,0.46703 0.2051,0.53193 l 0.008,0.0225 -0.0111,0 c -0.0101,0 -0.012,-0.002 -0.02,-0.0244 z"
       style="fill:#989898;fill-opacity:1;stroke:none" />
    <path
       inkscape:connector-curvature="0"
       id="path3152"
       d="m 191.52322,107.77623 c 0.83654,-0.5461 1.44431,-0.99678 1.83603,-1.3615 0.35235,-0.32806 0.53327,-0.57788 0.58261,-0.80447 0.0103,-0.0472 0.009,-0.15227 -0.002,-0.23633 -0.02,-0.14837 -0.0637,-0.34427 -0.12983,-0.58094 -0.10292,-0.36863 -0.29479,-0.93475 -0.50338,-1.48528 -0.0195,-0.0515 -0.0355,-0.0951 -0.0355,-0.0969 0,-0.002 0.005,-0.003 0.0102,-0.002 0.0116,0.001 0.0126,0.004 0.12448,0.30983 0.28246,0.77219 0.4707,1.38826 0.54686,1.78968 0.0344,0.18114 0.0215,0.30161 -0.0489,0.45838 -0.0971,0.21636 -0.3226,0.47753 -0.68147,0.78943 -0.37664,0.32734 -0.95361,0.7514 -1.6822,1.23639 l -0.15485,0.10307 -0.0224,0 -0.0224,0 0.18258,-0.11918 z"
       style="fill:#989898;fill-opacity:1;stroke:none" />
    <path
       inkscape:connector-curvature="0"
       id="path3154"
       d="m 188.97854,110.38076 c 5.8e-4,-0.0576 -0.0208,-0.98162 -0.0229,-0.98966 -0.003,-0.01 -0.005,-0.009 -0.14328,0.0812 -0.0773,0.0502 -0.16216,0.10444 -0.18847,0.12046 l -0.0479,0.0291 0,-0.0306 0,-0.0306 0.1045,-0.0599 c 0.84105,-0.48222 1.85127,-1.08997 2.51336,-1.51205 l 0.14326,-0.0913 0.0201,0.001 c 0.0111,7.5e-4 0.0195,0.002 0.0189,0.002 -0.0149,0.0118 -0.41534,0.26876 -0.59499,0.38176 -0.48562,0.30548 -0.89454,0.55085 -1.51562,0.90944 -0.10528,0.0608 -0.19624,0.11389 -0.20215,0.11802 l -0.0107,0.008 0,0.5388 0,0.53879 -0.0371,0 -0.0371,0 1.5e-4,-0.0147 0,0 z"
       style="fill:#989898;fill-opacity:1;stroke:none" />
    <path
       inkscape:connector-curvature="0"
       id="path3156"
       d="m 190.81823,111.95427 c 0.0135,-0.008 0.7645,-0.34958 1.10547,-0.50304 1.1315,-0.50924 1.95885,-0.86948 2.53906,-1.10555 0.47666,-0.19393 0.68391,-0.26938 0.86595,-0.31525 0.049,-0.0123 0.0644,-0.0127 0.0247,-5.1e-4 -0.0161,0.005 -0.0494,0.0162 -0.0739,0.0251 -0.0459,0.0166 -0.0604,0.0201 -0.0433,0.0103 0.005,-0.003 0.008,-0.006 0.007,-0.006 -0.005,-2e-4 -0.31601,0.12199 -0.52408,0.20574 -1.03121,0.41509 -2.1078,0.88671 -3.46316,1.51711 l -0.37723,0.17545 -0.0329,-1.2e-4 c -0.0206,-7e-5 -0.0307,-0.001 -0.0271,-0.004 z"
       style="fill:#989898;fill-opacity:1;stroke:none" />
    <path
       inkscape:connector-curvature="0"
       id="path3158"
       d="m 197.29695,111.80453 c -0.78854,-1.10691 -1.37909,-1.71894 -1.73458,-1.79767 -0.0222,-0.005 -0.0226,-0.005 -0.008,-0.006 0.0241,-5.8e-4 0.0828,0.01 0.11728,0.0211 0.13702,0.0442 0.33982,0.19539 0.56848,0.4237 0.31558,0.31509 0.72445,0.82537 1.14472,1.42865 l 0.0579,0.0832 -0.0184,-6e-5 -0.0184,-6e-5 -0.10917,-0.15326 0,0 z"
       style="fill:#989898;fill-opacity:1;stroke:none" />
    <path
       inkscape:connector-curvature="0"
       id="path3160"
       d="m 200.24246,116.63272 c -0.004,-0.007 -0.0662,-0.11817 -0.13765,-0.24707 -0.78206,-1.41012 -1.55198,-2.70097 -2.20288,-3.69336 -0.15503,-0.23636 -0.3805,-0.57033 -0.47932,-0.70996 l -0.0173,-0.0244 0.0188,0 0.0188,0 0.0413,0.0596 c 0.34192,0.49258 0.80714,1.22045 1.26019,1.97168 0.43527,0.72176 0.98987,1.68583 1.44041,2.50391 0.0361,0.0655 0.0699,0.12661 0.0752,0.13574 l 0.01,0.0166 -0.01,0 c -0.007,0 -0.0121,-0.004 -0.0175,-0.0127 z"
       style="fill:#989898;fill-opacity:1;stroke:none" />
    <path
       inkscape:connector-curvature="0"
       id="path3162"
       d="m 201.48374,118.95498 c -0.24147,-0.46542 -0.56487,-1.07602 -0.82629,-1.56007 -0.11456,-0.21212 -0.36385,-0.66967 -0.39719,-0.72899 l -0.0115,-0.0205 0.01,0 c 0.0119,0 -0.003,-0.0255 0.21167,0.36719 0.28895,0.52916 0.57373,1.06056 0.88657,1.6543 0.18712,0.35514 0.24808,0.47209 0.24808,0.47594 0,0.001 -0.005,0.003 -0.0112,0.003 -0.0108,0 -0.0145,-0.006 -0.11,-0.19043 z"
       style="fill:#989898;fill-opacity:1;stroke:none" />
    <path
       inkscape:connector-curvature="0"
       id="path3164"
       d="m 204.2669,124.45498 c -9.9e-4,-0.002 -0.46359,-0.91963 -1.028,-2.04004 -0.56441,-1.12041 -1.08953,-2.16191 -1.16694,-2.31445 -0.15251,-0.30055 -0.43225,-0.84686 -0.46625,-0.91057 -0.0116,-0.0217 -0.0211,-0.0402 -0.0211,-0.0411 0,-9.2e-4 0.005,-0.002 0.0121,-0.002 0.0119,1.3e-4 0.0132,0.002 0.0804,0.131 0.37525,0.71847 0.78754,1.52735 1.34893,2.64648 0.38537,0.76823 0.79072,1.57358 1.07272,2.1313 0.11039,0.21831 0.2007,0.39804 0.2007,0.39941 0,0.004 -0.0304,0.003 -0.0326,-4.4e-4 z"
       style="fill:#989898;fill-opacity:1;stroke:none" />
    <path
       inkscape:connector-curvature="0"
       id="path3166"
       d="m 205.1862,126.28116 c -0.27393,-0.544 -0.59257,-1.17678 -0.70809,-1.40617 l -0.21005,-0.41708 0.0169,0 0.0169,0 0.49861,0.98535 c 0.27424,0.54195 0.59447,1.17432 0.71164,1.40528 0.11716,0.23096 0.21304,0.42036 0.21305,0.4209 10e-6,5.3e-4 -0.009,9.4e-4 -0.0205,8.9e-4 l -0.0205,-8e-5 -0.49805,-0.98909 z"
       style="fill:#989898;fill-opacity:1;stroke:none" />
    <path
       inkscape:connector-curvature="0"
       id="path3168"
       d="m 206.59239,129.07217 -0.90663,-1.7998 0.0203,-0.001 c 0.0111,-6.6e-4 0.0208,2.2e-4 0.0215,0.002 7e-4,0.002 0.23107,0.4558 0.51193,1.00902 l 0.51067,1.00586 1.27436,9.8e-4 1.27436,9.9e-4 1.70402,-1.45958 c 0.93721,-0.80277 1.70982,-1.46503 1.71692,-1.47169 l 0.0129,-0.0121 -0.001,0.024 -0.001,0.024 -2.61297,2.23871 c -1.43714,1.23129 -2.61419,2.23871 -2.61567,2.23871 -0.001,0 -0.41067,-0.80992 -0.90931,-1.79981 z m 1.01686,1.5722 c 0.0593,-0.0199 0.12908,-0.0657 0.2539,-0.16663 0.0734,-0.0593 0.12872,-0.10725 0.43164,-0.37352 0.14932,-0.13124 0.39014,-0.34192 0.53516,-0.46816 0.14502,-0.12625 0.26426,-0.23116 0.26497,-0.23314 8e-4,-0.002 -0.43891,-0.004 -1.12402,-0.004 -0.61893,0 -1.12532,0.001 -1.12532,0.003 0,0.002 0.0599,0.12526 0.13321,0.27442 0.17488,0.356 0.25152,0.51427 0.30072,0.62105 0.0557,0.12077 0.10899,0.22536 0.1344,0.26355 0.0233,0.035 0.0591,0.0708 0.0816,0.0814 0.032,0.0152 0.0711,0.0157 0.11375,0.001 z"
       style="fill:#989898;fill-opacity:1;stroke:none" />
    <path
       inkscape:connector-curvature="0"
       id="path3170"
       d="m 212.73464,126.36726 0,-0.021 0.95936,-0.8221 c 0.52765,-0.45216 0.96441,-0.82615 0.97058,-0.83108 0.009,-0.008 0.015,-0.009 0.0354,-0.008 l 0.0242,0.001 -0.99157,0.84961 c -0.54536,0.46728 -0.993,0.85019 -0.99475,0.85091 -0.002,7.2e-4 -0.003,-0.008 -0.003,-0.0197 z"
       style="fill:#989898;fill-opacity:1;stroke:none" />
    <path
       inkscape:connector-curvature="0"
       id="path3172"
       d="m 215.03119,124.37884 c 0.19633,-0.1683 1.2223,-1.04737 2.27993,-1.95348 l 1.92296,-1.64749 0.0246,0.001 0.0246,0.001 -2.27735,1.95117 -2.27734,1.95117 -0.0272,0.001 -0.0272,0.001 0.35696,-0.306 z"
       style="fill:#989898;fill-opacity:1;stroke:none" />
    <path
       inkscape:connector-curvature="0"
       id="path3174"
       d="m 219.24089,120.77528 c 0,-0.002 1.06534,-0.91605 2.36743,-2.03161 l 2.36744,-2.02829 0.0246,0.001 0.0246,0.001 -2.36853,2.0293 -2.36852,2.02929 -0.0235,0.001 c -0.0129,6.4e-4 -0.0235,-3.4e-4 -0.0235,-0.002 z"
       style="fill:#989898;fill-opacity:1;stroke:none" />
    <path
       inkscape:connector-curvature="0"
       id="path3176"
       d="m 223.98288,116.71223 c 7.5e-4,-0.002 1.02495,-0.88121 2.276,-1.95349 l 2.27462,-1.94961 0.0254,0.001 0.0254,0.001 -2.2774,1.95117 -2.2774,1.95117 -0.0239,0.001 c -0.0147,7.1e-4 -0.0234,-3.3e-4 -0.0226,-0.003 l 0,0 z"
       style="fill:#989898;fill-opacity:1;stroke:none" />
    <path
       inkscape:connector-curvature="0"
       id="path3178"
       d="m 228.54203,112.80672 c -0.001,-0.002 0.32529,-0.28347 0.72516,-0.62615 0.39987,-0.34268 1.50545,-1.29065 2.45684,-2.10661 l 1.72981,-1.48357 0.0271,0.001 0.0272,0.001 -2.45968,2.10742 -2.45969,2.10742 -0.0224,0.001 c -0.0123,6.3e-4 -0.0233,-2.5e-4 -0.0243,-0.002 l 0,0 z"
       style="fill:#989898;fill-opacity:1;stroke:none" />
    <path
       inkscape:connector-curvature="0"
       id="path3180"
       d="m 233.46198,108.58726 c 0,-0.002 0.77652,-0.66984 1.72559,-1.48385 0.94907,-0.81402 1.97168,-1.69126 2.27246,-1.94942 l 0.54687,-0.46939 0.0312,8e-5 0.0312,8e-5 -0.0103,0.009 c -0.006,0.005 -1.03096,0.88316 -2.27838,1.952 l -2.26803,1.94336 -0.0253,0.001 c -0.0147,6.7e-4 -0.0253,-4.5e-4 -0.0253,-0.003 z"
       style="fill:#989898;fill-opacity:1;stroke:none" />
    <path
       inkscape:connector-curvature="0"
       id="path3182"
       d="m 238.02104,104.67321 c 0.01,-0.009 4.87847,-4.18779 4.89717,-4.20277 0.004,-0.003 0.0164,-0.005 0.0381,-0.004 l 0.0318,0.001 -0.51484,0.4414 c -0.28316,0.24278 -1.38973,1.19156 -2.45905,2.1084 l -1.94422,1.667 -0.0303,0 -0.0303,0 0.0116,-0.0113 0,0 z"
       style="fill:#989898;fill-opacity:1;stroke:none" />
    <path
       inkscape:connector-curvature="0"
       id="path3184"
       d="m 242.92663,100.46227 c 0.002,-0.002 0.82074,-0.70503 1.81933,-1.562503 l 1.81562,-1.559041 0.0351,0 0.0351,0 -0.044,0.03828 c -0.0883,0.07678 -1.12823,0.969358 -2.34803,2.015388 l -1.2493,1.071336 -0.0337,0 c -0.0197,0 -0.0322,-0.001 -0.03,-0.003 z"
       style="fill:#989898;fill-opacity:1;stroke:none" />
    <path
       inkscape:connector-curvature="0"
       id="path3186"
       d="m 246.56491,97.337386 c 0.002,-0.0018 0.46514,-0.39948 1.0291,-0.883652 0.86309,-0.74097 4.26625,-3.665046 4.52427,-3.887357 l 0.0809,-0.06971 0.0341,0.0011 0.0341,0.0011 -0.47246,0.406547 c -0.25985,0.2236 -1.52773,1.313005 -2.81753,2.420898 l -2.34507,2.014352 -0.0356,0 c -0.02,0 -0.034,-0.0015 -0.0319,-0.0033 l 0,0 z"
       style="fill:#989898;fill-opacity:1;stroke:none" />
    <path
       inkscape:connector-curvature="0"
       id="path3188"
       d="m 252.20828,92.494027 c -0.001,-0.0018 0.35073,-0.306399 0.78185,-0.67691 0.61203,-0.52598 3.07784,-2.646599 3.18485,-2.738995 l 0.022,-0.01898 0.0324,0.0011 0.0324,0.0011 -1.99489,1.716797 -1.9949,1.716796 -0.0308,0.0011 c -0.017,6.21e-4 -0.0317,-3.35e-4 -0.0328,-0.0021 l 0,0 z"
       style="fill:#989898;fill-opacity:1;stroke:none" />
    <path
       inkscape:connector-curvature="0"
       id="path3190"
       d="m 256.20652,89.056207 c -0.001,-0.002 0.48686,-0.424336 1.08463,-0.938586 0.59777,-0.51425 1.65775,-1.426843 2.35551,-2.027985 l 1.26867,-1.092985 0.0293,0.0011 0.0293,0.0011 -0.7627,0.658203 c -0.7909,0.682535 -3.15207,2.718054 -3.65667,3.152344 l -0.2882,0.248046 -0.0288,0.0011 c -0.0158,6.24e-4 -0.0298,-4.79e-4 -0.031,-0.0025 l 0,0 z"
       style="fill:#989898;fill-opacity:1;stroke:none" />
    <path
       inkscape:connector-curvature="0"
       id="path3192"
       d="m 260.92214,84.993915 c 0,-0.0017 0.2825,-0.246459 0.62779,-0.543946 0.34528,-0.297486 0.91416,-0.788296 1.26418,-1.090689 l 0.63639,-0.549804 0.0268,0 c 0.0147,0 0.0268,7.94e-4 0.0268,0.0018 0,0.0016 -1.32156,1.144571 -2.16738,1.874448 l -0.36073,0.311287 -0.027,0 c -0.0148,0 -0.027,-0.0014 -0.027,-0.0031 z"
       style="fill:#989898;fill-opacity:1;stroke:none" />
    <path
       inkscape:connector-curvature="0"
       id="path3194"
       d="m 263.46401,82.798263 c 0.006,-0.0062 0.31575,-0.273748 0.68743,-0.594623 0.67996,-0.587019 2.74387,-2.376134 3.43304,-2.975956 l 0.37055,-0.322505 0.0298,-0.0011 c 0.0294,-0.0011 0.0297,-0.001 0.022,0.0063 -0.0354,0.03349 -3.07492,2.668274 -4.33717,3.759627 l -0.1614,0.139544 -0.028,0 -0.028,0 0.0116,-0.01121 0,0 z"
       style="fill:#989898;fill-opacity:1;stroke:none" />
    <path
       inkscape:connector-curvature="0"
       id="path3196"
       d="m 267.9612,78.901568 c 0,-9.12e-4 0.0532,-0.04793 0.11816,-0.10448 0.60103,-0.522996 1.59045,-1.39101 2.10059,-1.842839 1.38214,-1.224155 2.15046,-1.940506 2.5823,-2.407639 l 0.0173,-0.01873 0.0408,0.0011 0.0408,0.0011 -0.0483,0.05469 c -0.15746,0.178377 -0.47456,0.50392 -0.6642,0.681897 -0.35987,0.337737 -1.70152,1.519958 -3.58927,3.162751 l -0.54434,0.473712 -0.0269,0 c -0.0148,0 -0.0269,-7.46e-4 -0.0269,-0.0017 z"
       style="fill:#989898;fill-opacity:1;stroke:none" />
    <path
       inkscape:connector-curvature="0"
       id="path3198"
       d="m 272.78917,74.525236 c -0.003,-0.0018 0.008,-0.01677 0.0309,-0.04193 0.21718,-0.23987 0.39107,-0.478481 0.47581,-0.652922 0.16271,-0.33495 0.1457,-0.992677 -0.0418,-1.61661 -0.0649,-0.215814 -0.2973,-0.827441 -0.49004,-1.289491 -0.0304,-0.07281 -0.0561,-0.13546 -0.0572,-0.139219 -0.002,-0.0058 6.6e-4,-0.0068 0.0152,-0.0068 l 0.0172,0 0.023,0.05371 c 0.38679,0.904132 0.56117,1.396073 0.64881,1.830322 0.0416,0.206104 0.0542,0.323499 0.0542,0.502685 -7e-5,0.164277 -0.0127,0.272466 -0.0482,0.411575 -0.0732,0.287037 -0.22155,0.551023 -0.49563,0.882146 l -0.0574,0.0693 -0.0352,6.9e-5 c -0.0193,3.9e-5 -0.0372,-0.0012 -0.0396,-0.0028 l 0,0 z"
       style="fill:#989898;fill-opacity:1;stroke:none" />
    <path
       inkscape:connector-curvature="0"
       id="path3200"
       d="m 272.6627,70.683499 c -0.48613,-1.138161 -1.03195,-2.150495 -1.56331,-2.899451 -0.10772,-0.151832 -0.23811,-0.325687 -0.30655,-0.408719 -0.0135,-0.01642 -0.0246,-0.03092 -0.0246,-0.03223 0,-0.0013 0.0119,-0.0023 0.0264,-0.0023 0.0307,8.2e-5 0.0182,-0.01176 0.10689,0.101492 0.48505,0.619603 0.95699,1.39861 1.31781,2.175215 0.11611,0.249925 0.51768,1.149052 0.51768,1.159116 0,8.84e-4 -0.008,0.0016 -0.0169,0.0016 l -0.0169,0 -0.0405,-0.09473 0,0 z"
       style="fill:#989898;fill-opacity:1;stroke:none" />
    <path
       inkscape:connector-curvature="0"
       id="path3202"
       d="m 270.74094,67.310453 c -0.27699,-0.339969 -0.5722,-0.63323 -0.85083,-0.845213 -0.30541,-0.232355 -0.47225,-0.322707 -0.6543,-0.354336 -0.20852,-0.03623 -0.45072,-0.01223 -1.14062,0.113027 -0.51192,0.09294 -1.82488,0.356301 -3.16194,0.63424 -0.28457,0.05916 -0.5188,0.107555 -0.52051,0.107555 -0.002,0 -0.003,-0.0077 -0.003,-0.01709 0,-0.01616 6.9e-4,-0.01723 0.0127,-0.01963 0.007,-0.0014 0.17354,-0.03599 0.37012,-0.07689 1.5166,-0.315473 3.05369,-0.621484 3.68692,-0.734005 0.34665,-0.0616 0.49503,-0.08303 0.57675,-0.08329 0.13816,-4.45e-4 0.28139,0.0394 0.45703,0.127155 0.37236,0.186028 0.82625,0.589713 1.25947,1.120151 0.0202,0.02471 0.0393,0.048 0.0425,0.05176 0.005,0.0064 0.004,0.0068 -0.0218,0.0068 l -0.0277,0 -0.0247,-0.03027 z"
       style="fill:#989898;fill-opacity:1;stroke:none" />
    <path
       inkscape:connector-curvature="0"
       id="path3204"
       d="m 258.36979,68.227231 c 0,-0.01449 0.002,-0.01928 0.007,-0.02091 0.0408,-0.01265 4.43174,-0.941708 5.46582,-1.156484 0.30615,-0.06359 0.55893,-0.116416 0.56174,-0.117398 0.004,-0.0013 0.005,0.0028 0.004,0.0167 l -0.001,0.01848 -0.16601,0.03442 c -0.76827,0.15929 -3.24706,0.68374 -4.89649,1.035972 -0.50918,0.108734 -0.93676,0.200018 -0.95019,0.202853 l -0.0244,0.0052 0,-0.01879 z"
       style="fill:#989898;fill-opacity:1;stroke:none" />
    <path
       inkscape:connector-curvature="0"
       id="path3206"
       d="m 254.34323,69.091527 0,-0.01873 0.5752,-0.124184 c 0.90627,-0.195664 3.44935,-0.740892 3.45045,-0.739764 5.4e-4,5.6e-4 5e-5,0.0092 -0.001,0.01927 -0.002,0.01445 -0.004,0.01868 -0.0104,0.0203 -0.005,0.0011 -0.52512,0.112984 -1.15676,0.248572 -0.63164,0.135589 -1.53109,0.329042 -1.99877,0.429898 -0.46769,0.100855 -0.85221,0.183373 -0.85449,0.183373 -0.002,0 -0.004,-0.0081 -0.004,-0.01873 z"
       style="fill:#989898;fill-opacity:1;stroke:none" />
    <path
       inkscape:connector-curvature="0"
       id="path3208"
       d="m 250.31668,69.962796 1e-5,-0.01855 1.22948,-0.266575 c 1.68697,-0.365767 2.79025,-0.603681 2.79171,-0.60201 6.8e-4,7.69e-4 0.002,0.0093 0.004,0.01898 l 0.003,0.01758 -0.378,0.08133 c -0.34625,0.0745 -2.97537,0.643669 -3.43973,0.744651 -0.10915,0.02374 -0.20099,0.04316 -0.2041,0.04316 -0.004,0 -0.006,-0.005 -0.006,-0.01856 z"
       style="fill:#989898;fill-opacity:1;stroke:none" />
    <path
       inkscape:connector-curvature="0"
       id="path3210"
       d="m 244.94792,71.134032 c 0,-0.01724 0.001,-0.01998 0.009,-0.02178 0.0495,-0.01157 4.31215,-0.940718 4.98269,-1.086093 0.20479,-0.0444 0.37287,-0.08012 0.37351,-0.07937 6.4e-4,7.45e-4 0.002,0.0093 0.003,0.01899 l 0.002,0.01764 -1.14688,0.249275 c -1.33283,0.289692 -4.2062,0.915996 -4.21621,0.919 -0.006,0.0018 -0.007,-7.11e-4 -0.007,-0.01767 z"
       style="fill:#989898;fill-opacity:1;stroke:none" />
    <path
       inkscape:connector-curvature="0"
       id="path3212"
       d="m 239.57917,72.310227 c 0,-0.01792 7.7e-4,-0.01946 0.0107,-0.02151 0.006,-0.0012 0.5917,-0.12984 1.30176,-0.28584 0.71006,-0.156 1.90977,-0.418962 2.66602,-0.584361 0.75625,-0.165398 1.37807,-0.301659 1.38183,-0.302801 0.006,-0.0018 0.007,6.75e-4 0.007,0.01764 0,0.01722 -0.001,0.01999 -0.009,0.02183 -0.005,0.0012 -0.67588,0.14802 -1.49121,0.326357 -1.65962,0.363006 -3.8499,0.843026 -3.86035,0.846028 -0.006,0.0017 -0.007,-8.11e-4 -0.007,-0.01734 z"
       style="fill:#989898;fill-opacity:1;stroke:none" />
    <path
       inkscape:connector-curvature="0"
       id="path3214"
       d="m 234.21042,73.492091 c 0,-0.01749 1.3e-4,-0.01766 0.0166,-0.02173 0.0218,-0.0054 3.99402,-0.880954 4.75781,-1.048729 l 0.59278,-0.130209 0,0.01853 c 0,0.01426 -0.002,0.019 -0.007,0.02058 -0.004,0.0011 -0.16385,0.03643 -0.35575,0.07845 -0.48118,0.105363 -3.46111,0.761287 -4.29562,0.945526 -0.37597,0.08301 -0.6893,0.151885 -0.69629,0.153065 l -0.0127,0.0021 0,-0.01763 z"
       style="fill:#989898;fill-opacity:1;stroke:none" />
    <path
       inkscape:connector-curvature="0"
       id="path3216"
       d="m 227.50023,74.978776 0.001,-0.01887 1.18359,-0.262755 c 0.65098,-0.144516 2.15742,-0.478157 3.34766,-0.741425 1.19023,-0.263268 2.16713,-0.479578 2.17088,-0.480687 0.006,-0.0018 0.007,5.1e-4 0.006,0.01711 l -9.6e-4,0.01912 -0.91602,0.202154 c -1.01666,0.224365 -5.77522,1.278727 -5.78636,1.282092 -0.006,0.0019 -0.007,-7.1e-5 -0.006,-0.01674 l 0,0 z"
       style="fill:#989898;fill-opacity:1;stroke:none" />
    <path
       inkscape:connector-curvature="0"
       id="path3218"
       d="m 220.1182,76.617313 0.001,-0.01665 1.28516,-0.285678 c 0.70684,-0.157123 2.36567,-0.525864 3.6863,-0.819423 1.32063,-0.29356 2.40285,-0.533746 2.40492,-0.533746 0.002,0 0.004,0.0078 0.004,0.01731 -2.2e-4,0.01421 -0.002,0.01767 -0.008,0.01931 -0.005,0.0011 -0.99255,0.220169 -2.19567,0.486815 -1.86207,0.412685 -5.14027,1.139836 -5.16918,1.146594 -0.008,0.002 -0.009,0.0011 -0.008,-0.01454 z"
       style="fill:#989898;fill-opacity:1;stroke:none" />
    <path
       inkscape:connector-curvature="0"
       id="path3220"
       d="m 214.07763,77.959378 3e-5,-0.01514 3.01267,-0.669715 c 1.65697,-0.368344 3.01574,-0.670453 3.0195,-0.671354 0.01,-0.0024 0.01,0.02904 0,0.03207 -0.006,0.0019 -5.99511,1.331731 -6.02148,1.337087 -0.0102,0.0021 -0.0107,0.0015 -0.0107,-0.01295 z"
       style="fill:#989898;fill-opacity:1;stroke:none" />
    <path
       inkscape:connector-curvature="0"
       id="path3222"
       d="m 208.70886,79.151272 c 0,-0.0075 7.4e-4,-0.01367 0.002,-0.01367 9.1e-4,0 1.20369,-0.267315 2.67285,-0.594033 1.46915,-0.326718 2.67602,-0.595004 2.68193,-0.596191 0.0102,-0.0021 0.0107,-0.0015 0.0107,0.01298 l -4e-5,0.01514 -2.68064,0.594883 c -1.47434,0.327185 -2.68194,0.594812 -2.68355,0.594726 -0.002,-8.5e-5 -0.003,-0.0063 -0.003,-0.01383 z"
       style="fill:#989898;fill-opacity:1;stroke:none" />
    <path
       inkscape:connector-curvature="0"
       id="path3224"
       d="m 201.99792,80.644192 c 0,-0.01356 4.4e-4,-0.01394 0.0205,-0.01817 0.0113,-0.0024 1.5208,-0.337992 3.35449,-0.745817 l 3.33398,-0.7415 0.001,0.01351 c 6.8e-4,0.0074 6.8e-4,0.01389 0,0.01437 -0.001,7.18e-4 -6.67518,1.48432 -6.70143,1.489666 -0.008,0.0016 -0.009,2.3e-4 -0.009,-0.01206 z"
       style="fill:#989898;fill-opacity:1;stroke:none" />
    <path
       inkscape:connector-curvature="0"
       id="path3226"
       d="m 196.62917,81.838578 c 0,-0.0089 0.002,-0.0136 0.007,-0.01505 0.004,-0.0012 1.20918,-0.269393 2.67871,-0.596085 1.46953,-0.326691 2.67417,-0.594795 2.67699,-0.595786 0.004,-0.0013 0.005,0.0021 0.004,0.01266 l -0.001,0.01446 -2.64843,0.588839 c -1.45664,0.323861 -2.66382,0.592233 -2.68262,0.59638 l -0.0342,0.0075 0,-0.01295 0,0 z"
       style="fill:#989898;fill-opacity:1;stroke:none" />
    <path
       inkscape:connector-curvature="0"
       id="path3228"
       d="m 189.91823,83.331223 c 0,-0.0094 0.002,-0.01403 0.007,-0.01547 0.004,-0.0011 1.50976,-0.336216 3.34668,-0.744627 1.83691,-0.408412 3.3438,-0.743535 3.34863,-0.74472 0.008,-0.0019 0.009,-7.09e-4 0.009,0.01194 0,0.0078 -8.8e-4,0.0141 -0.002,0.0141 -0.005,0 -5.38617,1.197171 -6.24297,1.388878 -0.25396,0.05682 -0.4627,0.10331 -0.46387,0.10331 -0.001,0 -0.002,-0.006 -0.002,-0.01341 z"
       style="fill:#989898;fill-opacity:1;stroke:none" />
    <path
       inkscape:connector-curvature="0"
       id="path3230"
       d="m 187.96159,83.752611 c 0.002,-8.58e-4 0.43897,-0.09825 0.9707,-0.216435 0.53174,-0.118181 0.97087,-0.215838 0.97583,-0.217017 0.008,-0.002 0.009,-0.001 0.008,0.01251 l -0.001,0.01465 -0.33594,0.07507 c -0.18477,0.04129 -0.37511,0.08421 -0.42299,0.09537 -0.0479,0.01117 -0.0879,0.01948 -0.0889,0.01848 -0.001,-0.001 0.009,-0.0048 0.0221,-0.0085 0.0346,-0.0096 0.0523,-0.01764 0.0481,-0.02175 -0.005,-0.005 -0.33839,0.0659 -0.97139,0.206589 -0.16648,0.037 -0.22199,0.04816 -0.20411,0.04101 z"
       style="fill:#989898;fill-opacity:1;stroke:none" />
    <path
       inkscape:connector-curvature="0"
       id="path3232"
       d="m 188.92356,83.723554 c -0.001,-0.01939 -0.004,-0.03777 -0.007,-0.04102 -0.004,-0.0049 -0.004,-0.0059 0.003,-0.0059 0.008,0 0.008,0.0018 0.008,0.04102 0,0.02256 -6.4e-4,0.04102 -0.001,0.04102 -7.8e-4,0 -0.002,-0.01581 -0.003,-0.03514 z"
       style="fill:#989898;fill-opacity:1;stroke:none" />
    <path
       inkscape:connector-curvature="0"
       id="path3234"
       d="m 189.01512,111.94912 c -0.002,-0.009 -0.0341,-1.47529 -0.0338,-1.52734 l 1.6e-4,-0.0264 0.0371,0 0.0371,0 0,0.78125 0,0.78125 -0.0195,0 c -0.0171,0 -0.0197,-0.001 -0.0212,-0.009 l 0,0 z"
       style="fill:#989898;fill-opacity:1;stroke:none" />
    <path
       inkscape:connector-curvature="0"
       id="path3236"
       d="m 185.89181,111.54092 1.4e-4,-0.41699 0.27623,-0.15024 c 0.31677,-0.1723 1.28741,-0.70784 1.57701,-0.87011 0.4199,-0.23528 0.69229,-0.39169 0.84765,-0.48675 0.0923,-0.0564 0.34458,-0.21882 0.35156,-0.22623 0.0102,-0.0108 -0.0188,0.007 -0.15662,0.0949 -0.0814,0.0521 -0.16169,0.10311 -0.17834,0.11344 l -0.0303,0.0188 0,-0.0284 0,-0.0284 0.0166,-0.009 c 0.047,-0.0262 0.39233,-0.22613 0.56348,-0.32618 0.50371,-0.29448 1.41992,-0.845 1.41992,-0.85319 0,-0.002 0.002,-0.003 0.005,-0.003 0.007,0 0.66103,-0.40755 0.73596,-0.45887 0.0159,-0.0109 0.0465,-0.0161 0.0436,-0.007 -0.002,0.005 -0.1523,0.10256 -0.40559,0.26376 -0.50938,0.32417 -0.90813,0.56583 -1.54688,0.93747 -0.15791,0.0919 -0.30337,0.1766 -0.32324,0.18828 l -0.0361,0.0212 0,0.53883 0,0.53884 -0.0348,0 -0.0348,0 -0.002,-0.0557 c -0.001,-0.0306 -0.004,-0.15146 -0.006,-0.26855 -0.005,-0.25002 -0.0152,-0.66261 -0.0171,-0.67383 -7.3e-4,-0.004 -0.002,0.004 -0.002,0.0175 -3.9e-4,0.0185 0.0434,2.00686 0.055,2.49907 l 0.001,0.0479 -1.55957,-1e-5 -1.55957,0 1.4e-4,-0.41699 z"
       style="fill:#989898;fill-opacity:1;stroke:none" />
    <path
       inkscape:connector-curvature="0"
       id="path3238"
       d="m 185.89167,111.09277 c 0,-0.022 0.001,-0.026 0.009,-0.0307 0.005,-0.003 0.15644,-0.0868 0.33691,-0.18628 0.74495,-0.41057 1.71288,-0.95415 2.21963,-1.24651 0.0628,-0.0362 0.11509,-0.0659 0.11622,-0.0659 0.001,0 0.002,0.0132 0.002,0.0294 l 0,0.0293 -0.0205,0.0131 c -0.0664,0.0423 -0.45741,0.26608 -0.81153,0.46442 -0.41553,0.23274 -1.84264,1.01851 -1.84981,1.01851 -9.6e-4,0 -0.002,-0.0114 -0.002,-0.0253 z"
       style="fill:#989898;fill-opacity:1;stroke:none" />
    <path
       inkscape:connector-curvature="0"
       id="path3240"
       d="m 183.20809,112.54561 0.001,-0.0256 0.27344,-0.1466 c 0.71115,-0.38128 2.17955,-1.17777 2.38769,-1.29514 l 0.0205,-0.0116 0,0.027 0,0.027 -0.3877,0.21124 c -0.69753,0.38006 -2.28843,1.23931 -2.29457,1.23931 -9.2e-4,0 -0.001,-0.0115 -5.3e-4,-0.0256 z"
       style="fill:#989898;fill-opacity:1;stroke:none" />
    <path
       inkscape:connector-curvature="0"
       id="path3242"
       d="m 188.1155,113.20047 c 0.0995,-0.0463 0.91104,-0.43524 0.91373,-0.43793 0.002,-0.002 3.2e-4,-0.15206 -0.005,-0.38948 -0.005,-0.21222 -0.009,-0.39244 -0.008,-0.4005 l 1.2e-4,-0.0147 0.019,0 0.019,0 0.002,0.0181 c 0.001,0.01 0.003,0.0649 0.003,0.12207 1.1e-4,0.20866 0.01,0.44557 0.0217,0.53466 0.011,0.0818 0.0268,0.116 0.0533,0.115 0.009,-3.5e-4 0.0738,-0.0304 0.20472,-0.0955 0.24302,-0.12082 0.58694,-0.28431 1.08231,-0.5145 l 0.39135,-0.18185 0.0325,0.001 0.0325,0.001 -0.0234,0.0108 c -0.28031,0.1291 -1.57747,0.74948 -2.41285,1.15397 l -0.17457,0.0845 -0.0832,-8e-5 -0.0832,-9e-5 0.0156,-0.007 z"
       style="fill:#989898;fill-opacity:1;stroke:none" />
    <path
       inkscape:connector-curvature="0"
       id="path3244"
       d="m 180.52303,113.97298 1.2e-4,-0.0287 0.39344,-0.20684 c 0.48552,-0.25526 1.19274,-0.63016 1.81074,-0.9599 0.25744,-0.13737 0.47057,-0.25071 0.47363,-0.25188 0.004,-0.002 0.006,0.003 0.006,0.0227 l 0,0.0249 -0.37207,0.19983 c -0.69797,0.37486 -2.28155,1.21732 -2.30468,1.2261 -0.006,0.002 -0.007,-3.7e-4 -0.007,-0.0261 z"
       style="fill:#989898;fill-opacity:1;stroke:none" />
    <path
       inkscape:connector-curvature="0"
       id="path3246"
       d="m 184.95261,114.71495 c 0.20683,-0.10177 1.32074,-0.63611 2.23673,-1.07295 l 0.91056,-0.43425 0.0814,0.001 0.0814,0.001 -0.1502,0.0728 c -0.0826,0.04 -0.53868,0.26131 -1.01349,0.49171 -0.91966,0.44627 -1.51886,0.7358 -1.85608,0.89686 l -0.20764,0.0992 -0.097,-3.4e-4 -0.097,-3.4e-4 0.11133,-0.0548 z"
       style="fill:#989898;fill-opacity:1;stroke:none" />
    <path
       inkscape:connector-curvature="0"
       id="path3248"
       d="m 177.16825,115.72919 0.001,-0.0305 0.19532,-0.10128 c 0.42314,-0.21942 2.26766,-1.18346 2.69901,-1.41064 0.25126,-0.13233 0.45736,-0.24061 0.45801,-0.24061 6.5e-4,0 0.001,0.013 0.001,0.0288 l 0,0.0288 -0.44043,0.23249 c -0.69975,0.36936 -2.88329,1.51101 -2.9085,1.52068 -0.006,0.002 -0.007,-9e-5 -0.006,-0.0278 z"
       style="fill:#989898;fill-opacity:1;stroke:none" />
    <path
       inkscape:connector-curvature="0"
       id="path3250"
       d="m 181.80612,116.31127 c 0.86168,-0.42499 1.26565,-0.63144 1.40235,-0.71667 0.0301,-0.0187 0.074,-0.0448 0.0976,-0.0578 0.17693,-0.0975 0.82318,-0.42156 1.42417,-0.71408 l 0.10777,-0.0525 0.0969,0.001 0.0969,0.001 -0.14213,0.0679 c -0.33022,0.15782 -0.9698,0.45901 -1.32964,0.62616 -0.2127,0.0988 -0.38848,0.18135 -0.39063,0.18345 -0.006,0.006 -0.004,0.005 0.36133,-0.15794 0.37673,-0.16811 0.94047,-0.42485 1.27919,-0.58257 0.1181,-0.055 0.21627,-0.0995 0.21816,-0.0989 0.002,6.3e-4 -0.36985,0.18114 -0.82606,0.40113 -0.45622,0.21999 -1.16489,0.56226 -1.57482,0.76061 l -0.74532,0.36063 -0.0594,-2.2e-4 -0.0594,-2.3e-4 0.043,-0.0212 z"
       style="fill:#989898;fill-opacity:1;stroke:none" />
    <path
       inkscape:connector-curvature="0"
       id="path3252"
       d="m 173.81279,117.46336 0.001,-0.0305 0.8496,-0.43779 c 0.63114,-0.32522 2.47465,-1.2789 2.50098,-1.29379 0.002,-9.1e-4 0.003,0.0122 0.003,0.0292 l 0,0.0309 -0.73926,0.38307 c -0.83685,0.43365 -2.59403,1.34005 -2.61326,1.34799 -0.002,7.4e-4 -0.003,-0.0124 -0.002,-0.0291 z"
       style="fill:#989898;fill-opacity:1;stroke:none" />
    <path
       inkscape:connector-curvature="0"
       id="path3254"
       d="m 171.13894,118.80592 c 0.0279,-0.0147 0.51572,-0.26501 1.08398,-0.55616 0.56826,-0.29116 1.15801,-0.59368 1.31055,-0.67226 l 0.27734,-0.14288 0.001,0.0279 c 6.4e-4,0.0153 -3.2e-4,0.0293 -0.002,0.0312 -0.004,0.004 -0.8961,0.46197 -1.85472,0.95187 l -0.75803,0.38739 -0.0545,-1e-4 -0.0545,-10e-5 0.0508,-0.0268 z"
       style="fill:#989898;fill-opacity:1;stroke:none" />
    <path
       inkscape:connector-curvature="0"
       id="path3256"
       d="m 173.1976,120.5063 c 1.61121,-0.79215 4.35275,-2.13326 5.62493,-2.75159 0.63297,-0.30766 1.67315,-0.81104 1.69255,-0.8191 0.004,-0.002 0.005,0.005 0.004,0.0284 l -0.001,0.0305 -0.41992,0.20373 c -1.54763,0.75085 -5.58167,2.71879 -6.93333,3.38231 l -0.25949,0.12738 -0.0588,0 -0.0588,0 0.41008,-0.20161 z"
       style="fill:#989898;fill-opacity:1;stroke:none" />
    <path
       inkscape:connector-curvature="0"
       id="path3258"
       d="m 165.75901,121.57022 1.4e-4,-0.0244 1.08464,-0.55078 c 0.90732,-0.46074 3.24725,-1.65313 4.02873,-2.05298 l 0.21327,-0.10913 0.0313,0 c 0.0172,0 0.0396,0.001 0.0497,0.003 l 0.0184,0.003 -0.0384,0.0204 c -0.14449,0.077 -5.37903,2.73624 -5.38615,2.73624 -9.9e-4,0 -0.002,-0.011 -0.002,-0.0244 z"
       style="fill:#989898;fill-opacity:1;stroke:none" />
    <path
       inkscape:connector-curvature="0"
       id="path3260"
       d="m 170.28034,121.94145 c 0.0425,-0.0218 0.41938,-0.20741 1.55055,-0.76343 l 0.9568,-0.47031 0.0566,0.001 0.0566,0.001 -1.27244,0.62402 -1.27245,0.62402 -0.0534,-1.9e-4 -0.0534,-2e-4 0.0312,-0.0161 0,0 z"
       style="fill:#989898;fill-opacity:1;stroke:none" />
    <path
       inkscape:connector-curvature="0"
       id="path3262"
       d="m 167.90729,123.10972 c 0.1085,-0.0537 0.67903,-0.33484 1.26784,-0.62481 l 1.07057,-0.52723 0.0532,0.001 0.0532,0.001 -0.55349,0.27135 c -0.30442,0.14924 -0.87596,0.43005 -1.27009,0.62402 l -0.7166,0.35267 -0.051,-3e-4 -0.051,-3e-4 0.19726,-0.0976 z"
       style="fill:#989898;fill-opacity:1;stroke:none" />
    <path
       inkscape:connector-curvature="0"
       id="path3264"
       d="m 160.39011,124.28699 0,-0.0228 0.95019,-0.47998 c 0.94988,-0.47982 4.06443,-2.05685 4.29492,-2.17469 l 0.12207,-0.0624 0,0.025 0,0.025 -0.57519,0.29134 c -0.85656,0.43384 -2.90881,1.47103 -3.90332,1.9727 -0.48125,0.24276 -0.87808,0.44301 -0.88184,0.44499 -0.006,0.003 -0.007,0.001 -0.007,-0.0192 z"
       style="fill:#989898;fill-opacity:1;stroke:none" />
    <path
       inkscape:connector-curvature="0"
       id="path3266"
       d="m 165.17937,124.45645 c 9.7e-4,-9.4e-4 0.57034,-0.28229 1.26529,-0.62523 l 1.26353,-0.62352 0.0499,0.001 0.0499,0.001 -1.26593,0.62304 -1.26593,0.62305 -0.0493,0.001 c -0.0271,6e-4 -0.0485,3.3e-4 -0.0475,-6.1e-4 l 0,0 z"
       style="fill:#989898;fill-opacity:1;stroke:none" />
    <path
       inkscape:connector-curvature="0"
       id="path3268"
       d="m 154.35029,127.32998 2e-5,-0.0225 0.70994,-0.35705 c 1.02646,-0.51625 4.09359,-2.06173 4.75764,-2.39731 0.31198,-0.15766 0.56827,-0.28665 0.56953,-0.28665 0.001,0 0.002,0.01 0.001,0.0222 l -0.001,0.0222 -2.1289,1.07366 c -2.19174,1.10534 -3.90414,1.96792 -3.90673,1.96792 -8.1e-4,0 -0.001,-0.0101 -0.001,-0.0225 z"
       style="fill:#989898;fill-opacity:1;stroke:none" />
    <path
       inkscape:connector-curvature="0"
       id="path3270"
       d="m 158.22168,127.89384 c 0.006,-0.006 6.85495,-3.38905 6.86063,-3.38905 0.001,0 0.002,0.0102 0.002,0.0228 l 0,0.0228 -0.40137,0.1975 c -0.49105,0.24164 -5.28755,2.61009 -5.91849,2.92248 l -0.45462,0.22508 -0.0451,0 c -0.0248,0 -0.0443,-7.1e-4 -0.0434,-0.002 z"
       style="fill:#989898;fill-opacity:1;stroke:none" />
    <path
       inkscape:connector-curvature="0"
       id="path3272"
       d="m 155.69422,129.144 c 9.6e-4,-9.1e-4 0.56916,-0.28227 1.26266,-0.62525 l 1.26092,-0.62358 0.0444,0.001 0.0444,0.001 -1.25802,0.62304 -1.25801,0.62305 -0.049,0.001 c -0.027,6e-4 -0.0482,3.5e-4 -0.0473,-5.6e-4 z"
       style="fill:#989898;fill-opacity:1;stroke:none" />
    <path
       inkscape:connector-curvature="0"
       id="path3274"
       d="m 148.31122,130.36575 0.001,-0.0258 1.96875,-0.98816 c 1.08282,-0.54349 2.44041,-1.22536 3.01689,-1.51526 0.57647,-0.2899 1.04889,-0.52709 1.0498,-0.52709 9.2e-4,0 0.002,0.0101 0.002,0.0225 l -4e-5,0.0225 -3.01734,1.51855 c -1.65953,0.83521 -3.01838,1.51856 -3.01967,1.51856 -0.001,0 -0.002,-0.0116 -0.001,-0.0258 z"
       style="fill:#989898;fill-opacity:1;stroke:none" />
    <path
       inkscape:connector-curvature="0"
       id="path3276"
       d="m 152.69909,130.62641 c 1.05038,-0.52068 1.54923,-0.76776 2.21066,-1.09493 l 0.78098,-0.3863 0.0461,0.001 0.0461,0.001 -0.72938,0.36109 c -0.40116,0.1986 -1.10934,0.54972 -1.57374,0.78027 l -0.84437,0.41918 -0.0502,-9e-5 -0.0502,-9e-5 0.16406,-0.0813 z"
       style="fill:#989898;fill-opacity:1;stroke:none" />
    <path
       inkscape:connector-curvature="0"
       id="path3278"
       d="m 142.94167,133.06043 0,-0.0303 0.13184,-0.0657 c 0.34204,-0.17048 4.9326,-2.47049 5.07421,-2.54233 l 0.16114,-0.0817 0,0.0271 0,0.0271 -2.68184,1.34814 c -1.47501,0.74147 -2.68263,1.34814 -2.6836,1.34814 -9.6e-4,0 -0.002,-0.0136 -0.002,-0.0303 z"
       style="fill:#989898;fill-opacity:1;stroke:none" />
    <path
       inkscape:connector-curvature="0"
       id="path3280"
       d="m 146.34792,133.77464 c 0.0634,-0.0318 1.48136,-0.73491 3.15106,-1.56241 l 3.03583,-1.50455 0.0484,0.001 0.0484,0.001 -1.81663,0.90218 c -0.99915,0.4962 -2.41243,1.19888 -3.14063,1.56152 l -1.32401,0.65934 -0.0588,-2.1e-4 -0.0588,-2.1e-4 0.11523,-0.0579 z"
       style="fill:#989898;fill-opacity:1;stroke:none" />
    <path
       inkscape:connector-curvature="0"
       id="path3282"
       d="m 140.26511,134.36991 c 1.4706,-0.73576 2.67426,-1.33775 2.6748,-1.33776 5.4e-4,-1e-5 9.8e-4,0.0136 9.8e-4,0.0303 l 0,0.0303 -1.44238,0.72514 c -0.79332,0.39883 -1.96376,0.98723 -2.60099,1.30754 l -1.1586,0.58239 -0.0738,-1.2e-4 -0.0738,-1.3e-4 2.67383,-1.33775 z"
       style="fill:#989898;fill-opacity:1;stroke:none" />
    <path
       inkscape:connector-curvature="0"
       id="path3284"
       d="m 142.45674,135.70642 c 0.002,-0.002 3.29041,-1.63504 3.59287,-1.78436 l 0.18098,-0.0893 0.0577,0.001 0.0578,0.001 -1.8785,0.93554 -1.87849,0.93555 -0.067,0.001 c -0.0369,5.9e-4 -0.0663,3.2e-4 -0.0653,-6.1e-4 l 0,0 z"
       style="fill:#989898;fill-opacity:1;stroke:none" />
    <path
       inkscape:connector-curvature="0"
       id="path3286"
       d="m 138.05059,137.89387 c 8.9e-4,-8.5e-4 0.99176,-0.49308 2.20192,-1.09384 l 2.20028,-1.0923 0.0648,0.001 0.0648,0.001 -2.18889,1.09286 -2.1889,1.09287 -0.0778,-1e-4 c -0.0428,-5e-5 -0.0771,-7.8e-4 -0.0762,-0.002 z"
       style="fill:#989898;fill-opacity:1;stroke:none" />
    <path
       inkscape:connector-curvature="0"
       id="path3288"
       d="m 130.86208,139.10948 1e-4,-0.0363 3.36416,-1.68295 3.36416,-1.68295 0.0723,0.001 0.0723,0.001 -3.41566,1.71679 c -3.11345,1.5649 -3.4175,1.7169 -3.43652,1.71797 l -0.0209,0.001 1e-4,-0.0363 z"
       style="fill:#989898;fill-opacity:1;stroke:none" />
    <path
       inkscape:connector-curvature="0"
       id="path3290"
       d="m 135.88933,138.96827 c 0.19443,-0.0972 0.75922,-0.37833 1.25509,-0.62483 l 0.90159,-0.44819 0.0786,0.001 0.0786,0.001 -1.25076,0.62402 -1.25076,0.62402 -0.0829,-2.4e-4 -0.0829,-2.4e-4 0.35352,-0.17666 z"
       style="fill:#989898;fill-opacity:1;stroke:none" />
    <path
       inkscape:connector-curvature="0"
       id="path3292"
       d="m 127.50657,140.80264 6e-5,-0.0459 0.43256,-0.21735 c 1.00682,-0.50592 2.91822,-1.46429 2.92041,-1.46429 0.001,0 0.002,0.0158 0.002,0.0352 l 0,0.0351 0.012,0 c 0.007,0 0.0207,-0.004 0.0314,-0.008 0.0107,-0.005 0.0201,-0.008 0.0209,-0.007 8.1e-4,8.3e-4 -0.32312,0.16456 -0.71984,0.36385 -0.39672,0.19929 -1.16516,0.58552 -1.70764,0.8583 -0.54248,0.27278 -0.98765,0.49601 -0.98926,0.49606 -0.002,5e-5 -0.003,-0.0206 -0.003,-0.0458 z"
       style="fill:#989898;fill-opacity:1;stroke:none" />
    <path
       inkscape:connector-curvature="0"
       id="path3294"
       d="m 131.34636,141.22779 c 0.11494,-0.0576 1.1038,-0.54971 2.19748,-1.09362 l 1.98849,-0.98892 0.0831,0.001 0.0831,0.001 -2.18684,1.09285 -2.18683,1.09285 -0.0937,-2.9e-4 -0.0937,-2.9e-4 0.20899,-0.1047 z"
       style="fill:#989898;fill-opacity:1;stroke:none" />
    <path
       inkscape:connector-curvature="0"
       id="path3296"
       d="m 128.32495,142.73009 c 0.18257,-0.0909 0.88929,-0.44252 1.57048,-0.78132 l 1.23853,-0.616 0.0931,0.001 0.0931,0.001 -1.56409,0.7803 -1.56408,0.78029 -0.0995,-2e-5 -0.0995,-3e-5 0.33196,-0.16532 z"
       style="fill:#989898;fill-opacity:1;stroke:none" />
    <path
       inkscape:connector-curvature="0"
       id="path3298"
       d="m 120.7957,144.13662 c 1e-4,-0.008 0.20783,-0.11325 1.78222,-0.90507 1.71081,-0.86042 4.90942,-2.46634 4.92199,-2.47116 0.005,-0.002 0.006,0.004 0.006,0.0445 l -1.6e-4,0.0469 -3.27448,1.64681 -3.27448,1.6468 -0.0806,0 -0.0805,0 1.2e-4,-0.009 0,0 z"
       style="fill:#989898;fill-opacity:1;stroke:none" />
    <path
       inkscape:connector-curvature="0"
       id="path3300"
       d="m 125.4834,144.14399 c 9e-4,-7.8e-4 0.56583,-0.28206 1.2554,-0.62506 l 1.25377,-0.62365 0.0974,0.001 0.0974,0.001 -1.25097,0.62402 -1.25096,0.62402 -0.10183,0 c -0.056,0 -0.10109,-6.4e-4 -0.1002,-0.001 l 0,0 z"
       style="fill:#989898;fill-opacity:1;stroke:none" />
    <path
       inkscape:connector-curvature="0"
       id="path3302"
       d="m 122.97168,145.39384 c 9e-4,-8.6e-4 0.56571,-0.28214 1.25514,-0.62506 l 1.25351,-0.62349 0.10077,0.001 0.10077,0.001 -1.25386,0.62402 -1.25385,0.62402 -0.10205,0 c -0.0561,0 -0.10132,-7e-4 -0.10043,-0.002 z"
       style="fill:#989898;fill-opacity:1;stroke:none" />
    <path
       inkscape:connector-curvature="0"
       id="path3304"
       d="m 115.25222,146.92319 c 0.15615,-0.0812 5.53753,-2.7934 5.54243,-2.7934 9.7e-4,0 8.5e-4,0.003 -2.6e-4,0.008 -0.002,0.007 4.3e-4,0.008 0.078,0.009 l 0.0801,0.001 -0.74468,0.3746 c -0.40957,0.20603 -1.66616,0.83841 -2.79242,1.40527 l -2.04775,1.03067 -0.0909,-1e-4 -0.0909,-1e-4 0.0664,-0.0345 z"
       style="fill:#989898;fill-opacity:1;stroke:none" />
    <path
       inkscape:connector-curvature="0"
       id="path3306"
       d="m 117.3171,148.20618 c 9.6e-4,-9.6e-4 0.48949,-0.24411 1.08562,-0.54033 0.59613,-0.29622 1.86708,-0.92829 2.82433,-1.40458 l 1.74046,-0.86599 0.10142,0.001 0.10142,0.001 -1.45126,0.72253 c -0.79819,0.3974 -2.06956,1.02977 -2.82528,1.40527 l -1.37403,0.68274 -0.10221,0 c -0.0562,0 -0.10142,-7.8e-4 -0.10047,-0.002 l 0,0 z"
       style="fill:#989898;fill-opacity:1;stroke:none" />
    <path
       inkscape:connector-curvature="0"
       id="path3308"
       d="m 112.74245,148.19911 c 0,-0.01 0.0206,-0.0205 1.58435,-0.80942 l 0.85192,-0.42982 0.089,0.001 c 0.049,6.1e-4 0.0884,0.002 0.0875,0.002 -8.1e-4,7.5e-4 -0.55716,0.28106 -1.23633,0.6229 l -1.23485,0.62152 -0.0708,0 -0.0708,0 0,-0.009 z"
       style="fill:#989898;fill-opacity:1;stroke:none" />
    <path
       inkscape:connector-curvature="0"
       id="path3310"
       d="m 112.28418,150.70637 c 9e-4,-8.4e-4 1.13257,-0.56337 2.51484,-1.25006 l 2.51321,-1.24852 0.10179,0.001 0.1018,0.001 -1.32399,0.65785 c -0.72819,0.36182 -1.86054,0.92388 -2.51632,1.24902 l -1.19233,0.59117 -0.10031,0 c -0.0552,0 -0.0996,-6.9e-4 -0.0987,-0.002 z"
       style="fill:#989898;fill-opacity:1;stroke:none" />
    <path
       inkscape:connector-curvature="0"
       id="path3312"
       d="m 106.70272,151.28701 1.2e-4,-0.0381 0.83094,-0.42158 c 1.00068,-0.50769 5.20381,-2.63506 5.2062,-2.63506 9.3e-4,0 0.002,0.003 0.002,0.008 0,0.007 0.003,0.008 0.0693,0.009 l 0.0693,0.001 -0.44336,0.22313 c -1.05013,0.5285 -4.17027,2.10256 -4.9168,2.48043 -0.44731,0.22642 -0.81425,0.41167 -0.81543,0.41167 -0.001,0 -0.002,-0.0171 -0.002,-0.0381 z"
       style="fill:#989898;fill-opacity:1;stroke:none" />
    <path
       inkscape:connector-curvature="0"
       id="path3314"
       d=""
       style="fill:#989898;fill-opacity:1;stroke:none" />
    <path
       inkscape:connector-curvature="0"
       id="path3316"
       d="m 109.76543,151.95653 c 9e-4,-7.5e-4 0.18268,-0.0911 0.40397,-0.20068 0.22129,-0.10962 0.78682,-0.39028 1.25672,-0.62369 l 0.85438,-0.42438 0.0995,0.001 0.0995,0.001 -1.25855,0.62404 -1.25855,0.62404 -0.0993,-2e-5 c -0.0546,-1e-5 -0.0986,-6.4e-4 -0.0977,-0.001 z"
       style="fill:#989898;fill-opacity:1;stroke:none" />
    <path
       inkscape:connector-curvature="0"
       id="path3318"
       d="m 106.70261,153.49764 0,-0.0228 0.4248,-0.21036 c 0.23364,-0.1157 0.92208,-0.45701 1.52986,-0.75847 l 1.10506,-0.54812 0.0981,2.1e-4 0.0981,2.2e-4 -0.11524,0.0579 c -0.0634,0.0318 -0.77301,0.38331 -1.57696,0.78104 l -1.46173,0.72313 -0.051,0 -0.051,0 0,-0.0228 z"
       style="fill:#989898;fill-opacity:1;stroke:none" />
    <path
       inkscape:connector-curvature="0"
       id="path3320"
       d="m 99.991748,154.7167 7.9e-5,-0.0537 1.914963,-0.97545 c 1.6308,-0.8307 4.79084,-2.43666 4.79462,-2.43666 6.6e-4,0 0.001,0.0172 0.001,0.0381 l 0,0.0381 -1.74019,0.88081 -1.74019,0.88081 -5.3e-4,0.51758 c -8.1e-4,0.79193 4e-4,0.91924 0.0106,1.11621 l 0.002,0.0479 -1.62157,0 -1.621561,0 7.9e-5,-0.0537 z"
       style="fill:#989898;fill-opacity:1;stroke:none" />
    <path
       inkscape:connector-curvature="0"
       id="path3322"
       d="m 99.991669,155.39541 0,-0.625 1.620811,0 1.62081,0 0.002,0.0205 c 0.001,0.0113 0.005,0.0583 0.008,0.10449 0.0123,0.16397 0.0293,0.25782 0.0466,0.25782 0.0153,0 0.90071,-0.4347 2.68619,-1.31878 0.39657,-0.19635 0.7222,-0.35701 0.72364,-0.35701 0.001,0 0.003,0.01 0.003,0.0214 l 0,0.0214 0.0492,0.001 0.0492,0.001 -0.89389,0.44218 c -0.49164,0.2432 -1.62951,0.80526 -2.52859,1.24902 l -1.6347,0.80684 -0.87604,0 -0.876051,0 0,-0.625 z"
       style="fill:#989898;fill-opacity:1;stroke:none" />
    <path
       inkscape:connector-curvature="0"
       id="path3324"
       d="m 96.636204,156.98037 3e-6,-0.60254 0.149411,-0.0767 c 0.593075,-0.30446 3.201576,-1.6362 3.204837,-1.6362 9.55e-4,0 0.0012,0.0233 4.99e-4,0.0518 -6.81e-4,0.0285 -7.98e-4,0.33345 -2.61e-4,0.67773 l 9.76e-4,0.62597 0.873861,9.8e-4 0.87386,9.9e-4 -0.5057,0.2497 c -0.27813,0.13733 -0.99073,0.48846 -1.58356,0.78027 l -1.077868,0.53057 -0.968031,0 -0.96803,0 3e-6,-0.60254 z"
       style="fill:#989898;fill-opacity:1;stroke:none" />
    <path
       inkscape:connector-curvature="0"
       id="path3326"
       d="m 93.281684,158.38705 0.001,-0.28961 0.771484,-0.39614 c 1.066431,-0.54759 2.577307,-1.32151 2.579892,-1.32151 0.0012,0 0.0021,0.2707 0.0021,0.60155 l 0,0.60156 0.965958,9.8e-4 0.965958,9.9e-4 -1.109079,0.54589 -1.109079,0.5459 -1.534639,0 -1.534638,0 0.001,-0.28961 z"
       style="fill:#989898;fill-opacity:1;stroke:none" />
    <path
       inkscape:connector-curvature="0"
       id="path3328"
       d="m 93.280732,159.42903 0,-0.75237 1.53418,8e-5 1.534179,8e-5 -0.05469,0.0267 c -0.03008,0.0147 -0.718262,0.35234 -1.529297,0.75034 -0.811035,0.39799 -1.476807,0.72451 -1.479492,0.72558 -0.0039,0.002 -0.0049,-0.15008 -0.0049,-0.75042 z"
       style="fill:#989898;fill-opacity:1;stroke:none" />
    <path
       inkscape:connector-curvature="0"
       id="path3330"
       d="m 89.925379,160.03311 1.16e-4,-0.20606 0.635626,-0.32791 c 0.349595,-0.18035 1.065412,-0.54919 1.590705,-0.81963 0.525293,-0.27045 0.994162,-0.51189 1.041932,-0.53655 l 0.08685,-0.0448 6.9e-5,1.02905 c 4e-5,0.56598 0.0012,1.03454 0.0025,1.04125 l 0.0024,0.0122 -0.06122,0.0293 -0.06123,0.0293 -1.618958,0 -1.618958,0 1.16e-4,-0.20605 z"
       style="fill:#989898;fill-opacity:1;stroke:none" />
    <path
       inkscape:connector-curvature="0"
       id="path3332"
       d="m 89.925263,161.02237 0,-0.7793 1.613933,0 c 0.887662,0 1.613121,8.1e-4 1.61213,0.002 -0.0026,0.003 -0.313928,0.15502 -1.824593,0.89313 -1.30651,0.63836 -1.359119,0.66366 -1.379883,0.66366 l -0.02159,0 0,-0.77929 z"
       style="fill:#989898;fill-opacity:1;stroke:none" />
    <path
       inkscape:connector-curvature="0"
       id="path3334"
       d="m 86.569794,161.68499 0,-0.11668 0.713868,-0.37124 c 0.88772,-0.46165 2.637116,-1.36806 2.640398,-1.36806 6.62e-4,0 0.0012,0.44384 0.0012,0.98632 l 0,0.98633 -1.677734,0 -1.677735,0 0,-0.11667 z"
       style="fill:#989898;fill-opacity:1;stroke:none" />
    <path
       inkscape:connector-curvature="0"
       id="path3336"
       d="m 86.569794,162.42663 0,-0.62503 1.697856,9e-5 c 0.93382,5e-5 1.69715,7.8e-4 1.696289,0.002 -0.0031,0.003 -1.537386,0.75073 -2.286,1.11409 l -0.276621,0.13427 -0.415762,0 -0.415762,0 0,-0.62503 z"
       style="fill:#989898;fill-opacity:1;stroke:none" />
    <path
       inkscape:connector-curvature="0"
       id="path3338"
       d="m 81.201994,164.66244 0.001,-0.26423 0.144531,-0.0779 c 0.820765,-0.44253 2.788222,-1.48109 4.412109,-2.32904 0.385645,-0.20137 0.724242,-0.37827 0.752439,-0.39309 0.0282,-0.0148 0.05237,-0.027 0.05371,-0.027 0.0013,0 0.0024,0.33398 0.0024,0.74217 l 0,0.74217 0.410624,0.001 0.410625,9.9e-4 -0.470195,0.22819 c -0.966243,0.46891 -2.641412,1.27748 -3.230616,1.55935 l -0.170578,0.0816 -1.158551,0 -1.158551,0 0.001,-0.26422 z"
       style="fill:#989898;fill-opacity:1;stroke:none" />
    <path
       inkscape:connector-curvature="0"
       id="path3340"
       d="m 78.913544,166.9949 c -0.0032,-6.5e-4 -0.02695,-0.003 -0.05273,-0.006 -0.292549,-0.0288 -0.573684,-0.17273 -0.72441,-0.37077 -0.07982,-0.10488 -0.125722,-0.22216 -0.131912,-0.33703 -0.0022,-0.0409 -0.002,-0.0421 0.0081,-0.0554 0.07889,-0.10344 0.829317,-0.54417 2.193917,-1.2885 0.317914,-0.17341 0.932529,-0.50584 0.978911,-0.52946 l 0.01602,-0.008 -0.0019,0.26345 -0.0019,0.26345 1.158455,9.8e-4 1.158455,9.9e-4 -0.305361,0.14619 c -1.69179,0.80996 -3.116594,1.47535 -3.707706,1.73152 -0.211955,0.0918 -0.359173,0.15114 -0.438404,0.17657 -0.04151,0.0133 -0.04656,0.014 -0.09375,0.0136 -0.02743,-2.5e-4 -0.05251,-9.8e-4 -0.05574,-0.002 z"
       style="fill:#989898;fill-opacity:1;stroke:none" />
  </g>
</svg>
