<?xml version="1.0" encoding="iso-8859-1"?>
<!-- Generator: Adobe Illustrator 15.1.0, SVG Export Plug-In . SVG Version: 6.00 Build 0)  -->
<!DOCTYPE svg PUBLIC "-//W3C//DTD SVG 1.1//EN" "http://www.w3.org/Graphics/SVG/1.1/DTD/svg11.dtd">
<svg version="1.1" xmlns="http://www.w3.org/2000/svg" xmlns:xlink="http://www.w3.org/1999/xlink" x="0px" y="0px" width="712px"
	 height="512px" viewBox="0 0 712 512" style="enable-background:new 0 0 712 512;" xml:space="preserve">
<g id="stylingbar_x5F_icon_x5F_graphics3">
	<g>
		<rect y="41.96" style="fill:#999999;" width="454.811" height="60"/>
		<rect y="226" style="fill:#999999;" width="454.811" height="60"/>
		<rect y="412.039" style="fill:#999999;" width="454.811" height="60.001"/>
	</g>
	<polyline style="fill:#FFFFFF;" points="239.471,396.475 740.527,398.274 462.028,-30.093 	"/>
	<circle style="fill:#FFFFFF;" cx="332.728" cy="339.977" r="187.599"/>
	<g>
		<g>
			<circle style="opacity:0.4;fill:#009900;" cx="333.939" cy="341.188" r="170.81"/>
			<g>
				<path style="fill:#009900;" d="M333.941,170.378c-94.339,0-170.813,76.473-170.813,170.811
					c0,94.336,76.474,170.811,170.813,170.811c94.335,0,170.808-76.475,170.808-170.811
					C504.749,246.851,428.276,170.378,333.941,170.378z M333.939,494.919c-84.902,0-153.729-68.828-153.729-153.73
					S249.037,187.46,333.939,187.46s153.729,68.826,153.729,153.729S418.842,494.919,333.939,494.919z"/>
			</g>
		</g>
		<g>
			<polyline style="opacity:0.4;fill:#0000FF;" points="265.039,380.513 712,382.118 463.569,-0.001 			"/>
			<g>
				<path style="fill:#0000FF;" d="M463.569,1.604l-198.53,380.514H712L463.569,1.604z M465.325,35.519l214.124,329.35
					l-385.237-0.244L465.325,35.519z"/>
			</g>
		</g>
	</g>
	<g>
		<path style="fill:#666666;" d="M700.524,140.08c0,14.813-5.576,27.142-16.723,36.987c-11.15,9.85-25.27,14.771-42.359,14.771
			c-18.883,0-33.203-5.043-42.969-15.137c-9.766-10.09-14.648-22.053-14.648-35.889h26.611c1.953,21.16,12.531,31.738,31.738,31.738
			c8.461,0,16.152-3.052,23.072-9.155c6.916-6.104,10.375-13.142,10.375-21.118c0-25.715-16.846-38.33-50.537-37.842v-20.02
			c15.625,0,27.467-2.686,35.523-8.057s12.084-14.076,12.084-26.123c0-9.438-3.295-16.235-9.887-20.386s-13.715-6.226-21.363-6.226
			c-15.465,0-24.986,10.418-28.564,31.25h-25.391c2.113-16.273,7.729-28.767,16.846-37.476c9.113-8.705,21.32-13.062,36.621-13.062
			c16.762,0,30.396,4.517,40.895,13.55s15.746,20.386,15.746,34.058c0,5.699-1.182,10.986-3.539,15.869
			c-2.361,4.883-5.25,8.751-8.668,11.597c-3.418,2.85-7,5.615-10.742,8.301c-3.746,2.686-6.92,4.681-9.521,5.981
			c1.137,0.652,3.578,1.953,7.324,3.906c3.742,1.953,6.916,3.868,9.521,5.737c2.602,1.873,5.494,4.437,8.668,7.69
			c3.174,3.258,5.615,7.324,7.324,12.207S700.524,133.732,700.524,140.08z"/>
	</g>
</g>
<g id="Ebene_1">
</g>
</svg>
