<svg width="60" height="60" xmlns="http://www.w3.org/2000/svg">
 <!-- Created with Method Draw - http://github.com/duopixel/Method-Draw/ -->

 <g>
  <title>background</title>
  <rect x="-1" y="-1" width="60" height="60" id="canvas_background" fill="none"/>
  <g id="canvasGrid" display="none">
   <rect id="svg_1" width="800" height="600" x="1" y="1" stroke-width="0" fill="url(#gridpattern)"/>
  </g>
 </g>
 <g>
  <title>Layer 1</title>
  <g stroke="null" id="svg_5">
   <path stroke="null" d="m51.87679,11.288849l-10.11526,-9.55353c-1.08507,-1.024814 -2.55594,-1.605548 -4.08709,-1.605548l-24.60697,0c-3.19492,0.01139 -5.78703,2.459555 -5.78703,5.477065l0,47.369142c0,3.017509 2.59211,5.465674 5.78703,5.465674l34.72222,0c3.19493,0 5.78704,-2.448165 5.78704,-5.465674l0,-37.815612c0,-1.446122 -0.61487,-2.846702 -1.69994,-3.871516zm-4.55729,3.427437l-9.17487,0l0,-8.665371l9.17487,8.665371zm-34.25203,38.259691l0,-47.369142l19.29013,0l0,11.842288c0,1.514445 1.29002,2.732828 2.89351,2.732828l12.53858,0l0,32.794026l-34.72222,0z" id="svg_4"/>
  </g>
  <g id="svg_10" stroke="null">
   <path d="m44.435411,39.78404l-5.68368,0l0,-6.00511c0,-0.73688 -0.56561,-1.33447 -1.26304,-1.33447l-1.26304,0c-0.69744,0 -1.26304,0.59759 -1.26304,1.33447l0,6.00511l-5.68368,0c-0.69744,0 -1.26304,0.59759 -1.26304,1.33447l0,1.33446c0,0.73688 0.5656,1.33447 1.26304,1.33447l5.68368,0l0,6.00511c0,0.73688 0.5656,1.33447 1.26304,1.33447l1.26304,0c0.69743,0 1.26304,-0.59759 1.26304,-1.33447l0,-6.00511l5.68368,0c0.69743,0 1.26304,-0.59759 1.26304,-1.33447l0,-1.33446c0,-0.73688 -0.56561,-1.33447 -1.26304,-1.33447z" id="svg_9" stroke="null"/>
  </g>
 </g>
</svg>