<svg xmlns="http://www.w3.org/2000/svg" viewBox="0 0 24 24" width="24" height="24"><defs><style>.cls-1,.cls-2{fill:none;stroke-miterlimit:10}.cls-1{stroke:#fff;stroke-width:4.32px}.cls-2{stroke:#000;stroke-width:2px}</style></defs><g id="grid_old"><path d="M3 6h18v2H3zm0 5h18v2H3zm0 5h18v2H3z"/><path d="M11 3h2v18h-2zM6 3h2v18H6zm10 0h2v18h-2z"/></g><g id="snap_to_grid"><path d="M12 21v-7.27c0-3.64 9-3.64 9 0V21" class="cls-1"/><path d="M12 19v-4.82c0-4.46 9-4 9 0V19" class="cls-2"/><path d="M11 20h2v2h-2zm9 0h2v2h-2z"/></g></svg>