<svg xmlns="http://www.w3.org/2000/svg" id="Ebene_1" viewBox="0 0 512 512" width="512" height="512"><defs><style>.cls-1{fill-rule:evenodd}</style></defs><path d="M26 255.35C29.67 43 236 84.25 236 84.25l128.9 26.26 18.48 66.42 23.22 12.85.7-70.4 77.7 12.07V207s-132.15-22.45-247.79-39-114.45 87.32-114.45 87.32m-96.76 0c0 208.88 210 171.37 210 171.37l249-46.95v-75.51s-33.36 4.42-72.84 10.79c-2.91.47 1.11 76.95-1.93 77.44-1 .17-24.6-12.74-24.6-12.74s-15.77-57.08-18-56.73c-47 7.51-74.18 11.89-130.47 19.93-115.64 16.52-114.45-87.57-114.45-87.57" class="cls-1"/></svg>