<?xml version="1.0" encoding="UTF-8" standalone="no"?>
<!-- Created with Inkscape (http://www.inkscape.org/) -->

<svg
   xmlns:dc="http://purl.org/dc/elements/1.1/"
   xmlns:cc="http://creativecommons.org/ns#"
   xmlns:rdf="http://www.w3.org/1999/02/22-rdf-syntax-ns#"
   xmlns:svg="http://www.w3.org/2000/svg"
   xmlns="http://www.w3.org/2000/svg"
   xmlns:xlink="http://www.w3.org/1999/xlink"
   xmlns:sodipodi="http://sodipodi.sourceforge.net/DTD/sodipodi-0.dtd"
   xmlns:inkscape="http://www.inkscape.org/namespaces/inkscape"
   id="svg2"
   version="1.1"
   inkscape:version="0.48.2 r9819"
   width="115"
   height="115"
   sodipodi:docname="mode_hyperbola3.png">
  <metadata
     id="metadata8">
    <rdf:RDF>
      <cc:Work
         rdf:about="">
        <dc:format>image/svg+xml</dc:format>
        <dc:type
           rdf:resource="http://purl.org/dc/dcmitype/StillImage" />
        <dc:title></dc:title>
      </cc:Work>
    </rdf:RDF>
  </metadata>
  <defs
     id="defs6" />
  <sodipodi:namedview
     pagecolor="#ffffff"
     bordercolor="#666666"
     borderopacity="1"
     objecttolerance="10"
     gridtolerance="10"
     guidetolerance="10"
     inkscape:pageopacity="0"
     inkscape:pageshadow="2"
     inkscape:window-width="1618"
     inkscape:window-height="1028"
     id="namedview4"
     showgrid="false"
     inkscape:zoom="4.1043478"
     inkscape:cx="70.625313"
     inkscape:cy="64.587372"
     inkscape:window-x="54"
     inkscape:window-y="-8"
     inkscape:window-maximized="1"
     inkscape:current-layer="svg2" />
  <g
     id="g3059">
    <path
       style="fill:#fdfbfb"
       d="m 0.36546561,57.012712 0,-57.50000014 57.50000039,0 57.500004,0 0,57.50000014 0,57.499988 -57.500004,0 -57.50000039,0 0,-57.499988 z"
       id="path3003"
       inkscape:connector-curvature="0" />
    <path
       style="fill:#fd5b5b"
       d="M 79.530041,109.55736 C 75.980354,105.0556 75.044086,104.4216 72.338855,104.68784 65.146112,105.39573 59.801004,99.056962 61.87962,92.284215 62.912515,88.918736 62.779855,88.638019 57.421296,82.850136 50.744171,75.638045 41.567689,68.246618 34.054099,64.028445 28.324795,60.81198 5.5782741,52.881764 2.0816773,52.881764 c -1.08499038,0 -1.97061408,-0.674123 -1.97061408,-1.5 0,-1.978558 0.1548362,-1.960358 11.62087478,1.365904 20.811824,6.037446 31.643783,12.27638 45.034904,25.938963 7.807252,7.965519 8.304181,8.293271 11.628518,7.669621 7.654965,-1.43608 13.181743,5.053338 10.702235,12.56632 -1.293637,3.919748 -1.2789,3.962568 3.42347,9.947938 3.662124,4.6613 4.314802,5.99453 2.906349,5.93685 -0.998993,-0.0409 -3.652811,-2.40342 -5.897373,-5.25 z M 23.221134,90.486257 c -1.31446,-0.728549 -2.986015,-2.400104 -3.714564,-3.714564 -5.099182,-9.200024 7.156141,-18.338281 14.604493,-10.889929 4.320702,4.320702 3.247484,11.78642 -2.091194,14.547158 -3.433623,1.775596 -5.672303,1.790184 -8.798735,0.05734 z M 104.11107,62.418836 C 76.163916,56.320726 59.744341,50.682327 48.522948,43.330158 41.128905,38.485639 27.154345,24.490367 16.361063,11.120607 11.823564,5.4999543 8.1110631,0.67185683 8.1110631,0.39150123 c 0,-0.2803554 0.5843793,-0.5097372 1.2986208,-0.5097372 0.7142421,0 4.3571601,3.84693597 8.0953721,8.54874647 15.054606,18.9352215 28.830194,31.5736545 41.106007,37.7127665 8.664437,4.333069 30.757888,10.65426 53.250007,15.23544 1.83077,0.37289 3.25,1.282289 3.25,2.082502 0,0.7813 -0.1125,1.381887 -0.25,1.334639 -0.1375,-0.04725 -4.975,-1.116908 -10.75,-2.377022 z M 58.221134,34.486257 c -1.31446,-0.728549 -2.986015,-2.400104 -3.714564,-3.714564 -5.099183,-9.200024 7.156141,-18.338281 14.604493,-10.889929 4.320702,4.320702 3.247484,11.78642 -2.091194,14.547158 -3.433623,1.775596 -5.672303,1.790184 -8.798735,0.05733 z"
       id="path2997"
       inkscape:connector-curvature="0" />
    <path
       style="fill:#000000"
       d="m 66.009875,103.25671 c -4.986578,-2.71016 -6.114485,-10.356765 -2.172854,-14.730796 4.026159,-4.467833 12.871498,-2.595787 15.286828,3.235336 1.901712,4.591139 -0.234182,10.53178 -4.295636,11.94761 -3.910937,1.36336 -5.641097,1.27465 -8.818338,-0.45215 z M 23.231893,90.360849 C 21.917433,89.6323 20.245878,87.960745 19.517329,86.646285 14.418146,77.446261 26.67347,68.308004 34.121822,75.756356 c 4.320702,4.320702 3.247484,11.78642 -2.091194,14.547158 -3.433623,1.775596 -5.672303,1.790184 -8.798735,0.05734 z m 35,-56 C 56.917433,33.6323 55.245878,31.960745 54.517329,30.646285 49.418146,21.446261 61.67347,12.308004 69.121822,19.756356 c 4.320702,4.320702 3.247484,11.78642 -2.091194,14.547158 -3.433623,1.775596 -5.672303,1.790184 -8.798735,0.05733 z"
       id="path2995"
       inkscape:connector-curvature="0" />
    <path
       style="fill:#00009d"
       d="m 65.290035,101.68752 c -3.392554,-3.392549 -3.7715,-5.897347 -1.543902,-10.205046 1.945162,-3.761527 7.311464,-5.002334 11.047461,-2.554415 6.863352,4.497041 5.154629,13.921511 -2.756839,15.205371 -3.202947,0.51976 -4.109811,0.191 -6.74672,-2.44591 z m 9.124868,-1.855224 c 3.422075,-3.096931 1.083642,-9.345008 -3.497506,-9.345008 -2.676217,0 -5.673753,2.813943 -5.673753,5.326247 0,4.792955 5.60289,7.248085 9.171259,4.018761 z M 22.166721,88.564211 c -1.76217,-1.76217 -2.923077,-3.977058 -2.923077,-5.576923 0,-3.508005 4.991995,-8.5 8.5,-8.5 3.508005,0 8.5,4.991995 8.5,8.5 0,3.508005 -4.991995,8.5 -8.5,8.5 -1.599865,0 -3.814753,-1.160907 -5.576923,-2.923077 z M 31.414903,86.8323 c 3.422075,-3.096935 1.083642,-9.345012 -3.497506,-9.345012 -2.676217,0 -5.673753,2.813943 -5.673753,5.326247 0,4.792958 5.60289,7.248096 9.171259,4.018765 z M 57.166721,32.564211 c -1.76217,-1.76217 -2.923077,-3.977058 -2.923077,-5.576923 0,-1.599865 1.160907,-3.814753 2.923077,-5.576923 1.76217,-1.76217 3.977058,-2.923077 5.576923,-2.923077 3.508005,0 8.5,4.991995 8.5,8.5 0,3.508005 -4.991995,8.5 -8.5,8.5 -1.599865,0 -3.814753,-1.160907 -5.576923,-2.923077 z M 66.414903,30.8323 c 3.422075,-3.096935 1.083642,-9.345012 -3.497506,-9.345012 -2.676217,0 -5.673753,2.813943 -5.673753,5.326247 0,4.792958 5.60289,7.248096 9.171259,4.018765 z"
       id="path2991"
       inkscape:connector-curvature="0" />
    <path
       sodipodi:nodetypes="cssssscccscc"
       inkscape:connector-curvature="0"
       id="path3013"
       d="m 68.604467,104.38933 c -0.886742,-0.32071 -1.759046,-1.33236 -3.062825,-2.63558 -3.489142,-3.487654 -3.92803,-5.750616 -1.917058,-9.884584 1.274696,-2.6204 3.731479,-4.09567 6.833541,-4.103466 1.938329,-0.0049 3.521489,0.578944 5.149455,1.898941 3.564117,2.889879 5.20141,7.428087 2.641932,10.828399 -1.509634,2.00558 -3.736876,3.57228 -6.762884,3.7114 -1.091874,0.0502 -2.385854,0.36439 -2.882161,0.18489 z m -1.70712,-4.648052 c 0.402192,0.372322 0.945216,0.786082 1.20672,0.919472 1.215791,0.62018 -1.449359,0.0771 -0.156289,-0.32252 18.518734,-9.862589 -14.894914,-13.856828 -1.050431,-0.596952 z"
       style="fill:#000000;fill-opacity:1;stroke:none" />
    <path
       inkscape:connector-curvature="0"
       id="path3015"
       d="m 27.008198,91.33948 c -2.63641,-0.529181 -5.835295,-3.281919 -7.128701,-6.134465 -0.553168,-1.219986 -0.67289,-2.083089 -0.43599,-3.143146 0.540257,-2.417484 3.103648,-5.433663 5.73736,-6.750787 1.992647,-0.996525 3.154846,-0.992377 5.155302,0.0184 2.620138,1.323886 5.251349,4.45009 5.754664,6.837252 0.380569,1.804985 -0.62928,4.053417 -2.807067,6.249951 -1.622725,1.636694 -3.257604,2.627506 -4.808572,2.914218 -0.795166,0.146994 -0.777896,0.146893 -1.466996,0.0086 l 0,10e-7 z m 2.262052,-3.237219 c 2.314066,-0.679689 3.770342,-2.616537 3.766692,-5.0097 -0.004,-2.604356 -1.513006,-4.785614 -3.766692,-5.444627 -2.352536,-0.687919 -5.254613,0.766095 -6.525159,3.269269 -1.697067,3.343487 0.960505,7.35957 4.880562,7.37543 0.55418,0.0022 1.271538,-0.0808 1.644597,-0.190372 l 0,0 z"
       style="fill:#000000;fill-opacity:1;stroke:none" />
    <path
       inkscape:connector-curvature="0"
       id="path3017"
       d="m 61.400806,35.198741 c -3.540384,-1.169605 -7.031525,-5.230458 -7.040992,-8.189998 -0.0084,-2.615897 2.70486,-6.166291 5.905799,-7.728032 1.865412,-0.910135 3.091453,-0.923094 4.896058,-0.05175 2.443346,1.179758 4.975112,3.957894 5.768007,6.329301 0.755051,2.258225 -0.489381,5.021372 -3.430226,7.616501 -2.140007,1.888434 -4.319482,2.611744 -6.098646,2.023977 l 0,0 z m 3.006756,-3.14619 c 1.273359,-0.409078 2.547595,-1.494732 3.150261,-2.684035 1.056302,-2.084512 0.456436,-4.995998 -1.36916,-6.645315 -1.086591,-0.981669 -2.789675,-1.488303 -4.051574,-1.205262 -1.481244,0.332239 -2.898166,1.255299 -3.830232,2.49522 -0.966304,1.285469 -1.243851,2.264595 -1.030931,3.636901 0.526959,3.396334 3.859629,5.453652 7.131636,4.402491 z"
       style="fill:#000000;fill-opacity:1;stroke:none" />
    <path
       inkscape:connector-curvature="0"
       id="path3019"
       d="m 62.274666,35.443295 c -0.220383,-0.03068 -0.627047,-0.126311 -0.449731,-0.10576 0.682318,0.07908 0.838957,0.08582 1.215739,0.05231 0.753344,-0.067 1.396692,-0.259082 2.210506,-0.659978 1.073976,-0.529056 2.006467,-1.242575 3.155016,-2.414138 1.186656,-1.210432 1.946034,-2.331209 2.388651,-3.525441 0.327844,-0.884562 0.434528,-1.847874 0.29211,-2.637625 -0.312798,-1.734552 -1.946986,-4.060048 -4.014545,-5.712809 -1.130616,-0.903789 -2.372366,-1.541927 -3.46583,-1.781097 -0.44149,-0.09657 -1.208749,-0.09624 -1.659825,7.04e-4 -0.930582,0.200001 -2.105674,0.750547 -3.12169,1.462554 -0.637961,0.447072 -1.42128,1.127341 -1.906024,1.655275 -1.036588,1.128948 -1.719303,2.172186 -2.167865,3.312654 -0.680245,1.72952 -0.48377,3.233487 0.672391,5.146981 1.013192,1.676875 2.630137,3.249736 4.360847,4.241953 0.368027,0.21099 1.009895,0.515105 1.333158,0.631647 0.105092,0.03789 0.184339,0.07562 0.176105,0.08386 -0.03304,0.03304 -0.610536,-0.203026 -1.113341,-0.455116 -1.137093,-0.570102 -2.041676,-1.235923 -3.030324,-2.23048 -1.419457,-1.427943 -2.441203,-3.125808 -2.788587,-4.633882 -0.08117,-0.352374 -0.111592,-1.067006 -0.06039,-1.418518 0.174609,-1.198655 0.905558,-2.694331 1.957222,-4.004891 0.307054,-0.382643 0.402271,-0.487583 0.903326,-0.995568 1.422629,-1.442303 3.177645,-2.505051 4.714791,-2.855035 0.349021,-0.07947 1.031187,-0.109418 1.392416,-0.06114 1.555033,0.207847 3.387268,1.268548 5.027936,2.910725 1.021771,1.022712 1.851016,2.160463 2.334172,3.20256 0.81547,1.758852 0.788154,3.075202 -0.100705,4.852952 -1.408331,2.816714 -4.496638,5.405206 -7.03021,5.892433 -0.315126,0.0606 -0.946282,0.08371 -1.225322,0.04487 l 0,0 z"
       style="fill:#000000;fill-opacity:1;stroke:none" />
    <path
       inkscape:connector-curvature="0"
       id="path3021"
       d=""
       style="fill:#000000;fill-opacity:1;stroke:none" />
    <path
       inkscape:connector-curvature="0"
       id="path3023"
       d=""
       style="fill:#000000;fill-opacity:1;stroke:none" />
    <path
       inkscape:connector-curvature="0"
       id="path3025"
       d=""
       style="fill:#000000;fill-opacity:1;stroke:none" />
    <path
       inkscape:connector-curvature="0"
       id="path3027"
       d="m 68.514333,104.10446 c -0.38935,-0.12987 -0.957964,-0.44834 -1.407601,-0.78838 -0.819688,-0.6199 -2.193307,-1.96371 -2.945352,-2.88144 -1.443178,-1.761132 -1.973924,-3.305987 -1.751906,-5.099315 0.128465,-1.03766 0.502428,-2.14673 1.18765,-3.522239 0.123209,-0.247328 0.249695,-0.494446 0.28108,-0.54915 0.885094,-1.542723 2.363658,-2.679141 4.217085,-3.241233 1.302328,-0.394959 2.772161,-0.452498 4.110284,-0.160904 1.171355,0.255253 2.212506,0.75109 3.243126,1.544503 1.588666,1.223021 2.702598,2.770785 3.249241,4.51469 0.269322,0.859195 0.384931,1.692813 0.362623,2.614765 -0.01287,0.531917 -0.04823,0.859453 -0.144317,1.336962 -0.344188,1.710404 -1.264574,3.259241 -2.591589,4.361151 -1.145257,0.95098 -2.518521,1.56799 -4.146878,1.86318 -0.284672,0.0516 -0.407476,0.0635 -0.635291,0.0614 l -0.282404,-0.003 0.22612,-0.0279 c 2.758103,-0.34012 4.932407,-1.5937 6.263759,-3.61132 0.693386,-1.050808 1.098282,-2.229817 1.210987,-3.52625 0.03206,-0.368819 0.01319,-1.278146 -0.03353,-1.615706 -0.230305,-1.663899 -0.878907,-3.134898 -1.952165,-4.42742 -0.901466,-1.085631 -2.194574,-2.069331 -3.389358,-2.57837 -1.010938,-0.430711 -1.884076,-0.603089 -3.047245,-0.601599 -0.61484,7.88e-4 -1.005224,0.02977 -1.496905,0.111113 -2.353733,0.38942 -4.20475,1.708081 -5.292926,3.77067 -0.26936,0.51056 -0.629049,1.329243 -0.835301,1.901217 -0.485434,1.346193 -0.612424,2.594234 -0.373794,3.673608 0.217966,0.985912 0.728378,1.964839 1.579068,3.028527 0.72582,0.90755 2.09761,2.28497 2.920372,2.93237 0.490111,0.38564 1.126027,0.74226 1.60438,0.89973 0.209134,0.0688 0.218841,0.0744 0.129212,0.0742 -0.0533,-1.5e-4 -0.169591,-0.0245 -0.258424,-0.0542 z"
       style="fill:#000000;fill-opacity:1;stroke:none" />
    <path
       inkscape:connector-curvature="0"
       id="path3029"
       d="m 27.276596,91.445096 c -1.118669,-0.145813 -2.459715,-0.760204 -3.736374,-1.711795 -1.838173,-1.370131 -3.33797,-3.316805 -3.982712,-5.169396 -0.203079,-0.583523 -0.294007,-1.07704 -0.293616,-1.593612 3.53e-4,-0.467149 0.07567,-0.91765 0.238622,-1.427374 0.8727,-2.729797 3.880379,-5.786211 6.638778,-6.746346 0.427089,-0.14866 0.693362,-0.208064 0.963019,-0.214843 0.136211,-0.0034 0.213738,-0.002 0.172283,0.0031 -0.186155,0.02294 -0.63449,0.126031 -0.850644,0.195601 -1.765837,0.568334 -3.621097,1.916292 -5.064843,3.679912 -1.070309,1.307445 -1.756578,2.649847 -1.98084,3.874697 -0.05554,0.303349 -0.05544,1.119084 1.77e-4,1.399795 0.241044,1.216633 0.94963,2.562842 2.046012,3.887121 0.334123,0.403574 1.229337,1.298655 1.62922,1.628976 1.392101,1.149939 2.700941,1.838068 4.008166,2.107315 0.529503,0.109061 0.64806,0.113961 1.063396,0.04395 0.82932,-0.139789 1.419625,-0.328226 2.110459,-0.673701 1.14507,-0.572631 2.34299,-1.517818 3.445915,-2.718908 1.359747,-1.480771 2.181219,-2.937075 2.423452,-4.296292 0.05863,-0.329002 0.0796,-0.914817 0.04329,-1.209533 -0.141711,-1.150266 -0.867241,-2.604801 -1.980113,-3.969706 -1.503389,-1.843861 -3.342432,-3.188293 -5.149412,-3.764472 -0.184121,-0.05871 -0.640567,-0.1624 -0.807453,-0.183428 -0.03553,-0.0045 0.01777,-0.0095 0.118444,-0.01117 0.225657,-0.0037 0.520364,0.05992 0.964005,0.208216 1.786434,0.597166 3.792721,2.153129 5.225174,4.052351 1.194264,1.583418 1.801081,3.174274 1.695212,4.444235 -0.04425,0.530774 -0.169713,1.043506 -0.391789,1.601098 -1.06991,2.686349 -4.014353,5.507719 -6.620422,6.343697 -0.676952,0.217154 -1.356707,0.294936 -1.927409,0.220549 z"
       style="fill:#000000;fill-opacity:1;stroke:none" />
    <path
       sodipodi:nodetypes="sssssssssscsscs"
       inkscape:connector-curvature="0"
       id="path3031"
       d="m 62.403829,89.494621 c 0,-1.027605 -1.01035,-2.487423 -3.936757,-5.688071 C 51.075428,75.722214 41.168653,67.692295 33.775651,63.792963 27.617513,60.544942 9.569358,54.14348 3.2670354,52.971926 2.0902063,52.753163 -2.0585388,52.202145 -2.3445819,52.072092 c -1.4136673,-0.642744 -4.2041286,-2.893201 2.99434259,-1.804038 0.57209201,0.08656 2.78024191,0.277523 7.65428081,1.656625 14.6505675,4.145357 22.9961325,7.526707 31.0754235,12.590747 5.796287,3.63307 9.129765,6.397031 17.790741,14.751248 7.216094,6.960509 6.921178,6.700161 8.016246,7.076628 l 0.865728,0.297623 -1.082689,0.763149 c -0.595478,0.419731 -1.416356,1.223766 -1.824175,1.786742 l -0.741487,1.023593 z"
       style="fill:#ff1010;fill-opacity:1;stroke:none" />
    <path
       sodipodi:nodetypes="sssssssssscs"
       inkscape:connector-curvature="0"
       id="path3033"
       d="M 105.40701,62.592364 C 79.788028,56.809345 67.32157,52.957364 56.069083,47.347555 47.881517,43.265732 43.600866,39.956985 33.761883,30.105115 25.874539,22.20744 20.557764,16.217645 13.52123,7.3023131 8.4793741,0.91425116 5.1274962,-2.9353664 5.5299367,-3.1900428 5.7215945,-3.3113295 7.5024011,-3.290421 7.7005615,-3.292473 c 0.6251312,-0.00647 6.4457465,7.8360689 11.1021565,13.518515 14.130556,17.244208 26.203261,28.482756 37.193808,34.623912 8.704021,4.863521 27.183766,10.493453 51.932544,15.821464 4.99348,1.075016 9.64652,1.983382 10.05636,2.882872 0.34064,0.747622 -0.11263,2.229579 -0.69313,2.201914 -0.23871,-0.01138 -7.19514,-2.105126 -11.88529,-3.16384 z"
       style="fill:#ff1010;fill-opacity:1;stroke:none" />
    <path
       sodipodi:nodetypes="cscssccssccc"
       inkscape:connector-curvature="0"
       id="path3035"
       d="m 83.953119,115.6371 c -1.204403,-0.77382 -2.936863,-4.51018 -5.75138,-7.86016 -1.937472,-2.30607 -3.554471,-3.59148 -4.986542,-3.61889 -0.543062,-0.0104 -0.09647,0.21676 1.041193,-0.14386 1.024323,-0.32469 1.890651,-0.82805 2.740995,-1.59258 l 1.243309,-1.11784 -0.468377,0.56339 c 0.0091,1.18352 1.261444,2.63086 4.443646,6.85065 3.212061,4.25939 5.035727,7.3491 4.791544,7.7442 -0.219409,0.35501 -0.898016,4.0763 -2.079763,3.31704 l 0.243644,-3.16738 z"
       style="fill:#ff1010;fill-opacity:1;stroke:none" />
    <path
       inkscape:connector-curvature="0"
       id="path3037"
       d="m 65.456264,98.183183 c -1.353358,-1.626014 -1.931065,-2.830636 -1.927093,-4.018334 0.0023,-0.67997 0.181065,-1.1162 0.655571,-1.599512 0.66431,-0.676639 1.763535,-1.085357 3.21889,-1.19686 0.66769,-0.05116 0.717021,-0.04452 0.559918,0.07532 -1.109032,0.845991 -1.560476,1.319549 -2.079692,2.181567 -0.817856,1.357831 -0.860564,3.06355 -0.11577,4.623756 0.135297,0.283422 0.236904,0.524404 0.225793,0.535516 -0.01111,0.01111 -0.253039,-0.259544 -0.537617,-0.601455 l 0,0 z"
       style="fill:#000000;fill-opacity:1;stroke:none" />
    <path
       inkscape:connector-curvature="0"
       id="path3039"
       d=""
       style="fill:#000000;fill-opacity:1;stroke:none" />
    <path
       inkscape:connector-curvature="0"
       id="path3041"
       d="m 63.97703,96.074605 c -0.536569,-1.069931 -0.663464,-1.999248 -0.375964,-2.753379 0.396821,-1.040889 1.55521,-1.737828 3.256655,-1.959351 0.311024,-0.04049 1.05579,-0.07658 1.238535,-0.06001 l 0.132016,0.01197 -0.124824,0.08299 c -0.140137,0.09317 -0.201898,0.110927 -0.103288,0.02969 0.103543,-0.0853 0.04871,-0.102331 -0.279959,-0.08696 -1.352452,0.06324 -2.491177,0.392959 -3.2024,0.927271 -0.09825,0.07381 -0.266044,0.224959 -0.372869,0.335878 -0.400677,0.416033 -0.566968,0.778475 -0.611533,1.332872 -0.0521,0.648137 0.09329,1.33731 0.431012,2.043116 0.146437,0.306037 0.156553,0.382917 0.01262,0.09591 l 0,0 z"
       style="fill:#000000;fill-opacity:1;stroke:none" />
    <path
       inkscape:connector-curvature="0"
       id="path3043"
       d=""
       style="fill:#000000;fill-opacity:1;stroke:none" />
    <path
       inkscape:connector-curvature="0"
       id="path3045"
       d="m 76.682387,90.641517 c -0.892753,-0.913653 -1.883757,-1.657418 -2.828029,-2.122484 -0.647419,-0.318862 -1.235915,-0.509134 -2.010064,-0.649893 -0.02094,-0.0038 -0.02941,-0.0073 -0.01884,-0.0078 0.02429,-0.0011 0.24313,0.03718 0.388108,0.06784 0.639136,0.135164 1.361133,0.404059 1.968188,0.733015 0.787213,0.426582 1.555483,1.004193 2.228316,1.675323 0.162384,0.161973 0.398727,0.414724 0.393081,0.42037 -0.002,0.002 -0.0563,-0.05042 -0.120765,-0.116393 z"
       style="fill:#000000;fill-opacity:1;stroke:none" />
    <path
       inkscape:connector-curvature="0"
       id="path3047"
       d="m 65.4829,94.507308 c 0,-0.01088 0.06298,-0.183365 0.103855,-0.284448 0.04389,-0.108539 0.192566,-0.410189 0.255646,-0.518694 0.377722,-0.649726 0.768795,-1.126159 1.319459,-1.607458 0.230852,-0.201772 0.780281,-0.639461 0.787803,-0.627584 0.0022,0.0034 0.01008,0.0075 0.01757,0.009 0.0092,0.0019 -0.02835,0.0326 -0.114208,0.09356 -1.025334,0.728037 -1.841899,1.701266 -2.270617,2.706252 -0.03687,0.08644 -0.07291,0.175145 -0.08008,0.19713 -0.01233,0.03779 -0.01943,0.04957 -0.01943,0.03224 z"
       style="fill:#000000;fill-opacity:1;stroke:none" />
    <path
       transform="translate(-25.460805,-6.5783898)"
       d="m 94.655717,32.952862 c 0,3.734065 -2.999787,6.761122 -6.700212,6.761122 -3.700425,0 -6.700212,-3.027057 -6.700212,-6.761122 0,-3.734065 2.999787,-6.761123 6.700212,-6.761123 3.700425,0 6.700212,3.027058 6.700212,6.761123 z"
       sodipodi:ry="6.7611227"
       sodipodi:rx="6.700212"
       sodipodi:cy="32.952862"
       sodipodi:cx="87.955505"
       id="path3049"
       style="fill:#0000ff;fill-opacity:1;stroke:none"
       sodipodi:type="arc" />
    <use
       height="115"
       width="115"
       transform="translate(-34.841102,56.038136)"
       id="use3051"
       xlink:href="#path3049"
       y="0"
       x="0" />
    <use
       height="115"
       width="115"
       transform="translate(42.881356,13.034958)"
       id="use3053"
       xlink:href="#use3051"
       y="0"
       x="0" />
    <path
       inkscape:connector-curvature="0"
       id="path3055"
       d="m 75.545421,105.27217 c -0.371673,-0.25437 -0.87233,-0.46596 -1.340231,-0.5664 -0.380448,-0.0817 -1.173362,-0.0913 -2.283453,-0.0277 -0.473776,0.0271 -1.045538,0.0366 -1.270582,0.0211 l -0.409171,-0.0283 0.646059,-0.0283 c 0.647474,-0.0284 1.216669,-0.11844 2.010588,-0.3181 0.617059,-0.15517 0.829786,-0.13464 1.491384,0.14396 0.307086,0.12932 1.128078,0.65283 1.429611,0.91161 0.234087,0.2009 0.09961,0.14802 -0.274205,-0.10781 z"
       style="fill:#ff1010;fill-opacity:1;stroke:none" />
    <path
       sodipodi:nodetypes="cssscccscssccssscc"
       inkscape:connector-curvature="0"
       id="path3057"
       d="m 87.017981,116.07761 c 0,-0.0547 -1.896288,-3.32504 -2.397381,-4.05505 -0.982996,-1.43207 -1.413069,-2.01613 -4.540589,-6.16632 -1.421221,-1.88595 -2.049051,-2.88188 -2.212631,-3.50991 -0.101443,-0.38946 -0.08969,-0.4478 0.147753,-0.73332 0.117842,-0.14171 0.214751,-0.27393 0.215353,-0.29383 6.01e-4,-0.0199 -0.14427,0.0939 -0.321936,0.25294 -0.177666,0.15901 -0.32303,0.27567 -0.32303,0.25925 0,-0.0164 0.07812,-0.1225 0.173603,-0.23573 0.09548,-0.11324 0.318306,-0.42682 0.495165,-0.69686 0.176859,-0.27004 0.321628,-0.4675 0.321709,-0.4388 8.1e-5,0.0287 -0.04222,0.22251 -0.09401,0.4307 -0.07555,0.30373 -0.0947,0.51047 -0.09691,1.04613 -0.0033,0.79591 0.03863,0.97619 0.407186,1.75129 0.446798,0.93965 1.005452,1.72685 3.510192,4.94619 1.990481,2.55836 2.815239,3.69583 3.325953,4.58702 0.263436,0.45969 2.371966,3.29594 2.321734,3.34618 -0.01522,0.0152 -0.932162,-0.46577 -0.932161,-0.48988 z"
       style="fill:#ff1010;fill-opacity:1;stroke:none" />
  </g>
</svg>
