<svg id="stylingbar_graphics3D_rotateview_play" xmlns="http://www.w3.org/2000/svg" width="512" height="512" viewBox="0 0 512 512">
  <defs>
    <style>
      .cls-1 {
        fill: #1a171b;
      }
    </style>
  </defs>
  <title>stylingbar_graphics3D_rotateview_play</title>
  <g>
    <polygon class="cls-1" points="186.72 176 186.72 336 325.28 256 186.72 176"/>
    <path class="cls-1" d="M273.45,13.47a249.07,249.07,0,0,0-152.76,31L85.8.35,17.31,146l157.57-33L144.29,74.33a211.74,211.74,0,0,1,124.8-23.58c116.7,13.65,200.24,119.31,186.59,236S336.38,487,219.68,473.34a212,212,0,0,1-140-76.68l-30,22.58a249.43,249.43,0,0,0,165.66,91.39c137.29,16,261.6-82.23,277.65-219.52S410.74,29.52,273.45,13.47Z"/>
  </g>
</svg>
