<svg id="stylingbar_graphics3D_rotateview_play" xmlns="http://www.w3.org/2000/svg" width="512" height="512" viewBox="0 0 512 512">
  <defs>
    <style>
      .cls-1 {
        fill: #999;
      }
    </style>
  </defs>
  <title>stylingbar_graphics3D_rotateview_play</title>
  <polygon class="cls-1" points="186.72 176 186.72 336 325.28 256 186.72 176"/>
  <path class="cls-1" d="M273.45,13.47A249.4,249.4,0,0,0,91.17,64.18l24,28.89A212,212,0,0,1,269.09,50.75c116.7,13.65,200.24,119.31,186.59,236S336.38,487,219.68,473.34a212,212,0,0,1-140-76.68l-30,22.58a249.43,249.43,0,0,0,165.66,91.39c137.29,16,261.6-82.23,277.65-219.52S410.74,29.52,273.45,13.47Z"/>
  <polygon class="cls-1" points="174.88 113.02 17.31 146.04 85.8 0.34 174.88 113.02"/>
</svg>
