<svg id="stylingbar_graphics3D_standardview_rotate" xmlns="http://www.w3.org/2000/svg" width="512" height="512" viewBox="0 0 512 512">
  <defs>
    <style>
      .cls-1 {
        fill: #999;
      }
    </style>
  </defs>
  <title>stylingbar_graphics3D_standardview_rotate</title>
  <g>
    <polygon class="cls-1" points="393.5 245 348 245 348 392 283 392 283 305 218 305 218 392 153 392 153 245 108.5 245 251 110.23 393.5 245"/>
    <g>
      <path class="cls-1" d="M273.45,13.12A249.44,249.44,0,0,0,91.17,63.83l24,28.89A212,212,0,0,1,269.09,50.41c116.7,13.64,200.24,119.3,186.59,236S336.38,486.64,219.68,473a212,212,0,0,1-140-76.68l-30,22.57a249.43,249.43,0,0,0,165.66,91.39C352.61,526.33,476.92,428.05,493,290.77S410.74,29.17,273.45,13.12Z"/>
      <polygon class="cls-1" points="174.88 112.67 17.31 145.7 85.8 0 174.88 112.67"/>
    </g>
  </g>
</svg>
