<svg id="stylingbar_graphics3D_view_glases" xmlns="http://www.w3.org/2000/svg" xmlns:xlink="http://www.w3.org/1999/xlink" width="512" height="512" viewBox="0 0 512 512">
  <defs>
    <style>
      .cls-1 {
        fill: url(#Unbenannter_Verlauf_5);
      }

      .cls-2 {
        fill: url(#Unbenannter_Verlauf_4);
      }
    </style>
    <linearGradient id="Unbenannter_Verlauf_5" data-name="Unbenannter Verlauf 5" x1="6.79" y1="224.25" x2="482.92" y2="274.29" gradientTransform="translate(57.81 -46.93) rotate(11.67)" gradientUnits="userSpaceOnUse">
      <stop offset="0" stop-color="#87888a"/>
      <stop offset="0.25" stop-color="#eceded"/>
      <stop offset="0.44" stop-color="#9c9e9f"/>
      <stop offset="0.59" stop-color="#c8c8c8"/>
      <stop offset="0.79" stop-color="#fff"/>
      <stop offset="1" stop-color="#6e6e6e"/>
    </linearGradient>
    <linearGradient id="Unbenannter_Verlauf_4" data-name="Unbenannter Verlauf 4" x1="5.44" y1="237.12" x2="481.57" y2="287.17" gradientTransform="translate(57.81 -46.93) rotate(11.67)" gradientUnits="userSpaceOnUse">
      <stop offset="0" stop-color="#6e6e6e"/>
      <stop offset="0.25" stop-color="#eceded"/>
      <stop offset="0.44" stop-color="#6e6e6e"/>
      <stop offset="0.59" stop-color="#c8c8c8"/>
      <stop offset="0.79" stop-color="#fff"/>
      <stop offset="1" stop-color="#6e6e6e"/>
    </linearGradient>
  </defs>
  <title>stylingbar_graphics3D_view_glasses</title>
  <path d="M511.44,191.2.08,85.65.21,225.22l.28.06C-4.92,276,34.5,330.89,110,342.62c45.81,7.11,84.55-7.33,107.57-34.59,11,53.48,67.23,103.3,146.92,115.88,81.89,12.93,133.39-26.77,147-92.48.05-.24.09-.49.14-.73l.35.07Z"/>
  <path class="cls-1" d="M257.62,171.69l0,113c2.51,12.93,18.72,79.37,90.45,98.92,118,32.15,124.55-61,124.55-61l.16-109Z"/>
  <path class="cls-2" d="M33.75,128.09l.25,104c20.45,57.08,74.25,68.2,74.25,68.2s54.9,19.86,88.69-35.39c.17-.29.36-.56.54-.84V160Z"/>
</svg>
