<svg id="probability_calculator_bar_chart" xmlns="http://www.w3.org/2000/svg" width="512" height="512"><defs><style>.cls-2{fill:#66f}</style></defs><path d="M361.33 321V193h-64V64h-84v128h-64v128h-64v86h21.34v-64.67h42.66V406h21.34V213.33h41.66V406h22.34V85.33h42.66V406h148v-85zm-20 85h-44V213.33h44zm64 0h-44v-64.67h44z" fill="#00f"/><path class="cls-2" d="M106.67 341.33h42.67V406h-42.67zM170.67 213.33h41.67V406h-41.67zM234.67 85.33h42.67V406h-42.67zM297.33 213.33h44V406h-44zM361.33 341.33h44V406h-44z"/><path fill="none" stroke="#000" stroke-miterlimit="10" stroke-width="42" d="M21 426.67h470"/></svg>