<?xml version="1.0" encoding="UTF-8" standalone="no"?>
<svg
        xmlns:dc="http://purl.org/dc/elements/1.1/"
        xmlns:cc="http://creativecommons.org/ns#"
        xmlns:rdf="http://www.w3.org/1999/02/22-rdf-syntax-ns#"
        xmlns:svg="http://www.w3.org/2000/svg"
        xmlns="http://www.w3.org/2000/svg"
        xmlns:sodipodi="http://sodipodi.sourceforge.net/DTD/sodipodi-0.dtd"
        xmlns:inkscape="http://www.inkscape.org/namespaces/inkscape"
        viewBox="0 0 24 24"
        width="24"
        height="24"
        version="1.1"
        id="svg3815"
        sodipodi:docname="discover_black.svg"
        inkscape:version="0.92.3 (2405546, 2018-03-11)">
    <metadata
            id="metadata3821">
        <rdf:RDF>
            <cc:Work
                    rdf:about="">
                <dc:format>image/svg+xml</dc:format>
                <dc:type
                        rdf:resource="http://purl.org/dc/dcmitype/StillImage"/>
                <dc:title></dc:title>
            </cc:Work>
        </rdf:RDF>
    </metadata>
    <defs
            id="defs3819"/>
    <sodipodi:namedview
            pagecolor="#ffffff"
            bordercolor="#666666"
            borderopacity="1"
            objecttolerance="10"
            gridtolerance="10"
            guidetolerance="10"
            inkscape:pageopacity="0"
            inkscape:pageshadow="2"
            inkscape:window-width="1166"
            inkscape:window-height="800"
            id="namedview3817"
            showgrid="false"
            inkscape:zoom="9.8333333"
            inkscape:cx="12"
            inkscape:cy="12"
            inkscape:window-x="0"
            inkscape:window-y="27"
            inkscape:window-maximized="0"
            inkscape:current-layer="svg3815"/>
    <g
            transform="matrix(0.32643149,0,0,0.32474577,-3.152069,-2.9947118)"
            id="g26">
        <path
                inkscape:connector-curvature="0"
                id="path2"
                d="M 25.1,61.5 C 28.4,60 32,59 35.8,58.3 35.1,55.1 34.7,51.8 34.6,48.4 H 18.3 c 0.3,5.2 2,9.9 4.8,13.9 z"/>
        <path
                inkscape:connector-curvature="0"
                id="path4"
                d="m 26.4,64.7 -1.2,0.5 c 4.4,5 10.6,8.3 17.5,9.1 l -0.3,-0.4 c -2.5,-3.4 -4.5,-7.6 -5.8,-12.2 -3.7,0.6 -7.1,1.6 -10.2,3 z"/>
        <path
                inkscape:connector-curvature="0"
                id="path6"
                d="m 36.5,32 c 1.2,-4.3 3,-8.3 5.3,-11.6 l 0.9,-1.2 c -7,0.8 -13.1,4.2 -17.6,9.2 l 1.1,0.5 c 3.2,1.4 6.7,2.5 10.3,3.1 z"/>
        <path
                inkscape:connector-curvature="0"
                id="path8"
                d="M 35.7,35.3 C 31.8,34.6 28.2,33.5 24.8,32 L 23,31.2 c -2.7,4 -4.4,8.8 -4.7,13.9 h 16.3 c 0.1,-3.4 0.4,-6.7 1.1,-9.8 z"/>
        <path
                inkscape:connector-curvature="0"
                id="path10"
                d="M 66.3,65.5 65.6,65 c -3.4,-1.6 -7.2,-2.7 -11.2,-3.4 -1.3,4.6 -3.3,8.8 -5.8,12.2 l -0.4,0.6 c 7.2,-0.6 13.5,-3.9 18.1,-8.9 z"/>
        <path
                inkscape:connector-curvature="0"
                id="path12"
                d="m 65.7,28.6 0.8,-0.4 c -4.6,-5.1 -11,-8.4 -18.2,-9 l 0.9,1.3 c 2.3,3.3 4,7.3 5.3,11.6 4,-0.7 7.8,-1.9 11.2,-3.5 z"/>
        <path
                inkscape:connector-curvature="0"
                id="path14"
                d="M 37.9,45 H 53 c -0.1,-3.2 -0.5,-6.3 -1.1,-9.2 -2.1,0.2 -4.2,0.4 -6.3,0.4 -2.2,0 -4.4,-0.1 -6.5,-0.4 -0.7,2.9 -1.1,6.1 -1.2,9.2 z"/>
        <path
                inkscape:connector-curvature="0"
                id="path16"
                d="m 68.6,30.8 -1.4,0.8 c -3.6,1.7 -7.7,3 -11.9,3.7 0.7,3.1 1,6.4 1.1,9.7 h 17.2 c -0.3,-5.2 -2.1,-10.1 -5,-14.2 z"/>
        <path
                inkscape:connector-curvature="0"
                id="path18"
                d="m 67.3,62.1 1.2,0.8 c 3,-4.1 4.8,-9.1 5.1,-14.4 H 56.4 c -0.1,3.4 -0.5,6.7 -1.2,9.9 4.3,0.7 8.3,2 11.9,3.7 z"/>
        <path
                inkscape:connector-curvature="0"
                id="path20"
                d="m 45.5,21.1 -1,1.3 c -2,2.8 -3.5,6.3 -4.6,10.1 1.9,0.2 3.8,0.3 5.7,0.3 1.9,0 3.7,-0.1 5.5,-0.3 C 50,28.7 48.4,25.2 46.4,22.3 Z"/>
        <path
                inkscape:connector-curvature="0"
                id="path22"
                d="m 45.5,72.4 0.4,-0.5 c 2.2,-3 3.9,-6.7 5.1,-10.7 -1.8,-0.2 -3.6,-0.3 -5.4,-0.3 -1.9,0 -3.8,0.1 -5.6,0.3 1.2,4 2.9,7.7 5.1,10.6 z"/>
        <path
                inkscape:connector-curvature="0"
                id="path24"
                d="m 45.6,57.5 c 2.1,0 4.2,0.1 6.3,0.4 0.7,-3 1,-6.2 1.1,-9.4 H 37.9 c 0.1,3.3 0.5,6.4 1.1,9.4 2.2,-0.3 4.4,-0.4 6.6,-0.4 z"/>
    </g>
</svg>
