<?xml version="1.0" encoding="UTF-8" standalone="no"?>
<!-- Created with Inkscape (http://www.inkscape.org/) -->

<svg
   xmlns:dc="http://purl.org/dc/elements/1.1/"
   xmlns:cc="http://creativecommons.org/ns#"
   xmlns:rdf="http://www.w3.org/1999/02/22-rdf-syntax-ns#"
   xmlns:svg="http://www.w3.org/2000/svg"
   xmlns="http://www.w3.org/2000/svg"
   xmlns:sodipodi="http://sodipodi.sourceforge.net/DTD/sodipodi-0.dtd"
   xmlns:inkscape="http://www.inkscape.org/namespaces/inkscape"
   id="svg2"
   version="1.1"
   inkscape:version="0.48.2 r9819"
   width="352"
   height="348"
   sodipodi:docname="conic_through_5_points.svg">
  <metadata
     id="metadata8">
    <rdf:RDF>
      <cc:Work
         rdf:about="">
        <dc:format>image/svg+xml</dc:format>
        <dc:type
           rdf:resource="http://purl.org/dc/dcmitype/StillImage" />
        <dc:title />
      </cc:Work>
    </rdf:RDF>
  </metadata>
  <defs
     id="defs6" />
  <sodipodi:namedview
     pagecolor="#ffffff"
     bordercolor="#666666"
     borderopacity="1"
     objecttolerance="10"
     gridtolerance="10"
     guidetolerance="10"
     inkscape:pageopacity="0"
     inkscape:pageshadow="2"
     inkscape:window-width="1280"
     inkscape:window-height="962"
     id="namedview4"
     showgrid="false"
     inkscape:zoom="1.27"
     inkscape:cx="120.3983"
     inkscape:cy="165.9555"
     inkscape:window-x="1358"
     inkscape:window-y="-8"
     inkscape:window-maximized="1"
     inkscape:current-layer="svg2" />
  <g
     id="g3789">
    <path
       transform="matrix(1.0749127,0.02899647,-0.13953634,1.3801767,8.5037713,-104.62956)"
       d="m 306.10786,194.06299 a 121.0685,85.039368 0 1 1 -242.136989,0 121.0685,85.039368 0 1 1 242.136989,0 z"
       sodipodi:ry="85.039368"
       sodipodi:rx="121.0685"
       sodipodi:cy="194.06299"
       sodipodi:cx="185.03937"
       id="path3787"
       style="fill:none;stroke:#000000;stroke-width:9.51726251000000010;stroke-miterlimit:4;stroke-opacity:1;stroke-dasharray:none"
       sodipodi:type="arc" />
    <path
       transform="matrix(0.96443415,0,0,1.0154527,235.42203,-58.796527)"
       d="m 76.715099,149.80632 a 25.398918,24.621399 0 1 1 -50.797836,0 25.398918,24.621399 0 1 1 50.797836,0 z"
       sodipodi:ry="24.621399"
       sodipodi:rx="25.398918"
       sodipodi:cy="149.80632"
       sodipodi:cx="51.316181"
       id="path3754-1"
       style="fill:#0000ff;fill-opacity:1;stroke:#000000;stroke-width:11.81200027;stroke-miterlimit:4;stroke-opacity:1;stroke-dasharray:none"
       sodipodi:type="arc" />
    <path
       transform="matrix(0.96443415,0,0,1.0154527,68.592762,-84.081588)"
       d="m 76.715099,149.80632 a 25.398918,24.621399 0 1 1 -50.797836,0 25.398918,24.621399 0 1 1 50.797836,0 z"
       sodipodi:ry="24.621399"
       sodipodi:rx="25.398918"
       sodipodi:cy="149.80632"
       sodipodi:cx="51.316181"
       id="path3754-1-1"
       style="fill:#0000ff;fill-opacity:1;stroke:#000000;stroke-width:11.81200027;stroke-miterlimit:4;stroke-opacity:1;stroke-dasharray:none"
       sodipodi:type="arc" />
    <path
       transform="matrix(0.96443415,0,0,1.0154527,1.8610615,41.040361)"
       d="m 76.715099,149.80632 a 25.398918,24.621399 0 1 1 -50.797836,0 25.398918,24.621399 0 1 1 50.797836,0 z"
       sodipodi:ry="24.621399"
       sodipodi:rx="25.398918"
       sodipodi:cy="149.80632"
       sodipodi:cx="51.316181"
       id="path3754-1-7"
       style="fill:#0000ff;fill-opacity:1;stroke:#000000;stroke-width:11.81200027;stroke-miterlimit:4;stroke-opacity:1;stroke-dasharray:none"
       sodipodi:type="arc" />
    <path
       transform="matrix(0.96443415,0,0,1.0154527,102.21929,132.53579)"
       d="m 76.715099,149.80632 a 25.398918,24.621399 0 1 1 -50.797836,0 25.398918,24.621399 0 1 1 50.797836,0 z"
       sodipodi:ry="24.621399"
       sodipodi:rx="25.398918"
       sodipodi:cy="149.80632"
       sodipodi:cx="51.316181"
       id="path3754-1-4"
       style="fill:#0000ff;fill-opacity:1;stroke:#000000;stroke-width:11.81200027;stroke-miterlimit:4;stroke-opacity:1;stroke-dasharray:none"
       sodipodi:type="arc" />
    <path
       transform="matrix(0.96443415,0,0,1.0154527,235.42203,83.008347)"
       d="m 76.715099,149.80632 a 25.398918,24.621399 0 1 1 -50.797836,0 25.398918,24.621399 0 1 1 50.797836,0 z"
       sodipodi:ry="24.621399"
       sodipodi:rx="25.398918"
       sodipodi:cy="149.80632"
       sodipodi:cx="51.316181"
       id="path3754-1-0"
       style="fill:#0000ff;fill-opacity:1;stroke:#000000;stroke-width:11.81200027;stroke-miterlimit:4;stroke-opacity:1;stroke-dasharray:none"
       sodipodi:type="arc" />
  </g>
</svg>
