<svg xmlns="http://www.w3.org/2000/svg" width="24" height="24" viewBox="0 0 24 24">
<path d="M1.5 3a1.5 1.5 0 1 0 0-3 1.5 1.5 0 0 0 0 3Zm7 0a1.5 1.5 0 1 0 0-3 1.5 1.5 0 0 0 0 3ZM17 1.5a1.5 1.5 0 1 1-3 0 1.5 1.5 0 0 1 3 0ZM22.5 3a1.5 1.5 0 1 0 0-3 1.5 1.5 0 0 0 0 3ZM3 8.5a1.5 1.5 0 1 1-3 0 1.5 1.5 0 0 1 3 0ZM8.5 10a1.5 1.5 0 1 0 0-3 1.5 1.5 0 0 0 0 3ZM17 8.5a1.5 1.5 0 1 1-3 0 1.5 1.5 0 0 1 3 0Zm5.5 1.5a1.5 1.5 0 1 0 0-3 1.5 1.5 0 0 0 0 3ZM3 15.5a1.5 1.5 0 1 1-.007-.144L3 15.5ZM8.5 17a1.5 1.5 0 1 0 0-3 1.5 1.5 0 0 0 0 3Zm8.5-1.5a1.5 1.5 0 1 1-3 0 1.5 1.5 0 0 1 3 0Zm5.5 1.5a1.5 1.5 0 1 0-.144-.007L22.5 17ZM3 22.5a1.5 1.5 0 1 1-3 0 1.5 1.5 0 0 1 3 0ZM8.5 24a1.5 1.5 0 1 0 0-3 1.5 1.5 0 0 0 0 3Zm8.5-1.5a1.5 1.5 0 1 1-.007-.144L17 22.5Zm5.5 1.5a1.5 1.5 0 1 0 0-3 1.5 1.5 0 0 0 0 3Z"/>
</svg>