<svg xmlns="http://www.w3.org/2000/svg" id="pattern_honeycomb" viewBox="0 0 512 512" width="512" height="512"><defs><style>.cls-1{fill:none;stroke:#000;stroke-miterlimit:10;stroke-width:24px}</style></defs><path d="M73.43-86.57l91.28 52.7V71.54l-91.28 52.7-91.29-52.7V-33.87l91.29-52.7zm182.57 0l91.29 52.7V71.54L256 124.24l-91.28-52.7V-33.87L256-86.57z" class="cls-1"/><path d="M438.57-86.57l91.29 52.7V71.54l-91.29 52.7-91.28-52.7V-33.87l91.28-52.7zM-17.86 71.54l91.29 52.7v105.41l-91.29 52.7-91.28-52.7V124.24l91.28-52.7z" class="cls-1"/><path d="M164.71 71.54l91.29 52.7v105.41l-91.29 52.7-91.28-52.7V124.24l91.28-52.7z" class="cls-1"/><path d="M347.28 71.54l91.29 52.7v105.41l-91.29 52.7-91.28-52.7V124.24l91.28-52.7zm182.58 0l91.28 52.7v105.41l-91.28 52.7-91.29-52.7V124.24l91.29-52.7zM73.43 229.65l91.28 52.7v105.41l-91.28 52.7-91.29-52.7V282.35l91.29-52.7z" class="cls-1"/><path d="M256 229.65l91.29 52.7v105.41L256 440.46l-91.29-52.7V282.35l91.29-52.7z" class="cls-1"/><path d="M438.57 229.65l91.29 52.7v105.41l-91.29 52.7-91.28-52.7V282.35l91.28-52.7zM-17.86 387.76l91.29 52.7v105.41l-91.29 52.7-91.28-52.7V440.46l91.28-52.7z" class="cls-1"/><path d="M164.71 387.76l91.29 52.7v105.41l-91.29 52.7-91.28-52.7V440.46l91.28-52.7zm182.58 0l91.28 52.7v105.41l-91.28 52.7-91.29-52.7V440.46l91.29-52.7z" class="cls-1"/><path d="M529.86 387.76l91.28 52.7v105.41l-91.28 52.7-91.29-52.7V440.46l91.29-52.7z" class="cls-1"/></svg>