<?xml version="1.0" encoding="iso-8859-1"?>
<!-- Generator: Adobe Illustrator 15.1.0, SVG Export Plug-In . SVG Version: 6.00 Build 0)  -->
<!DOCTYPE svg PUBLIC "-//W3C//DTD SVG 1.1//EN" "http://www.w3.org/Graphics/SVG/1.1/DTD/svg11.dtd">
<svg version="1.1" xmlns="http://www.w3.org/2000/svg" xmlns:xlink="http://www.w3.org/1999/xlink" x="0px" y="0px" width="512px"
	 height="512px" viewBox="0 0 512 512" style="enable-background:new 0 0 512 512;" xml:space="preserve">
<g id="menu-file-save">
	<path style="fill:#999999;" d="M300.367,176.276h-82.766V69.89h82.766V176.276z M359.466,316.684v-23.852H146.651v23.852H359.466
		L359.466,316.684z M359.466,383.612v-23.864H146.651v23.864H359.466L359.466,383.612z M457,135.641v310.534
		c0,6.581-5.335,11.916-11.917,11.916H68.929c-6.6,0-11.929-5.335-11.929-11.916V65.838c0-6.588,5.329-11.929,11.929-11.929h49.154
		v144.514h216.752V53.909h40.468L457,135.641z M395.917,241.35H118.083v189.147h277.834V241.35z"/>
</g>
<g id="Ebene_1">
</g>
</svg>
