<?xml version="1.0" encoding="iso-8859-1"?>
<!-- Generator: Adobe Illustrator 15.1.0, SVG Export Plug-In . SVG Version: 6.00 Build 0)  -->
<!DOCTYPE svg PUBLIC "-//W3C//DTD SVG 1.1//EN" "http://www.w3.org/Graphics/SVG/1.1/DTD/svg11.dtd">
<svg version="1.1" xmlns="http://www.w3.org/2000/svg" xmlns:xlink="http://www.w3.org/1999/xlink" x="0px" y="0px" width="512px"
	 height="512px" viewBox="0 0 512 512" style="enable-background:new 0 0 512 512;" xml:space="preserve">
<g id="menu-edit">
	<g>
		<path style="fill:#999999;" d="M248.405,167.633L123.062,294.22c0,0,10.812,10.198,38.593,8.97
			c5.939,12.654,11.562,27.552,44.013,42.799c-1.312,26.476,11.431,41.337,11.431,41.337L342.53,260.857
			c-1.525-17.255-14.435-38.738-34.908-58.983C279.622,174.129,256.192,168.726,248.405,167.633z"/>
		<path style="fill:#999999;" d="M429.738,77.109c-36.804-30.166-62.237-21.322-75.198-8.839
			c-4.504,4.357-18.74,15.819-29.151,24.164c11.724,0.75,35.272,5.81,61.128,31.399c25.721,25.465,30.629,47.234,30.91,59.384
			c8.745-11.306,22.473-29.01,24.597-31.155C456.188,137.639,466.541,107.27,429.738,77.109z"/>
		<path style="fill:#999999;" d="M143.306,318.29c-24.835,0.063-30.639-5.497-30.639-5.497L55,457.303l143.948-59.796
			c0,0-11.426-22.617-11.135-34.73C177.756,359.58,151.385,343.552,143.306,318.29z"/>
		<path style="fill:#999999;" d="M309.205,106.333l-14.289,14.06c0,0,27.287,4.44,59.624,36.491
			c20.291,20.15,31.248,41.462,33.206,56.349l13.643-13.607c0,0,4.748-24.653-30.327-59.707
			C336.602,105.459,309.205,106.333,309.205,106.333z"/>
		<path style="fill:#999999;" d="M282.246,137.92l-13.654,13.467c0,0,26.137,4.248,57.068,34.96
			c19.432,19.265,29.931,39.655,31.815,53.924l13.045-13.061c0,0,4.539-23.586-29.036-57.151
			C308.519,137.077,282.246,137.92,282.246,137.92z"/>
	</g>
</g>
<g id="Ebene_1">
</g>
</svg>
