<?xml version="1.0" encoding="iso-8859-1"?>
<!-- Generator: Adobe Illustrator 15.1.0, SVG Export Plug-In . SVG Version: 6.00 Build 0)  -->
<!DOCTYPE svg PUBLIC "-//W3C//DTD SVG 1.1//EN" "http://www.w3.org/Graphics/SVG/1.1/DTD/svg11.dtd">
<svg version="1.1" xmlns="http://www.w3.org/2000/svg" xmlns:xlink="http://www.w3.org/1999/xlink" x="0px" y="0px" width="512px"
	 height="512px" viewBox="0 0 512 512" style="enable-background:new 0 0 512 512;" xml:space="preserve">
<g id="menu-file-share">
	<path style="fill:#999999;" d="M400.011,340.653c-21.24,0-40.234,9.465-53.146,24.34l-167.253-89.986
		c1.707-6.051,2.682-12.403,2.682-19.007c0-6.603-0.975-12.956-2.682-19l167.253-89.993c12.911,14.875,31.905,24.346,53.146,24.346
		c38.759,0,70.279-31.495,70.279-70.087C470.29,62.514,438.77,31,400.011,31c-38.798,0-70.305,31.514-70.305,70.266
		c0,6.59,0.976,12.943,2.695,18.995l-167.344,89.851c-12.892-14.791-31.873-24.167-53.081-24.167
		c-38.759,0-70.267,31.264-70.267,70.055c0,38.797,31.508,70.055,70.267,70.055c21.208,0,40.189-9.369,53.094-24.18l167.331,89.871
		c-1.72,6.051-2.695,12.403-2.695,18.975c0,38.771,31.507,70.279,70.305,70.279c38.759,0,70.279-31.508,70.279-70.279
		C470.29,372.135,438.77,340.653,400.011,340.653z"/>
</g>
<g id="Ebene_1">
</g>
</svg>
