<?xml version="1.0" encoding="iso-8859-1"?>
<!-- Generator: Adobe Illustrator 15.1.0, SVG Export Plug-In . SVG Version: 6.00 Build 0)  -->
<!DOCTYPE svg PUBLIC "-//W3C//DTD SVG 1.1//EN" "http://www.w3.org/Graphics/SVG/1.1/DTD/svg11.dtd">
<svg version="1.1" xmlns="http://www.w3.org/2000/svg" xmlns:xlink="http://www.w3.org/1999/xlink" x="0px" y="0px" width="512px"
	 height="512px" viewBox="0 0 512 512" style="enable-background:new 0 0 512 512;" xml:space="preserve">
<g id="menu-signed-in-f">
	<path style="fill:#FFFFFF;" d="M198,119c0,0,175,55,180,83s-26,140,5,167s17,69,5,66s-253-4-253-4s-46-64.961-4-88.98
		S198,119,198,119z"/>
	<g>
		<g>
			<path style="fill-rule:evenodd;clip-rule:evenodd;fill:#999999;" d="M265.508,41.039c-4.987-6.411-11.927-9.343-19.797-9.764
				c-6.64-0.319-14.008,1.294-21.263,4.378c-17.338,7.363-34.17,23.145-40.874,40.981c-2.508,6.626-4.304,12.326-5.676,17.289
				c-5.833,20.449-5.593,27.55-26.285,29.714c-25.651,2.693-44.912,37.473-30.56,61.856c14.382,24.414,20.796,35.995-4.117,50.564
				c-25.021,14.672-23.614,45.523-2.43,57.742c21.244,12.321,24.229,28.602,5.307,37.131c-13.113,5.828-20.088,16.231-12.405,27.819
				c-25.095,8.991-48.793,50.003-50.903,81.143c-0.841,11.717,4.909,30.668,10.973,44.44c1.323-0.585,2.666-1.131,4.043-1.667
				c119.779-49.005,254.259-51.007,375.312-6.065c4.456-8.74,7.142-17.657,8.229-26.339c3.669-30.85-12.72-48.715-35.602-62.201
				c9.479-14.111,3.675-26.625-8.784-35.395c-12.901-8.942-8.106-20.815,3.856-29.557c3.797-2.734,8.204-5.188,13.083-7.122
				c1.722-0.713,3.301-1.5,4.934-2.297c16.389-8.888,20.953-24.431-0.207-37.578c-23.117-14.245-21.41-18.125,3.482-38.84
				c24.933-20.771,18.578-75.686-12.744-87.537c-31.351-11.928-21.007-28.765-30.825-67.026
				C382.892,46.53,299.894,6.126,265.508,41.039z M381.146,401.258c-48.316,43.201-262.257,18.052-244.678-37.16
				c17.225-4.033,36.781-6.646,55.704-11.746c11.062-2.98,18.056-8.489,22.434-15.67c4.407-7.152,6.178-15.937,6.862-25.543
				c12.823,10.133,28.233,16.733,46.022,18.415c17.752,1.658,34.121-1.977,48.661-9.552c-1.27,10.452-0.999,20.162,2.799,28.454
				c3.162,6.96,8.863,12.98,18.282,17.54c9.395,4.54,19.108,8.45,28.611,12.145c8.741,3.403,17.177,6.67,25.096,10.27
				C388.695,393.235,385.316,397.51,381.146,401.258z M383.177,192.068c5.563,24.303-3.139,56.608-22.803,60.536
				c-14.511,36.893-42.242,64.948-81.144,65.946c-18.42,0.423-34.592-5.248-48.315-15.228c-12.09-8.81-22.252-20.924-30.191-35.046
				c-4.328-9.129-4.672-13.272-6.36-22.244c-18.813-5.196-25.124-37.155-18.105-60.379c4.54-15.149,13.035-20.425,19.084-10.316
				c0.994,1.741,1.978,3.876,2.818,6.568c4.51,13.856,5.071,21.374,6.468-4.936c0-1.106,0.108-2.219,0.211-3.322
				c0.713-8.104,2.375-16.311,4.904-24.385l-0.024,1.817c0,0,27.844-27.099,68.349,15.519c33.934,35.68,66.814,18.317,76.637,11.719
				c0.05,0.789,0,1.529,0.025,2.295h0.054c0.024,0.396,0,0.686-0.029,1.084c-0.429,26.335,0.684,18.893,6.123,5.381
				c1.004-2.639,2.081-4.722,3.247-6.359c-0.025-0.027-0.025-0.027-0.055-0.052C370.993,169.949,379.562,175.942,383.177,192.068z"
				/>
			<path style="fill:#999999;" d="M275.724,360.768c-34.853,0-59.195-16.442-65.171-20.924l6.04-8.057
				c7.673,5.75,48.723,33.235,103.36,9.223l4.053,9.228C306.476,357.935,290.189,360.768,275.724,360.768z"/>
		</g>
		<path style="fill-rule:evenodd;clip-rule:evenodd;fill:#999999;" d="M207.463,142.671c0,0-4.319,90.714-15.12,120.23
			s-8.637,53.161-18.72-11.938C163.545,185.866,189.466,139.791,207.463,142.671z"/>
		<path style="fill-rule:evenodd;clip-rule:evenodd;fill:#999999;" d="M324.482,188.353c0,0,37.529-5.672,35.611,76.758
			c-2.303,98.869,11.514,88.55,21.598,46.072c10.083-42.478,34.553-123.829,0-137.508
			C347.138,159.996,324.482,188.353,324.482,188.353z"/>
	</g>
</g>
<g id="Ebene_1">
</g>
</svg>
