<?xml version="1.0" encoding="iso-8859-1"?>
<!-- Generator: Adobe Illustrator 15.1.0, SVG Export Plug-In . SVG Version: 6.00 Build 0)  -->
<!DOCTYPE svg PUBLIC "-//W3C//DTD SVG 1.1//EN" "http://www.w3.org/Graphics/SVG/1.1/DTD/svg11.dtd">
<svg version="1.1" xmlns="http://www.w3.org/2000/svg" xmlns:xlink="http://www.w3.org/1999/xlink" x="0px" y="0px" width="512px"
	 height="512px" viewBox="0 0 512 512" style="enable-background:new 0 0 512 512;" xml:space="preserve">
<g id="menu-tools-customize">
	<path style="fill:#999999;stroke:#999999;stroke-width:13;stroke-miterlimit:10;" d="M370.356,443.193L168.842,241.679
		l-33.548,33.548l201.515,201.515C373.153,479.538,370.356,443.193,370.356,443.193z"/>
	<path style="fill:#999999;stroke:#999999;stroke-width:13;stroke-miterlimit:10;" d="M177.942,250.776
		c10.452-45.566,10.477-59.974,10.477-59.974s-8.485-15.557-28.284-35.355c-19.799-19.8-68.459-5.08-68.459-5.08l14.142,14.143
		l36.351,11.731l6.783,45.544l-33.549,33.549l-45.543-6.782l-11.732-36.351l-14.142-14.143c0,0-14.719,48.66,5.08,68.459
		c19.799,19.8,35.355,28.285,35.355,28.285s24.072,0.381,59.973-10.477L177.942,250.776z"/>
	<g>
		<g>
			<path style="fill:#999999;" d="M433.745,155.853c0-12.111,16.08-22.486,38.915-26.83c-3.106-13.86-8.567-26.83-15.943-38.468
				c-19.216,13.071-37.919,17.104-46.482,8.54c-8.563-8.563-4.531-27.267,8.541-46.481c-11.639-7.377-24.607-12.838-38.469-15.945
				c-4.344,22.836-14.718,38.916-26.83,38.916c-12.113,0-22.486-16.08-26.83-38.916c-13.861,3.107-26.831,8.568-38.469,15.945
				c13.071,19.215,17.104,37.917,8.54,46.481c-8.563,8.563-27.266,4.531-46.481-8.54c-7.377,11.638-12.838,24.607-15.945,38.469
				c22.836,4.343,38.917,14.717,38.917,26.829c0,12.113-16.08,22.487-38.916,26.831c3.015,13.447,8.246,26.056,15.292,37.424
				c19.443-13.426,38.473-17.652,47.134-8.992c8.718,8.719,4.378,27.943-9.26,47.523c11.749,7.561,24.878,13.16,38.927,16.342
				c4.175-23.594,14.726-40.354,27.091-40.354c12.366,0,22.918,16.76,27.093,40.354c14.048-3.182,27.178-8.781,38.927-16.342
				c-13.64-19.579-17.979-38.804-9.261-47.522c8.66-8.66,27.69-4.435,47.134,8.991c7.046-11.368,12.278-23.977,15.292-37.424
				C449.825,178.34,433.745,167.966,433.745,155.853z M353.477,205.709c-27.535,0-49.856-22.322-49.856-49.856
				s22.321-49.855,49.856-49.855c27.534,0,49.856,22.321,49.856,49.855S381.011,205.709,353.477,205.709z"/>
		</g>
	</g>
</g>
<g id="Ebene_1">
</g>
</svg>
