<?xml version="1.0" encoding="iso-8859-1"?>
<!-- Generator: Adobe Illustrator 15.1.0, SVG Export Plug-In . SVG Version: 6.00 Build 0)  -->
<!DOCTYPE svg PUBLIC "-//W3C//DTD SVG 1.1//EN" "http://www.w3.org/Graphics/SVG/1.1/DTD/svg11.dtd">
<svg version="1.1" xmlns="http://www.w3.org/2000/svg" xmlns:xlink="http://www.w3.org/1999/xlink" x="0px" y="0px" width="512px"
	 height="512px" viewBox="0 0 512 512" style="enable-background:new 0 0 512 512;" xml:space="preserve">
<g id="menu-options">
	<g>
		<g>
			<path style="fill:#999999;" d="M395.53,257.299c0-21.054,27.948-39.093,67.645-46.644c-5.401-24.091-14.893-46.634-27.714-66.863
				c-33.402,22.722-65.912,29.732-80.799,14.846c-14.886-14.886-7.876-47.396,14.846-80.799
				c-20.229-12.821-42.771-22.313-66.863-27.714c-7.55,39.697-25.588,67.646-46.645,67.646c-21.056,0-39.095-27.948-46.645-67.646
				c-24.092,5.401-46.635,14.894-66.863,27.715c22.722,33.402,29.732,65.911,14.846,80.798
				c-14.886,14.886-47.396,7.876-80.799-14.846c-12.821,20.229-22.313,42.771-27.715,66.863
				c39.697,7.55,67.646,25.588,67.646,46.644c0,21.057-27.949,39.097-67.646,46.646c5.24,23.374,14.335,45.288,26.581,65.047
				c33.799-23.338,66.877-30.686,81.932-15.631c15.155,15.155,7.61,48.575-16.097,82.607c20.42,13.144,43.24,22.877,67.656,28.407
				c7.257-41.019,25.607-70.146,47.103-70.146c21.496,0,39.848,29.127,47.104,70.146c24.416-5.53,47.235-15.264,67.655-28.406
				c-23.708-34.032-31.252-67.451-16.097-82.606c15.055-15.055,48.134-7.708,81.932,15.629c12.246-19.76,21.341-41.673,26.58-65.047
				C423.479,296.395,395.53,278.355,395.53,257.299z M256,343.965c-47.863,0-86.664-38.803-86.664-86.666
				c0-47.862,38.801-86.663,86.664-86.663c47.862,0,86.665,38.801,86.665,86.663C342.665,305.162,303.862,343.965,256,343.965z"/>
		</g>
	</g>
</g>
<g id="Ebene_1">
</g>
</svg>
