<?xml version="1.0" encoding="iso-8859-1"?>
<!-- Generator: Adobe Illustrator 15.1.0, SVG Export Plug-In . SVG Version: 6.00 Build 0)  -->
<!DOCTYPE svg PUBLIC "-//W3C//DTD SVG 1.1//EN" "http://www.w3.org/Graphics/SVG/1.1/DTD/svg11.dtd">
<svg version="1.1" xmlns="http://www.w3.org/2000/svg" xmlns:xlink="http://www.w3.org/1999/xlink" x="0px" y="0px" width="512px"
	 height="512px" viewBox="0 0 512 512" style="enable-background:new 0 0 512 512;" xml:space="preserve">
<g id="menu-sign-in">
	<g>
		<g>
			<polygon style="fill:#999999;" points="283.055,409.333 439.72,409.333 439.72,102.667 283.055,102.667 283.055,56 486.387,56 
				486.387,456 283.055,456 			"/>
		</g>
		<g>
			<path style="fill:#999999;" d="M202.545,228.541c-4.259-13.375-11.622-26.005-22.236-36.623
				c-35.382-35.382-92.778-35.382-128.161,0.002c-35.381,35.382-35.381,92.775,0.002,128.155
				c35.391,35.392,92.781,35.387,128.161,0.008c10.619-10.619,17.982-23.229,22.223-36.608l69.316-0.017l18.315-18.313
				c0.015,0.013,18.313,18.313,18.313,18.313l18.296-18.3l18.315,18.316l18.318-0.01l27.463-27.463l-27.469-27.467L202.545,228.541z
				 M97.914,274.313c-10.107,10.104-26.497,10.104-36.612-0.01c-10.107-10.11-10.107-26.496-0.001-36.603
				c10.117-10.12,26.506-10.12,36.615-0.012C108.032,247.807,108.032,264.192,97.914,274.313z"/>
		</g>
	</g>
</g>
<g id="Ebene_1">
</g>
</svg>
