<?xml version="1.0" encoding="iso-8859-1"?>
<!-- Generator: Adobe Illustrator 15.1.0, SVG Export Plug-In . SVG Version: 6.00 Build 0)  -->
<!DOCTYPE svg PUBLIC "-//W3C//DTD SVG 1.1//EN" "http://www.w3.org/Graphics/SVG/1.1/DTD/svg11.dtd">
<svg version="1.1" xmlns="http://www.w3.org/2000/svg" xmlns:xlink="http://www.w3.org/1999/xlink" x="0px" y="0px" width="512px"
	 height="512px" viewBox="0 0 512 512" style="enable-background:new 0 0 512 512;" xml:space="preserve">
<g id="menu-edit-copy">
	<path style="fill-rule:evenodd;clip-rule:evenodd;fill:#999999;" d="M332.01,68.49h-225V368.53h18.745v37.49H107.01h-37.49V31
		H369.5v37.49v18.745h-37.49V68.49z M361.189,374.778h-141.71v-12.496h141.71V374.778z M302.831,337.229h-83.352v-12.497h83.352
		V337.229z M327.824,299.738H219.479v-12.496h108.345V299.738z M369.5,262.248H219.479v-12.497H369.5V262.248z M302.831,224.758
		h-83.352v-12.496h83.352V224.758z M406.99,143.53h-225v299.98h225V143.53z M144.5,481V105.979h299.979V481H144.5z"/>
</g>
<g id="Ebene_1">
</g>
</svg>
