<svg xmlns="http://www.w3.org/2000/svg" width="512" height="512" viewBox="0 0 512 512"><circle cx="150" cy="362" r="150" fill="#090" opacity=".4"/><path fill="#090" d="M150.001 212C67.157 212 0 279.156 0 362c0 82.842 67.157 150 150.001 150C232.844 512 300 444.842 300 362c0-82.844-67.156-150-149.999-150zM150 497c-74.558 0-135-60.441-135-135s60.442-135 135-135 135 60.441 135 135-60.442 135-135 135z"/><path fill="#00f" d="M89.5 396.53l392.5 1.41L263.84 62.38" opacity=".4"/><path fill="#00f" d="M263.836 63.789L89.495 397.942H482L263.836 63.789zm1.543 29.781l188.036 289.224-338.302-.215L265.379 93.57z"/><path fill="#666" d="M467.078 190.42h-23.193V40.029c-9.277 6.512-22.301 13.428-39.063 20.752V40.029c7.16-4.395 13.873-9.193 20.141-14.404 6.264-5.207 10.701-9.155 13.307-11.841 2.602-2.686 3.906-3.944 3.906-3.784h24.902v180.42z"/></svg>