<svg xmlns="http://www.w3.org/2000/svg" width="512" height="512"><path d="M376.84 442.69l-.19-2.39-191.57-191.58c9.7-43 9.84-57.3 9.84-57.91v-1.66l-.79-1.46c-.37-.67-9.17-16.61-29.4-36.84-8.12-8.12-20.72-12.24-37.44-12.24-19 0-36.75 5.31-37.5 5.54l-10.39 3.14 22.93 22.92 34 11L142 219.5l-28.92 28.92-38.31-5.7-11-34-22.86-22.93-3.15 10.39c-.64 2.14-15.59 52.64 6.71 74.93 20.23 20.23 36.17 29 36.84 29.4l1.41.76h2c2.56 0 25.23-.28 57.8-9.65l189.69 189.72 1.7 1.7 2.4.18c1.49.12 3 .17 4.38.17 11.14 0 20-3.48 26.38-10.36 11.05-11.92 9.82-29.59 9.77-30.34z"/><path fill-rule="evenodd" d="M482.74 151.73H360.38V29.36h-22.34v122.37H215.68v22.33h122.36v122.37h22.34V174.06h122.36v-22.33z"/></svg>