<svg xmlns="http://www.w3.org/2000/svg" width="512" height="512" viewBox="0 0 512 512"><path fill="#999" d="M440.806 91H71.194C43.473 91 21 113.343 21 140.905v230.189C21 398.656 43.473 421 71.194 421h369.611C468.527 421 491 398.656 491 371.095v-230.19C491 113.343 468.527 91 440.806 91z"/><path fill="#fff" d="M476 360.632C476 385.688 454.962 406 429.01 406H82.991C57.039 406 36 385.688 36 360.632V151.368C36 126.312 57.039 106 82.991 106H429.01c25.952 0 46.99 20.312 46.99 45.368v209.264z"/><path fill="#666" d="M154.997 191.353c-2.866-1.563-6.122-2.344-9.766-2.344-5.731-.259-9.863.946-12.402 3.613-2.539 2.67-3.809 7.26-3.809 13.77v14.648h24.023v13.086H129.02v86.915h-17.969v-86.915H90.934V221.04h20.117v-15.039c0-12.109 2.539-20.41 7.617-24.902s12.824-6.671 23.242-6.543c4.688 0 9.048.717 13.086 2.148v14.649zm53.32 156.055h-12.695c-15.106-27.344-22.656-56.25-22.656-86.719 0-30.597 7.55-59.571 22.656-86.915h12.695c-10.938 30.731-16.406 59.702-16.406 86.915 0 26.563 5.468 55.469 16.406 86.719zm123.828-26.367h-22.852l-29.297-39.453-28.32 39.453h-21.094l39.843-51.758-36.718-48.243h22.852l26.367 35.742 25.586-35.742h20.898l-37.109 48.243 39.844 51.758zm57.617-60.352c0 30.34-7.489 59.246-22.461 86.719H354.41c10.938-31.25 16.406-60.156 16.406-86.719 0-27.213-5.469-56.183-16.406-86.915h12.891c14.971 27.476 22.461 56.446 22.461 86.915z"/></svg>