<svg xmlns="http://www.w3.org/2000/svg" viewBox="0 0 512 512" width="512" height="512"><path fill="#FFF" d="M512 462c0 27.614-22.386 50-50 50H50c-27.614 0-50-22.386-50-50V50C0 22.386 22.386 0 50 0h412c27.614 0 50 22.386 50 50v412z"/><circle cx="175" cy="336" r="123" fill="#99F"/><path fill="#666" d="M302.333 27L485 343.388H119.667"/><path fill="#99F" d="M302.333 84.1L435.55 314.84H169.116"/><path fill="#6161FF" d="M148.944 327l73.39-124.494C279.764 229.49 311.28 269.72 309.436 327H148.944z"/><path fill="#666" d="M175 486c-82.843 0-150-67.157-150-150s67.157-150 150-150 150 67.157 150 150-67.157 150-150 150zm123-150c0-67.93-55.07-123-123-123S52 268.07 52 336s55.07 123 123 123 123-55.07 123-123z"/><path fill="#333" d="M324.82 343.388H119.668l88.715-153.66a148.745 148.745 0 0 1 27.647 9.208c46.263 20.63 80.16 63.997 87.49 115.9a151.506 151.506 0 0 1 1.3 28.552zM222.44 222.48l-53.323 92.358h127.07c-7.254-41.825-35.63-76.406-73.742-92.354"/><path fill="#666" d="M486.22 133.344c0 11.85-4.462 21.713-13.38 29.59-8.92 7.88-20.214 11.816-33.886 11.816-15.106 0-26.563-4.034-34.375-12.11-7.813-8.07-11.72-17.64-11.72-28.71h21.29c1.56 16.928 10.024 25.39 25.39 25.39 6.77 0 12.92-2.44 18.456-7.323 5.533-4.883 8.302-10.513 8.302-16.895 0-20.572-13.477-30.664-40.43-30.273V88.81c12.5 0 21.972-2.148 28.417-6.445 6.445-4.297 9.67-11.26 9.67-20.898 0-7.55-2.64-12.99-7.912-16.31s-10.97-4.98-17.09-4.98c-12.37 0-19.988 8.334-22.85 25H395.79c1.69-13.02 6.183-23.013 13.477-29.98 7.29-6.964 17.056-10.45 29.297-10.45 13.41 0 24.316 3.614 32.714 10.84 8.398 7.228 12.598 16.31 12.598 27.247 0 4.56-.947 8.79-2.833 12.695-1.89 3.906-4.198 7-6.933 9.277a150.19 150.19 0 0 1-8.594 6.64c-2.997 2.148-5.536 3.745-7.617 4.785.908.522 2.86 1.562 5.858 3.125 2.994 1.562 5.533 3.095 7.617 4.59 2.08 1.498 4.394 3.55 6.933 6.152 2.54 2.606 4.492 5.86 5.86 9.766 1.368 3.905 2.052 8.398 2.052 13.476z"/></svg>