<?xml version="1.0" encoding="UTF-8" standalone="no"?>
<!-- Created with Inkscape (http://www.inkscape.org/) -->

<svg
   xmlns:dc="http://purl.org/dc/elements/1.1/"
   xmlns:cc="http://creativecommons.org/ns#"
   xmlns:rdf="http://www.w3.org/1999/02/22-rdf-syntax-ns#"
   xmlns:svg="http://www.w3.org/2000/svg"
   xmlns="http://www.w3.org/2000/svg"
   xmlns:sodipodi="http://sodipodi.sourceforge.net/DTD/sodipodi-0.dtd"
   xmlns:inkscape="http://www.inkscape.org/namespaces/inkscape"
   id="svg2"
   version="1.1"
   inkscape:version="0.48.2 r9819"
   width="230"
   height="232"
   sodipodi:docname="new_point.svg">
  <metadata
     id="metadata8">
    <rdf:RDF>
      <cc:Work
         rdf:about="">
        <dc:format>image/svg+xml</dc:format>
        <dc:type
           rdf:resource="http://purl.org/dc/dcmitype/StillImage" />
        <dc:title></dc:title>
      </cc:Work>
    </rdf:RDF>
  </metadata>
  <defs
     id="defs6" />
  <sodipodi:namedview
     pagecolor="#ffffff"
     bordercolor="#666666"
     borderopacity="1"
     objecttolerance="10"
     gridtolerance="10"
     guidetolerance="10"
     inkscape:pageopacity="0"
     inkscape:pageshadow="2"
     inkscape:window-width="849"
     inkscape:window-height="846"
     id="namedview4"
     showgrid="false"
     inkscape:zoom="1.28"
     inkscape:cx="106.66243"
     inkscape:cy="114.23901"
     inkscape:window-x="1373"
     inkscape:window-y="14"
     inkscape:window-maximized="0"
     inkscape:current-layer="svg2" />
  <path
     inkscape:connector-curvature="0"
     id="path3003"
     d="m 0.98305499,116.49153 0,-116.00000456 114.99999501,0 115,0 0,116.00000456 0,116 -115,0 -114.99999501,0 0,-116 z"
     style="fill:#fdfdfd" />
  <g
     id="g3860"
     transform="translate(-10.9375,13.28125)">
    <g
       transform="translate(25.78125,-17.1875)"
       id="g3837">
      <path
         sodipodi:type="arc"
         style="fill:#0000ff;fill-opacity:1;stroke:none"
         id="path2999"
         sodipodi:cx="88.720337"
         sodipodi:cy="150.16103"
         sodipodi:rx="25.805084"
         sodipodi:ry="27.279661"
         d="m 114.52542,150.16103 a 25.805084,27.279661 0 1 1 -51.610167,0 25.805084,27.279661 0 1 1 51.610167,0 z"
         transform="translate(-20.644067,11.910487)" />
      <text
         xml:space="preserve"
         style="font-size:105.22057343px;font-style:normal;font-variant:normal;font-weight:normal;font-stretch:normal;line-height:125%;letter-spacing:0px;word-spacing:0px;fill:#0000ff;fill-opacity:1;stroke:none;font-family:FreeUniversal;-inkscape-font-specification:FreeUniversal"
         x="118.08941"
         y="120.25562"
         id="text3787"
         sodipodi:linespacing="125%"
         transform="scale(0.99360901,1.0064321)"><tspan
           sodipodi:role="line"
           id="tspan3789"
           x="118.08941"
           y="120.25562">Z</tspan></text>
    </g>
    <path
       style="fill:#07070c"
       d="m 81.83035,171.00727 c -18.282137,-6.74039 -24.202973,-30.29614 -11.299651,-44.95509 6.909857,-7.85001 18.32984,-11.21366 28.265403,-8.32532 25.008538,7.27018 27.751198,41.24093 4.218308,52.24824 -5.601204,2.61992 -15.561302,3.10521 -21.18406,1.03217 z m 19.43549,-7.23734 c 15.47494,-7.71149 15.99363,-28.51699 0.94291,-37.82213 -15.340638,-9.48439 -35.654053,4.7954 -32.294695,22.70232 1.075413,5.73244 6.029566,12.34908 11.299918,15.09187 6.536532,3.40174 13.262728,3.41111 20.051867,0.0279 z"
       id="path2989"
       inkscape:connector-curvature="0" />
  </g>
</svg>
