<svg xmlns="http://www.w3.org/2000/svg" width="24" height="24" viewBox="0 0 24 24"><path d="M13.416 20.294a.606.606 0 0 1 .034 1.202 8.8 8.8 0 0 1-2.267 0 .604.604 0 1 1 .155-1.198 7.6 7.6 0 0 0 1.955 0zM16.868 18.813a.604.604 0 0 1 .825.875l-.003.004-.082.077-.004.003a8.7 8.7 0 0 1-1.962 1.138.605.605 0 0 1-.464-1.118 7.5 7.5 0 0 0 1.69-.98M18.252 2.43c.332.002.6.271.602.603l.189 4.521v.006a.6.6 0 0 1-.088.283 1.3 1.3 0 0 1-.447.454.6.6 0 0 1-.267.087l-.001.001-4.018.48h-.016a.605.605 0 0 1-.02-1.209l2.692-.517c-.907-.668-1.59-1.166-2.41-1.46-.885-.317-1.94-.4-3.617-.172l.001.001c-4.051.8-6.69 4.737-5.894 8.796a7.47 7.47 0 0 0 2.766 4.482q.02.013.04.027.264.203.547.383l.206.126a7 7 0 0 0 .65.342l.002.001q.143.067.285.127a.605.605 0 0 1-.346 1.153l-.005-.001-.107-.033-.005-.002a8.7 8.7 0 0 1-1.26-.649c-.006-.004-.02-.012-.024-.016a8.68 8.68 0 0 1-3.933-5.708C2.849 9.82 5.914 5.247 10.622 4.32c2.648-.522 5.14.273 7.013 1.684l.011-2.972a.605.605 0 0 1 .606-.603M19.227 15.737a.604.604 0 0 1 1.115.463 8.7 8.7 0 0 1-1.134 1.966.605.605 0 0 1-.744.176l-.004-.002-.095-.06-.005-.002a.606.606 0 0 1-.11-.848 7.5 7.5 0 0 0 .977-1.693"/></svg>