<svg xmlns="http://www.w3.org/2000/svg" width="24" height="24" viewBox="0 0 24 24"><path d="M5.72 19.177a.896.896 0 1 1-1.794 0 .896.896 0 1 1 1.794 0M8.412 5.72a.896.896 0 1 1 0-1.795.896.896 0 1 1 0 1.795m0 14.355a.895.895 0 0 1-.898-.898c0-.497.4-.897.898-.897.497 0 .897.4.897.897 0 .498-.4.898-.897.898M9.309 12c0 .497-.4.897-.897.897A.895.895 0 0 1 7.514 12c0-.497.4-.897.898-.897.497 0 .897.4.897.897m6.28 8.075a.895.895 0 0 1-.897-.898c0-.497.4-.897.897-.897s.897.4.897.897c0 .498-.4.898-.897.898m.897-15.252a.896.896 0 1 1-1.794 0 .896.896 0 1 1 1.794 0m-.897 8.074a.895.895 0 0 1-.897-.897c0-.497.4-.897.897-.897s.897.4.897.897-.4.897-.897.897m-2.691 6.28c0 .498-.4.898-.898.898a.895.895 0 0 1-.897-.898c0-.497.4-.897.897-.897.498 0 .898.4.898.897M12 5.72a.896.896 0 1 1 0-1.795.896.896 0 1 1 0 1.795m.898 6.28c0 .497-.4.897-.898.897a.895.895 0 0 1-.897-.897c0-.497.4-.897.897-.897.498 0 .898.4.898.897m6.28 8.075a.895.895 0 0 1-.897-.898c0-.497.4-.897.897-.897s.897.4.897.897c0 .498-.4.898-.897.898m0-14.355a.896.896 0 1 1 0-1.795.896.896 0 1 1 0 1.795M5.72 4.823a.897.897 0 1 1-1.795 0 .897.897 0 0 1 1.795 0m13.458 8.074A.895.895 0 0 1 18.28 12c0-.497.4-.897.897-.897s.897.4.897.897-.4.897-.897.897M5.72 12a.896.896 0 1 1-1.794 0 .896.896 0 1 1 1.794 0M12 16.486a.895.895 0 0 1-.897-.897c0-.498.4-.898.897-.898.498 0 .898.4.898.898 0 .497-.4.897-.898.897m8.075-.897c0 .497-.4.897-.897.897a.895.895 0 0 1-.897-.897c0-.498.4-.898.897-.898s.897.4.897.898m-15.252.897a.896.896 0 1 1 0-1.795.896.896 0 1 1 0 1.795M20.075 8.41c0 .497-.4.897-.897.897a.895.895 0 0 1-.897-.897c0-.497.4-.897.897-.897s.897.4.897.897m-15.252.897a.896.896 0 1 1 0-1.794.896.896 0 1 1 0 1.794m8.075-.897c0 .497-.4.897-.898.897a.895.895 0 0 1-.897-.897c0-.497.4-.897.897-.897.498 0 .898.4.898.897"/></svg>