<svg xmlns="http://www.w3.org/2000/svg" width="24" height="24" viewBox="0 0 24 24"><path d="M12.598 17.981a.6.6 0 0 0-.598.598v.598c0 .661-.536 1.197-1.196 1.197H4.823c-.661 0-1.197-.536-1.197-1.197v-9.57c0-.66.536-1.196 1.197-1.196h4.186a.6.6 0 0 0 .598-.598.6.6 0 0 0-.598-.598H4.822A2.39 2.39 0 0 0 2.43 9.608v9.57a2.394 2.394 0 0 0 2.393 2.392h5.98a2.39 2.39 0 0 0 2.393-2.393v-.598a.6.6 0 0 0-.598-.598m8.62-12.312L18.332 2.78a1.2 1.2 0 0 0-.847-.35h-4.288a2.394 2.394 0 0 0-2.392 2.392v9.57a2.39 2.39 0 0 0 2.392 2.392h5.981a2.39 2.39 0 0 0 2.393-2.392V6.516a1.2 1.2 0 0 0-.352-.847m-3.237-1.547 1.895 1.897h-1.895zm2.393 10.27c0 .661-.536 1.197-1.197 1.197h-5.98c-.661 0-1.197-.536-1.197-1.197v-9.57c0-.66.536-1.196 1.196-1.196h3.589V6.02c0 .66.536 1.196 1.196 1.196h2.393z"/></svg>