<svg xmlns="http://www.w3.org/2000/svg" width="24" height="24" viewBox="0 0 24 24"><path d="m6.67 2.948.521-.518h1.354L7.348 3.625l2.114 2.114 2.115-2.114-1.195-1.195h1.353l.519.518.52-.518h1.354L12.93 3.625l2.114 2.114 2.114-2.114-1.195-1.195h1.353l.519.518.52-.518h1.354l-1.197 1.195 2.115 2.115.942-.941v1.353l-.265.265.265.266v1.353l-.942-.942-2.115 2.113 2.115 2.115.942-.94v1.353l-.265.264.265.266v1.353l-.942-.942-2.115 2.114 2.115 2.115.942-.941v1.353l-.265.265.265.266V19.2l-.942-.942-2.114 2.115 1.196 1.196h-1.354l-.52-.52-.519.52h-1.353l1.196-1.196-2.115-2.115-2.114 2.115 1.197 1.196h-1.354l-.52-.52-.519.52h-1.353l1.196-1.196-2.115-2.115-2.114 2.115 1.196 1.196H7.19l-.52-.52-.519.52H4.8l1.196-1.196-2.115-2.115-1.45 1.451v-1.354l.773-.774-.773-.773v-1.354l1.45 1.45 2.114-2.115-2.113-2.113-1.45 1.45v-1.353L3.204 12l-.774-.774V9.873l1.45 1.45 2.114-2.115L3.88 7.094l-1.45 1.45V7.192l.773-.774-.773-.773V4.29l1.45 1.45 2.114-2.115L4.8 2.43h1.353zM4.558 17.582l2.115 2.115 2.114-2.115-2.115-2.115zm5.583 0 2.114 2.115 2.114-2.115-2.114-2.114zm5.582 0 2.115 2.115 2.114-2.115-2.115-2.115zM7.348 14.79l2.115 2.115 2.114-2.114-2.115-2.115zm5.583.001 2.114 2.114 2.114-2.115-2.114-2.114zm-2.792-2.792 2.115 2.115L14.368 12l-2.115-2.115zM4.557 12l2.114 2.113L8.785 12 6.671 9.885zm11.165-.001 2.114 2.114L19.95 12l-2.115-2.115zM7.348 9.208l2.114 2.114 2.114-2.115-2.114-2.114zm5.582-.001 2.115 2.115 2.114-2.115-2.115-2.115zm-8.373-2.79L6.67 8.531l2.114-2.115-2.114-2.114zm5.582-.001 2.114 2.114 2.115-2.114-2.114-2.114zm5.583 0 2.114 2.114 2.114-2.114-2.114-2.114z"/></svg>