<svg xmlns="http://www.w3.org/2000/svg" width="24" height="24" viewBox="0 0 24 24"><path d="M12.718 15.004 6.153 21.57H4.799l7.163-7.164zM15.838 17.466l-4.103 4.104h-1.353l4.7-4.7zM18.957 19.93l-1.64 1.64h-1.353l2.237-2.238zM9.598 12.541l-7.168 7.17v-1.354l6.412-6.413zM21.57 17.118l-.645-.51.645-.644zM21.57 11.735l-3.008 3.008-.757-.597 3.765-3.764zM6.48 10.078l-4.05 4.05v-1.354l3.293-3.293zM21.57 6.153l-6.128 6.127-.757-.597 6.885-6.884zM12.323 9.817l-.757-.597 6.79-6.79h1.354zM3.36 7.615l-.93.93V7.192l.173-.174zM9.203 7.354l-.757-.597 4.328-4.327h1.354zM6.083 4.892l-.756-.598L7.192 2.43h1.353zM21.363 18.825c.209.164.241.438.08.67a.48.48 0 0 1-.67.081L2.646 5.266a.477.477 0 0 1 .591-.75z"/></svg>