<svg xmlns="http://www.w3.org/2000/svg" width="24" height="24" viewBox="0 0 24 24"><path d="M4.344 3.387a.957.957 0 1 1-1.914 0 .957.957 0 0 1 1.914 0M10.086 3.387a.957.957 0 1 1-1.914 0 .957.957 0 0 1 1.914 0M15.828 3.387a.957.957 0 1 1-1.914 0 .957.957 0 0 1 1.914 0M21.57 3.387a.957.957 0 1 1-1.914 0 .957.957 0 0 1 1.914 0M4.344 9.129a.957.957 0 1 1-1.914 0 .957.957 0 0 1 1.914 0M10.086 9.129a.957.957 0 1 1-1.914 0 .957.957 0 0 1 1.914 0M15.828 9.129a.957.957 0 1 1-1.914 0 .957.957 0 0 1 1.914 0M21.57 9.129a.957.957 0 1 1-1.914 0 .957.957 0 0 1 1.914 0M4.344 14.871a.957.957 0 1 1-1.914 0 .957.957 0 0 1 1.914 0M10.086 14.871a.957.957 0 1 1-1.914 0 .957.957 0 0 1 1.914 0M15.828 14.871a.957.957 0 1 1-1.914 0 .957.957 0 0 1 1.914 0M21.57 14.871a.957.957 0 1 1-1.914 0 .957.957 0 0 1 1.914 0M4.344 20.613a.957.957 0 1 1-1.914 0 .957.957 0 0 1 1.914 0M10.086 20.613a.957.957 0 1 1-1.914 0 .957.957 0 0 1 1.914 0M15.828 20.613a.957.957 0 1 1-1.914 0 .957.957 0 0 1 1.914 0M21.57 20.613a.957.957 0 1 1-1.914 0 .957.957 0 0 1 1.914 0"/></svg>