<svg xmlns="http://www.w3.org/2000/svg" width="24" height="24" viewBox="0 0 24 24"><path d="M9.098 2.43v2.707l2.943 1.7 2.944-1.7V2.43h.912v2.707l2.944 1.7 2.73-1.576v1.113l-2.275 1.313v3.4l2.274 1.312v1.114l-2.73-1.576-2.943 1.7v3.4l2.944 1.698 2.73-1.575v1.113l-2.275 1.313v1.984h-.91v-1.984l-2.945-1.7-2.944 1.7v1.984h-.911v-1.984l-2.944-1.7-2.945 1.7v1.984h-.91v-1.984l-2.357-1.36v-1.114l2.812 1.623 2.945-1.699v-3.4l-2.945-1.7L2.43 13.56v-1.113l2.356-1.36v-3.4L2.43 6.327V5.213l2.812 1.623 2.945-1.7V2.43zm0 11.207v3.4l2.943 1.698 2.944-1.699v-3.4l-2.944-1.7zm-3.4-5.95v3.4l2.944 1.7 2.944-1.7v-3.4l-2.944-1.7zm6.8 0v3.4l2.943 1.7 2.945-1.7v-3.4l-2.945-1.7z"/></svg>