<svg xmlns="http://www.w3.org/2000/svg" width="24" height="24" viewBox="0 0 24 24"><path d="M2.43 12c0-.331.234-.6.522-.6H4.78c.288 0 .522.269.522.6s-.234.6-.522.6H2.952c-.288 0-.522-.269-.522-.6M18.7 12c0-.331.233-.6.521-.6h1.827c.289 0 .522.269.522.6s-.233.6-.522.6h-1.827c-.288 0-.522-.269-.522-.6M13.305 12c0-.331.234-.6.522-.6h1.827c.289 0 .522.269.522.6s-.233.6-.522.6h-1.827c-.288 0-.522-.269-.522-.6M7.868 12c0-.331.233-.6.522-.6h1.827c.288 0 .522.269.522.6s-.234.6-.522.6H8.39c-.289 0-.522-.269-.522-.6"/></svg>