<svg xmlns="http://www.w3.org/2000/svg" width="24" height="24" viewBox="0 0 24 24"><path d="M5.475 12c0-.331.235-.6.525-.6h3.213c.29 0 .525.269.525.6s-.235.6-.525.6H6c-.29 0-.525-.269-.525-.6M14.262 12c0-.331.235-.6.525-.6H18c.29 0 .525.269.525.6s-.235.6-.525.6h-3.213c-.29 0-.525-.269-.525-.6M2.43 12c0-.331.234-.6.522-.6h.61c.287 0 .521.269.521.6s-.234.6-.522.6h-.609c-.288 0-.522-.269-.522-.6M19.917 12c0-.331.234-.6.522-.6h.61c.288 0 .521.269.521.6s-.233.6-.522.6h-.609c-.288 0-.522-.269-.522-.6M11.13 12c0-.331.246-.6.55-.6h.64c.304 0 .55.269.55.6s-.246.6-.55.6h-.64c-.304 0-.55-.269-.55-.6"/></svg>