<svg xmlns="http://www.w3.org/2000/svg" width="24" height="24" viewBox="0 0 24 24"><path d="M2.43 12c0-.331.235-.6.525-.6h.611c.29 0 .525.269.525.6s-.235.6-.525.6h-.611c-.29 0-.525-.269-.525-.6M5.926 12c0-.331.235-.6.524-.6h.612c.29 0 .525.269.525.6s-.235.6-.525.6H6.45c-.29 0-.524-.269-.524-.6M9.422 12c0-.331.235-.6.524-.6h.612c.29 0 .524.269.524.6s-.234.6-.524.6h-.612c-.29 0-.524-.269-.524-.6M12.918 12c0-.331.235-.6.524-.6h.612c.29 0 .524.269.524.6s-.234.6-.524.6h-.612c-.29 0-.524-.269-.524-.6M16.414 12c0-.331.234-.6.524-.6h.612c.29 0 .524.269.524.6s-.235.6-.524.6h-.612c-.29 0-.524-.269-.524-.6M19.91 12c0-.331.234-.6.524-.6h.612c.29 0 .524.269.524.6s-.235.6-.524.6h-.612c-.29 0-.524-.269-.524-.6"/></svg>