<svg xmlns="http://www.w3.org/2000/svg" width="24" height="24" viewBox="0 0 24 24"><path d="M20.583 19.035 14.9 14.202a.599.599 0 0 1 .778-.912l5.681 4.833c.25.213.28.59.067.845a.6.6 0 0 1-.844.067m.003-14.072a.596.596 0 0 1 .841.072.597.597 0 0 1-.07.843l-11.133 9.378a4.185 4.185 0 0 1-3.607 6.314 4.186 4.186 0 0 1-4.187-4.187 4.186 4.186 0 0 1 7.043-3.062L12.23 12 9.473 9.678A4.186 4.186 0 0 1 2.43 6.617a4.187 4.187 0 1 1 7.794 2.128l2.934 2.475zM3.626 6.617a2.99 2.99 0 1 0 5.98 0 2.99 2.99 0 0 0-5.98 0m2.99 13.757a2.99 2.99 0 1 0 0-5.982 2.99 2.99 0 1 0 0 5.982"/></svg>