<svg xmlns="http://www.w3.org/2000/svg" width="24" height="24" viewBox="0 0 24 24"><path fill-rule="evenodd" d="M19.178 2.43a2.393 2.393 0 0 1 2.392 2.392v14.356a2.393 2.393 0 0 1-2.392 2.392H4.823a2.393 2.393 0 0 1-2.393-2.393V4.822A2.39 2.39 0 0 1 4.823 2.43zM3.587 19.178v-3.51h4.745v4.746h-3.51a1.236 1.236 0 0 1-1.235-1.237m5.9 1.235v-4.745h5.026v4.746zm6.181 0v-4.745h4.746v3.51c0 .682-.554 1.235-1.236 1.235zm-7.336-5.9H3.587V9.487h4.745zm6.18 0H9.489V9.487h5.025zm5.902 0h-4.746V9.487h4.746z"/></svg>