<svg xmlns="http://www.w3.org/2000/svg" width="24" height="24" viewBox="0 0 24 24"><path fill-rule="evenodd" d="M19.178 2.43a2.393 2.393 0 0 1 2.392 2.392v14.356a2.393 2.393 0 0 1-2.392 2.392H4.823a2.393 2.393 0 0 1-2.393-2.393V4.822A2.39 2.39 0 0 1 4.823 2.43zm-9.69 17.984v-4.746h5.025v4.746zm6.18 0v-4.746h4.746v3.51c0 .682-.554 1.235-1.236 1.235zm-1.155-5.902H9.488V9.488h5.025zm5.9 0h-4.745V9.488h4.746zm-5.9-6.18H9.488V3.587h5.025zm5.9 0h-4.745V3.587h3.51c.682 0 1.236.553 1.236 1.235z"/></svg>