<svg xmlns="http://www.w3.org/2000/svg" width="24" height="24" viewBox="0 0 24 24"><path d="M2.623 5.393a.66.66 0 0 1 .934 0l5.811 5.812 5.812-5.812a.66.66 0 0 1 .933.934l-5.811 5.811 5.811 5.812a.66.66 0 0 1-.933.933l-5.812-5.811-5.811 5.811a.66.66 0 1 1-.934-.933l5.812-5.812-5.812-5.811a.66.66 0 0 1 0-.934"/><path d="M18.03 15.726a.561.561 0 1 1-.795-.795l.541-.541a2.08 2.08 0 0 1 3.035.098c.703.774.682 2.008-.046 2.789l-2.12 2.271h2.363c.309 0 .562.254.562.563 0 .31-.253.563-.562.563H17.35a.564.564 0 0 1-.412-.946l3.003-3.218a.954.954 0 0 0 .021-1.28c-.394-.415-1.002-.436-1.391-.045z"/></svg>