<?xml version="1.0" encoding="utf-8"?>
<!-- Generator: Adobe Illustrator 21.0.2, SVG Export Plug-In . SVG Version: 6.00 Build 0)  -->
<svg version="1.1" id="ggbLogo" xmlns="http://www.w3.org/2000/svg" xmlns:xlink="http://www.w3.org/1999/xlink" x="0px" y="0px"
	 viewBox="0 0 320.9 90.7" style="enable-background:new 0 0 320.9 90.7;" xml:space="preserve">
<style type="text/css">
	.st0{fill:#666666;}
	.st1{fill:#191919;}
	.st2{fill:#9999FF;}
</style>
<path id="ggbLogoLetter8" class="st0" d="M290.3,35.7V62H287v-4.5c-1.4,1.7-3,3-4.8,3.9s-3.7,1.3-5.8,1.3c-3.7,0-6.9-1.4-9.5-4.1
	c-2.6-2.7-4-6-4-9.9c0-3.8,1.3-7,4-9.7s5.9-4,9.6-4c2.2,0,4.1,0.5,5.9,1.4c1.7,0.9,3.3,2.3,4.6,4.1v-4.8L290.3,35.7L290.3,35.7z
	 M276.8,38.3c-1.9,0-3.6,0.5-5.2,1.4s-2.9,2.2-3.8,3.9s-1.4,3.4-1.4,5.3c0,1.9,0.5,3.6,1.4,5.3s2.2,3,3.8,4c1.6,0.9,3.3,1.4,5.2,1.4
	c1.9,0,3.6-0.5,5.3-1.4c1.7-0.9,2.9-2.2,3.8-3.8s1.3-3.4,1.3-5.4c0-3-1-5.6-3-7.6C282.2,39.3,279.7,38.3,276.8,38.3L276.8,38.3z"/>
<path id="ggbLogoLetter7" class="st0" d="M247.9,35.7h3.5v3.8c1-1.5,2.1-2.6,3.3-3.4c1.1-0.7,2.3-1.1,3.6-1.1c0.9,0,1.9,0.3,3,0.9
	l-1.8,2.9c-0.7-0.3-1.3-0.5-1.8-0.5c-1.1,0-2.2,0.5-3.3,1.4c-1,0.9-1.8,2.4-2.4,4.3c-0.4,1.5-0.6,4.5-0.6,9.1V62h-3.5
	C247.9,62,247.9,35.7,247.9,35.7z"/>
<path id="ggbLogoLetter6" class="st0" d="M215.6,62V25.6h3.4v14.7c1.4-1.7,3-3,4.8-3.9s3.7-1.3,5.8-1.3c3.7,0,6.9,1.4,9.5,4.1
	c2.6,2.7,4,6,4,9.8s-1.3,7.1-4,9.7c-2.7,2.7-5.9,4-9.6,4c-2.1,0-4.1-0.5-5.8-1.4s-3.3-2.3-4.6-4.1V62H215.6L215.6,62L215.6,62z
	 M229.2,59.5c1.9,0,3.6-0.5,5.2-1.4c1.6-0.9,2.9-2.2,3.8-3.9c0.9-1.7,1.4-3.5,1.4-5.3c0-1.9-0.5-3.7-1.4-5.3c-0.9-1.7-2.2-3-3.8-4
	c-1.6-0.9-3.3-1.4-5.1-1.4c-1.9,0-3.6,0.5-5.3,1.4s-2.9,2.2-3.8,3.8c-0.9,1.6-1.3,3.4-1.3,5.4c0,3,1,5.6,3,7.6
	C223.8,58.4,226.2,59.5,229.2,59.5L229.2,59.5z"/>
<path id="ggbLogoLetter5" class="st0" d="M205.4,53.3l2.9,1.5c-0.9,1.8-2,3.3-3.2,4.5c-1.2,1.1-2.6,2-4.1,2.6s-3.3,0.9-5.2,0.9
	c-4.3,0-7.7-1.4-10.1-4.2c-2.4-2.8-3.6-6-3.6-9.5c0-3.3,1-6.3,3.1-8.9c2.6-3.3,6.1-5,10.4-5c4.5,0,8.1,1.7,10.8,5.1
	c1.9,2.4,2.9,5.4,2.9,9h-23.7c0.1,3.1,1,5.6,2.9,7.5c1.9,2,4.2,2.9,7,2.9c1.3,0,2.6-0.2,3.9-0.7c1.3-0.5,2.3-1.1,3.2-1.9
	C203.4,56.3,204.3,55,205.4,53.3L205.4,53.3z M205.4,46.2c-0.5-1.8-1.1-3.2-2-4.3s-2-2-3.4-2.6c-1.4-0.7-2.9-1-4.5-1
	c-2.6,0-4.8,0.8-6.7,2.5c-1.4,1.2-2.4,3-3.1,5.4L205.4,46.2L205.4,46.2z"/>
<path id="ggbLogoLetter4" class="st0" d="M174.9,32.4l-2.8,2.6c-2-2-4.2-3.4-6.5-4.4c-2.4-1-4.7-1.5-6.9-1.5c-2.8,0-5.4,0.7-8,2.1
	c-2.5,1.4-4.5,3.2-5.9,5.6c-1.4,2.3-2.1,4.8-2.1,7.4c0,2.7,0.7,5.2,2.2,7.6c1.4,2.4,3.4,4.3,6,5.7c2.5,1.4,5.3,2.1,8.3,2.1
	c3.7,0,6.8-1,9.3-3.1s4-4.7,4.5-8h-11.3V45H177c0,5.5-1.7,9.9-4.9,13.1c-3.2,3.2-7.6,4.9-13,4.9c-6.6,0-11.8-2.2-15.6-6.7
	c-3-3.5-4.4-7.4-4.4-12c0-3.4,0.8-6.5,2.5-9.4c1.7-2.9,4-5.2,7-6.8c3-1.6,6.3-2.5,10-2.5c3,0,5.9,0.5,8.5,1.6
	C169.7,28.3,172.3,30,174.9,32.4L174.9,32.4z"/>
<g id="ggbLogoLetter3">
	<g id="ggbLogoCircle">
		<g>
			<path class="st0" d="M116.4,40.4c-0.6-0.7-1-1.6-1-2.5c0,0,0-0.1,0-0.1c0,0,0,0,0,0c-2.8,1.3-5.2,3.4-7,5.9
				c0.9,0.3,1.7,1,2.2,1.8c0.1-0.2,0.2-0.4,0.4-0.6c1.2-1.7,2.9-3.2,5-4.3C116.1,40.5,116.2,40.5,116.4,40.4z M108.6,51.1
				C108.6,51.1,108.6,51.1,108.6,51.1c-0.4,0.1-0.9,0.2-1.4,0.2c-0.5,0-1-0.1-1.4-0.3c-0.1,1.8,0.1,3.5,1,5.4c0.5,1.1,1.2,2,2,2.8
				c0.4-0.9,1-1.6,1.9-2c-0.5-0.6-0.9-1.2-1.3-1.9C108.8,54,108.5,52.5,108.6,51.1z M123.1,38.8c3.2,0.2,5.7,1.4,7.2,3.4
				c0.7-0.6,1.5-1,2.5-1c-2-3-5.7-4.9-10-5c0.2,0.5,0.4,1.1,0.4,1.7C123.2,38.2,123.2,38.5,123.1,38.8z M116.7,60.1
				c-0.2,0-0.3-0.1-0.5-0.1c0,0.2,0.1,0.4,0.1,0.7c0,0.7-0.2,1.4-0.6,2c2.8,0.4,6,0,9-1.3c-0.6-0.6-1-1.5-1.1-2.4
				C121.3,60,118.8,60.4,116.7,60.1z M132.9,49c-0.4,0-0.7-0.1-1-0.2c-0.2,1.7-1,3.6-2.4,5.5c-0.2,0.2-0.4,0.5-0.6,0.7
				c0.9,0.3,1.6,1,2,1.8c0.3-0.4,0.7-0.8,1-1.2c1.7-2.4,2.5-4.9,2.7-7C134.1,48.8,133.5,49,132.9,49z"/>
		</g>
	</g>
	<g id="ggbLogoEmblem">
		<g id="ggbLogoDot_4_">
			<g id="ggbLogoDotOuter_11_">
				<g>
					<path class="st1" d="M107.2,43.5c-2.2,0-3.9,1.7-3.9,3.9s1.7,3.9,3.9,3.9c2.2,0,3.9-1.7,3.9-3.9S109.4,43.5,107.2,43.5z
						 M107.2,50.1c-1.5,0-2.7-1.2-2.7-2.7s1.2-2.7,2.7-2.7s2.7,1.2,2.7,2.7S108.7,50.1,107.2,50.1z"/>
				</g>
			</g>
			<circle id="ggbLogoDotInner_4_" class="st2" cx="107.2" cy="47.4" r="2.7"/>
		</g>
		<g id="ggbLogoDot_3_">
			<g id="ggbLogoDotOuter_10_">
				<g>
					<path class="st1" d="M112.4,56.8c-2.2,0-3.9,1.7-3.9,3.9s1.7,3.9,3.9,3.9c2.2,0,3.9-1.7,3.9-3.9S114.6,56.8,112.4,56.8z
						 M112.4,63.4c-1.5,0-2.7-1.2-2.7-2.7s1.2-2.7,2.7-2.7c1.5,0,2.7,1.2,2.7,2.7S113.9,63.4,112.4,63.4z"/>
				</g>
			</g>
			<circle id="ggbLogoDotInner_3_" class="st2" cx="112.4" cy="60.7" r="2.7"/>
		</g>
		<g id="ggbLogoDot_2_">
			<g id="ggbLogoDotOuter_12_">
				<g>
					<path class="st1" d="M119.3,34c-2.2,0-3.9,1.7-3.9,3.9s1.7,3.9,3.9,3.9c2.2,0,3.9-1.7,3.9-3.9S121.5,34,119.3,34z M119.3,40.6
						c-1.5,0-2.7-1.2-2.7-2.7s1.2-2.7,2.7-2.7c1.5,0,2.7,1.2,2.7,2.7S120.8,40.6,119.3,40.6z"/>
				</g>
			</g>
			<circle id="ggbLogoDotInner_2_" class="st2" cx="119.3" cy="37.9" r="2.7"/>
		</g>
		<g id="ggbLogoDot_1_">
			<g id="ggbLogoDotOuter_13_">
				<g>
					<path class="st1" d="M132.9,41.2c-2.2,0-3.9,1.7-3.9,3.9c0,2.2,1.7,3.9,3.9,3.9c2.2,0,3.9-1.7,3.9-3.9
						C136.8,42.9,135.1,41.2,132.9,41.2z M132.9,47.8c-1.5,0-2.7-1.2-2.7-2.7c0-1.5,1.2-2.7,2.7-2.7c1.5,0,2.7,1.2,2.7,2.7
						C135.6,46.6,134.4,47.8,132.9,47.8z"/>
				</g>
			</g>
			<circle id="ggbLogoDotInner_1_" class="st2" cx="132.9" cy="45.1" r="2.7"/>
		</g>
		<g id="ggbLogoDot">
			<g id="ggbLogoDotOuter_14_">
				<g>
					<path class="st1" d="M127.5,54.7c-2.2,0-3.9,1.7-3.9,3.9c0,2.2,1.7,3.9,3.9,3.9s3.9-1.7,3.9-3.9
						C131.4,56.4,129.7,54.7,127.5,54.7z M127.5,61.3c-1.5,0-2.7-1.2-2.7-2.7c0-1.5,1.2-2.7,2.7-2.7s2.7,1.2,2.7,2.7
						C130.2,60.1,129,61.3,127.5,61.3z"/>
				</g>
			</g>
			<circle id="ggbLogoDotInner" class="st2" cx="127.5" cy="58.6" r="2.7"/>
		</g>
	</g>
</g>
<path id="ggbLogoLetter2" class="st0" d="M96.7,53.5l2.9,1.5c-0.9,1.8-2,3.3-3.2,4.5c-1.2,1.1-2.6,2-4.1,2.6S89,63,87.1,63
	c-4.3,0-7.7-1.4-10.1-4.2s-3.6-6-3.6-9.5c0-3.3,1-6.3,3.1-8.9c2.6-3.3,6.1-5,10.4-5c4.5,0,8.1,1.7,10.8,5.1c1.9,2.4,2.9,5.4,2.9,9
	H76.9c0.1,3.1,1,5.6,2.9,7.5c1.9,2,4.2,2.9,7,2.9c1.3,0,2.6-0.2,3.9-0.7s2.3-1.1,3.2-1.9C94.7,56.4,95.7,55.2,96.7,53.5L96.7,53.5z
	 M96.7,46.4c-0.5-1.8-1.1-3.2-2-4.3s-2-2-3.4-2.6c-1.4-0.7-2.9-1-4.5-1c-2.6,0-4.8,0.8-6.7,2.5c-1.4,1.2-2.4,3-3.1,5.4L96.7,46.4
	L96.7,46.4z"/>
<path id="ggbLogoLetter1" class="st0" d="M66.3,32.6l-2.8,2.6c-2-2-4.2-3.4-6.5-4.4c-2.4-1-4.7-1.5-6.9-1.5c-2.8,0-5.4,0.7-8,2.1
	c-2.5,1.4-4.5,3.2-5.9,5.6c-1.4,2.3-2.1,4.8-2.1,7.4c0,2.7,0.7,5.2,2.2,7.6c1.4,2.4,3.4,4.3,6,5.7c2.5,1.4,5.3,2.1,8.3,2.1
	c3.7,0,6.8-1,9.3-3.1s4-4.7,4.5-8H53v-3.4h15.3c0,5.5-1.7,9.9-4.9,13.1c-3.2,3.2-7.6,4.9-13,4.9c-6.6,0-11.8-2.2-15.6-6.7
	c-3-3.5-4.4-7.4-4.4-12c0-3.4,0.8-6.5,2.5-9.4c1.7-2.9,4-5.2,7-6.8c3-1.6,6.3-2.5,10-2.5c3,0,5.9,0.5,8.5,1.6
	C61.1,28.5,63.7,30.2,66.3,32.6L66.3,32.6z"/>
</svg>
