<svg xmlns="http://www.w3.org/2000/svg" xml:space="preserve" id="ggbLogo" x="0" y="0" style="enable-background:new 0 0 320.9 90.7" version="1.1" viewBox="0 0 320.9 90.7"><style>.st0{fill:#666}.st1{fill:#191919}.st2{fill:#99f}</style><path id="ggbLogoLetter8" d="M290.3 35.7V62H287v-4.5c-1.4 1.7-3 3-4.8 3.9s-3.7 1.3-5.8 1.3c-3.7 0-6.9-1.4-9.5-4.1-2.6-2.7-4-6-4-9.9 0-3.8 1.3-7 4-9.7s5.9-4 9.6-4c2.2 0 4.1.5 5.9 1.4 1.7.9 3.3 2.3 4.6 4.1v-4.8h3.3zm-13.5 2.6c-1.9 0-3.6.5-5.2 1.4s-2.9 2.2-3.8 3.9-1.4 3.4-1.4 5.3.5 3.6 1.4 5.3 2.2 3 3.8 4c1.6.9 3.3 1.4 5.2 1.4 1.9 0 3.6-.5 5.3-1.4 1.7-.9 2.9-2.2 3.8-3.8s1.3-3.4 1.3-5.4c0-3-1-5.6-3-7.6-2-2.1-4.5-3.1-7.4-3.1z" class="st0"/><path id="ggbLogoLetter7" d="M247.9 35.7h3.5v3.8c1-1.5 2.1-2.6 3.3-3.4 1.1-.7 2.3-1.1 3.6-1.1.9 0 1.9.3 3 .9l-1.8 2.9c-.7-.3-1.3-.5-1.8-.5-1.1 0-2.2.5-3.3 1.4-1 .9-1.8 2.4-2.4 4.3-.4 1.5-.6 4.5-.6 9.1V62h-3.5V35.7z" class="st0"/><path id="ggbLogoLetter6" d="M215.6 62V25.6h3.4v14.7c1.4-1.7 3-3 4.8-3.9s3.7-1.3 5.8-1.3c3.7 0 6.9 1.4 9.5 4.1 2.6 2.7 4 6 4 9.8s-1.3 7.1-4 9.7c-2.7 2.7-5.9 4-9.6 4-2.1 0-4.1-.5-5.8-1.4s-3.3-2.3-4.6-4.1V62h-3.5zm13.6-2.5c1.9 0 3.6-.5 5.2-1.4 1.6-.9 2.9-2.2 3.8-3.9.9-1.7 1.4-3.5 1.4-5.3 0-1.9-.5-3.7-1.4-5.3-.9-1.7-2.2-3-3.8-4-1.6-.9-3.3-1.4-5.1-1.4-1.9 0-3.6.5-5.3 1.4s-2.9 2.2-3.8 3.8c-.9 1.6-1.3 3.4-1.3 5.4 0 3 1 5.6 3 7.6 1.9 2 4.3 3.1 7.3 3.1z" class="st0"/><path id="ggbLogoLetter5" d="m205.4 53.3 2.9 1.5c-.9 1.8-2 3.3-3.2 4.5-1.2 1.1-2.6 2-4.1 2.6s-3.3.9-5.2.9c-4.3 0-7.7-1.4-10.1-4.2-2.4-2.8-3.6-6-3.6-9.5 0-3.3 1-6.3 3.1-8.9 2.6-3.3 6.1-5 10.4-5 4.5 0 8.1 1.7 10.8 5.1 1.9 2.4 2.9 5.4 2.9 9h-23.7c.1 3.1 1 5.6 2.9 7.5 1.9 2 4.2 2.9 7 2.9 1.3 0 2.6-.2 3.9-.7 1.3-.5 2.3-1.1 3.2-1.9.8-.8 1.7-2.1 2.8-3.8zm0-7.1c-.5-1.8-1.1-3.2-2-4.3s-2-2-3.4-2.6c-1.4-.7-2.9-1-4.5-1-2.6 0-4.8.8-6.7 2.5-1.4 1.2-2.4 3-3.1 5.4h19.7z" class="st0"/><path id="ggbLogoLetter4" d="m174.9 32.4-2.8 2.6c-2-2-4.2-3.4-6.5-4.4-2.4-1-4.7-1.5-6.9-1.5-2.8 0-5.4.7-8 2.1-2.5 1.4-4.5 3.2-5.9 5.6-1.4 2.3-2.1 4.8-2.1 7.4 0 2.7.7 5.2 2.2 7.6 1.4 2.4 3.4 4.3 6 5.7 2.5 1.4 5.3 2.1 8.3 2.1 3.7 0 6.8-1 9.3-3.1s4-4.7 4.5-8h-11.3V45H177c0 5.5-1.7 9.9-4.9 13.1-3.2 3.2-7.6 4.9-13 4.9-6.6 0-11.8-2.2-15.6-6.7-3-3.5-4.4-7.4-4.4-12 0-3.4.8-6.5 2.5-9.4 1.7-2.9 4-5.2 7-6.8 3-1.6 6.3-2.5 10-2.5 3 0 5.9.5 8.5 1.6 2.6 1.1 5.2 2.8 7.8 5.2z" class="st0"/><g id="ggbLogoLetter3"><path id="ggbLogoCircle" d="M116.4 40.4c-.6-.7-1-1.6-1-2.5v-.1c-2.8 1.3-5.2 3.4-7 5.9.9.3 1.7 1 2.2 1.8.1-.2.2-.4.4-.6 1.2-1.7 2.9-3.2 5-4.3.1-.1.2-.1.4-.2zm-7.8 10.7c-.4.1-.9.2-1.4.2-.5 0-1-.1-1.4-.3-.1 1.8.1 3.5 1 5.4.5 1.1 1.2 2 2 2.8.4-.9 1-1.6 1.9-2-.5-.6-.9-1.2-1.3-1.9-.6-1.3-.9-2.8-.8-4.2zm14.5-12.3c3.2.2 5.7 1.4 7.2 3.4.7-.6 1.5-1 2.5-1-2-3-5.7-4.9-10-5 .2.5.4 1.1.4 1.7 0 .3 0 .6-.1.9zm-6.4 21.3c-.2 0-.3-.1-.5-.1 0 .2.1.4.1.7 0 .7-.2 1.4-.6 2 2.8.4 6 0 9-1.3-.6-.6-1-1.5-1.1-2.4-2.3 1-4.8 1.4-6.9 1.1zM132.9 49c-.4 0-.7-.1-1-.2-.2 1.7-1 3.6-2.4 5.5-.2.2-.4.5-.6.7.9.3 1.6 1 2 1.8.3-.4.7-.8 1-1.2 1.7-2.4 2.5-4.9 2.7-7-.5.2-1.1.4-1.7.4z" class="st0"/><g id="ggbLogoEmblem"><g id="ggbLogoDot_4_"><path id="ggbLogoDotOuter_11_" d="M107.2 43.5c-2.2 0-3.9 1.7-3.9 3.9s1.7 3.9 3.9 3.9 3.9-1.7 3.9-3.9-1.7-3.9-3.9-3.9zm0 6.6c-1.5 0-2.7-1.2-2.7-2.7s1.2-2.7 2.7-2.7 2.7 1.2 2.7 2.7-1.2 2.7-2.7 2.7z" class="st1"/><circle id="ggbLogoDotInner_4_" cx="107.2" cy="47.4" r="2.7" class="st2"/></g><g id="ggbLogoDot_3_"><path id="ggbLogoDotOuter_10_" d="M112.4 56.8c-2.2 0-3.9 1.7-3.9 3.9s1.7 3.9 3.9 3.9 3.9-1.7 3.9-3.9-1.7-3.9-3.9-3.9zm0 6.6c-1.5 0-2.7-1.2-2.7-2.7s1.2-2.7 2.7-2.7c1.5 0 2.7 1.2 2.7 2.7s-1.2 2.7-2.7 2.7z" class="st1"/><circle id="ggbLogoDotInner_3_" cx="112.4" cy="60.7" r="2.7" class="st2"/></g><g id="ggbLogoDot_2_"><path id="ggbLogoDotOuter_12_" d="M119.3 34c-2.2 0-3.9 1.7-3.9 3.9s1.7 3.9 3.9 3.9 3.9-1.7 3.9-3.9-1.7-3.9-3.9-3.9zm0 6.6c-1.5 0-2.7-1.2-2.7-2.7s1.2-2.7 2.7-2.7c1.5 0 2.7 1.2 2.7 2.7s-1.2 2.7-2.7 2.7z" class="st1"/><circle id="ggbLogoDotInner_2_" cx="119.3" cy="37.9" r="2.7" class="st2"/></g><g id="ggbLogoDot_1_"><path id="ggbLogoDotOuter_13_" d="M132.9 41.2c-2.2 0-3.9 1.7-3.9 3.9s1.7 3.9 3.9 3.9 3.9-1.7 3.9-3.9-1.7-3.9-3.9-3.9zm0 6.6c-1.5 0-2.7-1.2-2.7-2.7 0-1.5 1.2-2.7 2.7-2.7 1.5 0 2.7 1.2 2.7 2.7 0 1.5-1.2 2.7-2.7 2.7z" class="st1"/><circle id="ggbLogoDotInner_1_" cx="132.9" cy="45.1" r="2.7" class="st2"/></g><g id="ggbLogoDot"><path id="ggbLogoDotOuter_14_" d="M127.5 54.7c-2.2 0-3.9 1.7-3.9 3.9s1.7 3.9 3.9 3.9 3.9-1.7 3.9-3.9-1.7-3.9-3.9-3.9zm0 6.6c-1.5 0-2.7-1.2-2.7-2.7 0-1.5 1.2-2.7 2.7-2.7s2.7 1.2 2.7 2.7c0 1.5-1.2 2.7-2.7 2.7z" class="st1"/><circle id="ggbLogoDotInner" cx="127.5" cy="58.6" r="2.7" class="st2"/></g></g></g><path id="ggbLogoLetter2" d="m96.7 53.5 2.9 1.5c-.9 1.8-2 3.3-3.2 4.5-1.2 1.1-2.6 2-4.1 2.6s-3.3.9-5.2.9c-4.3 0-7.7-1.4-10.1-4.2s-3.6-6-3.6-9.5c0-3.3 1-6.3 3.1-8.9 2.6-3.3 6.1-5 10.4-5 4.5 0 8.1 1.7 10.8 5.1 1.9 2.4 2.9 5.4 2.9 9H76.9c.1 3.1 1 5.6 2.9 7.5 1.9 2 4.2 2.9 7 2.9 1.3 0 2.6-.2 3.9-.7s2.3-1.1 3.2-1.9c.8-.9 1.8-2.1 2.8-3.8zm0-7.1c-.5-1.8-1.1-3.2-2-4.3s-2-2-3.4-2.6c-1.4-.7-2.9-1-4.5-1-2.6 0-4.8.8-6.7 2.5-1.4 1.2-2.4 3-3.1 5.4h19.7z" class="st0"/><path id="ggbLogoLetter1" d="m66.3 32.6-2.8 2.6c-2-2-4.2-3.4-6.5-4.4-2.4-1-4.7-1.5-6.9-1.5-2.8 0-5.4.7-8 2.1-2.5 1.4-4.5 3.2-5.9 5.6-1.4 2.3-2.1 4.8-2.1 7.4 0 2.7.7 5.2 2.2 7.6 1.4 2.4 3.4 4.3 6 5.7 2.5 1.4 5.3 2.1 8.3 2.1 3.7 0 6.8-1 9.3-3.1s4-4.7 4.5-8H53v-3.4h15.3c0 5.5-1.7 9.9-4.9 13.1-3.2 3.2-7.6 4.9-13 4.9-6.6 0-11.8-2.2-15.6-6.7-3-3.5-4.4-7.4-4.4-12 0-3.4.8-6.5 2.5-9.4 1.7-2.9 4-5.2 7-6.8 3-1.6 6.3-2.5 10-2.5 3 0 5.9.5 8.5 1.6 2.7 1 5.3 2.7 7.9 5.1z" class="st0"/></svg>