<?xml version="1.0" encoding="iso-8859-1"?>
<!-- Generator: Adobe Illustrator 15.1.0, SVG Export Plug-In . SVG Version: 6.00 Build 0)  -->
<!DOCTYPE svg PUBLIC "-//W3C//DTD SVG 1.1//EN" "http://www.w3.org/Graphics/SVG/1.1/DTD/svg11.dtd">
<svg version="1.1" xmlns="http://www.w3.org/2000/svg" xmlns:xlink="http://www.w3.org/1999/xlink" x="0px" y="0px" width="512px"
	 height="512px" viewBox="0 0 512 512" style="enable-background:new 0 0 512 512;" xml:space="preserve">
<g id="mode_x5F_numeric">
	<g>
		<path d="M375.922,220.063c-18.494,17.45-41.278,26.172-68.359,26.172c-12.763,0-31.189-4.229-55.273-12.695
			c-24.091-8.459-43.036-12.561-56.836-12.305c-11.719,0.263-21.942,2.802-30.664,7.617c-8.728,4.822-18.298,12.439-28.711,22.852
			v-27.734c18.75-18.75,42.188-27.734,70.313-26.953c11.975,0.263,29.492,4.492,52.539,12.695s40.948,12.305,53.711,12.305
			c12.237,0,23.047-2.472,32.422-7.422c9.375-4.944,19.659-12.366,30.859-22.266V220.063z M375.922,288.031
			c-18.494,17.45-41.278,26.172-68.359,26.172c-12.763,0-31.189-4.229-55.273-12.695c-24.091-8.459-43.036-12.561-56.836-12.305
			c-11.719,0.263-21.942,2.802-30.664,7.617c-8.728,4.822-18.298,12.439-28.711,22.852v-27.734
			c18.75-18.75,42.188-27.734,70.313-26.953c11.975,0.263,29.492,4.492,52.539,12.695s40.948,12.305,53.711,12.305
			c12.237,0,23.047-2.472,32.422-7.422c9.375-4.943,19.659-12.365,30.859-22.266V288.031z"/>
	</g>
</g>
<g id="Ebene_1">
</g>
</svg>
