<?xml version="1.0" encoding="iso-8859-1"?>
<!-- Generator: Adobe Illustrator 15.1.0, SVG Export Plug-In . SVG Version: 6.00 Build 0)  -->
<!DOCTYPE svg PUBLIC "-//W3C//DTD SVG 1.1//EN" "http://www.w3.org/Graphics/SVG/1.1/DTD/svg11.dtd">
<svg version="1.1" xmlns="http://www.w3.org/2000/svg" xmlns:xlink="http://www.w3.org/1999/xlink" x="0px" y="0px" width="512px"
	 height="512px" viewBox="0 0 512 512" style="enable-background:new 0 0 512 512;" xml:space="preserve">
<g id="mode_x5F_ellipse3">
	<path d="M208.439,463.855c-49.091,0-92.11-18.771-121.133-52.854c-30.931-36.324-43.132-86.27-34.356-140.636
		c8.883-55.028,38.169-108.355,82.463-150.158c44.335-41.842,98.489-67.214,152.486-71.443c5.249-0.411,10.519-0.62,15.665-0.62
		c49.09,0,92.108,18.77,121.131,52.853c30.932,36.324,43.132,86.27,34.356,140.637c-8.883,55.028-38.169,108.355-82.463,150.158
		c-44.335,41.842-98.489,67.214-152.487,71.443C218.854,463.647,213.584,463.855,208.439,463.855z M303.563,61.145
		c-4.809,0-9.737,0.195-14.649,0.58C183.299,69.997,83.203,164.522,65.783,272.438c-8.159,50.543,3,96.759,31.42,130.135
		c26.513,31.136,66.017,48.283,111.236,48.283c4.808,0,9.736-0.195,14.647-0.58c105.615-8.271,205.71-102.797,223.13-210.712
		c8.159-50.544-2.999-96.761-31.42-130.137C388.285,78.292,348.781,61.145,303.563,61.145z"/>
	<g>
		<circle style="fill:#0000FF;" cx="109.773" cy="158.088" r="35"/>
		<path d="M131.892,142.602c8.537,12.193,5.563,29.064-6.631,37.604c-12.195,8.539-29.066,5.564-37.605-6.631
			s-5.564-29.064,6.631-37.604S123.351,130.406,131.892,142.602 M142.54,135.145c-12.672-18.096-37.615-22.492-55.709-9.822
			c-18.096,12.67-22.496,37.613-9.824,55.709c12.672,18.097,37.613,22.494,55.709,9.824
			C150.812,178.184,155.212,153.242,142.54,135.145L142.54,135.145z"/>
	</g>
	<g>
		<circle style="fill:#0000FF;" cx="167.777" cy="351.418" r="35"/>
		<path d="M189.896,335.932c8.537,12.193,5.563,29.064-6.631,37.604c-12.195,8.539-29.066,5.564-37.605-6.631
			s-5.564-29.064,6.631-37.604S181.354,323.736,189.896,335.932 M200.544,328.475c-12.672-18.096-37.615-22.492-55.709-9.822
			c-18.096,12.67-22.496,37.613-9.824,55.709c12.672,18.098,37.613,22.494,55.709,9.824
			C208.815,371.514,213.216,346.572,200.544,328.475L200.544,328.475z"/>
	</g>
	<g>
		<circle style="fill:#0000FF;" cx="348.057" cy="158.087" r="35"/>
		<path d="M370.175,142.601c8.537,12.193,5.563,29.064-6.631,37.604c-12.195,8.539-29.066,5.564-37.605-6.631
			s-5.564-29.064,6.631-37.604S361.634,130.406,370.175,142.601 M380.823,135.144c-12.672-18.096-37.615-22.492-55.709-9.822
			c-18.096,12.67-22.496,37.613-9.824,55.709c12.672,18.098,37.613,22.494,55.709,9.824
			C389.095,178.183,393.495,153.242,380.823,135.144L380.823,135.144z"/>
	</g>
</g>
<g id="Ebene_1">
</g>
</svg>
