<?xml version="1.0" encoding="iso-8859-1"?>
<!-- Generator: Adobe Illustrator 15.1.0, SVG Export Plug-In . SVG Version: 6.00 Build 0)  -->
<!DOCTYPE svg PUBLIC "-//W3C//DTD SVG 1.1//EN" "http://www.w3.org/Graphics/SVG/1.1/DTD/svg11.dtd">
<svg version="1.1" xmlns="http://www.w3.org/2000/svg" xmlns:xlink="http://www.w3.org/1999/xlink" x="0px" y="0px" width="512px"
	 height="512px" viewBox="0 0 512 512" style="enable-background:new 0 0 512 512;" xml:space="preserve">
<g id="mode_x5F_createlistofpoints">
	<g>
		<circle style="fill:#FF0000;" cx="140" cy="255.999" r="35"/>
		<path d="M140,228.999c14.888,0,27,12.113,27,27c0,14.889-12.112,27.002-27,27.002s-27-12.113-27-27.002
			C113,241.112,125.112,228.999,140,228.999 M140,215.999c-22.092,0-40,17.91-40,40c0,22.092,17.908,40.002,40,40.002
			s40-17.91,40-40.002C180,233.909,162.092,215.999,140,215.999L140,215.999z"/>
	</g>
	<g>
		<circle style="fill:#FF0000;" cx="256" cy="255.999" r="35"/>
		<path d="M256,228.999c14.888,0,27,12.113,27,27c0,14.889-12.112,27.002-27,27.002s-27-12.113-27-27.002
			C229,241.112,241.112,228.999,256,228.999 M256,215.999c-22.092,0-40,17.91-40,40c0,22.092,17.908,40.002,40,40.002
			s40-17.91,40-40.002C296,233.909,278.092,215.999,256,215.999L256,215.999z"/>
	</g>
	<g>
		<circle style="fill:#FF0000;" cx="372" cy="255.999" r="35"/>
		<path d="M372,228.999c14.888,0,27,12.113,27,27c0,14.889-12.112,27.002-27,27.002s-27-12.113-27-27.002
			C345,241.112,357.112,228.999,372,228.999 M372,215.999c-22.092,0-40,17.91-40,40c0,22.092,17.908,40.002,40,40.002
			s40-17.91,40-40.002C412,233.909,394.092,215.999,372,215.999L372,215.999z"/>
	</g>
	<g>
		<path style="fill:#009900;" d="M102.972,366.431c-10.842,0-19.593-1.099-26.257-3.296c-6.667-2.197-11.755-7.179-15.271-14.941
			c-2.345-5.421-3.811-12.051-4.395-19.885c-0.587-7.838-0.845-15.018-0.769-21.533c0.072-6.517-0.33-12.927-1.208-19.227
			c-0.879-6.297-3.406-11.68-7.581-16.15c-4.175-4.467-10.293-7.504-18.347-9.118v-16.479c8.202-1.902,14.392-5.126,18.567-9.668
			c4.175-4.539,6.664-9.96,7.471-16.26c0.803-6.296,1.133-12.707,0.989-19.226c-0.147-6.516,0.034-13.623,0.549-21.313
			c0.512-7.69,2.087-14.245,4.724-19.666c3.808-7.763,9.043-12.744,15.71-14.941c6.664-2.197,15.271-3.296,25.818-3.296v16.699
			c-6.887,0-12.342,1.174-16.37,3.516c-4.031,2.345-6.667,5.421-7.91,9.229c-1.246,3.811-2.053,8.096-2.417,12.854
			c-0.367,4.762-0.295,9.596,0.22,14.502c0.512,4.91,0.474,9.634-0.11,14.172c-1.026,10.986-2.894,19.116-5.603,24.39
			c-2.712,5.273-7.217,11.062-13.513,17.358c6.296,6.152,10.801,11.865,13.513,17.139c2.709,5.273,4.577,13.331,5.603,24.17
			c0.583,4.542,0.622,9.266,0.11,14.172c-0.515,4.906-0.587,9.778-0.22,14.612c0.364,4.834,1.171,9.118,2.417,12.854
			c1.243,3.734,3.879,6.773,7.91,9.118c4.027,2.341,9.482,3.516,16.37,3.516V366.431z"/>
	</g>
	<g>
		<path style="fill:#009900;" d="M408.744,349.731c6.887,0,12.342-1.175,16.369-3.516c4.031-2.345,6.668-5.384,7.91-9.118
			c1.246-3.736,2.054-8.021,2.418-12.854c0.367-4.834,0.295-9.706-0.221-14.612c-0.512-4.906-0.473-9.63,0.11-14.172
			c1.026-10.839,2.894-18.896,5.603-24.17c2.713-5.273,7.217-10.986,13.514-17.139c-6.297-6.296-10.801-12.085-13.514-17.358
			c-2.709-5.273-4.576-13.403-5.603-24.39c-0.583-4.539-0.622-9.263-0.11-14.172c0.516-4.906,0.588-9.74,0.221-14.502
			c-0.364-4.758-1.172-9.043-2.418-12.854c-1.242-3.808-3.879-6.884-7.91-9.229c-4.027-2.341-9.482-3.516-16.369-3.516v-16.699
			c10.547,0,19.154,1.099,25.818,3.296c6.667,2.197,11.902,7.179,15.71,14.941c2.637,5.421,4.212,11.975,4.724,19.666
			c0.516,7.69,0.697,14.797,0.55,21.313c-0.145,6.52,0.186,12.93,0.988,19.226c0.807,6.3,3.296,11.721,7.471,16.26
			c4.175,4.542,10.365,7.766,18.567,9.668v16.479c-8.055,1.614-14.173,4.651-18.348,9.118c-4.175,4.471-6.701,9.854-7.58,16.15
			c-0.879,6.3-1.281,12.71-1.209,19.227c0.076,6.516-0.182,13.695-0.769,21.533c-0.584,7.834-2.05,14.464-4.395,19.885
			c-3.516,7.763-8.604,12.744-15.271,14.941c-6.664,2.197-15.416,3.296-26.258,3.296V349.731z"/>
	</g>
</g>
<g id="Ebene_1">
</g>
</svg>
