<?xml version="1.0" encoding="iso-8859-1"?>
<!-- Generator: Adobe Illustrator 15.1.0, SVG Export Plug-In . SVG Version: 6.00 Build 0)  -->
<!DOCTYPE svg PUBLIC "-//W3C//DTD SVG 1.1//EN" "http://www.w3.org/Graphics/SVG/1.1/DTD/svg11.dtd">
<svg version="1.1" xmlns="http://www.w3.org/2000/svg" xmlns:xlink="http://www.w3.org/1999/xlink" x="0px" y="0px" width="512px"
	 height="512px" viewBox="0 0 512 512" style="enable-background:new 0 0 512 512;" xml:space="preserve">
<g id="mode_x5F_slider">
	<path style="display:none;opacity:0.4;fill:#1A171B;" d="M486,340.563c0,8.284-7.611,15-17,15H43c-9.389,0-17-6.716-17-15l0,0
		c0-8.284,7.611-15,17-15h426C478.389,325.563,486,332.278,486,340.563L486,340.563z"/>
	<path style="display:none;opacity:0.4;fill:#1A171B;" d="M486,350.563c0,13.807-11.193,25-25,25H51c-13.807,0-25-11.193-25-25l0,0
		c0-13.807,11.193-25,25-25h410C474.807,325.563,486,336.756,486,350.563L486,350.563z"/>
	<line style="fill:none;stroke:#000000;stroke-width:13;stroke-miterlimit:10;" x1="56" y1="350.563" x2="456" y2="350.563"/>
	<circle style="opacity:0.5;fill:#1A171B;" cx="256" cy="350.563" r="40"/>
	<circle style="fill:#1A171B;" cx="256" cy="350.563" r="27"/>
	<g>
		<path d="M160.624,234.123h-15.273c-1.219-6.417-1.883-10.568-1.992-12.451c-2.879,3.432-5.204,6.005-6.973,7.72
			c-1.771,1.717-4.316,3.294-7.637,4.731s-7.084,2.158-11.289,2.158c-8.08,0-15.522-2.184-22.329-6.558
			c-6.807-4.371-10.21-10.376-10.21-18.013c0-4.98,0.968-9.352,2.905-13.115c1.935-3.761,4.425-6.778,7.471-9.048
			c3.043-2.267,6.667-4.122,10.874-5.562c4.205-1.437,8.301-2.407,12.285-2.905s8.189-0.747,12.617-0.747
			c1.328,0,3.263,0.057,5.811,0.166c2.545,0.111,4.482,0.166,5.811,0.166c1.437-6.529,0.607-11.896-2.49-16.104
			c-3.1-4.205-8.358-6.309-15.771-6.309c-5.204,0-9.686,1.107-13.447,3.32c-3.764,2.215-5.645,5.702-5.645,10.459H89.569
			c0-16.71,11.398-25.068,34.199-25.068c18.039,0,28.941,4.814,32.705,14.443c1.328,3.1,1.992,12.064,1.992,26.895v14.775
			C158.466,219.571,159.185,229.918,160.624,234.123z M142.528,192.287c-5.645-0.332-8.578-0.498-8.799-0.498
			c-3.211,0-6.475,0.249-9.795,0.747s-6.864,1.328-10.625,2.49c-3.764,1.162-6.807,3.017-9.131,5.562
			c-2.324,2.547-3.486,5.59-3.486,9.131c0,4.648,1.66,8.358,4.98,11.123c3.32,2.768,7.305,4.15,11.953,4.15
			c9.738,0,16.324-2.848,19.756-8.55C140.811,210.743,142.528,202.691,142.528,192.287z"/>
		<path d="M306.386,172.863H204.452v-10.459h101.934V172.863z M306.386,203.908H204.452v-10.625h101.934V203.908z"/>
		<path d="M424.921,234.123h-74.043v-15.771c14.387-16.046,25.815-28.804,34.282-38.267s14.387-16.768,17.764-21.914
			c3.375-5.146,5.063-9.655,5.063-13.53c0-7.414-1.439-12.866-4.316-16.353c-2.879-3.486-7.693-5.229-14.443-5.229
			c-5.977,0-10.459,1.717-13.447,5.146c-2.988,3.432-4.926,8.91-5.811,16.436h-17.266c1.77-23.795,13.945-35.693,36.523-35.693
			c11.178,0,19.922,3.403,26.23,10.21s9.463,14.526,9.463,23.159c0,2.656-0.223,5.092-0.664,7.305
			c-0.443,2.215-1.162,4.565-2.158,7.056s-2.353,5.063-4.067,7.72c-1.717,2.656-3.875,5.673-6.475,9.048
			c-2.602,3.377-5.673,7.056-9.214,11.04c-3.543,3.984-7.665,8.633-12.368,13.945c-4.705,5.313-10.044,11.18-16.021,17.598
			c-1.883,2.104-3.32,3.709-4.316,4.814h55.283V234.123z"/>
	</g>
</g>
<g id="Ebene_1">
</g>
</svg>
