<?xml version="1.0" encoding="iso-8859-1"?>
<!-- Generator: Adobe Illustrator 15.1.0, SVG Export Plug-In . SVG Version: 6.00 Build 0)  -->
<!DOCTYPE svg PUBLIC "-//W3C//DTD SVG 1.1//EN" "http://www.w3.org/Graphics/SVG/1.1/DTD/svg11.dtd">
<svg version="1.1" xmlns="http://www.w3.org/2000/svg" xmlns:xlink="http://www.w3.org/1999/xlink" x="0px" y="0px" width="512px"
	 height="512px" viewBox="0 0 512 512" style="enable-background:new 0 0 512 512;" xml:space="preserve">
<g id="mode_x5F_conic5">
	
		<path id="path3787" style="fill:none;stroke:#000000;stroke-width:13;" d="
		M472.561,249.738c-10.095,99.849-108.028,178.373-218.74,175.386c-110.713-2.986-192.279-86.352-182.185-186.201
		S179.664,60.55,290.377,63.537C401.089,66.523,482.655,149.888,472.561,249.738z"/>
	<g>
		<circle style="fill:#0000FF;" cx="433.54" cy="128.046" r="35"/>
		<path d="M455.658,112.56c8.537,12.193,5.563,29.064-6.631,37.604c-12.195,8.539-29.066,5.564-37.605-6.631
			s-5.564-29.064,6.631-37.604S447.117,100.364,455.658,112.56 M466.307,105.103c-12.672-18.096-37.615-22.492-55.709-9.822
			c-18.096,12.67-22.496,37.613-9.824,55.709c12.672,18.098,37.613,22.495,55.709,9.824
			C474.578,148.142,478.979,123.2,466.307,105.103L466.307,105.103z"/>
	</g>
	<g>
		<circle style="fill:#0000FF;" cx="176.06" cy="88.676" r="35"/>
		<path d="M198.178,73.189c8.537,12.193,5.563,29.064-6.631,37.604c-12.195,8.539-29.066,5.564-37.605-6.631
			s-5.564-29.064,6.631-37.604S189.637,60.994,198.178,73.189 M208.826,65.732c-12.672-18.096-37.615-22.492-55.709-9.822
			c-18.096,12.67-22.496,37.613-9.824,55.709c12.672,18.098,37.613,22.495,55.709,9.824
			C217.098,108.771,221.498,83.83,208.826,65.732L208.826,65.732z"/>
	</g>
	<g>
		<circle style="fill:#0000FF;" cx="70.791" cy="282.377" r="35"/>
		<path d="M92.909,266.891c8.537,12.193,5.563,29.064-6.631,37.604c-12.195,8.539-29.066,5.564-37.605-6.631
			s-5.564-29.064,6.631-37.604S84.368,254.695,92.909,266.891 M103.558,259.434c-12.672-18.096-37.615-22.492-55.709-9.822
			c-18.096,12.67-22.496,37.613-9.824,55.709c12.672,18.098,37.613,22.494,55.709,9.824
			C111.829,302.473,116.229,277.531,103.558,259.434L103.558,259.434z"/>
	</g>
	<g>
		<circle style="fill:#0000FF;" cx="227.241" cy="423.322" r="35"/>
		<path d="M249.359,407.836c8.538,12.193,5.563,29.064-6.631,37.604c-12.195,8.539-29.066,5.564-37.605-6.631
			s-5.564-29.064,6.631-37.604S240.818,395.641,249.359,407.836 M260.008,400.379c-12.672-18.096-37.616-22.492-55.709-9.822
			c-18.096,12.67-22.496,37.613-9.824,55.709c12.672,18.098,37.613,22.494,55.709,9.824
			C268.279,443.418,272.68,418.477,260.008,400.379L260.008,400.379z"/>
	</g>
	<g>
		<circle style="fill:#0000FF;" cx="433.54" cy="346.156" r="35"/>
		<path d="M455.658,330.67c8.537,12.193,5.563,29.064-6.631,37.604c-12.195,8.539-29.066,5.564-37.605-6.631
			s-5.564-29.064,6.631-37.604S447.117,318.475,455.658,330.67 M466.307,323.213c-12.672-18.096-37.615-22.492-55.709-9.822
			c-18.096,12.67-22.496,37.613-9.824,55.709c12.672,18.098,37.613,22.494,55.709,9.824
			C474.578,366.252,478.979,341.311,466.307,323.213L466.307,323.213z"/>
	</g>
</g>
<g id="Ebene_1">
</g>
</svg>
