<?xml version="1.0" encoding="iso-8859-1"?>
<!-- Generator: Adobe Illustrator 15.1.0, SVG Export Plug-In . SVG Version: 6.00 Build 0)  -->
<!DOCTYPE svg PUBLIC "-//W3C//DTD SVG 1.1//EN" "http://www.w3.org/Graphics/SVG/1.1/DTD/svg11.dtd">
<svg version="1.1" xmlns="http://www.w3.org/2000/svg" xmlns:xlink="http://www.w3.org/1999/xlink" x="0px" y="0px" width="512px"
	 height="512px" viewBox="0 0 512 512" style="enable-background:new 0 0 512 512;" xml:space="preserve">
<g id="mode_x5F_expand">
	<g>
		<path style="fill:#FF0000;" d="M75.678,386.225H56.635C33.976,345.209,22.65,301.85,22.65,256.146
			c0-45.896,11.325-89.355,33.984-130.371h19.043c-16.406,46.097-24.609,89.552-24.609,130.371
			C51.068,295.99,59.271,339.35,75.678,386.225z"/>
		<path d="M183.49,386.225h-19.043c-22.659-41.016-33.984-84.375-33.984-130.078c0-45.896,11.325-89.355,33.984-130.371h19.043
			c-16.406,46.097-24.609,89.552-24.609,130.371C158.881,295.99,167.084,339.35,183.49,386.225z"/>
		<path d="M381.537,256.146c0,45.511-11.233,88.87-33.691,130.078H328.51c16.406-46.875,24.609-90.234,24.609-130.078
			c0-40.819-8.203-84.274-24.609-130.371h19.336C370.304,166.988,381.537,210.443,381.537,256.146z"/>
		<path style="fill:#FF0000;" d="M489.35,256.146c0,45.511-11.233,88.87-33.691,130.078h-19.336
			c16.406-46.875,24.609-90.234,24.609-130.078c0-40.819-8.203-84.274-24.609-130.371h19.336
			C478.116,166.988,489.35,210.443,489.35,256.146z"/>
	</g>
</g>
<g id="Ebene_1">
</g>
</svg>
