<?xml version="1.0" encoding="iso-8859-1"?>
<!-- Generator: Adobe Illustrator 15.1.0, SVG Export Plug-In . SVG Version: 6.00 Build 0)  -->
<!DOCTYPE svg PUBLIC "-//W3C//DTD SVG 1.1//EN" "http://www.w3.org/Graphics/SVG/1.1/DTD/svg11.dtd">
<svg version="1.1" xmlns="http://www.w3.org/2000/svg" xmlns:xlink="http://www.w3.org/1999/xlink" x="0px" y="0px" width="512px"
	 height="512px" viewBox="0 0 512 512" style="enable-background:new 0 0 512 512;" xml:space="preserve">
<g id="mode_x5F_area">
	<g>
		<path d="M96.566,128.272c0,8.335-2.554,15.261-7.656,20.781c-5.105,5.522-13.179,8.281-24.219,8.281
			c-23.647,0-35.469-14.009-35.469-42.031c0-14.165,2.708-24.712,8.125-31.641c5.415-6.927,14.009-10.391,25.781-10.391
			c11.665,0,20.259,2.476,25.781,7.422c5.52,4.948,7.813,11.538,6.875,19.766H81.566c0.728-3.958,0.129-7.212-1.797-9.766
			c-1.929-2.552-4.402-4.297-7.422-5.234c-3.022-0.938-6.46-1.406-10.313-1.406c-5.625,0-10.105,2.5-13.438,7.5
			c-3.335,5-5,12.917-5,23.75c0,11.042,1.77,19.011,5.313,23.906c3.54,4.897,8.853,7.344,15.938,7.344
			c6.145,0,10.598-1.899,13.359-5.703c2.759-3.802,4.141-7.993,4.141-12.578H96.566z"/>
		<path d="M236.723,155.304h-14.375v-51.719c0-6.353-1.512-11.302-4.531-14.844c-3.022-3.54-7.554-5.313-13.594-5.313
			c-5.522,0-10.313,2.188-14.375,6.563s-6.094,8.906-6.094,13.594v51.719h-14.375v-51.719c0-5.415-1.641-10.13-4.922-14.141
			c-3.281-4.009-7.578-6.016-12.891-6.016c-5.835,0-10.859,2.214-15.078,6.641c-4.219,4.429-6.328,8.933-6.328,13.516v51.719
			h-14.375v-80h14.375v11.094c6.353-8.75,14.27-13.125,23.75-13.125c7.395,0,13.02,1.094,16.875,3.281
			c3.853,2.188,7.29,5.835,10.313,10.938c6.77-9.478,15.415-14.219,25.938-14.219c19.79,0,29.688,10.104,29.688,30.313V155.304z"/>
	</g>
	<g>
		<path d="M320.148,110.267h-52.266V99.134c10.155-11.327,18.223-20.332,24.199-27.012s10.155-11.836,12.539-15.469
			c2.383-3.633,3.574-6.815,3.574-9.551c0-5.233-1.016-9.082-3.047-11.543c-2.032-2.461-5.431-3.691-10.195-3.691
			c-4.219,0-7.383,1.212-9.492,3.633c-2.109,2.422-3.477,6.29-4.102,11.602h-12.188c1.249-16.796,9.844-25.195,25.781-25.195
			c7.891,0,14.063,2.402,18.516,7.207s6.68,10.254,6.68,16.348c0,1.875-0.157,3.594-0.469,5.156c-0.313,1.563-0.82,3.223-1.523,4.98
			s-1.66,3.574-2.871,5.449c-1.212,1.875-2.735,4.004-4.57,6.387c-1.836,2.384-4.004,4.98-6.504,7.793
			c-2.501,2.813-5.41,6.094-8.73,9.844c-3.321,3.75-7.09,7.892-11.309,12.422c-1.329,1.485-2.344,2.618-3.047,3.398h39.023V110.267z
			"/>
	</g>
	<polygon style="opacity:0.4;fill:#1A171B;" points="179.21,482 482,418.283 482,183.333 335.981,317.771 179.21,279.434 	"/>
	<polygon style="fill:none;stroke:#1A171B;stroke-width:13;stroke-miterlimit:10;" points="179.21,482 482,418.283 482,183.333 
		335.981,317.771 179.21,279.434 	"/>
</g>
<g id="Ebene_1">
</g>
</svg>
