<?xml version="1.0" encoding="iso-8859-1"?>
<!-- Generator: Adobe Illustrator 15.1.0, SVG Export Plug-In . SVG Version: 6.00 Build 0)  -->
<!DOCTYPE svg PUBLIC "-//W3C//DTD SVG 1.1//EN" "http://www.w3.org/Graphics/SVG/1.1/DTD/svg11.dtd">
<svg version="1.1" xmlns="http://www.w3.org/2000/svg" xmlns:xlink="http://www.w3.org/1999/xlink" x="0px" y="0px" width="512px"
	 height="512px" viewBox="0 0 512 512" style="enable-background:new 0 0 512 512;" xml:space="preserve">
<g id="mode_x5F_integral">
	<g>
		<path d="M338.031,88.422c0,5.994-1.825,11.005-5.469,15.039c-3.65,4.041-8.466,6.055-14.453,6.055
			c-4.432,0-9.766-2.539-16.016-7.617s-11.719-7.617-16.406-7.617s-7.422,3.516-8.203,10.547l-1.172,57.422
			c-3.65,110.419-6.122,171.229-7.422,182.422c-2.869,32.813-9.314,57.678-19.336,74.609
			c-10.028,16.925-25.849,25.391-47.461,25.391c-18.75,0-28.125-6.775-28.125-20.313c0-6.513,1.886-11.854,5.664-16.016
			c3.772-4.169,8.789-6.122,15.039-5.859c3.125,0,8.526,2.539,16.211,7.617c7.678,5.078,12.952,7.617,15.82,7.617
			c4.425,0,7.031-3.516,7.813-10.547l3.125-60.156c4.688-114.319,7.55-176.819,8.594-187.5c1.3-11.719,2.667-21.612,4.102-29.688
			c1.428-8.069,3.644-16.339,6.641-24.805c2.99-8.459,6.701-15.234,11.133-20.313c4.425-5.078,10.217-9.241,17.383-12.5
			c7.159-3.253,15.558-4.883,25.195-4.883c8.594,0,15.295,1.892,20.117,5.664C335.62,76.771,338.031,81.916,338.031,88.422z"/>
	</g>
</g>
<g id="Ebene_1">
</g>
</svg>
