<?xml version="1.0" encoding="iso-8859-1"?>
<!-- Generator: Adobe Illustrator 15.1.0, SVG Export Plug-In . SVG Version: 6.00 Build 0)  -->
<!DOCTYPE svg PUBLIC "-//W3C//DTD SVG 1.1//EN" "http://www.w3.org/Graphics/SVG/1.1/DTD/svg11.dtd">
<svg version="1.1" xmlns="http://www.w3.org/2000/svg" xmlns:xlink="http://www.w3.org/1999/xlink" x="0px" y="0px" width="512px"
	 height="512px" viewBox="0 0 512 512" style="enable-background:new 0 0 512 512;" xml:space="preserve">
<g id="mode_x5F_hyperbola3">
	<g>
		<g>
			<circle style="fill:#0000FF;" cx="111.249" cy="375.011" r="35"/>
			<path d="M138.09,372.077c1.618,14.797-9.107,28.156-23.905,29.775c-14.799,1.618-28.158-9.106-29.777-23.905
				c-1.618-14.8,9.105-28.157,23.905-29.776C123.112,346.553,136.47,357.276,138.09,372.077 M151.013,370.663
				c-2.403-21.961-22.154-37.814-44.112-35.413c-21.959,2.401-37.818,22.15-35.416,44.111s22.152,37.815,44.111,35.414
				C137.557,412.373,153.414,392.625,151.013,370.663L151.013,370.663z"/>
		</g>
		<path style="fill:none;stroke:#FF0000;stroke-width:13;" d="M-237.937,271.328c0,0,254.176-40.166,387.865,33.205
			c133.69,73.371,236.314,309.353,236.314,309.353"/>
	</g>
	<g>
		<circle style="fill:#0000FF;" cx="235.277" cy="149.02" r="35"/>
		<path d="M247.215,173.237c-13.354,6.582-29.574,1.073-36.157-12.28c-6.582-13.353-1.074-29.573,12.279-36.156
			c13.354-6.583,29.575-1.074,36.158,12.279C266.075,150.434,260.566,166.655,247.215,173.237 M252.963,184.897
			c19.816-9.769,27.958-33.751,18.191-53.566c-9.768-19.813-33.749-27.958-53.565-18.19c-19.815,9.767-27.957,33.751-18.189,53.564
			C209.166,186.519,233.147,194.665,252.963,184.897L252.963,184.897z"/>
	</g>
	<path style="fill:none;stroke:#FF0000;stroke-width:13;" d="M-39.716-89.854c0,0,102.624,235.981,236.313,309.352
		c133.69,73.37,387.865,33.204,387.865,33.204"/>
	<g>
		<circle style="fill:#0000FF;" cx="285.653" cy="437.805" r="35"/>
		<path d="M312.494,434.87c1.617,14.796-9.107,28.156-23.904,29.775c-14.8,1.618-28.158-9.106-29.777-23.906
			c-1.618-14.799,9.105-28.156,23.905-29.775C297.518,409.346,310.874,420.069,312.494,434.87 M325.417,433.456
			c-2.402-21.961-22.154-37.815-44.111-35.414c-21.96,2.402-37.817,22.151-35.416,44.111c2.401,21.962,22.151,37.816,44.112,35.415
			C311.962,475.165,327.818,455.418,325.417,433.456L325.417,433.456z"/>
	</g>
</g>
<g id="Ebene_1">
</g>
</svg>
