<?xml version="1.0" encoding="iso-8859-1"?>
<!-- Generator: Adobe Illustrator 15.1.0, SVG Export Plug-In . SVG Version: 6.00 Build 0)  -->
<!DOCTYPE svg PUBLIC "-//W3C//DTD SVG 1.1//EN" "http://www.w3.org/Graphics/SVG/1.1/DTD/svg11.dtd">
<svg version="1.1" xmlns="http://www.w3.org/2000/svg" xmlns:xlink="http://www.w3.org/1999/xlink" x="0px" y="0px" width="512px"
	 height="512px" viewBox="0 0 512 512" style="enable-background:new 0 0 512 512;" xml:space="preserve">
<g id="mode_x5F_circlepointradius">
	
		<path id="path2984_3_" style="fill:none;stroke:#000000;stroke-width:13;" d="
		M440.11,256c0,101.502-82.429,183.785-184.11,183.785c-101.681,0-184.11-82.283-184.11-183.785S154.319,72.215,256,72.215
		C357.682,72.215,440.11,154.498,440.11,256z"/>
	<line style="fill:none;stroke:#000000;stroke-width:13;" x1="256" y1="256" x2="406.328" y2="149.448"/>
	<g>
		<circle style="fill:#0000FF;" cx="256" cy="255.999" r="35"/>
		<path d="M278.118,240.513c8.537,12.193,5.563,29.064-6.631,37.604c-12.195,8.539-29.066,5.564-37.605-6.631
			s-5.564-29.064,6.631-37.604S269.577,228.317,278.118,240.513 M288.767,233.056c-12.672-18.096-37.615-22.492-55.709-9.822
			c-18.096,12.67-22.496,37.613-9.824,55.709c12.672,18.098,37.613,22.494,55.709,9.824
			C297.038,276.095,301.438,251.153,288.767,233.056L288.767,233.056z"/>
	</g>
</g>
<g id="Ebene_1">
</g>
</svg>
