<?xml version="1.0" encoding="iso-8859-1"?>
<!-- Generator: Adobe Illustrator 15.1.0, SVG Export Plug-In . SVG Version: 6.00 Build 0)  -->
<!DOCTYPE svg PUBLIC "-//W3C//DTD SVG 1.1//EN" "http://www.w3.org/Graphics/SVG/1.1/DTD/svg11.dtd">
<svg version="1.1" xmlns="http://www.w3.org/2000/svg" xmlns:xlink="http://www.w3.org/1999/xlink" x="0px" y="0px" width="512px"
	 height="512px" viewBox="0 0 512 512" style="enable-background:new 0 0 512 512;" xml:space="preserve">
<g id="mode_x5F_showcheckbox">
	<path style="fill:#FFFFFF;stroke:#999999;stroke-width:13;" d="M260.915,337.496c0,15.742-12.777,28.504-28.537,28.504H69.452
		c-15.76,0-28.537-12.762-28.537-28.504V174.504c0-15.742,12.777-28.504,28.537-28.504h162.926c15.76,0,28.537,12.762,28.537,28.504
		V337.496z"/>
	<polyline style="fill:#FFFFFF;stroke:#666666;stroke-width:26;stroke-linecap:round;stroke-linejoin:round;" points="
		81.724,285.218 128.724,325.5 216.724,192.5 	"/>
	<circle style="fill:#6666FF;" cx="397" cy="157.435" r="85"/>
	<g>
		<path style="fill:#FFFFFF;" d="M397,436.694c-43.285,0-78.5-35.215-78.5-78.5s35.215-78.5,78.5-78.5s78.5,35.215,78.5,78.5
			S440.285,436.694,397,436.694z"/>
		<path style="fill:#999999;" d="M397,286.194c39.701,0,72,32.299,72,72s-32.299,72-72,72s-72-32.299-72-72
			S357.299,286.194,397,286.194 M397,273.194c-46.944,0-85,38.056-85,85s38.056,85,85,85s85-38.056,85-85
			S443.944,273.194,397,273.194L397,273.194z"/>
	</g>
</g>
<g id="Ebene_1">
</g>
</svg>
