<?xml version="1.0" encoding="iso-8859-1"?>
<!-- Generator: Adobe Illustrator 15.1.0, SVG Export Plug-In . SVG Version: 6.00 Build 0)  -->
<!DOCTYPE svg PUBLIC "-//W3C//DTD SVG 1.1//EN" "http://www.w3.org/Graphics/SVG/1.1/DTD/svg11.dtd">
<svg version="1.1" xmlns="http://www.w3.org/2000/svg" xmlns:xlink="http://www.w3.org/1999/xlink" x="0px" y="0px" width="512px"
	 height="512px" viewBox="0 0 512 512" style="enable-background:new 0 0 512 512;" xml:space="preserve">
<g id="mode_x5F_join">
	<line style="fill:none;stroke:#000000;stroke-width:13;" x1="-10.225" y1="442.412" x2="522.225" y2="69.588"/>
	<g>
		<circle style="fill:#0000FF;" cx="362" cy="181.964" r="35"/>
		<path d="M362,154.964c14.887,0,27,12.113,27,27c0,14.888-12.113,27.001-27,27.001c-14.889,0-27-12.113-27-27.001
			C335,167.077,347.111,154.964,362,154.964 M362,141.964c-22.092,0-40,17.91-40,40c0,22.091,17.908,40.001,40,40.001
			s40-17.91,40-40.001C402,159.874,384.092,141.964,362,141.964L362,141.964z"/>
	</g>
	<g>
		<circle style="fill:#0000FF;" cx="150" cy="330.301" r="35"/>
		<path d="M150,303.301c14.888,0,27,12.113,27,27c0,14.888-12.112,27.001-27,27.001s-27-12.113-27-27.001
			C123,315.414,135.112,303.301,150,303.301 M150,290.301c-22.091,0-40,17.91-40,40c0,22.091,17.909,40.001,40,40.001
			c22.092,0,40-17.91,40-40.001C190,308.211,172.092,290.301,150,290.301L150,290.301z"/>
	</g>
</g>
<g id="Ebene_1">
</g>
</svg>
