<?xml version="1.0" encoding="iso-8859-1"?>
<!-- Generator: Adobe Illustrator 15.1.0, SVG Export Plug-In . SVG Version: 6.00 Build 0)  -->
<!DOCTYPE svg PUBLIC "-//W3C//DTD SVG 1.1//EN" "http://www.w3.org/Graphics/SVG/1.1/DTD/svg11.dtd">
<svg version="1.1" xmlns="http://www.w3.org/2000/svg" xmlns:xlink="http://www.w3.org/1999/xlink" x="0px" y="0px" width="512px"
	 height="512px" viewBox="0 0 512 512" style="enable-background:new 0 0 512 512;" xml:space="preserve">
<g id="mode_x5F_derivative">
	<g>
		<path d="M296.898,143.115c-5.731-3.125-12.244-4.688-19.531-4.688c-11.463-0.519-19.727,1.892-24.805,7.227
			c-5.078,5.341-7.617,14.521-7.617,27.539v29.297h48.047v26.172h-48.047v173.828h-35.938V228.662h-40.234V202.49h40.234v-30.078
			c0-24.219,5.078-40.82,15.234-49.805s25.647-13.342,46.484-13.086c9.375,0,18.097,1.435,26.172,4.297V143.115z"/>
		<path d="M383.227,113.818l-23.828,100h-48.047l44.141-100H383.227z"/>
	</g>
</g>
<g id="Ebene_1">
</g>
</svg>
