<?xml version="1.0" encoding="iso-8859-1"?>
<!-- Generator: Adobe Illustrator 15.1.0, SVG Export Plug-In . SVG Version: 6.00 Build 0)  -->
<!DOCTYPE svg PUBLIC "-//W3C//DTD SVG 1.1//EN" "http://www.w3.org/Graphics/SVG/1.1/DTD/svg11.dtd">
<svg version="1.1" xmlns="http://www.w3.org/2000/svg" xmlns:xlink="http://www.w3.org/1999/xlink" x="0px" y="0px" width="512px"
	 height="512px" viewBox="0 0 512 512" style="enable-background:new 0 0 512 512;" xml:space="preserve">
<g id="mode_x5F_polardiameter">
	
		<path id="path2986_1_" style="fill:none;stroke:#000000;stroke-width:13;" d="
		M446.059,247.587c0,63.304-51.318,114.621-114.621,114.621c-63.305,0-114.622-51.317-114.622-114.621
		c0-63.303,51.317-114.621,114.622-114.621C394.74,132.966,446.059,184.284,446.059,247.587z"/>
	<g>
		<circle style="fill:#0000FF;" cx="95.372" cy="419.807" r="35"/>
		<path d="M117.489,404.32c8.538,12.193,5.563,29.064-6.631,37.604c-12.195,8.539-29.066,5.564-37.604-6.631
			c-8.54-12.195-5.564-29.064,6.631-37.604C92.079,389.15,108.949,392.124,117.489,404.32 M128.138,396.863
			c-12.671-18.096-37.614-22.493-55.709-9.822c-18.096,12.67-22.495,37.613-9.824,55.709c12.672,18.097,37.614,22.493,55.71,9.823
			C136.41,439.902,140.81,414.96,128.138,396.863L128.138,396.863z"/>
	</g>
	<line style="fill:none;stroke:#FF0000;stroke-width:13;" x1="450.031" y1="520.93" x2="67.97" y2="-4.931"/>
</g>
<g id="Ebene_1">
</g>
</svg>
