<?xml version="1.0" encoding="iso-8859-1"?>
<!-- Generator: Adobe Illustrator 15.1.0, SVG Export Plug-In . SVG Version: 6.00 Build 0)  -->
<!DOCTYPE svg PUBLIC "-//W3C//DTD SVG 1.1//EN" "http://www.w3.org/Graphics/SVG/1.1/DTD/svg11.dtd">
<svg version="1.1" xmlns="http://www.w3.org/2000/svg" xmlns:xlink="http://www.w3.org/1999/xlink" x="0px" y="0px" width="512px"
	 height="512px" viewBox="0 0 512 512" style="enable-background:new 0 0 512 512;" xml:space="preserve">
<g id="mode_x5F_orthogonal">
	<line style="fill:none;stroke:#1A0000;stroke-width:13;" x1="-14.729" y1="443.621" x2="564.826" y2="288.33"/>
	<line style="fill:none;stroke:#FF0000;stroke-width:13;" x1="344.5" y1="537.083" x2="189.208" y2="-42.473"/>
	<g>
		<circle style="fill:#0000FF;" cx="240.049" cy="150.039" r="35"/>
		<path d="M240.049,123.039c14.887,0,27,12.112,27,27s-12.113,27-27,27c-14.888,0-27.001-12.112-27.001-27
			S225.162,123.039,240.049,123.039 M240.049,110.039c-22.092,0-40.001,17.909-40.001,40s17.909,40,40.001,40
			c22.091,0,40-17.909,40-40S262.141,110.039,240.049,110.039L240.049,110.039z"/>
	</g>
</g>
<g id="Ebene_1">
</g>
</svg>
