<?xml version="1.0" encoding="iso-8859-1"?>
<!-- Generator: Adobe Illustrator 15.1.0, SVG Export Plug-In . SVG Version: 6.00 Build 0)  -->
<!DOCTYPE svg PUBLIC "-//W3C//DTD SVG 1.1//EN" "http://www.w3.org/Graphics/SVG/1.1/DTD/svg11.dtd">
<svg version="1.1" xmlns="http://www.w3.org/2000/svg" xmlns:xlink="http://www.w3.org/1999/xlink" x="0px" y="0px" width="512px"
	 height="512px" viewBox="0 0 512 512" style="enable-background:new 0 0 512 512;" xml:space="preserve">
<g id="mode_x5F_circlearc3">
	<path style="fill:none;stroke:#000000;stroke-width:13;" d="M370.095,437.158c60.62-129.999,4.377-284.522-125.619-345.141"/>
	<g>
		<circle style="fill:#0000FF;" cx="134.716" cy="327.396" r="35"/>
		<path d="M161.307,322.709c2.585,14.658-7.241,28.692-21.901,31.278c-14.661,2.584-28.694-7.242-31.28-21.903
			c-2.585-14.662,7.241-28.693,21.902-31.277C144.688,298.221,158.72,308.045,161.307,322.709 M174.109,320.449
			c-3.837-21.754-24.586-36.281-46.339-32.445c-21.754,3.836-36.284,24.582-32.447,46.338c3.836,21.759,24.583,36.282,46.338,32.448
			C163.417,362.952,177.945,342.208,174.109,320.449L174.109,320.449z"/>
	</g>
	<g>
		<circle style="fill:#0000FF;" cx="244.304" cy="92.813" r="35"/>
		<path d="M270.895,88.125c2.585,14.659-7.241,28.692-21.901,31.278c-14.661,2.585-28.694-7.241-31.279-21.902
			c-2.585-14.661,7.24-28.693,21.901-31.278S268.309,73.463,270.895,88.125 M283.697,85.867
			c-3.837-21.755-24.585-36.282-46.339-32.446c-21.755,3.835-36.284,24.582-32.447,46.338c3.837,21.757,24.583,36.283,46.338,32.447
			C273.005,128.37,287.533,107.625,283.697,85.867L283.697,85.867z"/>
	</g>
	<g>
		<circle style="fill:#0000FF;" cx="378.284" cy="416.185" r="35"/>
		<path d="M404.875,411.498c2.584,14.658-7.242,28.691-21.901,31.277c-14.661,2.586-28.695-7.24-31.28-21.902
			s7.24-28.693,21.902-31.277C388.257,387.01,402.288,396.836,404.875,411.498 M417.678,409.238
			c-3.838-21.754-24.586-36.281-46.339-32.445c-21.755,3.836-36.284,24.582-32.447,46.338c3.836,21.758,24.583,36.283,46.338,32.447
			S421.514,430.996,417.678,409.238L417.678,409.238z"/>
	</g>
</g>
<g id="Ebene_1">
</g>
</svg>
