<?xml version="1.0" encoding="iso-8859-1"?>
<!-- Generator: Adobe Illustrator 15.1.0, SVG Export Plug-In . SVG Version: 6.00 Build 0)  -->
<!DOCTYPE svg PUBLIC "-//W3C//DTD SVG 1.1//EN" "http://www.w3.org/Graphics/SVG/1.1/DTD/svg11.dtd">
<svg version="1.1" xmlns="http://www.w3.org/2000/svg" xmlns:xlink="http://www.w3.org/1999/xlink" x="0px" y="0px" width="512px"
	 height="512px" viewBox="0 0 512 512" style="enable-background:new 0 0 512 512;" xml:space="preserve">
<g id="mode_x5F_volume">
	<g style="display:none;">
		<path style="display:inline;fill:#1A171B;" d="M100.316,126.66c0,9.226-2.383,16.892-7.146,23.002
			c-4.765,6.112-12.3,9.167-22.605,9.167c-22.072,0-33.106-15.506-33.106-46.522c0-15.679,2.527-27.353,7.583-35.021
			c5.055-7.667,13.076-11.501,24.064-11.501c10.888,0,18.909,2.74,24.063,8.215c5.153,5.478,7.292,12.771,6.417,21.877H86.315
			c0.68-4.38,0.121-7.982-1.677-10.809c-1.801-2.824-4.108-4.756-6.928-5.793c-2.821-1.038-6.029-1.556-9.625-1.556
			c-5.25,0-9.432,2.767-12.542,8.301c-3.113,5.535-4.667,14.298-4.667,26.288c0,12.222,1.652,21.042,4.959,26.46
			c3.304,5.42,8.263,8.128,14.876,8.128c5.735,0,9.891-2.103,12.469-6.313c2.575-4.208,3.865-8.848,3.865-13.922H100.316z"/>
		<path style="display:inline;fill:#1A171B;" d="M231.136,156.58h-13.417V99.335c0-7.032-1.411-12.509-4.229-16.43
			c-2.821-3.918-7.05-5.88-12.688-5.88c-5.155,0-9.626,2.421-13.418,7.264c-3.791,4.842-5.688,9.858-5.688,15.046v57.245h-13.417
			V99.335c0-5.994-1.531-11.212-4.594-15.652c-3.063-4.438-7.073-6.659-12.031-6.659c-5.447,0-10.136,2.451-14.074,7.35
			c-3.938,4.902-5.906,9.888-5.906,14.96v57.245h-13.418V68.031h13.418v12.279c5.929-9.685,13.319-14.527,22.167-14.527
			c6.902,0,12.153,1.21,15.75,3.632c3.596,2.421,6.805,6.458,9.626,12.106c6.319-10.491,14.388-15.738,24.209-15.738
			c18.473,0,27.71,11.185,27.71,33.552V156.58z"/>
		<path style="display:inline;fill:#1A171B;" d="M291.514,77.024c0,5.534-2.357,10.147-7.073,13.836
			c-4.717,3.691-9.989,5.534-15.823,5.534c-6.417,0-11.667-1.93-15.751-5.794c-4.083-3.861-6.272-9.079-6.564-15.651h9.772
			c0.292,3.113,1.58,5.708,3.865,7.783c2.284,2.075,5.273,3.113,8.97,3.113c2.429,0,5.104-0.865,8.021-2.594
			c2.918-1.729,4.376-3.572,4.376-5.534c0-4.727-1.386-7.983-4.157-9.772c-2.771-1.786-6.927-2.68-12.469-2.68v-9.512
			c4.667,0,8.264-0.805,10.792-2.421c2.527-1.613,3.792-4.669,3.792-9.166c0-2.881-1.24-4.956-3.719-6.226
			c-2.479-1.267-4.791-1.843-6.928-1.729c-6.417,0.462-9.967,3.632-10.646,9.512h-9.626c0-6.572,2.041-11.471,6.125-14.7
			c4.083-3.227,8.992-4.843,14.729-4.843c6.903,0,12.153,1.586,15.751,4.756c3.596,3.173,5.396,7.351,5.396,12.539
			c0,3.92-0.899,7.12-2.698,9.598c-1.8,2.48-4.739,4.699-8.824,6.658c4.085,1.27,7.22,3.172,9.407,5.708
			C290.419,67.975,291.514,71.836,291.514,77.024z"/>
	</g>
	<g>
		<path d="M97.313,128.344c0,8.335-2.554,15.261-7.656,20.781c-5.105,5.522-13.179,8.281-24.219,8.281
			c-23.647,0-35.469-14.009-35.469-42.031c0-14.165,2.708-24.712,8.125-31.641c5.415-6.926,14.009-10.391,25.781-10.391
			c11.665,0,20.259,2.476,25.781,7.422c5.52,4.949,7.813,11.538,6.875,19.766H82.313c0.728-3.958,0.129-7.212-1.797-9.766
			c-1.929-2.551-4.402-4.297-7.422-5.234c-3.022-0.938-6.46-1.406-10.313-1.406c-5.625,0-10.105,2.5-13.438,7.5
			c-3.335,5-5,12.917-5,23.75c0,11.042,1.77,19.011,5.313,23.906c3.54,4.897,8.853,7.344,15.938,7.344
			c6.145,0,10.598-1.899,13.359-5.703c2.759-3.801,4.141-7.993,4.141-12.578H97.313z"/>
		<path d="M237.469,155.375h-14.375v-51.719c0-6.353-1.511-11.301-4.531-14.844c-3.022-3.54-7.554-5.313-13.594-5.313
			c-5.522,0-10.313,2.188-14.375,6.563s-6.094,8.906-6.094,13.594v51.719h-14.375v-51.719c0-5.415-1.641-10.129-4.922-14.141
			c-3.281-4.009-7.578-6.016-12.891-6.016c-5.835,0-10.859,2.214-15.078,6.641c-4.219,4.429-6.328,8.933-6.328,13.516v51.719
			h-14.375v-80h14.375v11.094c6.353-8.75,14.27-13.125,23.75-13.125c7.395,0,13.02,1.094,16.875,3.281
			c3.853,2.188,7.29,5.835,10.313,10.938c6.77-9.478,15.415-14.219,25.938-14.219c19.79,0,29.688,10.105,29.688,30.313V155.375z"/>
	</g>
	<g>
		<path d="M321.523,87.893c0,7.11-2.677,13.028-8.027,17.754c-5.352,4.728-12.129,7.09-20.332,7.09
			c-9.063,0-15.938-2.42-20.625-7.266c-4.688-4.843-7.031-10.585-7.031-17.227h12.773c0.938,10.157,6.016,15.234,15.234,15.234
			c4.062,0,7.753-1.465,11.074-4.395c3.32-2.93,4.98-6.308,4.98-10.137c0-12.343-8.086-18.398-24.258-18.164v-9.609
			c7.5,0,13.184-1.289,17.051-3.867s5.801-6.756,5.801-12.539c0-4.53-1.582-7.793-4.746-9.785s-6.582-2.988-10.254-2.988
			c-7.423,0-11.993,5-13.711,15h-12.188c1.015-7.811,3.71-13.808,8.086-17.988c4.375-4.178,10.234-6.27,17.578-6.27
			c8.046,0,14.59,2.168,19.629,6.504s7.559,9.785,7.559,16.348c0,2.736-0.567,5.273-1.699,7.617c-1.133,2.344-2.52,4.201-4.16,5.566
			c-1.641,1.368-3.359,2.695-5.156,3.984c-1.798,1.289-3.321,2.247-4.57,2.871c0.546,0.313,1.718,0.938,3.516,1.875
			c1.797,0.938,3.32,1.857,4.57,2.754c1.249,0.899,2.637,2.129,4.16,3.691c1.523,1.564,2.695,3.516,3.516,5.859
			S321.523,84.846,321.523,87.893z"/>
	</g>
	<polygon style="opacity:0.2;fill:#1A171B;" points="179.21,482 482,418.282 482,183.333 335.981,317.771 179.21,279.433 	"/>
	<linearGradient id="SVGID_1_" gradientUnits="userSpaceOnUse" x1="179.21" y1="332.666" x2="482" y2="332.666">
		<stop  offset="0" style="stop-color:#FFFFFF"/>
		<stop  offset="1" style="stop-color:#000000"/>
	</linearGradient>
	<polygon style="opacity:0.5;fill:url(#SVGID_1_);" points="179.21,482 482,418.282 482,183.333 335.981,317.771 179.21,279.433 	
		"/>
	<polygon style="opacity:0.2;fill:#1A171B;" points="108.736,256 184.296,289 184.296,474 108.736,444 	"/>
	<linearGradient id="SVGID_2_" gradientUnits="userSpaceOnUse" x1="86.7573" y1="351.2041" x2="206.2756" y2="378.7971">
		<stop  offset="0" style="stop-color:#FFFFFF"/>
		<stop  offset="1" style="stop-color:#000000"/>
	</linearGradient>
	<polygon style="opacity:0.4;fill:url(#SVGID_2_);" points="108.736,256 184.296,289 184.296,474 108.736,444 	"/>
	<polygon style="opacity:0.2;fill:#1A171B;" points="270.727,292.334 341.529,325.808 471.519,192.983 400.261,157.407 	"/>
	<polygon style="opacity:0.2;fill:#1A171B;" points="108.736,256 270.727,292.334 341.529,325.808 184.296,289 	"/>
	<linearGradient id="SVGID_3_" gradientUnits="userSpaceOnUse" x1="108.7363" y1="290.9043" x2="341.5293" y2="290.9043">
		<stop  offset="0" style="stop-color:#FFFFFF"/>
		<stop  offset="0.0284" style="stop-color:#E8E8E8"/>
		<stop  offset="0.0963" style="stop-color:#B8B8B8"/>
		<stop  offset="0.1697" style="stop-color:#8C8C8C"/>
		<stop  offset="0.2471" style="stop-color:#666666"/>
		<stop  offset="0.3294" style="stop-color:#474747"/>
		<stop  offset="0.4182" style="stop-color:#2D2D2D"/>
		<stop  offset="0.5159" style="stop-color:#191919"/>
		<stop  offset="0.6272" style="stop-color:#0B0B0B"/>
		<stop  offset="0.7639" style="stop-color:#020202"/>
		<stop  offset="1" style="stop-color:#000000"/>
	</linearGradient>
	<polygon style="opacity:0.5;fill:url(#SVGID_3_);" points="108.736,256 270.727,292.334 341.529,325.808 184.296,289 	"/>
	<path style="fill:#1A171B;" d="M469,203.138v204.596l-276.79,58.246V295.995l140.684,34.404l7.106,1.738l5.174-5.174L469,203.138
		 M482,183.333l-10.467-1.063L335.981,317.771L179.21,279.433V482L482,418.282V183.333z"/>
	
		<rect x="101.409" y="453.026" transform="matrix(0.919 0.3942 -0.3942 0.919 192.7464 -19.2653)" style="fill:#1A171B;" width="83.714" height="13"/>
	
		<rect x="101.409" y="263.36" transform="matrix(0.919 0.3942 -0.3942 0.919 117.98 -34.6236)" style="fill:#1A171B;" width="83.714" height="13"/>
	<polygon style="fill:#1A171B;" points="336.404,325.808 259.469,292.808 267.137,281.951 341.529,313.86 	"/>
	<polygon style="fill:#1A171B;" points="476.875,195.28 399.94,162.28 400.859,148.293 482,183.333 	"/>
	<linearGradient id="SVGID_4_" gradientUnits="userSpaceOnUse" x1="469.2549" y1="184.5474" x2="469.2549" y2="184.5474">
		<stop  offset="0" style="stop-color:#FFFFFF"/>
		<stop  offset="1" style="stop-color:#000000"/>
	</linearGradient>
	<path style="fill:url(#SVGID_4_);" d="M469.255,184.547"/>
	<rect x="102.236" y="247.387" style="fill:#1A171B;" width="13" height="201.581"/>
	<polygon style="fill:#1A171B;" points="270.541,296.93 261.349,287.736 400.859,148.293 407.498,159.972 	"/>
	<polygon style="fill:#1A171B;" points="267.691,296.216 102.236,256.688 102.236,243.101 270.727,283.575 	"/>
</g>
<g id="Ebene_1">
</g>
</svg>
