<?xml version="1.0" encoding="iso-8859-1"?>
<!-- Generator: Adobe Illustrator 15.1.0, SVG Export Plug-In . SVG Version: 6.00 Build 0)  -->
<!DOCTYPE svg PUBLIC "-//W3C//DTD SVG 1.1//EN" "http://www.w3.org/Graphics/SVG/1.1/DTD/svg11.dtd">
<svg version="1.1" xmlns="http://www.w3.org/2000/svg" xmlns:xlink="http://www.w3.org/1999/xlink" x="0px" y="0px" width="512px"
	 height="512px" viewBox="0 0 512 512" style="enable-background:new 0 0 512 512;" xml:space="preserve">
<g id="mode_x5F_pyramid">
	<g>
		<g>
			<line style="fill:none;stroke:#993300;stroke-width:13;" x1="75" y1="387.499" x2="85.609" y2="380.888"/>
			
				<line style="fill:none;stroke:#993300;stroke-width:13;stroke-dasharray:27.5206,27.5206;" x1="108.965" y1="366.333" x2="190.713" y2="315.39"/>
			<line style="fill:none;stroke:#993300;stroke-width:13;" x1="202.391" y1="308.112" x2="213" y2="301.501"/>
		</g>
	</g>
	<polygon style="opacity:0.2;fill:#993300;" points="75,387.499 299,452.499 437,366.5 213,301.501 	"/>
	<g>
		<g>
			<line style="fill:none;stroke:#993300;stroke-width:13;" x1="213" y1="301.501" x2="225.005" y2="304.984"/>
			
				<line style="fill:none;stroke:#993300;stroke-width:13;stroke-dasharray:23.1378,23.1378;" x1="247.226" y1="311.433" x2="413.885" y2="359.793"/>
			<line style="fill:none;stroke:#993300;stroke-width:13;" x1="424.995" y1="363.017" x2="437" y2="366.5"/>
		</g>
	</g>
	<line style="fill:none;stroke:#993300;stroke-width:13;stroke-dasharray:25;" x1="213" y1="301.501" x2="256" y2="65"/>
	<g>
		<circle style="fill:#9999FF;" cx="213" cy="301.5" r="35"/>
		<path style="fill:#666666;" d="M213,274.5c14.888,0,27,12.113,27,27c0,14.889-12.112,27.002-27,27.002s-27-12.113-27-27.002
			C186,286.613,198.112,274.5,213,274.5 M213,261.5c-22.092,0-40,17.91-40,40c0,22.092,17.908,40.002,40,40.002s40-17.91,40-40.002
			C253,279.41,235.092,261.5,213,261.5L213,261.5z"/>
	</g>
	<polygon style="opacity:0.2;fill:#993300;" points="75,387.499 299,452.5 256,65 	"/>
	<polygon style="opacity:0.2;fill:#993300;" points="437,366.5 256,65 299,452.5 	"/>
	<linearGradient id="SVGID_1_" gradientUnits="userSpaceOnUse" x1="256" y1="258.75" x2="437" y2="258.75">
		<stop  offset="0" style="stop-color:#993300;stop-opacity:0"/>
		<stop  offset="1" style="stop-color:#993300"/>
	</linearGradient>
	<polygon style="opacity:0.5;fill:url(#SVGID_1_);" points="437,366.5 256,65 299,452.5 	"/>
	<line style="fill:none;stroke:#993300;stroke-width:13;" x1="299" y1="452.5" x2="437" y2="366.5"/>
	<line style="fill:none;stroke:#993300;stroke-width:13;" x1="75" y1="387.499" x2="299" y2="452.5"/>
	<line style="fill:none;stroke:#993300;stroke-width:13;" x1="75" y1="387.499" x2="256" y2="65"/>
	<line style="fill:none;stroke:#993300;stroke-width:13;" x1="299" y1="452.499" x2="256" y2="65"/>
	<line style="fill:none;stroke:#993300;stroke-width:13;" x1="437" y1="366.5" x2="256" y2="65"/>
	<g>
		<circle style="fill:#0000FF;" cx="75" cy="387.498" r="35"/>
		<path d="M75,360.498c14.888,0,27,12.113,27,27c0,14.889-12.112,27.002-27,27.002s-27-12.113-27-27.002
			C48,372.611,60.112,360.498,75,360.498 M75,347.498c-22.092,0-40,17.91-40,40C35,409.59,52.908,427.5,75,427.5s40-17.91,40-40.002
			C115,365.408,97.092,347.498,75,347.498L75,347.498z"/>
	</g>
	<g>
		<circle style="fill:#0000FF;" cx="299" cy="452.498" r="35"/>
		<path d="M299,425.498c14.888,0,27,12.113,27,27c0,14.889-12.112,27.002-27,27.002s-27-12.113-27-27.002
			C272,437.611,284.112,425.498,299,425.498 M299,412.498c-22.092,0-40,17.91-40,40c0,22.092,17.908,40.002,40,40.002
			s40-17.91,40-40.002C339,430.408,321.092,412.498,299,412.498L299,412.498z"/>
	</g>
	<g>
		<circle style="fill:#0000FF;" cx="256" cy="65" r="35"/>
		<path d="M256,38c14.888,0,27,12.112,27,27s-12.112,27.001-27,27.001S229,79.888,229,65S241.112,38,256,38 M256,25
			c-22.092,0-40,17.909-40,40s17.908,40.001,40,40.001S296,87.091,296,65S278.092,25,256,25L256,25z"/>
	</g>
	<g>
		<circle style="fill:#0000FF;" cx="437" cy="366.5" r="35"/>
		<path d="M437,339.5c14.888,0,27,12.111,27,27c0,14.887-12.112,27-27,27s-27-12.113-27-27C410,351.611,422.112,339.5,437,339.5
			 M437,326.5c-22.092,0-40,17.908-40,40c0,22.09,17.908,40,40,40s40-17.91,40-40C477,344.408,459.092,326.5,437,326.5L437,326.5z"
			/>
	</g>
</g>
<g id="Ebene_1">
</g>
</svg>
