<?xml version="1.0" encoding="iso-8859-1"?>
<!-- Generator: Adobe Illustrator 15.1.0, SVG Export Plug-In . SVG Version: 6.00 Build 0)  -->
<!DOCTYPE svg PUBLIC "-//W3C//DTD SVG 1.1//EN" "http://www.w3.org/Graphics/SVG/1.1/DTD/svg11.dtd">
<svg version="1.1" xmlns="http://www.w3.org/2000/svg" xmlns:xlink="http://www.w3.org/1999/xlink" x="0px" y="0px" width="512px"
	 height="512px" viewBox="0 0 512 512" style="enable-background:new 0 0 512 512;" xml:space="preserve">
<g id="mode_x5F_compasses">
	<line style="fill:none;stroke:#000000;stroke-width:13;" x1="256" y1="211" x2="440.11" y2="211"/>
	
		<path id="path2984_4_" style="fill:none;stroke:#FF0000;stroke-width:13;" d="
		M440.11,211c0,101.502-82.429,183.785-184.11,183.785c-101.681,0-184.11-82.283-184.11-183.785S154.319,27.215,256,27.215
		C357.682,27.215,440.11,109.498,440.11,211z"/>
	<g>
		<circle style="fill:#0000FF;" cx="256" cy="210.999" r="35"/>
		<path d="M278.118,195.513c8.537,12.193,5.563,29.064-6.631,37.604c-12.195,8.539-29.066,5.564-37.605-6.631
			s-5.564-29.064,6.631-37.604S269.577,183.317,278.118,195.513 M288.767,188.056c-12.672-18.096-37.615-22.492-55.709-9.822
			c-18.096,12.67-22.496,37.613-9.824,55.709c12.672,18.098,37.613,22.494,55.709,9.824
			C297.038,231.095,301.438,206.153,288.767,188.056L288.767,188.056z"/>
	</g>
	<line style="fill:none;stroke:#000000;stroke-width:13;" x1="256" y1="456.5" x2="440.11" y2="456.5"/>
	<g>
		<circle style="fill:#0000FF;" cx="256" cy="456.5" r="35"/>
		<path d="M278.118,441.014c8.537,12.193,5.563,29.064-6.631,37.604c-12.195,8.539-29.066,5.564-37.605-6.631
			s-5.564-29.064,6.631-37.604S269.577,428.818,278.118,441.014 M288.767,433.557c-12.672-18.096-37.615-22.492-55.709-9.822
			c-18.096,12.67-22.496,37.613-9.824,55.709c12.672,18.098,37.613,22.494,55.709,9.824
			C297.038,476.596,301.438,451.654,288.767,433.557L288.767,433.557z"/>
	</g>
	<g>
		<circle style="fill:#0000FF;" cx="440.11" cy="456.5" r="35"/>
		<path d="M462.229,441.014c8.537,12.193,5.563,29.064-6.631,37.604c-12.195,8.539-29.066,5.564-37.605-6.631
			s-5.564-29.064,6.631-37.604S453.688,428.818,462.229,441.014 M472.877,433.557c-12.672-18.096-37.615-22.492-55.709-9.822
			c-18.096,12.67-22.496,37.613-9.824,55.709c12.672,18.098,37.613,22.494,55.709,9.824
			C481.148,476.596,485.549,451.654,472.877,433.557L472.877,433.557z"/>
	</g>
</g>
<g id="Ebene_1">
</g>
</svg>
