<?xml version="1.0" encoding="iso-8859-1"?>
<!-- Generator: Adobe Illustrator 15.1.0, SVG Export Plug-In . SVG Version: 6.00 Build 0)  -->
<!DOCTYPE svg PUBLIC "-//W3C//DTD SVG 1.1//EN" "http://www.w3.org/Graphics/SVG/1.1/DTD/svg11.dtd">
<svg version="1.1" xmlns="http://www.w3.org/2000/svg" xmlns:xlink="http://www.w3.org/1999/xlink" x="0px" y="0px" width="512px"
	 height="512px" viewBox="0 0 512 512" style="enable-background:new 0 0 512 512;" xml:space="preserve">
<g id="mode_x5F_circleaxispoint">
	<g>
		<rect x="249.5" y="280" style="fill:#1A171B;" width="13" height="25"/>
		<rect x="249.5" y="380" style="fill:#1A171B;" width="13" height="132"/>
		<rect x="249.5" y="330" style="fill:#1A171B;" width="13" height="25"/>
		<rect x="249.5" style="fill:#1A171B;" width="13" height="255"/>
	</g>
	<path style="fill:#FF0000;" d="M286,124.072v13.041c16.416,1.57,32.398,4.441,47.77,8.59c23.551,6.357,44.636,15.416,62.669,26.924
		c35.507,22.659,55.062,52.181,55.062,83.127s-19.555,60.469-55.062,83.128c-18.033,11.508-39.118,20.566-62.669,26.924
		c-24.601,6.64-50.766,10.007-77.77,10.007s-53.169-3.367-77.77-10.007c-23.551-6.357-44.636-15.416-62.669-26.924
		C80.055,316.222,60.5,286.699,60.5,255.753s19.555-60.468,55.062-83.127c18.033-11.508,39.118-20.566,62.669-26.924
		c15.371-4.148,31.354-7.02,47.77-8.59v-13.041C125.064,133.355,47.5,188.77,47.5,255.753c0,73.486,93.349,133.059,208.5,133.059
		s208.5-59.572,208.5-133.059C464.5,188.77,386.936,133.355,286,124.072z"/>
	<g>
		<circle style="fill:#0000FF;" cx="388" cy="162" r="35"/>
		<path d="M388,135c14.888,0,27,12.112,27,27s-12.112,27-27,27s-27-12.112-27-27S373.112,135,388,135 M388,122
			c-22.092,0-40,17.909-40,40s17.908,40,40,40s40-17.909,40-40S410.092,122,388,122L388,122z"/>
	</g>
	<path style="fill:#FF0000;" d="M403.895,161.972c-9.02-0.329-11.312,4.147-11.593,8.097c1.394,0.84,2.776,1.689,4.137,2.557
		c8.374,5.344,15.848,11.073,22.4,17.109l11.005-7.46C422.245,174.968,413.545,168.168,403.895,161.972z"/>
</g>
<g id="Ebene_1">
</g>
</svg>
