<?xml version="1.0" encoding="iso-8859-1"?>
<!-- Generator: Adobe Illustrator 15.1.0, SVG Export Plug-In . SVG Version: 6.00 Build 0)  -->
<!DOCTYPE svg PUBLIC "-//W3C//DTD SVG 1.1//EN" "http://www.w3.org/Graphics/SVG/1.1/DTD/svg11.dtd">
<svg version="1.1" xmlns="http://www.w3.org/2000/svg" xmlns:xlink="http://www.w3.org/1999/xlink" x="0px" y="0px" width="512px"
	 height="512px" viewBox="0 0 512 512" style="enable-background:new 0 0 512 512;" xml:space="preserve">
<g id="mode_x5F_polyline">
	<polyline style="fill:none;stroke:#FF0000;stroke-width:13;stroke-miterlimit:10;" points="414.373,75.39 139.932,133.966 
		397.016,392.137 97.627,436.611 	"/>
	<g>
		<g>
			
				<line style="fill:none;stroke:#1A171B;stroke-width:13;stroke-miterlimit:10;" x1="97.627" y1="436.611" x2="114.11" y2="417.814"/>
			
				<line style="fill:none;stroke:#1A171B;stroke-width:13;stroke-miterlimit:10;stroke-dasharray:47.825,47.825;" x1="145.641" y1="381.855" x2="382.125" y2="112.167"/>
			
				<line style="fill:none;stroke:#1A171B;stroke-width:13;stroke-miterlimit:10;" x1="397.891" y1="94.187" x2="414.373" y2="75.39"/>
		</g>
	</g>
	<g>
		<circle style="fill:#0000FF;" cx="139.932" cy="133.966" r="35"/>
		<path d="M139.932,106.966c14.888,0,27,12.113,27,27c0,14.888-12.112,27.001-27,27.001s-27-12.113-27-27.001
			C112.932,119.079,125.044,106.966,139.932,106.966 M139.932,93.966c-22.091,0-40,17.91-40,40c0,22.091,17.909,40.001,40,40.001
			c22.092,0,40-17.91,40-40.001C179.932,111.876,162.024,93.966,139.932,93.966L139.932,93.966z"/>
	</g>
	<g>
		<circle style="fill:#0000FF;" cx="414.373" cy="75.39" r="35"/>
		<path d="M414.373,48.39c14.889,0,27,12.113,27,27c0,14.888-12.111,27.001-27,27.001c-14.887,0-27-12.113-27-27.001
			C387.373,60.503,399.486,48.39,414.373,48.39 M414.373,35.39c-22.09,0-40,17.91-40,40c0,22.091,17.91,40.001,40,40.001
			c22.092,0,40-17.91,40-40.001C454.373,53.3,436.465,35.39,414.373,35.39L414.373,35.39z"/>
	</g>
	<g>
		<circle style="fill:#0000FF;" cx="397.016" cy="392.136" r="35"/>
		<path d="M397.016,365.136c14.889,0,27,12.113,27,27c0,14.888-12.111,27.001-27,27.001c-14.887,0-27-12.113-27-27.001
			C370.016,377.249,382.129,365.136,397.016,365.136 M397.016,352.136c-22.09,0-40,17.91-40,40c0,22.091,17.91,40.001,40,40.001
			c22.092,0,40-17.91,40-40.001C437.016,370.046,419.107,352.136,397.016,352.136L397.016,352.136z"/>
	</g>
	<g>
		<circle style="fill:#0000FF;" cx="97.627" cy="436.61" r="35"/>
		<path d="M97.627,409.61c14.889,0,27,12.113,27,27c0,14.888-12.111,27.001-27,27.001c-14.887,0-27-12.113-27-27.001
			C70.627,421.724,82.74,409.61,97.627,409.61 M97.627,396.61c-22.09,0-40,17.91-40,40c0,22.091,17.91,40.001,40,40.001
			c22.092,0,40-17.91,40-40.001C137.627,414.521,119.719,396.61,97.627,396.61L97.627,396.61z"/>
	</g>
</g>
<g id="Ebene_1">
</g>
</svg>
