<?xml version="1.0" encoding="iso-8859-1"?>
<!-- Generator: Adobe Illustrator 15.1.0, SVG Export Plug-In . SVG Version: 6.00 Build 0)  -->
<!DOCTYPE svg PUBLIC "-//W3C//DTD SVG 1.1//EN" "http://www.w3.org/Graphics/SVG/1.1/DTD/svg11.dtd">
<svg version="1.1" xmlns="http://www.w3.org/2000/svg" xmlns:xlink="http://www.w3.org/1999/xlink" x="0px" y="0px" width="512px"
	 height="512px" viewBox="0 0 512 512" style="enable-background:new 0 0 512 512;" xml:space="preserve">
<g id="mode_x5F_parabola">
	<g>
		<g>
			<circle style="fill:#0000FF;" cx="300.742" cy="205.232" r="35"/>
			<path d="M327.64,202.88c1.297,14.828-9.715,27.952-24.544,29.25c-14.832,1.297-27.955-9.714-29.252-24.545
				c-1.298-14.831,9.713-27.953,24.544-29.25S326.341,188.048,327.64,202.88 M340.59,201.746
				c-1.926-22.007-21.329-38.287-43.334-36.361c-22.006,1.925-38.289,21.326-36.363,43.333
				c1.926,22.009,21.327,38.287,43.334,36.362C326.233,243.154,342.516,223.755,340.59,201.746L340.59,201.746z"/>
		</g>
		<path style="fill:none;stroke:#FF0000;stroke-width:13;" d="M68.695-104.852c0,0,41.308,319.453,180.305,399.703
			c138.131,79.75,436.305-43.703,436.305-43.703"/>
	</g>
	<line style="fill:none;stroke:#000000;stroke-width:13;" x1="-136.038" y1="166.892" x2="529.962" y2="552.159"/>
</g>
<g id="Ebene_1">
</g>
</svg>
