<?xml version="1.0" encoding="iso-8859-1"?>
<!-- Generator: Adobe Illustrator 15.1.0, SVG Export Plug-In . SVG Version: 6.00 Build 0)  -->
<!DOCTYPE svg PUBLIC "-//W3C//DTD SVG 1.1//EN" "http://www.w3.org/Graphics/SVG/1.1/DTD/svg11.dtd">
<svg version="1.1" xmlns="http://www.w3.org/2000/svg" xmlns:xlink="http://www.w3.org/1999/xlink" x="0px" y="0px" width="512px"
	 height="512px" viewBox="0 0 512 512" style="enable-background:new 0 0 512 512;" xml:space="preserve">
<g id="mode_x5F_buttonaction">
	<linearGradient id="SVGID_1_" gradientUnits="userSpaceOnUse" x1="256.0005" y1="406" x2="256.0005" y2="106.0005">
		<stop  offset="0" style="stop-color:#999999"/>
		<stop  offset="1" style="stop-color:#FFFFFF"/>
	</linearGradient>
	<path style="fill:url(#SVGID_1_);stroke:#666666;stroke-width:13;" d="M481,373.392C481,391.4,467.598,406,451.066,406H60.934
		C44.402,406,31,391.4,31,373.392V138.609C31,120.6,44.402,106,60.934,106h390.133C467.598,106,481,120.6,481,138.609V373.392z"/>
	<g>
		<path style="fill:#333333;" d="M254.779,257.67c0,17.742-2.85,33.775-8.545,48.096c-5.699,14.324-14.854,26.085-27.466,35.278
			c-12.615,9.197-27.794,13.794-45.532,13.794c-17.742,0-32.959-4.597-45.654-13.794c-12.695-9.193-21.935-20.954-27.71-35.278
			c-5.779-14.32-8.667-30.354-8.667-48.096c0-27.016,6.958-48.828,20.874-65.43s34.302-24.902,61.157-24.902
			c26.691,0,46.955,8.301,60.791,24.902C247.859,208.842,254.779,230.654,254.779,257.67z M229.145,257.67
			c0-10.09-0.896-19.081-2.686-26.978c-1.793-7.893-4.723-15.053-8.789-21.484c-4.07-6.428-9.85-11.391-17.334-14.893
			c-7.488-3.498-16.521-5.249-27.1-5.249c-37.438,0-56.152,22.869-56.152,68.604c0,7.977,0.526,15.465,1.587,22.461
			c1.057,7,2.93,13.794,5.615,20.386s6.104,12.207,10.254,16.846s9.521,8.385,16.113,11.23c6.592,2.85,14.118,4.272,22.583,4.272
			c8.461,0,15.991-1.423,22.583-4.272c6.592-2.846,11.963-6.592,16.113-11.23s7.526-10.292,10.132-16.968
			c2.602-6.672,4.433-13.466,5.493-20.386C228.614,273.093,229.145,265.646,229.145,257.67z"/>
		<path style="fill:#333333;" d="M429.584,351.42h-33.691l-81.055-95.215v95.215h-25.146V171h25.146v76.66L389.301,171h31.006
			l-76.66,77.637L429.584,351.42z"/>
	</g>
</g>
<g id="Ebene_1">
</g>
</svg>
