<svg xmlns="http://www.w3.org/2000/svg" viewBox="0 0 512 512"><circle r="123" cy="336" cx="175" fill="#99f"/><path fill="#666" d="M119.667 343.388L302.333 27 485 343.388"/><path fill="#99f" d="M169.117 314.838L302.333 84.1 435.55 314.84"/><path d="M148.944 327l73.39-124.494C279.764 229.49 311.28 269.72 309.436 327H148.944z" fill="#6161ff"/><path d="M175 486c-82.843 0-150-67.157-150-150s67.157-150 150-150 150 67.157 150 150-67.157 150-150 150zm123-150c0-67.93-55.07-123-123-123S52 268.07 52 336s55.07 123 123 123 123-55.07 123-123z" fill="#666"/><g><path d="M324.82 343.388H119.668l88.715-153.66c9.598 2.18 18.846 5.283 27.647 9.208 46.263 20.63 80.16 63.997 87.49 115.9.975 6.914 1.48 13.98 1.48 21.164 0 2.477-.06 4.94-.18 7.388zM222.44 222.48l-53.323 92.358h127.07c-7.254-41.825-35.63-76.406-73.742-92.354" fill="#333"/></g></svg>