<svg xmlns="http://www.w3.org/2000/svg" xmlns:xlink="http://www.w3.org/1999/xlink" viewBox="0 0 512 512"><defs><path d="M485 440.24c0 24.72-20.04 44.76-44.76 44.76H71.76C47.04 485 27 464.96 27 440.24V71.76C27 47.04 47.04 27 71.76 27h368.48C464.96 27 485 47.04 485 71.76v368.48z" id="m"/></defs><clipPath id="n"><use height="512" width="512" xlink:href="#m" overflow="visible"/></clipPath><g clip-path="url(#n)"><path d="M155.564 446.51h200.873V180.524C310.847 108.107 281.302 73.24 256 73.24c-25.302 0-54.847 34.867-100.436 107.283V446.51z" fill="#99f"/><path d="M609 422.968s-130.97 21.405-207.06-147.7C325.85 106.16 287.184 65.487 256 65.487c-31.183 0-69.85 40.672-145.94 209.778S-97 422.968-97 422.968" fill="none" stroke="#666" stroke-width="26" stroke-miterlimit="10"/><path fill="none" stroke="#333" stroke-width="26" stroke-miterlimit="10" d="M-97 446.51h706"/></g></svg>