<?xml version="1.0" encoding="iso-8859-1"?>
<!-- Generator: Adobe Illustrator 15.1.0, SVG Export Plug-In . SVG Version: 6.00 Build 0)  -->
<!DOCTYPE svg PUBLIC "-//W3C//DTD SVG 1.1//EN" "http://www.w3.org/Graphics/SVG/1.1/DTD/svg11.dtd">
<svg version="1.1" xmlns="http://www.w3.org/2000/svg" xmlns:xlink="http://www.w3.org/1999/xlink" x="0px" y="0px" width="512px"
	 height="512px" viewBox="0 0 512 512" style="enable-background:new 0 0 512 512;" xml:space="preserve">
<g id="mode_x5F_image">
	<ellipse style="opacity:0.2;fill:#993300;" cx="270.717" cy="256.583" rx="35.546" ry="25.638"/>
	<linearGradient id="SVGID_1_" gradientUnits="userSpaceOnUse" x1="287.709" y1="216.167" x2="170.8952" y2="52.3132">
		<stop  offset="0" style="stop-color:#0000FF;stop-opacity:0.1"/>
		<stop  offset="1" style="stop-color:#0000FF"/>
	</linearGradient>
	<path style="opacity:0.4;fill:url(#SVGID_1_);" d="M268.181,234.884c0,0,11.84-6.506,25.535-18.413s21.324-42.658,14.617-63.884
		s-28.249-71.315-31.397-80.932s-14.91-59.881-62.212-44.16s-69.898,46.837-75.243,52.729s-32.133,31.92-7.183,57.711
		s30.643,16.873,78.271,61.632S268.181,234.884,268.181,234.884z"/>
	
		<linearGradient id="SVGID_2_" gradientUnits="userSpaceOnUse" x1="-388.8813" y1="1431.4219" x2="-505.6946" y2="1267.5688" gradientTransform="matrix(0.3356 0.942 -0.942 0.3356 1806.8199 140.6192)">
		<stop  offset="0" style="stop-color:#0000FF;stop-opacity:0.1"/>
		<stop  offset="1" style="stop-color:#0000FF"/>
	</linearGradient>
	<path style="opacity:0.4;fill:url(#SVGID_2_);" d="M303.724,242.607c0,0,10.103,8.969,25.915,17.875
		c15.812,8.903,47.34,5.771,65.084-7.673c17.745-13.441,57.698-50.545,65.7-56.739c8.003-6.193,51.403-34.143,20.719-73.425
		c-30.686-39.282-67.58-50.123-74.925-53.181c-7.345-3.057-40.854-19.556-56.775,12.604c-15.919,32.159-5.609,34.529-31.787,94.416
		C291.478,236.37,303.724,242.607,303.724,242.607z"/>
	<linearGradient id="SVGID_3_" gradientUnits="userSpaceOnUse" x1="306.0869" y1="268.8896" x2="473.3545" y2="385.4891">
		<stop  offset="0" style="stop-color:#0000FF;stop-opacity:0.1"/>
		<stop  offset="1" style="stop-color:#0000FF"/>
	</linearGradient>
	<path style="opacity:0.4;fill:url(#SVGID_3_);" d="M298.613,270.254c0,0,13.203-10.219,59.668,1.49s65.289-8.374,78.852-8.071
		s50.521,3.481,48.977,59.757s-34.223,94.799-34.223,94.799s-15.254,26.079-60.818,2.923
		c-36.269-18.432-46.075-14.705-65.185-29.991s-46.069-36.496-43.076-88.926c0,0-0.136-11.738,13.949-31.302"/>
	<linearGradient id="SVGID_4_" gradientUnits="userSpaceOnUse" x1="234.8486" y1="248.2578" x2="30.003" y2="268.7239">
		<stop  offset="0" style="stop-color:#0000FF;stop-opacity:0.1"/>
		<stop  offset="1" style="stop-color:#0000FF"/>
	</linearGradient>
	<path style="opacity:0.4;fill:url(#SVGID_4_);" d="M234.729,257.186c0,0,10.048-24.266-10.712-40.331s-52.555-41.75-97.787-37.669
		s-60.858,4.437-63.959,4.851s-45.544,4.602-39.234,56.988s31.465,83.443,31.465,83.443s17.373,39.779,63.31,7.338
		s57.758-35.018,78.77-45.263S234.729,257.186,234.729,257.186z"/>
	
		<linearGradient id="SVGID_5_" gradientUnits="userSpaceOnUse" x1="216.9893" y1="654.1025" x2="6.7617" y2="646.2725" gradientTransform="matrix(0.3325 -0.9431 0.9431 0.3325 -416.2585 270.903)">
		<stop  offset="0" style="stop-color:#0000FF;stop-opacity:0.1"/>
		<stop  offset="1" style="stop-color:#0000FF"/>
	</linearGradient>
	<path style="opacity:0.4;fill:url(#SVGID_5_);" d="M262.892,283.894c0,0-19.728-17.711-41.991-3.34
		c-22.263,14.37-57.386,36.019-68.686,80.448c-11.299,44.43-16.205,59.426-16.852,62.517c-0.647,3.09-10.907,44.901,41.082,56.479
		c51.99,11.577,90-1.944,90-1.944s43.701-3.187,28.237-57.808c-15.464-54.622-13.948-66.739-16.648-90.182
		S262.892,283.894,262.892,283.894z"/>
	<path style="opacity:0.4;fill:#0000FF;" d="M240.69,241.5c0,0-35.527-31-62.527-32s-39.203,4-39.203,4s65.203,7.914,76.203,20.457
		c0,0-13-3.543-36,0s-30.111,4.543-44.056,12.543s56.271-16,87.663-4c0,0-24.945-5.66-35.776,5.67s46.178-7.462,48.169,4.33
		L240.69,241.5z"/>
	<path style="opacity:0.4;fill:#0000FF;" d="M278.477,230.818c0,0,12.979-45.329,2.418-70.198
		c-10.56-24.869-20.269-33.794-20.269-33.794s20.524,62.393,13.839,77.678c0,0-2.313-13.274-15.287-32.593
		c-12.975-19.318-16.9-25.332-30.064-34.56c-13.165-9.227,38.381,44.15,40.848,77.667c0,0-5.469-24.988-20.326-29.982
		s26.366,38.639,16.535,45.449L278.477,230.818z"/>
	<path style="opacity:0.4;fill:#0000FF;" d="M247.74,276.145c0,0-31.093,35.446-32.164,62.443
		c-1.072,26.997,3.896,39.213,3.896,39.213s8.085-65.182,20.658-76.148c0,0-3.577,12.99-0.095,36
		c3.483,23.009,4.464,30.123,12.427,44.088c7.963,13.965-15.852-56.313-3.769-87.673c0,0-5.726,24.931,5.575,35.791
		c11.301,10.861-7.34-46.198,4.458-48.157L247.74,276.145z"/>
	<path style="opacity:0.4;fill:#0000FF;" d="M289.313,279.32c0,0,21.045,42.194,45.629,53.401
		c24.584,11.208,37.771,11.231,37.771,11.231s-57.275-32.149-62.67-47.937c0,0,10.671,8.228,33.288,13.711
		c22.615,5.482,29.572,7.266,45.511,5.179c15.94-2.086-58.122-6.636-82.58-29.686c0,0,20.911,14.733,35.24,8.382
		c14.33-6.352-45.54-10.688-42.89-22.349L289.313,279.32z"/>
	<path style="opacity:0.4;fill:#0000FF;" d="M306.573,255.948c0,0,46.828-5.503,65.702-24.836
		c18.874-19.333,23.364-31.732,23.364-31.732s-49.653,42.996-66.334,42.722c0,0,11.355-7.252,24.178-26.674
		c12.821-19.42,16.855-25.361,20.293-41.064c3.438-15.705-25.937,52.437-55.91,67.638c0,0,20.948-14.682,19.826-30.315
		c-1.12-15.635-25.485,39.225-35.559,32.78L306.573,255.948z"/>
</g>
<g id="Ebene_1">
</g>
</svg>
