<?xml version="1.0" encoding="iso-8859-1"?>
<!-- Generator: Adobe Illustrator 15.1.0, SVG Export Plug-In . SVG Version: 6.00 Build 0)  -->
<!DOCTYPE svg PUBLIC "-//W3C//DTD SVG 1.1//EN" "http://www.w3.org/Graphics/SVG/1.1/DTD/svg11.dtd">
<svg version="1.1" xmlns="http://www.w3.org/2000/svg" xmlns:xlink="http://www.w3.org/1999/xlink" x="0px" y="0px" width="512px"
	 height="512px" viewBox="0 0 512 512" style="enable-background:new 0 0 512 512;" xml:space="preserve">
<g id="mode_x5F_freehandshape">
	<rect x="645.5" y="26.3" style="opacity:0.5;fill:#FF0000;" width="50" height="392.234"/>
	<rect x="640.5" y="26.3" style="fill:#333333;" width="12" height="400"/>
	<rect x="664.5" y="26.3" style="fill:#333333;" width="12" height="390.865"/>
	<rect x="688.5" y="26.3" style="fill:#333333;" width="12" height="400"/>
	<path style="fill:#333333;" d="M669.606,30.501c10.008,0,18.864,3.27,24.314,8.291c4.113-3.423,6.579-7.765,6.579-12.492
		c0-11.045-13.433-20-30-20s-30,8.955-30,20c0,4.375,2.112,8.417,5.687,11.709C651.685,33.435,660.13,30.501,669.606,30.501z"/>
	<g>
		<line style="fill:none;stroke:#CCCCCC;stroke-width:13;stroke-miterlimit:10;" x1="-19.5" y1="170" x2="518.5" y2="170"/>
		<line style="fill:none;stroke:#CCCCCC;stroke-width:13;stroke-miterlimit:10;" x1="-13" y1="342" x2="525" y2="342"/>
	</g>
	<g>
		<line style="fill:none;stroke:#CCCCCC;stroke-width:13;stroke-miterlimit:10;" x1="342" y1="-16.25" x2="342" y2="521.75"/>
		<line style="fill:none;stroke:#CCCCCC;stroke-width:13;stroke-miterlimit:10;" x1="170" y1="-9.75" x2="170" y2="528.25"/>
	</g>
	<g>
		<g>
			<path style="fill:#333333;" d="M670.5,419.977c8.92,0,14.542,3.461,16.349,5.704L670.5,469.276l-16.349-43.596
				C655.958,423.438,661.58,419.977,670.5,419.977 M670.5,406.977c-16.228,0-29.429,8.593-29.966,19.324H640.5l0.029,0.078
				c-0.005,0.106-0.017,0.213-0.019,0.32h0.139l29.851,79.602l29.851-79.602h0.139c-0.002-0.107-0.014-0.214-0.019-0.32l0.029-0.078
				h-0.034C699.929,415.569,686.728,406.977,670.5,406.977L670.5,406.977z"/>
		</g>
		<polygon style="fill:#FF0000;" points="679.022,483.604 670.511,506.301 660.19,478.783 		"/>
	</g>
	<g>
		<linearGradient id="SVGID_1_" gradientUnits="userSpaceOnUse" x1="277.9521" y1="310.918" x2="0" y2="310.918">
			<stop  offset="0" style="stop-color:#FF0000"/>
			<stop  offset="1" style="stop-color:#FF0000;stop-opacity:0.2"/>
		</linearGradient>
		<path style="fill:url(#SVGID_1_);" d="M12.892,522.837L0,521.163c0.132-1.02,13.536-113.166,38.763-213.991
			c14.875-59.447,30.912-106.894,47.667-141.021C108.613,120.965,131.725,99,157.086,99c25.181,0,47.09,21.635,65.118,64.303
			c13.728,32.49,25.536,77.634,35.097,134.178c16.201,95.825,20.61,180.334,20.651,181.303l-13.146,13.12
			c-0.041-0.963-4.266-97.327-20.342-192.358c-9.393-55.525-20.917-99.674-34.251-131.22C194.416,130.95,176.541,112,157.086,112
			c-19.634,0-39.48,20.146-58.987,59.88c-16.352,33.306-32.072,79.887-46.725,138.448C26.328,410.429,13.023,521.824,12.892,522.837
			z"/>
	</g>
	<g>
		
			<rect x="359.82" y="38.22" transform="matrix(0.9063 0.4226 -0.4226 0.9063 135.0892 -140.676)" style="opacity:0.5;fill:#FF0000;" width="50" height="392.234"/>
		
			<rect x="355.428" y="27.713" transform="matrix(0.9063 0.4226 -0.4226 0.9063 130.0917 -131.4064)" style="fill:#333333;" width="12" height="400.001"/>
		
			<rect x="379.109" y="38.284" transform="matrix(0.9063 0.4226 -0.4226 0.9063 134.8472 -140.8519)" style="fill:#333333;" width="12" height="390.865"/>
		
			<rect x="398.931" y="47.999" transform="matrix(0.9063 0.4226 -0.4226 0.9063 142.74 -147.8903)" style="fill:#333333;" width="12" height="400.001"/>
		<path style="fill:#333333;" d="M465.117,60.025c9.07,4.229,15.715,10.936,18.533,17.789c5.174-1.364,9.244-4.256,11.241-8.541
			c4.668-10.011-3.722-23.803-18.736-30.805c-15.016-7.002-30.974-4.563-35.642,5.447c-1.849,3.965-1.644,8.521,0.205,13.016
			C447.635,55.109,456.528,56.02,465.117,60.025z"/>
		<g>
			<g>
				<path style="fill:#333333;" d="M289.751,410.612c3.629,0,7.74,0.985,11.577,2.774c8.084,3.77,11.718,9.282,12.406,12.079
					l-33.242,32.603l3.604-46.384C285.214,411.135,287.124,410.612,289.751,410.612 M289.751,397.612
					c-8.271,0-15.207,3.079-18.254,8.842l-0.031-0.015l-0.007,0.084c-0.049,0.094-0.104,0.186-0.151,0.282l0.125,0.059
					l-6.587,84.759l60.695-59.528l0.125,0.059c0.044-0.098,0.078-0.199,0.119-0.298l0.06-0.059l-0.031-0.015
					c4.049-9.953-4.284-23.319-18.991-30.178C301.037,398.907,295.113,397.612,289.751,397.612L289.751,397.612z"/>
			</g>
			<polygon style="fill:#FF0000;" points="282.162,474.654 264.855,491.628 267.132,462.326 			"/>
		</g>
	</g>
</g>
<g id="Ebene_1">
</g>
</svg>
