<?xml version="1.0" encoding="iso-8859-1"?>
<!-- Generator: Adobe Illustrator 15.1.0, SVG Export Plug-In . SVG Version: 6.00 Build 0)  -->
<!DOCTYPE svg PUBLIC "-//W3C//DTD SVG 1.1//EN" "http://www.w3.org/Graphics/SVG/1.1/DTD/svg11.dtd">
<svg version="1.1" xmlns="http://www.w3.org/2000/svg" xmlns:xlink="http://www.w3.org/1999/xlink" x="0px" y="0px" width="512px"
	 height="512px" viewBox="0 0 512 512" style="enable-background:new 0 0 512 512;" xml:space="preserve">
<g id="mode_x5F_fitline">
	
		<line style="fill:none;stroke:#FF0000;stroke-width:13;stroke-miterlimit:10;" x1="-8.663" y1="519.316" x2="432.846" y2="-7.316"/>
	<g>
		<circle style="fill:#0000FF;" cx="124.357" cy="243.118" r="35"/>
		<path d="M146.474,227.632c8.538,12.193,5.563,29.064-6.631,37.604c-12.195,8.539-29.066,5.564-37.604-6.631
			c-8.54-12.195-5.564-29.064,6.631-37.604C121.064,212.462,137.934,215.436,146.474,227.632 M157.123,220.175
			c-12.671-18.096-37.614-22.493-55.709-9.822c-18.096,12.67-22.495,37.613-9.824,55.709c12.672,18.097,37.614,22.493,55.71,9.823
			C165.395,263.214,169.794,238.271,157.123,220.175L157.123,220.175z"/>
	</g>
	<g>
		<circle style="fill:#0000FF;" cx="102.662" cy="390.644" r="35"/>
		<path d="M124.779,375.157c8.538,12.193,5.563,29.064-6.631,37.604c-12.195,8.539-29.066,5.564-37.604-6.631
			c-8.54-12.195-5.564-29.064,6.631-37.604C99.369,359.987,116.239,362.961,124.779,375.157 M135.428,367.7
			c-12.671-18.096-37.614-22.493-55.709-9.822c-18.096,12.67-22.495,37.613-9.824,55.709c12.672,18.097,37.614,22.493,55.71,9.823
			C143.7,410.739,148.1,385.797,135.428,367.7L135.428,367.7z"/>
	</g>
	<g>
		<circle style="fill:#0000FF;" cx="305.509" cy="278.915" r="35"/>
		<path d="M327.626,263.429c8.538,12.193,5.563,29.064-6.631,37.604c-12.195,8.539-29.066,5.564-37.604-6.631
			c-8.54-12.195-5.564-29.064,6.631-37.604C302.216,248.259,319.086,251.232,327.626,263.429 M338.274,255.972
			c-12.671-18.096-37.614-22.493-55.709-9.822c-18.096,12.67-22.495,37.613-9.824,55.709c12.672,18.097,37.614,22.493,55.71,9.823
			C346.547,299.011,350.946,274.068,338.274,255.972L338.274,255.972z"/>
	</g>
	<g>
		<circle style="fill:#0000FF;" cx="265.505" cy="117.288" r="35"/>
		<path d="M287.623,101.801c8.537,12.193,5.563,29.064-6.631,37.604c-12.195,8.539-29.067,5.564-37.605-6.631
			c-8.54-12.195-5.564-29.064,6.631-37.604C262.213,86.631,279.082,89.605,287.623,101.801 M298.271,94.344
			c-12.672-18.096-37.615-22.493-55.709-9.822c-18.096,12.67-22.495,37.613-9.824,55.709c12.672,18.097,37.614,22.493,55.709,9.823
			C306.543,137.383,310.943,112.441,298.271,94.344L298.271,94.344z"/>
	</g>
	<g>
		<circle style="fill:#0000FF;" cx="425.915" cy="93.423" r="35"/>
		<path d="M448.033,77.937c8.537,12.193,5.563,29.064-6.631,37.604c-12.195,8.539-29.066,5.564-37.605-6.631
			s-5.564-29.064,6.631-37.604S439.492,65.741,448.033,77.937 M458.682,70.48c-12.672-18.096-37.615-22.493-55.709-9.822
			c-18.096,12.67-22.496,37.613-9.824,55.709c12.672,18.097,37.613,22.493,55.709,9.823
			C466.953,113.519,471.354,88.577,458.682,70.48L458.682,70.48z"/>
	</g>
</g>
<g id="Ebene_1">
</g>
</svg>
