<?xml version="1.0" encoding="iso-8859-1"?>
<!-- Generator: Adobe Illustrator 19.2.1, SVG Export Plug-In . SVG Version: 6.00 Build 0)  -->
<svg version="1.1" id="mode_buttonaction" xmlns="http://www.w3.org/2000/svg" xmlns:xlink="http://www.w3.org/1999/xlink" x="0px"
	 y="0px" viewBox="0 0 512 512" style="enable-background:new 0 0 512 512;" xml:space="preserve">
<path style="fill:none;stroke:#000000;stroke-width:13;" d="M467.92,373.39c0,18-12.62,32.61-28.19,32.61H72.27
	c-15.57,0-28.19-14.6-28.19-32.61V138.61c0-18,12.62-32.61,28.19-32.61h367.46c15.57,0,28.19,14.6,28.19,32.61V373.39z"/>
<path d="M251.93,253.52c0,12.873-2.067,24.503-6.2,34.89c-4.042,10.271-10.962,19.156-19.93,25.59c-9.153,6.667-20.153,10-33,10
	c-12.847,0-23.887-3.333-33.12-10c-9.017-6.424-15.995-15.308-20.1-25.59c-4.193-10.387-6.29-22.017-6.29-34.89
	c0-19.6,5.047-35.42,15.14-47.46c10.093-12.04,24.873-18.06,44.34-18.06c19.333,0,34.033,6.02,44.1,18.06
	S251.957,233.92,251.93,253.52z M233.33,253.52c0.071-6.559-0.583-13.105-1.95-19.52c-1.214-5.538-3.372-10.825-6.38-15.63
	c-3.05-4.746-7.419-8.499-12.57-10.8c-5.433-2.54-11.987-3.81-19.66-3.81c-27.16,0-40.737,16.59-40.73,49.77
	c-0.025,5.451,0.359,10.896,1.15,16.29c0.765,5.074,2.131,10.039,4.07,14.79c1.758,4.471,4.275,8.605,7.44,12.22
	c3.252,3.546,7.243,6.335,11.69,8.17c10.529,4.131,22.231,4.131,32.76,0c4.446-1.829,8.436-4.611,11.69-8.15
	c3.169-3.629,5.659-7.799,7.35-12.31c1.873-4.768,3.215-9.728,4-14.79C232.98,264.377,233.361,258.951,233.33,253.52L233.33,253.52z
	"/>
<path d="M378.73,321.53h-24.44l-58.8-69.07v69.07h-18.24V190.65h18.24v55.61l54-55.61H372L316.39,247L378.73,321.53z"/>
</svg>
