<?xml version="1.0" encoding="iso-8859-1"?>
<!-- Generator: Adobe Illustrator 15.1.0, SVG Export Plug-In . SVG Version: 6.00 Build 0)  -->
<!DOCTYPE svg PUBLIC "-//W3C//DTD SVG 1.1//EN" "http://www.w3.org/Graphics/SVG/1.1/DTD/svg11.dtd">
<svg version="1.1" xmlns="http://www.w3.org/2000/svg" xmlns:xlink="http://www.w3.org/1999/xlink" x="0px" y="0px" width="512px"
	 height="512px" viewBox="0 0 512 512" style="enable-background:new 0 0 512 512;" xml:space="preserve">
<g id="mode_x5F_prism">
	<polygon style="opacity:0.2;fill:#993300;" points="422,305 422,63 354,205 354,447 	"/>
	<g>
		<g>
			<line style="fill:none;stroke:#993300;stroke-width:13;" x1="90" y1="361.607" x2="102.322" y2="359.507"/>
			
				<line style="fill:none;stroke:#993300;stroke-width:13;stroke-dasharray:23.9839,23.9839;" x1="125.965" y1="355.476" x2="397.856" y2="309.116"/>
			<line style="fill:none;stroke:#993300;stroke-width:13;" x1="409.678" y1="307.101" x2="422" y2="305"/>
		</g>
	</g>
	<polygon style="opacity:0.4;fill:#993300;" points="422,305 422,63 354,205 354,447 	"/>
	<polygon style="opacity:0.2;fill:#993300;" points="90,120 354,205 422,63 	"/>
	<polygon style="opacity:0.2;fill:#FFFFFF;" points="90,120 354,205 422,63 	"/>
	<polygon style="opacity:0.2;fill:#993300;" points="90,362 354,447 354,205 90,120 	"/>
	<linearGradient id="SVGID_1_" gradientUnits="userSpaceOnUse" x1="74.2505" y1="135.751" x2="369.75" y2="431.2505">
		<stop  offset="0" style="stop-color:#FFFFFF"/>
		<stop  offset="1" style="stop-color:#993300"/>
	</linearGradient>
	<polygon style="opacity:0.4;fill:url(#SVGID_1_);" points="90,362 354,447 354,205 90,120 	"/>
	<line style="fill:none;stroke:#993300;stroke-width:13;" x1="90" y1="361.607" x2="354" y2="447"/>
	<line style="fill:none;stroke:#993300;stroke-width:13;" x1="354" y1="447" x2="422" y2="305"/>
	<path style="fill:none;stroke:#993300;stroke-width:13;" d="M422,305"/>
	<path style="fill:none;stroke:#993300;stroke-width:13;" d="M90,361.607"/>
	<line style="fill:none;stroke:#993300;stroke-width:13;" x1="90" y1="119.608" x2="354" y2="205.001"/>
	<line style="fill:none;stroke:#993300;stroke-width:13;" x1="354" y1="205.001" x2="422" y2="63.001"/>
	<path style="fill:none;stroke:#993300;stroke-width:13;" d="M422,63.001"/>
	<path style="fill:none;stroke:#993300;stroke-width:13;" d="M90,119.608"/>
	<line style="fill:none;stroke:#993300;stroke-width:13;" x1="90" y1="119.608" x2="422" y2="63.001"/>
	<line style="fill:none;stroke:#993300;stroke-width:13;" x1="90" y1="119.608" x2="90" y2="361.607"/>
	<line style="fill:none;stroke:#993300;stroke-width:13;" x1="422" y1="63.001" x2="422" y2="305"/>
	<line style="fill:none;stroke:#993300;stroke-width:13;" x1="354" y1="205.001" x2="354" y2="447"/>
	<g>
		<circle style="fill:#0000FF;" cx="90" cy="361.999" r="35"/>
		<path d="M90,334.999c14.888,0,27,12.112,27,27S104.888,389,90,389s-27-12.113-27-27.001S75.112,334.999,90,334.999 M90,321.999
			c-22.092,0-40,17.909-40,40S67.908,402,90,402s40-17.91,40-40.001S112.092,321.999,90,321.999L90,321.999z"/>
	</g>
	<g>
		<circle style="fill:#0000FF;" cx="354" cy="446.999" r="35"/>
		<path d="M354,419.999c14.888,0,27,12.112,27,27S368.888,474,354,474s-27-12.113-27-27.001S339.112,419.999,354,419.999
			 M354,406.999c-22.092,0-40,17.909-40,40S331.908,487,354,487s40-17.91,40-40.001S376.092,406.999,354,406.999L354,406.999z"/>
	</g>
	<g>
		<circle style="fill:#0000FF;" cx="422" cy="304.999" r="35"/>
		<path d="M422,277.999c14.888,0,27,12.112,27,27S436.888,332,422,332s-27-12.113-27-27.001S407.112,277.999,422,277.999
			 M422,264.999c-22.092,0-40,17.909-40,40S399.908,345,422,345s40-17.91,40-40.001S444.092,264.999,422,264.999L422,264.999z"/>
	</g>
	<g>
		<circle style="fill:#0000FF;" cx="90" cy="120" r="35"/>
		<path d="M90,93c14.888,0,27,12.112,27,27s-12.112,27.001-27,27.001S63,134.888,63,120S75.112,93,90,93 M90,80
			c-22.092,0-40,17.909-40,40s17.908,40.001,40,40.001s40-17.91,40-40.001S112.092,80,90,80L90,80z"/>
	</g>
	<g>
		<circle style="fill:#FF0000;" cx="354" cy="205" r="35"/>
		<path d="M354,178c14.888,0,27,12.112,27,27s-12.112,27.001-27,27.001S327,219.888,327,205S339.112,178,354,178 M354,165
			c-22.092,0-40,17.909-40,40s17.908,40.001,40,40.001s40-17.91,40-40.001S376.092,165,354,165L354,165z"/>
	</g>
	<g>
		<circle style="fill:#FF0000;" cx="422" cy="63" r="35"/>
		<path d="M422,36c14.888,0,27,12.112,27,27s-12.112,27.001-27,27.001S395,77.888,395,63S407.112,36,422,36 M422,23
			c-22.092,0-40,17.909-40,40s17.908,40.001,40,40.001S462,85.091,462,63S444.092,23,422,23L422,23z"/>
	</g>
</g>
<g id="Ebene_1">
</g>
</svg>
