<svg id="Surface_of_Revolution" data-name="Surface of Revolution" xmlns="http://www.w3.org/2000/svg" xmlns:xlink="http://www.w3.org/1999/xlink" width="512" height="512" viewBox="0 0 512 512">
  <defs>
    <style>
      .cls-1, .cls-4 {
        fill: #930;
      }

      .cls-1 {
        opacity: 0.2;
      }

      .cls-2, .cls-3, .cls-6 {
        fill: none;
        stroke-miterlimit: 10;
        stroke-width: 13px;
      }

      .cls-2, .cls-3 {
        stroke: #930;
      }

      .cls-3 {
        stroke-dasharray: 13.22 13.22;
      }

      .cls-4, .cls-5 {
        opacity: 0.4;
      }

      .cls-5 {
        fill: url(#Unbenannter_Verlauf_51);
      }

      .cls-6 {
        stroke: blue;
      }
    </style>
    <linearGradient id="Unbenannter_Verlauf_51" data-name="Unbenannter Verlauf 51" x1="156.96" y1="120.23" x2="152.97" y2="385.09" gradientUnits="userSpaceOnUse">
      <stop offset="0" stop-color="#993415"/>
      <stop offset="0.5" stop-color="#fff"/>
      <stop offset="1" stop-color="#930"/>
    </linearGradient>
  </defs>
  <title>revolution</title>
  <rect x="-80.49" y="249.5" width="641.22" height="13"/>
  <g>
    <path d="M483.1,138.42H471c-1.55-6.87-3.24-13.45-5.08-19.66-10.78-36.52-23.2-49.48-30.55-49.48s-19.77,13-30.55,49.48S388.07,204,388.07,256s5.93,100.78,16.7,137.24,23.2,49.48,30.55,49.48,19.77-13,30.55-49.48c1.84-6.21,3.53-12.79,5.08-19.66H483.1C472.36,423.53,455,456,435.32,456c-32.62,0-59.06-89.54-59.06-200S402.7,56,435.32,56C455,56,472.36,88.47,483.1,138.42Z"/>
    <polygon points="491.06 456 495.92 325.49 441.55 374.12 491.06 456"/>
  </g>
  <ellipse class="cls-1" cx="286.35" cy="256" rx="35.67" ry="196"/>
  <g>
    <path class="cls-2" d="M50.82,145.36a9.22,9.22,0,0,1,5.89,2.42"/>
    <path class="cls-3" d="M64.18,158.58C73,177.27,79,213.89,79,256c0,47-7.46,87.18-18,103.2"/>
    <path class="cls-2" d="M56.71,364.22a9.22,9.22,0,0,1-5.89,2.42"/>
  </g>
  <path class="cls-4" d="M250.68,256c0-111,15.71-201.16,35.18-202.67-.19,0-.38,0-.58,0a10.46,10.46,0,0,0-6.35,2.38h0q-9.65,4.31-18.79,8.84c-42.41,21-77.47,44.66-115.56,60.62C116.13,137.06,86,144.65,49.82,143.5h0V144l-.35,0C33.73,144,21,194.14,21,256s12.76,112,28.5,112l.35,0v.28h0a218.91,218.91,0,0,1,25,.63c74.16,6.16,124,49.9,196.23,83.61,2.38,1.1,4.77,2.2,7.19,3.28a10.89,10.89,0,0,0,7,2.92c.2,0,.39,0,.58,0C266.39,457.16,250.68,367,250.68,256Z"/>
  <path class="cls-5" d="M250.68,256c0-111,15.71-201.16,35.18-202.67-.19,0-.38,0-.58,0a10.46,10.46,0,0,0-6.35,2.38h0q-9.65,4.31-18.79,8.84c-42.41,21-77.47,44.66-115.56,60.62C116.13,137.06,86,144.65,49.82,143.5h0V144l-.35,0C33.73,144,21,194.14,21,256s12.76,112,28.5,112l.35,0v.28h0a218.91,218.91,0,0,1,25,.63c74.16,6.16,124,49.9,196.23,83.61,2.38,1.1,4.77,2.2,7.19,3.28a10.89,10.89,0,0,0,7,2.92c.2,0,.39,0,.58,0C266.39,457.16,250.68,367,250.68,256Z"/>
  <path class="cls-2" d="M50.82,366.64c-15.55,0-28.16-49.54-28.16-110.64S35.27,145.36,50.82,145.36"/>
  <ellipse class="cls-2" cx="286.28" cy="256" rx="41.28" ry="202.7"/>
  <path class="cls-6" d="M-27,123.77C191.35,190.66,207.12-14.9,517.68,16.55"/>
  <rect x="251.72" y="249.5" width="309" height="13"/>
</svg>
