<?xml version="1.0" encoding="iso-8859-1"?>
<!-- Generator: Adobe Illustrator 15.1.0, SVG Export Plug-In . SVG Version: 6.00 Build 0)  -->
<!DOCTYPE svg PUBLIC "-//W3C//DTD SVG 1.1//EN" "http://www.w3.org/Graphics/SVG/1.1/DTD/svg11.dtd">
<svg version="1.1" xmlns="http://www.w3.org/2000/svg" xmlns:xlink="http://www.w3.org/1999/xlink" x="0px" y="0px" width="512px"
	 height="512px" viewBox="0 0 512 512" style="enable-background:new 0 0 512 512;" xml:space="preserve">
<g id="mode_x5F_moverotate">
	<polygon style="fill:#FFFFFF;stroke:#000000;stroke-width:13;stroke-miterlimit:10;" points="298.769,426.168 339.895,405.605 
		271.351,265.088 357.031,256.521 168.533,92.013 165.106,350.77 228.51,285.652 	"/>
	<path style="opacity:0.2;fill:#666666;" d="M75.378,439.352l176.474-59.098c0,0-26.752-92.754-130.552-121.254L75.378,439.352z"/>
	<path style="fill:none;stroke:#666666;stroke-width:13;stroke-miterlimit:10;" d="M75.378,439.352l176.474-59.098
		c0,0-26.752-92.754-130.552-121.254L75.378,439.352z"/>
	<path style="fill:#666666;" d="M149.162,386.185c-8.7,0-16.673-4.267-21.107-11.738L128,374.352
		c-10.538-18.682-4.697-41.619,6.758-52.158c8.512-7.83,19.37-8.577,29.046-2.002l0.229,0.165
		c4.484,3.432,7.683,7.421,10.058,11.743c2.521-7.033,4.618-9.866,6.309-12.15c0.916-1.237,1.375-1.858,1.774-3.086l9.51,3.092
		c-0.903,2.776-2.094,4.387-3.247,5.943c-1.903,2.571-4.746,6.411-8.654,22.396c0.638,2.839,1.176,5.703,1.71,8.546
		c1.644,8.748,3.197,17.012,7.455,23.715l-8.441,5.361c-2.979-4.691-4.854-9.79-6.234-15.01
		c-4.503,7.93-11.288,12.497-17.808,14.283C154.015,385.859,151.56,386.185,149.162,386.185z M136.682,369.389
		c3.34,5.577,10.221,8.051,17.141,6.155c9.803-2.685,15.664-12.654,15.677-26.668l0.001-0.584
		c-1.971-7.858-4.948-14.889-11.434-19.907c-7.299-4.891-13.019-2.07-16.539,1.168C132.853,337.534,128.843,355.435,136.682,369.389
		z"/>
	<g>
		<circle style="fill:#0000FF;" cx="67.798" cy="447.129" r="35"/>
		<path d="M67.798,420.129c14.889,0,27,12.112,27,27s-12.111,27.001-27,27.001c-14.887,0-27-12.113-27-27.001
			S52.911,420.129,67.798,420.129 M67.798,407.129c-22.092,0-40,17.909-40,40s17.908,40.001,40,40.001s40-17.91,40-40.001
			S89.89,407.129,67.798,407.129L67.798,407.129z"/>
	</g>
</g>
<g id="Ebene_1">
</g>
</svg>
