<svg xmlns="http://www.w3.org/2000/svg" width="512" height="512" viewBox="0 0 512 512"><path fill="red" d="M75.678 386.225H56.635C33.976 345.209 22.65 301.85 22.65 256.146c0-45.896 11.325-89.355 33.984-130.371h19.043c-16.406 46.097-24.609 89.552-24.609 130.371 0 39.844 8.203 83.204 24.61 130.079z"/><path d="M183.49 386.225h-19.043c-22.659-41.016-33.984-84.375-33.984-130.078 0-45.896 11.325-89.355 33.984-130.371h19.043c-16.406 46.097-24.609 89.552-24.609 130.371 0 39.843 8.203 83.203 24.609 130.078zm198.047-130.079c0 45.511-11.233 88.87-33.691 130.078H328.51c16.406-46.875 24.609-90.234 24.609-130.078 0-40.819-8.203-84.274-24.609-130.371h19.336c22.458 41.213 33.691 84.668 33.691 130.371z"/><path fill="red" d="M489.35 256.146c0 45.511-11.233 88.87-33.691 130.078h-19.336c16.406-46.875 24.609-90.234 24.609-130.078 0-40.819-8.203-84.274-24.609-130.371h19.336c22.457 41.213 33.691 84.668 33.691 130.371z"/></svg>