<svg xmlns="http://www.w3.org/2000/svg" width="512" height="512" viewBox="0 0 512 512"><g fill="none" stroke="#930" stroke-width="13"><path d="M75 387.5l10.61-6.61"/><path stroke-dasharray="27.52 27.52" d="M108.97 366.33l81.74-50.94"/><path d="M202.39 308.11L213 301.5"/></g><g fill="none" stroke="#930" stroke-width="13"><path d="M213 59.5V72"/><path stroke-dasharray="24.11 24.11" d="M213 96.11v180.83"/><path d="M213 289v12.5"/></g><g fill="none" stroke="#930" stroke-width="13"><path d="M213 301.5l12 3.48"/><path stroke-dasharray="23.14 23.14" d="M247.23 311.43l166.65 48.36"/><path d="M425 363.02l12 3.48"/></g><circle cx="213" cy="301.5" r="35" fill="#f99"/><path fill="#666" d="M213 274.5c14.888 0 27 12.113 27 27 0 14.889-12.112 27.002-27 27.002s-27-12.113-27-27.002c0-14.887 12.112-27 27-27m0-13c-22.092 0-40 17.91-40 40 0 22.092 17.908 40.002 40 40.002s40-17.91 40-40.002c0-22.09-17.908-40-40-40z"/><path fill="#930" d="M75 145.5l224 65 138-86-224-65z" opacity=".2"/><path fill="#fff" d="M75 145.5l224 65 138-86-224-65z" opacity=".2"/><path fill="#930" d="M75 387.5l224 65v-242l-224-65z" opacity=".2"/><linearGradient id="a" x1="54.25" x2="319.75" y1="166.25" y2="431.75" gradientUnits="userSpaceOnUse"><stop offset="0" stop-color="#fff" stop-opacity="0"/><stop offset=".58" stop-color="#c38668" stop-opacity=".58"/><stop offset="1" stop-color="#930"/></linearGradient><path fill="url(#a)" d="M75 387.5l224 65v-242l-224-65z" opacity=".4"/><path fill="#930" d="M437 366.5v-242l-138 86v242z" opacity=".2"/><linearGradient id="b" x1="281.67" x2="454.33" y1="244.51" y2="332.49" gradientUnits="userSpaceOnUse"><stop offset="0" stop-color="#fff"/><stop offset="1" stop-color="#930"/></linearGradient><path fill="url(#b)" d="M437 366.5v-242l-138 86v242z" opacity=".4"/><path fill="none" stroke="#930" stroke-width="13" d="M75 145.5l224 65m-86-151l224 65m-138 86l138-86m-362 21l138-86m-138 86v242m224-177v242m138-328v242m-138 86l138-86m-362 21l224 65"/><circle cx="75" cy="387.5" r="35" fill="red"/><path d="M75 360.498c14.888 0 27 12.113 27 27 0 14.889-12.112 27.002-27 27.002s-27-12.113-27-27.002c0-14.887 12.112-27 27-27m0-13c-22.092 0-40 17.91-40 40C35 409.59 52.908 427.5 75 427.5s40-17.91 40-40.002c0-22.09-17.908-40-40-40z"/><circle cx="299" cy="452.5" r="35" fill="#00f"/><path d="M299 425.498c14.888 0 27 12.113 27 27 0 14.889-12.112 27.002-27 27.002s-27-12.113-27-27.002c0-14.887 12.112-27 27-27m0-13c-22.092 0-40 17.91-40 40 0 22.092 17.908 40.002 40 40.002s40-17.91 40-40.002c0-22.09-17.908-40-40-40z"/><circle cx="75" cy="145.5" r="35" fill="red"/><path d="M75 118.5c14.888 0 27 12.112 27 27s-12.112 27-27 27-27-12.113-27-27 12.112-27 27-27m0-13c-22.092 0-40 17.909-40 40s17.908 40 40 40 40-17.91 40-40.001S97.092 105.5 75 105.5z"/><circle cx="213" cy="59.5" r="35" fill="red"/><path d="M213 32.5c14.888 0 27 12.112 27 27s-12.112 27.001-27 27.001-27-12.113-27-27.001 12.112-27 27-27m0-13c-22.092 0-40 17.909-40 40s17.908 40.001 40 40.001 40-17.91 40-40.001-17.908-40-40-40z"/><circle cx="299" cy="210.5" r="35" fill="red"/><path d="M299 183.5c14.888 0 27 12.112 27 27s-12.112 27-27 27-27-12.113-27-27.001 12.112-26.999 27-26.999m0-13c-22.092 0-40 17.909-40 40s17.908 40.001 40 40.001 40-17.91 40-40.001-17.908-40-40-40z"/><circle cx="437" cy="366.5" r="35" fill="#00f"/><path d="M437 339.5c14.888 0 27 12.111 27 27 0 14.887-12.112 27-27 27s-27-12.113-27-27c0-14.889 12.112-27 27-27m0-13c-22.092 0-40 17.908-40 40 0 22.09 17.908 40 40 40s40-17.91 40-40c0-22.092-17.908-40-40-40z"/><circle cx="437" cy="124.5" r="35" fill="red"/><path d="M437 97.5c14.888 0 27 12.112 27 27s-12.112 27.001-27 27.001-27-12.113-27-27.001 12.112-27 27-27m0-13c-22.092 0-40 17.909-40 40s17.908 40.001 40 40.001 40-17.91 40-40.001-17.908-40-40-40z"/></svg>