<?xml version="1.0" encoding="iso-8859-1"?>
<!-- Generator: Adobe Illustrator 15.1.0, SVG Export Plug-In . SVG Version: 6.00 Build 0)  -->
<!DOCTYPE svg PUBLIC "-//W3C//DTD SVG 1.1//EN" "http://www.w3.org/Graphics/SVG/1.1/DTD/svg11.dtd">
<svg version="1.1" xmlns="http://www.w3.org/2000/svg" xmlns:xlink="http://www.w3.org/1999/xlink" x="0px" y="0px" width="512px"
	 height="512px" viewBox="0 0 512 512" style="enable-background:new 0 0 512 512;" xml:space="preserve">
<g id="mode_x5F_delete">
	<g>
		<path d="M341.91,230.707c-0.187-1.155-0.894-2.286-1.952-3.37c-8.539,8.676-42.897,10.112-83.974,10.112
			c-41.077,0-75.402-1.436-83.979-10.112c-1.055,1.083-1.713,2.215-1.954,3.37h-0.079l0.023,0.626c0,0.072-0.023,0.144-0.023,0.218
			c0,0.169,0.048,0.319,0.072,0.479l6.687,136.991h0.016C177.341,379.764,189.639,396,255.984,396
			c66.354,0,78.659-16.236,79.236-26.979h0.049l6.694-136.991c0.012-0.16,0.064-0.311,0.064-0.479c0-0.074-0.053-0.146-0.053-0.218
			l0.053-0.626H341.91z"/>
		<path d="M296.868,159.01v-32.344c0-5.842-4.781-10.666-10.658-10.666h-64.014c-5.837,0-10.642,4.823-10.642,10.666v32.713
			c-31.646,3.59-53.314,10.858-53.314,19.281v15.988c0,3.281,3.321,6.402,9.282,9.218c15.61,7.336,49.358,12.421,88.462,12.421
			c39.135,0,72.866-5.085,88.498-12.421c5.924-2.816,9.277-5.937,9.277-9.218V178.66C353.76,169.942,330.424,162.439,296.868,159.01
			z M232.018,157.67l-2.698,0.169V144.44c0-5.858,0.817-10.656,1.785-10.656c0.994,0,6.585,0,12.449,0h21.329
			c5.842,0,11.457,0,12.437,0c0.981,0,1.783,4.797,1.783,10.656v13.182c-7.416-0.385-15.133-0.625-23.118-0.625
			C247.709,156.997,239.672,157.237,232.018,157.67z"/>
	</g>
</g>
<g id="Ebene_1">
</g>
</svg>
