<?xml version="1.0" encoding="iso-8859-1"?>
<!-- Generator: Adobe Illustrator 15.1.0, SVG Export Plug-In . SVG Version: 6.00 Build 0)  -->
<!DOCTYPE svg PUBLIC "-//W3C//DTD SVG 1.1//EN" "http://www.w3.org/Graphics/SVG/1.1/DTD/svg11.dtd">
<svg version="1.1" xmlns="http://www.w3.org/2000/svg" xmlns:xlink="http://www.w3.org/1999/xlink" x="0px" y="0px" width="512px"
	 height="512px" viewBox="0 0 512 512" style="enable-background:new 0 0 512 512;" xml:space="preserve">
<g id="mode_x5F_maxcells">
	
		<rect id="rect3021" x="313.739" y="129.314" style="fill:none;stroke:#666666;stroke-width:17;" width="169.854" height="253.371"/>
	<g>
		<path d="M98.094,357.133H72.117V188.695c-10.391,7.293-24.977,15.039-43.75,23.242v-23.242
			c8.02-4.922,15.539-10.297,22.559-16.133c7.016-5.832,11.984-10.254,14.902-13.262c2.914-3.008,4.375-4.418,4.375-4.238h27.891
			V357.133z"/>
	</g>
	<g>
		<path d="M271.504,357.133H149.551v-25.977c23.695-26.43,42.52-47.441,56.465-63.027c13.945-15.586,23.695-27.618,29.258-36.094
			c5.559-8.477,8.34-15.902,8.34-22.285c0-12.211-2.371-21.191-7.109-26.934c-4.742-5.742-12.672-8.613-23.789-8.613
			c-9.844,0-17.227,2.828-22.148,8.477c-4.922,5.652-8.113,14.676-9.57,27.07h-28.438c2.914-39.191,22.969-58.789,60.156-58.789
			c18.41,0,32.813,5.605,43.203,16.816s15.586,23.926,15.586,38.145c0,4.375-0.367,8.387-1.094,12.031
			c-0.73,3.648-1.914,7.52-3.555,11.621s-3.875,8.34-6.699,12.715c-2.828,4.375-6.383,9.344-10.664,14.903
			c-4.285,5.563-9.344,11.621-15.176,18.184c-5.836,6.563-12.625,14.219-20.371,22.969c-7.75,8.75-16.543,18.414-26.387,28.984
			c-3.102,3.465-5.469,6.109-7.109,7.93h91.055V357.133z"/>
	</g>
	<g>
		<path d="M465.879,302.992c0,16.59-6.246,30.398-18.73,41.426c-12.488,11.031-28.301,16.543-47.441,16.543
			c-21.148,0-37.188-5.648-48.125-16.953c-10.938-11.301-16.406-24.699-16.406-40.195h29.805
			c2.188,23.699,14.035,35.547,35.547,35.547c9.477,0,18.09-3.418,25.84-10.254c7.746-6.836,11.621-14.719,11.621-23.652
			c0-28.801-18.867-42.93-56.602-42.383v-22.422c17.5,0,30.762-3.008,39.785-9.023s13.535-15.766,13.535-29.258
			c0-10.57-3.691-18.184-11.074-22.832s-15.359-6.973-23.926-6.973c-17.32,0-27.984,11.668-31.992,35h-28.438
			c2.367-18.227,8.656-32.219,18.867-41.973c10.207-9.75,23.879-14.629,41.016-14.629c18.773,0,34.043,5.059,45.801,15.176
			s17.637,22.832,17.637,38.145c0,6.383-1.324,12.305-3.965,17.773c-2.645,5.469-5.879,9.801-9.707,12.988
			c-3.828,3.191-7.84,6.289-12.031,9.297c-4.195,3.008-7.75,5.242-10.664,6.699c1.273,0.73,4.008,2.188,8.203,4.375
			c4.191,2.188,7.746,4.333,10.664,6.426c2.914,2.098,6.152,4.969,9.707,8.613c3.555,3.648,6.289,8.203,8.203,13.672
			S465.879,295.883,465.879,302.992z"/>
	</g>
</g>
<g id="Ebene_1">
</g>
</svg>
