<?xml version="1.0" encoding="iso-8859-1"?>
<!-- Generator: Adobe Illustrator 15.1.0, SVG Export Plug-In . SVG Version: 6.00 Build 0)  -->
<!DOCTYPE svg PUBLIC "-//W3C//DTD SVG 1.1//EN" "http://www.w3.org/Graphics/SVG/1.1/DTD/svg11.dtd">
<svg version="1.1" xmlns="http://www.w3.org/2000/svg" xmlns:xlink="http://www.w3.org/1999/xlink" x="0px" y="0px" width="512px"
	 height="512px" viewBox="0 0 512 512" style="enable-background:new 0 0 512 512;" xml:space="preserve">
<g id="mode_x5F_textfieldaction">
	<path style="fill:none;stroke:#999999;stroke-width:13;stroke-miterlimit:10;" d="M491.5,368.666
		c0,12.887-13.083,27.334-29.221,27.334h-91.559c-16.138,0-29.221-14.447-29.221-27.334V143.333
		c0-12.886,13.083-27.333,29.221-27.333h91.559c16.138,0,29.221,14.447,29.221,27.333V368.666z"/>
	<g>
		<path d="M143.793,326.904h-17.969c-1.435-7.55-2.216-12.433-2.344-14.648c-3.388,4.037-6.122,7.064-8.203,9.082
			c-2.084,2.021-5.078,3.876-8.984,5.566s-8.334,2.539-13.281,2.539c-9.506,0-18.262-2.569-26.27-7.715
			c-8.008-5.143-12.012-12.207-12.012-21.191c0-5.859,1.138-11.002,3.418-15.43c2.276-4.425,5.206-7.975,8.789-10.645
			c3.58-2.667,7.843-4.85,12.793-6.543c4.947-1.69,9.766-2.832,14.453-3.418s9.634-0.879,14.844-0.879
			c1.563,0,3.839,0.067,6.836,0.195c2.994,0.131,5.273,0.195,6.836,0.195c1.69-7.682,0.714-13.996-2.93-18.946
			c-3.647-4.947-9.833-7.422-18.555-7.422c-6.122,0-11.396,1.303-15.82,3.906c-4.428,2.606-6.641,6.708-6.641,12.305H60.199
			c0-19.659,13.409-29.492,40.234-29.492c21.222,0,34.048,5.664,38.477,16.992c1.563,3.647,2.344,14.194,2.344,31.641v17.383
			C141.254,309.784,142.099,321.957,143.793,326.904z M122.504,277.686c-6.641-0.391-10.092-0.586-10.352-0.586
			c-3.778,0-7.617,0.293-11.523,0.879s-8.075,1.563-12.5,2.93c-4.428,1.367-8.008,3.549-10.742,6.543
			c-2.734,2.997-4.102,6.576-4.102,10.742c0,5.469,1.953,9.833,5.859,13.086c3.906,3.256,8.594,4.883,14.063,4.883
			c11.456,0,19.205-3.351,23.242-10.059C120.483,299.398,122.504,289.926,122.504,277.686z"/>
		<path d="M315.277,254.833H195.355v-12.305h119.922V254.833z M315.277,291.357H195.355v-12.5h119.922V291.357z"/>
		<path d="M431.098,326.904h-18.555V206.591c-7.422,5.209-17.841,10.742-31.25,16.602v-16.602c5.729-3.516,11.1-7.354,16.113-11.523
			c5.011-4.166,8.561-7.324,10.645-9.473c2.081-2.148,3.125-3.155,3.125-3.027h19.922V326.904z"/>
	</g>
</g>
<g id="Ebene_1">
</g>
</svg>
