<?xml version="1.0" encoding="iso-8859-1"?>
<!-- Generator: Adobe Illustrator 15.1.0, SVG Export Plug-In . SVG Version: 6.00 Build 0)  -->
<!DOCTYPE svg PUBLIC "-//W3C//DTD SVG 1.1//EN" "http://www.w3.org/Graphics/SVG/1.1/DTD/svg11.dtd">
<svg version="1.1" xmlns="http://www.w3.org/2000/svg" xmlns:xlink="http://www.w3.org/1999/xlink" x="0px" y="0px" width="512px"
	 height="512px" viewBox="0 0 512 512" style="enable-background:new 0 0 512 512;" xml:space="preserve">
<g id="mode_x5F_intersect">
	<path d="M376.173,525.319C326.021,330.76,182.793,165.572-16.785,72.112l5.513-11.773
		c203.104,95.111,348.911,263.407,400.033,461.736L376.173,525.319z"/>
	
		<line style="fill:none;stroke:#000000;stroke-width:13;stroke-miterlimit:10;" x1="-9.287" y1="392.691" x2="526.021" y2="147.536"/>
	<g>
		<circle style="fill:#FF0000;" cx="252.911" cy="272.83" r="35"/>
		<path d="M252.911,245.83c14.888,0,27,12.112,27,27s-12.112,27-27,27s-27-12.112-27-27S238.023,245.83,252.911,245.83
			 M252.911,232.83c-22.091,0-40,17.909-40,40s17.909,40,40,40c22.092,0,40-17.909,40-40S275.003,232.83,252.911,232.83
			L252.911,232.83z"/>
	</g>
</g>
<g id="Ebene_1">
</g>
</svg>
