<svg xmlns="http://www.w3.org/2000/svg" width="512" height="512" viewBox="0 0 512 512"><path fill="#930" d="M107 316.89l217.09 71.54 56.97-118.95z" opacity=".2"/><path fill="#930" d="M90.74 321.81l300.11-53.16-319.9-136.04z" opacity=".2"/><path fill="#930" d="M86.165 153.208l259.3 110.272-243.316 43.037-15.984-153.309m-15.219-20.599l19.72 189.141 300.184-53.095L70.946 132.609z"/><path fill="#930" d="M90.54 321.75l238 77.03L0 449.46z" opacity=".2"/><path fill="#930" d="M95.621 337.059l176.793 57.219-244.049 37.624 67.256-94.843M90.54 321.75L0 449.429l328.539-50.65L90.54 321.75z"/><path fill="#930" d="M390.85 268.65l-62.31 130.13L512 197.43z" opacity=".2"/><path fill="#930" d="M444.529 252.177l-66.128 72.575 22.46-46.902 43.668-25.673M512 197.429l-121.149 71.227-62.312 130.123L512 197.429z"/><path fill="#00f" d="M98.37 318.15L326 391.78 241.5 62.41z" opacity=".2"/><path fill="#00f" d="M384.63 269.34L326 391.78 241.5 62.41z" opacity=".2"/><linearGradient id="a" x1="241.5" x2="384.63" y1="227.09" y2="227.09" gradientUnits="userSpaceOnUse"><stop offset="0" stop-color="#fff"/><stop offset="1" stop-color="#00f"/></linearGradient><path fill="url(#a)" d="M384.63 269.34L326 391.78 241.5 62.41z" opacity=".5"/><g fill="none" stroke="#00f" stroke-width="13"><path d="M98.37 318.15l12.32-2.1"/><path stroke-dasharray="24.13 24.13" d="M134.48 312l225.94-38.53"/><path d="M372.31 271.44l12.32-2.1"/></g><path fill="none" stroke="#00f" stroke-width="13" d="M241.5 62.41L326 391.78"/><path fill="#00f" d="M328.94 398.62l-238.7-77.17 9.86-8.63 222.96 72.12 56.52-118.02 11.59 1.96z"/><path fill="#00f" d="M106.6 314.92l-16.36 6.53L241 51.83l150.17 217.05-13 .97L242 72.99z"/></svg>