<svg xmlns="http://www.w3.org/2000/svg" width="512" height="512" viewBox="0 0 512 512"><path d="M373.578 202.281v13.666c6.876 1.74 13.449 3.64 19.658 5.702 36.523 12.127 49.482 26.084 49.482 34.352s-12.959 22.225-49.482 34.352c-36.461 12.105-85.199 18.773-137.236 18.773s-100.775-6.668-137.236-18.773C82.241 278.225 69.281 264.268 69.281 256s12.959-22.225 49.483-34.352c6.208-2.062 12.781-3.961 19.658-5.702V202.28C88.474 214.354 56 233.917 56 256c0 36.676 89.543 66.406 200 66.406S456 292.676 456 256c0-22.083-32.474-41.646-82.422-53.719z"/><path d="M56 194.32l130.51-4.86-48.63 54.37zm269.276 179.258h-13.665c-1.74 6.876-3.641 13.449-5.702 19.658-12.127 36.523-26.084 49.482-34.352 49.482-8.267 0-22.225-12.959-34.352-49.482C225.1 356.775 218.433 308.037 218.433 256s6.667-100.776 18.773-137.236c12.127-36.523 26.085-49.483 34.352-49.483 8.268 0 22.225 12.959 34.352 49.483 2.062 6.208 3.962 12.781 5.702 19.658h13.665C313.203 88.474 293.641 56 271.558 56c-36.675 0-66.406 89.543-66.406 200s29.731 200 66.406 200c22.083 0 41.645-32.474 53.718-82.422z"/><path d="M333.24 56l4.86 130.51-54.37-48.63z"/></svg>