<svg xmlns="http://www.w3.org/2000/svg" width="512" height="512" viewBox="0 0 512 512"><path d="M375.922 220.063c-18.494 17.45-41.278 26.172-68.359 26.172-12.763 0-31.189-4.229-55.273-12.695-24.091-8.459-43.036-12.561-56.836-12.305-11.719.263-21.942 2.802-30.664 7.617-8.728 4.822-18.298 12.439-28.711 22.852V223.97c18.75-18.75 42.188-27.734 70.313-26.953 11.975.263 29.492 4.492 52.539 12.695s40.948 12.305 53.711 12.305c12.237 0 23.047-2.472 32.422-7.422 9.375-4.944 19.659-12.366 30.859-22.266v27.734zm0 67.968c-18.494 17.45-41.278 26.172-68.359 26.172-12.763 0-31.189-4.229-55.273-12.695-24.091-8.459-43.036-12.561-56.836-12.305-11.719.263-21.942 2.802-30.664 7.617-8.728 4.822-18.298 12.439-28.711 22.852v-27.734c18.75-18.75 42.188-27.734 70.313-26.953 11.975.263 29.492 4.492 52.539 12.695s40.948 12.305 53.711 12.305c12.237 0 23.047-2.472 32.422-7.422 9.375-4.943 19.659-12.365 30.859-22.266v27.734z"/></svg>