<?xml version="1.0" encoding="iso-8859-1"?>
<!-- Generator: Adobe Illustrator 15.1.0, SVG Export Plug-In . SVG Version: 6.00 Build 0)  -->
<!DOCTYPE svg PUBLIC "-//W3C//DTD SVG 1.1//EN" "http://www.w3.org/Graphics/SVG/1.1/DTD/svg11.dtd">
<svg version="1.1" xmlns="http://www.w3.org/2000/svg" xmlns:xlink="http://www.w3.org/1999/xlink" x="0px" y="0px" width="512px"
	 height="512px" viewBox="0 0 512 512" style="enable-background:new 0 0 512 512;" xml:space="preserve">
<g id="mode_x5F_nsolve">
	<g>
		<path d="M209.271,331h-34.277l-43.945-59.18L88.568,331H56.928l59.766-77.637L61.615,181h34.277l39.551,53.613L173.822,181h31.348
			l-55.664,72.363L209.271,331z"/>
		<path style="fill:#FF0000;" d="M455.072,213.813c-13.87,13.087-30.959,19.629-51.27,19.629c-9.572,0-23.392-3.172-41.455-9.521
			c-18.068-6.345-32.277-9.421-42.627-9.229c-8.789,0.197-16.457,2.101-22.998,5.713c-6.546,3.616-13.724,9.329-21.533,17.139
			v-20.801c14.063-14.063,31.641-20.801,52.734-20.215c8.981,0.197,22.119,3.369,39.404,9.521s30.711,9.229,40.283,9.229
			c9.178,0,17.285-1.854,24.316-5.566c7.031-3.708,14.744-9.274,23.145-16.699V213.813z M455.072,264.789
			c-13.87,13.088-30.959,19.629-51.27,19.629c-9.572,0-23.392-3.172-41.455-9.521c-18.068-6.345-32.277-9.421-42.627-9.229
			c-8.789,0.197-16.457,2.102-22.998,5.713c-6.546,3.616-13.724,9.329-21.533,17.139v-20.801
			c14.063-14.063,31.641-20.801,52.734-20.215c8.981,0.197,22.119,3.369,39.404,9.521s30.711,9.229,40.283,9.229
			c9.178,0,17.285-1.854,24.316-5.566c7.031-3.708,14.744-9.274,23.145-16.699V264.789z"/>
	</g>
</g>
<g id="Ebene_1">
</g>
</svg>
