<svg xmlns="http://www.w3.org/2000/svg" width="512" height="512" viewBox="0 0 512 512"><path d="M65.5 178.59h13v191.18h-13z"/><path d="M30.8 190.39L72 25.59l41.2 164.8z"/><g fill="none" stroke="#00f" stroke-width="13"><path d="M140.14 361.12l12.32-2.1"/><path stroke-dasharray="23.98 23.98" d="M176.1 354.98l271.89-46.35"/><path d="M459.81 306.61l12.33-2.1"/></g><path fill="#00f" d="M140 361.61L404 447l68-142z" opacity=".4"/><path fill="#930" d="M140.14 361.12l264 85.39-98-382z" opacity=".2"/><linearGradient id="a" x1="217.23" x2="461.36" y1="209.81" y2="334.2" gradientUnits="userSpaceOnUse"><stop offset="0" stop-color="#fff"/><stop offset="1" stop-color="#930"/></linearGradient><path fill="url(#a)" d="M140.14 361.12l264 85.39-98-382z" opacity=".4"/><path fill="#930" d="M472.14 304.51l-68 142-98-382z" opacity=".2"/><linearGradient id="b" x1="306.14" x2="472.14" y1="255.51" y2="255.51" gradientUnits="userSpaceOnUse"><stop offset="0" stop-color="#fff"/><stop offset="1" stop-color="#930"/></linearGradient><path fill="url(#b)" d="M472.14 304.51l-68 142-98-382z" opacity=".5"/><path fill="none" stroke="#930" stroke-width="13" d="M306.14 64.51l98 382"/><path fill="#00f" d="M407.54 454.44l-276.83-89.5 11.43-10.01 258.59 83.64 65.54-136.87 13.45 2.27z"/><path fill="#930" d="M149.68 357.37l-18.97 7.57 174.84-312.7 174.17 251.73-15.08 1.13L306.72 76.78z"/></svg>