<?xml version="1.0" encoding="iso-8859-1"?>
<!-- Generator: Adobe Illustrator 19.2.1, SVG Export Plug-In . SVG Version: 6.00 Build 0)  -->
<svg version="1.1" xmlns="http://www.w3.org/2000/svg" xmlns:xlink="http://www.w3.org/1999/xlink" x="0px" y="0px"
	 viewBox="0 0 512 512" style="enable-background:new 0 0 512 512;" xml:space="preserve">
<g id="mode_x5F_extremum">
	<g>
		<line style="fill:none;stroke:#CCCCCC;stroke-width:13;stroke-miterlimit:10;" x1="-13" y1="256" x2="525" y2="256"/>
	</g>
	<path style="fill:none;stroke:#000000;stroke-width:13;stroke-miterlimit:10;" d="M12.157,522.083
		c48.055-330,122.797-613.705,243.605-265.999c121.803,350.571,192.696,63.998,244.082-266.168"/>
	<g>
		
			<ellipse transform="matrix(0.8191 -0.5736 0.5736 0.8191 -173.8466 281.8368)" style="fill:#FF0000;" cx="360.004" cy="416.598" rx="35.001" ry="34.999"/>
		<path d="M382.122,401.112c8.537,12.193,5.563,29.064-6.631,37.603c-12.195,8.539-29.066,5.564-37.605-6.631
			c-8.539-12.195-5.565-29.064,6.631-37.603C356.712,385.942,373.581,388.917,382.122,401.112 M392.77,393.655
			c-12.672-18.096-37.615-22.492-55.709-9.822c-18.096,12.67-22.496,37.613-9.824,55.708c12.672,18.098,37.613,22.494,55.709,9.824
			C401.042,436.694,405.442,411.752,392.77,393.655L392.77,393.655z"/>
	</g>
	<g>
		
			<ellipse transform="matrix(0.8191 -0.5736 0.5736 0.8191 -28.3176 105.4097)" style="fill:#FF0000;" cx="152.996" cy="97.61" rx="35.001" ry="34.999"/>
		<path d="M175.114,82.124c8.537,12.193,5.563,29.064-6.631,37.603c-12.195,8.539-29.066,5.564-37.605-6.631
			c-8.539-12.195-5.564-29.064,6.631-37.603C149.704,66.954,166.573,69.929,175.114,82.124 M185.763,74.667
			c-12.672-18.096-37.615-22.492-55.709-9.822c-18.096,12.67-22.496,37.613-9.824,55.709c12.672,18.098,37.613,22.494,55.709,9.824
			C194.034,117.705,198.435,92.764,185.763,74.667L185.763,74.667z"/>
	</g>
</g>
<g id="Layer_1">
</g>
</svg>
