<?xml version="1.0" encoding="iso-8859-1"?>
<!-- Generator: Adobe Illustrator 15.1.0, SVG Export Plug-In . SVG Version: 6.00 Build 0)  -->
<!DOCTYPE svg PUBLIC "-//W3C//DTD SVG 1.1//EN" "http://www.w3.org/Graphics/SVG/1.1/DTD/svg11.dtd">
<svg version="1.1" xmlns="http://www.w3.org/2000/svg" xmlns:xlink="http://www.w3.org/1999/xlink" x="0px" y="0px" width="512px"
	 height="512px" viewBox="0 0 512 512" style="enable-background:new 0 0 512 512;" xml:space="preserve">
<g id="mode_x5F_circlepointradiusdirection">
	<rect x="249.5" y="153" width="13" height="191.179"/>
	<polygon points="214.8,164.8 256,0 297.2,164.8 	"/>
	<rect x="256" y="373" style="fill:#1A171B;" width="202" height="13"/>
	<g>
		<circle style="fill:#0000FF;" cx="256" cy="379.179" r="35"/>
		<path d="M256,352.179c14.888,0,27,12.112,27,27s-12.112,27-27,27s-27-12.112-27-27S241.112,352.179,256,352.179 M256,339.179
			c-22.092,0-40,17.909-40,40s17.908,40,40,40s40-17.909,40-40S278.092,339.179,256,339.179L256,339.179z"/>
	</g>
	<path style="display:none;fill:#FF0000;" d="M401.927,282.903c-31.906-19.941-72.277-32.569-115.927-36.546v17.073
		c40.412,3.877,77.606,15.57,106.916,33.889c35.199,21.999,54.584,50.83,54.584,81.181s-19.385,59.181-54.584,81.181
		C356.475,482.456,307.85,495,256,495s-100.475-12.544-136.916-35.319c-35.199-22-54.584-50.83-54.584-81.181
		s19.385-59.182,54.584-81.181c29.311-18.318,66.504-30.012,106.916-33.889v-17.073c-43.649,3.977-84.021,16.604-115.926,36.546
		C69.723,308.123,47.5,342.073,47.5,378.5s22.223,70.377,62.574,95.596C149.182,498.539,201.006,512,256,512
		s106.818-13.461,145.927-37.904c40.351-25.219,62.573-59.169,62.573-95.596S442.277,308.123,401.927,282.903z"/>
	<path style="display:none;fill:#FF0000;" d="M286,245.884v14.046c16.32,1.575,32.21,4.446,47.491,8.592
		c23.448,6.363,44.437,15.426,62.382,26.938c35.227,22.597,54.627,52,54.627,82.791s-19.4,60.194-54.627,82.792
		c-17.945,11.511-38.934,20.573-62.382,26.936C308.981,494.628,282.909,498,256,498c-26.91,0-52.981-3.372-77.492-10.022
		c-23.447-6.362-44.436-15.425-62.381-26.936C80.9,438.444,61.5,409.041,61.5,378.25s19.4-60.194,54.627-82.791
		c17.945-11.512,38.934-20.574,62.381-26.938c15.282-4.146,31.172-7.017,47.492-8.592v-14.046
		C125.064,255.215,47.5,310.918,47.5,378.25C47.5,452.118,140.849,512,256,512s208.5-59.882,208.5-133.75
		C464.5,310.918,386.936,255.215,286,245.884z"/>
	<path style="fill:#FF0000;" d="M286,247.26v13.041c16.416,1.57,32.398,4.441,47.77,8.59c23.551,6.357,44.636,15.416,62.669,26.924
		c35.507,22.659,55.062,52.181,55.062,83.127s-19.555,60.469-55.062,83.128c-18.033,11.508-39.118,20.566-62.669,26.924
		C309.169,495.633,283.004,499,256,499c-27.003,0-53.169-3.367-77.77-10.007c-23.551-6.357-44.635-15.416-62.668-26.924
		C80.055,439.41,60.5,409.888,60.5,378.941s19.555-60.468,55.062-83.127c18.033-11.508,39.118-20.566,62.668-26.924
		c15.372-4.148,31.354-7.02,47.77-8.59V247.26c-100.935,9.284-178.5,64.698-178.5,131.681C47.5,452.428,140.849,512,256,512
		s208.5-59.572,208.5-133.059C464.5,311.958,386.936,256.544,286,247.26z"/>
</g>
<g id="Ebene_1">
</g>
</svg>
