<?xml version="1.0" encoding="iso-8859-1"?>
<!-- Generator: Adobe Illustrator 15.1.0, SVG Export Plug-In . SVG Version: 6.00 Build 0)  -->
<!DOCTYPE svg PUBLIC "-//W3C//DTD SVG 1.1//EN" "http://www.w3.org/Graphics/SVG/1.1/DTD/svg11.dtd">
<svg version="1.1" xmlns="http://www.w3.org/2000/svg" xmlns:xlink="http://www.w3.org/1999/xlink" x="0px" y="0px" width="512px"
	 height="512px" viewBox="0 0 512 512" style="enable-background:new 0 0 512 512;" xml:space="preserve">
<g id="mode_x5F_rotatearoundline">
	<g>
		<path style="fill:#DCDCDC;stroke:#FFFFFF;stroke-miterlimit:10;" d="M112.124,405.7l209.033-109.12
			c0,0-49.519-75.817-169.002-58.011L112.124,405.7z"/>
		<path style="fill:#666666;" d="M120.028,400.1c-0.815,0.207-1.645,0.2-2.318-0.038c-0.96-0.34-1.447-1.098-1.268-1.977
			l32.812-161.004c0.27-1.324,1.946-2.512,3.744-2.647c36.983-2.827,72.289,1.262,102.102,11.823
			c29.813,10.562,53.692,27.442,69.059,48.814c0.748,1.038,0.01,2.557-1.647,3.389L121.05,399.719
			C120.721,399.883,120.375,400.012,120.028,400.1z M155.271,239L123.85,393.189l192.932-96.972
			C286.246,255.588,226.262,234.339,155.271,239z"/>
		<path style="fill:#666666;" d="M200.551,332.313c-10.299,2.62-20.245,1.53-26.385-3.245l-0.078-0.063
			c-14.687-12.095-10.508-32.597,1.788-44.655c9.144-8.968,21.91-12.849,34.148-10.383l0.292,0.066
			c5.672,1.445,9.911,3.72,13.223,6.509c2.135-6.439,4.264-9.366,5.984-11.729c0.932-1.28,1.399-1.923,1.723-3.04l11.718-0.334
			c-0.739,2.544-1.958,4.219-3.136,5.839c-1.939,2.666-4.837,6.648-7.552,20.854c1.089,2.123,2.064,4.296,3.033,6.454
			c2.981,6.643,5.797,12.917,11.616,17.105l-9.428,6.979c-4.052-2.915-6.862-6.483-9.108-10.3
			c-4.392,7.785-11.843,13.524-19.314,16.932C206.255,330.587,203.389,331.592,200.551,332.313z M183.852,322.28
			c4.592,3.534,12.99,3.486,20.913-0.128c11.235-5.125,16.96-15.004,15.313-26.427l-0.068-0.475
			c-3.259-5.811-7.606-10.646-15.846-12.789c-9.169-1.792-15.566,2.215-19.326,5.899C175.554,297.468,172.95,313.258,183.852,322.28
			z"/>
	</g>
	<line style="fill:none;stroke:#0000FF;stroke-width:13;" x1="128" y1="517" x2="44" y2="-16"/>
	<g>
		<circle style="fill:#0000FF;" cx="112.124" cy="405.699" r="35"/>
		<path d="M112.124,378.699c14.888,0,27,12.113,27,27c0,14.889-12.112,27.002-27,27.002s-27-12.113-27-27.002
			C85.124,390.813,97.236,378.699,112.124,378.699 M112.124,365.699c-22.092,0-40,17.91-40,40c0,22.092,17.908,40.002,40,40.002
			s40-17.91,40-40.002C152.124,383.609,134.216,365.699,112.124,365.699L112.124,365.699z"/>
	</g>
	<g>
		<circle style="fill:#0000FF;" cx="440.327" cy="238.568" r="35"/>
		<path d="M440.327,211.568c14.888,0,27,12.113,27,27c0,14.889-12.112,27.002-27,27.002s-27-12.113-27-27.002
			C413.327,223.681,425.439,211.568,440.327,211.568 M440.327,198.568c-22.092,0-40,17.91-40,40c0,22.092,17.908,40.002,40,40.002
			s40-17.91,40-40.002C480.327,216.478,462.419,198.568,440.327,198.568L440.327,198.568z"/>
	</g>
	<g>
		<circle style="fill:#FF0000;" cx="164.742" cy="163.071" r="35"/>
		<path d="M164.742,136.071c14.888,0,27,12.112,27,27s-12.112,27.001-27,27.001s-27-12.113-27-27.001
			S149.854,136.071,164.742,136.071 M164.742,123.071c-22.092,0-40,17.909-40,40s17.908,40.001,40,40.001s40-17.91,40-40.001
			S186.833,123.071,164.742,123.071L164.742,123.071z"/>
	</g>
</g>
<g id="Ebene_1">
</g>
</svg>
