<?xml version="1.0" encoding="iso-8859-1"?>
<!-- Generator: Adobe Illustrator 15.1.0, SVG Export Plug-In . SVG Version: 6.00 Build 0)  -->
<!DOCTYPE svg PUBLIC "-//W3C//DTD SVG 1.1//EN" "http://www.w3.org/Graphics/SVG/1.1/DTD/svg11.dtd">
<svg version="1.1" xmlns="http://www.w3.org/2000/svg" xmlns:xlink="http://www.w3.org/1999/xlink" x="0px" y="0px" width="512px"
	 height="512px" viewBox="0 0 512 512" style="enable-background:new 0 0 512 512;" xml:space="preserve">
<g id="mode_x5F_rotatebyangle">
	<path style="opacity:0.2;fill:#666666;" d="M117.479,397.479l176.474-59.098c0,0-24.651-92.627-130.552-121.254L117.479,397.479z"
		/>
	<path style="fill:none;stroke:#666666;stroke-width:13;stroke-miterlimit:10;" d="M117.479,397.479l176.474-59.098
		c0,0-24.651-92.627-130.552-121.254L117.479,397.479z"/>
	<path style="fill:#666666;" d="M191.263,344.312c-8.7,0-16.673-4.267-21.107-11.738l-0.055-0.095
		c-10.538-18.681-4.697-41.619,6.758-52.157c8.512-7.831,19.37-8.579,29.046-2.003l0.229,0.165
		c4.484,3.433,7.683,7.421,10.059,11.744c2.521-7.035,4.618-9.867,6.31-12.152c0.916-1.236,1.375-1.857,1.774-3.086l9.51,3.094
		c-0.903,2.776-2.095,4.386-3.247,5.941c-1.903,2.571-4.746,6.412-8.654,22.397c0.638,2.839,1.176,5.702,1.71,8.545
		c1.644,8.748,3.197,17.012,7.455,23.715l-8.441,5.361c-2.979-4.691-4.854-9.79-6.234-15.009
		c-4.503,7.93-11.288,12.496-17.808,14.281C196.116,343.986,193.661,344.312,191.263,344.312z M178.782,327.515
		c3.34,5.579,10.224,8.051,17.142,6.156c9.803-2.685,15.664-12.654,15.677-26.668l0.001-0.584
		c-1.971-7.857-4.948-14.889-11.435-19.907c-7.298-4.891-13.019-2.07-16.539,1.168C174.954,295.661,170.945,313.562,178.782,327.515
		z"/>
	<g>
		<circle style="fill:#0000FF;" cx="402.102" cy="316.916" r="35"/>
		<path d="M402.102,289.916c14.889,0,27,12.112,27,27s-12.111,27.001-27,27.001c-14.887,0-27-12.113-27-27.001
			S387.215,289.916,402.102,289.916 M402.102,276.916c-22.092,0-40,17.909-40,40s17.908,40.001,40,40.001s40-17.91,40-40.001
			S424.193,276.916,402.102,276.916L402.102,276.916z"/>
	</g>
	<g>
		<circle style="fill:#0000FF;" cx="109.898" cy="405.256" r="35"/>
		<path d="M109.898,378.256c14.889,0,27,12.112,27,27s-12.111,27.001-27,27.001c-14.887,0-27-12.113-27-27.001
			S95.012,378.256,109.898,378.256 M109.898,365.256c-22.092,0-40,17.909-40,40s17.908,40.001,40,40.001s40-17.91,40-40.001
			S131.99,365.256,109.898,365.256L109.898,365.256z"/>
	</g>
	<g>
		<circle style="fill:#FF0000;" cx="188.046" cy="106.743" r="35"/>
		<path d="M188.046,79.743c14.888,0,27,12.112,27,27c0,14.888-12.112,27.001-27,27.001s-27-12.113-27-27.001
			C161.046,91.855,173.158,79.743,188.046,79.743 M188.046,66.743c-22.092,0-40,17.909-40,40c0,22.091,17.908,40.001,40,40.001
			s40-17.91,40-40.001C228.046,84.652,210.138,66.743,188.046,66.743L188.046,66.743z"/>
	</g>
</g>
<g id="Ebene_1">
</g>
</svg>
