<?xml version="1.0" encoding="iso-8859-1"?>
<!-- Generator: Adobe Illustrator 15.1.0, SVG Export Plug-In . SVG Version: 6.00 Build 0)  -->
<!DOCTYPE svg PUBLIC "-//W3C//DTD SVG 1.1//EN" "http://www.w3.org/Graphics/SVG/1.1/DTD/svg11.dtd">
<svg version="1.1" xmlns="http://www.w3.org/2000/svg" xmlns:xlink="http://www.w3.org/1999/xlink" x="0px" y="0px" width="512px"
	 height="512px" viewBox="0 0 512 512" style="enable-background:new 0 0 512 512;" xml:space="preserve">
<g id="mode_x5F_locus">
	<line style="fill:none;stroke:#000000;stroke-width:13;" x1="226.729" y1="179.017" x2="543.5" y2="407.63"/>
	<path style="fill:#FF0000;" d="M186.502,456.874c-28.347,0.001-57.585-5.133-83.047-14.956
		c-26.965-10.403-47.925-25.252-60.615-42.941c-14.559-20.293-17.792-43.863-9.352-68.162
		c15.819-45.539,77.935-96.229,184.85-150.945C175.458,138.59,120.885,95.05,60.84,48.058l8.012-10.237
		c61.836,48.394,117.937,93.183,161.764,135.847c10.02-4.999,20.401-10.025,31.159-15.089
		c98.649-46.432,193.449-78.606,194.396-78.926l4.16,12.316c-2.036,0.688-112.89,38.49-219.915,91.412
		c12.754,12.884,24.323,25.579,34.529,38.132c50.423,62.019,63.292,115.865,40.499,169.459
		c-13.633,32.055-45.68,54.247-90.239,62.488C212.821,455.751,199.756,456.874,186.502,456.874z M228.175,189.509
		C143.097,232.656,63.197,284.906,45.768,335.08c-20.08,57.806,42.659,87.106,62.366,94.709
		c35.22,13.588,78.101,17.658,114.707,10.888c40.131-7.423,68.77-26.882,80.64-54.793c20.701-48.675,8.429-98.299-38.623-156.17
		C254.135,216.525,241.828,203.134,228.175,189.509z"/>
	<g>
		<circle style="fill:#0000FF;" cx="228.934" cy="442.633" r="35"/>
		<path d="M251.052,427.146c8.537,12.193,5.563,29.064-6.631,37.604c-12.195,8.539-29.066,5.564-37.605-6.631
			s-5.564-29.064,6.631-37.604S242.511,414.951,251.052,427.146 M261.7,419.689c-12.672-18.096-37.615-22.492-55.709-9.822
			c-18.096,12.67-22.496,37.613-9.824,55.709c12.672,18.098,37.613,22.494,55.709,9.824
			C269.972,462.729,274.372,437.787,261.7,419.689L261.7,419.689z"/>
	</g>
	<g>
		
			<path id="path2990-1" style="fill:#8E8EEE;stroke:#000000;stroke-width:16.6566;stroke-linecap:round;stroke-linejoin:round;" d="
			M452.217,317.886c0,18.516-15.011,33.527-33.527,33.527c-18.518,0-33.528-15.012-33.528-33.527
			c0-18.518,15.011-33.527,33.528-33.527C437.206,284.358,452.217,299.368,452.217,317.886z"/>
		<circle style="fill:#FFFFFF;" cx="418.689" cy="317.885" r="34.999"/>
		<circle style="opacity:0.4;fill:#0000FF;" cx="418.689" cy="317.885" r="34.999"/>
		<path d="M440.808,302.398c8.537,12.193,5.563,29.064-6.631,37.604c-12.195,8.539-29.066,5.564-37.605-6.631
			s-5.564-29.064,6.631-37.604C415.397,287.229,432.267,290.202,440.808,302.398 M451.456,294.941
			c-12.672-18.095-37.615-22.493-55.709-9.821c-18.096,12.669-22.496,37.612-9.824,55.708c12.672,18.098,37.613,22.494,55.709,9.824
			C459.728,337.98,464.128,313.039,451.456,294.941L451.456,294.941z"/>
	</g>
</g>
<g id="Ebene_1">
</g>
</svg>
