<svg xmlns="http://www.w3.org/2000/svg" width="512" height="512" viewBox="0 0 512 512"><circle cx="140" cy="256" r="35" fill="red"/><path d="M140 228.999c14.888 0 27 12.113 27 27 0 14.889-12.112 27.002-27 27.002s-27-12.113-27-27.002c0-14.887 12.112-27 27-27m0-13c-22.092 0-40 17.91-40 40 0 22.092 17.908 40.002 40 40.002s40-17.91 40-40.002c0-22.09-17.908-40-40-40z"/><circle cx="256" cy="256" r="35" fill="red"/><path d="M256 228.999c14.888 0 27 12.113 27 27 0 14.889-12.112 27.002-27 27.002s-27-12.113-27-27.002c0-14.887 12.112-27 27-27m0-13c-22.092 0-40 17.91-40 40 0 22.092 17.908 40.002 40 40.002s40-17.91 40-40.002c0-22.09-17.908-40-40-40z"/><circle cx="372" cy="256" r="35" fill="red"/><path d="M372 228.999c14.888 0 27 12.113 27 27 0 14.889-12.112 27.002-27 27.002s-27-12.113-27-27.002c0-14.887 12.112-27 27-27m0-13c-22.092 0-40 17.91-40 40 0 22.092 17.908 40.002 40 40.002s40-17.91 40-40.002c0-22.09-17.908-40-40-40z"/><path fill="#090" d="M102.972 366.431c-10.842 0-19.593-1.099-26.257-3.296-6.667-2.197-11.755-7.179-15.271-14.941-2.345-5.421-3.811-12.051-4.395-19.885-.587-7.838-.845-15.018-.769-21.533a128.81 128.81 0 0 0-1.208-19.227c-.879-6.297-3.406-11.68-7.581-16.15-4.175-4.467-10.293-7.504-18.347-9.118v-16.479c8.202-1.902 14.392-5.126 18.567-9.668 4.175-4.539 6.664-9.96 7.471-16.26a129.236 129.236 0 0 0 .989-19.226c-.147-6.516.034-13.623.549-21.313.512-7.69 2.087-14.245 4.724-19.666 3.808-7.763 9.043-12.744 15.71-14.941 6.664-2.197 15.271-3.296 25.818-3.296v16.699c-6.887 0-12.342 1.174-16.37 3.516-4.031 2.345-6.667 5.421-7.91 9.229-1.246 3.811-2.053 8.096-2.417 12.854a79.866 79.866 0 0 0 .22 14.502c.512 4.91.474 9.634-.11 14.172-1.026 10.986-2.894 19.116-5.603 24.39-2.712 5.273-7.217 11.062-13.513 17.358 6.296 6.152 10.801 11.865 13.513 17.139 2.709 5.273 4.577 13.331 5.603 24.17.583 4.542.622 9.266.11 14.172a80.982 80.982 0 0 0-.22 14.612c.364 4.834 1.171 9.118 2.417 12.854 1.243 3.734 3.879 6.773 7.91 9.118 4.027 2.341 9.482 3.516 16.37 3.516v16.698zm305.772-16.7c6.887 0 12.342-1.175 16.369-3.516 4.031-2.345 6.668-5.384 7.91-9.118 1.246-3.736 2.054-8.021 2.418-12.854a80.891 80.891 0 0 0-.221-14.612c-.512-4.906-.473-9.63.11-14.172 1.026-10.839 2.894-18.896 5.603-24.17 2.713-5.273 7.217-10.986 13.514-17.139-6.297-6.296-10.801-12.085-13.514-17.358-2.709-5.273-4.576-13.403-5.603-24.39-.583-4.539-.622-9.263-.11-14.172.516-4.906.588-9.74.221-14.502-.364-4.758-1.172-9.043-2.418-12.854-1.242-3.808-3.879-6.884-7.91-9.229-4.027-2.341-9.482-3.516-16.369-3.516V141.43c10.547 0 19.154 1.099 25.818 3.296 6.667 2.197 11.902 7.179 15.71 14.941 2.637 5.421 4.212 11.975 4.724 19.666.516 7.69.697 14.797.55 21.313-.145 6.52.186 12.93.988 19.226.807 6.3 3.296 11.721 7.471 16.26 4.175 4.542 10.365 7.766 18.567 9.668v16.479c-8.055 1.614-14.173 4.651-18.348 9.118-4.175 4.471-6.701 9.854-7.58 16.15-.879 6.3-1.281 12.71-1.209 19.227.076 6.516-.182 13.695-.769 21.533-.584 7.834-2.05 14.464-4.395 19.885-3.516 7.763-8.604 12.744-15.271 14.941-6.664 2.197-15.416 3.296-26.258 3.296v-16.698z"/></svg>