<?xml version="1.0" encoding="iso-8859-1"?>
<!-- Generator: Adobe Illustrator 15.1.0, SVG Export Plug-In . SVG Version: 6.00 Build 0)  -->
<!DOCTYPE svg PUBLIC "-//W3C//DTD SVG 1.1//EN" "http://www.w3.org/Graphics/SVG/1.1/DTD/svg11.dtd">
<svg version="1.1" xmlns="http://www.w3.org/2000/svg" xmlns:xlink="http://www.w3.org/1999/xlink" x="0px" y="0px" width="512px"
	 height="512px" viewBox="0 0 512 512" style="enable-background:new 0 0 512 512;" xml:space="preserve">
<g id="mode_x5F_vectorpolygon">
	<polygon style="opacity:0.2;fill:#993300;" points="95.31,431.85 415.324,281.083 135.313,80.15 	"/>
	<polygon style="fill:none;stroke:#993300;stroke-width:13;stroke-miterlimit:10;" points="95.31,431.85 415.324,281.083 
		135.313,80.15 	"/>
	<g>
		<line style="fill:none;stroke:#000000;stroke-width:13;" x1="96.12" y1="422.85" x2="123.681" y2="182.342"/>
		<polygon points="74.595,252.8 133.851,93.598 156.485,261.955 		"/>
	</g>
	<g>
		<line style="fill:none;stroke:#000000;stroke-width:13;" x1="104.629" y1="428.451" x2="323.196" y2="324.375"/>
		<polygon points="237.434,320.085 403.845,285.972 273.064,394.383 		"/>
	</g>
	<g>
		<circle style="fill:#0000FF;" cx="135.313" cy="80.149" r="35"/>
		<path d="M157.432,64.663c8.537,12.193,5.563,29.064-6.631,37.604c-12.195,8.539-29.066,5.564-37.605-6.631
			s-5.564-29.064,6.631-37.604S148.891,52.468,157.432,64.663 M168.08,57.206c-12.672-18.096-37.615-22.492-55.709-9.822
			c-18.096,12.67-22.496,37.613-9.824,55.709c12.672,18.098,37.613,22.494,55.709,9.824
			C176.352,100.245,180.752,75.304,168.08,57.206L168.08,57.206z"/>
	</g>
	<g>
		<circle style="fill:#0000FF;" cx="415.324" cy="281.082" r="35"/>
		<path d="M437.442,265.596c8.537,12.193,5.563,29.064-6.631,37.604c-12.195,8.539-29.066,5.564-37.605-6.631
			s-5.564-29.064,6.631-37.604S428.901,253.4,437.442,265.596 M448.091,258.139c-12.672-18.096-37.615-22.492-55.709-9.822
			c-18.096,12.67-22.496,37.613-9.824,55.709c12.672,18.098,37.613,22.494,55.709,9.824
			C456.362,301.178,460.763,276.236,448.091,258.139L448.091,258.139z"/>
	</g>
	<g>
		<circle style="fill:#0000FF;" cx="95.31" cy="431.849" r="35"/>
		<path d="M117.428,416.362c8.537,12.193,5.563,29.064-6.631,37.604c-12.195,8.539-29.066,5.564-37.605-6.631
			s-5.564-29.064,6.631-37.604S108.887,404.167,117.428,416.362 M128.076,408.905c-12.672-18.096-37.615-22.492-55.709-9.822
			c-18.096,12.67-22.496,37.613-9.824,55.709c12.672,18.098,37.613,22.494,55.709,9.824
			C136.348,451.944,140.748,427.003,128.076,408.905L128.076,408.905z"/>
	</g>
</g>
<g id="Ebene_1">
</g>
</svg>
