<svg id="Layer_1" xmlns="http://www.w3.org/2000/svg" xmlns:xlink="http://www.w3.org/1999/xlink" viewBox="0 0 712 512"><style>.st0{fill:#999999;} .st1{fill:none;stroke:#FFFFFF;stroke-width:110;stroke-miterlimit:10;} .st2{fill:#FFFFFF;} .st3{clip-path:url(#SVGID_2_);} .st4{fill:none;stroke:#666666;stroke-width:30;stroke-miterlimit:10;} .st5{fill:#9999FF;} .st6{fill:#333333;}</style><g id="stylingbar_x5F_icon_x5F_algebra_copy"><path class="st0" d="M0 41h454.8v60H0zm0 184h454.8v60H0zm0 186h454.8v60H0z"/><path class="st1" d="M244 480.1c41.8-277.9 106.8-516.9 211.8-224C561.7 551.3 623.3 310 668 31.9"/><circle class="st2" cx="363.9" cy="122" r="102.7"/><path class="st2" d="M290.6 202.3h260.7v305.3H290.6z"/><defs><path id="SVGID_1_" d="M685 440.2c0 24.7-20 44.8-44.8 44.8H271.7c-24.7 0-44.8-20-44.8-44.8V71.8C227 47 247 27 271.7 27h368.5c24.7 0 44.8 20 44.8 44.8v368.4z"/></defs><clipPath id="SVGID_2_"><use xlink:href="#SVGID_1_" overflow="visible"/></clipPath><g class="st3"><path class="st4" d="M244 480.1c41.8-277.9 106.8-516.9 211.8-224C561.7 551.3 623.4 310 668 31.9"/><circle class="st5" cx="364" cy="122" r="63"/><path class="st6" d="M364 58.9c-34.8 0-63 28.2-63 63s28.2 63 63 63 63-28.2 63-63-28.2-63-63-63zm0 107.2c-24.4 0-44.1-19.8-44.1-44.1s19.8-44.1 44.1-44.1 44.1 19.8 44.1 44.1-19.7 44.1-44.1 44.1z"/><circle class="st5" cx="546.1" cy="391" r="63"/><path class="st6" d="M546.1 328c-34.8 0-63 28.2-63 63s28.2 63 63 63 63-28.2 63-63-28.2-63-63-63zm0 107.2c-24.4 0-44.1-19.8-44.1-44.1s19.8-44.1 44.1-44.1 44.1 19.8 44.1 44.1-19.7 44.1-44.1 44.1z"/></g><path class="st2" d="M421 19.2h76.3v60.4H421z"/></g></svg>