<svg id="Layer_1" data-name="Layer 1" width = "558" height = "296" xmlns="http://www.w3.org/2000/svg" viewBox="0 0 558 296"><defs><style>.cls-1,.cls-2{fill:none;stroke:#58595b;stroke-miterlimit:10}.cls-1{stroke-width:.5px}.cls-2{stroke-width:.75px}.cls-3{font-size:12px;font-family:Roboto-Medium,Roboto;font-weight:500}.cls-3,.cls-4,.cls-5{fill:#58595b}.cls-4{font-size:10px;font-family:Roboto-Regular,Roboto}</style></defs><path class="cls-1" d="M1.54 274.01l20 .35M1.67 269.17l19.99.7M1.88 264.33l19.97 1.05M2.18 259.5l19.95 1.39M3.02 249.84l19.89 2.09M3.57 245.03l19.85 2.44M4.2 240.23l19.81 2.78M4.92 235.44l19.75 3.13M6.6 225.9l19.63 3.81M7.57 221.15l19.56 4.16M8.61 216.42l19.49 4.5M9.75 211.71l19.4 4.84M12.25 202.35l19.23 5.51M13.63 197.7l19.13 5.85M15.09 193.08l19.02 6.18M16.62 188.49L35.53 195M19.94 179.38l18.67 7.17M21.71 174.88l18.55 7.49M23.57 170.4l18.41 7.82M25.5 165.96l18.27 8.13M29.59 157.18l17.98 8.77M31.75 152.84l17.82 9.08M33.99 148.55l17.66 9.38M36.3 144.29l17.5 9.69M41.15 135.9l17.14 10.3M43.68 131.77l16.96 10.59M46.28 127.68l16.77 10.89M48.96 123.64l16.58 11.18M54.51 115.7l16.18 11.76M57.39 111.81l15.98 12.04M60.34 107.97l15.76 12.31M63.36 104.18l15.54 12.58M69.59 96.75l15.09 13.12M72.8 93.13l14.86 13.38M76.07 89.55l14.63 13.64M79.4 86.04l14.39 13.89M86.26 79.19l13.89 14.39M89.77 75.85l13.64 14.63M93.34 72.58l13.38 14.86M96.97 69.37l13.12 15.09M104.39 63.14l12.59 15.55M108.18 60.13l12.32 15.76M112.03 57.18l12.03 15.97M115.92 54.3l11.76 16.18M123.86 48.74l11.18 16.58M127.9 46.07l10.89 16.77M131.98 43.46l10.6 16.96M136.11 40.93l10.3 17.14M144.5 36.09l9.7 17.49M148.76 33.77l9.39 17.66M153.06 31.54l9.08 17.82M157.39 29.38l8.77 17.97M166.18 25.28l8.13 18.27M170.62 23.35l7.81 18.41M175.09 21.5l7.5 18.54M179.6 19.72l7.17 18.67M188.71 16.41l6.51 18.91M193.3 14.87l6.18 19.02M197.92 13.41l5.85 19.13M202.57 12.04l5.51 19.22M211.92 9.53l4.84 19.41M216.63 8.4l4.5 19.49M221.36 7.35l4.16 19.56M226.11 6.38l3.82 19.64M235.65 4.7l3.13 19.76M240.44 3.99l2.79 19.8M245.25 3.35l2.43 19.85M250.06 2.8l2.09 19.9M259.71 1.96l1.4 19.95M264.55 1.66l1.04 19.98M269.39 1.45l.7 19.99M274.23 1.33l.35 19.99M283.92 1.33l-.35 19.99M288.76 1.45l-.7 19.99M293.6 1.66l-1.04 19.98M298.44 1.96l-1.4 19.95M308.09 2.8L306 22.7M312.9 3.35l-2.43 19.85M317.71 3.99l-2.79 19.8M322.5 4.7l-3.13 19.76M332.04 6.38l-3.82 19.64M336.79 7.35l-4.16 19.56M341.52 8.4l-4.5 19.49M346.23 9.53l-4.84 19.41M355.59 12.04l-5.52 19.22M360.23 13.41l-5.85 19.13M364.85 14.87l-6.18 19.02M369.44 16.41l-6.51 18.91M378.55 19.72l-7.17 18.67M383.06 21.5l-7.5 18.54M387.53 23.35l-7.81 18.41M391.98 25.28l-8.14 18.27M400.76 29.38l-8.77 17.97M405.09 31.54l-9.08 17.82M409.39 33.77L400 51.43M413.65 36.09l-9.7 17.49M422.04 40.93l-10.3 17.14M426.17 43.46l-10.6 16.96M430.25 46.07l-10.89 16.77M434.29 48.74l-11.18 16.58M442.23 54.3l-11.76 16.18M446.12 57.18l-12.03 15.97M449.97 60.13l-12.32 15.76M453.76 63.14l-12.59 15.55M461.18 69.37l-13.12 15.09M464.81 72.58l-13.38 14.86M468.38 75.85l-13.64 14.63M471.89 79.19L458 93.58M478.75 86.04l-14.39 13.89M482.08 89.55l-14.63 13.64M485.35 93.13l-14.86 13.38M488.56 96.75l-15.09 13.12M494.79 104.18l-15.54 12.58M497.81 107.97l-15.76 12.31M500.76 111.81l-15.98 12.04M503.64 115.7l-16.18 11.76M509.2 123.64l-16.59 11.18M511.87 127.68l-16.77 10.89M514.47 131.77l-16.96 10.59M517 135.9l-17.14 10.3M521.85 144.29l-17.49 9.69M524.16 148.55l-17.66 9.38M526.4 152.84l-17.82 9.08M528.56 157.18l-17.98 8.77M532.65 165.96l-18.27 8.13M534.58 170.4l-18.41 7.82M536.44 174.88l-18.55 7.49M538.21 179.38l-18.67 7.17M541.53 188.49L522.62 195M543.06 193.08l-19.02 6.18M544.52 197.7l-19.12 5.85M545.9 202.35l-19.23 5.51M548.4 211.71l-19.4 4.84M549.54 216.42l-19.49 4.5M550.58 221.15l-19.56 4.16M551.55 225.9l-19.63 3.81M553.23 235.44l-19.75 3.13M553.95 240.23l-19.81 2.78M554.58 245.03l-19.85 2.44M555.13 249.84l-19.89 2.09M555.97 259.5l-19.95 1.39M556.27 264.33l-19.97 1.05M556.48 269.17l-19.99.7M556.61 274.01l-20 .35M556.65 278.86h-20M89.14 278.86H469M279.07 88.92v189.96"/><path class="cls-2" d="M1.5 278.86h36M5.72 230.66l35.45 6.25M18.24 183.92l33.83 12.31M38.69 140.07l31.18 18M66.44 100.44l27.58 23.14M100.65 66.22l23.14 27.58M140.29 38.47l18 31.18M184.14 18.02l12.31 33.83M230.88 5.5l6.25 35.45M279.08 1.28v36M327.28 5.5l-6.26 35.45M374.01 18.02L361.7 51.85M417.86 38.47l-18 31.18M457.5 66.22L434.36 93.8M491.71 100.44l-27.58 23.14M519.46 140.07l-31.17 18M539.91 183.92l-33.83 12.32M552.43 230.66l-35.45 6.25M556.65 278.86h-36"/><path class="cls-1" d="M2.56 254.67l25.9 2.26M10.96 207.02l25.11 6.73M27.51 161.55l23.56 10.99M51.7 119.65L73 134.56M82.8 82.58l18.39 18.39M119.87 51.48l14.91 21.3M161.77 27.29l10.99 23.56M207.23 10.74l6.73 25.12M254.88 2.34l2.27 25.9M303.27 2.34L301 28.24M350.92 10.74l-6.73 25.12M396.38 27.29L385.4 50.85M438.29 51.48l-14.92 21.3M475.35 82.58l-18.38 18.39M506.45 119.65l-21.3 14.91M530.64 161.55l-23.56 10.99M547.19 207.02l-25.11 6.73M555.59 254.67l-25.9 2.26"/><text class="cls-3" transform="rotate(90 117.595 385.435)">180</text><text class="cls-3" transform="translate(272.27 54.13)">90</text><text class="cls-3" transform="rotate(10 -164.72 1787.537)">100</text><text class="cls-3" transform="rotate(20 -8.843 1013.4)">110</text><text class="cls-3" transform="rotate(30 43.647 752.705)">120</text><text class="cls-3" transform="rotate(40 70.295 620.351)">130</text><text class="cls-3" transform="rotate(50 86.615 539.29)">140</text><text class="cls-3" transform="rotate(60 97.781 483.842)">150</text><text class="cls-3" transform="rotate(70 106.008 442.984)">160</text><text class="cls-3" transform="rotate(80 112.404 411.212)">170</text><text class="cls-3" transform="rotate(-10 452.331 -1305.041)">80</text><text class="cls-3" transform="rotate(-20 300.49 -523.882)">70</text><text class="cls-3" transform="rotate(-30 246.843 -258.719)">60</text><text class="cls-3" transform="rotate(-40 219.589 -124.078)">50</text><text class="cls-3" transform="rotate(-50 202.9 -41.631)">40</text><text class="cls-3" transform="rotate(-60 191.493 14.765)">30</text><text class="cls-3" transform="rotate(-70 183.083 56.321)">20</text><text class="cls-3" transform="rotate(-80 176.537 88.649)">10</text><text class="cls-3" transform="rotate(-90 169.53 113.17)">0</text><text class="cls-4" transform="rotate(90 102.85 377.8)">0</text><text class="cls-4" transform="translate(273.46 76.18)">90</text><text class="cls-4" transform="rotate(10 -292.983 1802.501)">80</text><text class="cls-4" transform="rotate(20 -73.658 1015.093)">70</text><text class="cls-4" transform="rotate(30 .207 749.945)">60</text><text class="cls-4" transform="rotate(40 37.692 615.323)">50</text><text class="cls-4" transform="rotate(50 60.664 532.88)">40</text><text class="cls-4" transform="rotate(60 76.377 476.489)">30</text><text class="cls-4" transform="rotate(70 87.955 434.938)">20</text><text class="cls-4" transform="rotate(80 96.956 402.617)">10</text><text class="cls-4" transform="rotate(-10 579.088 -1307.082)">100</text><text class="cls-4" transform="rotate(-20 363.38 -530.336)">110</text><text class="cls-4" transform="rotate(-30 288.466 -266.866)">120</text><text class="cls-4" transform="rotate(-40 250.436 -133.09)">130</text><text class="cls-4" transform="rotate(-50 227.136 -51.164)">140</text><text class="cls-4" transform="rotate(-60 211.208 4.877)">150</text><text class="cls-4" transform="rotate(-70 199.47 46.171)">160</text><text class="cls-4" transform="rotate(-80 190.328 78.288)">170</text><text class="cls-4" transform="rotate(-90 182.925 104.345)">180</text><path class="cls-5" d="M270.67 255.05l-56.33-154.76-.47.17 56.33 154.76zM266.67 256.88l-82.35-142.63-.43.25 82.34 142.63zM263 259.36L157.17 133.2l-.38.32 105.87 126.17zM274.93 254l-28.6-162.23-.49.08L274.44 254zM283.7 254l28.6-162.15-.49-.08L283.21 254zM254.25 274.23l-162.19-28.6-.08.49 162.18 28.6zM259.9 262.45L133.73 156.58l-.32.38 126.17 105.87c.1-.13.21-.26.32-.38zM257.34 266l-142.63-82.33-.25.44 142.63 82.35zM255.43 270l-154.75-56.34-.18.47 154.76 56.33c.06-.16.11-.32.17-.46zM302.88 270.46l154.76-56.33-.18-.47L302.71 270c.06.14.11.3.17.46zM301.05 266.46l142.63-82.35-.25-.44L300.8 266zM304 274.72l162.18-28.6-.09-.49-162.18 28.6zM287.94 255.22l56.33-154.76-.47-.17-56.33 154.76zM291.91 257.12l82.34-142.62-.43-.25-82.35 142.63zM298.56 262.83L424.73 157l-.32-.38-126.17 105.83c.11.12.22.25.32.38zM295.48 259.69l105.87-126.17-.38-.32L295.1 259.36z"/><path class="cls-1" d="M254.07 278.86a25 25 0 0150 0"/><path class="cls-2" d="M1.92 294.47h554.16q.42-7.67.42-15.44c0-153.26-124.24-277.5-277.5-277.5S1.5 125.77 1.5 279c0 5.21.42 15.47.42 15.47z"/></svg>