<?xml version="1.0" encoding="UTF-8" standalone="no"?>
<!-- Created with Inkscape (http://www.inkscape.org/) -->

<svg
   xmlns:dc="http://purl.org/dc/elements/1.1/"
   xmlns:cc="http://creativecommons.org/ns#"
   xmlns:rdf="http://www.w3.org/1999/02/22-rdf-syntax-ns#"
   xmlns:svg="http://www.w3.org/2000/svg"
   xmlns="http://www.w3.org/2000/svg"
   xmlns:sodipodi="http://sodipodi.sourceforge.net/DTD/sodipodi-0.dtd"
   xmlns:inkscape="http://www.inkscape.org/namespaces/inkscape"
   id="svg2995"
   version="1.1"
   inkscape:version="0.48.2 r9819"
   width="32"
   height="32"
   sodipodi:docname="mode_createlistofpoints_32.gif">
  <metadata
     id="metadata3001">
    <rdf:RDF>
      <cc:Work
         rdf:about="">
        <dc:format>image/svg+xml</dc:format>
        <dc:type
           rdf:resource="http://purl.org/dc/dcmitype/StillImage" />
        <dc:title></dc:title>
      </cc:Work>
    </rdf:RDF>
  </metadata>
  <defs
     id="defs2999" />
  <sodipodi:namedview
     pagecolor="#ffffff"
     bordercolor="#666666"
     borderopacity="1"
     objecttolerance="10"
     gridtolerance="10"
     guidetolerance="10"
     inkscape:pageopacity="0"
     inkscape:pageshadow="2"
     inkscape:window-width="1218"
     inkscape:window-height="1002"
     id="namedview2997"
     showgrid="false"
     inkscape:zoom="14.75"
     inkscape:cx="16"
     inkscape:cy="16"
     inkscape:window-x="54"
     inkscape:window-y="-8"
     inkscape:window-maximized="1"
     inkscape:current-layer="svg2995" />
  <g
     id="g3056">
    <g
       id="g2991"
       transform="translate(0.91260975,-0.26651314)">
      <text
         transform="scale(1.0478139,0.95436799)"
         xml:space="preserve"
         style="font-size:12.57376575px;font-style:normal;font-variant:normal;font-weight:normal;font-stretch:normal;line-height:125%;letter-spacing:0px;word-spacing:0px;fill:#008000;fill-opacity:1;stroke:none;font-family:FreeUniversal;-inkscape-font-specification:FreeUniversal"
         x="1.6487756"
         y="20.168434"
         id="text2987"
         sodipodi:linespacing="125%"><tspan
           sodipodi:role="line"
           id="tspan2989"
           x="1.6487756"
           y="20.168434">{    }</tspan></text>
      <path
         transform="matrix(1,0,0,1.0394737,-1.6244742,-1.3262611)"
         d="m 13.898305,16.305084 c 0,1.422836 -1.198966,2.576272 -2.677966,2.576272 -1.479,0 -2.6779663,-1.153436 -2.6779663,-2.576272 0,-1.422835 1.1989663,-2.576271 2.6779663,-2.576271 1.479,0 2.677966,1.153436 2.677966,2.576271 z"
         sodipodi:ry="2.5762713"
         sodipodi:rx="2.6779661"
         sodipodi:cy="16.305084"
         sodipodi:cx="11.220339"
         id="path3029"
         style="fill:#595959;fill-opacity:1;stroke:none"
         sodipodi:type="arc" />
      <path
         transform="matrix(1,0,0,1.0394737,4.6806107,-1.2923626)"
         d="m 13.898305,16.305084 c 0,1.422836 -1.198966,2.576272 -2.677966,2.576272 -1.479,0 -2.6779663,-1.153436 -2.6779663,-2.576272 0,-1.422835 1.1989663,-2.576271 2.6779663,-2.576271 1.479,0 2.677966,1.153436 2.677966,2.576271 z"
         sodipodi:ry="2.5762713"
         sodipodi:rx="2.6779661"
         sodipodi:cy="16.305084"
         sodipodi:cx="11.220339"
         id="path3029-1"
         style="fill:#595959;fill-opacity:1;stroke:none"
         sodipodi:type="arc" />
      <path
         transform="matrix(1,0,0,1.0394737,10.985695,-1.3262609)"
         d="m 13.898305,16.305084 c 0,1.422836 -1.198966,2.576272 -2.677966,2.576272 -1.479,0 -2.6779663,-1.153436 -2.6779663,-2.576272 0,-1.422835 1.1989663,-2.576271 2.6779663,-2.576271 1.479,0 2.677966,1.153436 2.677966,2.576271 z"
         sodipodi:ry="2.5762713"
         sodipodi:rx="2.6779661"
         sodipodi:cy="16.305084"
         sodipodi:cx="11.220339"
         id="path3029-7"
         style="fill:#595959;fill-opacity:1;stroke:none"
         sodipodi:type="arc" />
    </g>
  </g>
</svg>
