<?xml version="1.0" encoding="UTF-8" standalone="no"?>
<!-- Created with Inkscape (http://www.inkscape.org/) -->

<svg
   xmlns:dc="http://purl.org/dc/elements/1.1/"
   xmlns:cc="http://creativecommons.org/ns#"
   xmlns:rdf="http://www.w3.org/1999/02/22-rdf-syntax-ns#"
   xmlns:svg="http://www.w3.org/2000/svg"
   xmlns="http://www.w3.org/2000/svg"
   xmlns:sodipodi="http://sodipodi.sourceforge.net/DTD/sodipodi-0.dtd"
   xmlns:inkscape="http://www.inkscape.org/namespaces/inkscape"
   id="svg2"
   version="1.1"
   inkscape:version="0.48.2 r9819"
   width="512"
   height="512"
   sodipodi:docname="mean.svg">
  <metadata
     id="metadata8">
    <rdf:RDF>
      <cc:Work
         rdf:about="">
        <dc:format>image/svg+xml</dc:format>
        <dc:type
           rdf:resource="http://purl.org/dc/dcmitype/StillImage" />
        <dc:title />
      </cc:Work>
    </rdf:RDF>
  </metadata>
  <defs
     id="defs6" />
  <sodipodi:namedview
     pagecolor="#ffffff"
     bordercolor="#666666"
     borderopacity="1"
     objecttolerance="10"
     gridtolerance="10"
     guidetolerance="10"
     inkscape:pageopacity="0"
     inkscape:pageshadow="2"
     inkscape:window-width="1680"
     inkscape:window-height="988"
     id="namedview4"
     showgrid="false"
     inkscape:zoom="0.921875"
     inkscape:cx="267.99207"
     inkscape:cy="241.43547"
     inkscape:window-x="1358"
     inkscape:window-y="-8"
     inkscape:window-maximized="1"
     inkscape:current-layer="svg2" />
  <g
     id="g3773">
    <g
       transform="matrix(7.2651696,0,0,7.2651696,-135.26792,-2557.4625)"
       id="text2992"
       style="font-size:40px;font-style:normal;font-variant:normal;font-weight:normal;font-stretch:normal;line-height:125%;letter-spacing:0px;word-spacing:0px;fill:#000000;fill-opacity:1;stroke:none;font-family:FreeUniversal;-inkscape-font-specification:FreeUniversal">
      <path
         inkscape:connector-curvature="0"
         id="path2997"
         d="m 64.644054,419.95627 -3.554687,0 0,-13.24219 c -1.7e-5,-1.35415 -0.488297,-2.50649 -1.464844,-3.45703 -0.976576,-0.9505 -2.128919,-1.42576 -3.457031,-1.42578 -1.458344,2e-5 -2.701832,0.4883 -3.730469,1.46484 -1.028653,0.97658 -1.542975,2.22007 -1.542969,3.73047 l 0,12.92969 -3.59375,0 0,-20 3.59375,0 0,2.57812 c 0.130202,-0.10415 0.364577,-0.36456 0.703125,-0.78125 0.338535,-0.41664 0.670566,-0.77472 0.996094,-1.07422 0.325513,-0.29946 0.872387,-0.5794 1.640625,-0.83984 0.768219,-0.2604 1.673166,-0.3906 2.714844,-0.39062 5.130191,2e-5 7.695292,2.44793 7.695312,7.34375 z" />
    </g>
    <path
       sodipodi:nodetypes="cc"
       inkscape:connector-curvature="0"
       id="path3767"
       d="m 138.83263,287.25989 250.36985,0.22466"
       style="fill:none;stroke:#000000;stroke-width:17;stroke-linecap:butt;stroke-linejoin:miter;stroke-miterlimit:4;stroke-opacity:1;stroke-dasharray:none" />
    <path
       sodipodi:nodetypes="ccccccccc"
       inkscape:connector-curvature="0"
       id="path3771"
       d="m 332.63652,204.84801 0.0807,26.6251 -121.30306,0.0603 -0.0549,-15.76783 75.96128,-79.81842 -76.06786,-80.503204 0.0807,-14.547284 121.03187,-0.08872 0.0549,30.552835"
       style="fill:none;stroke:#000000;stroke-width:17.82149315;stroke-linecap:butt;stroke-linejoin:miter;stroke-miterlimit:4;stroke-opacity:1;stroke-dasharray:none" />
  </g>
</svg>
