<?xml version="1.0" encoding="utf-8"?>
<!-- Generator: Adobe Illustrator 26.1.0, SVG Export Plug-In . SVG Version: 6.00 Build 0)  -->
<svg version="1.1" id="Layer_1" xmlns="http://www.w3.org/2000/svg" xmlns:xlink="http://www.w3.org/1999/xlink" x="0px" y="0px"
	 viewBox="0 0 24 24" style="enable-background:new 0 0 24 24;" xml:space="preserve">
<g>
	<rect x="2" y="20" width="20" height="2"/>
	<path d="M19.9,15.4c-0.9-0.6-1.7-2.2-2-3.1l-0.3-1c-1-3.4-2.1-7.4-5.5-7.4H12c-3.5,0-4.6,3.9-5.5,7.4l-0.3,1
		c-0.3,0.9-1.1,2.5-2,3.1c-0.7,0.4-1.6,0.5-2.1,0.5v2c0.5,0,2-0.1,3.2-0.9c1.4-1,2.4-3,2.8-4.2l0.3-1c1-3.5,1.8-5.9,3.6-5.9h0.1
		c1.8,0,2.6,2.3,3.6,5.9l0.3,1c0.3,1.2,1.4,3.3,2.8,4.2c1.2,0.8,2.8,1,3.2,1v-2C21.7,15.9,20.6,15.9,19.9,15.4z"/>
</g>
</svg>
