<?xml version="1.0" encoding="iso-8859-1"?>
<!-- Generator: Adobe Illustrator 15.1.0, SVG Export Plug-In . SVG Version: 6.00 Build 0)  -->
<!DOCTYPE svg PUBLIC "-//W3C//DTD SVG 1.1//EN" "http://www.w3.org/Graphics/SVG/1.1/DTD/svg11.dtd">
<svg version="1.1" xmlns="http://www.w3.org/2000/svg" xmlns:xlink="http://www.w3.org/1999/xlink" x="0px" y="0px" width="712px"
	 height="512px" viewBox="0 0 712 512" style="enable-background:new 0 0 712 512;" xml:space="preserve">
<g id="stylingbar_x5F_icon_x5F_probability">
	<g>
		<rect y="41.96" style="fill:#999999;" width="454.811" height="60"/>
		<rect y="226" style="fill:#999999;" width="454.811" height="60"/>
		<rect y="412.039" style="fill:#999999;" width="454.811" height="60.001"/>
	</g>
	<path style="fill:#FFFFFF;" d="M1096.856,366.761c0,0-276.895,31.239-368.895-88.761
		C593.847,103.067,523.313,65.514,467.735,65.514C412.163,65.514,356,87,212.962,271c-107.03,137.68-374.345,95.761-374.345,95.761
		V445h1275.345L1096.856,366.761z"/>
	<path style="opacity:0.4;fill:#0000FF;" d="M340.481,408.93h250.511V172.103c-56.855-58.63-93.701-75.378-125.257-75.378
		c-31.554,0-68.398,16.748-125.254,75.378V408.93z"/>
	<path style="fill:none;stroke:#0000FF;stroke-width:20;stroke-miterlimit:10;" d="M977.856,398.93
		c0,0-190.008,18.096-300.395-124.863S510.978,96.725,465.735,96.725c-45.237,0-101.337,34.382-211.724,177.341
		C143.626,417.025-46.383,398.93-46.383,398.93"/>
	
		<line style="fill:none;stroke:#000000;stroke-width:20;stroke-miterlimit:10;" x1="-7.928" y1="411.062" x2="939.401" y2="411.062"/>
</g>
<g id="Ebene_1">
</g>
</svg>
