<?xml version="1.0" encoding="iso-8859-1"?>
<!-- Generator: Adobe Illustrator 15.1.0, SVG Export Plug-In . SVG Version: 6.00 Build 0)  -->
<!DOCTYPE svg PUBLIC "-//W3C//DTD SVG 1.1//EN" "http://www.w3.org/Graphics/SVG/1.1/DTD/svg11.dtd">
<svg version="1.1" xmlns="http://www.w3.org/2000/svg" xmlns:xlink="http://www.w3.org/1999/xlink" x="0px" y="0px" width="712px"
	 height="512px" viewBox="0 0 712 512" style="enable-background:new 0 0 712 512;" xml:space="preserve">
<g id="stylingbar_x5F_icon_x5F_spreadsheet">
	<g>
		<rect y="41.96" style="fill:#999999;" width="454.811" height="60"/>
		<rect y="226" style="fill:#999999;" width="454.811" height="60"/>
		<rect y="412.039" style="fill:#999999;" width="454.811" height="60.001"/>
	</g>
	<rect x="181.962" style="fill:#FFFFFF;" width="530.038" height="512"/>
	<rect x="198.811" y="106" style="display:none;fill:#999999;" width="512" height="15"/>
	<rect x="295.811" style="display:none;fill:#999999;" width="15" height="512"/>
	<rect x="200" style="fill:#9999FF;" width="512" height="150"/>
	<rect x="198.811" style="fill:#9999FF;" width="150" height="512"/>
	<path style="fill:#333333;" d="M498.901,129.936h-16.206l-11.895-29.438h-53.82l-12.043,29.438h-15.76l46.238-109.872h16.652
		L498.901,129.936z M464.408,87.563l-20.963-50.698l-20.518,50.698H464.408z"/>
	<path style="fill:#333333;" d="M286.382,300.1h-14.153v-91.771c-5.661,3.973-13.609,8.193-23.837,12.662v-12.662
		c4.37-2.682,8.466-5.61,12.291-8.791c3.821-3.178,6.53-5.586,8.119-7.225c1.587-1.639,2.384-2.407,2.384-2.31h15.196V300.1z"/>
	<path style="fill:#333333;" d="M304.408,478h-66.445v-14.153c12.91-14.4,23.166-25.848,30.765-34.34s12.909-15.047,15.94-19.666
		c3.029-4.618,4.545-8.664,4.545-12.142c0-6.653-1.292-11.546-3.874-14.675c-2.584-3.128-6.904-4.692-12.962-4.692
		c-5.363,0-9.385,1.54-12.066,4.618c-2.682,3.081-4.421,7.997-5.215,14.749h-15.494c1.588-21.352,12.515-32.031,32.775-32.031
		c10.031,0,17.879,3.055,23.539,9.163c5.662,6.107,8.492,13.035,8.492,20.782c0,2.384-0.2,4.571-0.596,6.556
		c-0.398,1.987-1.043,4.097-1.937,6.331c-0.894,2.235-2.111,4.544-3.65,6.928c-1.541,2.384-3.478,5.093-5.81,8.12
		c-2.335,3.03-5.092,6.331-8.27,9.907c-3.18,3.575-6.878,7.747-11.099,12.514c-4.223,4.768-9.013,10.033-14.376,15.792
		c-1.691,1.89-2.98,3.328-3.874,4.32h49.61V478z"/>
	<rect x="198.811" y="324" style="fill:#999999;" width="512" height="15"/>
	<rect x="521.811" style="fill:#999999;" width="15" height="512"/>
	<g>
		<path style="fill:#333333;" d="M665.567,99.309c0,8.623-3.271,15.885-9.813,21.781c-6.542,5.898-14.272,8.846-23.193,8.846H584.39
			V20.064h44.157c9.516,0,17.396,2.305,23.64,6.914s9.367,11.325,9.367,20.146c0,3.471-0.646,6.69-1.934,9.664
			c-1.289,2.974-2.85,5.303-4.683,6.988c-1.835,1.687-3.668,3.147-5.501,4.386c-1.835,1.241-3.396,2.106-4.684,2.602l-1.933,0.595
			c0.595,0.2,1.412,0.446,2.453,0.744c1.04,0.297,2.874,1.188,5.501,2.676c2.625,1.486,4.93,3.174,6.913,5.055
			c1.982,1.884,3.791,4.561,5.427,8.028C664.75,91.332,665.567,95.146,665.567,99.309z M647.429,49.205
			c0-10.605-7.83-15.908-23.49-15.908h-24.234v32.708h23.937C639.499,66.005,647.429,60.407,647.429,49.205z M650.7,97.674
			c0-6.146-2.355-10.854-7.063-14.125c-4.709-3.271-11.622-4.906-20.74-4.906h-23.193v38.062h23.937
			c8.028,0,14.545-1.784,19.551-5.353C648.196,107.783,650.7,103.226,650.7,97.674z"/>
	</g>
	<rect x="348.811" style="fill:#FFFFFF;" width="15" height="150"/>
	<rect x="198.811" y="150" style="fill:#FFFFFF;" width="150" height="15"/>
	<rect x="198.811" y="324" style="fill:#FFFFFF;" width="150" height="15"/>
	<rect x="521.811" style="fill:#FFFFFF;" width="15" height="150"/>
</g>
<g id="Ebene_1">
</g>
</svg>
