<?xml version="1.0" encoding="utf-8"?>
<!-- Generator: Adobe Illustrator 18.1.0, SVG Export Plug-In . SVG Version: 6.00 Build 0)  -->
<svg version="1.1" xmlns="http://www.w3.org/2000/svg" xmlns:xlink="http://www.w3.org/1999/xlink" x="0px" y="0px"
	 viewBox="0 0 712 512" enable-background="new 0 0 712 512" xml:space="preserve">
<g id="BG" display="none">
	<rect x="-13" display="inline" fill="#FFFFFF" width="512" height="512"/>
	<rect x="12" y="25" display="inline" fill="#CCCCCC" width="462" height="25"/>
	<path display="inline" fill="#666666" d="M-13,0v512h512V0H-13z M473.1,487H12.8V25h460.3V487z"/>
</g>
<g id="Ebene_20">
	<g>
		<rect x="0" y="42" fill="#999999" width="454.8" height="60"/>
		<rect x="0" y="226" fill="#999999" width="454.8" height="60"/>
		<rect x="0" y="412" fill="#999999" width="454.8" height="60"/>
	</g>
</g>
<g id="menu_x5F_view_x5F_graphics3D" display="none">
	<g display="inline">
		<g>
			<polygon fill="#FFFFFF" points="516.7,501.6 183,395.2 391.6,-20.1 			"/>
			<polygon fill="#FFFFFF" points="492.1,468.6 217.9,379.2 392.1,36.2 			"/>
		</g>
		<g>
			<polygon fill="#FFFFFF" points="734.2,277.3 516.7,501.6 391.6,-20.1 			"/>
			<polygon fill="#FFFFFF" points="702.9,278.7 522.1,463.3 416.9,30 			"/>
		</g>
		<polygon opacity="0.4" fill="#FFFFFF" points="516.7,501.6 734.2,277.3 391.6,-20.1 		"/>
	</g>
	<g display="inline">
		<g>
			<polygon fill="#0000FF" points="510.2,483.9 200.7,385.2 394.2,0 			"/>
			<polygon fill="#9999FF" points="487.4,453.3 233.1,370.4 394.6,52.2 			"/>
		</g>
		<g>
			<polygon fill="#0000FF" points="712,275.9 510.2,483.9 394.2,0 			"/>
			<polygon fill="#9999FF" points="683,277.2 515.2,448.4 417.7,46.5 			"/>
		</g>
		<linearGradient id="SVGID_1_" gradientUnits="userSpaceOnUse" x1="394.2109" y1="241.9619" x2="712" y2="241.9619">
			<stop  offset="0" style="stop-color:#172983;stop-opacity:0"/>
			<stop  offset="1" style="stop-color:#172983"/>
		</linearGradient>
		<polygon opacity="0.4" fill="url(#SVGID_1_)" points="510.2,483.9 712,275.9 394.2,0 		"/>
	</g>
</g>
<g id="menu_x5F_view_x5F_graphics3" display="none">
	<polyline display="inline" fill="#FFFFFF" points="239.5,396.5 740.5,398.3 462,-30.1 	"/>
	<circle display="inline" fill="#FFFFFF" cx="332.7" cy="340" r="187.6"/>
	<g display="inline">
		<g>
			<circle opacity="0.4" fill="#009900" cx="333.9" cy="341.2" r="170.8"/>
			<g>
				<path fill="#009900" d="M333.9,170.4c-94.3,0-170.8,76.5-170.8,170.8c0,94.3,76.5,170.8,170.8,170.8
					c94.3,0,170.8-76.5,170.8-170.8C504.7,246.9,428.3,170.4,333.9,170.4z M333.9,494.9c-84.9,0-153.7-68.8-153.7-153.7
					c0-84.9,68.8-153.7,153.7-153.7c84.9,0,153.7,68.8,153.7,153.7C487.7,426.1,418.8,494.9,333.9,494.9z"/>
			</g>
		</g>
		<g>
			<polyline opacity="0.4" fill="#0000FF" points="265,380.5 712,382.1 463.6,0 			"/>
			<g>
				<path fill="#0000FF" d="M463.6,1.6L265,382.1h447L463.6,1.6z M465.3,35.5l214.1,329.3l-385.2-0.2L465.3,35.5z"/>
			</g>
		</g>
	</g>
	<rect x="361.3" y="8" display="inline" fill="none" width="350.7" height="267.9"/>
	
		<text transform="matrix(1 0 0 1 583.7534 185.498)" display="inline" fill="#666666" font-family="'FreeUniversal-Regular'" font-size="250">3</text>
</g>
<g id="menu_x5F_view_x5F_graphics2">
	<polyline fill="#FFFFFF" points="239.5,396.5 740.5,398.3 462,-30.1 	"/>
	<circle fill="#FFFFFF" cx="332.7" cy="340" r="187.6"/>
	<g>
		<g>
			<circle opacity="0.4" fill="#009900" cx="333.9" cy="341.2" r="170.8"/>
			<g>
				<path fill="#009900" d="M333.9,170.4c-94.3,0-170.8,76.5-170.8,170.8c0,94.3,76.5,170.8,170.8,170.8
					c94.3,0,170.8-76.5,170.8-170.8C504.7,246.9,428.3,170.4,333.9,170.4z M333.9,494.9c-84.9,0-153.7-68.8-153.7-153.7
					c0-84.9,68.8-153.7,153.7-153.7c84.9,0,153.7,68.8,153.7,153.7C487.7,426.1,418.8,494.9,333.9,494.9z"/>
			</g>
		</g>
		<g>
			<polyline opacity="0.4" fill="#0000FF" points="265,380.5 712,382.1 463.6,0 			"/>
			<g>
				<path fill="#0000FF" d="M463.6,1.6L265,382.1h447L463.6,1.6z M465.3,35.5l214.1,329.3l-385.2-0.2L465.3,35.5z"/>
			</g>
		</g>
	</g>
	<rect x="361.3" y="8" fill="none" width="350.7" height="267.9"/>
	<text transform="matrix(1 0 0 1 583.7534 185.498)" fill="#666666" font-family="'FreeUniversal-Regular'" font-size="250">2</text>
</g>
<g id="menu_x5F_view_x5F_graphics1" display="none">
	<rect x="361.3" display="inline" fill="none" width="350.7" height="267.9"/>
	
		<text transform="matrix(1 0 0 1 583.7534 177.498)" display="inline" fill="#666666" font-family="'FreeUniversal-Regular'" font-size="250">1</text>
	<polyline display="inline" fill="#FFFFFF" points="239.5,396.5 740.5,398.3 462,-30.1 	"/>
	<circle display="inline" fill="#FFFFFF" cx="332.7" cy="340" r="187.6"/>
	<g display="inline">
		<g>
			<circle opacity="0.4" fill="#009900" cx="333.9" cy="341.2" r="170.8"/>
			<g>
				<path fill="#009900" d="M333.9,170.4c-94.3,0-170.8,76.5-170.8,170.8c0,94.3,76.5,170.8,170.8,170.8
					c94.3,0,170.8-76.5,170.8-170.8C504.7,246.9,428.3,170.4,333.9,170.4z M333.9,494.9c-84.9,0-153.7-68.8-153.7-153.7
					c0-84.9,68.8-153.7,153.7-153.7c84.9,0,153.7,68.8,153.7,153.7C487.7,426.1,418.8,494.9,333.9,494.9z"/>
			</g>
		</g>
		<g>
			<polyline opacity="0.4" fill="#0000FF" points="265,380.5 712,382.1 463.6,0 			"/>
			<g>
				<path fill="#0000FF" d="M463.6,1.6L265,382.1h447L463.6,1.6z M465.3,35.5l214.1,329.3l-385.2-0.2L465.3,35.5z"/>
			</g>
		</g>
	</g>
</g>
<g id="menu_x5F_view_x5F_graphics" display="none">
	<g id="Ebene_14" display="inline">
		<polyline fill="#FFFFFF" points="239.5,396.5 740.5,398.3 462,-30.1 		"/>
		<circle fill="#FFFFFF" cx="332.7" cy="340" r="187.6"/>
	</g>
	<g display="inline">
		<g>
			<circle opacity="0.4" fill="#009900" cx="333.9" cy="341.2" r="170.8"/>
			<g>
				<path fill="#009900" d="M333.9,170.4c-94.3,0-170.8,76.5-170.8,170.8c0,94.3,76.5,170.8,170.8,170.8
					c94.3,0,170.8-76.5,170.8-170.8C504.7,246.9,428.3,170.4,333.9,170.4z M333.9,494.9c-84.9,0-153.7-68.8-153.7-153.7
					c0-84.9,68.8-153.7,153.7-153.7c84.9,0,153.7,68.8,153.7,153.7C487.7,426.1,418.8,494.9,333.9,494.9z"/>
			</g>
		</g>
		<g>
			<polyline opacity="0.4" fill="#0000FF" points="265,380.5 712,382.1 463.6,0 			"/>
			<g>
				<path fill="#0000FF" d="M463.6,1.6L265,382.1h447L463.6,1.6z M465.3,35.5l214.1,329.4l-385.2-0.2L465.3,35.5z"/>
			</g>
		</g>
	</g>
</g>
<g id="menu_x5F_view_x5F_construction_x5F_protocol" display="none">
	<rect x="182" display="inline" fill="#FFFFFF" width="530" height="512"/>
	<rect x="200" y="352" display="inline" fill="#9999FF" width="512" height="160"/>
	<rect x="232" y="39.5" display="inline" fill="none" width="473" height="469.5"/>
	<text transform="matrix(1 0 0 1 232 124.6992)" display="inline"><tspan x="0" y="0" fill="#666666" font-family="'FreeUniversal-Regular'" font-size="120">A=(1,1)</tspan><tspan x="0" y="173" fill="#666666" font-family="'FreeUniversal-Regular'" font-size="120">B=(2,2)</tspan><tspan x="0" y="346" fill="#333333" font-family="'FreeUniversal-Regular'" font-size="120">a: y=x</tspan></text>
	<rect x="200" y="164.4" display="inline" fill="#999999" width="512" height="15"/>
	<rect x="200" y="346" display="inline" fill="#999999" width="512" height="15"/>
</g>
<g id="menu_x5F_view_x5F_spreadsheet" display="none">
	<rect x="182" display="inline" fill="#FFFFFF" width="530" height="512"/>
	<rect x="198.8" y="106" fill="#999999" width="512" height="15"/>
	<rect x="295.8" fill="#999999" width="15" height="512"/>
	<rect x="200" display="inline" fill="#9999FF" width="512" height="150"/>
	<rect x="198.8" display="inline" fill="#9999FF" width="150" height="512"/>
	<path display="inline" fill="#333333" d="M498.9,129.9h-16.2l-11.9-29.4H417l-12,29.4h-15.8l46.2-109.9h16.7L498.9,129.9z
		 M464.4,87.6l-21-50.7l-20.5,50.7H464.4z"/>
	<path display="inline" fill="#333333" d="M286.4,300.1h-14.2v-91.8c-5.7,4-13.6,8.2-23.8,12.7v-12.7c4.4-2.7,8.5-5.6,12.3-8.8
		c3.8-3.2,6.5-5.6,8.1-7.2c1.6-1.6,2.4-2.4,2.4-2.3h15.2V300.1z"/>
	<path display="inline" fill="#333333" d="M304.4,478H238v-14.2c12.9-14.4,23.2-25.8,30.8-34.3c7.6-8.5,12.9-15,15.9-19.7
		c3-4.6,4.5-8.7,4.5-12.1c0-6.7-1.3-11.5-3.9-14.7c-2.6-3.1-6.9-4.7-13-4.7c-5.4,0-9.4,1.5-12.1,4.6c-2.7,3.1-4.4,8-5.2,14.7h-15.5
		c1.6-21.4,12.5-32,32.8-32c10,0,17.9,3.1,23.5,9.2c5.7,6.1,8.5,13,8.5,20.8c0,2.4-0.2,4.6-0.6,6.6c-0.4,2-1,4.1-1.9,6.3
		c-0.9,2.2-2.1,4.5-3.7,6.9c-1.5,2.4-3.5,5.1-5.8,8.1c-2.3,3-5.1,6.3-8.3,9.9c-3.2,3.6-6.9,7.7-11.1,12.5c-4.2,4.8-9,10-14.4,15.8
		c-1.7,1.9-3,3.3-3.9,4.3h49.6V478z"/>
	<rect x="198.8" y="324" display="inline" fill="#999999" width="512" height="15"/>
	<rect x="521.8" display="inline" fill="#999999" width="15" height="512"/>
	<g display="inline">
		<path fill="#333333" d="M665.6,99.3c0,8.6-3.3,15.9-9.8,21.8c-6.5,5.9-14.3,8.8-23.2,8.8h-48.2V20.1h44.2c9.5,0,17.4,2.3,23.6,6.9
			c6.2,4.6,9.4,11.3,9.4,20.1c0,3.5-0.6,6.7-1.9,9.7c-1.3,3-2.8,5.3-4.7,7c-1.8,1.7-3.7,3.1-5.5,4.4c-1.8,1.2-3.4,2.1-4.7,2.6
			l-1.9,0.6c0.6,0.2,1.4,0.4,2.5,0.7c1,0.3,2.9,1.2,5.5,2.7c2.6,1.5,4.9,3.2,6.9,5.1c2,1.9,3.8,4.6,5.4,8
			C664.8,91.3,665.6,95.1,665.6,99.3z M647.4,49.2c0-10.6-7.8-15.9-23.5-15.9h-24.2V66h23.9C639.5,66,647.4,60.4,647.4,49.2z
			 M650.7,97.7c0-6.1-2.4-10.9-7.1-14.1c-4.7-3.3-11.6-4.9-20.7-4.9h-23.2v38.1h23.9c8,0,14.5-1.8,19.6-5.4
			C648.2,107.8,650.7,103.2,650.7,97.7z"/>
	</g>
	<rect x="348.8" display="inline" fill="#FFFFFF" width="15" height="150"/>
	<rect x="198.8" y="150" display="inline" fill="#FFFFFF" width="150" height="15"/>
	<rect x="198.8" y="324" display="inline" fill="#FFFFFF" width="150" height="15"/>
	<rect x="521.8" display="inline" fill="#FFFFFF" width="15" height="150"/>
</g>
<g id="menu_x5F_view_x5F_cas" display="none">
	<rect x="184" y="-23" display="inline" fill="#FFFFFF" width="184" height="576"/>
	<rect x="200" display="inline" fill="#9999FF" width="150" height="512"/>
	<rect x="350" display="inline" opacity="0.4" fill="#FFFFFF" width="362" height="512"/>
	<polygon display="inline" fill="#FFFFFF" points="412,256 356,171.6 576.2,170.6 526.5,255 588,346.6 353,347.1 	"/>
	<g display="inline">
		<path fill="#666666" d="M560.5,347.1h-56.1l-39.3-62.5l-36.6,62.5h-52.6l62.5-93.7l-56.4-81.3h55.7l34.5,51.6l29.7-51.6h52.3
			l-55,81.3L560.5,347.1z"/>
	</g>
	<g display="inline">
		<path fill="#666666" d="M712,239.9H576.2v-20.6H712V239.9z M712,301H576.2v-20.9H712V301z"/>
	</g>
</g>
<g id="menu_x5F_view_x5F_algebra" display="none">
	<circle display="inline" fill="#FFFFFF" cx="456" cy="66" r="86"/>
	<circle display="inline" fill="#FFFFFF" cx="456" cy="255.7" r="86"/>
	<circle display="inline" fill="#FFFFFF" cx="456" cy="446.3" r="86"/>
	<g display="inline">
		<path fill="#6666FF" d="M522,66c0,36.4-29.5,66-66,66s-66-29.5-66-66c0-36.4,29.5-66,66-66S522,29.5,522,66z"/>
		<path fill="#6666FF" d="M522,446.3c0,36.4-29.5,66-66,66s-66-29.5-66-66c0-36.4,29.5-66,66-66S522,409.9,522,446.3z"/>
		<path fill="#999999" d="M456,189.8c-36.4,0-66,29.5-66,66c0,36.4,29.5,66,66,66s66-29.5,66-66C522,219.3,492.4,189.8,456,189.8z
			 M456,301.9c-25.5,0-46.2-20.7-46.2-46.2c0-25.5,20.7-46.2,46.2-46.2s46.2,20.7,46.2,46.2C502.2,281.2,481.5,301.9,456,301.9z"/>
	</g>
</g>
<g id="stylebar_x5F_icon_x5F_probability" display="none">
	<path display="inline" fill="#FFFFFF" d="M1094.9,359.8c0,0-276.9,31.2-368.9-88.8C591.8,96.1,521.3,58.5,465.7,58.5
		C410.2,58.5,354.9,88,210,256C78.3,408.6-163.4,359.8-163.4,359.8V451H1112L1094.9,359.8z"/>
	<path display="inline" opacity="0.4" fill="#0000FF" d="M340.5,408.9H591V172.1c-56.9-58.6-93.7-75.4-125.3-75.4
		c-31.6,0-68.4,16.7-125.3,75.4V408.9z"/>
	<path display="inline" fill="none" stroke="#0000FF" stroke-width="20" stroke-miterlimit="10" d="M977.9,398.9
		c0,0-190,18.1-300.4-124.9S511,96.7,465.7,96.7c-45.2,0-101.3,34.4-211.7,177.3C143.6,417-46.4,398.9-46.4,398.9"/>
	
		<line display="inline" fill="none" stroke="#000000" stroke-width="20" stroke-miterlimit="10" x1="-7.9" y1="411.1" x2="939.4" y2="411.1"/>
</g>
</svg>
