<svg xmlns="http://www.w3.org/2000/svg" viewBox="0 0 539.15 382.96" width="539" height="383"><defs><style>.cls-1,.cls-2,.cls-3{fill:none;}.cls-1,.cls-2{stroke:#231f20;stroke-miterlimit:10;stroke-width:0.57px;}.cls-2{stroke-linecap:square;}</style></defs><title>Elementary19</title><g id="Layer_2" data-name="Layer 2"><g id="Layer_1-2" data-name="Layer 1"><line class="cls-1" x1="0.28" y1="14.46" x2="538.87" y2="14.46"/><line class="cls-1" x1="0.28" y1="28.63" x2="538.87" y2="28.63"/><rect class="cls-2" x="0.28" y="0.28" width="538.58" height="42.52"/><line class="cls-1" x1="0.28" y1="78.24" x2="538.87" y2="78.24"/><line class="cls-1" x1="0.28" y1="92.41" x2="538.87" y2="92.41"/><rect class="cls-2" x="0.28" y="64.06" width="538.58" height="42.52"/><line class="cls-1" x1="0.28" y1="142.02" x2="538.87" y2="142.02"/><line class="cls-1" x1="0.28" y1="156.19" x2="538.87" y2="156.19"/><rect class="cls-2" x="0.28" y="127.84" width="538.58" height="42.52"/><line class="cls-1" x1="0.28" y1="205.8" x2="538.87" y2="205.8"/><line class="cls-1" x1="0.28" y1="219.97" x2="538.87" y2="219.97"/><rect class="cls-2" x="0.28" y="191.62" width="538.58" height="42.52"/><line class="cls-1" x1="0.28" y1="269.57" x2="538.87" y2="269.57"/><line class="cls-1" x1="0.28" y1="283.75" x2="538.87" y2="283.75"/><rect class="cls-2" x="0.28" y="255.4" width="538.58" height="42.52"/><line class="cls-1" x1="0.28" y1="333.35" x2="538.87" y2="333.35"/><line class="cls-1" x1="0.28" y1="347.53" x2="538.87" y2="347.53"/><rect class="cls-2" x="0.28" y="319.18" width="538.58" height="42.52"/><rect class="cls-3" x="0.28" y="361.7" width="538.58" height="21.26"/></g></g></svg>