<svg width="596" height="383" viewBox="0 0 596 383" fill="none" xmlns="http://www.w3.org/2000/svg">
<rect width="595.7" height="383" fill="#ABCEA0"/>
<path fill-rule="evenodd" clip-rule="evenodd" d="M28.6299 0.350098H566.57L566.57 42.8365H28.6303L28.6299 0.350098ZM28.8799 64.1201H566.82V106.637H28.8799V64.1201ZM28.6299 127.88H566.57V170.397H28.6299V127.88ZM28.8799 191.64H566.82V234.167H28.8799V191.64ZM28.6299 255.4H566.57V297.927H28.6299V255.4ZM28.8799 319.16H566.82V361.687H28.8799V319.16Z" fill="white"/>
<path d="M28.6299 14.5303H567.07M28.6299 28.7003H567.07" stroke="#231F20" stroke-width="0.57" stroke-miterlimit="10"/>
<path d="M28.6299 0.350098H567.06V42.8601H28.6299V0.350098Z" stroke="#231F20" stroke-width="0.57" stroke-miterlimit="10" stroke-linecap="square"/>
<path d="M28.6299 78.29H567.07M28.6299 92.46H567.07" stroke="#231F20" stroke-width="0.57" stroke-miterlimit="10"/>
<path d="M28.6299 64.1201H567.06V106.63H28.6299V64.1201Z" stroke="#231F20" stroke-width="0.57" stroke-miterlimit="10" stroke-linecap="square"/>
<path d="M28.6299 142.05H567.07M28.6299 156.22H567.07" stroke="#231F20" stroke-width="0.57" stroke-miterlimit="10"/>
<path d="M28.6299 127.88H567.06V170.39H28.6299V127.88Z" stroke="#231F20" stroke-width="0.57" stroke-miterlimit="10" stroke-linecap="square"/>
<path d="M28.6299 205.82H567.07M28.6299 219.98H567.07" stroke="#231F20" stroke-width="0.57" stroke-miterlimit="10"/>
<path d="M28.6299 191.64H567.06V234.15H28.6299V191.64Z" stroke="#231F20" stroke-width="0.57" stroke-miterlimit="10" stroke-linecap="square"/>
<path d="M28.6299 269.57H567.07M28.6299 283.74H567.07" stroke="#231F20" stroke-width="0.57" stroke-miterlimit="10"/>
<path d="M28.6299 255.4H567.06V297.91H28.6299V255.4Z" stroke="#231F20" stroke-width="0.57" stroke-miterlimit="10" stroke-linecap="square"/>
<path d="M28.6299 333.33H567.07M28.6299 347.51H567.07" stroke="#231F20" stroke-width="0.57" stroke-miterlimit="10"/>
<path d="M28.6299 319.16H567.06V361.67H28.6299V319.16Z" stroke="#231F20" stroke-width="0.57" stroke-miterlimit="10" stroke-linecap="square"/>
</svg>
