<?xml version="1.0" encoding="iso-8859-1"?>
<!-- Generator: Adobe Illustrator 15.1.0, SVG Export Plug-In . SVG Version: 6.00 Build 0)  -->
<!DOCTYPE svg PUBLIC "-//W3C//DTD SVG 1.1//EN" "http://www.w3.org/Graphics/SVG/1.1/DTD/svg11.dtd">
<svg version="1.1" xmlns="http://www.w3.org/2000/svg" xmlns:xlink="http://www.w3.org/1999/xlink" x="0px" y="0px" width="512px"
	 height="512px" viewBox="0 0 512 512" style="enable-background:new 0 0 512 512;" xml:space="preserve">
<g id="menu_x5F_view_x5F_graphics2">
	<g>
		<circle style="opacity:0.4;fill:#009900;" cx="150" cy="362" r="150"/>
		<g>
			<path style="fill:#009900;" d="M150.001,212C67.157,212,0,279.156,0,362c0,82.842,67.157,150,150.001,150
				C232.844,512,300,444.842,300,362C300,279.156,232.844,212,150.001,212z M150,497c-74.558,0-135-60.441-135-135
				s60.442-135,135-135s135,60.441,135,135S224.558,497,150,497z"/>
		</g>
	</g>
	<g>
		<polyline style="opacity:0.4;fill:#0000FF;" points="89.495,396.533 482,397.942 263.836,62.379 		"/>
		<g>
			<path style="fill:#0000FF;" d="M263.836,63.789L89.495,397.942H482L263.836,63.789z M265.379,93.57l188.036,289.224
				l-338.302-0.215L265.379,93.57z"/>
		</g>
	</g>
	<g>
		<path style="fill:#666666;" d="M496.619,190.42H387.732v-23.193c21.156-23.598,37.963-42.358,50.414-56.274
			s21.156-24.658,26.123-32.227c4.963-7.568,7.447-14.198,7.447-19.897c0-10.902-2.117-18.921-6.348-24.048
			c-4.234-5.127-11.314-7.69-21.24-7.69c-8.789,0-15.381,2.525-19.775,7.568c-4.395,5.047-7.244,13.104-8.545,24.17h-25.391
			c2.602-34.992,20.508-52.49,53.711-52.49c16.438,0,29.297,5.005,38.574,15.015s13.916,21.362,13.916,34.058
			c0,3.906-0.328,7.488-0.977,10.742c-0.652,3.258-1.709,6.714-3.174,10.376s-3.461,7.446-5.982,11.353
			c-2.525,3.906-5.699,8.343-9.521,13.306c-3.826,4.967-8.342,10.376-13.549,16.235c-5.211,5.859-11.273,12.695-18.189,20.508
			c-6.92,7.813-14.77,16.441-23.559,25.879c-2.77,3.094-4.883,5.455-6.348,7.08h81.299V190.42z"/>
	</g>
</g>
<g id="Ebene_1">
</g>
</svg>
