<?xml version="1.0" encoding="iso-8859-1"?>
<!-- Generator: Adobe Illustrator 15.1.0, SVG Export Plug-In . SVG Version: 6.00 Build 0)  -->
<!DOCTYPE svg PUBLIC "-//W3C//DTD SVG 1.1//EN" "http://www.w3.org/Graphics/SVG/1.1/DTD/svg11.dtd">
<svg version="1.1" xmlns="http://www.w3.org/2000/svg" xmlns:xlink="http://www.w3.org/1999/xlink" x="0px" y="0px" width="512px"
	 height="512px" viewBox="0 0 512 512" style="enable-background:new 0 0 512 512;" xml:space="preserve">
<g id="menu_x5F_view_x5F_graphics3">
	<g>
		<circle style="opacity:0.4;fill:#009900;" cx="150" cy="362" r="150"/>
		<g>
			<path style="fill:#009900;" d="M150.001,212C67.157,212,0,279.156,0,362c0,82.842,67.157,150,150.001,150
				C232.844,512,300,444.842,300,362C300,279.156,232.844,212,150.001,212z M150,497c-74.558,0-135-60.441-135-135
				s60.442-135,135-135s135,60.441,135,135S224.558,497,150,497z"/>
		</g>
	</g>
	<g>
		<polyline style="opacity:0.4;fill:#0000FF;" points="89.495,396.533 482,397.942 263.836,62.379 		"/>
		<g>
			<path style="fill:#0000FF;" d="M263.836,63.789L89.495,397.942H482L263.836,63.789z M265.379,93.57l188.036,289.224
				l-338.302-0.215L265.379,93.57z"/>
		</g>
	</g>
	<g>
		<path style="fill:#666666;" d="M500.525,142.08c0,14.813-5.578,27.142-16.725,36.987c-11.15,9.85-25.268,14.771-42.357,14.771
			c-18.883,0-33.203-5.043-42.969-15.137c-9.766-10.09-14.648-22.053-14.648-35.889h26.611c1.953,21.16,12.531,31.738,31.738,31.738
			c8.461,0,16.15-3.052,23.07-9.155c6.916-6.104,10.377-13.142,10.377-21.118c0-25.715-16.846-38.33-50.537-37.842v-20.02
			c15.625,0,27.465-2.686,35.521-8.057s12.086-14.076,12.086-26.123c0-9.438-3.297-16.235-9.889-20.386s-13.713-6.226-21.361-6.226
			c-15.465,0-24.986,10.418-28.564,31.25h-25.391c2.113-16.273,7.729-28.767,16.846-37.476c9.113-8.705,21.32-13.062,36.621-13.062
			c16.762,0,30.395,4.517,40.893,13.55s15.748,20.386,15.748,34.058c0,5.699-1.184,10.986-3.541,15.869
			c-2.361,4.883-5.248,8.751-8.666,11.597c-3.418,2.85-7,5.615-10.742,8.301c-3.746,2.686-6.92,4.681-9.521,5.981
			c1.137,0.652,3.578,1.953,7.324,3.906c3.742,1.953,6.916,3.868,9.521,5.737c2.602,1.873,5.492,4.437,8.666,7.69
			c3.174,3.258,5.615,7.324,7.324,12.207S500.525,135.732,500.525,142.08z"/>
	</g>
</g>
<g id="Ebene_1">
</g>
</svg>
