<?xml version="1.0" encoding="UTF-8" standalone="no"?>
<!-- Created with Inkscape (http://www.inkscape.org/) -->

<svg
   xmlns:dc="http://purl.org/dc/elements/1.1/"
   xmlns:cc="http://creativecommons.org/ns#"
   xmlns:rdf="http://www.w3.org/1999/02/22-rdf-syntax-ns#"
   xmlns:svg="http://www.w3.org/2000/svg"
   xmlns="http://www.w3.org/2000/svg"
   xmlns:sodipodi="http://sodipodi.sourceforge.net/DTD/sodipodi-0.dtd"
   xmlns:inkscape="http://www.inkscape.org/namespaces/inkscape"
   id="svg2"
   version="1.1"
   inkscape:version="0.48.2 r9819"
   width="230"
   height="232"
   sodipodi:docname="mode_point.gif">
  <metadata
     id="metadata8">
    <rdf:RDF>
      <cc:Work
         rdf:about="">
        <dc:format>image/svg+xml</dc:format>
        <dc:type
           rdf:resource="http://purl.org/dc/dcmitype/StillImage" />
        <dc:title></dc:title>
      </cc:Work>
    </rdf:RDF>
  </metadata>
  <defs
     id="defs6" />
  <sodipodi:namedview
     pagecolor="#ffffff"
     bordercolor="#666666"
     borderopacity="1"
     objecttolerance="10"
     gridtolerance="10"
     guidetolerance="10"
     inkscape:pageopacity="0"
     inkscape:pageshadow="2"
     inkscape:window-width="1618"
     inkscape:window-height="1028"
     id="namedview4"
     showgrid="false"
     inkscape:zoom="2.0344828"
     inkscape:cx="155.74116"
     inkscape:cy="140.92559"
     inkscape:window-x="54"
     inkscape:window-y="-8"
     inkscape:window-maximized="1"
     inkscape:current-layer="svg2" />
  <g
     id="g3013">
    <path
       style="fill:#fdfdfd"
       d="m 0.98305499,116.49153 0,-116.00000456 114.99999501,0 115,0 0,116.00000456 0,116 -115,0 -114.99999501,0 0,-116 z"
       id="path3003"
       inkscape:connector-curvature="0" />
    <path
       sodipodi:nodetypes="ssssssscccsscccsssssssssss"
       style="fill:#0505fc"
       d="m 67.298998,179.16545 c -18.282137,-6.74039 -24.202973,-30.29614 -11.299651,-44.95509 6.909857,-7.85001 18.32984,-11.21366 28.265403,-8.32532 25.00853,7.27018 27.75119,41.24093 4.218305,52.24824 -5.601201,2.61992 -15.561299,3.10521 -21.184057,1.03217 z M 128.98305,109.1817 c 0,-0.7204 5.77756,-16.357905 12.83903,-34.750001 l 13.18659,-33.961515 4.34653,-0.299046 4.34652,0.222294 4.65674,11.299047 c 17.71349,42.979733 23.40452,57.346111 22.98547,58.024161 -0.60978,0.98664 -5.40011,1.3296 -6.95476,0.34056 -0.64942,-0.41301 -2.99862,-5.59118 -5.11424,-11.082254 l -5.4106,-12.155677 -12.49115,0.591513 c -9.3548,0.442994 -15.65454,0.112506 -16.45823,0.779503 -0.70041,0.581291 -3.19151,6.50947 -5.00477,11.580743 -1.81327,5.071282 -3.16793,9.203552 -3.75376,9.607632 -1.81788,1.25389 -7.17337,1.20771 -7.17337,-0.19696 z m 42.81771,-27.978212 c 0.40212,-1.047928 -8.40349,-26.325036 -10.18552,-29.208418 -0.87646,-1.418146 -4.38726,-1.673376 -5.11261,1.629134 -0.38273,1.742545 -3.30224,8.538964 -5.7444,14.996955 -2.44217,6.457991 -4.1564,12.8963 -3.8094,13.457761 0.98283,1.590243 24.23488,0.732571 24.85193,-0.875432 z"
       id="path2993"
       inkscape:connector-curvature="0" />
    <path
       style="fill:#07070c"
       d="m 67.298998,179.16545 c -18.282137,-6.74039 -24.202973,-30.29614 -11.299651,-44.95509 6.909857,-7.85001 18.32984,-11.21366 28.265403,-8.32532 25.00853,7.27018 27.75119,41.24093 4.218305,52.24824 -5.601201,2.61992 -15.561299,3.10521 -21.184057,1.03217 z m 19.435485,-7.23734 c 15.474937,-7.71149 15.993627,-28.51699 0.942917,-37.82213 -15.34064,-9.48439 -35.654055,4.7954 -32.294697,22.70232 1.075413,5.73244 6.029566,12.34908 11.299918,15.09187 6.536532,3.40174 13.262728,3.41111 20.051862,0.0279 z"
       id="path2989"
       inkscape:connector-curvature="0" />
  </g>
</svg>
