<?xml version="1.0" encoding="UTF-8" standalone="no"?>
<!-- Created with Inkscape (http://www.inkscape.org/) -->

<svg
   xmlns:dc="http://purl.org/dc/elements/1.1/"
   xmlns:cc="http://creativecommons.org/ns#"
   xmlns:rdf="http://www.w3.org/1999/02/22-rdf-syntax-ns#"
   xmlns:svg="http://www.w3.org/2000/svg"
   xmlns="http://www.w3.org/2000/svg"
   xmlns:sodipodi="http://sodipodi.sourceforge.net/DTD/sodipodi-0.dtd"
   xmlns:inkscape="http://www.inkscape.org/namespaces/inkscape"
   id="svg2"
   version="1.1"
   inkscape:version="0.48.2 r9819"
   width="230"
   height="232"
   sodipodi:docname="new_point.svg">
  <metadata
     id="metadata8">
    <rdf:RDF>
      <cc:Work
         rdf:about="">
        <dc:format>image/svg+xml</dc:format>
        <dc:type
           rdf:resource="http://purl.org/dc/dcmitype/StillImage" />
        <dc:title />
      </cc:Work>
    </rdf:RDF>
  </metadata>
  <defs
     id="defs6" />
  <sodipodi:namedview
     pagecolor="#ffffff"
     bordercolor="#666666"
     borderopacity="1"
     objecttolerance="10"
     gridtolerance="10"
     guidetolerance="10"
     inkscape:pageopacity="0"
     inkscape:pageshadow="2"
     inkscape:window-width="849"
     inkscape:window-height="846"
     id="namedview4"
     showgrid="false"
     inkscape:zoom="1.28"
     inkscape:cx="106.66243"
     inkscape:cy="114.23901"
     inkscape:window-x="1373"
     inkscape:window-y="14"
     inkscape:window-maximized="0"
     inkscape:current-layer="svg2" />
  <path
     inkscape:connector-curvature="0"
     id="path3003"
     d="m 0.98305499,116.49153 0,-116.00000456 114.99999501,0 115,0 0,116.00000456 0,116 -115,0 -114.99999501,0 0,-116 z"
     style="fill:#fdfdfd" />
  <g
     id="g3827"
     transform="translate(0,-2.34375)">
    <path
       transform="translate(-20.644067,14.254237)"
       d="m 114.52542,150.16103 a 25.805084,27.279661 0 1 1 -51.610167,0 25.805084,27.279661 0 1 1 51.610167,0 z"
       sodipodi:ry="27.279661"
       sodipodi:rx="25.805084"
       sodipodi:cy="150.16103"
       sodipodi:cx="88.720337"
       id="path2999"
       style="fill:#0000ff;fill-opacity:1;stroke:none"
       sodipodi:type="arc" />
    <path
       style="fill:#07070c"
       d="M 58.746134,191.16829 C 40.463997,184.4279 34.543161,160.87215 47.446483,146.2132 c 6.909857,-7.85001 18.32984,-11.21366 28.265403,-8.32532 25.008534,7.27018 27.751194,41.24093 4.218305,52.24824 -5.601201,2.61992 -15.561299,3.10521 -21.184057,1.03217 z m 19.435485,-7.23734 c 15.47494,-7.71149 15.99363,-28.51699 0.942917,-37.82213 -15.34064,-9.48439 -35.654055,4.7954 -32.294697,22.70232 1.075413,5.73244 6.029566,12.34908 11.299918,15.09187 6.536532,3.40174 13.262728,3.41111 20.051862,0.0279 z"
       id="path2989"
       inkscape:connector-curvature="0" />
    <text
       transform="scale(0.99360901,1.0064321)"
       sodipodi:linespacing="125%"
       id="text3787"
       y="122.5844"
       x="118.08941"
       style="font-size:105.22057343px;font-style:normal;font-variant:normal;font-weight:normal;font-stretch:normal;line-height:125%;letter-spacing:0px;word-spacing:0px;fill:#0000ff;fill-opacity:1;stroke:none;font-family:FreeUniversal;-inkscape-font-specification:FreeUniversal"
       xml:space="preserve"><tspan
         y="122.5844"
         x="118.08941"
         id="tspan3789"
         sodipodi:role="line">A</tspan></text>
  </g>
</svg>
