<svg xmlns="http://www.w3.org/2000/svg" xmlns:xlink="http://www.w3.org/1999/xlink" width="512" height="512" viewBox="0 0 512 512"><defs><path d="M485 440.24c0 24.72-20.04 44.76-44.76 44.76H71.76C47.04 485 27 464.96 27 440.24V71.76C27 47.04 47.04 27 71.76 27h368.48C464.96 27 485 47.04 485 71.76v368.48z" id="J"/></defs><clipPath id="K"><use height="512" width="512" xlink:href="#J" overflow="visible"/></clipPath><g clip-path="url(#K)"><path d="M44 480.094C85.78 202.17 150.76-36.766 255.793 256.07 361.69 551.32 423.325 309.97 468 31.908" fill="none" stroke="#666" stroke-width="30" stroke-miterlimit="10"/><circle r="63.047" cy="121.954" cx="163.953" fill="#99f"/><path d="M163.953 58.906c-34.817 0-63.047 28.233-63.047 63.047 0 34.823 28.23 63.047 63.047 63.047C198.77 185 227 156.777 227 121.953c0-34.814-28.23-63.047-63.047-63.047zm0 107.18c-24.374 0-44.133-19.76-44.133-44.133 0-24.374 19.76-44.133 44.133-44.133 24.374 0 44.133 19.76 44.133 44.133 0 24.374-19.76 44.133-44.133 44.133z" fill="#333"/><g><circle r="63.047" cy="391.048" cx="346.047" fill="#99f"/><path d="M346.047 328C311.23 328 283 356.233 283 391.047c0 34.823 28.23 63.047 63.047 63.047 34.817 0 63.047-28.223 63.047-63.047 0-34.814-28.23-63.047-63.047-63.047zm0 107.18c-24.374 0-44.133-19.76-44.133-44.134s19.76-44.133 44.133-44.133c24.374 0 44.133 19.76 44.133 44.133 0 24.374-19.76 44.133-44.133 44.133z" fill="#333"/></g></g></svg>