<svg xmlns="http://www.w3.org/2000/svg" xmlns:xlink="http://www.w3.org/1999/xlink" viewBox="0 0 20 20" width="20" height="20"><defs><path id="a" d="M485 440.24c0 24.72-20.04 44.76-44.76 44.76H71.76C47.04 485 27 464.96 27 440.24V71.76C27 47.04 47.04 27 71.76 27h368.48C464.96 27 485 47.04 485 71.76v368.48z"/></defs><clipPath id="b"><use width="512" height="512" overflow="visible" xlink:href="#a"/></clipPath><g transform="translate(-.016 .148) scale(.03906)" clip-path="url(#b)" fill="#99f"><path d="M26 26h460v130H26z"/><path d="M26 26h130v460H26z"/></g><path transform="translate(-.016 .148) scale(.03906)" clip-path="url(#b)" d="M157.504 19.333h24v186.333h-24z" fill="#fff"/><path transform="translate(-.016 .148) scale(.03906)" clip-path="url(#b)" d="M20 155.504h139.766v24H20zm0 156.328h140.766v24H20zM310.934 21h24v139.765h-24z" fill="#fff"/><path transform="translate(-.016 .148) scale(.03906)" clip-path="url(#b)" d="M156 311.832h330v24H156z" fill="#666"/><path transform="translate(-.016 .148) scale(.03906)" clip-path="url(#b)" d="M310.934 156.252h24V486h-24z" fill="#666"/><path d="M11.292 5.532h-.506l-.372-.92h-1.68l-.376.92h-.493l1.444-3.43h.52zM10.215 4.21L9.56 2.624 8.92 4.21h1.295zM4.13 11.61h-.44V8.746c-.178.124-.426.256-.745.395v-.394c.134-.082.263-.174.384-.275.118-.098.203-.173.252-.224.05-.05.075-.075.075-.072h.474v3.437zm.445 6.062H2.5v-.44c.404-.45.724-.81.96-1.074.238-.265.404-.47.5-.614.094-.144.14-.27.14-.38 0-.207-.04-.36-.12-.457-.08-.1-.216-.148-.405-.148-.167 0-.293.048-.377.144-.083.097-.138.25-.163.46h-.483c.05-.666.39-1 1.023-1 .313 0 .558.096.735.287.177.19.265.407.265.65 0 .073-.006.142-.018.203-.013.063-.033.128-.06.198-.03.07-.067.142-.115.216-.048.075-.108.16-.18.254-.074.095-.917 1.053-1.016 1.164-.1.112 1.543-.05 1.412.098" fill="#333"/></svg>