<svg xmlns="http://www.w3.org/2000/svg" viewBox="0 0 512 512" width="512" height="512"><circle cx="175" cy="336" r="123" fill="#99f"/><path fill="#666" d="M119.667 343.388L302.333 27 485 343.388"/><path fill="#99f" d="M169.117 314.838L302.333 84.1 435.55 314.84"/><path fill="#6161ff" d="M148.944 327l73.39-124.494C279.764 229.49 311.28 269.72 309.436 327H148.944z"/><path fill="#666" d="M175 486c-82.843 0-150-67.157-150-150s67.157-150 150-150 150 67.157 150 150-67.157 150-150 150zm123-150c0-67.93-55.07-123-123-123S52 268.07 52 336s55.07 123 123 123 123-55.07 123-123z"/><path fill="#333" d="M324.82 343.388H119.668l88.715-153.66a148.745 148.745 0 0 1 27.647 9.208c46.263 20.63 80.16 63.997 87.49 115.9a151.506 151.506 0 0 1 1.3 28.552zM222.44 222.48l-53.323 92.358h127.07c-7.254-41.825-35.63-76.406-73.742-92.354"/><path fill="#666" d="M486.464 102.05H427.14v59.32h-18.27v-59.32h-59.323V83.776h59.323V24.455h18.27v59.322h59.324v18.272z"/></svg>