<?xml version="1.0" encoding="UTF-8" standalone="no"?>
<!-- Created with Inkscape (http://www.inkscape.org/) -->

<svg
   xmlns:dc="http://purl.org/dc/elements/1.1/"
   xmlns:cc="http://creativecommons.org/ns#"
   xmlns:rdf="http://www.w3.org/1999/02/22-rdf-syntax-ns#"
   xmlns:svg="http://www.w3.org/2000/svg"
   xmlns="http://www.w3.org/2000/svg"
   xmlns:sodipodi="http://sodipodi.sourceforge.net/DTD/sodipodi-0.dtd"
   xmlns:inkscape="http://www.inkscape.org/namespaces/inkscape"
   id="svg2"
   version="1.1"
   inkscape:version="0.48.2 r9819"
   width="352"
   height="346"
   sodipodi:docname="circumcircular_arc.svg">
  <metadata
     id="metadata8">
    <rdf:RDF>
      <cc:Work
         rdf:about="">
        <dc:format>image/svg+xml</dc:format>
        <dc:type
           rdf:resource="http://purl.org/dc/dcmitype/StillImage" />
        <dc:title />
      </cc:Work>
    </rdf:RDF>
  </metadata>
  <defs
     id="defs6" />
  <sodipodi:namedview
     pagecolor="#ffffff"
     bordercolor="#666666"
     borderopacity="1"
     objecttolerance="10"
     gridtolerance="10"
     guidetolerance="10"
     inkscape:pageopacity="0"
     inkscape:pageshadow="2"
     inkscape:window-width="1280"
     inkscape:window-height="962"
     id="namedview4"
     showgrid="false"
     inkscape:zoom="1.9292161"
     inkscape:cx="235.92071"
     inkscape:cy="155.4269"
     inkscape:window-x="1358"
     inkscape:window-y="-8"
     inkscape:window-maximized="1"
     inkscape:current-layer="svg2" />
  <g
     id="g3798"
     transform="translate(0,20)">
    <path
       sodipodi:open="true"
       inkscape:transform-center-y="32.220738"
       inkscape:transform-center-x="-32.11254"
       transform="matrix(-1.9413719,-0.79585739,0.79010632,-1.955503,461.55586,790.36361)"
       sodipodi:end="3.7018433"
       sodipodi:start="0"
       d="m 297.53016,222.11549 c 0,32.92153 -26.92024,59.60971 -60.12805,59.60971 -33.2078,0 -60.12804,-26.68818 -60.12804,-59.60971 0,-11.20549 3.18589,-22.18408 9.19226,-31.67651"
       sodipodi:ry="59.609703"
       sodipodi:rx="60.128048"
       sodipodi:cy="222.11549"
       sodipodi:cx="237.40211"
       id="path3796"
       style="fill:none;stroke:#000000;stroke-width:5.51433277;stroke-miterlimit:4;stroke-opacity:1;stroke-dasharray:none"
       sodipodi:type="arc" />
    <path
       transform="matrix(0.96443415,0,0,1.0154527,2.293608,-4.6794249)"
       d="m 76.715099,149.80632 c 0,13.59802 -11.371483,24.6214 -25.398918,24.6214 -14.027435,0 -25.398918,-11.02338 -25.398918,-24.6214 0,-13.59802 11.371483,-24.6214 25.398918,-24.6214 14.027435,0 25.398918,11.02338 25.398918,24.6214 z"
       sodipodi:ry="24.621399"
       sodipodi:rx="25.398918"
       sodipodi:cy="149.80632"
       sodipodi:cx="51.316181"
       id="path3754-7-1"
       style="fill:#0000ff;fill-opacity:1;stroke:#000000;stroke-width:11.81200027;stroke-miterlimit:4;stroke-opacity:1;stroke-dasharray:none"
       sodipodi:type="arc" />
    <path
       transform="matrix(0.96443415,0,0,1.0154527,176.76662,131.15899)"
       d="m 76.715099,149.80632 c 0,13.59802 -11.371483,24.6214 -25.398918,24.6214 -14.027435,0 -25.398918,-11.02338 -25.398918,-24.6214 0,-13.59802 11.371483,-24.6214 25.398918,-24.6214 14.027435,0 25.398918,11.02338 25.398918,24.6214 z"
       sodipodi:ry="24.621399"
       sodipodi:rx="25.398918"
       sodipodi:cy="149.80632"
       sodipodi:cx="51.316181"
       id="path3754-7-1-1"
       style="fill:#0000ff;fill-opacity:1;stroke:#000000;stroke-width:11.81200027;stroke-miterlimit:4;stroke-opacity:1;stroke-dasharray:none"
       sodipodi:type="arc" />
    <path
       transform="matrix(0.96443415,0,0,1.0154527,229.37866,-57.777849)"
       d="m 76.715099,149.80632 c 0,13.59802 -11.371483,24.6214 -25.398918,24.6214 -14.027435,0 -25.398918,-11.02338 -25.398918,-24.6214 0,-13.59802 11.371483,-24.6214 25.398918,-24.6214 14.027435,0 25.398918,11.02338 25.398918,24.6214 z"
       sodipodi:ry="24.621399"
       sodipodi:rx="25.398918"
       sodipodi:cy="149.80632"
       sodipodi:cx="51.316181"
       id="path3754-7-1-7"
       style="fill:#0000ff;fill-opacity:1;stroke:#000000;stroke-width:11.81200027;stroke-miterlimit:4;stroke-opacity:1;stroke-dasharray:none"
       sodipodi:type="arc" />
  </g>
</svg>
