<?xml version="1.0" encoding="UTF-8" standalone="no"?>
<!-- Created with Inkscape (http://www.inkscape.org/) -->

<svg
   xmlns:osb="http://www.openswatchbook.org/uri/2009/osb"
   xmlns:dc="http://purl.org/dc/elements/1.1/"
   xmlns:cc="http://creativecommons.org/ns#"
   xmlns:rdf="http://www.w3.org/1999/02/22-rdf-syntax-ns#"
   xmlns:svg="http://www.w3.org/2000/svg"
   xmlns="http://www.w3.org/2000/svg"
   xmlns:sodipodi="http://sodipodi.sourceforge.net/DTD/sodipodi-0.dtd"
   xmlns:inkscape="http://www.inkscape.org/namespaces/inkscape"
   id="svg3792"
   version="1.1"
   inkscape:version="0.48.2 r9819"
   width="31"
   height="32"
   sodipodi:docname="compasses.svg">
  <metadata
     id="metadata3798">
    <rdf:RDF>
      <cc:Work
         rdf:about="">
        <dc:format>image/svg+xml</dc:format>
        <dc:type
           rdf:resource="http://purl.org/dc/dcmitype/StillImage" />
        <dc:title />
      </cc:Work>
    </rdf:RDF>
  </metadata>
  <defs
     id="defs3796">
    <linearGradient
       id="linearGradient4352"
       osb:paint="solid">
      <stop
         style="stop-color:#000000;stop-opacity:1;"
         offset="0"
         id="stop4354" />
    </linearGradient>
  </defs>
  <sodipodi:namedview
     pagecolor="#ffffff"
     bordercolor="#666666"
     borderopacity="1"
     objecttolerance="10"
     gridtolerance="10"
     guidetolerance="10"
     inkscape:pageopacity="0"
     inkscape:pageshadow="2"
     inkscape:window-width="1366"
     inkscape:window-height="839"
     id="namedview3794"
     showgrid="false"
     inkscape:zoom="28.277207"
     inkscape:cx="18.946718"
     inkscape:cy="19.349391"
     inkscape:window-x="1623"
     inkscape:window-y="93"
     inkscape:window-maximized="0"
     inkscape:current-layer="svg3792" />
  <g
     id="g3784">
    <path
       transform="matrix(18.342106,0,0,1,-256.90304,0)"
       d="m 15.454143,12.938711 a 0.67191923,12.236003 0 1 1 -1.343839,0 0.67191923,12.236003 0 1 1 1.343839,0 z"
       sodipodi:ry="12.236003"
       sodipodi:rx="0.67191923"
       sodipodi:cy="12.938711"
       sodipodi:cx="14.782224"
       id="path3782"
       style="fill:#fc3c3c;fill-opacity:1;stroke:none"
       sodipodi:type="arc" />
    <path
       transform="matrix(64.1021,0,0,1.0523578,-880.70059,-0.17462025)"
       d="m 14.126056,12.453481 a 0.16425647,9.8553877 0 1 1 -0.328513,0 0.16425647,9.8553877 0 1 1 0.328513,0 z"
       sodipodi:ry="9.8553877"
       sodipodi:rx="0.16425647"
       sodipodi:cy="12.453481"
       sodipodi:cx="13.9618"
       id="path3780"
       style="fill:#ffffff;fill-opacity:1;stroke:none"
       sodipodi:type="arc" />
    <rect
       y="12.078318"
       x="15.209057"
       height="1.7502235"
       width="9.6385899"
       id="rect4348-3"
       style="fill:#64666c;fill-opacity:1;stroke:none" />
    <path
       transform="matrix(1.3946455,0,0,1.2905305,-6.4976596,-4.3612263)"
       d="m 16.592593,13.481482 a 1.6296296,1.7037038 0 1 1 -3.25926,0 1.6296296,1.7037038 0 1 1 3.25926,0 z"
       sodipodi:ry="1.7037038"
       sodipodi:rx="1.6296296"
       sodipodi:cy="13.481482"
       sodipodi:cx="14.962963"
       id="path3802"
       style="fill:#0402fc;fill-opacity:1;stroke:#000000;stroke-width:0.74166369;stroke-miterlimit:4;stroke-opacity:1;stroke-dasharray:none"
       sodipodi:type="arc" />
    <rect
       y="28.079649"
       x="16.189842"
       height="1.7502235"
       width="10.9117"
       id="rect4348"
       style="fill:#64666c;fill-opacity:1;stroke:none" />
    <path
       transform="matrix(0.98088644,0,0,0.90765994,0.99783858,16.787825)"
       d="m 16.592593,13.481482 a 1.6296296,1.7037038 0 1 1 -3.25926,0 1.6296296,1.7037038 0 1 1 3.25926,0 z"
       sodipodi:ry="1.7037038"
       sodipodi:rx="1.6296296"
       sodipodi:cy="13.481482"
       sodipodi:cx="14.962963"
       id="path3802-1"
       style="fill:#0402fc;fill-opacity:1;stroke:#000000;stroke-width:0.74166369;stroke-miterlimit:4;stroke-opacity:1;stroke-dasharray:none"
       sodipodi:type="arc" />
    <path
       transform="matrix(0.98088644,0,0,0.90765994,12.463389,16.77959)"
       d="m 16.592593,13.481482 a 1.6296296,1.7037038 0 1 1 -3.25926,0 1.6296296,1.7037038 0 1 1 3.25926,0 z"
       sodipodi:ry="1.7037038"
       sodipodi:rx="1.6296296"
       sodipodi:cy="13.481482"
       sodipodi:cx="14.962963"
       id="path3802-1-7"
       style="fill:#0402fc;fill-opacity:1;stroke:#000000;stroke-width:0.74166369;stroke-miterlimit:4;stroke-opacity:1;stroke-dasharray:none"
       sodipodi:type="arc" />
  </g>
</svg>
