<?xml version="1.0" encoding="UTF-8" standalone="no"?>
<!-- Created with Inkscape (http://www.inkscape.org/) -->

<svg
   xmlns:dc="http://purl.org/dc/elements/1.1/"
   xmlns:cc="http://creativecommons.org/ns#"
   xmlns:rdf="http://www.w3.org/1999/02/22-rdf-syntax-ns#"
   xmlns:svg="http://www.w3.org/2000/svg"
   xmlns="http://www.w3.org/2000/svg"
   xmlns:sodipodi="http://sodipodi.sourceforge.net/DTD/sodipodi-0.dtd"
   xmlns:inkscape="http://www.inkscape.org/namespaces/inkscape"
   id="svg3153"
   version="1.1"
   inkscape:version="0.48.2 r9819"
   width="32"
   height="32"
   sodipodi:docname="mode_moverotate_32.gif">
  <metadata
     id="metadata3159">
    <rdf:RDF>
      <cc:Work
         rdf:about="">
        <dc:format>image/svg+xml</dc:format>
        <dc:type
           rdf:resource="http://purl.org/dc/dcmitype/StillImage" />
        <dc:title></dc:title>
      </cc:Work>
    </rdf:RDF>
  </metadata>
  <defs
     id="defs3157" />
  <sodipodi:namedview
     pagecolor="#ffffff"
     bordercolor="#666666"
     borderopacity="1"
     objecttolerance="10"
     gridtolerance="10"
     guidetolerance="10"
     inkscape:pageopacity="0"
     inkscape:pageshadow="2"
     inkscape:window-width="762"
     inkscape:window-height="813"
     id="namedview3155"
     showgrid="false"
     inkscape:zoom="7.72"
     inkscape:cx="8.1709683"
     inkscape:cy="17.399648"
     inkscape:window-x="1452"
     inkscape:window-y="70"
     inkscape:window-maximized="0"
     inkscape:current-layer="svg3153" />
  <g
     id="g3850"
     transform="translate(-0.77720207,0)">
    <path
       sodipodi:nodetypes="cccccccc"
       inkscape:connector-curvature="0"
       id="path3063"
       d="m 18.289397,2.6017894 -0.216302,16.3307556 4.001577,-4.109726 4.434177,8.868357 2.595618,-1.297808 -4.326029,-8.868356 5.407536,-0.540755 z"
       style="fill:none;stroke:#000000;stroke-width:1px;stroke-linecap:butt;stroke-linejoin:miter;stroke-opacity:1" />
    <path
       sodipodi:nodetypes="ssssssssss"
       style="fill:#231a2b"
       d="m 3.426077,29.994597 c -1.22248,-1.264879 -0.434263,-3.480008 1.301906,-3.932341 0.767655,-0.200001 1.559137,0.198414 1.942226,0.497399 0.890389,0.694916 0.947236,1.447848 0.777088,2.41059 -0.325117,1.839583 -2.771944,2.316955 -4.02122,1.024352 z m 2.551031,-0.254146 c 0.955996,-0.450689 1.043419,-1.641936 0.296833,-2.414414 -1.158129,-1.198296 -3.125048,0.14766 -2.424606,1.659146 0.144313,0.311413 0.482613,0.681462 0.751778,0.822328 0.601811,0.314959 0.783818,0.21211 1.375995,-0.06706 z"
       id="path2989"
       inkscape:connector-curvature="0" />
    <path
       style="fill:#0000ff;fill-opacity:1;stroke:none"
       d="M 4.738669,30.000404 C 4.373152,29.855236 3.98059,29.441522 3.838631,29.051871 3.676157,28.605908 3.688349,28.139954 3.873181,27.73127 c 0.241274,-0.533469 0.634862,-0.857574 1.164426,-0.958865 0.8582,-0.164149 1.69012,0.468214 1.829978,1.391014 0.191865,1.26594 -0.992841,2.28819 -2.128919,1.836985 z"
       id="use3033"
       inkscape:connector-curvature="0" />
    <path
       inkscape:connector-curvature="0"
       id="path3035"
       d="m 7.5215686,28.151617 c 0,-0.149762 -0.08183,-0.499501 -0.149932,-0.640799 l -0.04566,-0.09474 0.475725,-0.155332 c 0.261649,-0.08543 0.997269,-0.319244 1.634711,-0.519582 0.6374424,-0.200338 1.7636744,-0.554446 2.5027384,-0.786907 1.668707,-0.524871 2.72363,-0.881477 3.448109,-1.165599 0.84308,-0.330636 0.918032,-0.379163 0.912238,-0.590627 -0.0087,-0.317916 -0.394476,-1.191124 -0.865826,-1.959847 -1.053358,-1.717923 -2.356624,-3.038586 -4.132803,-4.187973 -0.546237,-0.353476 -1.3627394,-0.777538 -1.7427674,-0.905131 -0.168682,-0.05663 -0.340816,-0.08885 -0.474725,-0.08885 -0.20169,0 -0.213766,0.005 -0.302234,0.125005 -0.218447,0.296331 -0.499365,1.181392 -1.157345,3.646332 -0.224537,0.841164 -0.644274,2.413136 -0.932749,3.493267 -0.288475,1.080133 -0.533569,1.975101 -0.544653,1.988819 -0.01108,0.01371 -0.137622,-0.01365 -0.281194,-0.06083 -0.143572,-0.04717 -0.295738,-0.08577 -0.338146,-0.08577 -0.04241,0 -0.08584,-0.009 -0.09652,-0.02009 -0.01067,-0.01104 0.02428,-0.116684 0.07768,-0.234756 0.137612,-0.30427 0.211115,-0.57225 0.735714,-2.682286 1.303333,-5.242258 1.73465,-6.797549 1.958155,-7.060935 0.09118,-0.107452 0.114728,-0.116773 0.294978,-0.116773 0.433282,0 1.077416,0.21118 1.8967654,0.621855 1.890793,0.947705 3.748655,2.418705 4.702125,3.723004 0.567743,0.776644 1.139841,1.752315 1.599937,2.728572 0.49379,1.047758 0.64887,1.633082 0.483883,1.826351 -0.176399,0.206639 -1.184666,0.566443 -4.232816,1.5105 -3.5143394,1.088441 -4.6399124,1.460876 -5.1454184,1.702533 -0.140716,0.06727 -0.261278,0.122309 -0.267914,0.122309 -0.0066,0 -0.01207,-0.05928 -0.01207,-0.131732 z"
       style="fill:#666666;fill-opacity:1;stroke:none" />
    <path
       inkscape:connector-curvature="0"
       id="path3044"
       d="M 10.086652,24.482683 C 9.686686,24.345426 9.466179,24.125639 9.24426,23.64304 8.8716,22.832637 8.843944,21.994966 9.16715,21.307577 c 0.141584,-0.301116 0.445363,-0.622936 0.717935,-0.760573 0.185999,-0.09392 0.230097,-0.101727 0.571095,-0.101095 0.326879,6.08e-4 0.394934,0.01175 0.589619,0.09652 0.128849,0.05611 0.362962,0.212253 0.564732,0.37666 0.189554,0.154453 0.350741,0.274516 0.358192,0.266807 0.0074,-0.0077 0.08085,-0.164045 0.163099,-0.347412 0.140679,-0.313612 0.203365,-0.407169 0.244381,-0.364731 0.0338,0.03498 0.01357,0.477462 -0.04116,0.900119 -0.08651,0.668066 -0.07442,1.536739 0.03245,2.331939 0.08121,0.604274 0.0867,0.823581 0.02059,0.823581 -0.05375,0 -0.255193,-0.267784 -0.333549,-0.443391 -0.04473,-0.100248 -0.101683,-0.182268 -0.12656,-0.182268 -0.02488,0 -0.178571,0.07777 -0.341542,0.17283 -0.607401,0.354278 -0.795098,0.430079 -1.093694,0.441677 -0.163465,0.0064 -0.325259,-0.0078 -0.406097,-0.03556 z m 0.772657,-0.334496 c 0.217106,-0.09802 0.536074,-0.368404 0.66746,-0.565787 l 0.121994,-0.183273 0,-0.878746 c 0,-0.99499 -0.0026,-1.007444 -0.275275,-1.297646 -0.314212,-0.334461 -0.580929,-0.463395 -0.912229,-0.440984 -0.261963,0.01772 -0.478081,0.128056 -0.69943,0.357081 -0.332364,0.343891 -0.472377,0.7161 -0.477834,1.270269 -0.0041,0.415236 0.05212,0.676783 0.220811,1.027495 0.189283,0.393519 0.515448,0.707785 0.811358,0.781759 0.141116,0.03528 0.377139,0.0048 0.543145,-0.07017 l 0,0 z"
       style="fill:#666666;fill-opacity:1;stroke:none" />
  </g>
  <path
     style="fill:#666666;fill-opacity:1;stroke:none"
     d="m 11.451373,21.388283 c -0.04757,-0.09331 -0.121715,-0.188304 -0.253124,-0.324313 -0.08792,-0.09099 -0.139021,-0.137719 -0.210616,-0.192568 -0.116589,-0.08932 -0.263263,-0.163957 -0.37644,-0.191565 -0.06398,-0.01561 -0.109808,-0.0198 -0.214042,-0.01959 -0.07592,1.53e-4 -0.100088,0.0012 -0.157471,0.0065 -0.02613,0.0024 -0.01566,-7.09e-4 0.01788,-0.0054 0.05313,-0.0074 0.08588,-0.0096 0.143793,-0.0095 0.07384,8.7e-5 0.132926,0.006 0.193164,0.01927 0.232726,0.05133 0.442846,0.194999 0.700211,0.478774 0.07957,0.08774 0.112721,0.132466 0.141595,0.191065 0.01322,0.02684 0.02815,0.06419 0.02702,0.06762 -3.52e-4,0.0011 -0.0057,-0.0081 -0.01196,-0.0203 z"
     id="path3056"
     inkscape:connector-curvature="0" />
</svg>
