<svg width="24" height="24" viewBox="0 0 24 24" xmlns="http://www.w3.org/2000/svg">
<path d="M0.399902 5.00002C0.399902 4.11637 1.11625 3.40002 1.9999 3.40002H17.4999C18.3836 3.40002 19.0999 4.11637 19.0999 5.00002V15.5C19.0999 16.3837 18.3836 17.1 17.4999 17.1H1.9999C1.11625 17.1 0.399902 16.3837 0.399902 15.5V5.00002ZM1.9999 4.60002C1.77899 4.60002 1.5999 4.77911 1.5999 5.00002V15.5C1.5999 15.7209 1.77899 15.9 1.9999 15.9H17.4999C17.7208 15.9 17.8999 15.7209 17.8999 15.5V5.00002C17.8999 4.77911 17.7208 4.60002 17.4999 4.60002H1.9999ZM19.8999 7.00002C19.8999 6.66865 20.1685 6.40002 20.4999 6.40002H21.4999C22.3836 6.40002 23.0999 7.11637 23.0999 8.00002V19.5C23.0999 20.3837 22.3836 21.1 21.4999 21.1H4.9999C4.11625 21.1 3.3999 20.3837 3.3999 19.5V18.5C3.3999 18.1687 3.66853 17.9 3.9999 17.9C4.33127 17.9 4.5999 18.1687 4.5999 18.5V19.5C4.5999 19.7209 4.77899 19.9 4.9999 19.9H21.4999C21.7208 19.9 21.8999 19.7209 21.8999 19.5V8.00002C21.8999 7.77911 21.7208 7.60002 21.4999 7.60002H20.4999C20.1685 7.60002 19.8999 7.3314 19.8999 7.00002ZM3.8999 8.50002C3.8999 8.16865 4.16853 7.90002 4.4999 7.90002H14.9999C15.3313 7.90002 15.5999 8.16865 15.5999 8.50002C15.5999 8.8314 15.3313 9.10002 14.9999 9.10002H4.4999C4.16853 9.10002 3.8999 8.8314 3.8999 8.50002ZM3.8999 11.5C3.8999 11.1687 4.16853 10.9 4.4999 10.9H14.9999C15.3313 10.9 15.5999 11.1687 15.5999 11.5C15.5999 11.8314 15.3313 12.1 14.9999 12.1H4.4999C4.16853 12.1 3.8999 11.8314 3.8999 11.5Z"/>
</svg>
