<svg xmlns="http://www.w3.org/2000/svg" id="menu_view_graphics" viewBox="0 0 512 512" width="512" height="512"><defs><style>.cls-1{fill:none}.cls-2{fill:#99f}.cls-3{fill:#666}.cls-4{fill:#6161ff}.cls-5{fill:#333}</style></defs><rect width="512" height="512" class="cls-1" rx="50" ry="50"/><g id="Layer_13"><g id="Layer_15"><circle cx="175" cy="336" r="123" class="cls-2"/><path d="M302.33 27L485 343.39H119.67L302.33 27z" class="cls-3"/><path d="M302.33 84.1l133.22 230.74H169.12L302.33 84.1z" class="cls-2"/><path d="M148.94 327l73.39-124.49c57.43 27 88.95 67.21 87.1 124.49z" class="cls-4"/><path d="M175 486a150 150 0 1 1 150-150 150 150 0 0 1-150 150zm123-150a123 123 0 1 0-123 123 123 123 0 0 0 123-123z" class="cls-3"/></g><path id="Layer_16" d="M324.82 343.39H119.67l88.72-153.66a150 150 0 0 1 115.13 125.11A151.29 151.29 0 0 1 325 336q0 3.72-.18 7.39zM222.44 222.48l-53.32 92.36h127.07a123.18 123.18 0 0 0-73.74-92.35" class="cls-5"/></g></svg>