<svg id="menu_view_graphics" xmlns="http://www.w3.org/2000/svg" viewBox="0 0 512 512"><defs><style>.cls-1{fill:none;}.cls-2{fill:#99f;}.cls-3{fill:#666;}.cls-4{fill:#6161ff;}.cls-5{fill:#333;}</style></defs><title>geometrySVG</title><rect class="cls-1" width="512" height="512" rx="50" ry="50"/><g id="Layer_13" data-name="Layer 13"><g id="Layer_15" data-name="Layer 15"><circle class="cls-2" cx="175" cy="336" r="123"/><polygon class="cls-3" points="302.33 27 485 343.39 119.67 343.39 302.33 27"/><polygon class="cls-2" points="302.33 84.1 435.55 314.84 169.12 314.84 302.33 84.1"/><path class="cls-4" d="M148.94,327l73.39-124.49c57.43,27,88.95,67.21,87.1,124.49Z"/><path class="cls-3" d="M175,486A150,150,0,1,1,325,336,150,150,0,0,1,175,486ZM298,336A123,123,0,1,0,175,459,123,123,0,0,0,298,336Z"/></g><g id="Layer_16" data-name="Layer 16"><path class="cls-5" d="M324.82,343.39H119.67l88.72-153.66A150,150,0,0,1,323.52,314.84,151.29,151.29,0,0,1,325,336Q325,339.72,324.82,343.39ZM222.44,222.48l-53.32,92.36H296.19a123.18,123.18,0,0,0-73.74-92.35"/></g></g></svg>