<svg xmlns="http://www.w3.org/2000/svg" id="menu_view_algebra" viewBox="0 0 512 512" width="512" height="512"><defs><style>.cls-1,.cls-3{fill:none}.cls-2{clip-path:url(#clip-path)}.cls-3{stroke:#666;stroke-miterlimit:10;stroke-width:30px}.cls-4{fill:#99f}.cls-5{fill:#333}</style><clipPath id="clip-path"><rect width="458" height="458" x="27" y="27" class="cls-1" rx="44.76" ry="44.76"/></clipPath></defs><rect width="512" height="512" class="cls-1" rx="50" ry="50"/><g class="cls-2"><path d="M44 480.09c41.78-277.92 106.76-516.86 211.79-224C361.69 551.32 423.32 310 468 31.91" class="cls-3"/><circle cx="163.95" cy="121.95" r="63.05" class="cls-4"/><path d="M164 58.91a63 63 0 1 0 63 63 63.05 63.05 0 0 0-63-63zm0 107.18A44.13 44.13 0 1 1 208.09 122 44.13 44.13 0 0 1 164 166.09z" class="cls-5"/><circle cx="346.05" cy="391.05" r="63.05" class="cls-4"/><path d="M346 328a63 63 0 1 0 63 63 63.05 63.05 0 0 0-63-63zm0 107.18A44.13 44.13 0 1 1 390.18 391 44.13 44.13 0 0 1 346 435.18z" class="cls-5"/></g></svg>