<svg id="Things" xmlns="http://www.w3.org/2000/svg" viewBox="0 0 100 100"><title>multiple-worksheets</title><g id="New_style"><path d="M23.48,2.59a3.32,3.32,0,0,0-3.85,2.7L19.16,8H15.61a3.32,3.32,0,0,0-3.32,3.32v3.35l39.89-7ZM18.12,86.69v-2l-6.24-35.4-.71,4L6.09,82a3.32,3.32,0,0,0,2.7,3.85l3.49.62V89.2a3.32,3.32,0,0,0,3.32,3.32h3.9l-1-5.83Zm-5.83-6.12h0v0ZM76.92,97.89a3.32,3.32,0,0,0,3.85-2.7l.47-2.67h3.55a3.32,3.32,0,0,0,3.32-3.32V85.8l-39.89,7ZM91.61,14.6,88.11,14V11.27A3.32,3.32,0,0,0,84.79,8h-26l8.49,5.83h15V24.07l.81.55L88.21,53l1.45-8.23L94.3,18.45A3.32,3.32,0,0,0,91.61,14.6ZM88.11,20v-.06h0Z"/><path d="M83.89,24.74a3.32,3.32,0,0,0-.28-.55v0a3.32,3.32,0,0,0-.9-.94L59.05,6.67a3.32,3.32,0,0,0-2.48-.55l-3.43.61L8.54,14.59a3.32,3.32,0,0,0-2.7,3.85L19.38,95.18a3.32,3.32,0,0,0,3.85,2.7l68.13-12A3.32,3.32,0,0,0,94.05,82L84.67,28.8l-.61-3.43A3.32,3.32,0,0,0,83.89,24.74Zm-9.31-.08-12,2.11-2.11-12Zm13.3,55.9L24.69,91.7,12,19.9l42.12-7.43,3.14,17.79A3.32,3.32,0,0,0,61.14,33l17.79-3.14Z"/><path d="M77.2,45a6.49,6.49,0,0,0-8-5.32c-4.15-4.52-10.3-6.48-16.7-5.87a6.42,6.42,0,0,0-11.73,4.07,29.22,29.22,0,0,0-3,2.14,28.16,28.16,0,0,0-7.25,8.94,6.43,6.43,0,0,0-2.61,12.53,18.14,18.14,0,0,0,4,10,17.6,17.6,0,0,0,2.94,2.83A6.43,6.43,0,0,0,47,78.25a26.42,26.42,0,0,0,14.18-4.31,6.43,6.43,0,0,0,9-9.08A24.09,24.09,0,0,0,73.9,51.53,6.43,6.43,0,0,0,77.2,45ZM47.33,73.83a6.48,6.48,0,0,0-10.15-3.24,13.44,13.44,0,0,1-2-1.95,13.91,13.91,0,0,1-3-7.34,6.48,6.48,0,0,0,2.13-10.57,23.72,23.72,0,0,1,6.07-7.45,24.78,24.78,0,0,1,2.08-1.53A6.48,6.48,0,0,0,53.55,38a15.34,15.34,0,0,1,11.91,4.33,6.48,6.48,0,0,0,3.9,9.8,19.68,19.68,0,0,1-3,10.4,6.48,6.48,0,0,0-7.46,7.61A22.06,22.06,0,0,1,47.33,73.83Z"/></g></svg>