<svg xmlns="http://www.w3.org/2000/svg" width="24" height="24"><path d="M0 22.336v-3.302l.745.743 1.542-1.535L0 15.959l.001-1.874 1.255 1.253 5.397-5.373-1.54-1.538L0 13.517l.001-3.275.753.752 1.542-1.535L.001 7.167V5.289l1.311 1.31L6.665 1.27 5.395.001h1.846l2.274 2.271L11.058.736 10.321 0l3.255.001-5.099 5.077 1.54 1.538 5.397-5.374L14.171.001h1.846L18.31 2.29 19.851.755l-.755-.754h3.338l-5.141 5.118 1.581 1.578 5.125-5.102v3.302l-.745-.744-1.541 1.535 2.286 2.284v1.844l-1.24-1.239-5.397 5.374 1.54 1.537 5.097-5.074.001 3.245-.738-.737-1.543 1.536L24 16.736v1.844l-1.281-1.28-5.353 5.329 1.372 1.37-1.881.001-2.357-2.355-1.542 1.536.819.818h-3.424l5.185-5.161-1.54-1.538-5.397 5.373 1.328 1.326L8.052 24 5.69 21.641l-1.542 1.535.825.824-3.477-.001 5.21-5.188-1.58-1.578L0 22.336Zm1.124 1.663H.001v-1.121l1.123 1.121Zm21.462 0h-3.513l4.926-4.904.001 3.328-.772-.771-1.498 1.492.856.855Zm.36-23.998h1.053L24 1.053 22.946.001Zm-21.4 0h3.31L0 4.836l.001-3.39.802.801L2.301.755 1.546.001Zm9.586 18.396-5.584-5.576-1.542 1.535 5.584 5.576 1.542-1.535Zm2.688-9.974-5.399 5.376 1.735 1.732 5.399-5.376-1.735-1.732ZM5.623 4.082 4.079 5.618l5.389 5.381 1.544-1.536-5.389-5.381Zm14.336 5.526-5.583-5.575-1.542 1.535 5.583 5.575 1.542-1.535Zm-6.994 4.883 5.388 5.381 1.544-1.537-5.389-5.381-1.543 1.537Z"/></svg>