<svg width="24" height="24" viewBox="0 0 24 24" xmlns="http://www.w3.org/2000/svg">
<path d="M24 0v1.413l-2.1 2.1 2.1 2.1V9.9L21.9 12 24 14.1v4.285l-2.1 2.1 2.1 2.1V24h-1.415l-2.1-2.1-2.1 2.1H14.1L12 21.9 9.9 24H5.613l-2.1-2.1-2.1 2.1H0v-1.414l2.1-2.1L0 18.383v-4.283l2.1-2.1L0 9.897V5.613l2.1-2.1-2.1-2.1V0h1.412l2.101 2.1 2.1-2.1h4.285L12 2.1 14.101 0h4.284l2.1 2.1L22.586 0H24ZM7.756 17.656l-2.828 2.828 2.83 2.83 2.827-2.829-2.829-2.829Zm8.486 0-2.828 2.83 2.828 2.827 2.83-2.828-2.83-2.829Zm4.243-4.242-2.829 2.828 2.83 2.83 2.827-2.83-2.828-2.828Zm-8.486 0-2.828 2.828 2.83 2.83 2.827-2.83L12 13.413Zm-8.485 0L.685 16.242l2.83 2.828 2.827-2.828-2.828-2.828Zm12.728-4.243L13.413 12l2.83 2.83 2.827-2.83-2.828-2.828Zm-8.485 0L4.928 12l2.83 2.83 2.827-2.83-2.828-2.828Zm12.727-4.243-2.828 2.828 2.828 2.83 2.83-2.83-2.83-2.828Zm-16.97 0L.686 7.758l2.828 2.827 2.83-2.828-2.83-2.829Zm8.485 0-2.828 2.83L12 10.584l2.83-2.828-2.83-2.829ZM7.757.686 4.928 3.514l2.83 2.83 2.827-2.83L7.757.686Zm8.485 0-2.828 2.828 2.828 2.828 2.828-2.828L16.242.685Z"/>
</svg>