<svg xmlns="http://www.w3.org/2000/svg" width="24" height="24"><path d="M0 24v-1.212l5.88-5.88-3.684-3.684L0 15.42v-2.448l5.868-5.868-3.684-3.683L0 5.604V3.156L3.156 0h2.448L3.42 2.185l3.684 3.683L12.972 0h2.448l-2.196 2.197 3.684 3.683L22.787 0H24v1.237c-.3204.31927-.64014.6392-.96.959.3204.31994.64014.64053.96.961v2.447l-2.185-2.183L13.236 12l3.684 3.684L24 8.604v2.449c-.3226.30834-.62953.63836-.936.959.316.35258.57733.60156.936.96v2.448l-2.185-2.184-8.579 8.58L15.42 24h-2.449c-.30845-.32249-.63835-.62953-.959-.936-.35236.31607-.60159.57775-.96.936H8.604l7.08-7.08L12 13.236l-8.58 8.58L5.604 24H3.155c-.31927-.3204-.6392-.64014-.959-.96l-.96.96Zm11.4-12.612 4.284-4.284L12 3.42 3.42 12c1.22586 1.22601 2.45054 2.45406 3.684 3.672.006 0 1.94-1.928 4.296-4.284zm12.588 7.02L24 20.843 20.844 24h-2.448z"/></svg>