<svg xmlns="http://www.w3.org/2000/svg" xmlns:xlink="http://www.w3.org/1999/xlink" width="24" height="24"><path d="M17.5 0v2.217l3.5 2.02 3-1.732v2.31l-2 1.153v4.043l2 1.154v2.31l-3-1.732-3.5 2.02v4.042l3.5 2.021 3-1.733v2.31l-2 1.154v2.442h-2v-2.442l-3.5-2.02-3.5 2.02V24h-2.001v-2.442L7.5 19.537 4 21.558V24H1.999v-2.442L0 20.403v-2.31l3.001 1.732 3.498-2.019v-4.042l-3.5-2.02L0 13.473v-2.31l1.999-1.153V5.969L0 4.814v-2.31l3 1.734 3.499-2.021V-.001H8.5v2.218L12 4.238l3.5-2.021V-.001h2ZM12 11.742l-3.501 2.021v4.041L12 19.826l3.5-2.021v-4.04L12 11.742ZM7.499 3.95 4 5.969v4.042l3.499 2.02 3.5-2.02V5.969l-3.5-2.02Zm9.001 0L13 5.968v4.042l3.499 2.02L20 10.011V5.969l-3.5-2.02Z"/></svg>