<svg xmlns="http://www.w3.org/2000/svg" width="24" height="24"><path d="M4.5 3a1.5 1.5 0 1 1-.001 3.001A1.5 1.5 0 0 1 4.5 3m15 0a1.5 1.5 0 1 1-.001 3.001A1.5 1.5 0 0 1 19.5 3M12 3a1.5 1.5 0 1 1-.001 3.001A1.5 1.5 0 0 1 12 3M4.5 18a1.5 1.5 0 1 1-.001 3.001A1.5 1.5 0 0 1 4.5 18m15 0a1.5 1.5 0 1 1-.001 3.001A1.5 1.5 0 0 1 19.5 18M12 18a1.5 1.5 0 1 1-.001 3.001A1.5 1.5 0 0 1 12 18m-7.5-7.5a1.5 1.5 0 1 1-.001 3.001A1.5 1.5 0 0 1 4.5 10.5m15 0a1.5 1.5 0 1 1-.001 3.001A1.5 1.5 0 0 1 19.5 10.5m-7.5 0a1.5 1.5 0 1 1-.001 3.001A1.5 1.5 0 0 1 12 10.5"/></svg>