<svg xmlns="http://www.w3.org/2000/svg" viewBox="0 0 24 24"><path d="M9.841 13.607c3.016-.019 2.579.412 2.6-2.6a.6.6 0 0 0-.6-.599h-2c-.331 0-.6.268-.601.599v2c0 .331.269.601.601.601Zm.6-1.999h.8v.8h-.8z"/><path d="m14.422 8.882-5.591-6.36c-.196-.217-.609-.215-.804.004L5.741 5.155c.002-.468-.005-1.398-.005-1.859-.005-1.169-1.785-1.175-1.791 0-.002.241-.005 3.585-.003 3.929-.105.163-1.674 1.792-1.6 1.987v11.767a.614.614 0 0 0 .67.626h10.752c.386.042.756-.161.778-.583V9.236a.66.66 0 0 0-.119-.353ZM8.433 3.885l3.976 4.523h-7.91zM3.486 9.608c1.624-.004 7.566.017 9.908-.007v4.806H8.44v-3.4a.6.6 0 0 0-.6-.599h-2.4a.6.6 0 0 0-.6.599v3.4H3.484V9.608Zm3.755 2v2.799h-1.2v-2.799zm2.4 8.796H3.485v-4.798h1.356v1.8a.6.6 0 0 0 .6.599h1.8c.025.51-.191 1.484.6 1.5h1.8zm1.201 0v-1.498a.6.6 0 0 0-.601-.599H8.442v-.9a.6.6 0 0 0-.601-.6H6.042v-1.201h7.353l.002 4.798z"/><path fill-rule="evenodd" d="M21.071 20.406c.789.002.775 1.203 0 1.199h-4.73c-.784-.004-.786-1.195 0-1.199zM21.071 14.407c.789.002.775 1.203 0 1.199h-4.73c-.783-.004-.786-1.195 0-1.199zM21.071 8.409c.787 0 .777 1.202 0 1.199h-4.73c-.784-.004-.786-1.195 0-1.199z"/><path d="M21.071 2.41h-9.73c-.783.004-.787 1.195 0 1.199h9.73c.778-.001.789-1.194 0-1.199"/></svg>