<svg width="24" height="24" viewBox="0 0 24 24" xmlns="http://www.w3.org/2000/svg">
<path fill-rule="evenodd" clip-rule="evenodd" d="M21.5693 0.5H9.05859L14.3447 7.43848C14.4003 7.51157 14.4307 7.5993 14.4307 7.68848L14.4277 16H14.4307V23.667C14.4305 23.8508 14.2624 23.9998 14.0557 24H13.8604C13.6534 24 13.4855 23.8509 13.4854 23.667L13.4834 7.86914C13.4834 7.84039 13.4736 7.81151 13.4551 7.78711L8.58984 1.40137C8.51646 1.3051 8.34503 1.30526 8.27148 1.40137L3.625 7.5H12.4902V8H3.37695L3.375 15.5H4.93066V12.5C4.93066 12.2239 5.15452 12 5.43066 12H7.43066C7.70658 12.0003 7.93066 12.224 7.93066 12.5V15.5H12.4902V16H5.93066V18H7.93066V19.5H9.93066V21H11.9307V23.5H12.4902V24H2.80566C2.59868 24 2.43086 23.8509 2.43066 23.667V7.68848C2.43066 7.59921 2.46089 7.51161 2.5166 7.43848C3.02121 6.77611 3.52557 6.11352 4.03027 5.45117V2.59961C4.03048 2.32365 4.25426 2.09961 4.53027 2.09961H5.12988C5.40589 2.09961 5.62967 2.32365 5.62988 2.59961V3.35156C6.35432 2.40088 7.07944 1.45073 7.80371 0.5H2.42969V0H21.5693V0.5ZM3.375 23.5H10.9307V22H8.93066V20.5H6.93066V19H4.93066V16H3.37695L3.375 23.5ZM5.93066 15.5H6.93066V13H5.93066V15.5Z"/>
<path d="M21.5703 24H15.4307V23.5H21.5703V24Z"/>
<path d="M21.5703 16H15.4307V15.5H21.5703V16Z"/>
<path fill-rule="evenodd" clip-rule="evenodd" d="M7.53125 8.50977C7.75898 8.55647 7.93066 8.75845 7.93066 9V11L7.9209 11.1006C7.88103 11.2959 7.72652 11.4502 7.53125 11.4902L7.43066 11.5H5.43066C5.18898 11.5 4.98699 11.3285 4.94043 11.1006L4.93066 11V9C4.93066 8.72386 5.15452 8.5 5.43066 8.5H7.43066L7.53125 8.50977ZM5.93066 10.5H6.93066V9.5H5.93066V10.5Z"/>
<path fill-rule="evenodd" clip-rule="evenodd" d="M11.5312 8.50977C11.759 8.55647 11.9307 8.75845 11.9307 9V11L11.9209 11.1006C11.881 11.2959 11.7265 11.4502 11.5312 11.4902L11.4307 11.5H9.43066C9.18898 11.5 8.98699 11.3285 8.94043 11.1006L8.93066 11V9C8.93066 8.72386 9.15452 8.5 9.43066 8.5H11.4307L11.5312 8.50977ZM9.93066 10.5H10.9307V9.5H9.93066V10.5Z"/>
<path d="M21.5703 8H15.4307V7.5H21.5703V8Z"/>
</svg>
