<svg xmlns="http://www.w3.org/2000/svg" width="24" height="24"><path d="M22.564 22.564 1.424 1.424.01 2.838 3 5.828V7l.586-.586 2.44 2.44L3 11.88v2.83l4.44-4.44 2.44 2.44-6.8 6.8c.09.34.27.65.51.9.25.24.56.42.9.51l6.803-6.799 2.438 2.438L9.29 21h2.83l3.026-3.026 2.44 2.44L17 21h1.172l2.978 2.979 1.414-1.415ZM10.27 7.44 8.853 6.027 11.88 3h2.83l-4.44 4.44ZM14.122 11.294 12.71 9.88 19.51 3.08c.69.18 1.23.72 1.42 1.41l-6.808 6.804ZM17.974 15.146 16.56 13.73 21 9.29v2.83l-3.026 3.026ZM21 18.172l-.586-.586L21 17v1.172ZM5.828 3l.586.586L7 3H5.828Z"/></svg>