<svg width="24" height="24" viewBox="0 0 24 24" xmlns="http://www.w3.org/2000/svg">
<path d="M21.0605 20.7998C21.3365 20.8 21.5604 21.0239 21.5605 21.2998C21.5605 21.5758 21.3365 21.7996 21.0605 21.7998H2.93066C2.65452 21.7998 2.42969 21.5759 2.42969 21.2998C2.42979 21.0237 2.65458 20.7998 2.93066 20.7998H21.0605Z"/>
<path d="M9.45996 14.5996C9.73597 14.5996 9.95975 14.8236 9.95996 15.0996C9.95996 15.3758 9.7361 15.5996 9.45996 15.5996H2.93066C2.65452 15.5996 2.42969 15.3758 2.42969 15.0996C2.4299 14.8236 2.65465 14.5996 2.93066 14.5996H9.45996Z"/>
<path d="M21.0605 14.5996C21.3364 14.5998 21.5603 14.8238 21.5605 15.0996C21.5605 15.3756 21.3365 15.5994 21.0605 15.5996H16.5303C16.2541 15.5996 16.0303 15.3758 16.0303 15.0996C16.0305 14.8236 16.2543 14.5996 16.5303 14.5996H21.0605Z"/>
<path fill-rule="evenodd" clip-rule="evenodd" d="M17.9268 5.47754C18.6295 4.77475 19.7621 4.77475 20.4648 5.47754L21.1123 6.12402C21.8109 6.82301 21.811 7.95924 21.1123 8.6582L15.3398 14.4004C15.1417 14.6283 14.854 14.7926 14.54 14.8711L11.7441 15.5703C11.5385 15.6226 11.3216 15.5626 11.1758 15.4131C11.0263 15.2636 10.9662 15.047 11.0186 14.8115L11.7178 12.0488C11.7963 11.7349 11.9567 11.4429 12.1885 11.2148L17.9268 5.47754ZM13.0332 12.0605C12.9587 12.1389 12.9031 12.2321 12.877 12.3066L12.3867 14.1689L14.248 13.709C14.3527 13.6828 14.4506 13.6303 14.5254 13.5518L18.4951 9.58496L17 8.09375L13.0332 12.0605ZM19.6201 6.28809C19.3846 6.0864 19.0069 6.08628 18.7715 6.28809L17.8486 7.24902L19.3398 8.74023L20.2666 7.81348C20.4984 7.58171 20.4984 7.20052 20.2666 6.96875L19.6201 6.28809Z"/>
<path d="M12.3604 8.40039C12.6364 8.40049 12.8604 8.62431 12.8604 8.90039C12.8601 9.17629 12.6363 9.4003 12.3604 9.40039H2.93066C2.65465 9.40039 2.4299 9.17635 2.42969 8.90039C2.42969 8.62425 2.65452 8.40039 2.93066 8.40039H12.3604Z"/>
<path d="M21.0605 2.2002C21.3365 2.2004 21.5605 2.42418 21.5605 2.7002C21.5604 2.97613 21.3365 3.19999 21.0605 3.2002H2.93066C2.65458 3.2002 2.42979 2.97625 2.42969 2.7002C2.42969 2.42405 2.65452 2.2002 2.93066 2.2002H21.0605Z"/>
</svg>
