<svg xmlns="http://www.w3.org/2000/svg" viewBox="0 0 24 24"><path d="M21.07 20.4H2.94c-.792.013-.786 1.186 0 1.199h18.13c.786-.012.789-1.184 0-1.199M2.94 15.599h6.079c.784-.002.785-1.194 0-1.199H2.94c-.783.003-.788 1.195 0 1.199M17.14 14.399c-.785.004-.783 1.196 0 1.199h3.931c.781-.003.787-1.194 0-1.199zM2.94 9.599h8.83c.786-.004.781-1.196 0-1.199H2.94c-.788.003-.782 1.196 0 1.199M2.94 3.599h18.13c.785-.002.782-1.196 0-1.199H2.94c-.791.003-.778 1.197 0 1.199M21.248 6.217l-.867-.867c-.537-.558-1.499-.558-2.036 0l-6.037 6.036c-.646.532-1.011 2.676-1.292 3.42-.149.455.317.925.774.778l2.464-.725c.361-.108.691-.304.957-.567l6.037-6.039c.559-.536.559-1.5 0-2.036m-6.922 7.188c-.234.301-1.448.519-1.786.654.138-.344.353-1.547.652-1.786l4.249-4.25 1.119 1.132zm5.135-5.148-1.134-1.12.902-.902a.19.19 0 0 1 .268 0c.044.074.984.907.922 1 .069.09-.917.951-.958 1.021Z"/></svg>