<svg id="fraction" xmlns="http://www.w3.org/2000/svg" viewBox="0 0 24 24"><defs><style>.cls-1{fill:#fff;}</style></defs><title>fraction</title><rect class="cls-1" x="7" width="2" height="2"/><rect class="cls-1" x="11" width="2" height="2"/><rect class="cls-1" x="15" width="2" height="2"/><rect class="cls-1" x="15" y="4" width="2" height="2"/><rect class="cls-1" x="7" y="4" width="2" height="2"/><rect class="cls-1" x="7" y="8" width="2" height="2"/><rect class="cls-1" x="11" y="8" width="2" height="2"/><rect class="cls-1" x="15" y="8" width="2" height="2"/><rect class="cls-1" x="7" y="14" width="2" height="2"/><rect class="cls-1" x="11" y="14" width="2" height="2"/><rect class="cls-1" x="15" y="14" width="2" height="2"/><rect class="cls-1" x="15" y="18" width="2" height="2"/><rect class="cls-1" x="7" y="18" width="2" height="2"/><rect class="cls-1" x="7" y="22" width="2" height="2"/><rect class="cls-1" x="11" y="22" width="2" height="2"/><rect class="cls-1" x="15" y="22" width="2" height="2"/><rect class="cls-1" x="4" y="11" width="16" height="2"/></svg>