<?xml version="1.0" encoding="UTF-8" standalone="no"?>
<!-- Created with Inkscape (http://www.inkscape.org/) -->

<svg
   xmlns:dc="http://purl.org/dc/elements/1.1/"
   xmlns:cc="http://creativecommons.org/ns#"
   xmlns:rdf="http://www.w3.org/1999/02/22-rdf-syntax-ns#"
   xmlns:svg="http://www.w3.org/2000/svg"
   xmlns="http://www.w3.org/2000/svg"
   xmlns:sodipodi="http://sodipodi.sourceforge.net/DTD/sodipodi-0.dtd"
   xmlns:inkscape="http://www.inkscape.org/namespaces/inkscape"
   id="svg2"
   version="1.1"
   inkscape:version="0.48.2 r9819"
   width="32"
   height="32"
   sodipodi:docname="mode_polyline_32.gif">
  <metadata
     id="metadata8">
    <rdf:RDF>
      <cc:Work
         rdf:about="">
        <dc:format>image/svg+xml</dc:format>
        <dc:type
           rdf:resource="http://purl.org/dc/dcmitype/StillImage" />
        <dc:title></dc:title>
      </cc:Work>
    </rdf:RDF>
  </metadata>
  <defs
     id="defs6" />
  <sodipodi:namedview
     pagecolor="#ffffff"
     bordercolor="#666666"
     borderopacity="1"
     objecttolerance="10"
     gridtolerance="10"
     guidetolerance="10"
     inkscape:pageopacity="0"
     inkscape:pageshadow="2"
     inkscape:window-width="955"
     inkscape:window-height="768"
     id="namedview4"
     showgrid="false"
     inkscape:zoom="10.429825"
     inkscape:cx="16"
     inkscape:cy="16"
     inkscape:window-x="1626"
     inkscape:window-y="112"
     inkscape:window-maximized="0"
     inkscape:current-layer="svg2" />
  <g
     id="g4068">
    <path
       inkscape:connector-curvature="0"
       id="path3789"
       d="M 5.848612,26.534904 23.777964,24.23381"
       style="fill:#ff0000;stroke:#ff0000;stroke-width:1px;stroke-linecap:butt;stroke-linejoin:miter;stroke-opacity:1" />
    <path
       inkscape:connector-curvature="0"
       id="path3791"
       d="M 8.5332208,8.8931886 24.736752,5.7291853"
       style="fill:none;stroke:#ff0000;stroke-width:1px;stroke-linecap:butt;stroke-linejoin:miter;stroke-opacity:1" />
    <path
       inkscape:connector-curvature="0"
       id="path3793"
       d="M 23.298569,24.23381 8.4373419,9.0849463"
       style="fill:none;stroke:#fe0000;stroke-width:1px;stroke-linecap:butt;stroke-linejoin:miter;stroke-opacity:1" />
    <path
       inkscape:connector-curvature="0"
       id="path3795"
       d="M 5.848612,26.82254 24.736752,5.8250642"
       style="fill:none;stroke:#000000;stroke-width:1;stroke-linecap:butt;stroke-linejoin:miter;stroke-miterlimit:4;stroke-opacity:1;stroke-dasharray:4, 2;stroke-dashoffset:5.8;marker-start:none" />
    <path
       transform="translate(-0.38351536,-0.2396972)"
       d="m 8.7249784,26.87048 c 0,1.297334 -1.073161,2.349032 -2.3969721,2.349032 -1.3238112,0 -2.3969722,-1.051698 -2.3969722,-2.349032 0,-1.297335 1.073161,-2.349033 2.3969722,-2.349033 1.3238111,0 2.3969721,1.051698 2.3969721,2.349033 z"
       sodipodi:ry="2.3490326"
       sodipodi:rx="2.3969722"
       sodipodi:cy="26.87048"
       sodipodi:cx="6.3280063"
       id="path2987"
       style="fill:#0000ff;fill-opacity:1;stroke:#000000;stroke-width:1;stroke-miterlimit:4;stroke-opacity:1;stroke-dasharray:none"
       sodipodi:type="arc" />
    <path
       transform="translate(17.066442,-2.924306)"
       d="m 8.7249784,26.87048 c 0,1.297334 -1.073161,2.349032 -2.3969721,2.349032 -1.3238112,0 -2.3969722,-1.051698 -2.3969722,-2.349032 0,-1.297335 1.073161,-2.349033 2.3969722,-2.349033 1.3238111,0 2.3969721,1.051698 2.3969721,2.349033 z"
       sodipodi:ry="2.3490326"
       sodipodi:rx="2.3969722"
       sodipodi:cy="26.87048"
       sodipodi:cx="6.3280063"
       id="path2987-7"
       style="fill:#0000ff;fill-opacity:1;stroke:#000000;stroke-width:1;stroke-miterlimit:4;stroke-opacity:1;stroke-dasharray:none"
       sodipodi:type="arc" />
    <path
       transform="translate(2.1093357,-17.977291)"
       d="m 8.7249784,26.87048 c 0,1.297334 -1.073161,2.349032 -2.3969721,2.349032 -1.3238112,0 -2.3969722,-1.051698 -2.3969722,-2.349032 0,-1.297335 1.073161,-2.349033 2.3969722,-2.349033 1.3238111,0 2.3969721,1.051698 2.3969721,2.349033 z"
       sodipodi:ry="2.3490326"
       sodipodi:rx="2.3969722"
       sodipodi:cy="26.87048"
       sodipodi:cx="6.3280063"
       id="path2987-1"
       style="fill:#0000ff;fill-opacity:1;stroke:#000000;stroke-width:1;stroke-miterlimit:4;stroke-opacity:1;stroke-dasharray:none"
       sodipodi:type="arc" />
    <path
       transform="translate(18.025231,-21.141294)"
       d="m 8.7249784,26.87048 c 0,1.297334 -1.073161,2.349032 -2.3969721,2.349032 -1.3238112,0 -2.3969722,-1.051698 -2.3969722,-2.349032 0,-1.297335 1.073161,-2.349033 2.3969722,-2.349033 1.3238111,0 2.3969721,1.051698 2.3969721,2.349033 z"
       sodipodi:ry="2.3490326"
       sodipodi:rx="2.3969722"
       sodipodi:cy="26.87048"
       sodipodi:cx="6.3280063"
       id="path2987-4"
       style="fill:#0000ff;fill-opacity:1;stroke:#000000;stroke-width:1;stroke-miterlimit:4;stroke-opacity:1;stroke-dasharray:none"
       sodipodi:type="arc" />
  </g>
</svg>
