<?xml version="1.0" encoding="UTF-8" standalone="no"?>
<!-- Created with Inkscape (http://www.inkscape.org/) -->

<svg
   xmlns:dc="http://purl.org/dc/elements/1.1/"
   xmlns:cc="http://creativecommons.org/ns#"
   xmlns:rdf="http://www.w3.org/1999/02/22-rdf-syntax-ns#"
   xmlns:svg="http://www.w3.org/2000/svg"
   xmlns="http://www.w3.org/2000/svg"
   xmlns:sodipodi="http://sodipodi.sourceforge.net/DTD/sodipodi-0.dtd"
   xmlns:inkscape="http://www.inkscape.org/namespaces/inkscape"
   id="svg2"
   version="1.1"
   inkscape:version="0.48.2 r9819"
   width="512"
   height="512"
   sodipodi:docname="geogebra_tube.svg">
  <metadata
     id="metadata8">
    <rdf:RDF>
      <cc:Work
         rdf:about="">
        <dc:format>image/svg+xml</dc:format>
        <dc:type
           rdf:resource="http://purl.org/dc/dcmitype/StillImage" />
        <dc:title />
      </cc:Work>
    </rdf:RDF>
  </metadata>
  <defs
     id="defs6" />
  <sodipodi:namedview
     pagecolor="#ffffff"
     bordercolor="#666666"
     borderopacity="1"
     objecttolerance="10"
     gridtolerance="10"
     guidetolerance="10"
     inkscape:pageopacity="0"
     inkscape:pageshadow="2"
     inkscape:window-width="1680"
     inkscape:window-height="988"
     id="namedview4"
     showgrid="false"
     inkscape:zoom="0.921875"
     inkscape:cx="151.97814"
     inkscape:cy="165.40583"
     inkscape:window-x="1358"
     inkscape:window-y="-8"
     inkscape:window-maximized="1"
     inkscape:current-layer="svg2" />
  <g
     id="g3842"
     transform="matrix(4.0080018,0,0,4.0080018,1.2936711,3.8554228)">
    <path
       transform="matrix(2.9884162,-0.0137255,-0.52339125,2.8899888,-21.224425,-28.847365)"
       d="m 50.336414,30.346512 c 0,8.684201 -7.576516,15.724137 -16.922622,15.724137 -9.346107,0 -16.922623,-7.039936 -16.922623,-15.724137 0,-8.684201 7.576516,-15.724137 16.922623,-15.724137 9.346106,0 16.922622,7.039936 16.922622,15.724137 z"
       sodipodi:ry="15.724137"
       sodipodi:rx="16.922623"
       sodipodi:cy="30.346512"
       sodipodi:cx="33.413792"
       id="path3803"
       style="fill:none;stroke:#666666;stroke-width:3.66447377;stroke-linecap:round;stroke-linejoin:round;stroke-miterlimit:4;stroke-opacity:1;stroke-dasharray:none"
       sodipodi:type="arc" />
    <path
       transform="matrix(2.0019821,0,0,2.4339203,40.920458,-51.135613)"
       d="m 15.915895,26.990749 c 0,2.859432 -2.811682,5.17746 -6.280067,5.17746 -3.4683852,0 -6.2800669,-2.318028 -6.2800669,-5.17746 0,-2.859432 2.8116817,-5.177459 6.2800669,-5.177459 3.468385,0 6.280067,2.318027 6.280067,5.177459 z"
       sodipodi:ry="5.1774597"
       sodipodi:rx="6.280067"
       sodipodi:cy="26.990749"
       sodipodi:cx="9.635828"
       id="path2987"
       style="fill:#9999ff;fill-opacity:1;stroke:#000000;stroke-width:1.29999995;stroke-miterlimit:4;stroke-opacity:1;stroke-dasharray:none"
       sodipodi:type="arc" />
    <path
       transform="matrix(2.0019821,0,0,2.4339203,92.607273,-27.197453)"
       d="m 15.915895,26.990749 c 0,2.859432 -2.811682,5.17746 -6.280067,5.17746 -3.4683852,0 -6.2800669,-2.318028 -6.2800669,-5.17746 0,-2.859432 2.8116817,-5.177459 6.2800669,-5.177459 3.468385,0 6.280067,2.318027 6.280067,5.177459 z"
       sodipodi:ry="5.1774597"
       sodipodi:rx="6.280067"
       sodipodi:cy="26.990749"
       sodipodi:cx="9.635828"
       id="path2987-7"
       style="fill:#9999ff;fill-opacity:1;stroke:#000000;stroke-width:1.29999995;stroke-miterlimit:4;stroke-opacity:1;stroke-dasharray:none"
       sodipodi:type="arc" />
    <path
       transform="matrix(2.0019821,0,0,2.4339203,72.322635,24.816315)"
       d="m 15.915895,26.990749 c 0,2.859432 -2.811682,5.17746 -6.280067,5.17746 -3.4683852,0 -6.2800669,-2.318028 -6.2800669,-5.17746 0,-2.859432 2.8116817,-5.177459 6.2800669,-5.177459 3.468385,0 6.280067,2.318027 6.280067,5.177459 z"
       sodipodi:ry="5.1774597"
       sodipodi:rx="6.280067"
       sodipodi:cy="26.990749"
       sodipodi:cx="9.635828"
       id="path2987-4"
       style="fill:#9999ff;fill-opacity:1;stroke:#000000;stroke-width:1.29999995;stroke-miterlimit:4;stroke-opacity:1;stroke-dasharray:none"
       sodipodi:type="arc" />
    <path
       transform="matrix(2.0019821,0,0,2.4339203,12.638989,33.288254)"
       d="m 15.915895,26.990749 c 0,2.859432 -2.811682,5.17746 -6.280067,5.17746 -3.4683852,0 -6.2800669,-2.318028 -6.2800669,-5.17746 0,-2.859432 2.8116817,-5.177459 6.2800669,-5.177459 3.468385,0 6.280067,2.318027 6.280067,5.177459 z"
       sodipodi:ry="5.1774597"
       sodipodi:rx="6.280067"
       sodipodi:cy="26.990749"
       sodipodi:cx="9.635828"
       id="path2987-0"
       style="fill:#9999ff;fill-opacity:1;stroke:#000000;stroke-width:1.29999995;stroke-miterlimit:4;stroke-opacity:1;stroke-dasharray:none"
       sodipodi:type="arc" />
    <path
       transform="matrix(2.0019821,0,0,2.4339203,-3.5497125,-19.316579)"
       d="m 15.915895,26.990749 c 0,2.859432 -2.811682,5.17746 -6.280067,5.17746 -3.4683852,0 -6.2800669,-2.318028 -6.2800669,-5.17746 0,-2.859432 2.8116817,-5.177459 6.2800669,-5.177459 3.468385,0 6.280067,2.318027 6.280067,5.177459 z"
       sodipodi:ry="5.1774597"
       sodipodi:rx="6.280067"
       sodipodi:cy="26.990749"
       sodipodi:cx="9.635828"
       id="path2987-9"
       style="fill:#9999ff;fill-opacity:1;stroke:#000000;stroke-width:1.29999995;stroke-miterlimit:4;stroke-opacity:1;stroke-dasharray:none"
       sodipodi:type="arc" />
    <path
       inkscape:connector-curvature="0"
       id="path3030"
       d="m 55.03448,90.798992 22.819175,-23.586206 0.191758,8.820858 12.464255,-27.996635 -15.532379,0 0.191757,5.752733 -21.668628,16.682927 z"
       style="fill:#9ea1ff;fill-opacity:1;stroke:none" />
    <path
       inkscape:connector-curvature="0"
       id="path3030-1"
       d="m 69.429771,31.584529 -22.819175,23.586206 -0.191758,-8.820858 -12.464255,27.996635 15.532378,0 -0.191757,-5.752733 21.668628,-16.682927 z"
       style="fill:#7d84d6;fill-opacity:1;stroke:none" />
    <g
       id="text3818"
       style="font-size:16.09028435px;font-style:normal;font-variant:normal;font-weight:normal;font-stretch:normal;line-height:125%;letter-spacing:0px;word-spacing:0px;fill:#666666;fill-opacity:1;stroke:none;font-family:FreeUniversal;-inkscape-font-specification:FreeUniversal"
       transform="scale(1.0077616,0.99229817)">
      <path
         id="path3823"
         d="m 17.069251,118.05445 -1.618456,0 c -9e-6,-0.3771 -0.256658,-0.75946 -0.769945,-1.14706 -0.513305,-0.38758 -1.147069,-0.58138 -1.901294,-0.58139 -1.382764,1e-5 -2.411975,0.38499 -3.0876372,1.15492 -0.6756692,0.76996 -1.013502,1.78869 -1.0134994,3.05621 -2.6e-6,0.69139 0.068088,1.32515 0.2042712,1.9013 0.1361779,0.57615 0.3483054,1.10778 0.6363833,1.59488 0.288071,0.48711 0.6939941,0.86685 1.2177701,1.13921 0.523768,0.27236 1.141818,0.40854 1.854154,0.40854 0.670422,0 1.304185,-0.0628 1.901294,-0.18856 l 0.89565,-0.18856 0,-3.2212 -2.639812,0 0,-1.39847 4.258269,0 0,5.6096 c -0.670439,0.25141 -1.408957,0.44783 -2.215557,0.58925 -0.806617,0.14142 -1.482283,0.21213 -2.026999,0.21213 -3.8340157,0 -5.7510204,-2.16318 -5.7510194,-6.48954 -1e-6,-1.59226 0.5132954,-2.92002 1.5398905,-3.98329 1.0265901,-1.06325 2.3883969,-1.59488 4.0854239,-1.59489 0.722798,10e-6 1.380132,0.10215 1.972002,0.30641 0.591854,0.20428 1.058011,0.46617 1.398472,0.78566 0.340442,0.31951 0.602328,0.65472 0.785659,1.00564 0.183309,0.35094 0.274969,0.69401 0.27498,1.02921 z"
         inkscape:connector-curvature="0" />
      <path
         id="path3825"
         d="m 26.465726,122.21844 c -8e-6,1e-5 -0.01572,0.25142 -0.04714,0.75423 l -5.735307,0 c -2e-6,0.89042 0.172842,1.60799 0.518535,2.15271 0.345686,0.54472 0.885171,0.81708 1.618456,0.81708 0.659948,0 1.152293,-0.17808 1.477038,-0.53424 0.324732,-0.35617 0.51329,-0.75423 0.565674,-1.19421 l 1.555604,0 c -0.04191,0.21999 -0.102144,0.43212 -0.180702,0.63639 -0.07857,0.20427 -0.206898,0.44259 -0.384973,0.71495 -0.178089,0.27236 -0.392836,0.50806 -0.644239,0.70709 -0.251418,0.19903 -0.584013,0.36664 -0.997787,0.50282 -0.413785,0.13618 -0.882561,0.20427 -1.406328,0.20427 -0.639006,0 -1.207299,-0.13094 -1.704879,-0.39283 -0.497586,-0.26188 -0.885177,-0.60495 -1.162774,-1.02921 -0.277601,-0.42425 -0.484491,-0.8747 -0.620671,-1.35133 -0.136181,-0.47663 -0.204272,-0.96112 -0.204271,-1.45347 -10e-7,-0.53424 0.06547,-1.03968 0.196415,-1.51632 0.130942,-0.47663 0.337832,-0.92445 0.62067,-1.34348 0.282835,-0.41901 0.678283,-0.7516 1.186344,-0.99778 0.508056,-0.24617 1.102537,-0.36925 1.783445,-0.36926 0.597095,10e-6 1.120867,0.0891 1.571317,0.26712 0.450437,0.17809 0.798745,0.39808 1.044925,0.65995 0.246166,0.2619 0.445199,0.57092 0.597101,0.92708 0.151886,0.35617 0.248784,0.67567 0.290693,0.9585 0.04189,0.28285 0.06284,0.57616 0.06285,0.87994 z m -1.602743,-0.28283 c 0.0838,-0.65995 -0.03667,-1.22301 -0.361403,-1.68917 -0.324745,-0.46615 -0.879943,-0.69923 -1.665596,-0.69924 -1.22563,1e-5 -1.943198,0.79614 -2.152704,2.38841 z"
         inkscape:connector-curvature="0" />
      <path
         id="path3827"
         d="m 34.87227,119.61006 c 0.743748,0.72281 1.115626,1.77035 1.115635,3.14263 -9e-6,1.37229 -0.371887,2.41983 -1.115635,3.14263 -0.743764,0.72281 -1.69179,1.08421 -2.844083,1.08421 -1.152303,0 -2.10033,-0.3614 -2.844084,-1.08421 -0.743758,-0.7228 -1.115636,-1.77034 -1.115635,-3.14263 -1e-6,-1.37228 0.371877,-2.41982 1.115635,-3.14263 0.743754,-0.7228 1.691781,-1.0842 2.844084,-1.08421 1.152293,10e-6 2.100319,0.36141 2.844083,1.08421 z m -1.021356,5.3739 c 0.419011,-0.639 0.62852,-1.38276 0.628527,-2.23127 -7e-6,-0.84851 -0.209516,-1.59488 -0.628527,-2.23913 -0.419024,-0.64423 -1.026599,-0.96635 -1.822727,-0.96636 -0.796138,1e-5 -1.403714,0.32213 -1.822728,0.96636 -0.41902,0.64425 -0.628529,1.39062 -0.628527,2.23913 -2e-6,0.84851 0.209507,1.59227 0.628527,2.23127 0.419014,0.639 1.02659,0.9585 1.822728,0.9585 0.796128,0 1.403703,-0.3195 1.822727,-0.9585 z"
         inkscape:connector-curvature="0" />
      <path
         id="path3829"
         d="m 47.804208,118.05445 -1.618456,0 c -1e-5,-0.3771 -0.256658,-0.75946 -0.769946,-1.14706 -0.513304,-0.38758 -1.147068,-0.58138 -1.901293,-0.58139 -1.382764,1e-5 -2.411976,0.38499 -3.087637,1.15492 -0.67567,0.76996 -1.013502,1.78869 -1.0135,3.05621 -2e-6,0.69139 0.06809,1.32515 0.204271,1.9013 0.136178,0.57615 0.348306,1.10778 0.636384,1.59488 0.288071,0.48711 0.693994,0.86685 1.21777,1.13921 0.523767,0.27236 1.141818,0.40854 1.854154,0.40854 0.670421,0 1.304185,-0.0628 1.901293,-0.18856 l 0.895651,-0.18856 0,-3.2212 -2.639812,0 0,-1.39847 4.258268,0 0,5.6096 c -0.670438,0.25141 -1.408957,0.44783 -2.215556,0.58925 -0.806618,0.14142 -1.482283,0.21213 -2.026999,0.21213 -3.834016,0 -5.751021,-2.16318 -5.75102,-6.48954 -10e-7,-1.59226 0.513296,-2.92002 1.539891,-3.98329 1.02659,-1.06325 2.388397,-1.59488 4.085424,-1.59489 0.722798,10e-6 1.380132,0.10215 1.972002,0.30641 0.591854,0.20428 1.058011,0.46617 1.398472,0.78566 0.340442,0.31951 0.602328,0.65472 0.785659,1.00564 0.183309,0.35094 0.274969,0.69401 0.27498,1.02921 z"
         inkscape:connector-curvature="0" />
      <path
         id="path3831"
         d="m 57.200681,122.21844 c -8e-6,1e-5 -0.01572,0.25142 -0.04714,0.75423 l -5.735306,0 c -2e-6,0.89042 0.172842,1.60799 0.518535,2.15271 0.345686,0.54472 0.885171,0.81708 1.618456,0.81708 0.659948,0 1.152293,-0.17808 1.477038,-0.53424 0.324732,-0.35617 0.51329,-0.75423 0.565674,-1.19421 l 1.555603,0 c -0.04191,0.21999 -0.102143,0.43212 -0.180701,0.63639 -0.07857,0.20427 -0.206898,0.44259 -0.384973,0.71495 -0.17809,0.27236 -0.392836,0.50806 -0.64424,0.70709 -0.251417,0.19903 -0.584012,0.36664 -0.997786,0.50282 -0.413785,0.13618 -0.882561,0.20427 -1.406328,0.20427 -0.639006,0 -1.207299,-0.13094 -1.704879,-0.39283 -0.497586,-0.26188 -0.885177,-0.60495 -1.162775,-1.02921 -0.2776,-0.42425 -0.48449,-0.8747 -0.62067,-1.35133 -0.136181,-0.47663 -0.204272,-0.96112 -0.204271,-1.45347 -1e-6,-0.53424 0.06547,-1.03968 0.196415,-1.51632 0.130942,-0.47663 0.337832,-0.92445 0.62067,-1.34348 0.282835,-0.41901 0.678283,-0.7516 1.186344,-0.99778 0.508056,-0.24617 1.102537,-0.36925 1.783445,-0.36926 0.597095,10e-6 1.120867,0.0891 1.571317,0.26712 0.450437,0.17809 0.798745,0.39808 1.044925,0.65995 0.246166,0.2619 0.445199,0.57092 0.597101,0.92708 0.151886,0.35617 0.248783,0.67567 0.290693,0.9585 0.04189,0.28285 0.06285,0.57616 0.06285,0.87994 z m -1.602743,-0.28283 c 0.0838,-0.65995 -0.03667,-1.22301 -0.361403,-1.68917 -0.324745,-0.46615 -0.879943,-0.69923 -1.665596,-0.69924 -1.22563,1e-5 -1.943198,0.79614 -2.152704,2.38841 z"
         inkscape:connector-curvature="0" />
      <path
         id="path3833"
         d="m 66.691437,122.407 c -8e-6,1.40371 -0.345698,2.51673 -1.037069,3.33905 -0.691386,0.82232 -1.477044,1.23348 -2.356975,1.23348 -0.502826,0 -0.982077,-0.0969 -1.437755,-0.29069 -0.455685,-0.1938 -0.783043,-0.38497 -0.982073,-0.57353 l -0.29855,-0.28284 0,0.94279 -1.445612,0 0,-11.61203 1.398472,0 0,4.68252 c 0.565671,-0.87993 1.471796,-1.31989 2.718378,-1.3199 0.628521,10e-6 1.178482,0.13095 1.649883,0.39283 0.471388,0.26189 0.830171,0.59972 1.076352,1.0135 0.246165,0.41378 0.426866,0.82756 0.542104,1.24134 0.115222,0.41378 0.172837,0.82494 0.172845,1.23348 z m -1.53989,0.15713 c -7e-6,-0.89041 -0.183328,-1.63154 -0.549961,-2.22341 -0.366647,-0.59186 -0.937558,-0.88779 -1.712735,-0.8878 -0.754237,10e-6 -1.333004,0.30642 -1.736306,0.91922 -0.403307,0.61282 -0.604959,1.34349 -0.604957,2.19199 -2e-6,2.23127 0.764705,3.34691 2.294123,3.34691 0.659948,0 1.209908,-0.30379 1.649883,-0.91137 0.439961,-0.60757 0.659946,-1.41942 0.659953,-2.43554 z"
         inkscape:connector-curvature="0" />
      <path
         id="path3835"
         d="m 73.00813,120.0186 c -1.958911,10e-6 -2.938365,0.749 -2.938362,2.24698 l 0,4.50968 -1.445612,0 0,-8.04514 1.445612,0 0,1.09992 c 0.219982,-0.38758 0.526388,-0.6678 0.91922,-0.84065 0.392826,-0.17284 1.065872,-0.25926 2.019142,-0.25927 z"
         inkscape:connector-curvature="0" />
      <path
         id="path3837"
         d="m 81.288966,126.77526 -1.445611,0 c -0.115236,-0.60757 -0.178089,-1.0004 -0.188558,-1.17849 -0.272368,0.32474 -0.492352,0.5683 -0.659953,0.73067 -0.167613,0.16237 -0.408548,0.31164 -0.722806,0.44782 -0.314268,0.13618 -0.670433,0.20427 -1.068495,0.20427 -0.764711,0 -1.469184,-0.20689 -2.113421,-0.62067 -0.644241,-0.41378 -0.966361,-0.98207 -0.96636,-1.70488 -10e-7,-0.47139 0.09166,-0.88517 0.27498,-1.24134 0.183319,-0.35616 0.419016,-0.64161 0.707093,-0.85636 0.288072,-0.21475 0.631143,-0.39021 1.029212,-0.5264 0.398064,-0.13617 0.785655,-0.22783 1.162775,-0.27498 0.377111,-0.0471 0.775178,-0.0707 1.1942,-0.0707 0.125701,10e-6 0.309021,0.005 0.549961,0.0157 0.24093,0.0105 0.42425,0.0157 0.549961,0.0157 0.136175,-0.61804 0.05761,-1.1261 -0.235697,-1.52418 -0.293318,-0.39806 -0.790902,-0.59709 -1.492751,-0.5971 -0.49235,1e-5 -0.916605,0.10476 -1.272767,0.31427 -0.356168,0.20951 -0.53425,0.53949 -0.534248,0.98993 l -1.492751,0 c -1e-6,-1.58179 1.078969,-2.37268 3.236913,-2.37269 1.707492,1e-5 2.739322,0.45569 3.095494,1.36704 0.125698,0.29332 0.188551,1.14183 0.188558,2.54554 l 0,1.39847 c -7e-6,1.56084 0.06808,2.54029 0.204271,2.93836 z m -1.712735,-3.95972 c -0.534253,-0.0314 -0.811852,-0.0471 -0.832798,-0.0471 -0.303793,1e-5 -0.612818,0.0236 -0.927077,0.0707 -0.314267,0.0471 -0.649481,0.12571 -1.005643,0.2357 -0.356168,0.11 -0.644242,0.28546 -0.864224,0.52639 -0.219987,0.24094 -0.329979,0.52901 -0.329976,0.86423 -3e-6,0.43997 0.157129,0.79089 0.471395,1.05278 0.31426,0.26188 0.691376,0.39283 1.131348,0.39283 0.921834,0 1.545123,-0.26974 1.869867,-0.80923 0.324733,-0.53948 0.487102,-1.30157 0.487108,-2.28627 z"
         inkscape:connector-curvature="0" />
      <path
         id="path3839"
         d="m 91.76965,116.5617 -3.786873,0 0,10.21356 -1.63417,0 0,-10.21356 -3.802586,0 0,-1.39847 9.223629,0 z"
         inkscape:connector-curvature="0" />
      <path
         id="path3841"
         d="m 100.19191,126.77526 -1.445608,0 0,-1.03707 c -0.523779,0.82756 -1.340863,1.24134 -2.451255,1.24134 -1.068498,0 -1.846299,-0.25141 -2.333405,-0.75423 -0.48711,-0.50282 -0.730664,-1.2361 -0.730663,-2.19984 l 0,-5.29534 1.445612,0 0,5.32676 c -3e-6,0.54473 0.193793,1.00565 0.581387,1.38276 0.387588,0.37712 0.84327,0.56568 1.367046,0.56568 0.58662,0 1.086822,-0.19642 1.500607,-0.58925 0.413774,-0.39283 0.620664,-0.89303 0.620671,-1.50061 l 0,-5.18534 1.445608,0 z"
         inkscape:connector-curvature="0" />
      <path
         id="path3843"
         d="m 109.99693,122.407 c -1e-5,1.40371 -0.3457,2.51673 -1.03707,3.33905 -0.69139,0.82232 -1.47704,1.23348 -2.35697,1.23348 -0.50283,0 -0.98208,-0.0969 -1.43776,-0.29069 -0.45568,-0.1938 -0.78304,-0.38497 -0.98207,-0.57353 l -0.29855,-0.28284 0,0.94279 -1.44561,0 0,-11.61203 1.39847,0 0,4.68252 c 0.56567,-0.87993 1.47179,-1.31989 2.71838,-1.3199 0.62852,10e-6 1.17848,0.13095 1.64988,0.39283 0.47139,0.26189 0.83017,0.59972 1.07635,1.0135 0.24617,0.41378 0.42687,0.82756 0.5421,1.24134 0.11523,0.41378 0.17284,0.82494 0.17285,1.23348 z m -1.53989,0.15713 c -1e-5,-0.89041 -0.18333,-1.63154 -0.54996,-2.22341 -0.36665,-0.59186 -0.93756,-0.88779 -1.71274,-0.8878 -0.75423,10e-6 -1.333,0.30642 -1.7363,0.91922 -0.40331,0.61282 -0.60496,1.34349 -0.60496,2.19199 0,2.23127 0.76471,3.34691 2.29412,3.34691 0.65995,0 1.20991,-0.30379 1.64989,-0.91137 0.43996,-0.60757 0.65994,-1.41942 0.65995,-2.43554 z"
         inkscape:connector-curvature="0" />
      <path
         id="path3845"
         d="m 118.95344,122.21844 c -1e-5,1e-5 -0.0157,0.25142 -0.0471,0.75423 l -5.73531,0 c 0,0.89042 0.17284,1.60799 0.51853,2.15271 0.34569,0.54472 0.88518,0.81708 1.61846,0.81708 0.65995,0 1.15229,-0.17808 1.47704,-0.53424 0.32473,-0.35617 0.51329,-0.75423 0.56567,-1.19421 l 1.55561,0 c -0.0419,0.21999 -0.10215,0.43212 -0.18071,0.63639 -0.0786,0.20427 -0.20689,0.44259 -0.38497,0.71495 -0.17809,0.27236 -0.39283,0.50806 -0.64424,0.70709 -0.25142,0.19903 -0.58401,0.36664 -0.99778,0.50282 -0.41379,0.13618 -0.88257,0.20427 -1.40633,0.20427 -0.63901,0 -1.2073,-0.13094 -1.70488,-0.39283 -0.49759,-0.26188 -0.88518,-0.60495 -1.16278,-1.02921 -0.2776,-0.42425 -0.48449,-0.8747 -0.62067,-1.35133 -0.13618,-0.47663 -0.20427,-0.96112 -0.20427,-1.45347 0,-0.53424 0.0655,-1.03968 0.19642,-1.51632 0.13094,-0.47663 0.33783,-0.92445 0.62067,-1.34348 0.28283,-0.41901 0.67828,-0.7516 1.18634,-0.99778 0.50806,-0.24617 1.10254,-0.36925 1.78345,-0.36926 0.59709,10e-6 1.12086,0.0891 1.57131,0.26712 0.45044,0.17809 0.79875,0.39808 1.04493,0.65995 0.24616,0.2619 0.4452,0.57092 0.5971,0.92708 0.15188,0.35617 0.24878,0.67567 0.29069,0.9585 0.0419,0.28285 0.0628,0.57616 0.0629,0.87994 z m -1.60275,-0.28283 c 0.0838,-0.65995 -0.0367,-1.22301 -0.3614,-1.68917 -0.32475,-0.46615 -0.87994,-0.69923 -1.6656,-0.69924 -1.22563,1e-5 -1.94319,0.79614 -2.1527,2.38841 z"
         inkscape:connector-curvature="0" />
    </g>
  </g>
</svg>
