<?xml version="1.0" encoding="UTF-8" standalone="no"?>
<!-- Created with Inkscape (http://www.inkscape.org/) -->

<svg
   xmlns:dc="http://purl.org/dc/elements/1.1/"
   xmlns:cc="http://creativecommons.org/ns#"
   xmlns:rdf="http://www.w3.org/1999/02/22-rdf-syntax-ns#"
   xmlns:svg="http://www.w3.org/2000/svg"
   xmlns="http://www.w3.org/2000/svg"
   xmlns:sodipodi="http://sodipodi.sourceforge.net/DTD/sodipodi-0.dtd"
   xmlns:inkscape="http://www.inkscape.org/namespaces/inkscape"
   id="svg2"
   version="1.1"
   inkscape:version="0.48.2 r9819"
   width="512"
   height="512"
   sodipodi:docname="geogebra_tube.svg">
  <metadata
     id="metadata8">
    <rdf:RDF>
      <cc:Work
         rdf:about="">
        <dc:format>image/svg+xml</dc:format>
        <dc:type
           rdf:resource="http://purl.org/dc/dcmitype/StillImage" />
        <dc:title></dc:title>
      </cc:Work>
    </rdf:RDF>
  </metadata>
  <defs
     id="defs6" />
  <sodipodi:namedview
     pagecolor="#ffffff"
     bordercolor="#666666"
     borderopacity="1"
     objecttolerance="10"
     gridtolerance="10"
     guidetolerance="10"
     inkscape:pageopacity="0"
     inkscape:pageshadow="2"
     inkscape:window-width="1680"
     inkscape:window-height="988"
     id="namedview4"
     showgrid="false"
     inkscape:zoom="0.921875"
     inkscape:cx="151.97814"
     inkscape:cy="165.40583"
     inkscape:window-x="1358"
     inkscape:window-y="-8"
     inkscape:window-maximized="1"
     inkscape:current-layer="svg2" />
  <g
     id="g3038"
     transform="translate(0,27.118644)">
    <path
       transform="matrix(11.977578,-0.05501183,-2.0977531,11.58308,-83.773863,-111.76487)"
       d="m 50.336414,30.346512 c 0,8.684201 -7.576516,15.724137 -16.922622,15.724137 -9.346107,0 -16.922623,-7.039936 -16.922623,-15.724137 0,-8.684201 7.576516,-15.724137 16.922623,-15.724137 9.346106,0 16.922622,7.039936 16.922622,15.724137 z"
       sodipodi:ry="15.724137"
       sodipodi:rx="16.922623"
       sodipodi:cy="30.346512"
       sodipodi:cx="33.413792"
       id="path3803"
       style="fill:none;stroke:#666666;stroke-width:3.66447377;stroke-linecap:round;stroke-linejoin:round;stroke-miterlimit:4;stroke-opacity:1;stroke-dasharray:none"
       sodipodi:type="arc" />
    <path
       transform="matrix(8.0239479,0,0,9.7551569,165.30294,-201.09621)"
       d="m 15.915895,26.990749 c 0,2.859432 -2.811682,5.17746 -6.280067,5.17746 -3.4683852,0 -6.2800669,-2.318028 -6.2800669,-5.17746 0,-2.859432 2.8116817,-5.177459 6.2800669,-5.177459 3.468385,0 6.280067,2.318027 6.280067,5.177459 z"
       sodipodi:ry="5.1774597"
       sodipodi:rx="6.280067"
       sodipodi:cy="26.990749"
       sodipodi:cx="9.635828"
       id="path2987"
       style="fill:#9999ff;fill-opacity:1;stroke:#000000;stroke-width:1.29999995;stroke-miterlimit:4;stroke-opacity:1;stroke-dasharray:none"
       sodipodi:type="arc" />
    <path
       transform="matrix(8.0239479,0,0,9.7551569,372.46379,-105.15202)"
       d="m 15.915895,26.990749 c 0,2.859432 -2.811682,5.17746 -6.280067,5.17746 -3.4683852,0 -6.2800669,-2.318028 -6.2800669,-5.17746 0,-2.859432 2.8116817,-5.177459 6.2800669,-5.177459 3.468385,0 6.280067,2.318027 6.280067,5.177459 z"
       sodipodi:ry="5.1774597"
       sodipodi:rx="6.280067"
       sodipodi:cy="26.990749"
       sodipodi:cx="9.635828"
       id="path2987-7"
       style="fill:#9999ff;fill-opacity:1;stroke:#000000;stroke-width:1.29999995;stroke-miterlimit:4;stroke-opacity:1;stroke-dasharray:none"
       sodipodi:type="arc" />
    <path
       transform="matrix(8.0239479,0,0,9.7551569,291.16292,103.31926)"
       d="m 15.915895,26.990749 c 0,2.859432 -2.811682,5.17746 -6.280067,5.17746 -3.4683852,0 -6.2800669,-2.318028 -6.2800669,-5.17746 0,-2.859432 2.8116817,-5.177459 6.2800669,-5.177459 3.468385,0 6.280067,2.318027 6.280067,5.177459 z"
       sodipodi:ry="5.1774597"
       sodipodi:rx="6.280067"
       sodipodi:cy="26.990749"
       sodipodi:cx="9.635828"
       id="path2987-4"
       style="fill:#9999ff;fill-opacity:1;stroke:#000000;stroke-width:1.29999995;stroke-miterlimit:4;stroke-opacity:1;stroke-dasharray:none"
       sodipodi:type="arc" />
    <path
       transform="matrix(8.0239479,0,0,9.7551569,51.950762,137.2748)"
       d="m 15.915895,26.990749 c 0,2.859432 -2.811682,5.17746 -6.280067,5.17746 -3.4683852,0 -6.2800669,-2.318028 -6.2800669,-5.17746 0,-2.859432 2.8116817,-5.177459 6.2800669,-5.177459 3.468385,0 6.280067,2.318027 6.280067,5.177459 z"
       sodipodi:ry="5.1774597"
       sodipodi:rx="6.280067"
       sodipodi:cy="26.990749"
       sodipodi:cx="9.635828"
       id="path2987-0"
       style="fill:#9999ff;fill-opacity:1;stroke:#000000;stroke-width:1.29999995;stroke-miterlimit:4;stroke-opacity:1;stroke-dasharray:none"
       sodipodi:type="arc" />
    <path
       transform="matrix(8.0239479,0,0,9.7551569,-12.933583,-73.565461)"
       d="m 15.915895,26.990749 c 0,2.859432 -2.811682,5.17746 -6.280067,5.17746 -3.4683852,0 -6.2800669,-2.318028 -6.2800669,-5.17746 0,-2.859432 2.8116817,-5.177459 6.2800669,-5.177459 3.468385,0 6.280067,2.318027 6.280067,5.177459 z"
       sodipodi:ry="5.1774597"
       sodipodi:rx="6.280067"
       sodipodi:cy="26.990749"
       sodipodi:cx="9.635828"
       id="path2987-9"
       style="fill:#9999ff;fill-opacity:1;stroke:#000000;stroke-width:1.29999995;stroke-miterlimit:4;stroke-opacity:1;stroke-dasharray:none"
       sodipodi:type="arc" />
    <path
       inkscape:connector-curvature="0"
       id="path3030"
       d="m 221.87197,367.77795 91.45929,-94.53356 0.76857,35.35401 49.95675,-112.21056 -62.2538,0 0.76856,23.05697 -86.8479,66.8652 z"
       style="fill:#9ea1ff;fill-opacity:1;stroke:none" />
    <path
       inkscape:connector-curvature="0"
       id="path3030-1"
       d="m 279.56832,130.44627 -91.4593,94.53356 -0.76856,-35.35402 -49.95676,112.21057 62.2538,0 -0.76856,-23.05697 86.8479,-66.8652 z"
       style="fill:#7d84d6;fill-opacity:1;stroke:none" />
  </g>
</svg>
