<svg xmlns="http://www.w3.org/2000/svg" width="32" height="32" fill="none"><path fill="#25A667" d="M32 16c0 8.837-7.163 16-16 16S0 24.837 0 16 7.163 0 16 0s16 7.163 16 16Z"/><path fill="#F6BB18" fill-rule="evenodd" d="M16 30.5c8.008 0 14.5-6.492 14.5-14.5S24.008 1.5 16 1.5 1.5 7.992 1.5 16 7.992 30.5 16 30.5Zm0 1.5c8.837 0 16-7.163 16-16S24.837 0 16 0 0 7.163 0 16s7.163 16 16 16Z" clip-rule="evenodd"/><path fill="#57BB8A" d="M13.467 21v-1.067s0-2.133-3.734-2.133C6 17.8 6 19.933 6 19.933V21h7.467Zm-3.734-8a1.867 1.867 0 1 1 0 3.733 1.867 1.867 0 0 1 0-3.733Zm16.734 8v-1.067s0-2.133-3.734-2.133C19 17.8 19 19.933 19 19.933V21h7.467Zm-3.734-8a1.867 1.867 0 1 1 0 3.733 1.867 1.867 0 0 1 0-3.733Z"/><path fill="#fff" d="M21.267 21v-1.467s0-2.933-5.134-2.933C11 16.6 11 19.533 11 19.533V21h10.267Zm-5.134-11a2.567 2.567 0 1 1 0 5.133 2.567 2.567 0 0 1 0-5.133Z"/></svg>