<?xml version="1.0" encoding="UTF-8" standalone="no"?>
<!-- Created with Inkscape (http://www.inkscape.org/) -->

<svg
   xmlns:dc="http://purl.org/dc/elements/1.1/"
   xmlns:cc="http://creativecommons.org/ns#"
   xmlns:rdf="http://www.w3.org/1999/02/22-rdf-syntax-ns#"
   xmlns:svg="http://www.w3.org/2000/svg"
   xmlns="http://www.w3.org/2000/svg"
   xmlns:xlink="http://www.w3.org/1999/xlink"
   xmlns:sodipodi="http://sodipodi.sourceforge.net/DTD/sodipodi-0.dtd"
   xmlns:inkscape="http://www.inkscape.org/namespaces/inkscape"
   id="svg2"
   version="1.1"
   inkscape:version="0.48.2 r9819"
   width="134"
   height="133"
   sodipodi:docname="mode_polygon.png">
  <metadata
     id="metadata8">
    <rdf:RDF>
      <cc:Work
         rdf:about="">
        <dc:format>image/svg+xml</dc:format>
        <dc:type
           rdf:resource="http://purl.org/dc/dcmitype/StillImage" />
        <dc:title></dc:title>
      </cc:Work>
    </rdf:RDF>
  </metadata>
  <defs
     id="defs6" />
  <sodipodi:namedview
     pagecolor="#ffffff"
     bordercolor="#666666"
     borderopacity="1"
     objecttolerance="10"
     gridtolerance="10"
     guidetolerance="10"
     inkscape:pageopacity="0"
     inkscape:pageshadow="2"
     inkscape:window-width="1618"
     inkscape:window-height="1028"
     id="namedview4"
     showgrid="false"
     inkscape:zoom="5.0188632"
     inkscape:cx="110.37549"
     inkscape:cy="68.922707"
     inkscape:window-x="54"
     inkscape:window-y="-8"
     inkscape:window-maximized="1"
     inkscape:current-layer="svg2" />
  <g
     id="g3055">
    <path
       style="fill:#fdfafa"
       d="m 0.19924824,66.898497 0,-66.50000038 66.99999976,0 67.000002,0 0,66.50000038 0,66.500003 -67.000002,0 -66.99999976,0 0,-66.500003 z"
       id="path3003"
       inkscape:connector-curvature="0" />
    <path
       sodipodi:nodetypes="sssssssssssscsscsscsscssscscsc"
       style="fill:#dc5c5c"
       d="m 28.961819,116.83311 c -3.278381,-1.77883 -5.762571,-6.22261 -5.762571,-10.30822 0,-3.7948 4.703309,-7.580976 8.558877,-8.427801 3.453685,-0.758556 2.460818,-0.1248 5.938271,-28.932739 3.160517,-26.182382 5.009231,-28.25315 1.398211,-31.421765 -5.33932,-4.685173 -7.15441,-10.265435 -1.78463,-14.783807 7.542372,-6.346488 16.082961,0.612145 15.46791,11.03597 -0.12809,2.170864 2.23331,3.524168 2.477459,3.73792 2.302677,2.016012 43.804439,29.139338 45.118704,29.483025 0.9547,0.249661 3.16904,1.530121 4.42569,0.649934 9.75869,-6.835252 21.62116,5.657765 13.64951,14.578837 -3.85088,4.309518 -9.32849,3.138947 -15.09672,0.348257 l -2.73794,-1.324627 -14.67973,5.957053 c -7.287291,2.957191 -19.305775,7.944729 -26.724863,11.041379 l -13.489251,5.630274 -2.67204,1.07233 c -7.736468,3.10476 -7.022142,15.49727 -14.086887,11.66398 z M 69.821228,90.502657 C 102.412,76.995966 102.52235,78.395914 102.16872,74.18367 101.8786,70.727848 97.986185,70.419798 75.812096,55.533702 L 52.924943,40.168907 48.942967,37.616579 c -2.047068,-1.31211 -4.515412,4.404513 -4.951207,5.604051 -0.41115,1.131698 -1.743949,14.633323 -3.284649,28.023324 l -3.047829,25.543022 2.385978,3.636584 c 1.128953,1.72069 4.141268,0.007 4.758357,0.027 0.617089,0.0198 11.8847,-4.505221 25.017611,-9.947933 z"
       id="path2997"
       inkscape:connector-curvature="0" />
    <path
       style="fill:#5f5e5f"
       d="m 28.961819,116.83311 c -5.783788,-3.13825 -7.459077,-11.26498 -3.333059,-16.16847 4.751399,-5.646721 13.351626,-5.892844 17.605929,-0.50385 1.753314,2.22095 2.072575,3.67028 1.691391,7.67832 -0.827058,8.69625 -8.522609,13.0318 -15.964261,8.994 z M 103.97439,84.896179 c -3.59443,-2.025135 -4.781901,-4.448962 -4.743339,-9.681941 0.03395,-4.606247 1.006729,-6.400242 4.940709,-9.111632 10.00009,-6.892297 22.35011,7.307294 14.24505,16.37843 -3.37378,3.775916 -10.04661,4.891784 -14.44242,2.415143 z M 41.531913,42.703597 c -2.999888,-0.584848 -7.121227,-4.614482 -7.902279,-7.726442 -1.727255,-6.881933 3.391697,-14.578658 9.695999,-14.578658 12.564567,0 16.402389,16.770422 4.891796,21.376049 -2.23226,0.893173 -4.162047,1.562669 -4.288417,1.487769 -0.12637,-0.0749 -1.205065,-0.326323 -2.397099,-0.558718 z"
       id="path2993"
       inkscape:connector-curvature="0" />
    <path
       inkscape:connector-curvature="0"
       id="path3013"
       d="m 31.925653,117.8618 c -4.038371,-1.05799 -7.065751,-4.0331 -8.11466,-7.97455 -0.623367,-2.34241 -0.263054,-5.55274 0.858275,-7.64711 0.78173,-1.46008 2.903373,-3.479368 4.583215,-4.3621 1.645088,-0.864469 4.046379,-1.530643 5.517358,-1.530643 4.044993,0 7.803164,2.248727 9.483984,5.674803 0.667932,1.36147 0.681584,1.43981 0.643906,3.69438 -0.0708,4.23642 -1.050602,7.07787 -3.252169,9.43135 -2.524466,2.69866 -6.03579,3.67905 -9.719909,2.71387 z"
       style="fill:#000000;fill-opacity:1;stroke:none" />
    <path
       inkscape:connector-curvature="0"
       id="path3015"
       d="m 42.112754,42.744646 c -2.223692,-0.574787 -3.460315,-1.302876 -5.300843,-3.120982 -2.425409,-2.395862 -3.332463,-4.429924 -3.332463,-7.473026 0,-6.679066 5.118427,-12.121201 10.893992,-11.582969 4.833837,0.450471 8.513945,3.437569 10.144978,8.234551 0.511409,1.504089 0.514097,4.658739 0.0053,6.176697 -0.955489,2.850426 -2.948329,5.105413 -5.62774,6.368036 -1.398252,0.6589 -4.617864,1.804118 -5.015655,1.784072 -0.186339,-0.0094 -0.981729,-0.183261 -1.767533,-0.386379 l 4e-6,0 z"
       style="fill:#000000;fill-opacity:1;stroke:none" />
    <path
       inkscape:connector-curvature="0"
       id="path3017"
       d="m 107.89869,85.979296 c -3.18641,-0.426027 -6.01076,-2.122217 -7.33763,-4.406673 -0.84514,-1.45506 -1.154334,-3.104968 -1.146927,-6.120159 0.0073,-2.957212 0.254754,-4.259277 1.075917,-5.660485 0.63352,-1.081022 2.32851,-2.684911 3.93408,-3.722642 4.22013,-2.727603 9.50393,-1.951752 13.14711,1.930466 4.3695,4.656189 4.45636,10.848361 0.20834,14.85265 -2.55236,2.405925 -6.33051,3.601534 -9.88089,3.126843 z"
       style="fill:#000000;fill-opacity:1;stroke:none" />
    <path
       inkscape:connector-curvature="0"
       id="path3019"
       d="m 99.594299,78.573378 c -0.01392,-0.05596 -0.07662,-0.629702 -0.09864,-0.902576 -0.08459,-1.048603 -0.0925,-2.877095 -0.01781,-4.112221 0.117791,-1.947709 0.561194,-3.265077 1.488074,-4.421081 0.96067,-1.198165 2.68448,-2.650043 4.04986,-3.411003 1.15933,-0.64612 2.42708,-1.05735 3.70717,-1.202525 0.69604,-0.07894 1.55209,-0.07513 2.24543,0.01 0.2094,0.02571 0.71116,0.106572 0.77049,0.12417 0.0293,0.0087 0.0308,0.356407 0.0308,6.982002 l 0,6.97286 -6.08277,0 -6.082771,0 -0.0099,-0.03963 0,0 z"
       style="fill:#000000;fill-opacity:1;stroke:none" />
    <path
       inkscape:connector-curvature="0"
       id="path3021"
       d="m 99.451468,78.590989 c -0.0038,-0.01211 -0.01902,-0.109189 -0.03387,-0.215737 -0.125971,-0.904247 -0.16976,-1.67481 -0.169899,-2.989697 -9.6e-5,-0.915388 0.02335,-1.480807 0.08926,-2.152782 0.186466,-1.900999 0.692335,-3.220219 1.702835,-4.440681 0.22081,-0.266689 0.73625,-0.795225 1.03492,-1.061207 0.7704,-0.686087 1.99707,-1.589299 2.80018,-2.06181 1.20333,-0.707974 2.48419,-1.150731 3.79522,-1.311898 0.3822,-0.04698 0.68156,-0.06333 1.16234,-0.06348 0.66297,-2.01e-4 1.20521,0.05249 1.84478,0.179269 l 0.0925,0.01833 0,0.07919 c 0,0.06716 -0.005,0.0778 -0.0308,0.07005 -0.0436,-0.01293 -0.53163,-0.09417 -0.70005,-0.116537 -0.66794,-0.08869 -1.62226,-0.09546 -2.32468,-0.01648 -0.9752,0.109646 -1.9525,0.377409 -2.8878,0.791205 -0.76224,0.337233 -1.4912,0.779715 -2.31003,1.402196 -0.61844,0.470149 -1.04421,0.837993 -1.6077,1.388984 -0.38723,0.378639 -0.56223,0.563104 -0.80237,0.845734 -0.37453,0.440813 -0.59625,0.772902 -0.84658,1.268008 -0.521994,1.032396 -0.728942,1.977732 -0.821194,3.751192 -0.02935,0.564259 -0.029,2.623457 5.4e-4,3.125993 0.03542,0.602689 0.100517,1.310441 0.136466,1.483746 0.0095,0.04575 0.0065,0.04843 -0.05354,0.04843 -0.03546,0 -0.06663,-0.0097 -0.07047,-0.02201 l 0,0 z"
       style="fill:#000000;fill-opacity:1;stroke:none" />
    <path
       inkscape:connector-curvature="0"
       id="path3023"
       d="m 120.55906,78.370849 c 0.26031,-0.922518 0.36296,-1.742389 0.34454,-2.751755 -0.0121,-0.665685 -0.059,-1.120202 -0.17804,-1.7259 -0.44135,-2.246446 -1.66763,-4.444891 -3.47547,-6.230726 -1.354,-1.337526 -2.88066,-2.267059 -4.57424,-2.785114 -0.23563,-0.07208 -0.78596,-0.212234 -0.83523,-0.212714 -0.0573,-5.57e-4 -0.0735,-0.02668 -0.0618,-0.09969 l 0.0113,-0.07063 0.20512,0.04747 c 2.46423,0.570257 4.80909,2.117622 6.5116,4.296985 1.32057,1.690453 2.17724,3.68506 2.43557,5.670816 0.0675,0.518706 0.0798,0.724284 0.0794,1.320842 -3e-4,0.435013 -0.009,0.668614 -0.0313,0.889367 -0.0602,0.582917 -0.15913,1.129077 -0.2923,1.614455 -0.039,0.142115 -0.0709,0.262972 -0.0709,0.268572 0,0.0056 -0.0307,0.01018 -0.0683,0.01018 l -0.0683,0 0.0683,-0.242154 z"
       style="fill:#000000;fill-opacity:1;stroke:none" />
    <path
       inkscape:connector-curvature="0"
       id="path3025"
       d="m 108.73974,86.192062 c -1.43819,-0.09486 -2.5377,-0.32917 -3.66313,-0.780619 -0.79477,-0.318809 -1.76455,-0.878268 -2.55363,-1.473172 -1.42258,-1.072517 -2.29773,-2.337028 -2.781282,-4.018724 -0.102199,-0.355427 -0.232986,-0.937415 -0.274814,-1.22289 l -0.01226,-0.08365 0.06209,0 c 0.05949,0 0.06258,0.0031 0.07371,0.07485 0.178078,1.147467 0.473305,2.037775 0.950455,2.866227 0.84848,1.473181 2.36337,2.749526 4.22661,3.561063 1.93545,0.842986 4.09256,1.146424 6.22649,0.875875 2.34637,-0.297482 4.58355,-1.258548 6.32493,-2.717106 0.27882,-0.23353 0.773,-0.708769 1.03757,-0.99778 0.93943,-1.026248 1.66203,-2.241507 2.07599,-3.491417 l 0.0569,-0.17171 0.0602,0 c 0.0331,0 0.0602,0.0051 0.0602,0.01131 0,0.02872 -0.0813,0.279207 -0.1614,0.497061 -0.66813,1.817974 -1.89947,3.472781 -3.45771,4.646821 -1.85521,1.397799 -4.29058,2.258154 -6.84196,2.417088 -0.25788,0.01606 -1.19944,0.0206 -1.4089,0.0068 z"
       style="fill:#000000;fill-opacity:1;stroke:none" />
    <path
       inkscape:connector-curvature="0"
       id="path3027"
       d="m 23.61933,109.54272 c -0.06992,-0.24804 -0.188054,-1.04226 -0.232487,-1.56299 -0.02952,-0.34598 -0.02918,-1.34902 5.85e-4,-1.69949 0.164335,-1.93522 0.803015,-3.67905 1.883439,-5.14248 0.315063,-0.42674 0.643265,-0.80134 1.111461,-1.268569 0.503163,-0.502124 0.894345,-0.838265 1.436629,-1.234489 1.924645,-1.406255 4.15158,-2.202007 6.547567,-2.339645 2.328203,-0.133744 4.758756,0.518327 6.59041,1.768082 1.089321,0.743254 1.921889,1.572795 2.732333,2.722401 0.870162,1.23432 1.236551,2.25346 1.345413,3.74239 0.03941,0.53902 0.01983,1.60473 -0.04514,2.45676 -0.07877,1.03306 -0.141771,1.55874 -0.265933,2.21902 -0.08368,0.44502 -0.06894,0.40506 -0.149478,0.40506 -0.07804,0 -0.07824,-6.8e-4 -0.0431,-0.1497 0.04169,-0.17678 0.146552,-0.80789 0.193136,-1.16234 0.121984,-0.92819 0.168243,-1.69848 0.180855,-3.01152 0.01031,-1.07322 -0.0012,-1.42338 -0.05753,-1.75232 -0.06392,-0.37321 -0.220857,-0.77987 -0.57089,-1.47934 -0.52587,-1.05084 -1.032556,-1.75501 -1.85739,-2.581329 -0.637616,-0.638765 -1.222712,-1.098871 -1.973072,-1.551576 -1.698709,-1.02486 -3.65579,-1.573844 -5.607444,-1.572953 -0.449756,2.06e-4 -0.69009,0.01729 -1.117086,0.07942 -1.542757,0.224478 -3.496079,0.877676 -4.7139,1.576344 -1.336315,0.766648 -2.942706,2.219251 -3.894599,3.521751 -0.350823,0.48004 -0.670931,1.0946 -0.912955,1.75273 -0.600517,1.63298 -0.831906,3.63095 -0.624066,5.38863 0.02877,0.24328 0.119431,0.78931 0.146942,0.88496 0.01586,0.0551 0.01461,0.0572 -0.03431,0.0572 -0.04362,0 -0.0534,-0.009 -0.06939,-0.0661 z"
       style="fill:#000000;fill-opacity:1;stroke:none" />
    <path
       inkscape:connector-curvature="0"
       id="path3029"
       d="m 34.079749,118.33368 c -0.04359,-0.004 -0.186239,-0.0151 -0.317002,-0.0257 -2.083062,-0.16847 -4.377494,-1.03718 -6.049457,-2.29041 -0.742425,-0.55649 -1.531423,-1.34749 -2.097568,-2.10289 -0.824899,-1.10065 -1.436046,-2.33517 -1.821337,-3.6791 -0.05065,-0.17668 -0.158095,-0.59651 -0.158095,-0.61775 0,-0.005 0.02298,-0.009 0.05107,-0.009 0.04936,0 0.05207,0.005 0.08124,0.13648 0.0166,0.0751 0.07285,0.28146 0.125018,0.45866 0.71302,2.42193 2.222107,4.5149 4.293566,5.95478 1.586095,1.1025 3.51702,1.82126 5.420013,2.01751 2.257321,0.23281 4.417227,-0.28374 6.240237,-1.49236 0.885118,-0.58681 1.651334,-1.29385 2.380627,-2.19676 1.013213,-1.25443 1.691934,-2.61947 2.127837,-4.27953 0.05214,-0.19857 0.10436,-0.41126 0.116044,-0.47265 0.02257,-0.1186 0.03528,-0.1319 0.117549,-0.12297 l 0.05202,0.006 -0.06504,0.27298 c -0.360026,1.51101 -0.97025,2.90771 -1.792791,4.10341 -1.143999,1.66299 -2.707313,2.93261 -4.492494,3.6485 -0.870621,0.34914 -1.730007,0.55801 -2.714473,0.65974 -0.237844,0.0246 -1.305505,0.047 -1.496955,0.0315 z"
       style="fill:#000000;fill-opacity:1;stroke:none" />
    <path
       inkscape:connector-curvature="0"
       id="path3031"
       d="M 34.100012,36.208674 C 33.719447,35.451769 33.47172,34.486318 33.348973,33.2817 c -0.03893,-0.382084 -0.05332,-1.344827 -0.02669,-1.785302 0.207616,-3.433059 1.852783,-6.766734 4.395067,-8.905921 1.694847,-1.426116 3.644876,-2.18203 5.630226,-2.182513 2.104993,-5.13e-4 4.146339,0.505718 5.84349,1.44912 2.030325,1.128604 3.610883,2.787619 4.65956,4.89085 0.656664,1.317008 1.069454,2.778643 1.18623,4.200278 0.01034,0.125921 0.0228,0.276716 0.02767,0.335101 0.01622,0.194193 0.01042,1.158206 -0.0085,1.408411 -0.09432,1.249029 -0.379253,2.419759 -0.849744,3.491426 l -0.07152,0.162904 -0.07673,0 c -0.0422,0 -0.07674,-0.0032 -0.07674,-0.0071 0,-0.0039 0.03252,-0.07719 0.07227,-0.162904 0.293859,-0.633697 0.516493,-1.254448 0.621207,-1.732057 0.159213,-0.726184 0.228133,-1.483593 0.229161,-2.518405 0.0011,-1.088984 -0.08422,-1.990438 -0.253513,-2.678985 -0.168235,-0.684243 -0.542764,-1.616962 -0.997928,-2.485218 -0.975296,-1.860438 -2.359572,-3.392526 -4.016086,-4.444921 -1.345617,-0.854879 -2.833078,-1.403966 -4.504755,-1.662903 -0.697046,-0.107969 -1.549998,-0.150164 -2.147753,-0.106245 -2.37067,0.174177 -4.594237,1.308213 -6.356543,3.241884 -1.662352,1.823997 -2.745596,4.226963 -3.056533,6.780323 -0.08839,0.725882 -0.118745,1.758156 -0.07171,2.439155 0.086,1.245301 0.320234,2.214792 0.781838,3.236063 l 0.04577,0.101265 -0.07883,0 -0.07883,0 -0.06907,-0.13738 0,0 z"
       style="fill:#000000;fill-opacity:1;stroke:none" />
    <path
       inkscape:connector-curvature="0"
       id="path3033"
       d="m 43.851011,43.227515 c -0.169025,-0.06544 -1.043175,-0.270655 -1.836582,-0.431154 -0.714043,-0.144443 -0.935954,-0.20119 -1.293676,-0.330816 -2.262056,-0.819692 -5.003902,-3.300152 -6.37132,-5.76393 -0.09168,-0.165191 -0.180407,-0.336452 -0.180407,-0.348233 0,-0.0036 0.036,-0.0065 0.08,-0.0065 l 0.08,0 0.117144,0.227267 c 0.509597,0.98865 1.271043,1.973417 2.352377,3.042298 1.695809,1.676279 2.854127,2.407951 4.680392,2.95645 0.745636,0.223944 2.084395,0.538433 2.3723,0.557278 0.07517,0.0049 0.130187,-1.26e-4 0.224154,-0.02056 0.828058,-0.180101 3.406724,-1.111981 4.687603,-1.694009 1.327658,-0.603284 2.553755,-1.495675 3.509693,-2.554461 0.633468,-0.701621 1.2123,-1.543386 1.609975,-2.341299 l 0.08931,-0.179187 0.07962,0.0042 c 0.04379,0.0023 0.07962,0.0083 0.07962,0.0133 0,0.01923 -0.281694,0.564668 -0.389721,0.754613 -1.051434,1.848761 -2.691657,3.337141 -4.756882,4.316514 -0.348487,0.165259 -0.523591,0.239766 -1.123492,0.478049 -1.893677,0.752175 -3.627156,1.354597 -3.885029,1.350134 -0.02757,-4.77e-4 -0.08385,-0.01393 -0.125081,-0.02989 z"
       style="fill:#000000;fill-opacity:1;stroke:none" />
    <path
       inkscape:connector-curvature="0"
       id="path3041"
       d="M 99.651919,70.743645 C 99.049675,70.28742 97.884298,69.546599 94.085239,67.204954 88.550998,63.793786 87.785068,63.31524 84.823941,61.418583 80.577718,58.698799 78.987478,57.641917 63.672855,47.361451 57.744915,43.382118 52.670933,39.982873 52.397339,39.807574 l -0.497443,-0.318727 0.358196,-0.367796 c 0.605452,-0.621677 1.172736,-1.384547 1.552465,-2.087718 l 0.16796,-0.311024 0.162582,0.154487 c 0.225631,0.214398 0.50311,0.440697 0.815031,0.6647 0.145751,0.104669 0.399353,0.295047 0.56356,0.423062 3.195952,2.491543 35.880551,23.91745 43.455155,28.486386 1.028345,0.620285 1.207155,0.707578 2.216825,1.082182 l 0.74656,0.276989 -0.41392,0.423504 c -0.80047,0.819015 -1.25061,1.501316 -1.681017,2.547995 l -0.03355,0.08159 -0.157821,-0.119558 0,0 z"
       style="fill:#cc0000;fill-opacity:1;stroke:none" />
    <path
       inkscape:connector-curvature="0"
       id="path3043"
       d="m 37.281679,96.455691 c -0.16438,-0.04961 -0.907614,-0.115664 -1.651633,-0.146788 l -1.352761,-0.05659 0.183161,-0.659142 c 0.329396,-1.185402 0.89891,-5.529215 1.875866,-14.307653 1.012097,-9.094192 2.11626,-17.910369 3.343893,-26.699273 0.937831,-6.714139 1.288651,-9.470129 1.392463,-10.938979 l 0.06902,-0.976563 0.311539,0.06488 c 0.171347,0.03569 0.798106,0.177374 1.392799,0.314862 l 1.081261,0.24998 -0.06318,0.313016 c -0.254328,1.259952 -0.489042,3.238565 -2.099364,17.697431 -1.141756,10.251676 -3.962844,34.208379 -4.107084,34.877392 -0.07386,0.342586 -0.08967,0.353829 -0.375976,0.267424 z"
       style="fill:#cc0000;fill-opacity:1;stroke:none" />
    <path
       inkscape:connector-curvature="0"
       id="path3045"
       d="m 45.068967,104.18247 c -0.03653,-0.0365 -0.06642,-0.19112 -0.06642,-0.34354 0,-0.45527 -0.469654,-1.79019 -0.851282,-2.41965 -0.413026,-0.68123 -0.4214,-0.66844 0.599556,-0.91615 1.547843,-0.37556 7.376,-2.671127 21.222611,-8.35907 11.050084,-4.539181 14.957705,-6.130526 21.767878,-8.864784 6.463491,-2.595066 10.116492,-4.110848 11.093093,-4.602984 0.265716,-0.133902 0.494473,-0.229236 0.508349,-0.211854 0.01387,0.01738 0.122286,0.457497 0.240913,0.978033 0.118627,0.520537 0.328401,1.189329 0.466161,1.486205 0.13777,0.296876 0.21543,0.571869 0.17259,0.611094 -0.0429,0.03923 -3.148814,1.314839 -6.902154,2.834698 -11.522392,4.66582 -21.267487,8.683436 -39.170422,16.148812 -4.913971,2.04908 -8.952485,3.72561 -8.974476,3.72561 -0.02199,0 -0.06987,-0.0299 -0.106401,-0.0664 z"
       style="fill:#cc0000;fill-opacity:1;stroke:none" />
    <path
       transform="translate(21.978814,-12.398305)"
       d="m 30.285742,43.936005 a 8.2688046,8.3684292 0 1 1 -16.537609,0 8.2688046,8.3684292 0 1 1 16.537609,0 z"
       sodipodi:ry="8.3684292"
       sodipodi:rx="8.2688046"
       sodipodi:cy="43.936005"
       sodipodi:cx="22.016937"
       id="path3047"
       style="fill:#0000ff;fill-opacity:1;stroke:none"
       sodipodi:type="arc" />
    <use
       height="133"
       width="134"
       transform="translate(-9.7213983,75.728284)"
       id="use3049"
       xlink:href="#path3047"
       y="0"
       x="0" />
    <use
       height="133"
       width="134"
       transform="translate(75.728284,-31.700212)"
       id="use3051"
       xlink:href="#use3049"
       y="0"
       x="0" />
    <path
       inkscape:connector-curvature="0"
       id="path3053"
       d="m 43.148098,99.871068 c -0.900189,-1.120166 -2.720394,-2.4106 -4.159236,-2.948692 l -1.216569,-0.454965 0.104706,-0.723429 c 0.291966,-2.017228 2.859406,-23.959601 4.082949,-34.894512 1.910237,-17.071967 1.946337,-17.328998 2.464025,-17.543971 0.230311,-0.09564 1.405027,-0.537086 2.610479,-0.980996 1.266651,-0.466445 2.763815,-1.196463 3.54713,-1.729581 l 1.355398,-0.922474 15.979205,10.669141 c 8.788562,5.868027 17.32413,11.511736 18.967929,12.541575 1.643798,1.029841 5.209343,3.256215 7.923432,4.947501 3.683712,2.295508 4.90459,3.151564 4.815907,3.376828 -0.315269,0.800799 -0.495582,2.705579 -0.448205,4.734678 0.04767,2.04163 0.0173,2.264905 -0.341203,2.507582 -0.66049,0.447113 -1.776566,0.904679 -43.412225,17.798052 -3.605941,1.463085 -7.69771,3.057256 -9.092822,3.542601 l -2.536566,0.882454 -0.644334,-0.801792 0,0 z"
       style="fill:#fae5e5;fill-opacity:1;stroke:none" />
  </g>
</svg>
