<svg xmlns="http://www.w3.org/2000/svg" width="1051" height="71" fill="none"><g clip-path="url(#a)"><path fill="#fff" fill-opacity=".36" stroke="#1C1C1F" d="M4 .5h1043c1.93 0 3.5 1.586 3.5 3.557v62.886c0 1.971-1.57 3.557-3.5 3.557H4c-1.926 0-3.5-1.586-3.5-3.557V4.057C.5 2.086 2.074.5 4 .5Z"/><path fill="#1C1C1F" d="M25 1h1v20h-1V1Zm5 0h1v10h-1V1Zm5 0h1v10h-1V1Zm5 0h1v10h-1V1Zm5 0h1v10h-1V1Zm10 0h1v10h-1V1Zm5 0h1v10h-1V1Zm5 0h1v10h-1V1Zm5 0h1v10h-1V1ZM50 1h1v15h-1V1Zm25 0h1v20h-1V1Zm5 0h1v10h-1V1Zm5 0h1v10h-1V1Zm5 0h1v10h-1V1Zm5 0h1v10h-1V1Zm10 0h1v10h-1V1Zm5 0h1v10h-1V1Zm5 0h1v10h-1V1Zm5 0h1v10h-1V1Zm-20 0h1v15h-1V1Zm25 0h1v20h-1V1Zm5 0h1v10h-1V1Zm5 0h1v10h-1V1Zm5 0h1v10h-1V1Zm5 0h1v10h-1V1Zm10 0h1v10h-1V1Zm5 0h1v10h-1V1Zm5 0h1v10h-1V1Zm5 0h1v10h-1V1Zm-20 0h1v15h-1V1Zm25 0h1v20h-1V1Zm5 0h1v10h-1V1Zm5 0h1v10h-1V1Zm5 0h1v10h-1V1Zm5 0h1v10h-1V1Zm10 0h1v10h-1V1Zm5 0h1v10h-1V1Zm5 0h1v10h-1V1Zm5 0h1v10h-1V1Zm-20 0h1v15h-1V1Zm25 0h1v20h-1V1Zm5 0h1v10h-1V1Zm5 0h1v10h-1V1Zm5 0h1v10h-1V1Zm5 0h1v10h-1V1Zm10 0h1v10h-1V1Zm5 0h1v10h-1V1Zm5 0h1v10h-1V1Zm5 0h1v10h-1V1Zm-20 0h1v15h-1V1Zm225 0h1v20h-1V1Zm5 0h1v10h-1V1Zm5 0h1v10h-1V1Zm5 0h1v10h-1V1Zm5 0h1v10h-1V1Zm10 0h1v10h-1V1Zm5 0h1v10h-1V1Zm5 0h1v10h-1V1Zm5 0h1v10h-1V1Zm-20 0h1v15h-1V1ZM375 1h1v20h-1V1Zm5 0h1v10h-1V1Zm5 0h1v10h-1V1Zm5 0h1v10h-1V1Zm5 0h1v10h-1V1Zm10 0h1v10h-1V1Zm5 0h1v10h-1V1Zm5 0h1v10h-1V1Zm5 0h1v10h-1V1Zm-20 0h1v15h-1V1Zm-75 0h1v20h-1V1Zm5 0h1v10h-1V1Zm5 0h1v10h-1V1Zm5 0h1v10h-1V1Zm5 0h1v10h-1V1Zm10 0h1v10h-1V1Zm5 0h1v10h-1V1Zm5 0h1v10h-1V1Zm5 0h1v10h-1V1Zm-20 0h1v15h-1V1Zm-75 0h1v20h-1V1Zm5 0h1v10h-1V1Zm5 0h1v10h-1V1Zm5 0h1v10h-1V1Zm5 0h1v10h-1V1Zm10 0h1v10h-1V1Zm5 0h1v10h-1V1Zm5 0h1v10h-1V1Zm5 0h1v10h-1V1Zm-20 0h1v15h-1V1Zm125 0h1v20h-1V1Zm5 0h1v10h-1V1Zm5 0h1v10h-1V1Zm5 0h1v10h-1V1Zm5 0h1v10h-1V1Zm10 0h1v10h-1V1Zm5 0h1v10h-1V1Zm5 0h1v10h-1V1Zm5 0h1v10h-1V1Zm-20 0h1v15h-1V1Zm75 0h1v20h-1V1Zm5 0h1v10h-1V1Zm5 0h1v10h-1V1Zm5 0h1v10h-1V1Zm5 0h1v10h-1V1Zm10 0h1v10h-1V1Zm5 0h1v10h-1V1Zm5 0h1v10h-1V1Zm5 0h1v10h-1V1Zm-20 0h1v15h-1V1Zm25 0h1v20h-1V1Zm5 0h1v10h-1V1Zm5 0h1v10h-1V1Zm5 0h1v10h-1V1Zm5 0h1v10h-1V1Zm10 0h1v10h-1V1Zm5 0h1v10h-1V1Zm5 0h1v10h-1V1Zm5 0h1v10h-1V1Zm-20 0h1v15h-1V1Zm25 0h1v20h-1V1Zm5 0h1v10h-1V1Zm5 0h1v10h-1V1Zm5 0h1v10h-1V1Zm5 0h1v10h-1V1Zm10 0h1v10h-1V1Zm5 0h1v10h-1V1Zm5 0h1v10h-1V1Zm5 0h1v10h-1V1Zm-20 0h1v15h-1V1Zm25 0h1v20h-1V1Zm5 0h1v10h-1V1Zm5 0h1v10h-1V1Zm5 0h1v10h-1V1Zm5 0h1v10h-1V1Zm10 0h1v10h-1V1Zm5 0h1v10h-1V1Zm5 0h1v10h-1V1Zm5 0h1v10h-1V1Zm-20 0h1v15h-1V1Zm25 0h1v20h-1V1Zm5 0h1v10h-1V1Zm5 0h1v10h-1V1Zm5 0h1v10h-1V1Zm5 0h1v10h-1V1Zm10 0h1v10h-1V1Zm5 0h1v10h-1V1Zm5 0h1v10h-1V1Zm5 0h1v10h-1V1Zm-20 0h1v15h-1V1Zm225 0h1v20h-1V1Zm50 0h1v20h-1V1Zm-45 0h1v10h-1V1Zm5 0h1v10h-1V1Zm5 0h1v10h-1V1Zm5 0h1v10h-1V1Zm10 0h1v10h-1V1Zm5 0h1v10h-1V1Zm5 0h1v10h-1V1Zm5 0h1v10h-1V1Zm-20 0h1v15h-1V1ZM875 1h1v20h-1V1Zm5 0h1v10h-1V1Zm5 0h1v10h-1V1Zm5 0h1v10h-1V1Zm5 0h1v10h-1V1Zm10 0h1v10h-1V1Zm5 0h1v10h-1V1Zm5 0h1v10h-1V1Zm5 0h1v10h-1V1Zm-20 0h1v15h-1V1Zm-75 0h1v20h-1V1Zm5 0h1v10h-1V1Zm5 0h1v10h-1V1Zm5 0h1v10h-1V1Zm5 0h1v10h-1V1Zm10 0h1v10h-1V1Zm5 0h1v10h-1V1Zm5 0h1v10h-1V1Zm5 0h1v10h-1V1Zm-20 0h1v15h-1V1Zm-75 0h1v20h-1V1Zm5 0h1v10h-1V1Zm5 0h1v10h-1V1Zm5 0h1v10h-1V1Zm5 0h1v10h-1V1Zm10 0h1v10h-1V1Zm5 0h1v10h-1V1Zm5 0h1v10h-1V1Zm5 0h1v10h-1V1Zm-20 0h1v15h-1V1Zm125 0h1v20h-1V1Zm5 0h1v10h-1V1Zm5 0h1v10h-1V1Zm5 0h1v10h-1V1Zm5 0h1v10h-1V1Zm10 0h1v10h-1V1Zm5 0h1v10h-1V1Zm5 0h1v10h-1V1Zm5 0h1v10h-1V1Zm-20 0h1v15h-1V1ZM25 70h1V50h-1v20Zm5 0h1V60h-1v10Zm5 0h1V60h-1v10Zm5 0h1V60h-1v10Zm5 0h1V60h-1v10Zm10 0h1V60h-1v10Zm5 0h1V60h-1v10Zm5 0h1V60h-1v10Zm5 0h1V60h-1v10Zm-20 0h1V55h-1v15Zm25 0h1V50h-1v20Zm5 0h1V60h-1v10Zm5 0h1V60h-1v10Zm5 0h1V60h-1v10Zm5 0h1V60h-1v10Zm10 0h1V60h-1v10Zm5 0h1V60h-1v10Zm5 0h1V60h-1v10Zm5 0h1V60h-1v10Zm-20 0h1V55h-1v15Zm25 0h1V50h-1v20Zm5 0h1V60h-1v10Zm5 0h1V60h-1v10Zm5 0h1V60h-1v10Zm5 0h1V60h-1v10Zm10 0h1V60h-1v10Zm5 0h1V60h-1v10Zm5 0h1V60h-1v10Zm5 0h1V60h-1v10Zm-20 0h1V55h-1v15Zm25 0h1V50h-1v20Zm5 0h1V60h-1v10Zm5 0h1V60h-1v10Zm5 0h1V60h-1v10Zm5 0h1V60h-1v10Zm10 0h1V60h-1v10Zm5 0h1V60h-1v10Zm5 0h1V60h-1v10Zm5 0h1V60h-1v10Zm-20 0h1V55h-1v15Zm25 0h1V50h-1v20Zm5 0h1V60h-1v10Zm5 0h1V60h-1v10Zm5 0h1V60h-1v10Zm5 0h1V60h-1v10Zm10 0h1V60h-1v10Zm5 0h1V60h-1v10Zm5 0h1V60h-1v10Zm5 0h1V60h-1v10Zm-20 0h1V55h-1v15Zm225 0h1V50h-1v20Zm5 0h1V60h-1v10Zm5 0h1V60h-1v10Zm5 0h1V60h-1v10Zm5 0h1V60h-1v10Zm10 0h1V60h-1v10Zm5 0h1V60h-1v10Zm5 0h1V60h-1v10Zm5 0h1V60h-1v10Zm-20 0h1V55h-1v15Zm-125 0h1V50h-1v20Zm5 0h1V60h-1v10Zm5 0h1V60h-1v10Zm5 0h1V60h-1v10Zm5 0h1V60h-1v10Zm10 0h1V60h-1v10Zm5 0h1V60h-1v10Zm5 0h1V60h-1v10Zm5 0h1V60h-1v10Zm-20 0h1V55h-1v15Zm-75 0h1V50h-1v20Zm5 0h1V60h-1v10Zm5 0h1V60h-1v10Zm5 0h1V60h-1v10Zm5 0h1V60h-1v10Zm10 0h1V60h-1v10Zm5 0h1V60h-1v10Zm5 0h1V60h-1v10Zm5 0h1V60h-1v10Zm-20 0h1V55h-1v15Zm-75 0h1V50h-1v20Zm5 0h1V60h-1v10Zm5 0h1V60h-1v10Zm5 0h1V60h-1v10Zm5 0h1V60h-1v10Zm10 0h1V60h-1v10Zm5 0h1V60h-1v10Zm5 0h1V60h-1v10Zm5 0h1V60h-1v10Zm-20 0h1V55h-1v15Zm125 0h1V50h-1v20Zm5 0h1V60h-1v10Zm5 0h1V60h-1v10Zm5 0h1V60h-1v10Zm5 0h1V60h-1v10Zm10 0h1V60h-1v10Zm5 0h1V60h-1v10Zm5 0h1V60h-1v10Zm5 0h1V60h-1v10Zm-20 0h1V55h-1v15Zm75 0h1V50h-1v20Zm5 0h1V60h-1v10Zm5 0h1V60h-1v10Zm5 0h1V60h-1v10Zm5 0h1V60h-1v10Zm10 0h1V60h-1v10Zm5 0h1V60h-1v10Zm5 0h1V60h-1v10Zm5 0h1V60h-1v10Zm-20 0h1V55h-1v15Zm25 0h1V50h-1v20Zm5 0h1V60h-1v10Zm5 0h1V60h-1v10Zm5 0h1V60h-1v10Zm5 0h1V60h-1v10Zm10 0h1V60h-1v10Zm5 0h1V60h-1v10Zm5 0h1V60h-1v10Zm5 0h1V60h-1v10Zm-20 0h1V55h-1v15Zm25 0h1V50h-1v20Zm5 0h1V60h-1v10Zm5 0h1V60h-1v10Zm5 0h1V60h-1v10Zm5 0h1V60h-1v10Zm10 0h1V60h-1v10Zm5 0h1V60h-1v10Zm5 0h1V60h-1v10Zm5 0h1V60h-1v10Zm-20 0h1V55h-1v15Zm25 0h1V50h-1v20Zm5 0h1V60h-1v10Zm5 0h1V60h-1v10Zm5 0h1V60h-1v10Zm5 0h1V60h-1v10Zm10 0h1V60h-1v10Zm5 0h1V60h-1v10Zm5 0h1V60h-1v10Zm5 0h1V60h-1v10Zm-20 0h1V55h-1v15Zm25 0h1V50h-1v20Zm5 0h1V60h-1v10Zm5 0h1V60h-1v10Zm5 0h1V60h-1v10Zm5 0h1V60h-1v10Zm10 0h1V60h-1v10Zm5 0h1V60h-1v10Zm5 0h1V60h-1v10Zm5 0h1V60h-1v10Zm-20 0h1V55h-1v15Zm225 0h1V50h-1v20Zm50 0h1V50h-1v20Zm-45 0h1V60h-1v10Zm5 0h1V60h-1v10Zm5 0h1V60h-1v10Zm5 0h1V60h-1v10Zm10 0h1V60h-1v10Zm5 0h1V60h-1v10Zm5 0h1V60h-1v10Zm5 0h1V60h-1v10Zm-20 0h1V55h-1v15Zm-125 0h1V50h-1v20Zm5 0h1V60h-1v10Zm5 0h1V60h-1v10Zm5 0h1V60h-1v10Zm5 0h1V60h-1v10Zm10 0h1V60h-1v10Zm5 0h1V60h-1v10Zm5 0h1V60h-1v10Zm5 0h1V60h-1v10Zm-20 0h1V55h-1v15Zm-75 0h1V50h-1v20Zm5 0h1V60h-1v10Zm5 0h1V60h-1v10Zm5 0h1V60h-1v10Zm5 0h1V60h-1v10Zm10 0h1V60h-1v10Zm5 0h1V60h-1v10Zm5 0h1V60h-1v10Zm5 0h1V60h-1v10Zm-20 0h1V55h-1v15Zm-75 0h1V50h-1v20Zm5 0h1V60h-1v10Zm5 0h1V60h-1v10Zm5 0h1V60h-1v10Zm5 0h1V60h-1v10Zm10 0h1V60h-1v10Zm5 0h1V60h-1v10Zm5 0h1V60h-1v10Zm5 0h1V60h-1v10Zm-20 0h1V55h-1v15Zm125 0h1V50h-1v20Zm5 0h1V60h-1v10Zm5 0h1V60h-1v10Zm5 0h1V60h-1v10Zm5 0h1V60h-1v10Zm10 0h1V60h-1v10Zm5 0h1V60h-1v10Zm5 0h1V60h-1v10Zm5 0h1V60h-1v10Zm-20 0h1V55h-1v15ZM28.295 34.02v1.394c0 .668-.067 1.238-.2 1.711-.128.469-.316.85-.562 1.143a2.208 2.208 0 0 1-.885.644c-.34.137-.72.205-1.142.205-.336 0-.649-.043-.938-.129a2.291 2.291 0 0 1-1.365-1.113 3.975 3.975 0 0 1-.375-1.049 6.882 6.882 0 0 1-.129-1.412V34.02c0-.671.067-1.238.2-1.699.132-.465.322-.841.568-1.13.246-.294.539-.506.879-.64a3.175 3.175 0 0 1 1.148-.198c.34 0 .652.043.938.128a2.196 2.196 0 0 1 1.359 1.096c.164.285.29.631.375 1.037.086.403.129.871.129 1.407Zm-1.412 1.593V33.81c0-.34-.02-.64-.059-.897a2.65 2.65 0 0 0-.176-.662 1.319 1.319 0 0 0-.28-.445.99.99 0 0 0-.387-.252 1.366 1.366 0 0 0-.487-.082c-.219 0-.414.043-.586.129a1.054 1.054 0 0 0-.433.398 2.176 2.176 0 0 0-.27.727 5.7 5.7 0 0 0-.088 1.084v1.804c0 .344.02.647.059.909.039.261.097.486.176.673.078.184.171.336.28.457.114.117.243.203.387.258a1.4 1.4 0 0 0 .487.082c.223 0 .42-.043.592-.129.172-.086.316-.222.433-.41a2.25 2.25 0 0 0 .264-.744 5.89 5.89 0 0 0 .088-1.096ZM76.59 30.44V39h-1.412v-6.885l-2.092.71v-1.167l3.334-1.219h.17Zm51.863 7.435V39h-5.719v-.967l2.778-3.03c.304-.343.545-.64.72-.89.176-.25.299-.474.37-.673.074-.204.111-.4.111-.592 0-.27-.051-.506-.152-.71a1.12 1.12 0 0 0-.434-.486 1.277 1.277 0 0 0-.697-.181c-.317 0-.582.068-.797.205a1.287 1.287 0 0 0-.487.568 1.953 1.953 0 0 0-.164.82h-1.412c0-.496.114-.949.34-1.359.227-.414.555-.742.985-.984.429-.246.947-.37 1.552-.37.571 0 1.055.096 1.453.288.399.191.702.463.909.814.211.352.316.768.316 1.248 0 .266-.043.53-.129.791a3.755 3.755 0 0 1-.369.785 6.682 6.682 0 0 1-.557.78 13.7 13.7 0 0 1-.709.785l-1.845 2.033h3.937Zm45.94-3.779h.843c.328 0 .6-.057.815-.17a1.11 1.11 0 0 0 .486-.469c.106-.2.158-.428.158-.685 0-.27-.049-.5-.146-.692a.988.988 0 0 0-.434-.451c-.191-.106-.435-.158-.732-.158a1.5 1.5 0 0 0-.68.152 1.147 1.147 0 0 0-.65 1.067h-1.418c0-.454.119-.856.357-1.208a2.43 2.43 0 0 1 .973-.826 3.124 3.124 0 0 1 1.394-.304c.551 0 1.032.091 1.442.275.414.18.736.45.967.809.23.359.345.804.345 1.336 0 .242-.056.488-.17.738-.113.25-.281.478-.504.685-.222.203-.5.37-.832.498a3.263 3.263 0 0 1-1.154.188h-1.06v-.785Zm0 1.101v-.773h1.06c.5 0 .926.058 1.277.176.356.117.645.279.868.486.222.203.384.436.486.697.105.262.158.54.158.832 0 .399-.072.754-.217 1.067-.14.308-.341.57-.603.785a2.691 2.691 0 0 1-.92.486c-.348.11-.727.164-1.137.164-.367 0-.719-.05-1.054-.152a2.883 2.883 0 0 1-.903-.451 2.255 2.255 0 0 1-.633-.756 2.333 2.333 0 0 1-.228-1.055h1.412c0 .254.059.479.176.674.121.191.289.342.504.451.218.11.468.164.75.164.297 0 .552-.052.767-.158a1.1 1.1 0 0 0 .492-.469c.118-.207.176-.457.176-.75 0-.332-.064-.601-.193-.808a1.14 1.14 0 0 0-.551-.457 2.138 2.138 0 0 0-.844-.153h-.843Zm54.218.762v1.125h-6.152l-.047-.85 3.68-5.765h1.131l-1.225 2.097-2.115 3.393h4.728Zm-1.066-5.49V39h-1.412v-8.531h1.412Zm46.672 4.564-1.125-.275.463-4.29h4.599v1.196h-3.427l-.235 2.092c.133-.078.317-.154.551-.229.234-.078.502-.117.803-.117.402 0 .761.067 1.078.2.32.128.592.318.814.568.223.246.393.547.51.902.117.352.176.748.176 1.19 0 .394-.059.763-.176 1.107a2.569 2.569 0 0 1-.516.908c-.23.262-.521.467-.873.615-.347.145-.759.217-1.236.217-.355 0-.697-.05-1.025-.152a2.776 2.776 0 0 1-.873-.463 2.355 2.355 0 0 1-.621-.762 2.595 2.595 0 0 1-.27-1.049h1.383c.035.278.111.514.228.71.121.19.282.337.481.439.199.101.429.152.691.152a1.4 1.4 0 0 0 .615-.123c.172-.086.315-.207.428-.363.117-.16.203-.348.258-.563.059-.215.088-.453.088-.715 0-.25-.033-.478-.1-.685a1.48 1.48 0 0 0-.287-.54 1.23 1.23 0 0 0-.474-.35 1.609 1.609 0 0 0-.663-.13c-.336 0-.593.05-.773.147a2.44 2.44 0 0 0-.492.363ZM327 30.416h.176v1.154h-.1c-.504 0-.939.078-1.306.235a2.408 2.408 0 0 0-.897.644c-.234.274-.41.594-.527.961-.114.363-.17.75-.17 1.16v1.342c0 .34.037.64.111.903.074.257.178.474.311.65.136.172.293.303.468.392.176.09.366.135.569.135.211 0 .402-.043.574-.129.172-.09.318-.213.439-.369.122-.156.213-.342.276-.556.062-.215.094-.45.094-.704a2.4 2.4 0 0 0-.094-.68 1.71 1.71 0 0 0-.264-.562 1.215 1.215 0 0 0-.439-.38 1.23 1.23 0 0 0-.598-.141c-.281 0-.537.066-.768.199-.226.133-.41.307-.55.521a1.345 1.345 0 0 0-.223.674l-.539-.175c.031-.364.111-.69.24-.98.133-.288.307-.534.522-.737a2.19 2.19 0 0 1 .744-.463 2.58 2.58 0 0 1 .937-.164c.414 0 .774.078 1.078.234.305.156.557.37.756.639.203.265.354.57.451.914.102.34.153.695.153 1.066 0 .41-.063.793-.188 1.149-.125.351-.308.66-.55.925a2.47 2.47 0 0 1-.874.621 2.866 2.866 0 0 1-1.16.223c-.457 0-.865-.088-1.224-.264a2.686 2.686 0 0 1-.908-.726 3.3 3.3 0 0 1-.563-1.067 4.158 4.158 0 0 1-.193-1.277v-.586c0-.648.082-1.26.246-1.834a4.482 4.482 0 0 1 .756-1.529 3.533 3.533 0 0 1 1.318-1.037c.535-.254 1.174-.381 1.916-.381Zm51.4.053v.773L374.99 39h-1.488l3.404-7.406h-4.418v-1.125h5.912Zm49.912 6.205c0 .531-.123.978-.369 1.342a2.313 2.313 0 0 1-1.007.826 3.552 3.552 0 0 1-1.43.275c-.531 0-1.01-.092-1.436-.275a2.322 2.322 0 0 1-1.008-.826c-.246-.364-.369-.81-.369-1.342a2.146 2.146 0 0 1 .786-1.699c.253-.211.55-.373.89-.487.344-.113.719-.17 1.125-.17.539 0 1.022.1 1.447.3.426.198.76.474 1.002.825.246.352.369.762.369 1.23Zm-1.417-.07a1.54 1.54 0 0 0-.176-.75 1.231 1.231 0 0 0-.492-.498 1.486 1.486 0 0 0-.733-.176c-.281 0-.525.058-.732.175a1.251 1.251 0 0 0-.487.498 1.59 1.59 0 0 0-.17.75c0 .29.057.54.17.75.114.207.276.366.487.475.211.11.459.164.744.164s.531-.054.738-.164c.207-.11.367-.268.481-.475.113-.21.17-.46.17-.75Zm1.224-3.891c0 .426-.113.805-.34 1.137a2.286 2.286 0 0 1-.925.785 3.106 3.106 0 0 1-1.348.281 3.16 3.16 0 0 1-1.36-.281 2.33 2.33 0 0 1-.931-.785 1.99 1.99 0 0 1-.334-1.137c0-.508.111-.936.334-1.283a2.17 2.17 0 0 1 .931-.803 3.177 3.177 0 0 1 1.354-.275c.508 0 .959.091 1.354.275.394.184.703.451.925.803.227.347.34.775.34 1.283Zm-1.412.047a1.41 1.41 0 0 0-.152-.668 1.103 1.103 0 0 0-.416-.457 1.206 1.206 0 0 0-.639-.164c-.246 0-.459.052-.639.158a1.073 1.073 0 0 0-.416.445 1.5 1.5 0 0 0-.146.686c0 .262.049.49.146.685.098.192.237.342.416.452.184.109.399.163.645.163s.459-.054.639-.163c.179-.11.318-.26.416-.452a1.52 1.52 0 0 0 .146-.685Zm47.164 5.127h.117c.539 0 .989-.07 1.348-.211.363-.145.652-.344.867-.598.215-.254.369-.553.463-.896.094-.344.141-.717.141-1.12v-1.47c0-.348-.037-.652-.112-.914a1.897 1.897 0 0 0-.304-.662 1.299 1.299 0 0 0-.452-.405 1.135 1.135 0 0 0-.544-.134c-.215 0-.409.048-.581.146-.168.094-.31.225-.427.393a1.926 1.926 0 0 0-.264.58 2.691 2.691 0 0 0-.088.703c0 .234.027.46.082.68.059.214.145.406.258.574a1.197 1.197 0 0 0 1.031.545c.219 0 .42-.041.604-.123a1.58 1.58 0 0 0 .48-.346 1.68 1.68 0 0 0 .322-.486c.079-.18.122-.364.129-.551l.539.164c0 .297-.062.59-.187.879a2.733 2.733 0 0 1-.51.785 2.5 2.5 0 0 1-.756.562 2.07 2.07 0 0 1-.931.211c-.407 0-.766-.076-1.078-.228a2.259 2.259 0 0 1-.774-.633 2.801 2.801 0 0 1-.457-.914 3.826 3.826 0 0 1-.152-1.084c0-.41.062-.795.187-1.154.125-.36.307-.676.545-.95.238-.277.528-.492.867-.644a2.791 2.791 0 0 1 1.166-.234c.461 0 .866.09 1.213.27.348.179.641.427.879.743.238.317.418.684.539 1.102.121.418.182.867.182 1.348v.498c0 .503-.045.99-.135 1.459-.09.464-.236.896-.439 1.294a3.63 3.63 0 0 1-.791 1.043c-.325.297-.723.53-1.196.698-.468.164-1.019.246-1.652.246h-.129v-1.166Zm49.309-7.447V39h-1.412v-6.885l-2.092.71v-1.167l3.334-1.219h.17Zm8.525 3.58v1.394c0 .668-.066 1.238-.199 1.711-.129.469-.317.85-.563 1.143a2.21 2.21 0 0 1-.884.644 3.04 3.04 0 0 1-1.143.205 3.27 3.27 0 0 1-.937-.129 2.291 2.291 0 0 1-1.366-1.113 3.983 3.983 0 0 1-.375-1.049 6.874 6.874 0 0 1-.129-1.412V34.02c0-.671.067-1.238.2-1.699.132-.465.322-.841.568-1.13.246-.294.539-.506.879-.64a3.18 3.18 0 0 1 1.148-.198c.34 0 .653.043.938.128.289.082.547.213.773.393.231.18.426.414.586.703.164.285.289.631.375 1.037.086.403.129.871.129 1.407Zm-1.412 1.593V33.81c0-.34-.02-.64-.059-.897a2.66 2.66 0 0 0-.175-.662 1.322 1.322 0 0 0-.282-.445.99.99 0 0 0-.386-.252 1.37 1.37 0 0 0-.487-.082c-.218 0-.414.043-.586.129a1.05 1.05 0 0 0-.433.398 2.19 2.19 0 0 0-.27.727 5.749 5.749 0 0 0-.088 1.084v1.804c0 .344.02.647.059.909.039.261.098.486.176.673.078.184.172.336.281.457.113.117.242.203.387.258.148.055.31.082.486.082.223 0 .42-.043.592-.129.172-.086.316-.222.433-.41.118-.191.205-.44.264-.744a5.86 5.86 0 0 0 .088-1.096Zm42.887-5.173V39h-1.412v-6.885l-2.092.71v-1.167l3.334-1.219h.17Zm6.82 0V39h-1.412v-6.885l-2.092.71v-1.167l3.334-1.219h.17Zm43.18 0V39h-1.412v-6.885l-2.092.71v-1.167l3.334-1.219h.17Zm8.683 7.435V39h-5.718v-.967l2.777-3.03c.305-.343.545-.64.721-.89.175-.25.298-.474.369-.673.074-.204.111-.4.111-.592 0-.27-.051-.506-.152-.71a1.114 1.114 0 0 0-.434-.486 1.277 1.277 0 0 0-.697-.181c-.317 0-.582.068-.797.205a1.278 1.278 0 0 0-.486.568c-.11.238-.164.512-.164.82h-1.413c0-.496.114-.949.34-1.359.227-.414.555-.742.985-.984.429-.246.947-.37 1.552-.37.571 0 1.055.096 1.454.288.398.191.701.463.908.814.211.352.316.768.316 1.248 0 .266-.043.53-.129.791a3.755 3.755 0 0 1-.369.785 6.682 6.682 0 0 1-.557.78c-.214.258-.451.52-.709.785l-1.845 2.033h3.937Zm41.317-7.435V39h-1.412v-6.885l-2.092.71v-1.167l3.334-1.219h.17Zm4.623 3.656h.843c.329 0 .6-.057.815-.17a1.11 1.11 0 0 0 .486-.469c.106-.2.158-.428.158-.685 0-.27-.048-.5-.146-.692a.988.988 0 0 0-.434-.451c-.191-.106-.435-.158-.732-.158a1.5 1.5 0 0 0-.68.152 1.147 1.147 0 0 0-.65 1.067h-1.418c0-.454.119-.856.357-1.208.239-.351.563-.627.973-.826a3.125 3.125 0 0 1 1.395-.304c.55 0 1.031.091 1.441.275.414.18.736.45.967.809.23.359.345.804.345 1.336 0 .242-.056.488-.169.738-.114.25-.282.478-.504.685-.223.203-.5.37-.832.498a3.268 3.268 0 0 1-1.155.188h-1.06v-.785Zm0 1.101v-.773h1.06c.5 0 .926.058 1.278.176.355.117.644.279.867.486.222.203.385.436.486.697.106.262.158.54.158.832 0 .399-.072.754-.216 1.067-.141.308-.342.57-.604.785a2.691 2.691 0 0 1-.92.486 3.77 3.77 0 0 1-1.137.164 3.62 3.62 0 0 1-1.054-.152 2.883 2.883 0 0 1-.903-.451 2.24 2.24 0 0 1-.632-.756 2.32 2.32 0 0 1-.229-1.055h1.412c0 .254.059.479.176.674.121.191.289.342.504.451.219.11.469.164.75.164.297 0 .553-.052.767-.158.215-.106.379-.262.493-.469.117-.207.175-.457.175-.75 0-.332-.064-.601-.193-.808a1.135 1.135 0 0 0-.551-.457 2.138 2.138 0 0 0-.844-.153h-.843Zm45.377-4.757V39h-1.412v-6.885l-2.092.71v-1.167l3.334-1.219h.17Zm8.841 5.519v1.125h-6.152l-.047-.85 3.68-5.765h1.131l-1.225 2.097-2.115 3.393h4.728Zm-1.066-5.49V39h-1.412v-8.531h1.412Zm42.225-.029V39h-1.412v-6.885l-2.092.71v-1.167l3.334-1.219h.17Zm4.447 4.593-1.125-.275.463-4.29h4.599v1.196h-3.427l-.235 2.092c.133-.078.317-.154.551-.229.235-.078.502-.117.803-.117.402 0 .762.067 1.078.2.32.128.592.318.814.568.223.246.393.547.51.902.117.352.176.748.176 1.19 0 .394-.059.763-.176 1.107a2.582 2.582 0 0 1-.515.908 2.38 2.38 0 0 1-.873.615c-.348.145-.76.217-1.237.217-.355 0-.697-.05-1.025-.152a2.798 2.798 0 0 1-.873-.463 2.355 2.355 0 0 1-.621-.762 2.61 2.61 0 0 1-.27-1.049h1.383c.035.278.111.514.228.71.122.19.282.337.481.439.199.101.43.152.691.152.239 0 .444-.04.616-.123.171-.086.314-.207.427-.363.118-.16.203-.348.258-.563.059-.215.088-.453.088-.715 0-.25-.033-.478-.1-.685a1.48 1.48 0 0 0-.287-.54 1.23 1.23 0 0 0-.474-.35 1.604 1.604 0 0 0-.662-.13c-.336 0-.594.05-.774.147a2.44 2.44 0 0 0-.492.363Zm45.553-4.593V39h-1.412v-6.885l-2.092.71v-1.167l3.334-1.219h.17Zm7.23-.024h.176v1.154h-.1c-.504 0-.939.078-1.306.235a2.416 2.416 0 0 0-.897.644c-.234.274-.41.594-.527.961-.113.363-.17.75-.17 1.16v1.342c0 .34.037.64.111.903.074.257.178.474.311.65.137.172.293.303.469.392.175.09.365.135.568.135.211 0 .402-.043.574-.129a1.33 1.33 0 0 0 .44-.369c.121-.156.212-.342.275-.556.062-.215.094-.45.094-.704a2.4 2.4 0 0 0-.094-.68 1.691 1.691 0 0 0-.264-.562 1.207 1.207 0 0 0-.439-.38 1.23 1.23 0 0 0-.598-.141c-.281 0-.537.066-.767.199a1.63 1.63 0 0 0-.551.521 1.345 1.345 0 0 0-.223.674l-.539-.175c.031-.364.111-.69.24-.98.133-.288.307-.534.522-.737a2.19 2.19 0 0 1 .744-.463c.285-.11.598-.164.937-.164.415 0 .774.078 1.079.234.304.156.556.37.755.639.204.265.354.57.452.914.101.34.152.695.152 1.066 0 .41-.063.793-.188 1.149-.125.351-.308.66-.55.925-.239.266-.53.473-.873.621-.34.149-.727.223-1.161.223-.457 0-.865-.088-1.224-.264a2.686 2.686 0 0 1-.908-.726 3.319 3.319 0 0 1-.563-1.067 4.158 4.158 0 0 1-.193-1.277v-.586c0-.648.082-1.26.246-1.834a4.482 4.482 0 0 1 .756-1.529 3.541 3.541 0 0 1 1.318-1.037c.535-.254 1.174-.381 1.916-.381Zm42.77.024V39h-1.412v-6.885l-2.092.71v-1.167l3.334-1.219h.17Zm8.631.029v.773L878.4 39h-1.488l3.404-7.406h-4.418v-1.125h5.913Zm41.369-.029V39h-1.412v-6.885l-2.092.71v-1.167l3.334-1.219h.17Zm8.543 6.234c0 .531-.123.978-.369 1.342a2.322 2.322 0 0 1-1.008.826 3.552 3.552 0 0 1-1.43.275c-.531 0-1.01-.092-1.436-.275a2.313 2.313 0 0 1-1.007-.826c-.246-.364-.369-.81-.369-1.342a2.14 2.14 0 0 1 .785-1.7c.254-.21.55-.372.89-.486.344-.113.719-.17 1.125-.17.539 0 1.022.1 1.448.3.425.198.759.474 1.002.825.246.352.369.762.369 1.23Zm-1.418-.07a1.54 1.54 0 0 0-.176-.75 1.231 1.231 0 0 0-.492-.498 1.484 1.484 0 0 0-.733-.176c-.281 0-.525.058-.732.175a1.242 1.242 0 0 0-.486.498c-.114.215-.17.465-.17.75 0 .29.056.54.17.75.113.207.275.366.486.475.211.11.459.164.744.164s.531-.054.738-.164c.207-.11.367-.268.481-.475.113-.21.17-.46.17-.75Zm1.224-3.891c0 .426-.113.805-.34 1.137a2.286 2.286 0 0 1-.925.785 3.106 3.106 0 0 1-1.348.281 3.16 3.16 0 0 1-1.359-.281 2.334 2.334 0 0 1-.932-.785 1.99 1.99 0 0 1-.334-1.137c0-.508.111-.936.334-1.283.227-.352.537-.62.932-.803a3.169 3.169 0 0 1 1.353-.275c.508 0 .959.091 1.354.275.394.184.703.451.925.803.227.347.34.775.34 1.283Zm-1.412.047a1.41 1.41 0 0 0-.152-.668 1.096 1.096 0 0 0-.416-.457 1.206 1.206 0 0 0-.639-.164c-.246 0-.459.052-.639.158a1.073 1.073 0 0 0-.416.445 1.5 1.5 0 0 0-.146.686c0 .262.049.49.146.685.098.192.237.342.416.452.184.109.399.163.645.163s.459-.054.639-.163c.179-.11.318-.26.416-.452a1.52 1.52 0 0 0 .146-.685Zm43.063-2.32V39h-1.412v-6.885l-2.092.71v-1.167l3.334-1.219h.17Zm4.101 7.447h.117c.54 0 .989-.07 1.348-.211.363-.145.652-.344.867-.598.215-.254.369-.553.463-.896.094-.344.141-.717.141-1.12v-1.47c0-.348-.037-.652-.112-.914a1.88 1.88 0 0 0-.304-.662 1.305 1.305 0 0 0-.451-.405 1.14 1.14 0 0 0-.545-.134 1.15 1.15 0 0 0-.58.146 1.279 1.279 0 0 0-.428.393 1.95 1.95 0 0 0-.264.58 2.826 2.826 0 0 0-.006 1.383c.059.214.145.406.258.574a1.197 1.197 0 0 0 1.031.545c.219 0 .42-.041.604-.123.184-.086.344-.202.48-.346.137-.145.245-.307.323-.486.078-.18.121-.364.129-.551l.539.164c0 .297-.063.59-.188.879a2.733 2.733 0 0 1-.51.785 2.484 2.484 0 0 1-.755.562 2.076 2.076 0 0 1-.932.211c-.406 0-.766-.076-1.078-.228a2.259 2.259 0 0 1-.774-.633 2.801 2.801 0 0 1-.457-.914 3.826 3.826 0 0 1-.152-1.084c0-.41.062-.795.187-1.154.125-.36.307-.676.545-.95.239-.277.528-.492.868-.644a2.785 2.785 0 0 1 1.166-.234c.46 0 .865.09 1.212.27.348.179.641.427.879.743.239.317.418.684.539 1.102.121.418.182.867.182 1.348v.498c0 .503-.045.99-.135 1.459-.09.464-.236.896-.439 1.294a3.613 3.613 0 0 1-.791 1.043c-.324.297-.723.53-1.196.698-.468.164-1.019.246-1.652.246h-.129v-1.166Zm47.759-.012V39h-5.72v-.967l2.78-3.03c.31-.343.55-.64.72-.89.18-.25.3-.474.37-.673.08-.204.11-.4.11-.592 0-.27-.05-.506-.15-.71a1.13 1.13 0 0 0-.43-.486 1.292 1.292 0 0 0-.7-.181c-.32 0-.58.068-.8.205-.21.137-.37.326-.48.568-.11.238-.17.512-.17.82h-1.41c0-.496.11-.949.34-1.359.23-.414.55-.742.98-.984.43-.246.95-.37 1.56-.37.57 0 1.05.096 1.45.288.4.191.7.463.91.814.21.352.31.768.31 1.248 0 .266-.04.53-.12.791-.09.262-.21.524-.37.785-.16.258-.34.518-.56.78-.21.258-.45.52-.71.785l-1.84 2.033h3.93Zm6.67-3.855v1.394c0 .668-.07 1.238-.2 1.711-.13.469-.32.85-.57 1.143-.24.292-.54.507-.88.644-.34.137-.72.205-1.14.205-.34 0-.65-.043-.94-.129a2.22 2.22 0 0 1-.77-.404c-.24-.184-.43-.42-.6-.709a3.984 3.984 0 0 1-.37-1.049 6.601 6.601 0 0 1-.13-1.412V34.02c0-.671.07-1.238.2-1.699.13-.465.32-.841.57-1.13.24-.294.54-.506.88-.64.34-.132.72-.198 1.14-.198.34 0 .66.043.94.128.29.082.55.213.78.393.23.18.42.414.58.703.17.285.29.631.38 1.037.08.403.13.871.13 1.407Zm-1.42 1.593V33.81c0-.34-.02-.64-.06-.897a2.264 2.264 0 0 0-.17-.662 1.474 1.474 0 0 0-.28-.445 1.01 1.01 0 0 0-.39-.252 1.367 1.367 0 0 0-.49-.082c-.21 0-.41.043-.58.129-.17.082-.32.214-.44.398-.11.184-.2.426-.26.727a5.57 5.57 0 0 0-.09 1.084v1.804c0 .344.02.647.06.909.03.261.09.486.17.673.08.184.17.336.28.457.12.117.25.203.39.258.15.055.31.082.49.082.22 0 .42-.043.59-.129.17-.086.31-.222.43-.41a2.2 2.2 0 0 0 .27-.744c.05-.305.08-.67.08-1.096Z"/></g><defs><clipPath id="a"><path fill="#fff" d="M0 0h1051v71H0z"/></clipPath></defs></svg>