<?xml version="1.0" encoding="UTF-8"?>
<svg width = "1472" height = "72" viewBox="0 0 879.24 43.02" xmlns="http://www.w3.org/2000/svg">
    <defs>
        <style>.cls-1{isolation:isolate;font-size:7px;fill:#757575;font-family:Roboto-Regular,Roboto}.cls-2{fill:none;stroke:#757575;stroke-miterlimit:10;stroke-width:.5px}</style>
    </defs>
    <text class="cls-1" transform="translate(11.88 24.04)">0</text>
    <text class="cls-1" transform="translate(40.23 24.04)">1</text>
    <text class="cls-1" transform="translate(68.59 24.04)">2</text>
    <text class="cls-1" transform="translate(96.92 24.04)">3</text>
    <text class="cls-1" transform="translate(125.29 24.04)">4</text>
    <text class="cls-1" transform="translate(153.62 24.04)">5</text>
    <text class="cls-1" transform="translate(181.95 24.04)">6</text>
    <text class="cls-1" transform="translate(210.3 24.04)">7</text>
    <text class="cls-1" transform="translate(238.67 24.04)">8</text>
    <text class="cls-1" transform="translate(266.99 24.04)">9</text>
    <text class="cls-1" transform="translate(293.4 24.04)">10</text>
    <text class="cls-1" transform="translate(321.74 24.04)">11</text>
    <text class="cls-1" transform="translate(350.07 24.04)">12</text>
    <text class="cls-1" transform="translate(378.42 24.04)">13</text>
    <text class="cls-1" transform="translate(406.79 24.04)">14</text>
    <text class="cls-1" transform="translate(435.12 24.04)">15</text>
    <text class="cls-1" transform="translate(463.49 24.04)">16</text>
    <text class="cls-1" transform="translate(491.81 24.04)">17</text>
    <text class="cls-1" transform="translate(520.17 24.04)">18</text>
    <text class="cls-1" transform="translate(548.51 24.04)">19</text>
    <text class="cls-1" transform="translate(576.86 24.04)">20</text>
    <text class="cls-1" transform="translate(605.21 24.04)">21</text>
    <text class="cls-1" transform="translate(633.55 24.04)">22</text>
    <text class="cls-1" transform="translate(661.88 24.04)">23</text>
    <text class="cls-1" transform="translate(690.24 24.04)">24</text>
    <text class="cls-1" transform="translate(718.58 24.04)">25</text>
    <text class="cls-1" transform="translate(746.92 24.04)">26</text>
    <text class="cls-1" transform="translate(775.28 24.04)">27</text>
    <text class="cls-1" transform="translate(803.61 24.04)">28</text>
    <text class="cls-1" transform="translate(831.95 24.04)">29</text>
    <text class="cls-1" transform="translate(860.31 24.04)">30</text>
    <path class="cls-2" d="M13.85.41v11.34"/>
    <path class="cls-2" d="M42.2.41v11.34"/>
    <path class="cls-2" d="M70.54.41v11.34"/>
    <path class="cls-2" d="M98.89.41v11.34"/>
    <path class="cls-2" d="M127.24.41v11.34"/>
    <path class="cls-2" d="M155.58.41v11.34"/>
    <path class="cls-2" d="M183.93.41v11.34"/>
    <path class="cls-2" d="M212.28.41v11.34"/>
    <path class="cls-2" d="M240.62.41v11.34"/>
    <path class="cls-2" d="M268.97.41v11.34"/>
    <path class="cls-2" d="M297.32.41v11.34"/>
    <path class="cls-2" d="M325.66.41v11.34"/>
    <path class="cls-2" d="M354.01.41v11.34"/>
    <path class="cls-2" d="M382.35.41v11.34"/>
    <path class="cls-2" d="M410.7.41v11.34"/>
    <path class="cls-2" d="M439.05.41v11.34"/>
    <path class="cls-2" d="M467.39.41v11.34"/>
    <path class="cls-2" d="M495.74.41v11.34"/>
    <path class="cls-2" d="M524.09.41v11.34"/>
    <path class="cls-2" d="M552.43.41v11.34"/>
    <path class="cls-2" d="M580.78.25v11.34"/>
    <path class="cls-2" d="M609.13.25v11.34"/>
    <path class="cls-2" d="M637.47.25v11.34"/>
    <path class="cls-2" d="M665.82.25v11.34"/>
    <path class="cls-2" d="M694.17.25v11.34"/>
    <path class="cls-2" d="M722.51.25v11.34"/>
    <path class="cls-2" d="M750.86.25v11.34"/>
    <path class="cls-2" d="M779.21.25v11.34"/>
    <path class="cls-2" d="M807.55.25v11.34"/>
    <path class="cls-2" d="M835.9.25v11.34"/>
    <path class="cls-2" d="M864.24.25v11.34"/>
    <path class="cls-2" d="M28.02.25v8.5"/>
    <path class="cls-2" d="M56.37.25v8.5"/>
    <path class="cls-2" d="M84.72.25v8.5"/>
    <path class="cls-2" d="M113.06.25v8.5"/>
    <path class="cls-2" d="M141.41.25v8.5"/>
    <path class="cls-2" d="M169.76.25v8.5"/>
    <path class="cls-2" d="M198.1.25v8.5"/>
    <path class="cls-2" d="M226.45.25v8.5"/>
    <path class="cls-2" d="M254.8.25v8.5"/>
    <path class="cls-2" d="M283.14.25v8.5"/>
    <path class="cls-2" d="M311.49.25v8.5"/>
    <path class="cls-2" d="M339.84.25v8.5"/>
    <path class="cls-2" d="M368.18.25v8.5"/>
    <path class="cls-2" d="M396.53.25v8.5"/>
    <path class="cls-2" d="M424.87.25v8.5"/>
    <path class="cls-2" d="M453.22.25v8.5"/>
    <path class="cls-2" d="M481.57.25v8.5"/>
    <path class="cls-2" d="M509.91.25v8.5"/>
    <path class="cls-2" d="M538.26.25v8.5"/>
    <path class="cls-2" d="M566.61.25v8.5"/>
    <path class="cls-2" d="M594.95.25v8.5"/>
    <path class="cls-2" d="M623.3.25v8.5"/>
    <path class="cls-2" d="M651.65.25v8.5"/>
    <path class="cls-2" d="M679.99.25v8.5"/>
    <path class="cls-2" d="M708.34.25v8.5"/>
    <path class="cls-2" d="M736.69.25v8.5"/>
    <path class="cls-2" d="M765.03.25v8.5"/>
    <path class="cls-2" d="M793.38.25v8.5"/>
    <path class="cls-2" d="M821.72.25v8.5"/>
    <path class="cls-2" d="M850.07.25v8.5"/>
    <path class="cls-2" d="M16.69.25v5.67"/>
    <path class="cls-2" d="M19.52.25v5.67"/>
    <path class="cls-2" d="M22.35.25v5.67"/>
    <path class="cls-2" d="M25.19.25v5.67"/>
    <path class="cls-2" d="M30.86.25v5.67"/>
    <path class="cls-2" d="M33.69.25v5.67"/>
    <path class="cls-2" d="M36.53.25v5.67"/>
    <path class="cls-2" d="M39.36.25v5.67"/>
    <path class="cls-2" d="M45.03.25v5.67"/>
    <path class="cls-2" d="M47.87.25v5.67"/>
    <path class="cls-2" d="M50.7.25v5.67"/>
    <path class="cls-2" d="M53.54.25v5.67"/>
    <path class="cls-2" d="M59.21.25v5.67"/>
    <path class="cls-2" d="M62.04.25v5.67"/>
    <path class="cls-2" d="M64.87.25v5.67"/>
    <path class="cls-2" d="M67.71.25v5.67"/>
    <path class="cls-2" d="M73.38.25v5.67"/>
    <path class="cls-2" d="M76.21.25v5.67"/>
    <path class="cls-2" d="M79.05.25v5.67"/>
    <path class="cls-2" d="M81.88.25v5.67"/>
    <path class="cls-2" d="M87.55.25v5.67"/>
    <path class="cls-2" d="M90.39.25v5.67"/>
    <path class="cls-2" d="M93.22.25v5.67"/>
    <path class="cls-2" d="M96.06.25v5.67"/>
    <path class="cls-2" d="M101.72.25v5.67"/>
    <path class="cls-2" d="M104.56.25v5.67"/>
    <path class="cls-2" d="M107.39.25v5.67"/>
    <path class="cls-2" d="M110.23.25v5.67"/>
    <path class="cls-2" d="M115.9.25v5.67"/>
    <path class="cls-2" d="M118.73.25v5.67"/>
    <path class="cls-2" d="M121.57.25v5.67"/>
    <path class="cls-2" d="M124.4.25v5.67"/>
    <path class="cls-2" d="M130.07.25v5.67"/>
    <path class="cls-2" d="M132.91.25v5.67"/>
    <path class="cls-2" d="M135.74.25v5.67"/>
    <path class="cls-2" d="M138.58.25v5.67"/>
    <path class="cls-2" d="M144.24.25v5.67"/>
    <path class="cls-2" d="M147.08.25v5.67"/>
    <path class="cls-2" d="M149.91.25v5.67"/>
    <path class="cls-2" d="M152.75.25v5.67"/>
    <path class="cls-2" d="M158.42.25v5.67"/>
    <path class="cls-2" d="M161.25.25v5.67"/>
    <path class="cls-2" d="M164.09.25v5.67"/>
    <path class="cls-2" d="M166.92.25v5.67"/>
    <path class="cls-2" d="M172.59.25v5.67"/>
    <path class="cls-2" d="M175.43.25v5.67"/>
    <path class="cls-2" d="M178.26.25v5.67"/>
    <path class="cls-2" d="M181.1.25v5.67"/>
    <path class="cls-2" d="M186.76.25v5.67"/>
    <path class="cls-2" d="M189.6.25v5.67"/>
    <path class="cls-2" d="M192.43.25v5.67"/>
    <path class="cls-2" d="M195.27.25v5.67"/>
    <path class="cls-2" d="M200.94.25v5.67"/>
    <path class="cls-2" d="M203.77.25v5.67"/>
    <path class="cls-2" d="M206.61.25v5.67"/>
    <path class="cls-2" d="M209.44.25v5.67"/>
    <path class="cls-2" d="M215.11.25v5.67"/>
    <path class="cls-2" d="M217.95.25v5.67"/>
    <path class="cls-2" d="M220.78.25v5.67"/>
    <path class="cls-2" d="M223.61.25v5.67"/>
    <path class="cls-2" d="M229.28.25v5.67"/>
    <path class="cls-2" d="M232.12.25v5.67"/>
    <path class="cls-2" d="M234.95.25v5.67"/>
    <path class="cls-2" d="M237.79.25v5.67"/>
    <path class="cls-2" d="M243.46.25v5.67"/>
    <path class="cls-2" d="M246.29.25v5.67"/>
    <path class="cls-2" d="M249.13.25v5.67"/>
    <path class="cls-2" d="M251.96.25v5.67"/>
    <path class="cls-2" d="M257.63.25v5.67"/>
    <path class="cls-2" d="M260.47.25v5.67"/>
    <path class="cls-2" d="M263.3.25v5.67"/>
    <path class="cls-2" d="M266.13.25v5.67"/>
    <path class="cls-2" d="M271.8.25v5.67"/>
    <path class="cls-2" d="M274.64.25v5.67"/>
    <path class="cls-2" d="M277.47.25v5.67"/>
    <path class="cls-2" d="M280.31.25v5.67"/>
    <path class="cls-2" d="M285.98.25v5.67"/>
    <path class="cls-2" d="M288.81.25v5.67"/>
    <path class="cls-2" d="M291.65.25v5.67"/>
    <path class="cls-2" d="M294.48.25v5.67"/>
    <path class="cls-2" d="M300.15.25v5.67"/>
    <path class="cls-2" d="M302.98.25v5.67"/>
    <path class="cls-2" d="M305.82.25v5.67"/>
    <path class="cls-2" d="M308.65.25v5.67"/>
    <path class="cls-2" d="M314.32.25v5.67"/>
    <path class="cls-2" d="M317.16.25v5.67"/>
    <path class="cls-2" d="M319.99.25v5.67"/>
    <path class="cls-2" d="M322.83.25v5.67"/>
    <path class="cls-2" d="M328.5.25v5.67"/>
    <path class="cls-2" d="M331.33.25v5.67"/>
    <path class="cls-2" d="M334.17.25v5.67"/>
    <path class="cls-2" d="M337 .25v5.67"/>
    <path class="cls-2" d="M342.67.25v5.67"/>
    <path class="cls-2" d="M345.5.25v5.67"/>
    <path class="cls-2" d="M348.34.25v5.67"/>
    <path class="cls-2" d="M351.17.25v5.67"/>
    <path class="cls-2" d="M356.84.25v5.67"/>
    <path class="cls-2" d="M359.68.25v5.67"/>
    <path class="cls-2" d="M362.51.25v5.67"/>
    <path class="cls-2" d="M365.35.25v5.67"/>
    <path class="cls-2" d="M371.02.25v5.67"/>
    <path class="cls-2" d="M373.85.25v5.67"/>
    <path class="cls-2" d="M376.69.25v5.67"/>
    <path class="cls-2" d="M379.52.25v5.67"/>
    <path class="cls-2" d="M385.19.25v5.67"/>
    <path class="cls-2" d="M388.02.25v5.67"/>
    <path class="cls-2" d="M390.86.25v5.67"/>
    <path class="cls-2" d="M393.69.25v5.67"/>
    <path class="cls-2" d="M399.36.25v5.67"/>
    <path class="cls-2" d="M402.2.25v5.67"/>
    <path class="cls-2" d="M405.03.25v5.67"/>
    <path class="cls-2" d="M407.87.25v5.67"/>
    <path class="cls-2" d="M413.54.25v5.67"/>
    <path class="cls-2" d="M416.37.25v5.67"/>
    <path class="cls-2" d="M419.21.25v5.67"/>
    <path class="cls-2" d="M422.04.25v5.67"/>
    <path class="cls-2" d="M427.71.25v5.67"/>
    <path class="cls-2" d="M430.54.25v5.67"/>
    <path class="cls-2" d="M433.38.25v5.67"/>
    <path class="cls-2" d="M436.21.25v5.67"/>
    <path class="cls-2" d="M441.88.25v5.67"/>
    <path class="cls-2" d="M444.72.25v5.67"/>
    <path class="cls-2" d="M447.55.25v5.67"/>
    <path class="cls-2" d="M450.39.25v5.67"/>
    <path class="cls-2" d="M456.06.25v5.67"/>
    <path class="cls-2" d="M458.89.25v5.67"/>
    <path class="cls-2" d="M461.72.25v5.67"/>
    <path class="cls-2" d="M464.56.25v5.67"/>
    <path class="cls-2" d="M470.23.25v5.67"/>
    <path class="cls-2" d="M473.06.25v5.67"/>
    <path class="cls-2" d="M475.9.25v5.67"/>
    <path class="cls-2" d="M478.73.25v5.67"/>
    <path class="cls-2" d="M484.4.25v5.67"/>
    <path class="cls-2" d="M487.24.25v5.67"/>
    <path class="cls-2" d="M490.07.25v5.67"/>
    <path class="cls-2" d="M492.91.25v5.67"/>
    <path class="cls-2" d="M498.58.25v5.67"/>
    <path class="cls-2" d="M501.41.25v5.67"/>
    <path class="cls-2" d="M504.24.25v5.67"/>
    <path class="cls-2" d="M507.08.25v5.67"/>
    <path class="cls-2" d="M512.75.25v5.67"/>
    <path class="cls-2" d="M515.58.25v5.67"/>
    <path class="cls-2" d="M518.42.25v5.67"/>
    <path class="cls-2" d="M521.25.25v5.67"/>
    <path class="cls-2" d="M526.92.25v5.67"/>
    <path class="cls-2" d="M529.76.25v5.67"/>
    <path class="cls-2" d="M532.59.25v5.67"/>
    <path class="cls-2" d="M535.43.25v5.67"/>
    <path class="cls-2" d="M541.1.25v5.67"/>
    <path class="cls-2" d="M543.93.25v5.67"/>
    <path class="cls-2" d="M546.76.25v5.67"/>
    <path class="cls-2" d="M549.6.25v5.67"/>
    <path class="cls-2" d="M555.27.25v5.67"/>
    <path class="cls-2" d="M558.1.25v5.67"/>
    <path class="cls-2" d="M560.94.25v5.67"/>
    <path class="cls-2" d="M563.77.25v5.67"/>
    <path class="cls-2" d="M569.44.25v5.67"/>
    <path class="cls-2" d="M572.28.25v5.67"/>
    <path class="cls-2" d="M575.11.25v5.67"/>
    <path class="cls-2" d="M577.95.25v5.67"/>
    <path class="cls-2" d="M583.61.25v5.67"/>
    <path class="cls-2" d="M586.45.25v5.67"/>
    <path class="cls-2" d="M589.28.25v5.67"/>
    <path class="cls-2" d="M592.12.25v5.67"/>
    <path class="cls-2" d="M597.79.25v5.67"/>
    <path class="cls-2" d="M600.62.25v5.67"/>
    <path class="cls-2" d="M603.46.25v5.67"/>
    <path class="cls-2" d="M606.29.25v5.67"/>
    <path class="cls-2" d="M611.96.25v5.67"/>
    <path class="cls-2" d="M614.8.25v5.67"/>
    <path class="cls-2" d="M617.63.25v5.67"/>
    <path class="cls-2" d="M620.47.25v5.67"/>
    <path class="cls-2" d="M626.13.25v5.67"/>
    <path class="cls-2" d="M628.97.25v5.67"/>
    <path class="cls-2" d="M631.8.25v5.67"/>
    <path class="cls-2" d="M634.64.25v5.67"/>
    <path class="cls-2" d="M640.31.25v5.67"/>
    <path class="cls-2" d="M643.14.25v5.67"/>
    <path class="cls-2" d="M645.98.25v5.67"/>
    <path class="cls-2" d="M648.81.25v5.67"/>
    <path class="cls-2" d="M654.48.25v5.67"/>
    <path class="cls-2" d="M657.32.25v5.67"/>
    <path class="cls-2" d="M660.15.25v5.67"/>
    <path class="cls-2" d="M662.98.25v5.67"/>
    <path class="cls-2" d="M668.65.25v5.67"/>
    <path class="cls-2" d="M671.49.25v5.67"/>
    <path class="cls-2" d="M674.32.25v5.67"/>
    <path class="cls-2" d="M677.16.25v5.67"/>
    <path class="cls-2" d="M682.83.25v5.67"/>
    <path class="cls-2" d="M685.66.25v5.67"/>
    <path class="cls-2" d="M688.5.25v5.67"/>
    <path class="cls-2" d="M691.33.25v5.67"/>
    <path class="cls-2" d="M697 .25v5.67"/>
    <path class="cls-2" d="M699.84.25v5.67"/>
    <path class="cls-2" d="M702.67.25v5.67"/>
    <path class="cls-2" d="M705.5.25v5.67"/>
    <path class="cls-2" d="M711.17.25v5.67"/>
    <path class="cls-2" d="M714.01.25v5.67"/>
    <path class="cls-2" d="M716.84.25v5.67"/>
    <path class="cls-2" d="M719.68.25v5.67"/>
    <path class="cls-2" d="M725.35.25v5.67"/>
    <path class="cls-2" d="M728.18.25v5.67"/>
    <path class="cls-2" d="M731.02.25v5.67"/>
    <path class="cls-2" d="M733.85.25v5.67"/>
    <path class="cls-2" d="M739.52.25v5.67"/>
    <path class="cls-2" d="M742.35.25v5.67"/>
    <path class="cls-2" d="M745.19.25v5.67"/>
    <path class="cls-2" d="M748.02.25v5.67"/>
    <path class="cls-2" d="M753.69.25v5.67"/>
    <path class="cls-2" d="M756.53.25v5.67"/>
    <path class="cls-2" d="M759.36.25v5.67"/>
    <path class="cls-2" d="M762.2.25v5.67"/>
    <path class="cls-2" d="M767.87.25v5.67"/>
    <path class="cls-2" d="M770.7.25v5.67"/>
    <path class="cls-2" d="M773.54.25v5.67"/>
    <path class="cls-2" d="M776.37.25v5.67"/>
    <path class="cls-2" d="M782.04.25v5.67"/>
    <path class="cls-2" d="M784.87.25v5.67"/>
    <path class="cls-2" d="M787.71.25v5.67"/>
    <path class="cls-2" d="M790.54.25v5.67"/>
    <path class="cls-2" d="M796.21.25v5.67"/>
    <path class="cls-2" d="M799.05.25v5.67"/>
    <path class="cls-2" d="M801.88.25v5.67"/>
    <path class="cls-2" d="M804.72.25v5.67"/>
    <path class="cls-2" d="M810.39.25v5.67"/>
    <path class="cls-2" d="M813.22.25v5.67"/>
    <path class="cls-2" d="M816.06.25v5.67"/>
    <path class="cls-2" d="M818.89.25v5.67"/>
    <path class="cls-2" d="M824.56.25v5.67"/>
    <path class="cls-2" d="M827.39.25v5.67"/>
    <path class="cls-2" d="M830.23.25v5.67"/>
    <path class="cls-2" d="M833.06.25v5.67"/>
    <path class="cls-2" d="M838.73.25v5.67"/>
    <path class="cls-2" d="M841.57.25v5.67"/>
    <path class="cls-2" d="M844.4.25v5.67"/>
    <path class="cls-2" d="M847.24.25v5.67"/>
    <path class="cls-2" d="M852.91.25v5.67"/>
    <path class="cls-2" d="M855.74.25v5.67"/>
    <path class="cls-2" d="M858.58.25v5.67"/>
    <path class="cls-2" d="M861.41.25v5.67"/>
    <path class="cls-2" d="m13.85 31.43v11.34"/>
    <path class="cls-2" d="m42.2 31.43v11.34"/>
    <path class="cls-2" d="m70.54 31.43v11.34"/>
    <path class="cls-2" d="m98.89 31.43v11.34"/>
    <path class="cls-2" d="m127.24 31.43v11.34"/>
    <path class="cls-2" d="m155.58 31.43v11.34"/>
    <path class="cls-2" d="m183.93 31.43v11.34"/>
    <path class="cls-2" d="m212.28 31.43v11.34"/>
    <path class="cls-2" d="m240.62 31.43v11.34"/>
    <path class="cls-2" d="m268.97 31.43v11.34"/>
    <path class="cls-2" d="m297.32 31.43v11.34"/>
    <path class="cls-2" d="m325.66 31.43v11.34"/>
    <path class="cls-2" d="m354.01 31.43v11.34"/>
    <path class="cls-2" d="m382.35 31.43v11.34"/>
    <path class="cls-2" d="m410.7 31.43v11.34"/>
    <path class="cls-2" d="m439.05 31.43v11.34"/>
    <path class="cls-2" d="m467.39 31.43v11.34"/>
    <path class="cls-2" d="m495.74 31.43v11.34"/>
    <path class="cls-2" d="m524.09 31.43v11.34"/>
    <path class="cls-2" d="m552.43 31.43v11.34"/>
    <path class="cls-2" d="m580.78 31.43v11.34"/>
    <path class="cls-2" d="m609.13 31.43v11.34"/>
    <path class="cls-2" d="m637.47 31.43v11.34"/>
    <path class="cls-2" d="m665.82 31.43v11.34"/>
    <path class="cls-2" d="m694.17 31.43v11.34"/>
    <path class="cls-2" d="m722.51 31.43v11.34"/>
    <path class="cls-2" d="m750.86 31.43v11.34"/>
    <path class="cls-2" d="m779.21 31.43v11.34"/>
    <path class="cls-2" d="m807.55 31.43v11.34"/>
    <path class="cls-2" d="m835.9 31.43v11.34"/>
    <path class="cls-2" d="m864.24 31.43v11.34"/>
    <path class="cls-2" d="m28.02 34.27v8.5"/>
    <path class="cls-2" d="m56.37 34.27v8.5"/>
    <path class="cls-2" d="m84.72 34.27v8.5"/>
    <path class="cls-2" d="m113.06 34.27v8.5"/>
    <path class="cls-2" d="m141.41 34.27v8.5"/>
    <path class="cls-2" d="m169.76 34.27v8.5"/>
    <path class="cls-2" d="m198.1 34.27v8.5"/>
    <path class="cls-2" d="m226.45 34.27v8.5"/>
    <path class="cls-2" d="m254.8 34.27v8.5"/>
    <path class="cls-2" d="m283.14 34.27v8.5"/>
    <path class="cls-2" d="m311.49 34.27v8.5"/>
    <path class="cls-2" d="m339.84 34.27v8.5"/>
    <path class="cls-2" d="m368.18 34.27v8.5"/>
    <path class="cls-2" d="m396.53 34.27v8.5"/>
    <path class="cls-2" d="m424.87 34.27v8.5"/>
    <path class="cls-2" d="m453.22 34.27v8.5"/>
    <path class="cls-2" d="m481.57 34.27v8.5"/>
    <path class="cls-2" d="m509.91 34.27v8.5"/>
    <path class="cls-2" d="m538.26 34.27v8.5"/>
    <path class="cls-2" d="m566.61 34.27v8.5"/>
    <path class="cls-2" d="m594.95 34.27v8.5"/>
    <path class="cls-2" d="m623.3 34.27v8.5"/>
    <path class="cls-2" d="m651.65 34.27v8.5"/>
    <path class="cls-2" d="m679.99 34.27v8.5"/>
    <path class="cls-2" d="m708.34 34.27v8.5"/>
    <path class="cls-2" d="m736.69 34.27v8.5"/>
    <path class="cls-2" d="m765.03 34.27v8.5"/>
    <path class="cls-2" d="m793.38 34.27v8.5"/>
    <path class="cls-2" d="m821.72 34.27v8.5"/>
    <path class="cls-2" d="m850.07 34.27v8.5"/>
    <path class="cls-2" d="m16.69 37.1v5.67"/>
    <path class="cls-2" d="m19.52 37.1v5.67"/>
    <path class="cls-2" d="m22.35 37.1v5.67"/>
    <path class="cls-2" d="m25.19 37.1v5.67"/>
    <path class="cls-2" d="m30.86 37.1v5.67"/>
    <path class="cls-2" d="m33.69 37.1v5.67"/>
    <path class="cls-2" d="m36.53 37.1v5.67"/>
    <path class="cls-2" d="m39.36 37.1v5.67"/>
    <path class="cls-2" d="m45.03 37.1v5.67"/>
    <path class="cls-2" d="m47.87 37.1v5.67"/>
    <path class="cls-2" d="m50.7 37.1v5.67"/>
    <path class="cls-2" d="m53.54 37.1v5.67"/>
    <path class="cls-2" d="m59.21 37.1v5.67"/>
    <path class="cls-2" d="m62.04 37.1v5.67"/>
    <path class="cls-2" d="m64.87 37.1v5.67"/>
    <path class="cls-2" d="m67.71 37.1v5.67"/>
    <path class="cls-2" d="m73.38 37.1v5.67"/>
    <path class="cls-2" d="m76.21 37.1v5.67"/>
    <path class="cls-2" d="m79.05 37.1v5.67"/>
    <path class="cls-2" d="m81.88 37.1v5.67"/>
    <path class="cls-2" d="m87.55 37.1v5.67"/>
    <path class="cls-2" d="m90.39 37.1v5.67"/>
    <path class="cls-2" d="m93.22 37.1v5.67"/>
    <path class="cls-2" d="m96.06 37.1v5.67"/>
    <path class="cls-2" d="m101.72 37.1v5.67"/>
    <path class="cls-2" d="m104.56 37.1v5.67"/>
    <path class="cls-2" d="m107.39 37.1v5.67"/>
    <path class="cls-2" d="m110.23 37.1v5.67"/>
    <path class="cls-2" d="m115.9 37.1v5.67"/>
    <path class="cls-2" d="m118.73 37.1v5.67"/>
    <path class="cls-2" d="m121.57 37.1v5.67"/>
    <path class="cls-2" d="m124.4 37.1v5.67"/>
    <path class="cls-2" d="m130.07 37.1v5.67"/>
    <path class="cls-2" d="m132.91 37.1v5.67"/>
    <path class="cls-2" d="m135.74 37.1v5.67"/>
    <path class="cls-2" d="m138.58 37.1v5.67"/>
    <path class="cls-2" d="m144.24 37.1v5.67"/>
    <path class="cls-2" d="m147.08 37.1v5.67"/>
    <path class="cls-2" d="m149.91 37.1v5.67"/>
    <path class="cls-2" d="m152.75 37.1v5.67"/>
    <path class="cls-2" d="m158.42 37.1v5.67"/>
    <path class="cls-2" d="m161.25 37.1v5.67"/>
    <path class="cls-2" d="m164.09 37.1v5.67"/>
    <path class="cls-2" d="m166.92 37.1v5.67"/>
    <path class="cls-2" d="m172.59 37.1v5.67"/>
    <path class="cls-2" d="m175.43 37.1v5.67"/>
    <path class="cls-2" d="m178.26 37.1v5.67"/>
    <path class="cls-2" d="m181.1 37.1v5.67"/>
    <path class="cls-2" d="m186.76 37.1v5.67"/>
    <path class="cls-2" d="m189.6 37.1v5.67"/>
    <path class="cls-2" d="m192.43 37.1v5.67"/>
    <path class="cls-2" d="m195.27 37.1v5.67"/>
    <path class="cls-2" d="m200.94 37.1v5.67"/>
    <path class="cls-2" d="m203.77 37.1v5.67"/>
    <path class="cls-2" d="m206.61 37.1v5.67"/>
    <path class="cls-2" d="m209.44 37.1v5.67"/>
    <path class="cls-2" d="m215.11 37.1v5.67"/>
    <path class="cls-2" d="m217.95 37.1v5.67"/>
    <path class="cls-2" d="m220.78 37.1v5.67"/>
    <path class="cls-2" d="m223.61 37.1v5.67"/>
    <path class="cls-2" d="m229.28 37.1v5.67"/>
    <path class="cls-2" d="m232.12 37.1v5.67"/>
    <path class="cls-2" d="m234.95 37.1v5.67"/>
    <path class="cls-2" d="m237.79 37.1v5.67"/>
    <path class="cls-2" d="m243.46 37.1v5.67"/>
    <path class="cls-2" d="m246.29 37.1v5.67"/>
    <path class="cls-2" d="m249.13 37.1v5.67"/>
    <path class="cls-2" d="m251.96 37.1v5.67"/>
    <path class="cls-2" d="m257.63 37.1v5.67"/>
    <path class="cls-2" d="m260.47 37.1v5.67"/>
    <path class="cls-2" d="m263.3 37.1v5.67"/>
    <path class="cls-2" d="m266.13 37.1v5.67"/>
    <path class="cls-2" d="m271.8 37.1v5.67"/>
    <path class="cls-2" d="m274.64 37.1v5.67"/>
    <path class="cls-2" d="m277.47 37.1v5.67"/>
    <path class="cls-2" d="m280.31 37.1v5.67"/>
    <path class="cls-2" d="m285.98 37.1v5.67"/>
    <path class="cls-2" d="m288.81 37.1v5.67"/>
    <path class="cls-2" d="m291.65 37.1v5.67"/>
    <path class="cls-2" d="m294.48 37.1v5.67"/>
    <path class="cls-2" d="m300.15 37.1v5.67"/>
    <path class="cls-2" d="m302.98 37.1v5.67"/>
    <path class="cls-2" d="m305.82 37.1v5.67"/>
    <path class="cls-2" d="m308.65 37.1v5.67"/>
    <path class="cls-2" d="m314.32 37.1v5.67"/>
    <path class="cls-2" d="m317.16 37.1v5.67"/>
    <path class="cls-2" d="m319.99 37.1v5.67"/>
    <path class="cls-2" d="m322.83 37.1v5.67"/>
    <path class="cls-2" d="m328.5 37.1v5.67"/>
    <path class="cls-2" d="m331.33 37.1v5.67"/>
    <path class="cls-2" d="m334.17 37.1v5.67"/>
    <path class="cls-2" d="m337 37.1v5.67"/>
    <path class="cls-2" d="m342.67 37.1v5.67"/>
    <path class="cls-2" d="m345.5 37.1v5.67"/>
    <path class="cls-2" d="m348.34 37.1v5.67"/>
    <path class="cls-2" d="m351.17 37.1v5.67"/>
    <path class="cls-2" d="m356.84 37.1v5.67"/>
    <path class="cls-2" d="m359.68 37.1v5.67"/>
    <path class="cls-2" d="m362.51 37.1v5.67"/>
    <path class="cls-2" d="m365.35 37.1v5.67"/>
    <path class="cls-2" d="m371.02 37.1v5.67"/>
    <path class="cls-2" d="m373.85 37.1v5.67"/>
    <path class="cls-2" d="m376.69 37.1v5.67"/>
    <path class="cls-2" d="m379.52 37.1v5.67"/>
    <path class="cls-2" d="m385.19 37.1v5.67"/>
    <path class="cls-2" d="m388.02 37.1v5.67"/>
    <path class="cls-2" d="m390.86 37.1v5.67"/>
    <path class="cls-2" d="m393.69 37.1v5.67"/>
    <path class="cls-2" d="m399.36 37.1v5.67"/>
    <path class="cls-2" d="m402.2 37.1v5.67"/>
    <path class="cls-2" d="m405.03 37.1v5.67"/>
    <path class="cls-2" d="m407.87 37.1v5.67"/>
    <path class="cls-2" d="m413.54 37.1v5.67"/>
    <path class="cls-2" d="m416.37 37.1v5.67"/>
    <path class="cls-2" d="m419.21 37.1v5.67"/>
    <path class="cls-2" d="m422.04 37.1v5.67"/>
    <path class="cls-2" d="m427.71 37.1v5.67"/>
    <path class="cls-2" d="m430.54 37.1v5.67"/>
    <path class="cls-2" d="m433.38 37.1v5.67"/>
    <path class="cls-2" d="m436.21 37.1v5.67"/>
    <path class="cls-2" d="m441.88 37.1v5.67"/>
    <path class="cls-2" d="m444.72 37.1v5.67"/>
    <path class="cls-2" d="m447.55 37.1v5.67"/>
    <path class="cls-2" d="m450.39 37.1v5.67"/>
    <path class="cls-2" d="m456.06 37.1v5.67"/>
    <path class="cls-2" d="m458.89 37.1v5.67"/>
    <path class="cls-2" d="m461.72 37.1v5.67"/>
    <path class="cls-2" d="m464.56 37.1v5.67"/>
    <path class="cls-2" d="m470.23 37.1v5.67"/>
    <path class="cls-2" d="m473.06 37.1v5.67"/>
    <path class="cls-2" d="m475.9 37.1v5.67"/>
    <path class="cls-2" d="m478.73 37.1v5.67"/>
    <path class="cls-2" d="m484.4 37.1v5.67"/>
    <path class="cls-2" d="m487.24 37.1v5.67"/>
    <path class="cls-2" d="m490.07 37.1v5.67"/>
    <path class="cls-2" d="m492.91 37.1v5.67"/>
    <path class="cls-2" d="m498.58 37.1v5.67"/>
    <path class="cls-2" d="m501.41 37.1v5.67"/>
    <path class="cls-2" d="m504.24 37.1v5.67"/>
    <path class="cls-2" d="m507.08 37.1v5.67"/>
    <path class="cls-2" d="m512.75 37.1v5.67"/>
    <path class="cls-2" d="m515.58 37.1v5.67"/>
    <path class="cls-2" d="m518.42 37.1v5.67"/>
    <path class="cls-2" d="m521.25 37.1v5.67"/>
    <path class="cls-2" d="m526.92 37.1v5.67"/>
    <path class="cls-2" d="m529.76 37.1v5.67"/>
    <path class="cls-2" d="m532.59 37.1v5.67"/>
    <path class="cls-2" d="m535.43 37.1v5.67"/>
    <path class="cls-2" d="m541.1 37.1v5.67"/>
    <path class="cls-2" d="m543.93 37.1v5.67"/>
    <path class="cls-2" d="m546.76 37.1v5.67"/>
    <path class="cls-2" d="m549.6 37.1v5.67"/>
    <path class="cls-2" d="m555.27 37.1v5.67"/>
    <path class="cls-2" d="m558.1 37.1v5.67"/>
    <path class="cls-2" d="m560.94 37.1v5.67"/>
    <path class="cls-2" d="m563.77 37.1v5.67"/>
    <path class="cls-2" d="m569.44 37.1v5.67"/>
    <path class="cls-2" d="m572.28 37.1v5.67"/>
    <path class="cls-2" d="m575.11 37.1v5.67"/>
    <path class="cls-2" d="m577.95 37.1v5.67"/>
    <path class="cls-2" d="m583.61 37.1v5.67"/>
    <path class="cls-2" d="m586.45 37.1v5.67"/>
    <path class="cls-2" d="m589.28 37.1v5.67"/>
    <path class="cls-2" d="m592.12 37.1v5.67"/>
    <path class="cls-2" d="m597.79 37.1v5.67"/>
    <path class="cls-2" d="m600.62 37.1v5.67"/>
    <path class="cls-2" d="m603.46 37.1v5.67"/>
    <path class="cls-2" d="m606.29 37.1v5.67"/>
    <path class="cls-2" d="m611.96 37.1v5.67"/>
    <path class="cls-2" d="m614.8 37.1v5.67"/>
    <path class="cls-2" d="m617.63 37.1v5.67"/>
    <path class="cls-2" d="m620.47 37.1v5.67"/>
    <path class="cls-2" d="m626.13 37.1v5.67"/>
    <path class="cls-2" d="m628.97 37.1v5.67"/>
    <path class="cls-2" d="m631.8 37.1v5.67"/>
    <path class="cls-2" d="m634.64 37.1v5.67"/>
    <path class="cls-2" d="m640.31 37.1v5.67"/>
    <path class="cls-2" d="m643.14 37.1v5.67"/>
    <path class="cls-2" d="m645.98 37.1v5.67"/>
    <path class="cls-2" d="m648.81 37.1v5.67"/>
    <path class="cls-2" d="m654.48 37.1v5.67"/>
    <path class="cls-2" d="m657.32 37.1v5.67"/>
    <path class="cls-2" d="m660.15 37.1v5.67"/>
    <path class="cls-2" d="m662.98 37.1v5.67"/>
    <path class="cls-2" d="m668.65 37.1v5.67"/>
    <path class="cls-2" d="m671.49 37.1v5.67"/>
    <path class="cls-2" d="m674.32 37.1v5.67"/>
    <path class="cls-2" d="m677.16 37.1v5.67"/>
    <path class="cls-2" d="m682.83 37.1v5.67"/>
    <path class="cls-2" d="m685.66 37.1v5.67"/>
    <path class="cls-2" d="m688.5 37.1v5.67"/>
    <path class="cls-2" d="m691.33 37.1v5.67"/>
    <path class="cls-2" d="m697 37.1v5.67"/>
    <path class="cls-2" d="m699.84 37.1v5.67"/>
    <path class="cls-2" d="m702.67 37.1v5.67"/>
    <path class="cls-2" d="m705.5 37.1v5.67"/>
    <path class="cls-2" d="m711.17 37.1v5.67"/>
    <path class="cls-2" d="m714.01 37.1v5.67"/>
    <path class="cls-2" d="m716.84 37.1v5.67"/>
    <path class="cls-2" d="m719.68 37.1v5.67"/>
    <path class="cls-2" d="m725.35 37.1v5.67"/>
    <path class="cls-2" d="m728.18 37.1v5.67"/>
    <path class="cls-2" d="m731.02 37.1v5.67"/>
    <path class="cls-2" d="m733.85 37.1v5.67"/>
    <path class="cls-2" d="m739.52 37.1v5.67"/>
    <path class="cls-2" d="m742.35 37.1v5.67"/>
    <path class="cls-2" d="m745.19 37.1v5.67"/>
    <path class="cls-2" d="m748.02 37.1v5.67"/>
    <path class="cls-2" d="m753.69 37.1v5.67"/>
    <path class="cls-2" d="m756.53 37.1v5.67"/>
    <path class="cls-2" d="m759.36 37.1v5.67"/>
    <path class="cls-2" d="m762.2 37.1v5.67"/>
    <path class="cls-2" d="m767.87 37.1v5.67"/>
    <path class="cls-2" d="m770.7 37.1v5.67"/>
    <path class="cls-2" d="m773.54 37.1v5.67"/>
    <path class="cls-2" d="m776.37 37.1v5.67"/>
    <path class="cls-2" d="m782.04 37.1v5.67"/>
    <path class="cls-2" d="m784.87 37.1v5.67"/>
    <path class="cls-2" d="m787.71 37.1v5.67"/>
    <path class="cls-2" d="m790.54 37.1v5.67"/>
    <path class="cls-2" d="m796.21 37.1v5.67"/>
    <path class="cls-2" d="m799.05 37.1v5.67"/>
    <path class="cls-2" d="m801.88 37.1v5.67"/>
    <path class="cls-2" d="m804.72 37.1v5.67"/>
    <path class="cls-2" d="m810.39 37.1v5.67"/>
    <path class="cls-2" d="m813.22 37.1v5.67"/>
    <path class="cls-2" d="m816.06 37.1v5.67"/>
    <path class="cls-2" d="m818.89 37.1v5.67"/>
    <path class="cls-2" d="m824.56 37.1v5.67"/>
    <path class="cls-2" d="m827.39 37.1v5.67"/>
    <path class="cls-2" d="m830.23 37.1v5.67"/>
    <path class="cls-2" d="m833.06 37.1v5.67"/>
    <path class="cls-2" d="m838.73 37.1v5.67"/>
    <path class="cls-2" d="m841.57 37.1v5.67"/>
    <path class="cls-2" d="m844.4 37.1v5.67"/>
    <path class="cls-2" d="m847.24 37.1v5.67"/>
    <path class="cls-2" d="m852.91 37.1v5.67"/>
    <path class="cls-2" d="m855.74 37.1v5.67"/>
    <path class="cls-2" d="m858.58 37.1v5.67"/>
    <path class="cls-2" d="m861.41 37.1v5.67"/>
    <rect class="cls-2" x=".25" y=".25" width="878.74" height="42.52" rx="2.83"/>
</svg>