<svg xmlns="http://www.w3.org/2000/svg" height="440" width="879"><g xmlns="http://www.w3.org/2000/svg" transform="matrix(-1 0 0 -1 879 440)"><g fill="none" fill-rule="evenodd"><path fill="#1C1C1F" d="M879 0 439.5 440 0 0h879Zm-3.5 1.504H3.5L439.5 438l436-436.496Z" /><path fill="#FFF" fill-opacity=".36" d="m439.5 438 436-436.495-872-.001z" /><path stroke="#1C1C1F" d="m649.179 40.74 16.706 3.245m122.17 23.737L807.5 71.5M648.474 44.162l16.722 3.533m117.926 24.921L801.5 76.5M647.61 47.868l16.707 3.843m113.57 26.123L796 82M646.789 51.306l16.638 4.118m109.645 27.139L791 87M642.565 54.21l19.827 5.292m98.706 26.35L786 92.5M644.802 58.7l16.525 4.726m101.817 29.112L780.5 97.5M643.773 62.315l16.436 5.014m98.27 29.978L775.5 102.5M642.729 65.805l16.276 5.27m94.963 30.748L771.5 107.5M641.617 69.333l16.131 5.533m91.742 31.47L766 112M650.442 33.116l16.89 2.652M799.3 56.486l19.2 3.014M651.006 29.391l16.848 2.341M804.96 50.785 824.5 53.5m-13.87-8.414L830.5 47.5m-14.116-8.102L836.5 41.5m-7.897-14.452L849.5 28.5m-14.167-8.092L856.5 21.5m-14.544-7.737 21.544.737M475.299 202.589l4.405 24.93m10.323 58.416L505.5 373.5m4.448-179.918 8.562 23.528m20.329 55.86L556.5 321.5m-47.127-119.611 5.694 16.452m31.484 90.971L552.5 326.5m-46.825-123.379 5.397 16.564m30.712 94.269L547.5 331.5m-45.45-127.152 5.074 16.577m29.943 97.824L542.5 336.5m-43.897-131.147 4.798 16.67m29.128 101.204L537.5 340.5m-43.284-137.226 5.337 19.828m26.343 97.865L532.5 345.5m-41.121-138.28 4.231 16.903m27.257 108.871L527.5 351.5m-40.128-143.372 3.918 17.033m26.074 113.357L521.5 356.5m-37.614-147.54 3.62 17.043m24.924 117.335 4.07 19.162m-35.933-152.887 3.35 17.098M507.7 348.103l3.8 19.397m-38.632-156.445 2.712 17.151m20.744 131.204 3.176 20.09m-30.294-167.982 2.42 17.238m19.146 136.316L493.5 384.5m-27.937-172.463 2.12 17.247m17.376 141.36L487.5 390.5m-25.562-178.144 1.837 17.388m15.507 146.765L481.5 397.5m-23.808-187.777 1.773 20.443m12.562 144.828L474.5 403.5m-19.95-190.458 1.229 17.388m11.195 158.47 1.526 21.6m-17.734-197.215.919 17.39m8.703 164.776L461.5 416.5m-14.44-203.05.616 17.38m6.063 171.184.761 21.486m-11.04-209.909.323 17.4m3.294 177.72.423 22.789m94.813-253.653 12.78 22.108m29.874 51.676L600.5 278.5m-57.142-91.622 8.362 15.046m36.49 65.66 8.29 14.916m-56.328-93.987 8.142 15.247m36.083 67.566L592.5 286.5m-55.96-96.026 7.809 15.327m35.662 70L587.5 290.5m-54.14-98.544 7.609 15.562m35.23 72.05L583.5 294.5m-54.867-103.82 8.693 18.598M569.31 277.7l10.19 21.8m-53.16-104.27 7.048 15.845m34.264 77.03L574.5 303.5m-51.481-106.816 6.777 15.96m33.802 79.602L570.5 308.5m-51.09-110.31 6.48 16.071m33.196 82.33L565.5 312.5m-49.364-113.058 6.227 16.205m32.673 85.03L561.5 317.5m10.292-160.526 16.51 19.59m38.385 45.546L640.5 238.5m-43.66-106.505 19.49 16.35m45.654 38.3L678.5 200.5m-77.51-60.657 13.013 11.27m48.603 42.087 11.894 10.3m-76.108-60.773 12.824 11.52m47.598 42.756L670.5 207.5m-74.681-61.855 12.584 11.725m46.547 43.369L666.5 211.5m-73.093-63.434 12.438 11.967m45.835 44.095L663.5 215.5m-75.535-61.88 11.977 12.393m44.095 45.626L655.5 223.5m-70.063-67.581 11.814 12.621m43.45 46.423L651.5 226.5m-68.87-67.887 11.543 12.79m42.83 47.465L647.5 230.5m-67.778-69.314 11.301 12.991m42.112 48.408L643.5 234.5m-69.296-68.684 10.88 13.393m41.022 50.496L636.5 242.5m-65.256-74.237L581.84 181.8m40.514 51.743L632.5 246.5m-64.301-75.923 10.387 13.767m39.977 52.986 9.937 13.17m-63.337-77.629 10.117 13.918m39.42 54.23 9.8 13.481m-64.031-82.404 11.838 16.842m35.355 50.298L620.5 257.5m-61.521-80.307 9.635 14.29m38.573 57.206L616.5 262.5m-60.334-83.455 9.422 14.46m38.125 58.51L612.5 265.5m-59.47-84.457 9.163 14.612m37.756 60.209L608.5 269.5m-58.623-86.542 8.928 14.8m37.328 61.874L604.5 273.5m12.917-171.15 22.123 12.727m51.615 29.692L718.5 160.5m-95.664-50.832 14.73 8.811m62.397 37.325L714.5 164.5m-93.784-51.408 14.602 9.113M695.8 159.95l13.7 8.55m-90.749-52.256 14.374 9.321m58.855 38.168 13.52 8.767m-88.804-53.13 14.229 9.586m57.306 38.605L701.5 176.5m-89.682-55.944 16.792 11.748m50.621 35.415L697.5 180.5m-84.911-55.265 13.898 10.056m54.52 39.447L694.5 184.5m-84.177-56.212 13.704 10.291m53.231 39.977L690.5 188.5m-82.435-57.128 13.47 10.497m51.959 40.495L686.5 192.5m-80.894-58.18 13.347 10.793m50.678 40.98L682.5 196.5M632.694 69.898l23.787 8.606m55.835 20.201L761.5 116.5M638.958 76.448l16.002 6.134m85.475 32.76L756.5 121.5M637.651 79.894l15.866 6.398m82.718 33.351L752 126M636.206 83.345l15.76 6.677m79.961 33.88L747.5 130.5M634.849 86.571l15.64 6.932m77.46 34.327L743 134.5M630.098 88.776l18.575 8.652m68.86 32.073L739 139.5M631.633 93.461l15.385 7.484m72.533 35.283L734.5 143.5M630.054 96.587l15.304 7.757M715.706 140l14.794 7.5m-102.332-47.404 15.204 8.067m68.096 36.127L726 152m-99.483-48.727 15.01 8.29m66.147 36.526L722 156m92.643-123.964L843.5 34.5M849 6.643 871 7M641.694 35.506l24.951 4.381m58.832 10.332 60.591 10.64L812.5 65.5M651.453 25.749l16.938 2.058m-16.627-5.617 17.024 1.778M229.821 40.74l-16.706 3.245M90.945 67.722 71.5 71.5m159.026-27.338-16.722 3.533M95.878 72.616 77.5 76.5m153.89-28.632-16.707 3.843m-113.57 26.123L83 82m149.211-30.694-16.638 4.118M105.928 82.563 88 87m148.435-32.79-19.827 5.292m-98.706 26.35L93 92.5m141.198-33.8-16.525 4.726M115.856 92.538 98.5 97.5m136.727-35.185-16.436 5.014m-98.27 29.978L103.5 102.5m132.771-36.695-16.276 5.27m-94.963 30.748L107.5 107.5m129.883-38.167-16.131 5.533m-91.742 31.47L113 112m115.558-78.884-16.89 2.652M79.7 56.486 60.5 59.5m167.494-30.109-16.848 2.341M74.04 50.785 54.5 53.5m13.87-8.414L48.5 47.5m14.116-8.102L42.5 41.5m7.897-14.452L29.5 28.5m14.167-8.092L22.5 21.5m14.544-7.737L15.5 14.5m388.201 188.089-4.405 24.93m-10.323 58.416L373.5 373.5m-4.448-179.918-8.562 23.528m-20.329 55.86L322.5 321.5m47.127-119.611-5.694 16.452m-31.484 90.971L326.5 326.5m46.825-123.379-5.397 16.564m-30.712 94.269L331.5 331.5m45.45-127.152-5.074 16.577m-29.943 97.824L336.5 336.5m43.897-131.147-4.798 16.67M346.47 323.228 341.5 340.5m43.284-137.226-5.337 19.828m-26.343 97.865L346.5 345.5m41.121-138.28-4.231 16.903m-27.257 108.871L351.5 351.5m40.128-143.372-3.918 17.033m-26.074 113.357L357.5 356.5m37.614-147.54-3.62 17.043M366.57 343.338 362.5 362.5m35.933-152.887-3.35 17.098M371.3 348.103l-3.8 19.397m38.632-156.445-2.712 17.151M382.676 359.41 379.5 379.5m30.294-167.982-2.42 17.238m-19.146 136.316L385.5 384.5m27.937-172.463-2.12 17.247m-17.376 141.36L391.5 390.5m25.562-178.144-1.837 17.388M399.718 376.51 397.5 397.5m23.808-187.777-1.773 20.443m-12.562 144.828L404.5 403.5m19.95-190.458-1.229 17.388M412.026 388.9l-1.526 21.6m17.734-197.215-.919 17.39m-8.703 164.776L417.5 416.5m14.44-203.05-.616 17.38m-6.063 171.184L424.5 423.5m11.04-209.909-.323 17.4m-3.294 177.72L431.5 431.5m-94.813-253.653-12.78 22.108m-29.874 51.676L278.5 278.5m57.142-91.622-8.362 15.046m-36.49 65.66L282.5 282.5m56.328-93.987-8.142 15.247m-36.083 67.566L286.5 286.5m55.96-96.026-7.809 15.327m-35.662 70L291.5 290.5m54.14-98.544-7.609 15.562m-35.23 72.05L295.5 294.5m54.867-103.82-8.693 18.598M309.69 277.7l-10.19 21.8m53.16-104.27-7.048 15.845m-34.264 77.03L304.5 303.5m51.481-106.816-6.777 15.96m-33.802 79.602L308.5 308.5m51.09-110.31-6.48 16.071m-33.196 82.33L313.5 312.5m49.364-113.058-6.227 16.205m-32.673 85.03L317.5 317.5m-10.292-160.526-16.51 19.59m-38.385 45.546L238.5 238.5m43.66-106.505-19.49 16.35m-45.654 38.3L200.5 200.5m77.51-60.657-13.013 11.27M216.394 193.2 204.5 203.5m76.108-60.773-12.824 11.52m-47.598 42.756L208.5 207.5m74.681-61.855-12.584 11.725m-46.547 43.369L212.5 211.5m73.093-63.434-12.438 11.967m-45.835 44.095L215.5 215.5m75.535-61.88-11.977 12.393m-44.095 45.626L223.5 223.5m70.063-67.581-11.814 12.621m-43.45 46.423L227.5 226.5m68.87-67.887-11.543 12.79m-42.83 47.465L231.5 230.5m67.778-69.314-11.301 12.991m-42.112 48.408L235.5 234.5m69.296-68.684-10.88 13.393m-41.022 50.496L242.5 242.5m65.256-74.237L297.16 181.8m-40.514 51.743L246.5 246.5m64.301-75.923-10.387 13.767m-39.977 52.986L250.5 250.5m63.337-77.629L303.72 186.79m-39.42 54.23-9.8 13.481m64.031-82.405-11.838 16.842m-35.355 50.298L258.5 257.5m61.521-80.307-9.635 14.29m-38.573 57.206L262.5 262.5m60.334-83.455-9.422 14.46m-38.125 58.51L266.5 265.5m59.47-84.457-9.163 14.612m-37.756 60.209L270.5 269.5m58.623-86.542-8.928 14.8m-37.328 61.874L274.5 273.5m-12.917-171.15-22.123 12.727m-51.615 29.692L160.5 160.5m95.664-50.832-14.73 8.811m-62.397 37.325L164.5 164.5m93.784-51.408-14.602 9.113M183.2 159.95l-13.7 8.55m90.749-52.256-14.374 9.321m-58.855 38.168L173.5 172.5m88.804-53.13-14.229 9.586m-57.306 38.605L177.5 176.5m89.682-55.944-16.792 11.748m-50.621 35.415L181.5 180.5m84.911-55.265-13.898 10.056m-54.52 39.447L184.5 184.5m84.177-56.212-13.704 10.291m-53.231 39.977L188.5 188.5m82.435-57.128-13.47 10.497m-51.959 40.495L192.5 192.5m80.894-58.18-13.347 10.793m-50.678 40.98L196.5 196.5m49.806-126.602-23.787 8.606m-55.835 20.201L117.5 116.5m122.542-40.052-16.002 6.134m-85.475 32.76L122.5 121.5m118.849-41.606-15.866 6.398m-82.718 33.351L127 126m115.794-42.655-15.76 6.677m-79.961 33.88L131.5 130.5m112.651-43.929-15.64 6.932m-77.46 34.327L136 134.5m112.902-45.724-18.575 8.652m-68.86 32.073L140 139.5m107.367-46.039-15.385 7.484m-72.533 35.283L144.5 143.5m104.446-46.913-15.304 7.757M163.294 140l-14.794 7.5m102.332-47.404-15.204 8.067m-68.096 36.127L153 152m99.483-48.727-15.01 8.29m-66.147 36.526L157 156M64.357 32.036 35.5 34.5M30 6.643 8 7m229.306 28.506-24.951 4.381M153.523 50.22 92.932 60.86 66.5 65.5m161.047-39.751-16.938 2.058m16.627-5.617-17.024 1.778" /><g fill="#1C1C1F"><path d="M439 14h1V1h-1zm5-6h1V1h-1zm5 0h1V1h-1zm5 0h1V1h-1zm5 0h1V1h-1zm25 0h1V1h-1zm-20 6h1V1h-1zm10-6h1V1h-1zm5 0h1V1h-1zm-10 0h1V1h-1zm50 0h1V1h-1zm5 0h1V1h-1zm-30 0h1V1h-1zm15 0h1V1h-1zm-5 0h1V1h-1zm-15 6h1V1h-1zm45-6h1V1h-1zm-35 0h1V1h-1zm15 6h1V1h-1zm15-6h1V1h-1zm60 6h1V1h-1zm-35-6h1V1h-1zm45 0h1V1h-1zm-25 0h1V1h-1zm35 0h1V1h-1zm-5 0h1V1h-1zm15 0h1V1h-1zm-75 0h1V1h-1zm80 0h1V1h-1zm-30 0h1V1h-1zm-25 0h1V1h-1zm-30 6h1V1h-1zm25 0h1V1h-1zm15-6h1V1h-1zm5 0h1V1h-1zm50 0h1V1h-1zm-85 0h1V1h-1zm10 0h1V1h-1zm55 6h1V1h-1zm25 0h1V1h-1zm-10-6h1V1h-1zm-365 6h1V1h-1zm-15-6h1V1h-1zm30 0h1V1h-1zm25 0h1V1h-1zm40 0h1V1h-1zm-70 0h1V1h-1zm135 0h1V1h-1zm-95 6h1V1h-1zm-25 0h1V1h-1zm110-6h1V1h-1zM269 8h1V1h-1zm135 0h1V1h-1zm-25 0h1V1h-1zm10 6h1V1h-1zm-50 0h1V1h-1zm-85-6h1V1h-1zm165 0h1V1h-1zm15 0h1V1h-1zM329 8h1V1h-1zm45 0h1V1h-1zm55 0h1V1h-1zM244 8h1V1h-1zm40 0h1V1h-1zm35 0h1V1h-1zm5 0h1V1h-1zm60 0h1V1h-1zm-50 0h1V1h-1zm60 0h1V1h-1zm20 6h1V1h-1zm-65-6h1V1h-1zm-90 0h1V1h-1zm100 0h1V1h-1zm10 0h1V1h-1zm-75 0h1V1h-1zm70 6h1V1h-1zm60-6h1V1h-1zM299 8h1V1h-1zm55 0h1V1h-1zm-45 0h1V1h-1zm-70 6h1V1h-1z" /><path d="M464 14h1V1h-1zm-15-6h1V1h-1zm30 0h1V1h-1zm25 0h1V1h-1zm40 0h1V1h-1zm-70 0h1V1h-1zm135 0h1V1h-1zm-95 6h1V1h-1zm-25 0h1V1h-1zm110-6h1V1h-1zM469 8h1V1h-1zm135 0h1V1h-1zm-25 0h1V1h-1zm10 6h1V1h-1zm-50 0h1V1h-1zm-85-6h1V1h-1zm165 0h1V1h-1zm15 0h1V1h-1zM529 8h1V1h-1zm45 0h1V1h-1zm55 0h1V1h-1zM444 8h1V1h-1zm40 0h1V1h-1zm35 0h1V1h-1zm5 0h1V1h-1zm60 0h1V1h-1zm-50 0h1V1h-1zm60 0h1V1h-1zm20 6h1V1h-1zm-65-6h1V1h-1zm-90 0h1V1h-1zm100 0h1V1h-1zm10 0h1V1h-1zm-75 0h1V1h-1zm70 6h1V1h-1zm60-6h1V1h-1zM499 8h1V1h-1zm55 0h1V1h-1zm-45 0h1V1h-1zm-70 6h1V1h-1zm225 0h1V1h-1zm-15-6h1V1h-1zm30 0h1V1h-1zm25 0h1V1h-1zm40 0h1V1h-1zm-70 0h1V1h-1zm135 0h1V1h-1zm-95 6h1V1h-1zm-25 0h1V1h-1zm110-6h1V1h-1zM669 8h1V1h-1zm135 0h1V1h-1zm-25 0h1V1h-1zm10 6h1V1h-1zm-50 0h1V1h-1zm-85-6h1V1h-1zm165 0h1V1h-1zm15 0h1V1h-1zM729 8h1V1h-1zm45 0h1V1h-1zm55 0h1V1h-1zM644 8h1V1h-1zm40 0h1V1h-1zm35 0h1V1h-1zm5 0h1V1h-1zm60 0h1V1h-1zm-50 0h1V1h-1zm60 0h1V1h-1zm20 6h1V1h-1zm25 0h1V1h-1zm-90-6h1V1h-1zm-90 0h1V1h-1zm100 0h1V1h-1zm10 0h1V1h-1zm-75 0h1V1h-1zm70 6h1V1h-1zm60-6h1V1h-1zM699 8h1V1h-1zm55 0h1V1h-1zm-45 0h1V1h-1zM64 14h1V1h-1zM49 8h1V1h-1zm30 0h1V1h-1zm25 0h1V1h-1zm40 0h1V1h-1zM74 8h1V1h-1zm135 0h1V1h-1zm-95 6h1V1h-1zm-25 0h1V1h-1zm110-6h1V1h-1zM69 8h1V1h-1zm135 0h1V1h-1zm-25 0h1V1h-1zm10 6h1V1h-1zm-50 0h1V1h-1zM54 8h1V1h-1zm165 0h1V1h-1zm15 0h1V1h-1zM129 8h1V1h-1zm45 0h1V1h-1zm55 0h1V1h-1zM44 8h1V1h-1zm40 0h1V1h-1zm35 0h1V1h-1zm5 0h1V1h-1zm60 0h1V1h-1zm-50 0h1V1h-1zm60 0h1V1h-1zm20 6h1V1h-1zm-65-6h1V1h-1zM59 8h1V1h-1zm100 0h1V1h-1zm10 0h1V1h-1zM94 8h1V1h-1zm70 6h1V1h-1zm60-6h1V1h-1zM99 8h1V1h-1zm55 0h1V1h-1zm-45 0h1V1h-1zm-70 6h1V1h-1z" /></g><path fill="#1C1C1F" d="M439 297h1v142h-1z" /><path fill="#1B192C" fill-rule="nonzero" d="M436.363 249.35c.469 0 .844-.177 1.125-.532.282-.354.423-.882.423-1.582v-.322c-.16.231-.36.406-.599.525a1.77 1.77 0 0 1-.798.178c-.687 0-1.232-.212-1.636-.637-.403-.425-.605-1.01-.605-1.755 0-.713.214-1.298.642-1.753a2.06 2.06 0 0 1 1.56-.684c.742 0 1.327.232 1.755.696.429.464.643 1.147.643 2.048v1.695c0 .927-.232 1.639-.696 2.133-.464.495-1.069.743-1.814.743-.25 0-.506-.024-.764-.071a2.768 2.768 0 0 1-.696-.218l.146-.737c.192.101.392.172.598.213.207.04.446.06.716.06Zm.151-2.485c.355 0 .65-.076.886-.23a1.32 1.32 0 0 0 .51-.585v-.615c0-.622-.119-1.093-.358-1.412-.24-.319-.589-.478-1.048-.478-.351 0-.65.157-.898.471-.247.314-.371.717-.371 1.209 0 .488.115.883.344 1.186.23.303.541.454.935.454Zm8.062.425c0 .908-.201 1.604-.603 2.087-.402.484-.953.726-1.653.726-.7 0-1.253-.243-1.66-.728-.407-.485-.61-1.18-.61-2.085v-1.685c0-.904.202-1.6.607-2.087.406-.487.956-.73 1.653-.73.7 0 1.252.243 1.658.73.405.487.608 1.183.608 2.087v1.685Zm-.962-1.89c0-.615-.112-1.078-.335-1.389-.223-.31-.546-.466-.969-.466-.423 0-.745.155-.967.466-.221.311-.332.774-.332 1.39v2.084c0 .616.113 1.08.337 1.394.225.315.549.472.972.472.423 0 .744-.157.964-.47.22-.312.33-.777.33-1.396V245.4Zm35.534 1.429-.947.167-1.072-6.078-1.43.272-.12-.683 2.335-.68zm6.8-3.951c.158.895.08 1.615-.231 2.16-.312.547-.813.88-1.502 1.002-.69.121-1.277-.021-1.761-.428-.485-.407-.806-1.057-.964-1.948l-.292-1.659c-.157-.89-.079-1.611.236-2.16.315-.55.815-.886 1.501-1.007.69-.121 1.276.022 1.76.431.483.41.803 1.06.96 1.95l.293 1.66Zm-1.275-1.694c-.107-.606-.297-1.042-.571-1.31-.274-.267-.619-.364-1.036-.29-.416.073-.707.282-.87.627-.165.344-.193.82-.086 1.425l.362 2.054c.106.605.298 1.044.573 1.314.276.27.622.369 1.04.295.416-.073.705-.283.868-.629.162-.346.189-.823.082-1.432l-.362-2.054Zm6.824.716c.158.894.08 1.614-.231 2.16-.312.546-.813.88-1.502 1.001-.69.122-1.276-.02-1.761-.428-.485-.407-.806-1.056-.963-1.947l-.293-1.66c-.157-.89-.078-1.61.236-2.16.315-.55.815-.885 1.501-1.006.69-.122 1.276.022 1.76.43.483.41.804 1.06.96 1.95l.293 1.66Zm-1.275-1.694c-.107-.606-.297-1.043-.57-1.31-.274-.267-.62-.364-1.036-.291-.417.074-.707.283-.872.627-.164.345-.192.82-.085 1.426l.362 2.053c.107.606.298 1.044.574 1.314.275.27.622.37 1.038.296.417-.074.707-.283.869-.63.162-.345.19-.823.082-1.432l-.362-2.053Zm-95.194.437a1.58 1.58 0 0 1-.477.906 1.864 1.864 0 0 1-.94.466c.379.212.663.49.852.834.189.344.248.714.179 1.108-.114.647-.412 1.105-.894 1.372-.482.267-1.06.341-1.733.222-.686-.12-1.208-.389-1.566-.804-.358-.415-.48-.946-.366-1.594.07-.394.25-.721.54-.98.29-.26.65-.425 1.079-.495a1.801 1.801 0 0 1-.714-.758 1.615 1.615 0 0 1-.13-1.012c.11-.615.383-1.057.822-1.325.439-.268.97-.347 1.596-.237.615.109 1.088.365 1.419.769.33.403.441.913.333 1.528Zm-1.325 3.128c.068-.384-.003-.722-.213-1.014-.21-.291-.509-.471-.897-.54-.394-.07-.735-.002-1.024.201-.289.204-.467.498-.535.883-.07.397-.003.73.2 1 .204.269.508.439.912.51.394.07.735.012 1.022-.172.287-.184.465-.473.535-.868Zm.374-3.275c.061-.347.003-.653-.173-.918a1.1 1.1 0 0 0-.76-.486c-.336-.06-.628.002-.875.185s-.403.455-.466.818c-.063.355-.009.66.164.911.172.252.428.408.767.468.334.058.625 0 .875-.178s.405-.444.468-.8Zm6.198 3.656c-.158.894-.477 1.545-.957 1.95-.48.407-1.064.55-1.753.428-.69-.122-1.193-.457-1.509-1.005-.317-.548-.396-1.268-.239-2.16l.292-1.658c.158-.891.478-1.541.962-1.95.483-.41 1.068-.553 1.754-.432.69.121 1.191.457 1.506 1.007.314.55.393 1.27.236 2.16l-.292 1.66Zm-.62-2.028c.107-.606.078-1.081-.088-1.426-.165-.345-.457-.554-.873-.628-.417-.073-.761.024-1.033.292-.272.267-.462.704-.569 1.31l-.362 2.053c-.106.606-.077 1.083.09 1.432.167.348.458.559.875.632.417.074.76-.024 1.031-.294.27-.27.46-.709.567-1.318l.362-2.053Zm-44.77-13.487c-1.157.666-2.012 1.319-2.565 1.958-.553.638-1.084 1.463-1.594 2.472l-.336.694-.904-.33.336-.693c.512-1.005 1.103-1.855 1.775-2.55a11.586 11.586 0 0 1 2.402-1.874l-3.634-1.322.26-.712 4.519 1.645-.26.712Zm3.943 5.311c-.31.854-.737 1.439-1.28 1.755-.543.317-1.144.356-1.801.117-.658-.24-1.095-.657-1.312-1.252-.216-.595-.17-1.318.14-2.168l.576-1.583c.31-.85.738-1.435 1.285-1.753.548-.32 1.149-.36 1.803-.121.658.24 1.094.657 1.308 1.253.215.596.167 1.319-.142 2.17l-.577 1.582Zm-.257-2.104c.21-.579.264-1.052.16-1.42-.103-.369-.353-.625-.75-.77-.398-.145-.754-.109-1.069.108-.314.216-.576.613-.787 1.191l-.713 1.96c-.21.578-.264 1.053-.16 1.425.104.372.354.63.752.775.397.145.753.108 1.066-.11.314-.22.576-.619.788-1.2l.713-1.96Zm-42.488-22.794c.211.122.406.267.586.435.18.167.316.327.409.478l-.546.536a2.834 2.834 0 0 0-.335-.421 2.213 2.213 0 0 0-.493-.372 1.472 1.472 0 0 0-1.369-.086c-.472.197-.872.579-1.2 1.146l-.055.097a2.35 2.35 0 0 1 1.66.287c.55.318.878.761.986 1.33.107.57-.008 1.147-.345 1.73-.368.637-.842 1.056-1.422 1.257-.58.2-1.16.133-1.74-.202-.604-.348-.977-.855-1.12-1.52-.142-.664.017-1.394.475-2.19l.68-1.175c.455-.79 1.044-1.302 1.767-1.539.723-.236 1.41-.167 2.062.21Zm-1.888 2.615c-.284-.165-.56-.247-.827-.247-.267 0-.508.066-.723.198l-.288.499c-.327.566-.46 1.072-.397 1.518.062.446.273.773.634.98.341.198.69.207 1.047.028.358-.18.66-.483.907-.912.235-.406.325-.799.272-1.179-.053-.38-.261-.675-.625-.885Zm6.055 4.99c-.453.787-.975 1.289-1.565 1.506-.59.218-1.188.152-1.794-.198-.606-.35-.964-.837-1.074-1.46-.11-.624.061-1.327.514-2.111l.842-1.459c.452-.784.976-1.285 1.57-1.504.594-.219 1.193-.154 1.797.194.606.35.963.837 1.07 1.461.108.625-.065 1.328-.517 2.112l-.842 1.459Zm.112-2.117c.308-.533.443-.99.405-1.37-.037-.381-.24-.678-.606-.89-.366-.21-.723-.237-1.07-.079-.347.159-.675.505-.982 1.037l-1.043 1.806c-.308.533-.443.991-.405 1.376.037.384.24.682.606.894.366.211.723.237 1.07.076.346-.16.674-.51.983-1.045l1.042-1.805Zm-42.032-28.002 2.823-2.725 2.727 2.288-.55.654-2.102-1.764-1.463 1.38c.186.011.373.048.56.11.189.062.377.168.566.318.505.415.763.91.772 1.483.01.574-.22 1.14-.691 1.702-.458.546-.973.862-1.544.948-.572.085-1.138-.107-1.699-.578-.461-.387-.74-.835-.835-1.344-.095-.51.068-1.003.49-1.482l.027-.016.666.559c-.25.297-.357.598-.323.905.034.307.187.574.458.802.312.262.646.355 1.002.28.356-.075.695-.304 1.015-.685.293-.35.446-.71.46-1.08.014-.37-.133-.685-.44-.942-.289-.243-.535-.375-.738-.397a.975.975 0 0 0-.62.162l-.56-.578Zm7.229 6.714c-.584.697-1.185 1.1-1.804 1.212-.618.112-1.196-.057-1.732-.507s-.804-.991-.804-1.624c0-.633.29-1.296.873-1.99l1.082-1.29c.582-.693 1.185-1.096 1.808-1.208.623-.113 1.202.055 1.735.503.536.45.803.991.8 1.625-.001.633-.294 1.296-.875 1.99l-1.083 1.29Zm.478-2.065c.395-.471.607-.898.636-1.28.03-.38-.118-.707-.442-.98-.324-.271-.671-.36-1.04-.264-.37.096-.752.38-1.148.851l-1.34 1.597c-.396.472-.608.9-.638 1.285-.03.385.117.713.441.985.325.272.671.36 1.04.261.37-.098.753-.384 1.15-.858l1.34-1.597Zm-37.545-34.081.63.752-.576.483-.63-.752-1.257 1.055-.615-.733 1.256-1.055-2.052-2.446.415-.349 5.79-.765.652.778-3.613 3.032Zm-2.009-2.394 1.393 1.66 2.555-2.143-.015-.026-.247.086-3.686.423Zm6.294 7.007c-.695.584-1.358.877-1.986.88-.63.003-1.168-.264-1.618-.8-.45-.536-.62-1.116-.51-1.74.11-.623.512-1.225 1.205-1.807l1.29-1.083c.694-.581 1.357-.874 1.99-.876.633-.002 1.174.263 1.622.797.45.536.618 1.116.506 1.74-.112.622-.515 1.225-1.208 1.807l-1.29 1.082Zm.83-1.951c.47-.396.754-.779.849-1.15.095-.37.006-.717-.266-1.041-.272-.325-.598-.472-.979-.441-.38.03-.806.243-1.277.638l-1.597 1.34c-.472.396-.756.78-.852 1.155-.096.374-.008.723.264 1.047.272.324.598.47.979.437.38-.032.808-.247 1.281-.645l1.598-1.34Zm-27.974-39.003.42.728c.213.37.457.577.73.624.273.047.575-.024.905-.215.352-.203.57-.445.652-.726.082-.28.025-.591-.172-.932-.187-.325-.433-.53-.736-.616-.303-.086-.613-.038-.929.145l-.461-.8.02-.023c.457-.282.95-.342 1.478-.18.529.164.956.529 1.283 1.095.33.57.44 1.111.332 1.624-.108.514-.442.932-1.003 1.256a1.672 1.672 0 0 1-.892.208 1.679 1.679 0 0 1-.977-.358c.092.439.053.81-.118 1.114-.17.303-.416.547-.738.733-.56.324-1.108.395-1.642.212-.534-.182-.966-.56-1.296-1.132-.324-.56-.44-1.113-.35-1.655.09-.543.4-.957.926-1.243l.033-.002.459.795c-.324.187-.525.436-.602.745-.077.31-.015.638.185.984.204.353.459.574.766.663.307.09.649.026 1.023-.19.381-.22.61-.47.688-.752.078-.282.006-.615-.215-.998l-.42-.728.651-.376Zm3.291 8.277c-.787.455-1.49.629-2.11.522-.62-.106-1.104-.463-1.454-1.069-.35-.606-.417-1.206-.2-1.801.217-.595.717-1.119 1.5-1.571l1.46-.843c.783-.452 1.487-.624 2.111-.517.624.108 1.11.463 1.459 1.067.35.606.415 1.206.196 1.8-.219.595-.72 1.118-1.504 1.57l-1.458.843Zm1.155-1.777c.533-.308.878-.636 1.036-.984.158-.349.13-.706-.08-1.073-.212-.366-.508-.568-.888-.604-.38-.036-.836.1-1.37.407l-1.805 1.042c-.533.308-.879.638-1.039.99-.16.35-.133.71.078 1.076.212.367.508.567.888.601.38.034.839-.103 1.374-.413l1.806-1.042Zm-25.488-42.315-1.576-4.331.62-.226 3.228 1.304c.58.232 1.023.371 1.331.417.308.046.596.02.865-.079.334-.12.579-.32.736-.597.157-.278.177-.577.06-.898-.168-.462-.41-.759-.727-.891-.316-.133-.689-.121-1.117.035l-.316-.867.025-.02c.57-.224 1.122-.209 1.658.046.537.255.933.735 1.189 1.438.218.6.217 1.141-.004 1.625-.22.484-.601.825-1.143 1.022-.364.132-.768.157-1.212.074a7.484 7.484 0 0 1-1.506-.477l-2.553-1.061-.02.017 1.169 3.212-.707.257Zm4.436 4.262c-.854.311-1.576.36-2.168.148-.592-.212-1.007-.647-1.247-1.305-.24-.658-.2-1.26.116-1.809.317-.548.9-.977 1.75-1.287l1.584-.576c.85-.31 1.573-.357 2.169-.142.596.214 1.013.648 1.251 1.303.24.658.2 1.26-.119 1.807-.318.548-.903.976-1.753 1.286l-1.583.576Zm1.446-1.55c.579-.21.976-.473 1.191-.789.216-.316.252-.672.107-1.07-.145-.398-.4-.647-.769-.75-.368-.1-.84-.046-1.419.164l-1.959.713c-.578.21-.976.475-1.195.793-.218.319-.255.677-.11 1.075.145.397.401.646.77.746.369.1.844.043 1.425-.168l1.96-.713Zm-17.31-47.238-.167-.947 6.079-1.072-.273-1.43.683-.12.68 2.335zm3.951 6.801c-.894.157-1.615.08-2.16-.232-.546-.312-.88-.812-1.002-1.502-.121-.689.022-1.276.429-1.76.407-.486 1.056-.807 1.947-.964l1.659-.293c.891-.157 1.612-.078 2.161.237.55.314.885.815 1.006 1.5.122.69-.022 1.276-.431 1.76s-1.059.804-1.95.961l-1.66.293Zm1.694-1.276c.606-.107 1.042-.297 1.31-.57.267-.274.364-.62.29-1.036-.073-.417-.282-.707-.626-.871-.345-.164-.82-.193-1.426-.086l-2.053.362c-.606.107-1.044.298-1.315.574-.27.276-.369.622-.295 1.039.073.417.283.706.629.868.346.162.823.19 1.433.082l2.053-.362ZM520.055 236.51l-.904.33-2.11-5.8-1.361.515-.237-.65 2.18-1.076zm5.29-1.925-.904.329-2.11-5.8-1.361.516-.237-.65 2.18-1.075zm6.011-5.072c.31.854.36 1.577.147 2.168-.212.592-.647 1.008-1.305 1.247-.658.24-1.26.2-1.809-.116-.548-.317-.977-.9-1.286-1.75l-.577-1.583c-.31-.85-.357-1.574-.142-2.17.214-.596.649-1.013 1.303-1.251.658-.24 1.26-.2 1.808.119.547.319.975.903 1.285 1.754l.576 1.582Zm-1.55-1.446c-.21-.578-.474-.975-.79-1.191-.316-.216-.672-.252-1.07-.107-.398.145-.647.401-.749.769-.102.368-.047.84.163 1.419l.713 1.96c.21.577.475.976.794 1.194.318.218.676.255 1.074.11.398-.144.646-.401.746-.77.1-.369.043-.844-.168-1.425l-.713-1.96Zm28.258-8.042-.833.481-3.086-5.345-1.25.745-.347-.601 1.961-1.436zm6.486-3.745-3.99 2.305-.33-.571.723-3.406c.128-.611.187-1.073.18-1.383a1.744 1.744 0 0 0-.228-.839 1.334 1.334 0 0 0-.717-.62c-.3-.107-.598-.075-.894.096-.426.245-.677.536-.752.87-.075.335 0 .7.229 1.095l-.8.461-.023-.02c-.32-.522-.4-1.07-.243-1.642.159-.572.562-1.045 1.21-1.42.553-.319 1.086-.412 1.601-.279.515.134.916.45 1.204.949.194.335.289.729.285 1.18a7.484 7.484 0 0 1-.21 1.567l-.6 2.699.02.016 2.96-1.71.376.652Zm3.429-5.108c.454.786.627 1.49.521 2.11-.106.619-.463 1.104-1.069 1.454-.606.35-1.206.416-1.801.2-.595-.217-1.119-.717-1.571-1.5l-.843-1.46c-.452-.784-.625-1.487-.517-2.112.108-.624.463-1.11 1.066-1.458.607-.35 1.207-.416 1.801-.197.594.219 1.118.72 1.57 1.504l.843 1.459Zm-1.778-1.156c-.308-.532-.636-.878-.985-1.035-.348-.158-.706-.131-1.072.08-.367.212-.568.508-.604.888-.037.38.1.836.407 1.369l1.042 1.805c.308.533.637.88.989 1.04.352.159.71.133 1.077-.079.367-.211.567-.507.6-.888.035-.38-.103-.838-.412-1.374l-1.042-1.806Zm28.947-14.659-.737.618-3.967-4.728-1.103.95-.445-.53 1.682-1.757zm.646-5.763.643-.54c.327-.274.49-.55.488-.827 0-.277-.124-.562-.369-.854-.261-.311-.537-.484-.828-.516-.29-.032-.587.078-.888.331-.287.241-.447.518-.479.832-.032.314.07.61.304.89l-.707.593-.026-.017c-.358-.4-.503-.875-.434-1.424.069-.548.354-1.033.855-1.453.504-.423 1.018-.626 1.542-.609.524.017.994.274 1.41.77.19.224.309.505.36.842.052.338-.01.679-.183 1.024.417-.167.79-.193 1.118-.077.328.115.612.315.85.6.417.496.581 1.022.494 1.58-.086.557-.383 1.048-.89 1.473-.495.416-1.019.627-1.57.632-.55.005-1.01-.227-1.383-.697l-.008-.031.703-.59c.24.286.52.44.838.463.318.022.63-.096.937-.353.312-.262.485-.552.52-.87.035-.318-.087-.643-.365-.974-.283-.337-.57-.52-.86-.547-.291-.028-.606.1-.946.385l-.643.54-.483-.576Zm7.58-4.678c.584.696.877 1.358.88 1.987.002.629-.264 1.168-.8 1.618-.537.45-1.116.62-1.74.51-.623-.11-1.226-.512-1.808-1.205l-1.082-1.29c-.582-.694-.874-1.357-.876-1.99-.003-.634.263-1.174.796-1.622.537-.45 1.116-.619 1.74-.507.623.113 1.225.516 1.807 1.209l1.083 1.29Zm-1.952-.829c-.395-.471-.778-.754-1.149-.85-.37-.094-.718-.005-1.042.267-.324.272-.471.598-.441.978.03.38.243.807.639 1.278l1.34 1.597c.395.471.78.755 1.154.851.374.097.723.009 1.047-.263.324-.272.47-.599.438-.98-.033-.38-.248-.807-.646-1.28l-1.34-1.598Zm25.85-19.592-.619.737-4.728-3.967-.92 1.127-.531-.446 1.352-2.02zm2.488-6.689.632-.751.576.483-.631.752 1.257 1.054-.616.733-1.256-1.054-2.053 2.446-.415-.348-1.76-5.569.654-.778 3.613 3.032Zm-2.008 2.394 1.394-1.66-2.555-2.144-.023.02.128.227 1.056 3.557Zm5.808-7.415c.696.583 1.1 1.185 1.212 1.803.112.619-.057 1.196-.507 1.733-.45.536-.992.804-1.625.804s-1.296-.291-1.99-.873l-1.29-1.083c-.693-.581-1.096-1.184-1.208-1.807-.112-.623.055-1.202.503-1.736.45-.536.992-.803 1.625-.8.633.002 1.297.294 1.99.876l1.29 1.083Zm-2.066-.478c-.47-.396-.897-.608-1.279-.637-.381-.029-.708.119-.98.443s-.36.67-.264 1.04c.096.37.38.752.85 1.148l1.598 1.34c.471.395.9.608 1.284.638.385.03.714-.118.986-.442s.359-.67.26-1.04c-.098-.369-.384-.752-.857-1.15l-1.598-1.34Zm20.909-21.871-.48.832-5.346-3.086-.71 1.271-.6-.346.979-2.225zm-1.199-4.34-3.173-2.306 1.78-3.083.74.428-1.372 2.376 1.612 1.202a2.218 2.218 0 0 1 .011-.572c.029-.196.1-.4.215-.611.322-.57.764-.91 1.327-1.019.563-.11 1.161.02 1.796.386.617.356 1.018.808 1.201 1.356.184.548.093 1.139-.273 1.773-.302.521-.695.873-1.18 1.056-.484.182-1 .107-1.543-.226l-.021-.023.435-.753c.335.193.65.247.947.16.296-.086.533-.283.71-.59.204-.352.238-.698.102-1.035-.136-.338-.42-.631-.85-.88-.395-.228-.777-.317-1.144-.266-.368.05-.652.25-.852.596-.189.327-.276.593-.262.796a.975.975 0 0 0 .267.583l-.473.652Zm5.359-8.284c.786.454 1.288.976 1.506 1.565.217.59.151 1.188-.199 1.794-.35.607-.836.965-1.46 1.074-.623.11-1.327-.061-2.11-.514l-1.46-.842c-.783-.452-1.285-.976-1.503-1.57-.22-.594-.154-1.193.194-1.796.35-.606.837-.963 1.46-1.071.625-.108 1.329.065 2.113.517l1.459.843Zm-2.118-.112c-.533-.308-.99-.443-1.37-.405-.38.038-.677.24-.889.606-.211.367-.238.723-.08 1.07.16.348.505.675 1.038.983l1.805 1.042c.533.308.992.443 1.376.405.385-.037.682-.24.894-.606.212-.366.237-.723.076-1.07-.16-.346-.509-.674-1.044-.983l-1.806-1.042Zm18.062-27.519-.33.904-5.8-2.11-.478 1.374-.651-.237.578-2.362zm-4.862-7.729c.084-.23.193-.447.326-.653.134-.206.268-.368.4-.486l.623.445c-.13.122-.25.256-.357.403-.107.146-.2.33-.28.55a1.47 1.47 0 0 0 .153 1.362c.276.432.722.76 1.336.983l.106.038c-.1-.258-.152-.53-.157-.818a2.41 2.41 0 0 1 .152-.867c.217-.596.597-.997 1.139-1.201.542-.205 1.13-.192 1.763.038.691.252 1.186.646 1.484 1.182.299.537.333 1.12.104 1.75-.238.655-.672 1.11-1.302 1.366-.63.255-1.377.226-2.24-.088l-1.275-.464c-.856-.312-1.464-.803-1.822-1.474-.359-.67-.41-1.36-.153-2.066Zm2.903 1.404c-.112.31-.145.595-.099.858.046.263.153.489.32.678l.541.197c.615.224 1.136.266 1.565.127.428-.138.713-.403.855-.795.135-.37.083-.715-.155-1.036-.239-.32-.59-.565-1.055-.735-.44-.16-.843-.181-1.209-.063-.365.118-.62.375-.763.77Zm3.863-6.83c.853.311 1.439.738 1.755 1.281.317.543.356 1.144.116 1.801-.239.658-.656 1.095-1.251 1.311-.595.217-1.318.17-2.168-.14l-1.583-.575c-.85-.31-1.435-.738-1.754-1.285-.318-.548-.359-1.149-.12-1.803.239-.658.657-1.094 1.253-1.308.595-.215 1.319-.167 2.169.142l1.583.576Zm-2.105.258c-.578-.21-1.051-.264-1.42-.16-.368.102-.624.353-.77.75-.144.398-.108.754.108 1.069.217.314.614.576 1.192.787l1.96.713c.578.21 1.053.264 1.425.16.372-.104.63-.354.775-.752.144-.398.108-.753-.11-1.067-.22-.313-.62-.575-1.2-.787l-1.96-.713ZM684.55 48.74l-.167.947-6.078-1.072-.233 1.436-.684-.12.16-2.426zm-4.956-8.48c.858 1.023 1.65 1.752 2.374 2.185.725.434 1.63.814 2.712 1.14l.741.21-.167.948-.741-.21c-1.079-.33-2.019-.764-2.82-1.305a11.586 11.586 0 0 1-2.262-2.04l-.672 3.808-.745-.132.835-4.736.745.131Zm4.546-4.807c.895.158 1.545.477 1.952.957.406.48.548 1.064.427 1.753-.122.69-.457 1.192-1.005 1.509-.548.316-1.268.396-2.16.239l-1.658-.293c-.892-.157-1.542-.477-1.95-.96-.41-.484-.553-1.07-.432-1.755.121-.69.457-1.191 1.006-1.506.55-.315 1.27-.393 2.162-.236l1.659.292Zm-2.027.62c-.606-.107-1.082-.078-1.426.088-.345.165-.555.456-.628.873-.073.417.024.761.291 1.033.268.272.705.462 1.31.568l2.054.362c.606.107 1.083.077 1.431-.09.349-.166.56-.458.633-.874.074-.417-.024-.76-.294-1.031-.27-.271-.709-.46-1.318-.568l-2.053-.362Z" /><path fill="#1C1C1F" d="M398 25h33v1h-33zm50 0h33v1h-33zm50 0h33v1h-33zm50 0h33v1h-33zm-200 0h33v1h-33zm-100 0h33v1h-33zm50 0h33v1h-33zm300 0h33v1h-33z" /><path fill="#1B192C" fill-rule="nonzero" d="M490.112 25h-1.154v-7.406l-1.746.023v-.832l2.9-.316zm52.233 0h-5.532v-.791l2.795-3.105c.5-.56.84-1.002 1.017-1.33.178-.329.267-.665.267-1.008 0-.426-.124-.785-.372-1.076-.249-.29-.578-.436-.988-.436-.59 0-1.024.151-1.303.454-.28.303-.42.728-.42 1.274h-1.107l-.012-.035c-.02-.734.225-1.351.733-1.851s1.21-.75 2.11-.75c.765 0 1.375.223 1.83.67.455.448.683 1.017.683 1.709 0 .464-.138.93-.413 1.397-.276.467-.661.968-1.157 1.503l-2.245 2.443.012.03h4.102V25Zm46.051-4.799h1.007c.512 0 .874-.128 1.087-.384.213-.255.32-.612.32-1.069 0-.488-.122-.86-.364-1.113-.242-.254-.6-.381-1.072-.381-.45 0-.81.132-1.081.395-.272.264-.407.615-.407 1.052h-1.108l-.011-.035c-.02-.645.213-1.192.7-1.644.486-.45 1.122-.676 1.907-.676.79 0 1.418.21 1.887.63.468.42.703 1.018.703 1.795 0 .352-.107.703-.32 1.052-.212.35-.532.616-.957.8.511.168.874.432 1.086.791.213.36.32.762.32 1.207 0 .777-.255 1.389-.765 1.834-.51.445-1.161.668-1.954.668-.777 0-1.42-.21-1.93-.63-.51-.42-.756-.99-.736-1.708l.018-.035h1.101c0 .45.138.807.413 1.072.276.266.654.399 1.134.399.488 0 .871-.133 1.148-.399.278-.265.416-.658.416-1.177 0-.528-.123-.916-.369-1.166-.246-.25-.634-.375-1.166-.375h-1.007V20.2ZM342.345 25h-5.532v-.791l2.795-3.105c.5-.56.84-1.002 1.017-1.33.178-.329.267-.665.267-1.008 0-.426-.124-.785-.372-1.076-.249-.29-.578-.436-.988-.436-.59 0-1.024.151-1.303.454-.28.303-.42.728-.42 1.274h-1.107l-.012-.035c-.02-.734.225-1.351.733-1.851s1.21-.75 2.11-.75c.765 0 1.375.223 1.83.67.455.448.683 1.017.683 1.709 0 .464-.138.93-.413 1.397-.276.467-.661.968-1.157 1.503l-2.245 2.443.012.03h4.102V25Zm-53.949-4.799h1.007c.512 0 .874-.128 1.087-.384.213-.255.32-.612.32-1.069 0-.488-.122-.86-.364-1.113-.242-.254-.6-.381-1.072-.381-.45 0-.81.132-1.081.395-.272.264-.407.615-.407 1.052h-1.108l-.011-.035c-.02-.645.213-1.192.7-1.644.486-.45 1.122-.676 1.907-.676.79 0 1.418.21 1.887.63.468.42.703 1.018.703 1.795 0 .352-.107.703-.32 1.052-.212.35-.532.616-.957.8.511.168.874.432 1.086.791.213.36.32.762.32 1.207 0 .777-.255 1.389-.765 1.834-.51.445-1.161.668-1.954.668-.777 0-1.42-.21-1.93-.63-.51-.42-.756-.99-.736-1.708l.018-.035h1.101c0 .45.138.807.413 1.072.276.266.654.399 1.134.399.488 0 .871-.133 1.148-.399.278-.265.416-.658.416-1.177 0-.528-.123-.916-.369-1.166-.246-.25-.634-.375-1.166-.375h-1.007V20.2Zm-46.971 1.928h1.178v.902h-1.178V25h-1.149v-1.969h-3.832v-.65l3.762-5.912h1.219v5.66Zm-3.75 0h2.601v-4.002l-.035-.006-.111.293-2.455 3.715Zm-50.528-.979.493-4.681h4.271v1.025h-3.293l-.281 2.397c.18-.133.38-.244.6-.331.221-.088.476-.136.765-.144.785-.008 1.403.248 1.855.768.45.52.676 1.218.676 2.097 0 .856-.23 1.543-.688 2.063-.46.52-1.128.779-2.007.779-.723 0-1.324-.197-1.805-.592-.48-.394-.71-.974-.691-1.74l.012-.035h1.043c0 .465.133.825.401 1.08.268.257.614.385 1.04.385.488 0 .867-.172 1.137-.516.27-.344.404-.814.404-1.412 0-.547-.137-.996-.41-1.348-.273-.351-.65-.527-1.13-.527-.454 0-.782.068-.985.205-.203.137-.352.346-.446.627l-.96-.1Zm-47.07-4.804c.293 0 .583.033.87.1.287.066.525.15.712.251l-.246.885a3.4 3.4 0 0 0-.6-.237 2.656 2.656 0 0 0-.736-.091c-.61 0-1.1.244-1.473.732-.374.489-.56 1.125-.56 1.91v.135c.25-.219.536-.39.858-.512a2.891 2.891 0 0 1 1.04-.185c.762 0 1.37.264 1.823.791.453.527.68 1.195.68 2.004 0 .883-.242 1.602-.724 2.16-.483.556-1.126.834-1.931.834-.836 0-1.527-.303-2.074-.908-.547-.606-.82-1.46-.82-2.56v-1.63c0-1.093.304-1.98.914-2.66.609-.68 1.365-1.02 2.267-1.02Zm-.392 3.85c-.395 0-.73.08-1.008.24a1.63 1.63 0 0 0-.633.638v.692c0 .785.166 1.39.498 1.816.332.426.748.639 1.248.639.473 0 .84-.2 1.105-.6.263-.401.395-.898.395-1.492 0-.563-.142-1.025-.425-1.389-.283-.363-.677-.545-1.18-.545Zm-47.34-2.819c-1.032 1.227-1.728 2.313-2.09 3.26-.36.948-.621 2.095-.781 3.443l-.094.92h-1.154l.093-.92c.164-1.344.483-2.545.955-3.603.473-1.059 1.12-2.092 1.94-3.1h-4.64v-.908h5.77v.908Zm700 0c-1.032 1.227-1.728 2.313-2.09 3.26-.36.948-.621 2.095-.781 3.443l-.094.92h-1.154l.093-.92c.164-1.344.483-2.545.955-3.603.473-1.059 1.12-2.092 1.94-3.1h-4.64v-.908h5.77v.908Zm-52.268-1.031c.293 0 .583.033.87.1.287.066.525.15.712.251l-.246.885a3.4 3.4 0 0 0-.6-.237 2.656 2.656 0 0 0-.736-.091c-.61 0-1.1.244-1.473.732-.374.489-.56 1.125-.56 1.91v.135c.25-.219.536-.39.858-.512a2.891 2.891 0 0 1 1.04-.185c.762 0 1.37.264 1.823.791.453.527.68 1.195.68 2.004 0 .883-.242 1.602-.724 2.16-.483.556-1.126.834-1.931.834-.836 0-1.527-.303-2.074-.908-.547-.606-.82-1.46-.82-2.56v-1.63c0-1.093.304-1.98.914-2.66.609-.68 1.365-1.02 2.267-1.02Zm-.392 3.85c-.395 0-.73.08-1.008.24a1.63 1.63 0 0 0-.633.638v.692c0 .785.166 1.39.498 1.816.332.426.748.639 1.248.639.473 0 .84-.2 1.105-.6.263-.401.395-.898.395-1.492 0-.563-.142-1.025-.425-1.389-.283-.363-.677-.545-1.18-.545Zm-98.26 1.933h1.178v.902h-1.178V25h-1.149v-1.969h-3.832v-.65l3.762-5.912h1.219v5.66Zm-3.75 0h2.601v-4.002l-.035-.006-.111.293-2.455 3.715Zm49.472-.979.493-4.681h4.271v1.025h-3.293l-.281 2.397c.18-.133.38-.244.6-.331.221-.088.476-.136.765-.144.785-.008 1.403.248 1.855.768.45.52.676 1.218.676 2.097 0 .856-.23 1.543-.688 2.063-.46.52-1.128.779-2.007.779-.723 0-1.324-.197-1.805-.592-.48-.394-.71-.974-.691-1.74l.012-.035h1.043c0 .465.133.825.401 1.08.268.257.614.385 1.04.385.488 0 .867-.172 1.137-.516.27-.344.404-.814.404-1.412 0-.547-.137-.996-.41-1.348-.273-.351-.65-.527-1.13-.527-.454 0-.782.068-.985.205-.203.137-.352.346-.446.627l-.96-.1ZM390.112 25h-1.154v-7.406l-1.746.023v-.832l2.9-.316zm52.101-3.252c0 1.09-.241 1.925-.724 2.505-.482.58-1.143.87-1.983.87-.84 0-1.504-.291-1.992-.873-.489-.582-.733-1.416-.733-2.502v-2.021c0-1.086.243-1.921.73-2.505.486-.584 1.147-.876 1.983-.876.84 0 1.503.292 1.99.876.486.584.729 1.419.729 2.505v2.021Zm-1.154-2.268c0-.738-.134-1.293-.402-1.667-.267-.373-.655-.56-1.163-.56s-.894.187-1.16.56c-.266.374-.398.93-.398 1.667v2.502c0 .739.134 1.296.404 1.673s.658.566 1.166.566c.508 0 .893-.188 1.157-.563.264-.375.396-.933.396-1.676V19.48Z" /><path fill="#FBC02D" d="M180.345 27.134c13.112 129.11 120.508 230.348 252.25 233.776L439.5 254l6.906 6.91c131.737-3.428 239.13-104.658 252.248-233.761l29.845 3.082c-14.646 144.053-134.54 256.983-281.566 260.676L439.5 298l-7.432-7.093C285.06 287.215 165.18 174.315 150.508 30.29l29.837-3.156Z" /><path fill="#1B192C" fill-rule="nonzero" d="M487.473 268.105a1.9 1.9 0 0 1-.167 1.216 2.236 2.236 0 0 1-.868.912c.514.083.949.28 1.303.591.354.31.573.702.656 1.175.137.777-.011 1.415-.445 1.914-.433.5-1.054.82-1.862.962-.823.145-1.522.057-2.096-.264-.574-.32-.93-.87-1.067-1.647a1.998 1.998 0 0 1 .206-1.328c.221-.411.559-.745 1.014-1a2.161 2.161 0 0 1-1.117-.561 1.938 1.938 0 0 1-.56-1.088c-.13-.739-.003-1.35.382-1.832s.952-.79 1.702-.922c.74-.13 1.378-.035 1.916.284.538.32.872.849 1.003 1.588Zm-.21 4.07c-.082-.461-.3-.813-.657-1.056-.356-.242-.767-.323-1.232-.24-.474.083-.831.299-1.073.647-.242.348-.323.753-.241 1.214.084.477.296.826.636 1.045.34.22.753.287 1.238.202.473-.084.833-.288 1.081-.614.248-.325.33-.724.247-1.197Zm-.923-3.847c-.073-.415-.264-.737-.572-.964a1.32 1.32 0 0 0-1.056-.236c-.404.07-.707.26-.911.568-.204.308-.267.679-.19 1.113.075.427.261.748.559.96.297.214.65.285 1.057.213.4-.07.705-.257.913-.56.209-.302.275-.667.2-1.094Zm8.489 1.579c.19 1.074.097 1.938-.278 2.593-.374.655-.975 1.055-1.802 1.201-.827.146-1.531-.025-2.113-.514-.582-.488-.968-1.267-1.156-2.336l-.351-1.991c-.189-1.07-.094-1.934.283-2.594.378-.66.978-1.062 1.801-1.207.828-.146 1.531.027 2.112.517.58.491.964 1.271 1.153 2.34l.351 1.991Zm-1.53-2.032c-.129-.727-.357-1.251-.685-1.572-.329-.321-.743-.438-1.243-.35-.5.089-.848.34-1.045.753-.197.414-.231.984-.103 1.71l.434 2.465c.129.727.358 1.253.689 1.577.33.325.746.443 1.247.354.5-.088.847-.34 1.041-.754.195-.416.228-.989.099-1.72l-.434-2.463ZM383.548 273.1l-1.137-.2 1.286-7.295-1.723-.28.144-.819 2.911.192zm9.29-1.664c-.19 1.073-.572 1.853-1.148 2.34-.576.488-1.277.66-2.104.513-.827-.146-1.43-.548-1.81-1.206-.38-.657-.476-1.521-.288-2.59l.352-1.991c.188-1.07.573-1.85 1.153-2.34.58-.491 1.282-.664 2.105-.519.827.146 1.43.549 1.807 1.208.378.66.472 1.524.284 2.594l-.351 1.99Zm-.743-2.434c.128-.727.093-1.298-.106-1.711-.199-.414-.548-.665-1.048-.753-.5-.089-.914.028-1.24.35-.327.32-.554.845-.682 1.572l-.434 2.464c-.129.727-.093 1.3.107 1.717.2.418.55.671 1.05.76.5.088.913-.03 1.238-.353.324-.324.551-.851.68-1.582l.435-2.464Zm7.402 3.608c-.19 1.073-.572 1.853-1.148 2.34-.576.488-1.277.66-2.104.513-.827-.145-1.43-.547-1.81-1.205-.38-.658-.476-1.522-.288-2.591l.351-1.991c.19-1.07.574-1.85 1.154-2.34.58-.491 1.282-.664 2.105-.519.827.146 1.43.549 1.807 1.208.378.66.472 1.525.284 2.594l-.351 1.99Zm-.743-2.434c.128-.727.093-1.297-.106-1.711-.199-.414-.548-.665-1.048-.753-.5-.088-.914.028-1.24.35-.327.32-.554.845-.682 1.572l-.434 2.464c-.129.727-.093 1.3.107 1.717.2.418.55.672 1.05.76.5.088.913-.03 1.238-.353.324-.324.551-.851.68-1.582l.435-2.464Zm-61.448-10.6-1.085-.395 2.533-6.96-1.65-.574.285-.782 2.835.695zm6.348 2.311-1.085-.395 2.533-6.96-1.648-.575.284-.781 2.834.694zm9.437-.026c-.373 1.024-.885 1.727-1.537 2.107-.651.38-1.372.426-2.161.139-.79-.287-1.314-.788-1.573-1.502-.26-.714-.204-1.581.167-2.601l.691-1.9c.372-1.02.886-1.722 1.543-2.104.656-.383 1.377-.431 2.163-.145.79.287 1.312.788 1.57 1.503.257.716.2 1.583-.172 2.604l-.69 1.9Zm-.309-2.525c.252-.694.317-1.262.193-1.704-.124-.442-.424-.75-.902-.924-.477-.173-.904-.13-1.281.13-.377.26-.692.736-.945 1.43l-.855 2.35c-.253.694-.317 1.264-.193 1.71.125.447.425.757.903.931.477.174.903.13 1.28-.133.375-.262.69-.742.944-1.44l.856-2.35ZM294.63 238.17l-1-.578 3.704-6.413-1.524-.853.416-.72 2.67 1.176zm7.785 4.494-4.79-2.766.395-.685 3.973-1.292c.713-.234 1.228-.448 1.546-.643.318-.196.563-.442.735-.74.212-.369.284-.74.215-1.117-.07-.376-.282-.667-.637-.872-.51-.295-.963-.38-1.356-.258-.393.122-.727.42-1 .894l-.959-.554.007-.036c.35-.646.87-1.058 1.56-1.237.69-.18 1.424-.044 2.202.405.663.383 1.08.881 1.25 1.496.171.615.083 1.222-.262 1.82-.233.403-.585.738-1.057 1.005-.472.266-1.056.507-1.753.722l-3.166.994-.004.032 3.552 2.05-.451.782Zm7.365.497c-.545.944-1.171 1.546-1.88 1.808-.707.26-1.425.181-2.152-.239-.727-.42-1.157-1.004-1.289-1.752-.132-.748.074-1.592.617-2.533l1.01-1.75c.544-.94 1.172-1.542 1.885-1.805.713-.263 1.432-.185 2.156.233.727.42 1.155 1.004 1.284 1.753.13.75-.077 1.594-.62 2.534l-1.011 1.751Zm.134-2.54c.37-.64.531-1.188.486-1.645-.045-.457-.288-.812-.728-1.066s-.868-.286-1.284-.096c-.417.19-.81.605-1.179 1.245l-1.25 2.166c-.37.64-.532 1.19-.487 1.651.045.461.287.819.727 1.073s.868.284 1.284.091c.415-.193.809-.61 1.18-1.253l1.251-2.167Zm-53.263-30.585-.884-.741 4.76-5.674-1.352-1.104.535-.638 2.425 1.622zm6.945-.436.772.647c.392.33.752.464 1.08.405.327-.06.637-.264.931-.614.314-.374.46-.736.438-1.086-.023-.35-.215-.677-.577-.981-.344-.289-.705-.42-1.082-.392-.378.027-.707.209-.988.544l-.849-.712.014-.034c.4-.507.93-.776 1.593-.81.662-.032 1.294.203 1.896.708.604.507.951 1.072 1.04 1.695.09.623-.116 1.233-.616 1.828-.226.27-.532.47-.92.6-.388.132-.804.13-1.248-.003.284.458.392.893.324 1.305a2.323 2.323 0 0 1-.531 1.13c-.5.595-1.088.9-1.765.913-.677.014-1.319-.234-1.926-.744-.596-.5-.954-1.074-1.074-1.724-.12-.649.057-1.243.534-1.78l.036-.016.844.708c-.289.344-.413.706-.373 1.087.04.38.245.725.613 1.034.374.314.752.458 1.136.433.383-.025.741-.237 1.075-.635.34-.404.495-.78.467-1.13-.028-.35-.245-.696-.652-1.037l-.772-.648.58-.691Zm7.107 7.983c-.7.835-1.422 1.32-2.164 1.454-.742.134-1.435-.069-2.079-.609-.643-.54-.965-1.19-.965-1.95 0-.759.35-1.555 1.048-2.387l1.299-1.548c.698-.832 1.42-1.315 2.169-1.45.748-.135 1.442.066 2.082.604.644.54.964 1.19.961 1.95-.003.76-.353 1.555-1.051 2.387l-1.3 1.549Zm.574-2.48c.474-.565.729-1.076.764-1.534.035-.458-.143-.85-.532-1.176-.389-.327-.805-.433-1.248-.318-.443.115-.902.456-1.377 1.021l-1.608 1.917c-.474.566-.73 1.08-.765 1.541-.036.462.14.857.53 1.183.388.326.804.43 1.247.313.443-.118.903-.461 1.38-1.03l1.609-1.916Zm-50.139-42.12-.742-.884 5.673-4.76-1.14-1.323.638-.535 2.106 2.019zm7.385 4.336.757.902-.69.58-.758-.902-1.508 1.265-.738-.88 1.508-1.265-2.463-2.936.498-.418 6.947-.918.783.933-4.336 3.639Zm-2.41-2.873 1.672 1.993 3.066-2.573-.018-.03-.296.103-4.424.507Zm7.553 8.409c-.835.7-1.63 1.053-2.384 1.056-.754.003-1.401-.317-1.941-.96-.54-.644-.744-1.34-.612-2.088s.614-1.47 1.446-2.169l1.548-1.3c.832-.697 1.628-1.048 2.388-1.05.76-.003 1.409.315 1.946.956.54.643.742 1.339.608 2.087-.135.748-.618 1.47-1.45 2.169l-1.549 1.3Zm.995-2.342c.566-.474.906-.934 1.02-1.379.113-.445.007-.861-.32-1.25-.326-.39-.718-.566-1.174-.53-.457.037-.968.292-1.533.767l-1.917 1.608c-.565.475-.906.936-1.021 1.385-.116.449-.01.868.316 1.257.326.389.718.564 1.175.525.457-.04.97-.297 1.538-.775l1.916-1.608Zm-38.769-45.643-.577-1 6.415-3.704-.894-1.5.72-.416 1.725 2.353zm5.23 1.357 4.3-1.914 2.136 3.699-.888.513-1.646-2.852-2.216.955c.204.089.4.207.587.354.186.147.355.344.506.59.4.677.487 1.34.263 1.99-.225.65-.717 1.196-1.478 1.635-.741.428-1.451.573-2.13.435-.68-.137-1.24-.587-1.68-1.348-.36-.626-.49-1.245-.389-1.859.101-.613.489-1.103 1.161-1.469l.037-.007.521.903c-.402.233-.648.529-.735.888-.088.36-.026.724.187 1.093.244.423.583.665 1.015.726.433.062.908-.057 1.425-.355.474-.274.795-.617.962-1.03.168-.412.132-.826-.108-1.243-.227-.392-.45-.642-.67-.75-.22-.107-.475-.131-.766-.072l-.394-.882Zm5.394 10.539c-.943.545-1.787.754-2.53.626-.744-.128-1.326-.555-1.746-1.283-.42-.727-.5-1.448-.24-2.161.26-.714.86-1.343 1.8-1.886l1.751-1.01c.94-.543 1.785-.75 2.534-.621.75.129 1.333.556 1.75 1.28.42.727.5 1.447.237 2.16-.263.713-.864 1.342-1.805 1.884l-1.75 1.011Zm1.387-2.133c.64-.37 1.054-.763 1.243-1.181.19-.419.157-.848-.097-1.287-.254-.44-.609-.682-1.065-.725-.455-.044-1.003.119-1.642.488l-2.167 1.251c-.64.37-1.055.765-1.247 1.187-.191.422-.16.852.094 1.292.253.44.609.68 1.065.721.457.041 1.007-.124 1.65-.495l2.166-1.251Zm-32.58-55.603-.394-1.085 6.96-2.533-.62-1.633.782-.285 1.289 2.617zm10.432 3.355c.1.275.168.559.204.851.035.293.038.545.006.755l-.915.072a3.4 3.4 0 0 0 .017-.646 2.656 2.656 0 0 0-.166-.722c-.208-.572-.606-.95-1.192-1.134-.587-.184-1.249-.141-1.986.127l-.127.047c.291.16.55.37.775.63.226.262.402.566.53.915.26.716.22 1.377-.12 1.983-.341.606-.891 1.047-1.651 1.324-.83.302-1.589.321-2.277.059-.688-.263-1.17-.773-1.445-1.53-.286-.785-.238-1.538.144-2.259.382-.72 1.09-1.27 2.126-1.647l1.53-.557c1.028-.374 1.966-.39 2.813-.05.847.34 1.425.934 1.734 1.782Zm-3.752.947c-.135-.37-.325-.659-.57-.865a1.63 1.63 0 0 0-.817-.376l-.65.237c-.738.268-1.25.631-1.536 1.089-.287.458-.345.921-.174 1.391.162.444.476.722.942.833.467.11.979.064 1.537-.139.529-.192.915-.483 1.16-.874.244-.39.28-.822.108-1.296Zm1.717 9.258c-1.024.373-1.891.432-2.601.177s-1.209-.777-1.496-1.566c-.287-.79-.241-1.513.139-2.17.38-.659 1.08-1.173 2.1-1.545l1.9-.691c1.02-.371 1.888-.428 2.603-.171.715.257 1.216.778 1.502 1.564.287.79.24 1.512-.143 2.169-.382.657-1.084 1.17-2.104 1.542l-1.9.691Zm1.736-1.86c.694-.252 1.17-.568 1.43-.947.258-.38.301-.807.127-1.284-.173-.478-.48-.777-.922-.9-.442-.121-1.01-.056-1.703.197l-2.351.855c-.694.253-1.172.57-1.434.952s-.306.812-.132 1.29c.173.477.482.775.924.894.443.12 1.013.053 1.71-.201l2.351-.856Zm-21.579-59.646-.2-1.136 7.293-1.286-.326-1.716.82-.144.814 2.8zm9.068 7.528c-1.387-.802-2.578-1.3-3.574-1.49-.996-.192-2.17-.25-3.526-.173l-.922.067-.2-1.136.922-.068c1.352-.072 2.59.033 3.714.315 1.125.282 2.255.739 3.39 1.372l-.806-4.57.894-.158 1.002 5.684-.894.157Zm-3.154 7.286c-1.073.189-1.937.096-2.592-.278s-1.056-.975-1.202-1.802c-.146-.827.026-1.532.514-2.114.489-.582 1.267-.967 2.337-1.155l1.99-.352c1.07-.188 1.935-.094 2.594.284.66.377 1.062.978 1.207 1.801.146.827-.026 1.53-.517 2.111-.49.58-1.27.965-2.34 1.154l-1.99.35Zm2.033-1.53c.727-.13 1.25-.357 1.572-.686.32-.328.437-.742.349-1.242-.088-.5-.34-.849-.753-1.046-.413-.196-.983-.23-1.71-.102l-2.465.434c-.727.128-1.252.358-1.577.689-.324.33-.442.746-.354 1.246.088.5.34.848.755 1.042.415.195.988.227 1.719.099l2.464-.435Zm359.867 200.331c-.55 1.505-.832 2.764-.848 3.778-.015 1.014.132 2.181.443 3.503l.226.896-1.085.395-.226-.897c-.305-1.318-.417-2.556-.335-3.713.082-1.156.336-2.348.762-3.576l-4.36 1.588-.311-.854 5.423-1.974.311.854Zm7.722 1.841c.373 1.024.432 1.89.177 2.6-.255.711-.777 1.21-1.566 1.497-.79.287-1.513.24-2.17-.14-.659-.379-1.173-1.08-1.545-2.1l-.691-1.9c-.372-1.02-.429-1.887-.171-2.603.257-.715.778-1.215 1.564-1.501.789-.287 1.512-.24 2.169.143.656.382 1.17 1.084 1.542 2.104l.691 1.9Zm-1.86-1.736c-.252-.694-.568-1.17-.947-1.43-.38-.259-.807-.301-1.285-.128-.477.174-.776.482-.898.923-.122.441-.057 1.009.195 1.703l.856 2.35c.253.695.57 1.172.952 1.434.382.263.812.307 1.29.133.476-.174.775-.482.894-.924.12-.443.053-1.013-.201-1.71l-.856-2.351Zm32.505-18.537a3.85 3.85 0 0 1 .803-.349c.282-.086.53-.132.743-.138l.229.89a3.4 3.4 0 0 0-.639.095 2.656 2.656 0 0 0-.682.289c-.528.304-.831.761-.91 1.37-.079.61.078 1.255.47 1.935l.068.116c.107-.314.27-.605.487-.873.217-.267.487-.494.808-.68.66-.38 1.318-.456 1.974-.226.656.23 1.186.696 1.59 1.396.442.764.593 1.508.453 2.232-.14.723-.557 1.286-1.254 1.688-.724.418-1.474.502-2.25.25-.777-.25-1.44-.853-1.991-1.807l-.815-1.41c-.547-.948-.726-1.868-.538-2.761.188-.894.672-1.566 1.454-2.017Zm1.585 3.53c-.342.197-.593.435-.753.712a1.63 1.63 0 0 0-.229.87l.346.598c.393.68.84 1.122 1.34 1.324.5.203.967.18 1.4-.07.409-.237.628-.594.656-1.073.028-.478-.106-.975-.403-1.489-.281-.487-.636-.817-1.062-.99-.427-.173-.859-.134-1.295.118Zm8.819-3.299c.545.944.753 1.788.626 2.531-.128.744-.556 1.326-1.283 1.746-.727.42-1.448.5-2.162.24s-1.342-.86-1.885-1.8l-1.01-1.751c-.544-.94-.75-1.786-.621-2.535.129-.748.555-1.332 1.28-1.75.727-.42 1.447-.498 2.16-.236.713.263 1.341.864 1.884 1.805l1.01 1.75Zm-2.134-1.386c-.369-.64-.762-1.054-1.18-1.243-.419-.19-.848-.157-1.288.097-.44.254-.681.608-.725 1.064-.043.456.12 1.004.489 1.643l1.25 2.167c.37.64.765 1.055 1.187 1.247.422.191.853.16 1.293-.094.44-.254.68-.609.72-1.066.042-.456-.123-1.006-.495-1.649l-1.25-2.166Zm32.445-20.388-2.632-3.903 3.272-2.745.66.785-2.523 2.117 1.325 2.016c.052-.217.135-.43.247-.64.113-.208.277-.409.494-.6.596-.511 1.234-.713 1.914-.605.68.108 1.301.499 1.866 1.172.55.655.816 1.33.799 2.023-.018.693-.363 1.322-1.037 1.887-.553.464-1.14.7-1.763.706-.621.007-1.17-.29-1.648-.888l-.013-.035.799-.67c.298.356.632.546 1.002.57.37.024.717-.101 1.043-.375.374-.314.554-.689.54-1.125-.015-.437-.214-.884-.598-1.342-.352-.419-.745-.675-1.18-.769-.436-.093-.838.014-1.206.323-.347.291-.555.555-.622.79-.068.235-.047.49.062.767l-.8.541Zm9.442-7.143c.701.835 1.053 1.63 1.056 2.384.004.755-.316 1.402-.96 1.942-.643.54-1.339.744-2.087.612-.748-.132-1.471-.614-2.17-1.446l-1.299-1.549c-.698-.832-1.048-1.628-1.051-2.388-.003-.76.316-1.408.956-1.946.644-.54 1.34-.742 2.087-.607.748.135 1.471.618 2.17 1.45l1.298 1.548Zm-2.341-.995c-.475-.565-.935-.905-1.38-1.019-.444-.114-.861-.007-1.25.32-.389.326-.565.717-.529 1.174.036.456.292.967.766 1.533l1.609 1.916c.474.566.936.906 1.384 1.022.45.115.868.01 1.257-.316.39-.327.564-.718.525-1.175-.039-.457-.297-.97-.774-1.538l-1.608-1.917Zm31.788-28.507.758-.902.69.58-.756.902 1.508 1.265-.738.88-1.508-1.265-2.464 2.935-.498-.418-2.11-6.682.783-.933 4.335 3.638Zm-2.41 2.873 1.672-1.993-3.065-2.573-.027.023.152.274 1.268 4.269Zm6.97-8.899c.835.7 1.32 1.422 1.453 2.164.135.743-.068 1.436-.608 2.079-.54.643-1.19.965-1.95.965-.759 0-1.555-.35-2.387-1.047l-1.548-1.3c-.832-.698-1.315-1.42-1.45-2.169-.135-.748.066-1.442.604-2.082.54-.643 1.19-.964 1.95-.96.76.002 1.555.352 2.387 1.05l1.549 1.3Zm-2.48-.574c-.565-.474-1.076-.729-1.534-.764-.458-.034-.85.143-1.177.532-.326.389-.432.805-.317 1.248.115.443.456.902 1.021 1.377l1.917 1.608c.565.475 1.08.73 1.541.766.462.035.856-.141 1.183-.53.326-.39.43-.805.313-1.248-.118-.443-.461-.903-1.03-1.38l-1.916-1.609Zm21.897-29.802.503-.873c.256-.443.327-.82.212-1.133-.116-.312-.371-.583-.767-.811-.423-.244-.805-.325-1.146-.242-.34.083-.63.329-.866.738-.224.389-.29.767-.198 1.134.093.367.329.66.708.879l-.554.959-.036-.008c-.568-.305-.926-.781-1.074-1.428-.147-.647-.025-1.31.368-1.99.394-.683.89-1.123 1.489-1.32.598-.195 1.233-.099 1.907.29.304.176.554.443.75.802.197.36.268.77.214 1.23.402-.36.811-.541 1.229-.546.418-.005.82.104 1.205.327.673.389 1.075.915 1.206 1.58.13.663-.002 1.339-.399 2.026-.388.673-.892 1.125-1.51 1.357-.62.231-1.235.159-1.847-.218l-.022-.032.55-.954c.39.224.768.284 1.136.178.368-.106.672-.367.912-.783.244-.422.32-.82.229-1.193-.091-.373-.362-.69-.812-.95-.457-.263-.855-.351-1.194-.263-.34.088-.643.362-.908.822l-.504.873-.781-.451Zm6.627-8.386c.944.545 1.547 1.172 1.808 1.88.26.707.181 1.425-.238 2.152-.42.727-1.004 1.157-1.753 1.289-.748.132-1.592-.074-2.533-.617l-1.75-1.01c-.94-.544-1.542-1.172-1.805-1.885-.262-.713-.185-1.431.233-2.155.42-.728 1.005-1.156 1.754-1.285.748-.13 1.593.078 2.534.62l1.75 1.011Zm-2.54-.134c-.64-.369-1.188-.531-1.645-.486-.457.045-.812.288-1.066.728s-.286.868-.096 1.284c.19.417.605.81 1.245 1.179l2.167 1.25c.639.37 1.19.532 1.65.487.462-.045.82-.287 1.073-.727.254-.44.284-.868.092-1.284-.193-.415-.611-.809-1.254-1.18l-2.167-1.25Zm23.668-37.848-1.892 5.197-.743-.27-1.963-3.689c-.354-.66-.654-1.13-.902-1.41a2.092 2.092 0 0 0-.856-.595c-.4-.146-.779-.152-1.137-.018-.359.133-.608.393-.748.778-.202.555-.208 1.015-.02 1.38.19.367.541.643 1.055.83l-.379 1.04h-.037c-.697-.233-1.193-.673-1.49-1.322-.295-.648-.29-1.394.017-2.238.262-.72.681-1.217 1.257-1.491.576-.275 1.189-.294 1.839-.058.436.16.827.448 1.171.866.345.419.684.953 1.017 1.602l1.528 2.944h.032L700.546 95l.848.309Zm-.79-7.339c1.025.372 1.727.884 2.107 1.536.38.652.426 1.372.139 2.161-.287.79-.788 1.314-1.502 1.574s-1.58.204-2.601-.168l-1.9-.691c-1.02-.371-1.722-.886-2.104-1.542-.383-.657-.43-1.378-.145-2.164.287-.789.788-1.312 1.504-1.57.715-.257 1.582-.2 2.603.172l1.9.691Zm-2.525.308c-.694-.252-1.262-.316-1.704-.193-.442.124-.75.425-.924.902-.173.477-.13.904.13 1.282.26.377.736.692 1.43.944l2.35.856c.694.252 1.265.316 1.711.192.446-.124.756-.425.93-.902.174-.477.13-.904-.133-1.28-.262-.376-.742-.691-1.44-.945l-2.35-.856Zm15.499-37.297-.2 1.137-7.294-1.286-.28 1.723-.82-.144.193-2.911zm-1.664-9.289c1.073.189 1.853.571 2.34 1.147.488.576.66 1.277.513 2.104-.145.828-.547 1.431-1.205 1.81-.658.38-1.522.476-2.591.288l-1.991-.351c-1.07-.189-1.85-.573-2.34-1.154-.491-.58-.664-1.282-.519-2.105.146-.827.549-1.43 1.208-1.807.66-.378 1.524-.472 2.594-.284l1.99.352Zm-2.434.743c-.727-.129-1.297-.093-1.711.105-.414.2-.665.548-.753 1.049-.088.5.028.913.35 1.24.32.326.845.553 1.572.681l2.464.435c.727.128 1.3.092 1.717-.108.418-.2.672-.55.76-1.05.088-.5-.03-.913-.353-1.238-.324-.324-.851-.551-1.582-.68l-2.464-.434ZM435.735 278.22c.563 0 1.013-.212 1.35-.638.339-.426.508-1.059.508-1.898v-.387a1.88 1.88 0 0 1-.718.63 2.124 2.124 0 0 1-.958.214c-.824 0-1.479-.255-1.963-.765s-.726-1.212-.726-2.106c0-.856.256-1.557.77-2.104.514-.547 1.138-.82 1.872-.82.89 0 1.593.278 2.107.835.513.556.77 1.376.77 2.458v2.033c0 1.113-.278 1.967-.835 2.56-.557.594-1.282.891-2.177.891-.3 0-.606-.028-.917-.085a3.322 3.322 0 0 1-.835-.26l.176-.885c.23.12.47.206.718.254.248.05.534.074.858.074Zm.182-2.982c.426 0 .78-.092 1.063-.275.284-.184.488-.418.613-.703v-.739c0-.746-.144-1.31-.43-1.693-.288-.383-.707-.574-1.258-.574-.422 0-.781.188-1.078.565-.297.377-.445.86-.445 1.45 0 .586.138 1.061.413 1.424.275.364.65.545 1.122.545Zm9.673.51c0 1.09-.24 1.925-.723 2.505-.482.58-1.143.87-1.983.87-.84 0-1.504-.291-1.992-.873-.489-.582-.733-1.416-.733-2.502v-2.021c0-1.086.243-1.921.73-2.505.486-.584 1.147-.876 1.983-.876.84 0 1.503.292 1.99.876.486.584.729 1.419.729 2.505v2.021Zm-1.153-2.268c0-.738-.134-1.293-.402-1.667-.267-.373-.655-.56-1.163-.56s-.894.187-1.16.56c-.266.374-.399.93-.399 1.667v2.502c0 .739.135 1.296.405 1.673s.658.566 1.166.566c.508 0 .893-.188 1.157-.563.264-.375.396-.933.396-1.676v-2.502Z" /><path fill="#1C1C1F" d="M439 34h1v164h-1zm0 172h1v25h-1zM318 50h13v1h-13zm6-20h7v1h-7zm0 5h7v1h-7zm0 5h7v1h-7zm0 5h7v1h-7zm0 10h7v1h-7zm0 10h7v1h-7zm0-5h7v1h-7zm-6 15h13v1h-13zm6-5h7v1h-7zm0 10h7v1h-7zm0 5h7v1h-7zm0 5h7v1h-7zm-6 10h13v1h-13zm6-5h7v1h-7zm0 10h7v1h-7zm0 5h7v1h-7zm0 5h7v1h-7zm-6 10h13v1h-13zm6-5h7v1h-7zm0 15h7v1h-7zm0-5h7v1h-7zm-6 20h13v1h-13zm6-5h7v1h-7zm0-5h7v1h-7zm0 25h7v1h-7zm0 5h7v1h-7zm0-10h7v1h-7zm0-5h7v1h-7z" /><path fill="#1B192C" fill-rule="nonzero" d="M313.112 55h-1.154v-7.406l-1.746.023v-.832l2.9-.316zm2.233 50h-5.532v-.791l2.795-3.105c.5-.56.84-1.002 1.017-1.33.178-.329.267-.665.267-1.008 0-.426-.124-.785-.372-1.076-.249-.29-.578-.436-.988-.436-.59 0-1.024.151-1.303.454-.28.303-.42.728-.42 1.274h-1.107l-.012-.035c-.02-.734.225-1.351.733-1.851s1.21-.75 2.11-.75c.765 0 1.375.223 1.83.67.455.448.683 1.017.683 1.709 0 .464-.138.93-.413 1.397-.276.467-.661.968-1.157 1.503l-2.245 2.443.012.03h4.102V105Zm-3.949 45.201h1.007c.512 0 .874-.128 1.087-.384.213-.255.32-.612.32-1.069 0-.488-.122-.86-.364-1.113-.242-.254-.6-.381-1.072-.381-.45 0-.81.132-1.081.395-.272.264-.407.615-.407 1.052h-1.108l-.011-.035c-.02-.645.213-1.192.7-1.644.486-.45 1.122-.676 1.907-.676.79 0 1.418.21 1.887.63.468.42.703 1.018.703 1.795 0 .352-.107.703-.32 1.052-.212.35-.532.616-.957.8.511.168.874.432 1.086.791.213.36.32.762.32 1.207 0 .777-.255 1.389-.765 1.834-.51.445-1.161.668-1.954.668-.777 0-1.42-.21-1.93-.63-.51-.42-.756-.99-.736-1.708l.018-.035h1.101c0 .45.138.807.413 1.072.276.266.654.399 1.134.399.488 0 .871-.133 1.148-.399.278-.265.416-.658.416-1.177 0-.528-.123-.916-.369-1.166-.246-.25-.634-.375-1.166-.375h-1.007v-.903Z" /><path fill="#1C1C1F" d="M548 70h7v1h-7zm0 85h7v1h-7zm0-10h7v1h-7zm0-5h7v1h-7zm0-20h7v1h-7zm0-45h13v1h-13zm0 60h7v1h-7zm0-30h7v1h-7zm0-10h7v1h-7zm0-60h7v1h-7zm0 130h7v1h-7zm0 5h7v1h-7zm0-125h7v1h-7zm0 65h7v1h-7zm0 15h13v1h-13zm0-70h7v1h-7zm0 25h7v1h-7zm0-15h7v1h-7zm0-25h7v1h-7zm0 120h7v1h-7zm0-10h13v1h-13zm0-60h7v1h-7zm0 40h7v1h-7zm0-100h7v1h-7zm0 30h7v1h-7zm0 40h13v1h-13zm0 15h7v1h-7zm0-30h7v1h-7zm0-35h13v1h-13z" /><path fill="#1B192C" fill-rule="nonzero" d="M569.345 105h-5.532v-.791l2.795-3.105c.5-.56.84-1.002 1.017-1.33.178-.329.267-.665.267-1.008 0-.426-.124-.785-.372-1.076-.249-.29-.578-.436-.988-.436-.59 0-1.024.151-1.303.454-.28.303-.42.728-.42 1.274h-1.107l-.012-.035c-.02-.734.225-1.351.733-1.851s1.21-.75 2.11-.75c.765 0 1.375.223 1.83.67.455.448.683 1.017.683 1.709 0 .464-.138.93-.413 1.397-.276.467-.661.968-1.157 1.503l-2.245 2.443.012.03h4.102V105Zm-3.949 45.201h1.007c.512 0 .874-.128 1.087-.384.213-.255.32-.612.32-1.069 0-.488-.122-.86-.364-1.113-.242-.254-.6-.381-1.072-.381-.45 0-.81.132-1.081.395-.272.264-.407.615-.407 1.052h-1.108l-.011-.035c-.02-.645.213-1.192.7-1.644.486-.45 1.122-.676 1.907-.676.79 0 1.418.21 1.887.63.468.42.703 1.018.703 1.795 0 .352-.107.703-.32 1.052-.212.35-.532.616-.957.8.511.168.874.432 1.086.791.213.36.32.762.32 1.207 0 .777-.255 1.389-.765 1.834-.51.445-1.161.668-1.954.668-.777 0-1.42-.21-1.93-.63-.51-.42-.756-.99-.736-1.708l.018-.035h1.101c0 .45.138.807.413 1.072.276.266.654.399 1.134.399.488 0 .871-.133 1.148-.399.278-.265.416-.658.416-1.177 0-.528-.123-.916-.369-1.166-.246-.25-.634-.375-1.166-.375h-1.007v-.903ZM567.112 55h-1.154v-7.406l-1.746.023v-.832l2.9-.316z" /><path fill="#1C1C1F" d="M572 50h60v1h-60zm-7 25h59v1h-59zm7 25h40v1h-40zm-7 25h30v1h-30zM247 50h60v1h-60zm20 50h40v1h-40zm17 25h30v1h-30zm-29-50h59v1h-59zm189-25h100v1H444zm-109 0h100v1H335zm109 25h100v1H444zm-109 0h100v1H335zm109 25h100v1H444zm-109 0h100v1H335zm109 25h100v1H444zm-109 0h100v1H335zm109 25h100v1H444zm-109 0h100v1H335zm109 25h93v1h-93zm-102 0h93v1h-93z" /><path stroke="#1C1C1F" d="m572.014 132.363 9.64 9.63m6.65 6.641 14.546 14.53m42.124 42.077 14.03 14.014M453.53 14.013l7.015 7.008m9.016 9.006 16.025 16.007m9.03 9.02 15.981 15.962m9.047 9.037 14.98 14.963m-191.115.975 15.964-15.964m9.008-9.008 15.996-15.996m8.98-8.98 16.011-16.011m9.002-9.002 7.018-7.018M219.999 219.501l14.16-14.16m42.133-42.133 14.473-14.473m6.706-6.706 9.527-9.527" /></g></g></svg>