<svg id="menu_view_cas" xmlns="http://www.w3.org/2000/svg" width="512" height="512" viewBox="0 0 512 512"><defs><style>.cls-1 { fill: #fff; } .cls-2 { fill: #99f; } .cls-3 { fill: #666; }</style></defs><title>cas</title><g><path class="cls-1" d="M150,0H462a50,50,0,0,1,50,50V462a50,50,0,0,1-50,50H150a0,0,0,0,1,0,0V0A0,0,0,0,1,150,0Z"/><path class="cls-2" d="M150,512H50A50,50,0,0,1,0,462V50A50,50,0,0,1,50,0H150Z"/></g><g><path class="cls-3" d="M361,347H304.93l-39.3-62.55L229.05,347H176.42L239,253.35,182.57,172h55.71l34.52,51.61L302.54,172h52.3l-55,81.35Z"/><path class="cls-3" d="M485.5,240h-109V219h109Zm0,61h-109V280h109Z"/></g></svg>
