<svg xmlns="http://www.w3.org/2000/svg" xmlns:xlink="http://www.w3.org/1999/xlink" viewBox="0 0 512 512"><path d="M512 462c0 27.614-22.386 50-50 50H50c-27.614 0-50-22.386-50-50V50C0 22.386 22.386 0 50 0h412c27.614 0 50 22.386 50 50v412z" fill="#FFF"/><defs><path id="k" d="M485 440.24c0 24.72-20.04 44.76-44.76 44.76H71.76C47.04 485 27 464.96 27 440.24V71.76C27 47.04 47.04 27 71.76 27h368.48C464.96 27 485 47.04 485 71.76v368.48z"/></defs><clipPath id="l"><use xlink:href="#k" overflow="visible"/></clipPath><path clip-path="url(#l)" fill="#99F" d="M3 355h512v160H3z"/><g clip-path="url(#l)" fill="#333"><path d="M129.735 135.317H117.57l-8.93-22.1H68.235l-9.04 22.1H47.362l34.712-82.484h12.5l35.16 82.484zm-25.894-31.81l-15.737-38.06-15.403 38.06h31.14zM218.414 94.13h-68.532V87.1h68.532v7.03zm0 20.873h-68.532v-7.143h68.532v7.143zM271.877 150.385h-7.255c-8.633-15.626-12.947-32.145-12.947-49.557 0-17.485 4.315-34.043 12.947-49.67h7.255c-6.25 17.563-9.376 34.12-9.376 49.67.002 15.18 3.127 31.7 9.377 49.557zM325.676 135.317h-10.604V66.562c-4.24 2.977-10.195 6.14-17.858 9.487V66.56c3.274-2.01 6.344-4.203 9.208-6.585 2.864-2.38 4.892-4.186 6.083-5.413 1.19-1.228 1.786-1.803 1.786-1.73h11.386v82.483zM372.22 121.254l-12.502 28.573h-8.036l6.92-28.573h13.617zM420.995 135.317h-10.603V66.562c-4.24 2.977-10.195 6.14-17.858 9.487V66.56c3.274-2.01 6.343-4.203 9.208-6.585 2.864-2.38 4.893-4.186 6.083-5.413 1.19-1.228 1.786-1.803 1.786-1.73h11.386v82.483zM472.227 100.828c0 17.338-4.28 33.858-12.836 49.557h-7.366c6.25-17.858 9.376-34.378 9.376-49.557 0-15.55-3.125-32.107-9.376-49.67h7.367c8.557 15.702 12.837 32.258 12.837 49.67zM108.305 279.098c0 6.474-2.456 11.925-7.367 16.352-4.91 4.428-10.715 6.64-17.412 6.64H47.363v-82.483h33.15c7.143 0 13.06 1.73 17.747 5.19 4.688 3.46 7.032 8.502 7.032 15.124 0 2.606-.485 5.024-1.45 7.256-.97 2.232-2.14 3.98-3.517 5.246-1.377 1.266-2.754 2.363-4.13 3.293-1.378.93-2.55 1.582-3.516 1.953l-1.452.447c.446.15 1.06.335 1.842.558.78.223 2.157.893 4.13 2.01 1.97 1.115 3.7 2.38 5.19 3.794 1.488 1.414 2.846 3.423 4.074 6.027 1.227 2.605 1.84 5.47 1.84 8.594zm-13.617-37.614c0-7.96-5.88-11.943-17.635-11.943H58.86v24.556h17.97c11.904 0 17.858-4.203 17.858-12.612zm2.456 36.386c0-4.613-1.768-8.148-5.302-10.603-3.535-2.456-8.725-3.683-15.57-3.683H58.86v28.573h17.97c6.027 0 10.92-1.34 14.677-4.018 3.757-2.68 5.637-6.102 5.637-10.27zM218.414 260.905h-68.532v-7.032h68.532v7.032zm0 20.872h-68.532v-7.143h68.532v7.143z"/><g><path d="M271.877 317.16h-7.255c-8.633-15.627-12.947-32.146-12.947-49.558 0-17.485 4.315-34.043 12.947-49.67h7.255c-6.25 17.563-9.376 34.12-9.376 49.67.002 15.18 3.127 31.7 9.377 49.557zM339.18 302.09H289.4V291.49c9.673-10.79 17.357-19.365 23.05-25.727 5.692-6.36 9.672-11.272 11.943-14.732 2.27-3.46 3.404-6.49 3.404-9.097 0-4.984-.967-8.65-2.902-10.993-1.936-2.344-5.172-3.516-9.71-3.516-4.02 0-7.033 1.155-9.042 3.46-2.01 2.308-3.31 5.992-3.906 11.05H290.63c1.19-15.997 9.375-23.996 24.554-23.996 7.515 0 13.394 2.288 17.635 6.864 4.24 4.576 6.36 9.766 6.36 15.57 0 1.786-.15 3.423-.445 4.91-.298 1.49-.78 3.07-1.45 4.745-.67 1.674-1.582 3.404-2.736 5.19-1.155 1.786-2.606 3.814-4.354 6.083-1.75 2.27-3.814 4.744-6.195 7.422-2.38 2.68-5.152 5.804-8.314 9.376-3.163 3.572-6.753 7.516-10.77 11.83-1.267 1.416-2.233 2.495-2.903 3.238h37.168v8.93zM372.22 288.027L359.717 316.6h-8.036l6.92-28.573h13.617zM434.5 302.09h-49.78V291.49c9.673-10.79 17.357-19.365 23.05-25.727 5.692-6.36 9.672-11.272 11.943-14.732 2.27-3.46 3.404-6.49 3.404-9.097 0-4.984-.967-8.65-2.902-10.993-1.936-2.344-5.172-3.516-9.71-3.516-4.02 0-7.033 1.155-9.042 3.46-2.01 2.308-3.31 5.992-3.907 11.05h-11.608c1.19-15.997 9.376-23.996 24.555-23.996 7.515 0 13.394 2.288 17.635 6.864 4.24 4.576 6.362 9.766 6.362 15.57 0 1.786-.15 3.423-.447 4.91-.298 1.49-.78 3.07-1.45 4.745-.67 1.674-1.582 3.404-2.736 5.19-1.154 1.786-2.605 3.814-4.353 6.083-1.75 2.27-3.814 4.744-6.195 7.422-2.383 2.68-5.154 5.804-8.316 9.376-3.163 3.572-6.753 7.516-10.77 11.83-1.267 1.416-2.233 2.495-2.903 3.238h37.17v8.93zM472.227 267.602c0 17.34-4.28 33.858-12.836 49.557h-7.366c6.25-17.86 9.376-34.38 9.376-49.558 0-15.55-3.125-32.107-9.376-49.67h7.367c8.557 15.702 12.837 32.258 12.837 49.67z"/></g><g><path d="M98.26 446.816H87.99c-.818-4.315-1.265-7.105-1.338-8.37-1.936 2.307-3.498 4.037-4.688 5.19-1.19 1.153-2.902 2.214-5.134 3.18-2.232.966-4.763 1.45-7.59 1.45-5.432 0-10.436-1.468-15.012-4.408-4.576-2.938-6.864-6.976-6.864-12.11 0-3.35.65-6.287 1.953-8.818 1.3-2.53 2.975-4.557 5.023-6.083 2.046-1.524 4.482-2.77 7.31-3.74 2.828-.965 5.582-1.617 8.26-1.952 2.68-.335 5.507-.502 8.484-.502.893 0 2.194.038 3.907.112 1.712.075 3.015.112 3.907.112.966-4.39.408-7.998-1.674-10.827-2.084-2.827-5.62-4.24-10.603-4.24-3.498 0-6.512.744-9.04 2.23-2.53 1.49-3.796 3.834-3.796 7.033H50.488c0-11.235 7.663-16.854 22.993-16.854 12.13 0 19.46 3.236 21.99 9.71.892 2.084 1.338 8.112 1.338 18.082v9.934c0 11.086.484 18.043 1.452 20.87zM86.094 418.69c-3.795-.224-5.767-.336-5.916-.336-2.16 0-4.353.167-6.585.502-2.232.335-4.614.893-7.143 1.674-2.53.78-4.576 2.03-6.14 3.74-1.562 1.71-2.343 3.758-2.343 6.138 0 3.125 1.116 5.62 3.348 7.478 2.232 1.86 4.91 2.79 8.036 2.79 6.548 0 10.976-1.915 13.283-5.748 2.306-3.83 3.46-9.244 3.46-16.24zM132.302 403.732h-12.39v-14.064h12.39v14.064zm0 43.084h-12.39v-14.064h12.39v14.064zM198.267 453.178l2.344-6.362-24.443-57.147h12.054l17.97 43.082 16.632-43.083h11.05l-27.234 69.87-3.795 9.934H192.35l5.917-16.296zM326.96 405.63h-68.533v-7.032h68.532v7.032zm0 20.872h-68.533v-7.143h68.532v7.142zM410.113 446.816h-13.06l-16.74-22.546-16.185 22.546h-12.054l22.77-29.578-20.985-27.57h13.058l15.068 20.427 14.622-20.426h11.943l-21.206 27.568 22.77 29.578z"/></g></g><path clip-path="url(#l)" fill="#666" d="M3 167.422h512v15H3zM3 349h512v15H3z"/></svg>