<?xml version="1.0" encoding="iso-8859-1"?>
<!-- Generator: Adobe Illustrator 19.2.1, SVG Export Plug-In . SVG Version: 6.00 Build 0)  -->
<svg version="1.1" xmlns="http://www.w3.org/2000/svg" xmlns:xlink="http://www.w3.org/1999/xlink" x="0px" y="0px"
	 viewBox="0 0 512 512" style="enable-background:new 0 0 512 512;" xml:space="preserve">
<g id="Layer_18" style="display:none;">
	
		<rect x="-29.749" y="-26.888" style="display:inline;fill:#FF3131;stroke:#000000;stroke-miterlimit:10;" width="577.558" height="577.558"/>
</g>
<g id="background_with_round_edges" style="display:none;">
	<path style="display:inline;fill:#FFFFFF;" d="M512,462c0,27.614-22.386,50-50,50H50c-27.614,0-50-22.386-50-50V50
		C0,22.386,22.386,0,50,0h412c27.614,0,50,22.386,50,50V462z"/>
	<path style="display:inline;fill:#FFFFFF;" d="M485,440.241c0,24.72-20.039,44.759-44.759,44.759H71.759
		C47.039,485,27,464.961,27,440.241V71.759C27,47.039,47.039,27,71.759,27h368.482C464.961,27,485,47.039,485,71.759V440.241z"/>
</g>
<g id="color_palette" style="display:none;">
	<rect x="-375.549" y="-118.496" style="display:inline;fill:#666666;" width="88.496" height="88.496"/>
	<rect x="-489.538" y="-118.496" style="display:inline;fill:#9999FF;" width="88.496" height="88.496"/>
	<rect x="-355.538" y="152.718" style="display:inline;fill:#0000FF;" width="88.496" height="88.496"/>
	<rect x="-256.549" y="-118.496" style="display:inline;fill:#333333;" width="88.496" height="88.496"/>
	<rect x="-639.549" y="-12.269" style="display:inline;fill:#999999;" width="88.496" height="88.496"/>
	<rect x="-489.538" y="6.221" style="display:inline;fill:#6161FF;" width="88.496" height="88.496"/>
	<rect x="-364.248" y="290.752" style="display:inline;fill:#CCCCFF;" width="88.496" height="88.496"/>
	<rect x="-364.248" y="-14.248" style="display:inline;fill:#555555;" width="88.496" height="88.496"/>
</g>
<g id="GeoGebra" style="display:none;">
	<path style="display:inline;fill:#FFFFFF;" d="M512,462c0,27.614-22.386,50-50,50H50c-27.614,0-50-22.386-50-50V50
		C0,22.386,22.386,0,50,0h412c27.614,0,50,22.386,50,50V462z"/>
	<g style="display:inline;">
		<g id="_424131536">
			<g>
				<defs>
					<path id="SVGID_1_" d="M430.079,152.15c49.867,81.73,11.613,195.964-85.393,255.133
						c-97.006,59.183-216.053,40.898-265.906-40.818c-49.853-81.742-11.628-195.924,85.419-255.133
						C261.166,52.169,380.239,70.434,430.079,152.15z M181.789,141.658c-79.431,48.463-111.842,140.07-72.428,204.705
						c39.415,64.609,135.727,77.72,215.13,29.271c79.405-48.424,111.829-140.071,72.414-204.693
						C357.49,106.333,261.166,93.229,181.789,141.658z"/>
				</defs>
				<clipPath id="SVGID_2_">
					<use xlink:href="#SVGID_1_"  style="overflow:visible;"/>
				</clipPath>
				<path style="clip-path:url(#SVGID_2_);fill:#666666;" d="M72.098,355.507c22.748,48.061,68.058,77.786,121.332,85.779
					c42.449,6.389,89.95-0.855,135.299-24.486c37.103-19.54,65.812-45.656,85.673-73.885c23.283-33.038,34.711-68.858,36.782-97.621
					c2.605-36.3-5.788-70.142-23.817-97.588c-29.432-44.748-84.39-74.392-149.4-70.649c-28.294,1.631-58.981,6.603-91.151,22.107
					C117.193,132.656,59.615,203.379,56.781,280.07C55.845,304.983,59.615,330.299,72.098,355.507z"/>
			</g>
		</g>
		<g id="_425309144">
			<path id="_425034160" d="M150.734,357.443c29.804,0,53.983,24.166,53.983,53.996c0,29.807-24.179,53.971-53.983,53.971
				c-29.819,0-53.997-24.164-53.997-53.971C96.737,381.609,120.915,357.443,150.734,357.443z"/>
			<path id="_425314424" style="fill:#9999FF;" d="M150.734,373.83c20.769,0,37.597,16.841,37.597,37.609
				c0,20.77-16.828,37.585-37.597,37.585c-20.771,0-37.611-16.814-37.611-37.585C113.123,390.671,129.963,373.83,150.734,373.83z"/>
		</g>
		<g id="_425027704">
			<path id="_425304776" d="M245.161,46.59c29.819,0,53.997,24.165,53.997,53.969c0,29.833-24.178,53.996-53.997,53.996
				c-29.817,0-53.983-24.164-53.983-53.996C191.177,70.754,215.343,46.59,245.161,46.59z"/>
			<path id="_425306072" style="fill:#9999FF;" d="M245.161,62.976c20.77,0,37.612,16.84,37.612,37.61
				c0,20.743-16.842,37.583-37.612,37.583c-20.756,0-37.597-16.84-37.597-37.583C207.564,79.816,224.405,62.976,245.161,62.976z"/>
		</g>
		<g id="_425028016">
			<path id="_427514720" d="M432.003,144.773c29.807,0,53.997,24.191,53.997,53.996c0,29.833-24.19,53.996-53.997,53.996
				c-29.831,0-53.996-24.163-53.996-53.996C378.007,168.964,402.172,144.773,432.003,144.773z"/>
			<circle id="_227268472" style="fill:#9999FF;" cx="432.003" cy="198.769" r="37.611"/>
		</g>
		<g id="_425310848">
			<path id="_425305280" d="M358.033,329.136c29.811,0,53.976,24.164,53.976,53.996c0,29.805-24.165,53.971-53.976,53.971
				c-29.819,0-53.983-24.166-53.983-53.971C304.05,353.3,328.214,329.136,358.033,329.136z"/>
			<path id="_425303504" style="fill:#9999FF;" d="M358.033,345.522c20.776,0,37.589,16.841,37.589,37.61
				c0,20.77-16.813,37.585-37.589,37.585c-20.772,0-37.597-16.815-37.597-37.585C320.436,362.362,337.262,345.522,358.033,345.522z"
				/>
		</g>
		<g id="_425310848_1_">
			<path id="_425305280_1_" d="M79.983,175.42c29.818,0,53.983,24.164,53.983,53.996c0,29.804-24.165,53.97-53.983,53.97
				C50.165,283.386,26,259.22,26,229.416C26,199.584,50.165,175.42,79.983,175.42z"/>
			<path id="_425303504_1_" style="fill:#9999FF;" d="M79.983,191.806c20.77,0,37.597,16.839,37.597,37.61
				c0,20.77-16.827,37.583-37.597,37.583c-20.771,0-37.597-16.813-37.597-37.583C42.386,208.645,59.213,191.806,79.983,191.806z"/>
		</g>
	</g>
</g>
<g id="perspectives" style="display:none;">
	<g style="display:inline;">
		<rect style="fill:#999999;" width="512" height="116"/>
		<rect y="153" style="fill:#999999;" width="173" height="359"/>
		<rect x="211" y="153" style="fill:#999999;" width="301" height="209"/>
		<rect x="211" y="396" style="fill:#999999;" width="301" height="116"/>
	</g>
</g>
<g id="CAS_exam_draft" style="display:none;">
	<path style="display:inline;fill:#FFFFFF;" d="M512,462c0,27.614-22.386,50-50,50H50c-27.614,0-50-22.386-50-50V50
		C0,22.386,22.386,0,50,0h412c27.614,0,50,22.386,50,50V462z"/>
	<g style="display:inline;">
		<path style="fill:#FFFFFF;" d="M340.832,480h139.425c0,0,0.045-90.415-56.991-108.237C482.971,336.568,480.257,262,480.257,262
			H340.832c0,0-0.678,79.656,55.973,109C335.024,415.27,340.832,480,340.832,480z"/>
		<g>
			<g>
				<polygon style="display:none;fill-rule:evenodd;clip-rule:evenodd;fill:#FFFFFF;" points="340.708,261.929 481.657,261.929 
					481.657,316.79 425.278,371.651 481.657,426.515 481.657,481.378 340.708,481.378 340.708,426.515 397.088,371.651 
					340.708,316.79 				"/>
				<path style="fill-rule:evenodd;clip-rule:evenodd;fill:#9999FF;" d="M411.183,375.427l5.734-3.266
					c10.683-3.046,30.484-19.463,43.023-42.191h-97.513c9.492,20.021,35.217,41.176,43.022,42.191L411.183,375.427z"/>
				<polygon style="fill-rule:evenodd;clip-rule:evenodd;fill:#9999FF;" points="345.009,476.92 345.009,458.36 411.183,421.242 
					477.357,458.36 477.357,476.92 				"/>
				<path style="display:none;fill:#666666;stroke:#666666;stroke-miterlimit:10;" d="M485.885,486.4H336.481
					c-3.825-41.02,2.454-80.676,50.092-114.748c-43.55-26.803-53.098-68.098-50.092-114.745h149.404
					c9.075,50.369-3.591,90.395-50.091,114.745C483.875,402.033,494.468,441.812,485.885,486.4z M347.924,474.956h126.516
					c7.389-39.129-12.182-73.322-54.746-103.304c43.811-25.633,65.485-58.962,54.746-103.3H347.924
					c-4.195,41.043,13.812,76.787,54.747,103.3C360.686,405.041,341.396,439.43,347.924,474.956z"/>
			</g>
			<path style="fill:#555555;" d="M389.876,372.161c-28.662-13.376-54.852-51.625-54.852-114.746h152.318
				c0,63.122-26.19,101.371-54.853,114.746c28.663,13.375,54.853,51.624,54.853,114.746H335.024
				C335.024,423.786,361.213,385.537,389.876,372.161z M347.463,475.464h127.439c0-56.827-34.005-91.261-57.986-103.302
				c23.981-12.041,57.986-46.475,57.986-103.302H347.463c0,56.826,34.004,91.26,57.985,103.302
				C381.467,384.203,347.463,418.637,347.463,475.464z"/>
		</g>
	</g>
	<g style="display:inline;">
		<path style="fill:#FFFFFF;" d="M1013,314.199c0,16.458-13.342,29.801-29.801,29.801H737.801C721.342,344,708,330.658,708,314.199
			V68.801C708,52.342,721.342,39,737.801,39h245.399C999.658,39,1013,52.342,1013,68.801V314.199z"/>
		<path style="fill:#FFFFFF;" d="M1003,304.466c0,15.207-12.327,27.534-27.534,27.534H748.534C733.327,332,721,319.673,721,304.466
			V77.534C721,62.327,733.327,50,748.534,50h226.932C990.673,50,1003,62.327,1003,77.534V304.466z"/>
		<g>
			<defs>
				<path id="SVGID_3_" d="M1003,304.46c0,15.21-12.33,27.54-27.54,27.54H748.54c-15.21,0-27.54-12.33-27.54-27.54V77.54
					C721,62.33,733.33,50,748.54,50h226.92c15.21,0,27.54,12.33,27.54,27.54V304.46z"/>
			</defs>
			<clipPath id="SVGID_4_">
				<use xlink:href="#SVGID_3_"  style="overflow:visible;"/>
			</clipPath>
			<g style="clip-path:url(#SVGID_4_);">
				<g>
					<rect x="703.878" y="34.119" style="fill:#9999FF;" width="92.293" height="315.028"/>
					<g>
						<path style="fill:#666666;" d="M925.682,247.678h-34.49l-24.185-38.486l-22.503,38.486h-32.387l38.486-57.623l-34.7-50.052
							h34.28l21.241,31.756l18.296-31.756h32.176l-33.859,50.052L925.682,247.678z"/>
					</g>
					<g>
						<path style="fill:#666666;" d="M1018.906,181.756h-83.572V169.1h83.572V181.756z M1018.906,219.321h-83.572v-12.856h83.572
							V219.321z"/>
					</g>
				</g>
			</g>
		</g>
	</g>
	<g style="display:inline;">
		<defs>
			<path id="SVGID_5_" d="M485,440.241c0,24.72-20.039,44.759-44.759,44.759H71.759C47.039,485,27,464.961,27,440.241V71.759
				C27,47.039,47.039,27,71.759,27h368.482C464.961,27,485,47.039,485,71.759V440.241z"/>
		</defs>
		<clipPath id="SVGID_6_">
			<use xlink:href="#SVGID_5_"  style="overflow:visible;"/>
		</clipPath>
		<g style="clip-path:url(#SVGID_6_);">
			<g>
				<rect style="fill:#9999FF;" width="150" height="512"/>
				<g>
					<path style="fill:#666666;" d="M360.488,227.088h-56.055l-39.307-62.549l-36.572,62.549h-52.637l62.549-93.652L182.07,52.088
						h55.713l34.521,51.611l29.736-51.611h52.295l-55.029,81.348L360.488,227.088z"/>
				</g>
				<g>
					<path style="fill:#666666;" d="M512,119.947H376.174V99.379H512V119.947z M512,181H376.174v-20.895H512V181z"/>
				</g>
			</g>
		</g>
	</g>
</g>
<g id="graphing_exam_draft" style="display:none;">
	<path style="display:inline;fill:#FFFFFF;" d="M512,462c0,27.614-22.386,50-50,50H50c-27.614,0-50-22.386-50-50V50
		C0,22.386,22.386,0,50,0h412c27.614,0,50,22.386,50,50V462z"/>
	<g style="display:inline;">
		<path style="fill:#FFFFFF;" d="M1013,314.199c0,16.458-13.342,29.801-29.801,29.801H737.801C721.342,344,708,330.658,708,314.199
			V68.801C708,52.342,721.342,39,737.801,39h245.399C999.658,39,1013,52.342,1013,68.801V314.199z"/>
		<path style="fill:#FFFFFF;" d="M1003,304.466c0,15.207-12.327,27.534-27.534,27.534H748.534C733.327,332,721,319.673,721,304.466
			V77.534C721,62.327,733.327,50,748.534,50h226.932C990.673,50,1003,62.327,1003,77.534V304.466z"/>
		<g>
			<defs>
				<path id="SVGID_7_" d="M1003,304.46c0,15.21-12.33,27.54-27.54,27.54H748.54c-15.21,0-27.54-12.33-27.54-27.54V77.54
					C721,62.33,733.33,50,748.54,50h226.92c15.21,0,27.54,12.33,27.54,27.54V304.46z"/>
			</defs>
			<clipPath id="SVGID_8_">
				<use xlink:href="#SVGID_7_"  style="overflow:visible;"/>
			</clipPath>
			<g style="clip-path:url(#SVGID_8_);">
				<g>
					<rect x="703.878" y="34.119" style="fill:#9999FF;" width="92.293" height="315.028"/>
					<g>
						<path style="fill:#666666;" d="M925.682,247.678h-34.49l-24.185-38.486l-22.503,38.486h-32.387l38.486-57.623l-34.7-50.052
							h34.28l21.241,31.756l18.296-31.756h32.176l-33.859,50.052L925.682,247.678z"/>
					</g>
					<g>
						<path style="fill:#666666;" d="M1018.906,181.756h-83.572V169.1h83.572V181.756z M1018.906,219.321h-83.572v-12.856h83.572
							V219.321z"/>
					</g>
				</g>
			</g>
		</g>
	</g>
	<g style="display:inline;">
		<defs>
			<path id="SVGID_9_" d="M374,340.031c0,18.76-15.208,33.969-33.969,33.969H60.969C42.208,374,27,358.792,27,340.031V60.969
				C27,42.208,42.208,27,60.969,27h279.062C358.792,27,374,42.208,374,60.969V340.031z"/>
		</defs>
		<clipPath id="SVGID_10_">
			<use xlink:href="#SVGID_9_"  style="overflow:visible;"/>
		</clipPath>
		<g style="clip-path:url(#SVGID_10_);">
			<g>
				<g>
					<path style="fill:none;stroke:#666666;stroke-width:30;stroke-miterlimit:10;" d="M39.902,370.864
						c31.708-210.923,81.023-392.256,160.735-170.016c80.368,224.071,127.144,40.905,161.049-170.124"/>
				</g>
				<g>
					<circle style="fill:#9999FF;" cx="130.937" cy="99.063" r="47.848"/>
					<path style="fill:#333333;" d="M130.937,51.214c-26.424,0-47.848,21.427-47.848,47.848c0,26.428,21.424,47.848,47.848,47.848
						c26.423,0,47.848-21.419,47.848-47.848C178.785,72.641,157.361,51.214,130.937,51.214z M130.937,132.556
						c-18.498,0-33.493-14.996-33.493-33.493c0-18.498,14.996-33.494,33.493-33.494c18.498,0,33.493,14.996,33.493,33.494
						C164.43,117.56,149.435,132.556,130.937,132.556z"/>
				</g>
				<g>
					<circle style="fill:#9999FF;" cx="269.132" cy="303.285" r="47.848"/>
					<path style="fill:#333333;" d="M269.132,255.436c-26.424,0-47.848,21.427-47.848,47.848c0,26.428,21.424,47.848,47.848,47.848
						c26.423,0,47.848-21.419,47.848-47.848C316.98,276.863,295.556,255.436,269.132,255.436z M269.132,336.777
						c-18.498,0-33.493-14.996-33.493-33.493c0-18.498,14.996-33.494,33.493-33.494s33.493,14.996,33.493,33.494
						C302.626,321.781,287.63,336.777,269.132,336.777z"/>
				</g>
			</g>
		</g>
	</g>
	<g style="display:inline;">
		<path style="fill:#FFFFFF;" d="M340.832,480h139.425c0,0,0.045-90.415-56.991-108.237C482.971,336.568,480.257,262,480.257,262
			H340.832c0,0-0.678,79.656,55.973,109C335.024,415.27,340.832,480,340.832,480z"/>
		<g>
			<g>
				<polygon style="display:none;fill-rule:evenodd;clip-rule:evenodd;fill:#FFFFFF;" points="340.708,261.929 481.657,261.929 
					481.657,316.79 425.278,371.651 481.657,426.515 481.657,481.378 340.708,481.378 340.708,426.515 397.088,371.651 
					340.708,316.79 				"/>
				<path style="fill-rule:evenodd;clip-rule:evenodd;fill:#9999FF;" d="M411.183,375.427l5.734-3.266
					c10.683-3.046,30.484-19.463,43.023-42.191h-97.513c9.492,20.021,35.217,41.176,43.022,42.191L411.183,375.427z"/>
				<polygon style="fill-rule:evenodd;clip-rule:evenodd;fill:#9999FF;" points="345.009,476.92 345.009,458.36 411.183,421.242 
					477.357,458.36 477.357,476.92 				"/>
				<path style="display:none;fill:#666666;stroke:#666666;stroke-miterlimit:10;" d="M485.885,486.4H336.481
					c-3.825-41.02,2.454-80.676,50.092-114.748c-43.55-26.803-53.098-68.098-50.092-114.745h149.404
					c9.075,50.369-3.591,90.395-50.091,114.745C483.875,402.033,494.468,441.812,485.885,486.4z M347.924,474.956h126.516
					c7.389-39.129-12.182-73.322-54.746-103.304c43.811-25.633,65.485-58.962,54.746-103.3H347.924
					c-4.195,41.043,13.812,76.787,54.747,103.3C360.686,405.041,341.396,439.43,347.924,474.956z"/>
			</g>
			<path style="fill:#555555;" d="M389.876,372.161c-28.662-13.376-54.852-51.625-54.852-114.746h152.318
				c0,63.122-26.19,101.371-54.853,114.746c28.663,13.375,54.853,51.624,54.853,114.746H335.024
				C335.024,423.786,361.213,385.537,389.876,372.161z M347.463,475.464h127.439c0-56.827-34.005-91.261-57.986-103.302
				c23.981-12.041,57.986-46.475,57.986-103.302H347.463c0,56.826,34.004,91.26,57.985,103.302
				C381.467,384.203,347.463,418.637,347.463,475.464z"/>
		</g>
	</g>
</g>
<g id="menu_x5F_view_x5F_construction_x5F_protocol">
	<path style="fill:#FFFFFF;" d="M512,462c0,27.614-22.386,50-50,50H50c-27.614,0-50-22.386-50-50V50C0,22.386,22.386,0,50,0h412
		c27.614,0,50,22.386,50,50V462z"/>
	<g>
		<defs>
			<path id="SVGID_11_" d="M485,440.241c0,24.72-20.039,44.759-44.759,44.759H71.759C47.039,485,27,464.961,27,440.241V71.759
				C27,47.039,47.039,27,71.759,27h368.482C464.961,27,485,47.039,485,71.759V440.241z"/>
		</defs>
		<clipPath id="SVGID_12_">
			<use xlink:href="#SVGID_11_"  style="overflow:visible;"/>
		</clipPath>
		<rect x="3" y="355" style="clip-path:url(#SVGID_12_);fill:#9999FF;" width="512" height="160"/>
		<g style="clip-path:url(#SVGID_12_);">
			<path style="fill:#333333;" d="M129.735,135.317h-12.166l-8.929-22.1H68.235l-9.041,22.1H47.363l34.712-82.484h12.501
				L129.735,135.317z M103.841,103.507L88.103,65.446L72.7,103.507H103.841z"/>
			<path style="fill:#333333;" d="M218.414,94.131h-68.532v-7.032h68.532V94.131z M218.414,115.003h-68.532v-7.143h68.532V115.003z"
				/>
			<g>
				<path style="fill:#333333;" d="M271.877,150.385h-7.255c-8.633-15.626-12.947-32.145-12.947-49.557
					c0-17.485,4.315-34.043,12.947-49.669h7.255c-6.25,17.562-9.376,34.118-9.376,49.669
					C262.502,116.008,265.627,132.527,271.877,150.385z"/>
				<path style="fill:#333333;" d="M325.676,135.317h-10.604V66.562c-4.241,2.977-10.195,6.139-17.858,9.487v-9.487
					c3.274-2.009,6.344-4.203,9.208-6.585c2.864-2.381,4.892-4.186,6.083-5.413c1.19-1.228,1.786-1.803,1.786-1.73h11.385V135.317z"
					/>
				<path style="fill:#333333;" d="M372.219,121.254l-12.501,28.573h-8.036l6.92-28.573H372.219z"/>
				<path style="fill:#333333;" d="M420.995,135.317h-10.603V66.562c-4.241,2.977-10.195,6.139-17.858,9.487v-9.487
					c3.274-2.009,6.343-4.203,9.208-6.585c2.864-2.381,4.893-4.186,6.083-5.413c1.19-1.228,1.786-1.803,1.786-1.73h11.385V135.317z"
					/>
				<path style="fill:#333333;" d="M472.227,100.828c0,17.338-4.279,33.858-12.836,49.557h-7.367
					c6.25-17.858,9.376-34.378,9.376-49.557c0-15.551-3.125-32.107-9.376-49.669h7.367
					C467.947,66.86,472.227,83.416,472.227,100.828z"/>
			</g>
			<path style="fill:#333333;" d="M108.305,279.098c0,6.474-2.456,11.925-7.367,16.352c-4.911,4.428-10.715,6.641-17.412,6.641
				H47.363v-82.484h33.15c7.143,0,13.059,1.73,17.747,5.19c4.688,3.46,7.032,8.502,7.032,15.124c0,2.605-0.485,5.023-1.451,7.255
				c-0.968,2.232-2.14,3.981-3.516,5.246c-1.377,1.266-2.754,2.363-4.13,3.293c-1.378,0.931-2.55,1.582-3.516,1.953l-1.451,0.447
				c0.446,0.15,1.06,0.335,1.842,0.558c0.781,0.223,2.157,0.893,4.13,2.009c1.971,1.116,3.701,2.382,5.19,3.795
				c1.488,1.414,2.846,3.423,4.074,6.027C107.691,273.109,108.305,275.973,108.305,279.098z M94.688,241.484
				c0-7.961-5.879-11.943-17.635-11.943H58.86v24.555h17.97C88.734,254.096,94.688,249.893,94.688,241.484z M97.144,277.87
				c0-4.613-1.768-8.148-5.302-10.603c-3.535-2.456-8.725-3.683-15.57-3.683H58.86v28.573h17.97c6.027,0,10.919-1.339,14.677-4.018
				C95.264,285.46,97.144,282.038,97.144,277.87z"/>
			<path style="fill:#333333;" d="M218.414,260.905h-68.532v-7.032h68.532V260.905z M218.414,281.777h-68.532v-7.143h68.532V281.777
				z"/>
			<g>
				<path style="fill:#333333;" d="M271.877,317.159h-7.255c-8.633-15.626-12.947-32.145-12.947-49.557
					c0-17.485,4.315-34.043,12.947-49.669h7.255c-6.25,17.562-9.376,34.118-9.376,49.669
					C262.502,282.781,265.627,299.301,271.877,317.159z"/>
				<path style="fill:#333333;" d="M339.181,302.091h-49.78v-10.603c9.672-10.789,17.356-19.365,23.049-25.727
					c5.692-6.362,9.672-11.273,11.943-14.733c2.27-3.46,3.404-6.491,3.404-9.097c0-4.985-0.967-8.65-2.902-10.994
					c-1.936-2.344-5.172-3.516-9.711-3.516c-4.018,0-7.032,1.154-9.041,3.46c-2.009,2.307-3.311,5.991-3.906,11.05h-11.608
					c1.19-15.998,9.376-23.997,24.555-23.997c7.515,0,13.394,2.288,17.635,6.864c4.241,4.576,6.362,9.766,6.362,15.57
					c0,1.786-0.15,3.423-0.446,4.911c-0.298,1.489-0.781,3.069-1.451,4.744c-0.67,1.674-1.581,3.404-2.735,5.19
					c-1.154,1.786-2.605,3.814-4.353,6.083c-1.749,2.27-3.814,4.744-6.195,7.422c-2.382,2.679-5.153,5.804-8.315,9.376
					c-3.163,3.572-6.753,7.516-10.771,11.831c-1.266,1.415-2.232,2.494-2.902,3.237h37.168V302.091z"/>
				<path style="fill:#333333;" d="M372.219,288.027l-12.501,28.573h-8.036l6.92-28.573H372.219z"/>
				<path style="fill:#333333;" d="M434.501,302.091h-49.78v-10.603c9.672-10.789,17.356-19.365,23.049-25.727
					c5.692-6.362,9.672-11.273,11.943-14.733c2.27-3.46,3.404-6.491,3.404-9.097c0-4.985-0.967-8.65-2.902-10.994
					c-1.936-2.344-5.172-3.516-9.711-3.516c-4.018,0-7.032,1.154-9.041,3.46c-2.009,2.307-3.311,5.991-3.907,11.05h-11.608
					c1.19-15.998,9.376-23.997,24.555-23.997c7.515,0,13.394,2.288,17.635,6.864c4.241,4.576,6.362,9.766,6.362,15.57
					c0,1.786-0.15,3.423-0.447,4.911c-0.298,1.489-0.781,3.069-1.451,4.744c-0.67,1.674-1.581,3.404-2.735,5.19
					c-1.154,1.786-2.605,3.814-4.353,6.083c-1.749,2.27-3.814,4.744-6.195,7.422c-2.382,2.679-5.153,5.804-8.315,9.376
					c-3.163,3.572-6.753,7.516-10.771,11.831c-1.266,1.415-2.232,2.494-2.902,3.237h37.168V302.091z"/>
				<path style="fill:#333333;" d="M472.227,267.602c0,17.339-4.279,33.858-12.836,49.557h-7.367
					c6.25-17.858,9.376-34.378,9.376-49.557c0-15.551-3.125-32.107-9.376-49.669h7.367
					C467.947,233.634,472.227,250.19,472.227,267.602z"/>
			</g>
			<g>
				<path style="fill:#333333;" d="M98.26,446.816H87.991c-0.819-4.315-1.266-7.105-1.339-8.371
					c-1.936,2.308-3.498,4.038-4.688,5.19c-1.191,1.154-2.902,2.215-5.134,3.181c-2.232,0.966-4.763,1.451-7.59,1.451
					c-5.432,0-10.436-1.469-15.012-4.409c-4.576-2.938-6.864-6.976-6.864-12.11c0-3.349,0.651-6.287,1.953-8.818
					c1.301-2.529,2.975-4.557,5.023-6.083c2.046-1.524,4.482-2.771,7.311-3.739c2.827-0.966,5.581-1.618,8.26-1.953
					c2.679-0.335,5.506-0.502,8.483-0.502c0.893,0,2.194,0.038,3.907,0.112c1.711,0.075,3.014,0.112,3.906,0.112
					c0.966-4.389,0.408-7.998-1.674-10.827c-2.084-2.827-5.619-4.241-10.603-4.241c-3.498,0-6.512,0.745-9.041,2.232
					c-2.53,1.489-3.795,3.833-3.795,7.032H50.488c0-11.235,7.663-16.854,22.993-16.854c12.128,0,19.458,3.237,21.988,9.711
					c0.893,2.084,1.339,8.112,1.339,18.082v9.934C96.809,437.032,97.292,443.989,98.26,446.816z M86.094,418.689
					c-3.795-0.223-5.767-0.335-5.916-0.335c-2.159,0-4.353,0.167-6.585,0.502c-2.232,0.335-4.614,0.893-7.143,1.674
					c-2.53,0.781-4.576,2.029-6.139,3.739c-1.563,1.712-2.344,3.759-2.344,6.139c0,3.125,1.116,5.619,3.348,7.478
					c2.232,1.861,4.911,2.79,8.036,2.79c6.547,0,10.975-1.915,13.282-5.748C84.939,431.097,86.094,425.684,86.094,418.689z"/>
				<path style="fill:#333333;" d="M132.302,403.732h-12.389v-14.064h12.389V403.732z M132.302,446.816h-12.389v-14.064h12.389
					V446.816z"/>
				<path style="fill:#333333;" d="M198.267,453.178l2.344-6.362l-24.444-57.147h12.054l17.97,43.083l16.631-43.083h11.05
					l-27.234,69.871l-3.795,9.934h-10.492L198.267,453.178z"/>
				<path style="fill:#333333;" d="M326.959,405.63h-68.532v-7.032h68.532V405.63z M326.959,426.502h-68.532v-7.143h68.532V426.502z
					"/>
				<path style="fill:#333333;" d="M410.113,446.816h-13.059l-16.742-22.546l-16.184,22.546h-12.054l22.769-29.578l-20.984-27.569
					h13.059l15.068,20.426l14.622-20.426h11.943l-21.207,27.569L410.113,446.816z"/>
			</g>
		</g>
		<rect x="3" y="167.422" style="clip-path:url(#SVGID_12_);fill:#666666;" width="512" height="15"/>
		<rect x="3" y="349" style="clip-path:url(#SVGID_12_);fill:#666666;" width="512" height="15"/>
	</g>
</g>
<g id="menu_x5F_view_x5F_exam" style="display:none;">
	<path style="display:inline;fill:#FFFFFF;" d="M512,462c0,27.614-22.386,50-50,50H50c-27.614,0-50-22.386-50-50V50
		C0,22.386,22.386,0,50,0h412c27.614,0,50,22.386,50,50V462z"/>
	<line style="fill:#666666;stroke:#C1272D;stroke-miterlimit:10;" x1="256" y1="-47" x2="256" y2="559"/>
	<line style="fill:#666666;stroke:#C1272D;stroke-miterlimit:10;" x1="-37.5" y1="256" x2="549.5" y2="256"/>
	<line style="fill:none;stroke:#C1272D;stroke-miterlimit:10;" x1="97.5" y1="166.5" x2="448.5" y2="166.5"/>
	<g style="display:inline;">
		<g>
			<polygon style="display:none;fill-rule:evenodd;clip-rule:evenodd;fill:#FFFFFF;" points="117.196,38.889 394.804,38.889 
				394.804,146.943 283.762,254.995 394.804,363.052 394.804,471.109 117.196,471.109 117.196,363.052 228.239,254.995 
				117.196,146.943 			"/>
			<path style="fill-rule:evenodd;clip-rule:evenodd;fill:#9999FF;" d="M256,262.432L267.293,256
				c21.041-6,60.041-38.334,84.736-83.099H159.971C178.667,212.333,229.333,254,244.705,256L256,262.432z"/>
			<polygon style="fill-rule:evenodd;clip-rule:evenodd;fill:#9999FF;" points="125.667,462.328 125.667,425.774 256,352.667 
				386.333,425.774 386.333,462.328 			"/>
			<path style="display:none;fill:#666666;stroke:#666666;stroke-miterlimit:10;" d="M403.13,481H108.87
				c-7.534-80.791,4.833-158.896,98.659-226.003C121.754,202.207,102.949,120.873,108.87,29H403.13
				c17.873,99.205-7.074,178.038-98.658,225.997C399.172,314.833,420.035,393.182,403.13,481z M131.408,458.46h249.182
				c14.554-77.068-23.994-144.412-107.826-203.463c86.289-50.485,128.977-116.129,107.826-203.457H131.408
				c-8.261,80.838,27.203,151.237,107.828,203.457C156.543,320.758,118.55,388.489,131.408,458.46z"/>
		</g>
		<path style="fill:#555555;" d="M214.034,256C157.582,229.654,106,154.321,106,30h300c0,124.323-51.583,199.656-108.036,226
			C354.417,282.344,406,357.677,406,482H106C106,357.678,157.581,282.344,214.034,256z M130.5,459.46h251
			c0-111.924-66.974-179.744-114.207-203.46C314.526,232.284,381.5,164.464,381.5,52.54h-251
			c0,111.922,66.973,179.742,114.205,203.46C197.473,279.717,130.5,347.538,130.5,459.46z"/>
	</g>
</g>
<g id="menu_x5F_view_x5F_probability" style="display:none;">
	<path style="display:inline;fill:#FFFFFF;" d="M512,462c0,27.614-22.386,50-50,50H50c-27.614,0-50-22.386-50-50V50
		C0,22.386,22.386,0,50,0h412c27.614,0,50,22.386,50,50V462z"/>
	
		<image style="overflow:visible;opacity:0.47;" width="693" height="253" xlink:href="D3B4992E.jpg"  transform="matrix(1 0 0 1.4651 -90.5 70.6667)">
	</image>
	<g style="display:inline;">
		<defs>
			<path id="SVGID_13_" d="M485,440.241c0,24.72-20.039,44.759-44.759,44.759H71.759C47.039,485,27,464.961,27,440.241V71.759
				C27,47.039,47.039,27,71.759,27h368.482C464.961,27,485,47.039,485,71.759V440.241z"/>
		</defs>
		<clipPath id="SVGID_14_">
			<use xlink:href="#SVGID_13_"  style="overflow:visible;"/>
		</clipPath>
		<g style="clip-path:url(#SVGID_14_);">
			<path style="fill:#9999FF;" d="M155.564,446.511h200.873V180.523c-45.59-72.416-75.135-107.282-100.438-107.282
				c-25.301,0-54.846,34.866-100.435,107.282V446.511z"/>
			<path style="fill:none;stroke:#666666;stroke-width:26;stroke-miterlimit:10;" d="M609,422.968
				c0,0-130.971,21.405-207.06-147.701S287.184,65.489,255.999,65.489c-31.182,0-69.85,40.671-145.939,209.777
				S-97,422.968-97,422.968"/>
			<line style="fill:none;stroke:#333333;stroke-width:26;stroke-miterlimit:10;" x1="-97" y1="446.511" x2="609" y2="446.511"/>
		</g>
	</g>
</g>
<g id="menu_x5F_view_x5F_spreadsheet" style="display:none;">
	<path style="display:inline;fill:#FFFFFF;" d="M512,462c0,27.614-22.386,50-50,50H50c-27.614,0-50-22.386-50-50V50
		C0,22.386,22.386,0,50,0h412c27.614,0,50,22.386,50,50V462z"/>
	<g style="display:inline;">
		<defs>
			<path id="SVGID_15_" d="M485,440.241c0,24.72-20.039,44.759-44.759,44.759H71.759C47.039,485,27,464.961,27,440.241V71.759
				C27,47.039,47.039,27,71.759,27h368.482C464.961,27,485,47.039,485,71.759V440.241z"/>
		</defs>
		<clipPath id="SVGID_16_">
			<use xlink:href="#SVGID_15_"  style="overflow:visible;"/>
		</clipPath>
		<g style="clip-path:url(#SVGID_16_);">
			<rect x="26" y="26" style="fill:#9999FF;" width="460" height="130"/>
			<rect x="26" y="26" style="fill:#9999FF;" width="130" height="460"/>
		</g>
		<rect x="157.504" y="19.333" style="clip-path:url(#SVGID_16_);fill:#FFFFFF;" width="24" height="186.333"/>
		<rect x="20" y="155.504" style="clip-path:url(#SVGID_16_);fill:#FFFFFF;" width="139.766" height="24"/>
		<rect x="20" y="311.832" style="clip-path:url(#SVGID_16_);fill:#FFFFFF;" width="140.766" height="24"/>
		<rect x="310.934" y="21" style="clip-path:url(#SVGID_16_);fill:#FFFFFF;" width="24" height="139.765"/>
		<rect x="156" y="311.832" style="clip-path:url(#SVGID_16_);fill:#666666;" width="330" height="24"/>
		<rect x="310.934" y="156.252" style="clip-path:url(#SVGID_16_);fill:#666666;" width="24" height="329.748"/>
	</g>
	<path style="display:inline;fill:#333333;" d="M289.507,137.836h-12.956l-9.509-23.534h-43.026l-9.628,23.534h-12.599L238.754,50
		h13.312L289.507,137.836z M261.931,103.962l-16.759-40.531l-16.403,40.531H261.931z"/>
	<path style="display:inline;fill:#333333;" d="M106.185,293.492H94.871v-73.366c-4.526,3.176-10.88,6.551-19.056,10.123v-10.123
		c3.493-2.144,6.768-4.485,9.826-7.027c3.055-2.54,5.22-4.466,6.491-5.776c1.269-1.31,1.906-1.924,1.906-1.846h12.149V293.492z"/>
	<path style="display:inline;fill:#333333;" d="M117.56,448.713H64.44v-11.315c10.321-11.512,18.52-20.664,24.595-27.453
		c6.074-6.789,10.321-12.029,12.744-15.722c2.421-3.692,3.633-6.926,3.633-9.707c0-5.319-1.032-9.23-3.097-11.732
		c-2.066-2.501-5.52-3.751-10.362-3.751c-4.288,0-7.503,1.231-9.647,3.692c-2.144,2.463-3.534,6.393-4.169,11.791H65.75
		c1.269-17.069,10.005-25.607,26.202-25.607c8.019,0,14.292,2.442,18.818,7.325c4.526,4.883,6.789,10.421,6.789,16.614
		c0,1.906-0.16,3.655-0.476,5.241c-0.318,1.589-0.834,3.275-1.548,5.061c-0.715,1.787-1.688,3.633-2.918,5.538
		c-1.232,1.906-2.78,4.071-4.645,6.492c-1.866,2.422-4.07,5.061-6.61,7.92c-2.542,2.858-5.499,6.193-8.873,10.004
		c-3.376,3.811-7.206,8.021-11.493,12.625c-1.351,1.511-2.382,2.661-3.097,3.454h39.661V448.713z"/>
	<g style="display:inline;">
		<path style="fill:#333333;" d="M435.746,113.352c0,6.894-2.615,12.699-7.845,17.413c-5.23,4.715-11.41,7.072-18.542,7.072H370.85
			V50h35.301c7.607,0,13.907,1.842,18.899,5.527c4.992,3.685,7.489,9.053,7.489,16.105c0,2.775-0.516,5.349-1.546,7.726
			c-1.031,2.377-2.278,4.24-3.743,5.586c-1.467,1.349-2.932,2.516-4.398,3.507c-1.467,0.992-2.715,1.684-3.744,2.08l-1.545,0.475
			c0.475,0.16,1.129,0.357,1.961,0.595c0.831,0.237,2.298,0.95,4.398,2.139c2.099,1.189,3.941,2.537,5.527,4.041
			c1.585,1.506,3.031,3.646,4.338,6.418C435.093,106.974,435.746,110.023,435.746,113.352z M421.246,73.296
			c0-8.478-6.26-12.718-18.779-12.718h-19.374v26.149h19.136C414.906,86.727,421.246,82.252,421.246,73.296z M423.861,112.044
			c0-4.913-1.883-8.677-5.646-11.292c-3.764-2.615-9.291-3.922-16.581-3.922h-18.542v30.428h19.136
			c6.418,0,11.628-1.426,15.63-4.279C421.859,120.126,423.861,116.483,423.861,112.044z"/>
	</g>
</g>
<g id="perspectives_x5F_algebra_x5F_3Dgraphics" style="display:none;">
	<g style="display:inline;">
		<path style="fill:#FFFFFF;" d="M512,462c0,27.614-22.386,50-50,50H50c-27.614,0-50-22.386-50-50V50C0,22.386,22.386,0,50,0h412
			c27.614,0,50,22.386,50,50V462z"/>
		<g>
			<polygon style="fill:#333333;" points="175.326,460.957 27.538,382.846 229.245,51.043 			"/>
			<polygon style="fill:#666666;" points="484.462,401.191 175.326,460.957 229.245,51.043 			"/>
			<polygon style="fill:#6161FF;" points="156.487,423.929 60.667,374.232 190.263,160.83 			"/>
			<polygon style="fill:#9999FF;" points="442.972,385.6 202.61,432.049 244.186,111.783 			"/>
		</g>
	</g>
	<g>
		
			<line style="display:inline;fill:none;stroke:#BC470C;stroke-width:24;stroke-miterlimit:10;" x1="170.922" y1="452.333" x2="502.796" y2="387.964"/>
		
			<line style="display:inline;fill:none;stroke:#BC470C;stroke-width:24;stroke-miterlimit:10;" x1="188.937" y1="442.216" x2="239.569" y2="55.009"/>
		
			<line style="display:inline;fill:none;stroke:#BC470C;stroke-width:24;stroke-miterlimit:10;" x1="465.013" y1="387.04" x2="234.201" y2="70.051"/>
		
			<line style="display:inline;fill:none;stroke:#BC470C;stroke-width:24;stroke-miterlimit:10;" x1="164.347" y1="442.216" x2="214.979" y2="55.009"/>
		
			<line style="display:inline;fill:none;stroke:#BC470C;stroke-width:24;stroke-miterlimit:10;" x1="37.026" y1="384.095" x2="237.43" y2="54.123"/>
		
			<line style="display:inline;fill:none;stroke:#BC470C;stroke-width:24;stroke-miterlimit:10;" x1="-8.585" y1="353.109" x2="205.546" y2="466.226"/>
	</g>
	<linearGradient id="SVGID_17_" gradientUnits="userSpaceOnUse" x1="198.7624" y1="256" x2="491.5787" y2="256">
		<stop  offset="0" style="stop-color:#172983;stop-opacity:0"/>
		<stop  offset="1" style="stop-color:#172983"/>
	</linearGradient>
	<polygon style="opacity:0.4;fill:url(#SVGID_17_);" points="305.667,478.948 491.579,287.226 198.762,33.052 	"/>
</g>
<g id="menu_x5F_view_x5F_graphics3" style="display:none;">
	<path style="display:inline;fill:#FFFFFF;" d="M512,462c0,27.614-22.386,50-50,50H50c-27.614,0-50-22.386-50-50V50
		C0,22.386,22.386,0,50,0h412c27.614,0,50,22.386,50,50V462z"/>
	<path style="fill:#FFFFFF;" d="M512,462c0,27.614-22.386,50-50,50H50c-27.614,0-50-22.386-50-50V50C0,22.386,22.386,0,50,0h412
		c27.614,0,50,22.386,50,50V462z"/>
	<g>
		<g style="display:inline;">
			
				<ellipse transform="matrix(0.8812 -0.4727 0.4727 0.8812 -156.2146 105.9525)" style="opacity:0.4;fill:#009900;" cx="132.723" cy="363.821" rx="100" ry="200.001"/>
			<path style="fill:#009900;" d="M220.845,316.551C168.632,219.214,86.851,161.47,38.183,187.576
				c-48.669,26.107-45.795,126.177,6.418,223.515c52.213,97.337,133.995,155.08,182.664,128.975
				C275.932,513.959,273.058,413.888,220.845,316.551z M57.819,404.001C9.522,313.965,3.905,222.986,45.273,200.795
				c41.368-22.19,114.056,32.81,162.354,122.848c48.298,90.036,53.914,181.015,12.546,203.204
				C178.805,549.038,106.117,494.038,57.819,404.001z"/>
		</g>
		<g style="display:inline;">
			<polyline style="opacity:0.4;fill:#0000FF;" points="122.975,368.495 515.481,369.903 297.317,34.341 			"/>
			<g>
				<path style="fill:#0000FF;" d="M297.317,35.75L122.975,369.903h392.506L297.317,35.75z M298.86,65.532l188.036,289.223
					l-338.303-0.215L298.86,65.532z"/>
			</g>
		</g>
		<rect x="291.973" y="-104.575" style="display:inline;fill:#FF0000;" width="10" height="721.15"/>
		
			<rect x="238.981" y="-134.742" transform="matrix(0.4677 -0.8839 0.8839 0.4677 -69.7427 335.8545)" style="display:inline;fill:#FF0000;" width="10.001" height="721.151"/>
		
			<rect x="-77.805" y="262.639" transform="matrix(0.842 -0.5395 0.5395 0.842 -99.712 194.8585)" style="display:inline;fill:#FF0000;" width="721.15" height="10"/>
		<circle style="display:inline;fill:#666666;" cx="297.973" cy="256" r="15"/>
	</g>
	<g id="Layer_13_copy_3" style="display:inline;">
		<g id="Layer_14_copy_3" style="display:none;">
			<g id="_424131536_7_" style="display:inline;">
				<g id="_424131536_8_">
					<g>
						<defs>
							<path id="SVGID_18_" d="M277.219,453.265c-64.919,39.611-155.658,9.225-202.657-67.829
								c-47.01-77.054-32.486-171.615,32.423-211.215c64.929-39.6,155.626-9.236,202.657,67.85
								C356.636,319.093,342.128,413.676,277.219,453.265z"/>
						</defs>
						<use xlink:href="#SVGID_18_"  style="overflow:visible;fill:#9999FF;"/>
						<clipPath id="SVGID_19_">
							<use xlink:href="#SVGID_18_"  style="overflow:visible;"/>
						</clipPath>
						<path style="clip-path:url(#SVGID_19_);fill:#9999FF;" d="M115.689,168.913c-38.176,18.07-61.787,54.06-68.136,96.376
							c-5.075,33.718,0.679,71.449,19.45,107.471c15.521,29.471,36.266,52.275,58.688,68.052
							c26.243,18.494,54.696,27.572,77.542,29.217c28.834,2.07,55.715-4.598,77.516-18.919
							c35.544-23.378,59.091-67.032,56.118-118.672c-1.295-22.475-5.245-46.85-17.56-72.403
							c-26.604-55.302-82.781-101.037-143.698-103.288C155.82,156.003,135.712,158.997,115.689,168.913z"/>
					</g>
				</g>
				<g>
					<defs>
						<path id="SVGID_20_" d="M284.516,467.865c-71.248,43.472-170.831,10.124-222.412-74.441
							C10.512,308.859,26.451,205.08,97.688,161.62c71.259-43.46,170.796-10.137,222.412,74.464
							C371.675,320.615,355.753,424.417,284.516,467.865z M293.663,251.418c-42.248-69.244-122.106-97.498-178.451-63.139
							c-56.323,34.36-67.752,118.32-25.517,187.54c42.213,69.221,122.107,97.487,178.441,63.127
							C324.458,404.585,335.881,320.615,293.663,251.418z"/>
					</defs>
					<use xlink:href="#SVGID_20_"  style="overflow:visible;fill:#666666;"/>
					<clipPath id="SVGID_21_">
						<use xlink:href="#SVGID_20_"  style="overflow:visible;"/>
					</clipPath>
					<path style="clip-path:url(#SVGID_21_);fill:#666666;" d="M107.24,155.795c-41.897,19.831-67.81,59.329-74.778,105.771
						c-5.569,37.005,0.746,78.414,21.346,117.947c17.034,32.344,39.801,57.371,64.409,74.685
						c28.801,20.297,60.027,30.259,85.101,32.065c31.645,2.271,61.146-5.046,85.073-20.763
						c39.009-25.657,64.851-73.567,61.589-130.24c-1.422-24.666-5.756-51.417-19.272-79.461
						c-29.198-60.693-90.85-110.886-157.706-113.356C151.284,141.627,129.215,144.913,107.24,155.795z"/>
				</g>
			</g>
		</g>
		<g id="Layer_15_copy_3">
			<circle style="fill:#9999FF;" cx="175" cy="336" r="123"/>
			<g>
				<polygon style="fill:#666666;" points="302.333,27 485,343.388 119.667,343.388 				"/>
				<polygon style="fill:#9999FF;" points="302.333,84.101 435.549,314.838 169.117,314.838 				"/>
			</g>
			<path style="fill:#6161FF;" d="M148.944,327l73.39-124.494c57.429,26.984,88.947,67.213,87.102,124.494H148.944z"/>
			<path style="fill:#666666;" d="M175,486c-82.843,0-150-67.157-150-150s67.157-150,150-150s150,67.157,150,150
				S257.843,486,175,486z M298,336c0-67.931-55.069-123-123-123S52,268.069,52,336s55.069,123,123,123S298,403.931,298,336z"/>
		</g>
		<g id="Layer_16_copy_3">
			<path style="fill:#333333;" d="M324.821,343.388H119.667l88.715-153.66c9.598,2.181,18.846,5.283,27.647,9.208
				c46.264,20.63,80.16,63.997,87.49,115.901C324.495,321.75,325,328.816,325,336C325,338.477,324.94,340.941,324.821,343.388z
				 M222.439,222.481l-53.322,92.357h127.069l0-0.001c-7.253-41.824-35.63-76.405-73.741-92.353"/>
		</g>
	</g>
	<g style="display:inline;">
		<path style="fill:#666666;" d="M486.22,133.344c0,11.85-4.462,21.713-13.38,29.59c-8.92,7.88-20.214,11.816-33.886,11.816
			c-15.106,0-26.563-4.034-34.375-12.109c-7.812-8.072-11.719-17.642-11.719-28.711h21.289
			c1.562,16.928,10.025,25.391,25.391,25.391c6.769,0,12.92-2.441,18.456-7.324c5.533-4.883,8.302-10.513,8.302-16.895
			c0-20.572-13.477-30.664-40.43-30.273V88.812c12.5,0,21.972-2.148,28.417-6.445c6.445-4.297,9.669-11.261,9.669-20.898
			c0-7.55-2.638-12.988-7.911-16.309s-10.97-4.98-17.089-4.98c-12.372,0-19.989,8.334-22.852,25H395.79
			c1.691-13.019,6.183-23.013,13.477-29.98c7.291-6.964,17.056-10.449,29.297-10.449c13.409,0,24.316,3.613,32.714,10.84
			c8.398,7.227,12.598,16.309,12.598,27.246c0,4.559-0.947,8.789-2.833,12.695c-1.889,3.906-4.198,7.001-6.933,9.277
			c-2.734,2.28-5.6,4.492-8.594,6.641c-2.997,2.148-5.536,3.745-7.617,4.785c0.909,0.522,2.862,1.562,5.859,3.125
			c2.994,1.562,5.533,3.095,7.617,4.59c2.081,1.498,4.394,3.549,6.933,6.152c2.539,2.606,4.492,5.859,5.859,9.766
			C485.536,123.773,486.22,128.266,486.22,133.344z"/>
	</g>
</g>
<g id="menu_x5F_view_x5F_graphics2" style="display:none;">
	<path style="display:inline;fill:#FFFFFF;" d="M512,462c0,27.614-22.386,50-50,50H50c-27.614,0-50-22.386-50-50V50
		C0,22.386,22.386,0,50,0h412c27.614,0,50,22.386,50,50V462z"/>
	<path style="fill:#FFFFFF;" d="M512,462c0,27.614-22.386,50-50,50H50c-27.614,0-50-22.386-50-50V50C0,22.386,22.386,0,50,0h412
		c27.614,0,50,22.386,50,50V462z"/>
	<g>
		<g style="display:inline;">
			
				<ellipse transform="matrix(0.8812 -0.4727 0.4727 0.8812 -156.2146 105.9525)" style="opacity:0.4;fill:#009900;" cx="132.723" cy="363.821" rx="100" ry="200.001"/>
			<path style="fill:#009900;" d="M220.845,316.551C168.632,219.214,86.851,161.47,38.183,187.576
				c-48.669,26.107-45.795,126.177,6.418,223.515c52.213,97.337,133.995,155.08,182.664,128.975
				C275.932,513.959,273.058,413.888,220.845,316.551z M57.819,404.001C9.522,313.965,3.905,222.986,45.273,200.795
				c41.368-22.19,114.056,32.81,162.354,122.848c48.298,90.036,53.914,181.015,12.546,203.204
				C178.805,549.038,106.117,494.038,57.819,404.001z"/>
		</g>
		<g style="display:inline;">
			<polyline style="opacity:0.4;fill:#0000FF;" points="122.975,368.495 515.481,369.903 297.317,34.341 			"/>
			<g>
				<path style="fill:#0000FF;" d="M297.317,35.75L122.975,369.903h392.506L297.317,35.75z M298.86,65.532l188.036,289.223
					l-338.303-0.215L298.86,65.532z"/>
			</g>
		</g>
		<rect x="291.973" y="-104.575" style="display:inline;fill:#FF0000;" width="10" height="721.15"/>
		
			<rect x="238.981" y="-134.742" transform="matrix(0.4677 -0.8839 0.8839 0.4677 -69.7427 335.8545)" style="display:inline;fill:#FF0000;" width="10.001" height="721.151"/>
		
			<rect x="-77.805" y="262.639" transform="matrix(0.842 -0.5395 0.5395 0.842 -99.712 194.8585)" style="display:inline;fill:#FF0000;" width="721.15" height="10"/>
		<circle style="display:inline;fill:#666666;" cx="297.973" cy="256" r="15"/>
	</g>
	<g id="Layer_13_copy_2" style="display:inline;">
		<g id="Layer_14_copy_2" style="display:none;">
			<g id="_424131536_5_" style="display:inline;">
				<g id="_424131536_6_">
					<g>
						<defs>
							<path id="SVGID_22_" d="M277.219,453.265c-64.919,39.611-155.658,9.225-202.657-67.829
								c-47.01-77.054-32.486-171.615,32.423-211.215c64.929-39.6,155.626-9.236,202.657,67.85
								C356.636,319.093,342.128,413.676,277.219,453.265z"/>
						</defs>
						<use xlink:href="#SVGID_22_"  style="overflow:visible;fill:#9999FF;"/>
						<clipPath id="SVGID_23_">
							<use xlink:href="#SVGID_22_"  style="overflow:visible;"/>
						</clipPath>
						<path style="clip-path:url(#SVGID_23_);fill:#9999FF;" d="M115.689,168.913c-38.176,18.07-61.787,54.06-68.136,96.376
							c-5.075,33.718,0.679,71.449,19.45,107.471c15.521,29.471,36.266,52.275,58.688,68.052
							c26.243,18.494,54.696,27.572,77.542,29.217c28.834,2.07,55.715-4.598,77.516-18.919
							c35.544-23.378,59.091-67.032,56.118-118.672c-1.295-22.475-5.245-46.85-17.56-72.403
							c-26.604-55.302-82.781-101.037-143.698-103.288C155.82,156.003,135.712,158.997,115.689,168.913z"/>
					</g>
				</g>
				<g>
					<defs>
						<path id="SVGID_24_" d="M284.516,467.865c-71.248,43.472-170.831,10.124-222.412-74.441
							C10.512,308.859,26.451,205.08,97.688,161.62c71.259-43.46,170.796-10.137,222.412,74.464
							C371.675,320.615,355.753,424.417,284.516,467.865z M293.663,251.418c-42.248-69.244-122.106-97.498-178.451-63.139
							c-56.323,34.36-67.752,118.32-25.517,187.54c42.213,69.221,122.107,97.487,178.441,63.127
							C324.458,404.585,335.881,320.615,293.663,251.418z"/>
					</defs>
					<use xlink:href="#SVGID_24_"  style="overflow:visible;fill:#666666;"/>
					<clipPath id="SVGID_25_">
						<use xlink:href="#SVGID_24_"  style="overflow:visible;"/>
					</clipPath>
					<path style="clip-path:url(#SVGID_25_);fill:#666666;" d="M107.24,155.795c-41.897,19.831-67.81,59.329-74.778,105.771
						c-5.569,37.005,0.746,78.414,21.346,117.947c17.034,32.344,39.801,57.371,64.409,74.685
						c28.801,20.297,60.027,30.259,85.101,32.065c31.645,2.271,61.146-5.046,85.073-20.763
						c39.009-25.657,64.851-73.567,61.589-130.24c-1.422-24.666-5.756-51.417-19.272-79.461
						c-29.198-60.693-90.85-110.886-157.706-113.356C151.284,141.627,129.215,144.913,107.24,155.795z"/>
				</g>
			</g>
		</g>
		<g id="Layer_15_copy_2">
			<circle style="fill:#9999FF;" cx="175" cy="336" r="123"/>
			<g>
				<polygon style="fill:#666666;" points="302.333,27 485,343.388 119.667,343.388 				"/>
				<polygon style="fill:#9999FF;" points="302.333,84.101 435.549,314.838 169.117,314.838 				"/>
			</g>
			<path style="fill:#6161FF;" d="M148.944,327l73.39-124.494c57.429,26.984,88.947,67.213,87.102,124.494H148.944z"/>
			<path style="fill:#666666;" d="M175,486c-82.843,0-150-67.157-150-150s67.157-150,150-150s150,67.157,150,150
				S257.843,486,175,486z M298,336c0-67.931-55.069-123-123-123S52,268.069,52,336s55.069,123,123,123S298,403.931,298,336z"/>
		</g>
		<g id="Layer_16_copy_2">
			<path style="fill:#333333;" d="M324.821,343.388H119.667l88.715-153.66c9.598,2.181,18.846,5.283,27.647,9.208
				c46.264,20.63,80.16,63.997,87.49,115.901C324.495,321.75,325,328.816,325,336C325,338.477,324.94,340.941,324.821,343.388z
				 M222.439,222.481l-53.322,92.357h127.069l0-0.001c-7.253-41.824-35.63-76.405-73.741-92.353"/>
		</g>
	</g>
	<g style="display:inline;">
		<path style="fill:#666666;" d="M486.92,174.465h-88.727v-18.899c17.239-19.229,30.934-34.516,41.08-45.856
			c10.146-11.34,17.239-20.093,21.286-26.26c4.044-6.167,6.068-11.57,6.068-16.214c0-8.884-1.725-15.418-5.172-19.595
			c-3.45-4.178-9.22-6.267-17.308-6.267c-7.162,0-12.533,2.058-16.114,6.167c-3.581,4.112-5.903,10.677-6.963,19.695h-20.69
			c2.12-28.514,16.711-42.772,43.767-42.772c13.394,0,23.873,4.078,31.432,12.235c7.56,8.157,11.34,17.407,11.34,27.752
			c0,3.183-0.267,6.102-0.796,8.753c-0.532,2.655-1.393,5.471-2.586,8.455c-1.194,2.984-2.82,6.068-4.875,9.251
			c-2.058,3.183-4.644,6.798-7.759,10.842c-3.118,4.047-6.797,8.455-11.04,13.229c-4.246,4.775-9.186,10.345-14.822,16.711
			c-5.639,6.366-12.035,13.397-19.197,21.088c-2.257,2.521-3.979,4.445-5.172,5.769h66.247V174.465z"/>
	</g>
</g>
<g id="menu_x5F_view_x5F_graphics_x5F_extra" style="display:none;">
	<path style="display:inline;fill:#FFFFFF;" d="M512,462c0,27.614-22.386,50-50,50H50c-27.614,0-50-22.386-50-50V50
		C0,22.386,22.386,0,50,0h412c27.614,0,50,22.386,50,50V462z"/>
	<path style="fill:#FFFFFF;" d="M512,462c0,27.614-22.386,50-50,50H50c-27.614,0-50-22.386-50-50V50C0,22.386,22.386,0,50,0h412
		c27.614,0,50,22.386,50,50V462z"/>
	<g>
		<g style="display:inline;">
			
				<ellipse transform="matrix(0.8812 -0.4727 0.4727 0.8812 -156.2146 105.9525)" style="opacity:0.4;fill:#009900;" cx="132.723" cy="363.821" rx="100" ry="200.001"/>
			<path style="fill:#009900;" d="M220.845,316.551C168.632,219.214,86.851,161.47,38.183,187.576
				c-48.669,26.107-45.795,126.177,6.418,223.515c52.213,97.337,133.995,155.08,182.664,128.975
				C275.932,513.959,273.058,413.888,220.845,316.551z M57.819,404.001C9.522,313.965,3.905,222.986,45.273,200.795
				c41.368-22.19,114.056,32.81,162.354,122.848c48.298,90.036,53.914,181.015,12.546,203.204
				C178.805,549.038,106.117,494.038,57.819,404.001z"/>
		</g>
		<g style="display:inline;">
			<polyline style="opacity:0.4;fill:#0000FF;" points="122.975,368.495 515.481,369.903 297.317,34.341 			"/>
			<g>
				<path style="fill:#0000FF;" d="M297.317,35.75L122.975,369.903h392.506L297.317,35.75z M298.86,65.532l188.036,289.223
					l-338.303-0.215L298.86,65.532z"/>
			</g>
		</g>
		<rect x="291.973" y="-104.575" style="display:inline;fill:#FF0000;" width="10" height="721.15"/>
		
			<rect x="238.981" y="-134.742" transform="matrix(0.4677 -0.8839 0.8839 0.4677 -69.7427 335.8545)" style="display:inline;fill:#FF0000;" width="10.001" height="721.151"/>
		
			<rect x="-77.805" y="262.639" transform="matrix(0.842 -0.5395 0.5395 0.842 -99.712 194.8585)" style="display:inline;fill:#FF0000;" width="721.15" height="10"/>
		<circle style="display:inline;fill:#666666;" cx="297.973" cy="256" r="15"/>
	</g>
	<g id="Layer_13_copy" style="display:inline;">
		<g id="Layer_14_copy" style="display:none;">
			<g id="_424131536_3_" style="display:inline;">
				<g id="_424131536_4_">
					<g>
						<defs>
							<path id="SVGID_26_" d="M277.219,453.265c-64.919,39.611-155.658,9.225-202.657-67.829
								c-47.01-77.054-32.486-171.615,32.423-211.215c64.929-39.6,155.626-9.236,202.657,67.85
								C356.636,319.093,342.128,413.676,277.219,453.265z"/>
						</defs>
						<use xlink:href="#SVGID_26_"  style="overflow:visible;fill:#9999FF;"/>
						<clipPath id="SVGID_27_">
							<use xlink:href="#SVGID_26_"  style="overflow:visible;"/>
						</clipPath>
						<path style="clip-path:url(#SVGID_27_);fill:#9999FF;" d="M115.689,168.913c-38.176,18.07-61.787,54.06-68.136,96.376
							c-5.075,33.718,0.679,71.449,19.45,107.471c15.521,29.471,36.266,52.275,58.688,68.052
							c26.243,18.494,54.696,27.572,77.542,29.217c28.834,2.07,55.715-4.598,77.516-18.919
							c35.544-23.378,59.091-67.032,56.118-118.672c-1.295-22.475-5.245-46.85-17.56-72.403
							c-26.604-55.302-82.781-101.037-143.698-103.288C155.82,156.003,135.712,158.997,115.689,168.913z"/>
					</g>
				</g>
				<g>
					<defs>
						<path id="SVGID_28_" d="M284.516,467.865c-71.248,43.472-170.831,10.124-222.412-74.441
							C10.512,308.859,26.451,205.08,97.688,161.62c71.259-43.46,170.796-10.137,222.412,74.464
							C371.675,320.615,355.753,424.417,284.516,467.865z M293.663,251.418c-42.248-69.244-122.106-97.498-178.451-63.139
							c-56.323,34.36-67.752,118.32-25.517,187.54c42.213,69.221,122.107,97.487,178.441,63.127
							C324.458,404.585,335.881,320.615,293.663,251.418z"/>
					</defs>
					<use xlink:href="#SVGID_28_"  style="overflow:visible;fill:#666666;"/>
					<clipPath id="SVGID_29_">
						<use xlink:href="#SVGID_28_"  style="overflow:visible;"/>
					</clipPath>
					<path style="clip-path:url(#SVGID_29_);fill:#666666;" d="M107.24,155.795c-41.897,19.831-67.81,59.329-74.778,105.771
						c-5.569,37.005,0.746,78.414,21.346,117.947c17.034,32.344,39.801,57.371,64.409,74.685
						c28.801,20.297,60.027,30.259,85.101,32.065c31.645,2.271,61.146-5.046,85.073-20.763
						c39.009-25.657,64.851-73.567,61.589-130.24c-1.422-24.666-5.756-51.417-19.272-79.461
						c-29.198-60.693-90.85-110.886-157.706-113.356C151.284,141.627,129.215,144.913,107.24,155.795z"/>
				</g>
			</g>
		</g>
		<g id="Layer_15_copy">
			<circle style="fill:#9999FF;" cx="175" cy="336" r="123"/>
			<g>
				<polygon style="fill:#666666;" points="302.333,27 485,343.388 119.667,343.388 				"/>
				<polygon style="fill:#9999FF;" points="302.333,84.101 435.549,314.838 169.117,314.838 				"/>
			</g>
			<path style="fill:#6161FF;" d="M148.944,327l73.39-124.494c57.429,26.984,88.947,67.213,87.102,124.494H148.944z"/>
			<path style="fill:#666666;" d="M175,486c-82.843,0-150-67.157-150-150s67.157-150,150-150s150,67.157,150,150
				S257.843,486,175,486z M298,336c0-67.931-55.069-123-123-123S52,268.069,52,336s55.069,123,123,123S298,403.931,298,336z"/>
		</g>
		<g id="Layer_16_copy">
			<path style="fill:#333333;" d="M324.821,343.388H119.667l88.715-153.66c9.598,2.181,18.846,5.283,27.647,9.208
				c46.264,20.63,80.16,63.997,87.49,115.901C324.495,321.75,325,328.816,325,336C325,338.477,324.94,340.941,324.821,343.388z
				 M222.439,222.481l-53.322,92.357h127.069l0-0.001c-7.253-41.824-35.63-76.405-73.741-92.353"/>
		</g>
	</g>
	<g style="display:inline;">
		<path style="fill:#666666;" d="M486.464,102.049h-59.323v59.322H408.87v-59.322h-59.323V83.777h59.323V24.455h18.271v59.322
			h59.323V102.049z"/>
	</g>
</g>
<g id="menu_x5F_view_x5F_graphics" style="display:none;">
	<path style="display:inline;fill:#FFFFFF;" d="M512,462c0,27.614-22.386,50-50,50H50c-27.614,0-50-22.386-50-50V50
		C0,22.386,22.386,0,50,0h412c27.614,0,50,22.386,50,50V462z"/>
	<path style="fill:#FFFFFF;" d="M512,462c0,27.614-22.386,50-50,50H50c-27.614,0-50-22.386-50-50V50C0,22.386,22.386,0,50,0h412
		c27.614,0,50,22.386,50,50V462z"/>
	<g>
		<g style="display:inline;">
			
				<ellipse transform="matrix(0.8812 -0.4727 0.4727 0.8812 -156.2146 105.9525)" style="opacity:0.4;fill:#009900;" cx="132.723" cy="363.821" rx="100" ry="200.001"/>
			<path style="fill:#009900;" d="M220.845,316.551C168.632,219.214,86.851,161.47,38.183,187.576
				c-48.669,26.107-45.795,126.177,6.418,223.515c52.213,97.337,133.995,155.08,182.664,128.975
				C275.932,513.959,273.058,413.888,220.845,316.551z M57.819,404.001C9.522,313.965,3.905,222.986,45.273,200.795
				c41.368-22.19,114.056,32.81,162.354,122.848c48.298,90.036,53.914,181.015,12.546,203.204
				C178.805,549.038,106.117,494.038,57.819,404.001z"/>
		</g>
		<g style="display:inline;">
			<polyline style="opacity:0.4;fill:#0000FF;" points="122.975,368.495 515.481,369.903 297.317,34.341 			"/>
			<g>
				<path style="fill:#0000FF;" d="M297.317,35.75L122.975,369.903h392.506L297.317,35.75z M298.86,65.532l188.036,289.223
					l-338.303-0.215L298.86,65.532z"/>
			</g>
		</g>
		<rect x="291.973" y="-104.575" style="display:inline;fill:#FF0000;" width="10" height="721.15"/>
		
			<rect x="238.981" y="-134.742" transform="matrix(0.4677 -0.8839 0.8839 0.4677 -69.7427 335.8545)" style="display:inline;fill:#FF0000;" width="10.001" height="721.151"/>
		
			<rect x="-77.805" y="262.639" transform="matrix(0.842 -0.5395 0.5395 0.842 -99.712 194.8585)" style="display:inline;fill:#FF0000;" width="721.15" height="10"/>
		<circle style="display:inline;fill:#666666;" cx="297.973" cy="256" r="15"/>
	</g>
	<g id="Layer_13" style="display:inline;">
		<g id="Layer_14" style="display:none;">
			<g id="_424131536_1_" style="display:inline;">
				<g id="_424131536_2_">
					<g>
						<defs>
							<path id="SVGID_30_" d="M277.219,453.265c-64.919,39.611-155.658,9.225-202.657-67.829
								c-47.01-77.054-32.486-171.615,32.423-211.215c64.929-39.6,155.626-9.236,202.657,67.85
								C356.636,319.093,342.128,413.676,277.219,453.265z"/>
						</defs>
						<use xlink:href="#SVGID_30_"  style="overflow:visible;fill:#9999FF;"/>
						<clipPath id="SVGID_31_">
							<use xlink:href="#SVGID_30_"  style="overflow:visible;"/>
						</clipPath>
						<path style="clip-path:url(#SVGID_31_);fill:#9999FF;" d="M115.689,168.913c-38.176,18.07-61.787,54.06-68.136,96.376
							c-5.075,33.718,0.679,71.449,19.45,107.471c15.521,29.471,36.266,52.275,58.688,68.052
							c26.243,18.494,54.696,27.572,77.542,29.217c28.834,2.07,55.715-4.598,77.516-18.919
							c35.544-23.378,59.091-67.032,56.118-118.672c-1.295-22.475-5.245-46.85-17.56-72.403
							c-26.604-55.302-82.781-101.037-143.698-103.288C155.82,156.003,135.712,158.997,115.689,168.913z"/>
					</g>
				</g>
				<g>
					<defs>
						<path id="SVGID_32_" d="M284.516,467.865c-71.248,43.472-170.831,10.124-222.412-74.441
							C10.512,308.859,26.451,205.08,97.688,161.62c71.259-43.46,170.796-10.137,222.412,74.464
							C371.675,320.615,355.753,424.417,284.516,467.865z M293.663,251.418c-42.248-69.244-122.106-97.498-178.451-63.139
							c-56.323,34.36-67.752,118.32-25.517,187.54c42.213,69.221,122.107,97.487,178.441,63.127
							C324.458,404.585,335.881,320.615,293.663,251.418z"/>
					</defs>
					<use xlink:href="#SVGID_32_"  style="overflow:visible;fill:#666666;"/>
					<clipPath id="SVGID_33_">
						<use xlink:href="#SVGID_32_"  style="overflow:visible;"/>
					</clipPath>
					<path style="clip-path:url(#SVGID_33_);fill:#666666;" d="M107.24,155.795c-41.897,19.831-67.81,59.329-74.778,105.771
						c-5.569,37.005,0.746,78.414,21.346,117.947c17.034,32.344,39.801,57.371,64.409,74.685
						c28.801,20.297,60.027,30.259,85.101,32.065c31.645,2.271,61.146-5.046,85.073-20.763
						c39.009-25.657,64.851-73.567,61.589-130.24c-1.422-24.666-5.756-51.417-19.272-79.461
						c-29.198-60.693-90.85-110.886-157.706-113.356C151.284,141.627,129.215,144.913,107.24,155.795z"/>
				</g>
			</g>
		</g>
		<g id="Layer_15">
			<circle style="fill:#9999FF;" cx="175" cy="336" r="123"/>
			<g>
				<polygon style="fill:#666666;" points="302.333,27 485,343.388 119.667,343.388 				"/>
				<polygon style="fill:#9999FF;" points="302.333,84.101 435.549,314.838 169.117,314.838 				"/>
			</g>
			<path style="fill:#6161FF;" d="M148.944,327l73.39-124.494c57.429,26.984,88.947,67.213,87.102,124.494H148.944z"/>
			<path style="fill:#666666;" d="M175,486c-82.843,0-150-67.157-150-150s67.157-150,150-150s150,67.157,150,150
				S257.843,486,175,486z M298,336c0-67.931-55.069-123-123-123S52,268.069,52,336s55.069,123,123,123S298,403.931,298,336z"/>
		</g>
		<g id="Layer_16">
			<path style="fill:#333333;" d="M324.821,343.388H119.667l88.715-153.66c9.598,2.181,18.846,5.283,27.647,9.208
				c46.264,20.63,80.16,63.997,87.49,115.901C324.495,321.75,325,328.816,325,336C325,338.477,324.94,340.941,324.821,343.388z
				 M222.439,222.481l-53.322,92.357h127.069l0-0.001c-7.253-41.824-35.63-76.405-73.741-92.353"/>
		</g>
	</g>
</g>
<g id="menu_x5F_view_x5F_cas" style="display:none;">
	<path style="display:inline;fill:#FFFFFF;" d="M512,462c0,27.614-22.386,50-50,50H50c-27.614,0-50-22.386-50-50V50
		C0,22.386,22.386,0,50,0h412c27.614,0,50,22.386,50,50V462z"/>
	<g style="display:inline;">
		<defs>
			<path id="SVGID_34_" d="M485,440.241c0,24.72-20.039,44.759-44.759,44.759H71.759C47.039,485,27,464.961,27,440.241V71.759
				C27,47.039,47.039,27,71.759,27h368.482C464.961,27,485,47.039,485,71.759V440.241z"/>
		</defs>
		<clipPath id="SVGID_35_">
			<use xlink:href="#SVGID_34_"  style="overflow:visible;"/>
		</clipPath>
		<g style="clip-path:url(#SVGID_35_);">
			<g>
				<rect style="fill:#9999FF;" width="150" height="512"/>
				<g>
					<path style="fill:#666666;" d="M360.488,347.088h-56.055l-39.307-62.549l-36.572,62.549h-52.637l62.549-93.652l-56.396-81.348
						h55.713l34.521,51.611l29.736-51.611h52.295l-55.029,81.348L360.488,347.088z"/>
				</g>
				<g>
					<path style="fill:#666666;" d="M512,239.947H376.174v-20.568H512V239.947z M512,301H376.174v-20.895H512V301z"/>
				</g>
			</g>
		</g>
	</g>
</g>
<g id="menu_x5F_view_x5F_algebra" style="display:none;">
	<path style="display:inline;fill:#FFFFFF;" d="M512,462c0,27.614-22.386,50-50,50H50c-27.614,0-50-22.386-50-50V50
		C0,22.386,22.386,0,50,0h412c27.614,0,50,22.386,50,50V462z"/>
	<g style="display:inline;">
		<defs>
			<path id="SVGID_36_" d="M485,440.241c0,24.72-20.039,44.759-44.759,44.759H71.759C47.039,485,27,464.961,27,440.241V71.759
				C27,47.039,47.039,27,71.759,27h368.482C464.961,27,485,47.039,485,71.759V440.241z"/>
		</defs>
		<clipPath id="SVGID_37_">
			<use xlink:href="#SVGID_36_"  style="overflow:visible;"/>
		</clipPath>
		<g style="clip-path:url(#SVGID_37_);">
			<g>
				<g>
					<path style="fill:none;stroke:#666666;stroke-width:30;stroke-miterlimit:10;" d="M44,480.094
						C85.78,202.17,150.761-36.765,255.793,256.071C361.69,551.32,423.325,309.971,468,31.907"/>
				</g>
				<g>
					<circle style="fill:#9999FF;" cx="163.953" cy="121.954" r="63.047"/>
					<path style="fill:#333333;" d="M163.953,58.906c-34.817,0-63.047,28.233-63.047,63.047c0,34.823,28.229,63.047,63.047,63.047
						C198.77,185,227,156.777,227,121.953C227,87.139,198.77,58.906,163.953,58.906z M163.953,166.086
						c-24.374,0-44.133-19.759-44.133-44.133c0-24.374,19.759-44.133,44.133-44.133c24.374,0,44.133,19.759,44.133,44.133
						C208.086,146.327,188.327,166.086,163.953,166.086z"/>
				</g>
				<g>
					<circle style="fill:#9999FF;" cx="346.047" cy="391.048" r="63.047"/>
					<path style="fill:#333333;" d="M346.047,328C311.229,328,283,356.233,283,391.047c0,34.823,28.229,63.047,63.047,63.047
						c34.817,0,63.047-28.223,63.047-63.047C409.094,356.233,380.864,328,346.047,328z M346.047,435.179
						c-24.374,0-44.133-19.759-44.133-44.133c0-24.374,19.759-44.133,44.133-44.133c24.374,0,44.133,19.759,44.133,44.133
						C390.18,415.42,370.42,435.179,346.047,435.179z"/>
				</g>
			</g>
		</g>
	</g>
</g>
<g id="border" style="display:none;">
	
		<rect x="12" y="12" style="display:inline;fill:none;stroke:#661D1D;stroke-width:26;stroke-miterlimit:10;" width="488" height="488"/>
</g>
</svg>
