<svg xmlns="http://www.w3.org/2000/svg" viewBox="0 0 512 512"><path d="M512 462c0 27.614-22.386 50-50 50H50c-27.614 0-50-22.386-50-50V50C0 22.386 22.386 0 50 0h412c27.614 0 50 22.386 50 50v412z" fill="#FFF"/><circle cx="175" cy="336" r="123" fill="#99F"/><path fill="#666" d="M302.333 27L485 343.388H119.667"/><path fill="#99F" d="M302.333 84.1L435.55 314.84H169.116"/><path d="M148.944 327l73.39-124.494C279.764 229.49 311.28 269.72 309.436 327H148.944z" fill="#6161FF"/><path d="M175 486c-82.843 0-150-67.157-150-150s67.157-150 150-150 150 67.157 150 150-67.157 150-150 150zm123-150c0-67.93-55.07-123-123-123S52 268.07 52 336s55.07 123 123 123 123-55.07 123-123z" fill="#666"/><g><path d="M324.82 343.388H119.668l88.715-153.66c9.598 2.18 18.846 5.283 27.647 9.208 46.263 20.63 80.16 63.997 87.49 115.9.975 6.914 1.48 13.98 1.48 21.164 0 2.477-.06 4.94-.18 7.388zM222.44 222.48l-53.323 92.358h127.07c-7.254-41.825-35.63-76.406-73.742-92.354" fill="#333"/></g><g><path d="M486.92 174.465h-88.727v-18.9c17.24-19.228 30.934-34.515 41.08-45.855 10.146-11.34 17.24-20.093 21.286-26.26 4.043-6.167 6.067-11.57 6.067-16.214 0-8.884-1.725-15.418-5.172-19.595-3.45-4.177-9.22-6.266-17.308-6.266-7.162 0-12.533 2.058-16.114 6.167-3.58 4.113-5.903 10.678-6.963 19.696h-20.69c2.12-28.514 16.71-42.772 43.767-42.772 13.394 0 23.873 4.078 31.432 12.235 7.56 8.156 11.34 17.406 11.34 27.75 0 3.184-.268 6.103-.797 8.754-.532 2.655-1.393 5.47-2.586 8.455-1.194 2.983-2.82 6.067-4.875 9.25-2.058 3.183-4.644 6.798-7.76 10.842-3.117 4.047-6.796 8.455-11.04 13.23-4.245 4.774-9.185 10.344-14.82 16.71-5.64 6.366-12.036 13.397-19.198 21.088-2.257 2.52-3.98 4.445-5.172 5.77h66.247v15.915z" fill="#666"/></g></svg>