<?xml version="1.0" encoding="iso-8859-1"?>
<!-- Generator: Adobe Illustrator 15.1.0, SVG Export Plug-In . SVG Version: 6.00 Build 0)  -->
<!DOCTYPE svg PUBLIC "-//W3C//DTD SVG 1.1//EN" "http://www.w3.org/Graphics/SVG/1.1/DTD/svg11.dtd">
<svg version="1.1" xmlns="http://www.w3.org/2000/svg" xmlns:xlink="http://www.w3.org/1999/xlink" x="0px" y="0px" width="512px"
	 height="512px" viewBox="0 0 512 512" style="enable-background:new 0 0 512 512;" xml:space="preserve">
<g id="menu_x5F_view_x5F_input_x5F_bar">
	<path style="fill:#999999;" d="M440.806,91H71.194C43.473,91,21,113.343,21,140.905v230.189C21,398.656,43.473,421,71.194,421
		h369.611C468.527,421,491,398.656,491,371.095V140.905C491,113.343,468.527,91,440.806,91z"/>
	<path style="fill:#FFFFFF;" d="M476,360.632C476,385.688,454.962,406,429.01,406H82.991C57.039,406,36,385.688,36,360.632V151.368
		C36,126.312,57.039,106,82.991,106H429.01c25.952,0,46.99,20.312,46.99,45.368V360.632z"/>
	<g>
		<path style="fill:#666666;" d="M154.997,191.353c-2.866-1.563-6.122-2.344-9.766-2.344c-5.731-0.259-9.863,0.946-12.402,3.613
			c-2.539,2.67-3.809,7.26-3.809,13.77v14.648h24.023v13.086H129.02v86.915h-17.969v-86.915H90.934v-13.086h20.117v-15.039
			c0-12.109,2.539-20.41,7.617-24.902s12.824-6.671,23.242-6.543c4.688,0,9.048,0.717,13.086,2.148V191.353z"/>
		<path style="fill:#666666;" d="M208.317,347.408h-12.695c-15.106-27.344-22.656-56.25-22.656-86.719
			c0-30.597,7.55-59.571,22.656-86.915h12.695c-10.938,30.731-16.406,59.702-16.406,86.915
			C191.911,287.252,197.379,316.158,208.317,347.408z"/>
		<path style="fill:#666666;" d="M332.145,321.041h-22.852l-29.297-39.453l-28.32,39.453h-21.094l39.843-51.758l-36.718-48.243
			h22.852l26.367,35.742l25.586-35.742h20.898l-37.109,48.243L332.145,321.041z"/>
		<path style="fill:#666666;" d="M389.762,260.689c0,30.34-7.489,59.246-22.461,86.719H354.41
			c10.938-31.25,16.406-60.156,16.406-86.719c0-27.213-5.469-56.183-16.406-86.915h12.891
			C382.272,201.25,389.762,230.22,389.762,260.689z"/>
	</g>
</g>
<g id="Ebene_1">
</g>
</svg>
