<svg xmlns="http://www.w3.org/2000/svg" xmlns:xlink="http://www.w3.org/1999/xlink" viewBox="0 0 512 512" width="512" height="512"><path fill="#FFF" d="M512 462c0 27.614-22.386 50-50 50H50c-27.614 0-50-22.386-50-50V50C0 22.386 22.386 0 50 0h412c27.614 0 50 22.386 50 50v412z"/><defs><path id="a" d="M485 440.24c0 24.72-20.04 44.76-44.76 44.76H71.76C47.04 485 27 464.96 27 440.24V71.76C27 47.04 47.04 27 71.76 27h368.48C464.96 27 485 47.04 485 71.76v368.48z"/></defs><clipPath id="b"><use overflow="visible" xlink:href="#a"/></clipPath><g fill="#99F" clip-path="url(#b)"><path d="M26 26h460v130H26z"/><path d="M26 26h130v460H26z"/></g><path fill="#FFF" d="M157.504 19.333h24v186.333h-24z" clip-path="url(#b)"/><path fill="#FFF" d="M20 155.504h139.766v24H20zm0 156.328h140.766v24H20zM310.934 21h24v139.765h-24z" clip-path="url(#b)"/><path fill="#666" d="M156 311.832h330v24H156z" clip-path="url(#b)"/><path fill="#666" d="M310.934 156.252h24V486h-24z" clip-path="url(#b)"/><path fill="#333" d="M289.507 137.836H276.55l-9.508-23.534h-43.026l-9.628 23.534h-12.6L238.755 50h13.312l37.44 87.836zm-27.576-33.874l-16.758-40.53-16.403 40.53h33.16zm-155.746 189.53H94.87v-73.366c-4.525 3.176-10.88 6.55-19.055 10.123v-10.124a84.44 84.44 0 0 0 9.826-7.027c3.056-2.54 5.22-4.467 6.492-5.777 1.27-1.31 1.906-1.924 1.906-1.846h12.15v88.015zm11.375 155.221H64.44v-11.315c10.32-11.512 18.52-20.664 24.595-27.453 6.074-6.79 10.32-12.03 12.744-15.722 2.42-3.692 3.632-6.926 3.632-9.707 0-5.32-1.032-9.23-3.097-11.732-2.066-2.5-5.52-3.75-10.362-3.75-4.288 0-7.503 1.23-9.647 3.69-2.144 2.464-3.534 6.394-4.17 11.792H65.75c1.27-17.07 10.005-25.607 26.202-25.607 8.02 0 14.292 2.44 18.818 7.324 4.526 4.883 6.79 10.42 6.79 16.614 0 1.906-.16 3.655-.477 5.24-.318 1.59-.834 3.276-1.548 5.062-.715 1.787-1.688 3.633-2.918 5.538-1.232 1.906-2.78 4.07-4.645 6.492-1.866 2.422-4.07 5.06-6.61 7.92-2.542 2.858-5.5 6.193-8.873 10.004a703.708 703.708 0 0 1-11.494 12.625c-1.35 1.51-2.382 2.66-3.097 3.453h39.66v9.53zm318.186-335.361c0 6.894-2.615 12.7-7.845 17.413-5.23 4.715-11.41 7.072-18.54 7.072h-38.51V50h35.3c7.608 0 13.908 1.842 18.9 5.527 4.992 3.685 7.49 9.053 7.49 16.105 0 2.775-.517 5.35-1.547 7.726-1.03 2.377-2.278 4.24-3.743 5.586a37.679 37.679 0 0 1-4.398 3.507c-1.467.993-2.715 1.685-3.744 2.08l-1.545.476c.475.16 1.13.357 1.96.595.832.238 2.3.95 4.4 2.14 2.098 1.19 3.94 2.537 5.526 4.04 1.584 1.507 3.03 3.647 4.337 6.42 1.306 2.774 1.96 5.823 1.96 9.152zm-14.5-40.056c0-8.478-6.26-12.718-18.78-12.718h-19.373v26.15h19.136c12.676 0 19.016-4.476 19.016-13.432zm2.615 38.748c0-4.913-1.882-8.677-5.645-11.292-3.764-2.615-9.29-3.922-16.58-3.922H383.09v30.428h19.136c6.418 0 11.628-1.426 15.63-4.28 4-2.852 6.003-6.495 6.003-10.934z"/></svg>