<svg xmlns="http://www.w3.org/2000/svg" viewBox="0 0 512 512"><path d="M512 462c0 27.614-22.386 50-50 50H50c-27.614 0-50-22.386-50-50V50C0 22.386 22.386 0 50 0h412c27.614 0 50 22.386 50 50v412z" fill="#FFF"/><g fill-rule="evenodd" clip-rule="evenodd" fill="#99F"><path d="M256 262.432L267.293 256c21.04-6 60.04-38.334 84.736-83.1H159.97c18.697 39.433 69.363 81.1 84.735 83.1L256 262.432zM125.667 462.328v-36.554L256 352.667l130.333 73.107v36.554"/></g><path d="M214.034 256C157.582 229.654 106 154.32 106 30h300c0 124.323-51.583 199.656-108.036 226C354.417 282.344 406 357.677 406 482H106c0-124.322 51.58-199.656 108.034-226zM130.5 459.46h251c0-111.924-66.974-179.744-114.207-203.46C314.526 232.284 381.5 164.464 381.5 52.54h-251c0 111.922 66.973 179.742 114.205 203.46C197.473 279.717 130.5 347.538 130.5 459.46z" fill="#555"/></svg>