<svg xmlns="http://www.w3.org/2000/svg" width="512" height="512"><path d="M415.09 387.69l-.19-2.39-99.38-99.38-30 55.48 86.64 86.6 2.4.18c1.49.12 3 .17 4.38.17 11.14 0 20-3.48 26.38-10.36 11.05-11.88 9.82-29.55 9.77-30.3zM255 225.43l-31.71-31.71c9.7-43 9.85-57.3 9.85-57.91v-1.66l-.8-1.46c-.34-.69-9.13-16.61-29.34-36.84-8.13-8.12-20.72-12.24-37.44-12.24-19 0-36.75 5.31-37.5 5.54l-10.39 3.14 22.93 22.92 34 11 5.71 38.31-28.92 28.92-38.32-5.7-11-34-22.92-22.95L76 141.18c-.65 2.14-15.59 52.64 6.71 74.93 20.22 20.23 36.17 29 36.84 29.4l1.41.76h2c2.56 0 25.23-.28 57.79-9.65l18.78 18.78zM429.31 103.55l-4.03-4.02-43.14 28.21-6.58 21.21-65.69 65.68 18.39 18.39 65.68-65.69 21.21-6.58 28.21-43.15-14.05-14.05zM283.6 213.09l-4.28 7.13c-1.15 1.92-1.39 3.95-1.66 6.3-.7 6.1-1.77 15.31-20 20.49-16.62 4.73-24.6 9.66-24.93 9.86l-.63.4-117.81 117.81v2.76a44.58 44.58 0 0 0 15.17 33.28 44.6 44.6 0 0 0 33.28 15.17h2.76l117.87-117.76.39-.63c.2-.33 5.13-8.31 9.86-24.93 5.18-18.23 14.4-19.3 20.49-20 2.35-.27 4.39-.51 6.3-1.66l7.14-4.28z"/></svg>