<?xml version="1.0" encoding="iso-8859-1"?>
<!-- Generator: Adobe Illustrator 15.1.0, SVG Export Plug-In . SVG Version: 6.00 Build 0)  -->
<!DOCTYPE svg PUBLIC "-//W3C//DTD SVG 1.1//EN" "http://www.w3.org/Graphics/SVG/1.1/DTD/svg11.dtd">
<svg version="1.1" xmlns="http://www.w3.org/2000/svg" xmlns:xlink="http://www.w3.org/1999/xlink" x="0px" y="0px" width="512px"
	 height="512px" viewBox="0 0 512 512" style="enable-background:new 0 0 512 512;" xml:space="preserve">
<g id="menu_x5F_view_x5F_construction_x5F_protocol">
	<rect y="352" style="fill:#9999FF;" width="512" height="160"/>
	<g>
		<path style="fill:#333333;" d="M-85.27,123.11h-14.38V29.868c-5.752,4.037-13.827,8.325-24.219,12.866V29.868
			c4.439-2.725,8.602-5.7,12.488-8.931c3.883-3.229,6.634-5.676,8.25-7.341c1.613-1.665,2.422-2.445,2.422-2.346h15.439V123.11z"/>
		<path style="fill:#333333;" d="M-66.954,302.109h-67.51V287.73c13.117-14.631,23.538-26.264,31.257-34.891
			c7.72-8.628,13.117-15.288,16.196-19.98c3.077-4.692,4.617-8.803,4.617-12.336c0-6.759-1.313-11.731-3.936-14.91
			c-2.625-3.179-7.015-4.768-13.169-4.768c-5.449,0-9.536,1.566-12.261,4.692c-2.725,3.129-4.491,8.124-5.298,14.985h-15.742
			c1.613-21.695,12.715-32.544,33.301-32.544c10.191,0,18.164,3.103,23.916,9.309s8.628,13.245,8.628,21.116
			c0,2.422-0.204,4.643-0.605,6.66c-0.404,2.02-1.06,4.163-1.968,6.433s-2.145,4.617-3.708,7.039
			c-1.566,2.422-3.534,5.172-5.903,8.25c-2.372,3.08-5.172,6.433-8.401,10.066c-3.231,3.633-6.989,7.872-11.277,12.715
			c-4.291,4.844-9.158,10.193-14.607,16.045c-1.717,1.918-3.027,3.381-3.936,4.389h50.405V302.109z"/>
		<path style="fill:#333333;" d="M-64.532,451.139c0,9.184-3.458,16.828-10.369,22.932c-6.913,6.107-15.667,9.158-26.262,9.158
			c-11.708,0-20.586-3.127-26.641-9.385c-6.055-6.256-9.082-13.672-9.082-22.25h16.499c1.211,13.119,7.77,19.678,19.678,19.678
			c5.246,0,10.014-1.893,14.304-5.678c4.288-3.783,6.433-8.146,6.433-13.092c0-15.943-10.444-23.766-31.333-23.463v-12.412
			c9.688,0,17.029-1.664,22.024-4.994s7.493-8.729,7.493-16.197c0-5.852-2.043-10.066-6.13-12.639
			c-4.087-2.574-8.502-3.859-13.245-3.859c-9.588,0-15.492,6.459-17.71,19.375h-15.742c1.31-10.09,4.792-17.836,10.444-23.236
			c5.65-5.396,13.219-8.098,22.705-8.098c10.392,0,18.845,2.801,25.354,8.4c6.509,5.602,9.763,12.641,9.763,21.117
			c0,3.533-0.733,6.811-2.195,9.838c-1.464,3.027-3.254,5.426-5.374,7.189c-2.119,1.768-4.34,3.482-6.66,5.146
			c-2.323,1.666-4.291,2.902-5.903,3.709c0.705,0.404,2.218,1.211,4.541,2.422c2.32,1.211,4.288,2.398,5.903,3.557
			c1.613,1.162,3.406,2.752,5.374,4.77c1.968,2.02,3.481,4.541,4.541,7.568S-64.532,447.203-64.532,451.139z"/>
	</g>
	<g>
		<path style="fill:#666666;" d="M120.242,126.102h-12.773l-9.375-23.203H55.672l-9.492,23.203H33.758L70.203,39.5h13.125
			L120.242,126.102z M93.055,92.703L76.531,52.742L60.359,92.703H93.055z"/>
		<path style="fill:#666666;" d="M217.977,82.859h-71.953v-7.383h71.953V82.859z M217.977,104.773h-71.953v-7.5h71.953V104.773z"/>
		<path style="fill:#666666;" d="M274.109,141.922h-7.617c-9.063-16.406-13.594-33.75-13.594-52.031
			c0-18.358,4.53-35.742,13.594-52.148h7.617c-6.563,18.438-9.844,35.821-9.844,52.148
			C264.266,105.828,267.547,123.172,274.109,141.922z"/>
		<path style="fill:#666666;" d="M330.594,126.102h-11.133V53.914c-4.453,3.125-10.704,6.445-18.75,9.961v-9.961
			c3.438-2.109,6.66-4.413,9.668-6.914c3.007-2.5,5.137-4.395,6.387-5.684c1.249-1.289,1.875-1.894,1.875-1.816h11.953V126.102z"/>
		<path style="fill:#666666;" d="M379.461,111.336l-13.125,30h-8.438l7.266-30H379.461z"/>
		<path style="fill:#666666;" d="M430.672,126.102h-11.133V53.914c-4.453,3.125-10.704,6.445-18.75,9.961v-9.961
			c3.438-2.109,6.66-4.413,9.668-6.914c3.007-2.5,5.137-4.395,6.387-5.684c1.249-1.289,1.875-1.894,1.875-1.816h11.953V126.102z"/>
		<path style="fill:#666666;" d="M484.461,89.891c0,18.204-4.493,35.548-13.477,52.031h-7.734
			c6.563-18.75,9.844-36.094,9.844-52.031c0-16.328-3.281-33.71-9.844-52.148h7.734C479.968,54.227,484.461,71.609,484.461,89.891z"
			/>
		<path style="fill:#666666;" d="M105.594,274.961c0,6.797-2.578,12.521-7.734,17.168c-5.156,4.649-11.25,6.973-18.281,6.973H41.609
			V212.5h34.805c7.5,0,13.711,1.816,18.633,5.449s7.383,8.926,7.383,15.879c0,2.735-0.509,5.273-1.523,7.617
			c-1.016,2.344-2.247,4.18-3.691,5.508c-1.446,1.329-2.891,2.481-4.336,3.457c-1.446,0.978-2.677,1.661-3.691,2.051l-1.523,0.469
			c0.469,0.157,1.113,0.352,1.934,0.586s2.265,0.938,4.336,2.109c2.069,1.172,3.886,2.501,5.449,3.984
			c1.562,1.484,2.988,3.594,4.277,6.328C104.949,268.673,105.594,271.68,105.594,274.961z M91.297,235.469
			c0-8.359-6.172-12.539-18.516-12.539H53.68v25.781h18.867C85.046,248.711,91.297,244.298,91.297,235.469z M93.875,273.672
			c0-4.844-1.856-8.555-5.566-11.133c-3.711-2.578-9.161-3.867-16.348-3.867H53.68v30h18.867c6.328,0,11.464-1.406,15.41-4.219
			C91.901,281.641,93.875,278.048,93.875,273.672z"/>
		<path style="fill:#666666;" d="M208.719,255.859h-71.953v-7.383h71.953V255.859z M208.719,277.773h-71.953v-7.5h71.953V277.773z"
			/>
		<path style="fill:#666666;" d="M264.852,314.922h-7.617c-9.063-16.406-13.594-33.75-13.594-52.031
			c0-18.358,4.53-35.742,13.594-52.148h7.617c-6.563,18.438-9.844,35.821-9.844,52.148
			C255.008,278.828,258.289,296.172,264.852,314.922z"/>
		<path style="fill:#666666;" d="M335.516,299.102H283.25v-11.133c10.155-11.327,18.223-20.332,24.199-27.012
			s10.155-11.836,12.539-15.469c2.383-3.633,3.574-6.815,3.574-9.551c0-5.233-1.016-9.082-3.047-11.543
			c-2.032-2.461-5.431-3.691-10.195-3.691c-4.219,0-7.383,1.212-9.492,3.633c-2.109,2.422-3.477,6.29-4.102,11.602h-12.188
			c1.249-16.796,9.844-25.195,25.781-25.195c7.891,0,14.063,2.402,18.516,7.207s6.68,10.254,6.68,16.348
			c0,1.875-0.157,3.594-0.469,5.156c-0.313,1.563-0.82,3.223-1.523,4.98s-1.66,3.574-2.871,5.449
			c-1.212,1.875-2.735,4.004-4.57,6.387c-1.836,2.384-4.004,4.98-6.504,7.793c-2.501,2.813-5.41,6.094-8.73,9.844
			c-3.321,3.75-7.09,7.892-11.309,12.422c-1.329,1.485-2.344,2.618-3.047,3.398h39.023V299.102z"/>
		<path style="fill:#666666;" d="M370.203,284.336l-13.125,30h-8.438l7.266-30H370.203z"/>
		<path style="fill:#666666;" d="M435.594,299.102h-52.266v-11.133c10.155-11.327,18.223-20.332,24.199-27.012
			s10.155-11.836,12.539-15.469c2.383-3.633,3.574-6.815,3.574-9.551c0-5.233-1.016-9.082-3.047-11.543
			c-2.032-2.461-5.431-3.691-10.195-3.691c-4.219,0-7.383,1.212-9.492,3.633c-2.109,2.422-3.477,6.29-4.102,11.602h-12.188
			c1.249-16.796,9.844-25.195,25.781-25.195c7.891,0,14.063,2.402,18.516,7.207s6.68,10.254,6.68,16.348
			c0,1.875-0.157,3.594-0.469,5.156c-0.313,1.563-0.82,3.223-1.523,4.98s-1.66,3.574-2.871,5.449
			c-1.212,1.875-2.735,4.004-4.57,6.387c-1.836,2.384-4.004,4.98-6.504,7.793c-2.501,2.813-5.41,6.094-8.73,9.844
			c-3.321,3.75-7.09,7.892-11.309,12.422c-1.329,1.485-2.344,2.618-3.047,3.398h39.023V299.102z"/>
		<path style="fill:#666666;" d="M475.203,262.891c0,18.204-4.493,35.548-13.477,52.031h-7.734
			c6.563-18.75,9.844-36.094,9.844-52.031c0-16.328-3.281-33.71-9.844-52.148h7.734C470.71,227.227,475.203,244.609,475.203,262.891
			z"/>
		<path style="fill:#333333;" d="M91.297,472.102H80.516c-0.86-4.53-1.329-7.46-1.406-8.789c-2.032,2.423-3.673,4.239-4.922,5.449
			c-1.25,1.212-3.047,2.325-5.391,3.34s-5,1.523-7.969,1.523c-5.704,0-10.957-1.542-15.762-4.629
			c-4.805-3.085-7.207-7.324-7.207-12.715c0-3.516,0.683-6.601,2.051-9.258c1.366-2.655,3.124-4.784,5.273-6.387
			c2.148-1.601,4.706-2.909,7.676-3.926c2.968-1.015,5.859-1.699,8.672-2.051s5.781-0.527,8.906-0.527
			c0.938,0,2.304,0.04,4.102,0.117c1.796,0.079,3.164,0.117,4.102,0.117c1.015-4.608,0.429-8.397-1.758-11.367
			c-2.188-2.968-5.899-4.453-11.133-4.453c-3.673,0-6.837,0.782-9.492,2.344c-2.657,1.563-3.984,4.024-3.984,7.383H41.141
			c0-11.796,8.046-17.695,24.141-17.695c12.733,0,20.429,3.398,23.086,10.195c0.938,2.188,1.406,8.517,1.406,18.984v10.43
			C89.773,461.829,90.281,469.134,91.297,472.102z M78.523,442.57c-3.984-0.234-6.055-0.352-6.211-0.352
			c-2.267,0-4.57,0.176-6.914,0.527s-4.845,0.938-7.5,1.758c-2.657,0.82-4.805,2.13-6.445,3.926
			c-1.641,1.798-2.461,3.946-2.461,6.445c0,3.281,1.172,5.899,3.516,7.852c2.344,1.954,5.156,2.93,8.438,2.93
			c6.874,0,11.523-2.011,13.945-6.035C77.312,455.599,78.523,449.915,78.523,442.57z"/>
		<path style="fill:#333333;" d="M122.938,426.867H109.93v-14.766h13.008V426.867z M122.938,472.102H109.93v-14.766h13.008V472.102z
			"/>
		<path style="fill:#333333;" d="M192.195,478.781l2.461-6.68l-25.664-60h12.656l18.867,45.234l17.461-45.234h11.602l-28.594,73.359
			L197,495.891h-11.016L192.195,478.781z"/>
		<path style="fill:#333333;" d="M327.313,428.859h-71.953v-7.383h71.953V428.859z M327.313,450.773h-71.953v-7.5h71.953V450.773z"
			/>
		<path style="fill:#333333;" d="M414.617,472.102h-13.711l-17.578-23.672l-16.992,23.672H353.68l23.906-31.055l-22.031-28.945
			h13.711l15.82,21.445l15.352-21.445h12.539l-22.266,28.945L414.617,472.102z"/>
	</g>
	<rect y="164.422" style="fill:#999999;" width="512" height="15"/>
	<rect y="346" style="fill:#999999;" width="512" height="15"/>
</g>
<g id="Ebene_1">
</g>
</svg>
