<svg xmlns="http://www.w3.org/2000/svg" viewBox="0 0 512 512"><path d="M512 462c0 27.614-22.386 50-50 50H50c-27.614 0-50-22.386-50-50V50C0 22.386 22.386 0 50 0h412c27.614 0 50 22.386 50 50v412z" fill="#FFF"/><circle cx="175" cy="336" r="123" fill="#99F"/><path fill="#666" d="M302.333 27L485 343.388H119.667"/><path fill="#99F" d="M302.333 84.1L435.55 314.84H169.116"/><path d="M148.944 327l73.39-124.494C279.764 229.49 311.28 269.72 309.436 327H148.944z" fill="#6161FF"/><path d="M175 486c-82.843 0-150-67.157-150-150s67.157-150 150-150 150 67.157 150 150-67.157 150-150 150zm123-150c0-67.93-55.07-123-123-123S52 268.07 52 336s55.07 123 123 123 123-55.07 123-123z" fill="#666"/><g><path d="M324.82 343.388H119.668l88.715-153.66c9.598 2.18 18.846 5.283 27.647 9.208 46.263 20.63 80.16 63.997 87.49 115.9.975 6.914 1.48 13.98 1.48 21.164 0 2.477-.06 4.94-.18 7.388zM222.44 222.48l-53.323 92.358h127.07c-7.254-41.825-35.63-76.406-73.742-92.354" fill="#333"/></g><g><path d="M486.464 102.05H427.14v59.32h-18.27v-59.32h-59.323V83.776h59.323V24.455h18.27v59.322h59.324v18.272z" fill="#666"/></g></svg>