<svg xmlns="http://www.w3.org/2000/svg" width="512" height="512" viewBox="0 0 512 512"><path fill="#930" d="M422 305V63l-68 142v242z" opacity=".2"/><g fill="none" stroke="#930" stroke-width="13"><path d="M90 361.61l12.32-2.1"/><path stroke-dasharray="23.98 23.98" d="M125.97 355.48l271.89-46.36"/><path d="M409.68 307.1L422 305"/></g><path fill="#930" d="M422 305V63l-68 142v242z" opacity=".4"/><path fill="#930" d="M90 120l264 85 68-142z" opacity=".2"/><path fill="#fff" d="M90 120l264 85 68-142z" opacity=".2"/><path fill="#930" d="M90 362l264 85V205L90 120z" opacity=".2"/><linearGradient id="a" x1="74.25" x2="369.75" y1="135.75" y2="431.25" gradientUnits="userSpaceOnUse"><stop offset="0" stop-color="#fff"/><stop offset="1" stop-color="#930"/></linearGradient><path fill="url(#a)" d="M90 362l264 85V205L90 120z" opacity=".4"/><path fill="none" stroke="#930" stroke-width="13" d="M90 361.61L354 447m0 0l68-142M90 119.61L354 205m0 0l68-142M90 119.61L422 63M90 119.61v242M422 63v242m-68-100v242"/><circle cx="90" cy="362" r="35" fill="#00f"/><path d="M90 334.999c14.888 0 27 12.112 27 27S104.888 389 90 389s-27-12.113-27-27.001 12.112-27 27-27m0-13c-22.092 0-40 17.909-40 40S67.908 402 90 402s40-17.91 40-40.001-17.908-40-40-40z"/><circle cx="354" cy="447" r="35" fill="#00f"/><path d="M354 419.999c14.888 0 27 12.112 27 27S368.888 474 354 474s-27-12.113-27-27.001 12.112-27 27-27m0-13c-22.092 0-40 17.909-40 40S331.908 487 354 487s40-17.91 40-40.001-17.908-40-40-40z"/><circle cx="422" cy="305" r="35" fill="#00f"/><path d="M422 277.999c14.888 0 27 12.112 27 27S436.888 332 422 332s-27-12.113-27-27.001 12.112-27 27-27m0-13c-22.092 0-40 17.909-40 40S399.908 345 422 345s40-17.91 40-40.001-17.908-40-40-40z"/><circle cx="90" cy="120" r="35" fill="#00f"/><path d="M90 93c14.888 0 27 12.112 27 27s-12.112 27.001-27 27.001S63 134.888 63 120s12.112-27 27-27m0-13c-22.092 0-40 17.909-40 40s17.908 40.001 40 40.001 40-17.91 40-40.001-17.908-40-40-40z"/><circle cx="354" cy="205" r="35" fill="red"/><path d="M354 178c14.888 0 27 12.112 27 27s-12.112 27.001-27 27.001-27-12.113-27-27.001 12.112-27 27-27m0-13c-22.092 0-40 17.909-40 40s17.908 40.001 40 40.001 40-17.91 40-40.001-17.908-40-40-40z"/><circle cx="422" cy="63" r="35" fill="red"/><path d="M422 36c14.888 0 27 12.112 27 27s-12.112 27.001-27 27.001S395 77.888 395 63s12.112-27 27-27m0-13c-22.092 0-40 17.909-40 40s17.908 40.001 40 40.001S462 85.091 462 63s-17.908-40-40-40z"/></svg>