<svg xmlns="http://www.w3.org/2000/svg" width="512" height="512" viewBox="0 0 512 512"><path fill="#930" d="M83.11 351.35l16.2-220.08 214.32-52.61 116.26 187.57-142.47 168.54z" opacity=".2"/><path fill="none" stroke="#930" stroke-miterlimit="10" stroke-width="13" d="M83.11 351.35l16.2-220.08 214.32-52.61 116.26 187.57-142.47 168.54z"/><circle cx="286.67" cy="432.34" r="35" fill="#00f"/><path d="M308.786 416.854c8.537 12.193 5.563 29.064-6.631 37.604-12.195 8.539-29.066 5.564-37.605-6.631s-5.564-29.064 6.631-37.604 29.064-5.565 37.605 6.631m10.649-7.458c-12.672-18.096-37.615-22.492-55.709-9.822-18.096 12.67-22.496 37.613-9.824 55.709 12.672 18.098 37.613 22.494 55.709 9.824 18.095-12.671 22.495-37.613 9.824-55.711z"/><circle cx="83.11" cy="352.33" r="35" fill="#00f"/><path d="M105.232 336.847c8.537 12.193 5.563 29.064-6.631 37.604-12.195 8.539-29.066 5.564-37.605-6.631s-5.564-29.064 6.631-37.604 29.064-5.565 37.605 6.631m10.648-7.457c-12.672-18.096-37.615-22.492-55.709-9.822-18.096 12.67-22.496 37.613-9.824 55.709 12.672 18.098 37.613 22.494 55.709 9.824 18.096-12.672 22.496-37.614 9.824-55.711z"/><circle cx="99.7" cy="132.19" r="35" fill="red"/><path d="M121.814 116.702c8.537 12.193 5.563 29.064-6.631 37.604-12.195 8.539-29.066 5.564-37.605-6.631s-5.564-29.064 6.631-37.604 29.064-5.564 37.605 6.631m10.648-7.457c-12.672-18.096-37.615-22.492-55.709-9.822-18.096 12.67-22.496 37.613-9.824 55.709 12.672 18.098 37.613 22.494 55.709 9.824 18.096-12.672 22.496-37.613 9.824-55.711z"/><circle cx="312.67" cy="79.66" r="35" fill="red"/><path d="M334.786 64.172c8.537 12.193 5.563 29.064-6.631 37.604-12.195 8.539-29.066 5.564-37.605-6.631s-5.564-29.064 6.631-37.604 29.064-5.564 37.605 6.631m10.649-7.457c-12.672-18.096-37.615-22.492-55.709-9.822-18.096 12.67-22.496 37.613-9.824 55.709 12.672 18.098 37.613 22.494 55.709 9.824 18.095-12.672 22.495-37.613 9.824-55.711z"/><circle cx="428.89" cy="265.33" r="35" fill="red"/><path d="M451.005 249.843c8.537 12.193 5.563 29.064-6.631 37.603-12.195 8.539-29.066 5.564-37.605-6.631s-5.564-29.064 6.631-37.603 29.064-5.564 37.605 6.631m10.648-7.457c-12.672-18.096-37.615-22.492-55.709-9.822-18.096 12.67-22.496 37.613-9.824 55.708 12.672 18.098 37.613 22.494 55.709 9.824 18.096-12.671 22.496-37.613 9.824-55.71z"/></svg>