<svg xmlns="http://www.w3.org/2000/svg" width="512" height="512" viewBox="0 0 512 512"><path fill="none" stroke="#000" stroke-width="13" d="M146.711 572.063c0-119.018-96.483-215.5-215.5-215.5"/><path d="M257.92 193.73l145.66-87.4-87.39 145.66zm-1.28 123.19l-145.66 87.39 87.4-145.66z"/><circle cx="423.58" cy="87.69" r="35" fill="red"/><path d="M423.585 60.686c14.888 0 27 12.112 27 27 0 14.887-12.112 27-27 27s-27-12.113-27-27c0-14.888 12.112-27 27-27m0-13c-22.091 0-40 17.909-40 40 0 22.09 17.909 40 40 40 22.092 0 40-17.91 40-40 0-22.091-17.908-40-40-40z"/><circle cx="88.42" cy="424.31" r="35" fill="red"/><path d="M88.415 397.313c14.888 0 27 12.113 27 27 0 14.888-12.112 27.001-27 27.001s-27-12.113-27-27.001c0-14.887 12.112-27 27-27m0-13c-22.091 0-40 17.91-40 40 0 22.091 17.909 40.001 40 40.001 22.092 0 40-17.91 40-40.001 0-22.09-17.908-40-40-40z"/><path fill="none" stroke="#000" stroke-width="13" d="M183.81 331.48l146.94-152.32"/></svg>