<svg xmlns="http://www.w3.org/2000/svg" width="512" height="512" viewBox="0 0 512 512"><path fill="none" stroke="#1a171b" stroke-width="13" d="M-24.5 271.5S82.642 464.566 217.571 464.566 464.498 160.5 504.499-18.5"/><path fill="none" stroke="red" stroke-linecap="round" stroke-width="17" d="M80.536 402.466c38.819 34.408 85.935 62.101 137.035 62.101 78.209 0 148.714-102.158 201.96-222.905"/><path fill="#00f" d="M73.54 71.5h200v50h-200z" opacity=".4"/><path fill="#fff" d="M73.54 121.5h200v150h-200z"/><path fill="none" stroke="#666" stroke-width="13" d="M73.54 71.5h200v200h-200zm0 50h200m-200 50h200m-200 50h200"/><path d="M128.617 106.65h-3.428l-4.395-5.918-4.248 5.918h-3.164l5.977-7.764-5.508-7.236h3.428l3.955 5.361 3.838-5.361h3.135l-5.566 7.236 5.976 7.764zm74.614-19.453a3.014 3.014 0 0 0-1.465-.352c-.86-.039-1.479.142-1.86.542s-.571 1.089-.571 2.065v2.197h3.604v1.963h-3.604v13.037h-2.695V93.613h-3.018V91.65h3.018v-2.256c0-1.816.381-3.062 1.143-3.735s1.923-1 3.486-.981c.703 0 1.357.107 1.963.322v2.197zm7.998 23.408h-1.904c-2.266-4.102-3.398-8.438-3.398-13.008 0-4.589 1.132-8.936 3.398-13.037h1.904c-1.641 4.61-2.461 8.955-2.461 13.037.001 3.985.821 8.321 2.461 13.008zm18.575-3.955h-3.428l-4.395-5.918-4.248 5.918h-3.164l5.977-7.764-5.508-7.236h3.428l3.955 5.361 3.838-5.361h3.135l-5.566 7.236 5.976 7.764zm8.642-9.052c0 4.551-1.124 8.887-3.369 13.008h-1.934c1.641-4.688 2.461-9.023 2.461-13.008 0-4.082-.82-8.427-2.461-13.037h1.934c2.246 4.121 3.369 8.466 3.369 13.037z"/><circle cx="419.53" cy="241.66" r="11" stroke="#000" stroke-width="1.1"/><circle cx="79.54" cy="401.21" r="11" stroke="#000" stroke-width="1.1"/></svg>