<svg xmlns="http://www.w3.org/2000/svg" width="512" height="512" viewBox="0 0 512 512"><g fill="none" stroke="#930" stroke-width="13"><path d="M75 387.5l10.61-6.61"/><path stroke-dasharray="27.52 27.52" d="M108.97 366.33l81.74-50.94"/><path d="M202.39 308.11L213 301.5"/></g><path fill="#930" d="M75 387.5l224 65 138-86-224-65z" opacity=".2"/><g fill="none" stroke="#930" stroke-width="13"><path d="M213 301.5l12 3.48"/><path stroke-dasharray="23.14 23.14" d="M247.23 311.43l166.65 48.36"/><path d="M425 363.02l12 3.48"/></g><path fill="none" stroke="#930" stroke-dasharray="25" stroke-width="13" d="M213 301.5L256 65"/><circle cx="213" cy="301.5" r="35" fill="#99f"/><path fill="#666" d="M213 274.5c14.888 0 27 12.113 27 27 0 14.889-12.112 27.002-27 27.002s-27-12.113-27-27.002c0-14.887 12.112-27 27-27m0-13c-22.092 0-40 17.91-40 40 0 22.092 17.908 40.002 40 40.002s40-17.91 40-40.002c0-22.09-17.908-40-40-40z"/><path fill="#930" d="M75 387.5l224 65L256 65z" opacity=".2"/><path fill="#930" d="M437 366.5L256 65l43 387.5z" opacity=".2"/><linearGradient id="a" x1="256" x2="437" y1="258.75" y2="258.75" gradientUnits="userSpaceOnUse"><stop offset="0" stop-color="#930" stop-opacity="0"/><stop offset="1" stop-color="#930"/></linearGradient><path fill="url(#a)" d="M437 366.5L256 65l43 387.5z" opacity=".5"/><path fill="none" stroke="#930" stroke-width="13" d="M299 452.5l138-86m-362 21l224 65m-224-65L256 65m43 387.5L256 65m181 301.5L256 65"/><circle cx="75" cy="387.5" r="35" fill="#00f"/><path d="M75 360.498c14.888 0 27 12.113 27 27 0 14.889-12.112 27.002-27 27.002s-27-12.113-27-27.002c0-14.887 12.112-27 27-27m0-13c-22.092 0-40 17.91-40 40C35 409.59 52.908 427.5 75 427.5s40-17.91 40-40.002c0-22.09-17.908-40-40-40z"/><circle cx="299" cy="452.5" r="35" fill="#00f"/><path d="M299 425.498c14.888 0 27 12.113 27 27 0 14.889-12.112 27.002-27 27.002s-27-12.113-27-27.002c0-14.887 12.112-27 27-27m0-13c-22.092 0-40 17.91-40 40 0 22.092 17.908 40.002 40 40.002s40-17.91 40-40.002c0-22.09-17.908-40-40-40z"/><circle cx="256" cy="65" r="35" fill="#00f"/><path d="M256 38c14.888 0 27 12.112 27 27s-12.112 27.001-27 27.001S229 79.888 229 65s12.112-27 27-27m0-13c-22.092 0-40 17.909-40 40s17.908 40.001 40 40.001S296 87.091 296 65s-17.908-40-40-40z"/><circle cx="437" cy="366.5" r="35" fill="#00f"/><path d="M437 339.5c14.888 0 27 12.111 27 27 0 14.887-12.112 27-27 27s-27-12.113-27-27c0-14.889 12.112-27 27-27m0-13c-22.092 0-40 17.908-40 40 0 22.09 17.908 40 40 40s40-17.91 40-40c0-22.092-17.908-40-40-40z"/></svg>