<svg xmlns="http://www.w3.org/2000/svg" width="512" height="512"><defs><clipPath id="a"><path d="M449.76 140.41c55.5 91 12.92 218.12-95.05 284S114.24 469.91 58.75 379s-13-218.07 95.07-284 240.46-45.54 295.94 45.41ZM173.4 128.73C85 182.67 48.91 284.64 92.78 356.58s151.07 86.5 239.45 32.58 124.47-155.91 80.6-227.83-151.08-86.5-239.43-32.6Z" style="fill:none"/></clipPath></defs><path d="M51.31 366.76c25.32 53.49 75.75 86.57 135.05 95.47 47.24 7.11 100.12-1 150.59-27.25 41.3-21.75 73.25-50.82 95.36-82.24 25.91-36.77 38.63-76.64 40.94-108.66 2.9-40.4-6.44-78.07-26.51-108.62-32.74-49.8-93.93-82.8-166.29-78.63C249 58.64 214.8 64.18 179 81.43c-77.49 37.28-141.57 116-144.73 201.36-1.05 27.73 3.15 55.91 17.04 83.97Z" style="clip-path:url(#a)" data-name="424131536"/><g data-name="425309144"><path data-name="425034160" d="M138.83 368.91A60.09 60.09 0 1 1 78.73 429a60.09 60.09 0 0 1 60.1-60.09Z"/></g><g><path d="M243.94 22.92A60.09 60.09 0 1 1 183.85 83a60.08 60.08 0 0 1 60.09-60.08Z"/></g><g><path d="M451.9 132.2a60.1 60.1 0 1 1-60.1 60.1 60.12 60.12 0 0 1 60.1-60.1Z"/></g><g><path d="M369.57 337.4a60.09 60.09 0 1 1-60.09 60.1 60.08 60.08 0 0 1 60.09-60.1Z"/></g><g><path d="M60.09 166.31A60.09 60.09 0 1 1 0 226.41a60.08 60.08 0 0 1 60.09-60.1Z"/></g></svg>