<svg xmlns="http://www.w3.org/2000/svg" width="512" height="512" viewBox="0 0 512 512"><path fill="red" d="M108.415 335.512l159.514 44.517s35.179-88.113-48.125-163.821L108.415 335.512z" opacity=".2"/><path fill="none" stroke="red" stroke-miterlimit="10" stroke-width="13" d="M108.415 335.512l159.514 44.517s35.179-88.113-48.125-163.821L108.415 335.512z"/><path fill="red" d="M350.7 299.547c-7.711.001-14.94-3.433-19.573-9.73l-.064-.09c-12.326-17.555-8.77-40.957 1.594-52.571 7.698-8.628 18.431-10.443 28.706-4.849l.244.141c4.801 2.975 8.376 6.629 11.165 10.698 1.817-7.249 3.625-10.273 5.083-12.713.79-1.321 1.186-1.984 1.463-3.247l9.768 2.143c-.625 2.852-1.652 4.571-2.646 6.233-1.641 2.746-4.092 6.849-6.408 23.14.914 2.762 1.73 5.559 2.543 8.336 2.496 8.544 4.855 16.613 9.751 22.865l-7.873 6.166c-3.427-4.376-5.793-9.265-7.681-14.323-3.7 8.335-10.003 13.546-16.315 15.965-3.233 1.237-6.537 1.836-9.757 1.836zm-11.487-15.613c3.874 5.221 10.965 7.005 17.665 4.438 9.491-3.637 14.342-14.135 12.977-28.081l-.057-.578.001-.003c-2.735-7.625-6.39-14.33-13.339-18.686-7.745-4.15-13.158-.78-16.343 2.789-7.847 8.795-10.076 27.004-.904 40.121z"/><path fill="none" stroke="#1a171b" stroke-width="13" d="M108.42 335.51l295.16 82.38"/><circle cx="333.8" cy="94.11" r="35" fill="red"/><path d="M355.914 78.627c8.537 12.193 5.563 29.064-6.631 37.604-12.195 8.539-29.066 5.564-37.605-6.631s-5.564-29.064 6.631-37.604 29.064-5.564 37.605 6.631m10.649-7.457c-12.672-18.096-37.615-22.492-55.709-9.822-18.096 12.67-22.496 37.613-9.824 55.709 12.672 18.098 37.613 22.495 55.709 9.824 18.095-12.672 22.495-37.613 9.824-55.711z"/><circle cx="108.42" cy="335.51" r="35" fill="#00f"/><path d="M130.533 320.025c8.537 12.193 5.563 29.064-6.631 37.604-12.195 8.539-29.066 5.564-37.605-6.631s-5.564-29.064 6.631-37.604 29.064-5.564 37.605 6.631m10.649-7.457c-12.672-18.096-37.615-22.492-55.709-9.822-18.096 12.67-22.496 37.613-9.824 55.709 12.672 18.098 37.613 22.494 55.709 9.824 18.095-12.672 22.496-37.613 9.824-55.711z"/><circle cx="403.58" cy="417.88" r="35" fill="#00f"/><path d="M425.702 402.398c8.537 12.193 5.563 29.064-6.631 37.604-12.195 8.539-29.066 5.564-37.605-6.631s-5.564-29.064 6.631-37.604 29.064-5.564 37.605 6.631m10.649-7.457c-12.672-18.096-37.615-22.492-55.709-9.822-18.096 12.67-22.496 37.613-9.824 55.709 12.672 18.098 37.613 22.494 55.709 9.824 18.095-12.672 22.495-37.613 9.824-55.711z"/></svg>