<svg xmlns="http://www.w3.org/2000/svg" width="512" height="512" viewBox="0 0 512 512"><path d="M376.173 525.319C326.021 330.76 182.793 165.572-16.785 72.112l5.513-11.773c203.104 95.111 348.911 263.407 400.033 461.736l-12.588 3.244z"/><path fill="none" stroke="#000" stroke-miterlimit="10" stroke-width="13" d="M-9.29 392.69l535.31-245.15"/><circle cx="252.91" cy="272.83" r="35" fill="red"/><path d="M252.911 245.83c14.888 0 27 12.112 27 27s-12.112 27-27 27-27-12.112-27-27 12.112-27 27-27m0-13c-22.091 0-40 17.909-40 40s17.909 40 40 40c22.092 0 40-17.909 40-40s-17.908-40-40-40z"/></svg>