<svg xmlns="http://www.w3.org/2000/svg" width="512" height="512" viewBox="0 0 512 512"><path d="M190.753 338.367h-23.627l-17.342-44.076h-78.47l-17.558 44.075H30.779l67.414-164.512h24.28l68.28 164.513zm-50.29-63.445L109.9 199.01l-29.914 75.91h60.478zm189.672 17.588c0 12.912-4.768 23.784-14.306 32.613-9.539 8.83-20.81 13.244-33.815 13.244H211.78V173.855h64.38c13.873 0 25.361 3.451 34.466 10.352 9.103 6.902 13.656 16.956 13.656 30.165 0 5.195-.94 10.018-2.818 14.47-1.879 4.451-4.154 7.938-6.828 10.463-2.674 2.523-5.347 4.712-8.02 6.568-2.674 1.854-4.95 3.153-6.83 3.895l-2.817.89c.867.298 2.059.669 3.576 1.115 1.518.444 4.192 1.781 8.02 4.007 3.83 2.226 7.19 4.75 10.08 7.57 2.89 2.818 5.528 6.826 7.913 12.02 2.384 5.192 3.576 10.906 3.576 17.14zm-26.446-75.023c0-15.879-11.416-23.819-34.25-23.82h-35.332v48.977h34.899c23.123 0 34.683-8.386 34.683-25.157zm4.77 72.574c0-9.202-3.433-16.25-10.297-21.149-6.865-4.897-16.944-7.346-30.239-7.346h-33.816v56.988h34.899c11.706 0 21.207-2.67 28.506-8.013 7.297-5.342 10.946-12.17 10.946-20.48zm172.763 4.229c0 13.653-5.203 24.932-15.608 33.837-10.405 8.906-24.639 13.358-42.703 13.358-11.994 0-22.4-2.264-31.214-6.79-8.816-4.526-15.68-10.796-20.594-18.81-4.913-8.016-8.526-16.883-10.838-26.604-2.312-9.72-3.468-20.443-3.468-32.168 0-11.724 1.156-22.52 3.468-32.39s5.925-18.997 10.838-27.382c4.914-8.385 11.815-14.952 20.703-19.702 8.887-4.748 19.4-7.123 31.54-7.124 19.075 0 33.344 4.416 42.81 13.245 9.467 8.831 14.198 20.148 14.198 33.95H457.81c0-9.795-2.673-17.104-8.02-21.929-5.347-4.822-14.09-7.234-26.229-7.234-29.336 0-44.003 22.856-44.003 68.565 0 23.746 3.613 40.664 10.839 50.756 7.225 10.092 17.99 15.14 32.298 15.14 23.99 0 35.984-9.573 35.984-28.717h22.543z"/></svg>