<svg xmlns="http://www.w3.org/2000/svg" width="512" height="512" viewBox="0 0 512 512"><circle cx="256.36" cy="251.99" r="35" fill="red"/><path d="M256.364 224.992c14.888 0 27 12.112 27 27 0 14.887-12.112 27-27 27s-27-12.113-27-27c0-14.888 12.113-27 27-27m0-13c-22.091 0-40 17.909-40 40 0 22.09 17.909 40 40 40 22.092 0 40-17.91 40-40 0-22.091-17.908-40-40-40z"/><circle cx="88.42" cy="424.31" r="35" fill="#00f"/><path d="M88.415 397.313c14.888 0 27 12.113 27 27 0 14.888-12.112 27.001-27 27.001s-27-12.113-27-27.001c0-14.887 12.112-27 27-27m0-13c-22.091 0-40 17.91-40 40 0 22.091 17.909 40.001 40 40.001 22.092 0 40-17.91 40-40.001 0-22.09-17.908-40-40-40z"/><circle cx="423.58" cy="87.69" r="35" fill="#00f"/><path d="M423.585 60.686c14.888 0 27 12.113 27 27 0 14.888-12.112 27.001-27 27.001s-27-12.113-27-27.001c0-14.887 12.112-27 27-27m0-13c-22.091 0-40 17.91-40 40 0 22.091 17.909 40.001 40 40.001 22.092 0 40-17.91 40-40.001 0-22.09-17.908-40-40-40z"/></svg>