<?xml version="1.0" encoding="utf-8"?>
<!-- Generator: Adobe Illustrator 25.1.0, SVG Export Plug-In . SVG Version: 6.00 Build 0)  -->
<svg version="1.1" id="Layer_1" xmlns="http://www.w3.org/2000/svg" xmlns:xlink="http://www.w3.org/1999/xlink" x="0px" y="0px"
	 viewBox="0 0 24 24" style="enable-background:new 0 0 24 24;" xml:space="preserve">
<style type="text/css">
	.st0{filter:url(#Adobe_OpacityMaskFilter);}
	.st1{fill-rule:evenodd;clip-rule:evenodd;fill:#FFFFFF;}
	.st2{mask:url(#mask-2_1_);}
	.st3{fill-rule:evenodd;clip-rule:evenodd;}
</style>
<g id="ggb-Icon-_x2F_-mindmap">
	<g id="Fill-1">
	</g>
	<defs>
		<filter id="Adobe_OpacityMaskFilter" filterUnits="userSpaceOnUse" x="0" y="0" width="24" height="24">
			<feColorMatrix  type="matrix" values="1 0 0 0 0  0 1 0 0 0  0 0 1 0 0  0 0 0 1 0"/>
		</filter>
	</defs>
	<mask maskUnits="userSpaceOnUse" x="0" y="0" width="24" height="24" id="mask-2_1_">
		<g class="st0">
			<path id="path-1_1_" class="st1" d="M20.6,18.5c0.3,0,0.6,0.3,0.6,0.6s-0.3,0.6-0.6,0.6s-0.6-0.3-0.6-0.6S20.2,18.5,20.6,18.5
				L20.6,18.5z M8.9,13.3c0,0.2-0.1,0.3-0.3,0.3H3.1c-0.2,0-0.3-0.1-0.3-0.3v-3.1c0-0.2,0.1-0.3,0.3-0.3h5.5c0.2,0,0.3,0.1,0.3,0.3
				V13.3z M20.6,3.8c0.3,0,0.6,0.3,0.6,0.6c0,0.3-0.3,0.6-0.6,0.6s-0.6-0.3-0.6-0.6C19.9,4.1,20.2,3.8,20.6,3.8L20.6,3.8z
				 M20.6,11.2c0.3,0,0.6,0.3,0.6,0.6s-0.3,0.6-0.6,0.6s-0.6-0.3-0.6-0.6S20.2,11.2,20.6,11.2L20.6,11.2z M18.3,12.7
				c0.4,0.9,1.2,1.5,2.3,1.5c1.3,0,2.4-1.1,2.4-2.4s-1.1-2.4-2.4-2.4c-1,0-1.9,0.6-2.3,1.5h-2.9V5.6c0-0.1,0-0.2,0-0.3h2.9
				c0.4,0.9,1.2,1.5,2.3,1.5c1.3,0,2.4-1.1,2.4-2.4S21.9,2,20.6,2c-1,0-1.9,0.6-2.3,1.5l-2.9,0c-0.3,0-0.8,0.1-1.2,0.4
				c-0.4,0.4-0.6,0.9-0.6,1.7v5.2h-2.8v-0.6c0-1.2-0.9-2.1-2.1-2.1H3.1C1.9,8.1,1,9.1,1,10.2v3.1c0,1.2,0.9,2.1,2.1,2.1h5.5
				c1.2,0,2.1-0.9,2.1-2.1v-0.6h2.8v5.2c0,0.8,0.2,1.4,0.6,1.7c0.3,0.3,0.8,0.4,1,0.4c0,0,0.1,0,0.1,0h3c0.4,0.9,1.2,1.5,2.3,1.5
				c1.3,0,2.4-1.1,2.4-2.4s-1.1-2.4-2.4-2.4c-1,0-1.9,0.6-2.3,1.5h-2.9c0-0.1,0-0.2,0-0.3v-5.2H18.3z"/>
		</g>
	</mask>
	<g id="Group" class="st2">
		<g id="_x2731_-_x2F_-Color-_x2F_-Icons-_x2F_-Black-_x2F_-Inactive">
			<rect id="Rectangle" class="st3" width="24" height="24"/>
		</g>
	</g>
</g>
</svg>
