<svg xmlns="http://www.w3.org/2000/svg" width="512" height="512" viewBox="0 0 512 512"><path fill="none" stroke="red" stroke-miterlimit="10" stroke-width="13" d="M-8.66 519.32L432.85-7.32"/><circle cx="124.36" cy="243.12" r="35" fill="#00f"/><path d="M146.474 227.632c8.538 12.193 5.563 29.064-6.631 37.604-12.195 8.539-29.066 5.564-37.604-6.631-8.54-12.195-5.564-29.064 6.631-37.604 12.194-8.539 29.064-5.565 37.604 6.631m10.649-7.457c-12.671-18.096-37.614-22.493-55.709-9.822-18.096 12.67-22.495 37.613-9.824 55.709 12.672 18.097 37.614 22.493 55.71 9.823 18.095-12.671 22.494-37.614 9.823-55.71z"/><circle cx="102.66" cy="390.64" r="35" fill="#00f"/><path d="M124.779 375.157c8.538 12.193 5.563 29.064-6.631 37.604-12.195 8.539-29.066 5.564-37.604-6.631-8.54-12.195-5.564-29.064 6.631-37.604 12.194-8.539 29.064-5.565 37.604 6.631m10.649-7.457c-12.671-18.096-37.614-22.493-55.709-9.822-18.096 12.67-22.495 37.613-9.824 55.709 12.672 18.097 37.614 22.493 55.71 9.823 18.095-12.671 22.495-37.613 9.823-55.71z"/><circle cx="305.51" cy="278.92" r="35" fill="#00f"/><path d="M327.626 263.429c8.538 12.193 5.563 29.064-6.631 37.604-12.195 8.539-29.066 5.564-37.604-6.631-8.54-12.195-5.564-29.064 6.631-37.604 12.194-8.539 29.064-5.566 37.604 6.631m10.648-7.457c-12.671-18.096-37.614-22.493-55.709-9.822-18.096 12.67-22.495 37.613-9.824 55.709 12.672 18.097 37.614 22.493 55.71 9.823 18.096-12.671 22.495-37.614 9.823-55.71z"/><circle cx="265.5" cy="117.29" r="35" fill="#00f"/><path d="M287.623 101.801c8.537 12.193 5.563 29.064-6.631 37.604-12.195 8.539-29.067 5.564-37.605-6.631-8.54-12.195-5.564-29.064 6.631-37.604 12.195-8.539 29.064-5.565 37.605 6.631m10.648-7.457c-12.672-18.096-37.615-22.493-55.709-9.822-18.096 12.67-22.495 37.613-9.824 55.709 12.672 18.097 37.614 22.493 55.709 9.823 18.096-12.671 22.496-37.613 9.824-55.71z"/><circle cx="425.92" cy="93.42" r="35" fill="#00f"/><path d="M448.033 77.937c8.537 12.193 5.563 29.064-6.631 37.604-12.195 8.539-29.066 5.564-37.605-6.631s-5.564-29.064 6.631-37.604 29.064-5.565 37.605 6.631m10.649-7.457c-12.672-18.096-37.615-22.493-55.709-9.822-18.096 12.67-22.496 37.613-9.824 55.709 12.672 18.097 37.613 22.493 55.709 9.823 18.095-12.671 22.496-37.613 9.824-55.71z"/></svg>