<svg xmlns="http://www.w3.org/2000/svg" width="512" height="512" viewBox="0 0 512 512"><path fill="none" stroke="#930" stroke-miterlimit="10" stroke-width="13" d="M80.18 60.67v83.35m0-41.67h95.65M482 144.02V60.67m0 41.68h-95.65"/><path fill="#930" d="M175.83 68h210.53v70H175.83z" opacity=".2"/><path fill="none" stroke="#930" stroke-miterlimit="10" stroke-width="13" d="M175.83 68h210.53v70H175.83zm50 0v70M30 197.53v83.34m0-41.67h95.65m306.17 41.68v-83.35m0 41.67h-95.65"/><path fill="#930" d="M125.65 204.85h210.53v70H125.65z" opacity=".2"/><path fill="none" stroke="#930" stroke-miterlimit="10" stroke-width="13" d="M125.65 204.85h210.53v70H125.65zm50 0v70"/><path fill="#fff" stroke="#666" stroke-miterlimit="10" stroke-width="13" d="M30 343.74h452v120H30z"/><path fill="none" stroke="#666" stroke-miterlimit="10" stroke-width="13" d="M30 403.74h452m-302-60v120m152-120v120"/></svg>