<svg xmlns="http://www.w3.org/2000/svg" width="512" height="512" viewBox="0 0 512 512"><path d="M208.439 463.855c-49.091 0-92.11-18.771-121.133-52.854-30.931-36.324-43.132-86.27-34.356-140.636 8.883-55.028 38.169-108.355 82.463-150.158 44.335-41.842 98.489-67.214 152.486-71.443 5.249-.411 10.519-.62 15.665-.62 49.09 0 92.108 18.77 121.131 52.853 30.932 36.324 43.132 86.27 34.356 140.637-8.883 55.028-38.169 108.355-82.463 150.158-44.335 41.842-98.489 67.214-152.487 71.443-5.247.412-10.517.62-15.662.62zm95.124-402.71c-4.809 0-9.737.195-14.649.58C183.299 69.997 83.203 164.522 65.783 272.438c-8.159 50.543 3 96.759 31.42 130.135 26.513 31.136 66.017 48.283 111.236 48.283 4.808 0 9.736-.195 14.647-.58 105.615-8.271 205.71-102.797 223.13-210.712 8.159-50.544-2.999-96.761-31.42-130.137-26.511-31.135-66.015-48.282-111.233-48.282z"/><circle cx="109.77" cy="158.09" r="35" fill="#00f"/><path d="M131.892 142.602c8.537 12.193 5.563 29.064-6.631 37.604-12.195 8.539-29.066 5.564-37.605-6.631s-5.564-29.064 6.631-37.604 29.064-5.565 37.605 6.631m10.648-7.457c-12.672-18.096-37.615-22.492-55.709-9.822-18.096 12.67-22.496 37.613-9.824 55.709 12.672 18.097 37.613 22.494 55.709 9.824 18.096-12.672 22.496-37.614 9.824-55.711z"/><circle cx="167.78" cy="351.42" r="35" fill="#00f"/><path d="M189.896 335.932c8.537 12.193 5.563 29.064-6.631 37.604-12.195 8.539-29.066 5.564-37.605-6.631s-5.564-29.064 6.631-37.604 29.063-5.565 37.605 6.631m10.648-7.457c-12.672-18.096-37.615-22.492-55.709-9.822-18.096 12.67-22.496 37.613-9.824 55.709 12.672 18.098 37.613 22.494 55.709 9.824 18.095-12.672 22.496-37.614 9.824-55.711z"/><circle cx="348.06" cy="158.09" r="35" fill="#00f"/><path d="M370.175 142.601c8.537 12.193 5.563 29.064-6.631 37.604-12.195 8.539-29.066 5.564-37.605-6.631s-5.564-29.064 6.631-37.604 29.064-5.564 37.605 6.631m10.648-7.457c-12.672-18.096-37.615-22.492-55.709-9.822-18.096 12.67-22.496 37.613-9.824 55.709 12.672 18.098 37.613 22.494 55.709 9.824 18.096-12.672 22.496-37.613 9.824-55.711z"/></svg>