<?xml version="1.0" encoding="utf-8"?>
<!-- Generator: Adobe Illustrator 15.1.0, SVG Export Plug-In . SVG Version: 6.00 Build 0)  -->
<!DOCTYPE svg PUBLIC "-//W3C//DTD SVG 1.1//EN" "http://www.w3.org/Graphics/SVG/1.1/DTD/svg11.dtd">
<svg version="1.1" id="Ebene_1" xmlns="http://www.w3.org/2000/svg" xmlns:xlink="http://www.w3.org/1999/xlink" x="0px" y="0px"
	 width="30px" height="30px" viewBox="0 0 30 30" enable-background="new 0 0 30 30" xml:space="preserve">
<path fill="#FFFFFF" d="M17.504,10.615h-4.552V4.764h4.552V10.615z M20.754,18.337v-1.312H9.049v1.312H20.754L20.754,18.337z
	 M20.754,22.019v-1.313H9.049v1.313H20.754L20.754,22.019z M26.119,8.38v17.079c0,0.362-0.293,0.656-0.655,0.656H4.775
	c-0.363,0-0.656-0.293-0.656-0.656V4.541c0-0.362,0.293-0.656,0.656-0.656h2.703v7.948h11.921V3.885h2.226L26.119,8.38z
	 M22.759,14.194H7.478v10.403h15.281V14.194z"/>
</svg>
