<?xml version="1.0" encoding="utf-8"?>
<!-- Generator: Adobe Illustrator 15.1.0, SVG Export Plug-In . SVG Version: 6.00 Build 0)  -->
<!DOCTYPE svg PUBLIC "-//W3C//DTD SVG 1.1//EN" "http://www.w3.org/Graphics/SVG/1.1/DTD/svg11.dtd">
<svg version="1.1" id="Ebene_1" xmlns="http://www.w3.org/2000/svg" xmlns:xlink="http://www.w3.org/1999/xlink" x="0px" y="0px"
	 width="35px" height="35px" viewBox="0 0 35 35" enable-background="new 0 0 35 35" xml:space="preserve">
<g>
	<g id="_424131536">
		<g>
			<defs>
				<path id="SVGID_1_" d="M29.989,9.801c3.577,5.863,0.834,14.059-6.126,18.303c-6.959,4.245-15.5,2.934-19.076-2.928
					C1.21,19.312,3.953,11.12,10.915,6.872C17.872,2.628,26.414,3.938,29.989,9.801z M12.177,9.048
					c-5.698,3.477-8.023,10.049-5.196,14.686c2.827,4.635,9.737,5.576,15.433,2.1c5.696-3.473,8.022-10.048,5.195-14.685
					C24.781,6.514,17.872,5.574,12.177,9.048z"/>
			</defs>
			<use xlink:href="#SVGID_1_"  overflow="visible" fill="#FFFFFF"/>
			<clipPath id="SVGID_2_">
				<use xlink:href="#SVGID_1_"  overflow="visible"/>
			</clipPath>
			<path clip-path="url(#SVGID_2_)" fill="#FFFFFF" d="M4.308,24.161c1.632,3.448,4.882,5.581,8.705,6.154
				c3.045,0.458,6.454-0.061,9.707-1.756c2.661-1.402,4.722-3.275,6.146-5.301c1.67-2.371,2.49-4.939,2.639-7.004
				c0.188-2.604-0.415-5.032-1.708-7c-2.111-3.21-6.055-5.337-10.718-5.069c-2.03,0.117-4.232,0.474-6.54,1.586
				C7.543,8.174,3.412,13.248,3.209,18.75C3.142,20.537,3.412,22.354,4.308,24.161z"/>
		</g>
	</g>
	<g id="_425309144">
		<circle id="_425034160" fill="#FFFFFF" cx="9.949" cy="28.174" r="3.873"/>
		<circle id="_425314424" fill="#FFFFFF" cx="9.949" cy="28.174" r="2.697"/>
	</g>
	<g id="_425027704">
		<circle id="_425304776" fill="#FFFFFF" cx="16.724" cy="5.873" r="3.873"/>
		<circle id="_425306072" fill="#FFFFFF" cx="16.724" cy="5.873" r="2.698"/>
	</g>
	<g id="_425028016">
		<circle id="_427514720" fill="#FFFFFF" cx="30.127" cy="12.917" r="3.874"/>
		<circle id="_227268472" fill="#FFFFFF" cx="30.127" cy="12.917" r="2.698"/>
	</g>
	<g id="_425310848">
		<circle id="_425305280" fill="#FFFFFF" cx="24.821" cy="26.143" r="3.873"/>
		<circle id="_425303504" fill="#FFFFFF" cx="24.821" cy="26.143" r="2.698"/>
	</g>
	<g id="_425310848_1_">
		<circle id="_425305280_1_" fill="#FFFFFF" cx="4.873" cy="15.115" r="3.873"/>
		<circle id="_425303504_1_" fill="#FFFFFF" cx="4.873" cy="15.115" r="2.697"/>
	</g>
</g>
</svg>
