<?xml version="1.0" encoding="utf-8"?>
<!-- Generator: Adobe Illustrator 15.1.0, SVG Export Plug-In . SVG Version: 6.00 Build 0)  -->
<!DOCTYPE svg PUBLIC "-//W3C//DTD SVG 1.1//EN" "http://www.w3.org/Graphics/SVG/1.1/DTD/svg11.dtd">
<svg version="1.1"
	 id="svg3004" xmlns:dc="http://purl.org/dc/elements/1.1/" xmlns:cc="http://creativecommons.org/ns#" xmlns:rdf="http://www.w3.org/1999/02/22-rdf-syntax-ns#" xmlns:inkscape="http://www.inkscape.org/namespaces/inkscape" xmlns:svg="http://www.w3.org/2000/svg" xmlns:sodipodi="http://sodipodi.sourceforge.net/DTD/sodipodi-0.dtd" inkscape:version="0.48.2 r9819" sodipodi:docname="show_input_bar.svg"
	 xmlns="http://www.w3.org/2000/svg" xmlns:xlink="http://www.w3.org/1999/xlink" x="0px" y="0px" width="30px" height="30px"
	 viewBox="226.5 256.5 30 30" enable-background="new 226.5 256.5 30 30" xml:space="preserve">
<sodipodi:namedview  id="namedview3006" objecttolerance="10" inkscape:zoom="0.59" borderopacity="1" pagecolor="#ffffff" showgrid="false" bordercolor="#666666" inkscape:cy="435.72988" guidetolerance="10" inkscape:cx="197.91132" gridtolerance="10" inkscape:current-layer="g3816" inkscape:window-y="-8" inkscape:window-x="1358" inkscape:window-height="988" inkscape:window-width="1680" inkscape:pageshadow="2" inkscape:pageopacity="0" inkscape:window-maximized="1">
	</sodipodi:namedview>
<g id="g3821" transform="matrix(1.2437347,0,0,1.2913099,-69.913389,-77.328179)">
	<g id="g3812">
		<g id="text2995" transform="matrix(17.08398,0,-6.1536969,15.808779,-0.07313554,14.959974)">
			<path id="path2984" inkscape:connector-curvature="0" fill="#CCCCCC" d="M20.691,15.514c0,0.022-0.007,0.041-0.02,0.056
				c-0.014,0.015-0.032,0.023-0.054,0.023c-0.017,0-0.037-0.009-0.06-0.029c-0.023-0.019-0.044-0.029-0.061-0.029
				c-0.018,0-0.028,0.013-0.031,0.039L20.46,15.79c-0.014,0.414-0.023,0.642-0.028,0.683c-0.011,0.123-0.035,0.216-0.072,0.28
				c-0.038,0.063-0.097,0.095-0.178,0.095c-0.07,0-0.105-0.025-0.105-0.076c0-0.024,0.007-0.044,0.021-0.06
				c0.014-0.016,0.033-0.023,0.056-0.022c0.012,0,0.032,0.01,0.061,0.029c0.029,0.019,0.049,0.029,0.059,0.029
				c0.017,0,0.026-0.013,0.029-0.04l0.012-0.225c0.018-0.428,0.028-0.662,0.032-0.702c0.005-0.044,0.01-0.081,0.015-0.111
				c0.005-0.03,0.014-0.061,0.025-0.093c0.011-0.032,0.025-0.057,0.042-0.076c0.017-0.019,0.038-0.035,0.065-0.047
				c0.027-0.012,0.058-0.018,0.094-0.018c0.032,0,0.057,0.007,0.075,0.021C20.682,15.47,20.691,15.489,20.691,15.514L20.691,15.514z
				"/>
		</g>
		<g id="g3804">
			
				<path id="path3809" sodipodi:nodetypes="cc" inkscape:connector-curvature="0" fill="#CCCCCC" stroke="#CCCCCC" stroke-width="2" stroke-linecap="round" d="
				M253.992,269.719c0.307,0.062,5.712,8.354,5.712,8.354"/>
			<g id="g3813">
				
					<path id="path3811" sodipodi:nodetypes="cc" inkscape:connector-curvature="0" fill="#CCCCCC" stroke="#CCCCCC" stroke-width="2" stroke-linecap="round" d="
					M252.537,278.08c0.512-0.495,7.969-8.106,7.969-8.106"/>
			</g>
			
				<path id="path3809-9" sodipodi:nodetypes="cc" inkscape:connector-curvature="0" fill="#CCCCCC" stroke="#CCCCCC" stroke-width="2" stroke-linecap="round" d="
				M247.081,265.936c0.255,0.026,6.614,0.1,6.614,0.1"/>
		</g>
	</g>
</g>
</svg>
