<?xml version="1.0" encoding="utf-8"?>
<!-- Generator: Adobe Illustrator 15.1.0, SVG Export Plug-In . SVG Version: 6.00 Build 0)  -->
<!DOCTYPE svg PUBLIC "-//W3C//DTD SVG 1.1//EN" "http://www.w3.org/Graphics/SVG/1.1/DTD/svg11.dtd">
<svg version="1.1" id="Ebene_1" xmlns="http://www.w3.org/2000/svg" xmlns:xlink="http://www.w3.org/1999/xlink" x="0px" y="0px"
	 width="35px" height="35px" viewBox="0 0 35 35" enable-background="new 0 0 35 35" xml:space="preserve">
<g>
	<path fill="#FFFFFF" d="M16.972,10.351L6.945,20.478c0,0,0.865,0.815,3.087,0.718c0.475,1.012,0.925,2.204,3.521,3.424
		c-0.105,2.118,0.915,3.307,0.915,3.307l10.034-10.117c-0.122-1.38-1.154-3.099-2.792-4.719
		C19.47,10.87,17.595,10.438,16.972,10.351z"/>
	<path fill="#FFFFFF" d="M31.479,3.108c-2.944-2.413-4.979-1.706-6.017-0.707c-0.36,0.349-1.499,1.266-2.332,1.933
		c0.938,0.06,2.822,0.465,4.891,2.512c2.058,2.037,2.45,3.779,2.473,4.75c0.699-0.904,1.798-2.321,1.968-2.492
		C33.595,7.951,34.423,5.521,31.479,3.108z"/>
	<path fill="#FFFFFF" d="M8.564,22.403c-1.987,0.005-2.451-0.44-2.451-0.44L1.5,33.524l11.516-4.784c0,0-0.914-1.81-0.891-2.778
		C11.32,25.706,9.211,24.424,8.564,22.403z"/>
	<path fill="#FFFFFF" d="M21.837,5.446l-1.144,1.125c0,0,2.183,0.355,4.77,2.919c1.623,1.612,2.5,3.317,2.656,4.508l1.092-1.089
		c0,0,0.38-1.972-2.426-4.776C24.028,5.376,21.837,5.446,21.837,5.446z"/>
	<path fill="#FFFFFF" d="M19.68,7.974l-1.093,1.077c0,0,2.092,0.34,4.566,2.797c1.554,1.541,2.394,3.172,2.545,4.314l1.043-1.045
		c0,0,0.363-1.887-2.322-4.572C21.781,7.906,19.68,7.974,19.68,7.974z"/>
</g>
</svg>
