<?xml version="1.0" encoding="utf-8"?>
<!-- Generator: Adobe Illustrator 15.1.0, SVG Export Plug-In . SVG Version: 6.00 Build 0)  -->
<!DOCTYPE svg PUBLIC "-//W3C//DTD SVG 1.1//EN" "http://www.w3.org/Graphics/SVG/1.1/DTD/svg11.dtd">
<svg version="1.1" id="Ebene_1" xmlns="http://www.w3.org/2000/svg" xmlns:xlink="http://www.w3.org/1999/xlink" x="0px" y="0px"
	 width="35px" height="35px" viewBox="0 0 35 35" enable-background="new 0 0 35 35" xml:space="preserve">
<g>
	<path fill="#FFFFFF" d="M27.318,14.609c-0.021-0.132-0.103-0.261-0.223-0.385c-0.977,0.992-4.903,1.156-9.598,1.156
		s-8.617-0.164-9.597-1.156c-0.121,0.124-0.196,0.253-0.224,0.385H7.668l0.002,0.071c0,0.008-0.002,0.017-0.002,0.025
		c0,0.019,0.005,0.036,0.008,0.055L8.44,30.417h0.002C8.51,31.645,9.916,33.5,17.498,33.5c7.583,0,8.99-1.855,9.056-3.083h0.006
		l0.765-15.656c0.002-0.019,0.008-0.036,0.008-0.055c0-0.009-0.006-0.017-0.006-0.025l0.006-0.071H27.318z"/>
	<path fill="#FFFFFF" d="M22.171,6.416V2.719c0-0.667-0.547-1.219-1.219-1.219h-7.315c-0.667,0-1.216,0.551-1.216,1.219v3.739
		c-3.617,0.41-6.093,1.241-6.093,2.204v1.827c0,0.375,0.379,0.731,1.061,1.053c1.784,0.839,5.641,1.42,10.11,1.42
		c4.473,0,8.328-0.581,10.114-1.42c0.677-0.322,1.061-0.678,1.061-1.053V8.661C28.673,7.665,26.006,6.807,22.171,6.416z
		 M14.759,6.262l-0.309,0.02V4.75c0-0.67,0.094-1.218,0.204-1.218c0.114,0,0.752,0,1.423,0h2.437c0.668,0,1.311,0,1.422,0
		c0.112,0,0.204,0.548,0.204,1.218v1.506c-0.848-0.044-1.729-0.071-2.643-0.071C16.552,6.186,15.634,6.213,14.759,6.262z"/>
</g>
</svg>
