<?xml version="1.0" encoding="utf-8"?>
<!-- Generator: Adobe Illustrator 15.1.0, SVG Export Plug-In . SVG Version: 6.00 Build 0)  -->
<!DOCTYPE svg PUBLIC "-//W3C//DTD SVG 1.1//EN" "http://www.w3.org/Graphics/SVG/1.1/DTD/svg11.dtd">
<svg version="1.1" id="Ebene_1" xmlns="http://www.w3.org/2000/svg" xmlns:xlink="http://www.w3.org/1999/xlink" x="0px" y="0px"
	 width="30px" height="30px" viewBox="0 0 30 30" enable-background="new 0 0 30 30" xml:space="preserve">
<path fill="#FFFFFF" d="M26.714,23.25l-4.524-4.526c-0.398-0.397-1.119-0.359-1.841,0.017l-1.974-1.973
	c2.571-3.36,2.329-8.184-0.745-11.258c-3.347-3.346-8.773-3.346-12.12,0c-3.346,3.347-3.346,8.773,0,12.12
	c3.075,3.074,7.898,3.317,11.258,0.745l1.974,1.973c-0.376,0.724-0.415,1.444-0.018,1.842l4.525,4.526
	c0.572,0.571,1.813,0.257,2.768-0.701C26.973,25.06,27.286,23.82,26.714,23.25z M6.784,16.356c-2.642-2.645-2.642-6.93,0-9.572
	c2.645-2.645,6.926-2.642,9.572,0c2.642,2.642,2.642,6.926,0,9.572C13.71,18.999,9.426,18.999,6.784,16.356z"/>
</svg>
