<?xml version="1.0" encoding="UTF-8" standalone="no"?>
<!-- Created with Inkscape (http://www.inkscape.org/) -->

<svg
   xmlns:dc="http://purl.org/dc/elements/1.1/"
   xmlns:cc="http://creativecommons.org/ns#"
   xmlns:rdf="http://www.w3.org/1999/02/22-rdf-syntax-ns#"
   xmlns:svg="http://www.w3.org/2000/svg"
   xmlns="http://www.w3.org/2000/svg"
   xmlns:sodipodi="http://sodipodi.sourceforge.net/DTD/sodipodi-0.dtd"
   xmlns:inkscape="http://www.inkscape.org/namespaces/inkscape"
   id="svg2985"
   version="1.1"
   inkscape:version="0.48.4 r9939"
   width="120"
   height="120"
   viewBox="0 0 120 120"
   xml:space="preserve"
   sodipodi:docname="document_share.svg"><metadata
     id="metadata2991"><rdf:RDF><cc:Work
         rdf:about=""><dc:format>image/svg+xml</dc:format><dc:type
           rdf:resource="http://purl.org/dc/dcmitype/StillImage" /></cc:Work></rdf:RDF></metadata><defs
     id="defs2989"><linearGradient
       x1="0"
       y1="0"
       x2="1"
       y2="0"
       gradientUnits="userSpaceOnUse"
       gradientTransform="matrix(0,96,96,0,48,0)"
       spreadMethod="pad"
       id="linearGradient3007"><stop
         style="stop-opacity:1;stop-color:#272d33"
         offset="0"
         id="stop3009" /><stop
         style="stop-opacity:1;stop-color:#000000"
         offset="1"
         id="stop3011" /></linearGradient><clipPath
       clipPathUnits="userSpaceOnUse"
       id="clipPath3021"><path
         d="M 0,96 96,96 96,0 0,0 0,96 z"
         id="path3023" /></clipPath><clipPath
       clipPathUnits="userSpaceOnUse"
       id="clipPath3033"><path
         d="M 0,96 96,96 96,0 0,0 0,96 z"
         id="path3035" /></clipPath><clipPath
       clipPathUnits="userSpaceOnUse"
       id="clipPath3045"><path
         d="M 0,96 96,96 96,0 0,0 0,96 z"
         id="path3047" /></clipPath><clipPath
       clipPathUnits="userSpaceOnUse"
       id="clipPath3057"><path
         d="M 0,96 96,96 96,0 0,0 0,96 z"
         id="path3059" /></clipPath><clipPath
       clipPathUnits="userSpaceOnUse"
       id="clipPath3073"><path
         d="M 0,96 96,96 96,0 0,0 0,96 z"
         id="path3075" /></clipPath><clipPath
       clipPathUnits="userSpaceOnUse"
       id="clipPath3083"><path
         d="M 0,96 96,96 96,0 0,0 0,96 z"
         id="path3085" /></clipPath><clipPath
       clipPathUnits="userSpaceOnUse"
       id="clipPath3093"><path
         d="M 0,96 96,96 96,0 0,0 0,96 z"
         id="path3095" /></clipPath><clipPath
       clipPathUnits="userSpaceOnUse"
       id="clipPath3105"><path
         d="M 0,96 96,96 96,0 0,0 0,96 z"
         id="path3107" /></clipPath><clipPath
       clipPathUnits="userSpaceOnUse"
       id="clipPath3121"><path
         d="M 0,96 96,96 96,0 0,0 0,96 z"
         id="path3123" /></clipPath><clipPath
       clipPathUnits="userSpaceOnUse"
       id="clipPath3131"><path
         d="M 0,96 96,96 96,0 0,0 0,96 z"
         id="path3133" /></clipPath><clipPath
       clipPathUnits="userSpaceOnUse"
       id="clipPath3159"><path
         d="M 0,96 96,96 96,0 0,0 0,96 z"
         id="path3161" /></clipPath><clipPath
       clipPathUnits="userSpaceOnUse"
       id="clipPath3183"><path
         d="M 0,96 96,96 96,0 0,0 0,96 z"
         id="path3185" /></clipPath><clipPath
       clipPathUnits="userSpaceOnUse"
       id="clipPath3199"><path
         d="M 0,96 96,96 96,0 0,0 0,96 z"
         id="path3201" /></clipPath><clipPath
       clipPathUnits="userSpaceOnUse"
       id="clipPath3215"><path
         d="M 0,96 96,96 96,0 0,0 0,96 z"
         id="path3217" /></clipPath><clipPath
       clipPathUnits="userSpaceOnUse"
       id="clipPath3235"><path
         d="M 0,96 96,96 96,0 0,0 0,96 z"
         id="path3237" /></clipPath><clipPath
       clipPathUnits="userSpaceOnUse"
       id="clipPath3251"><path
         d="M 0,96 96,96 96,0 0,0 0,96 z"
         id="path3253" /></clipPath><clipPath
       clipPathUnits="userSpaceOnUse"
       id="clipPath3261"><path
         d="M 0,96 96,96 96,0 0,0 0,96 z"
         id="path3263" /></clipPath><clipPath
       clipPathUnits="userSpaceOnUse"
       id="clipPath3285"><path
         d="M 0,96 96,96 96,0 0,0 0,96 z"
         id="path3287" /></clipPath><clipPath
       clipPathUnits="userSpaceOnUse"
       id="clipPath3307"><path
         d="M 0,96 96,96 96,0 0,0 0,96 z"
         id="path3309" /></clipPath><clipPath
       clipPathUnits="userSpaceOnUse"
       id="clipPath3327"><path
         d="M 0,96 96,96 96,0 0,0 0,96 z"
         id="path3329" /></clipPath><clipPath
       clipPathUnits="userSpaceOnUse"
       id="clipPath3339"><path
         d="M 0,96 96,96 96,0 0,0 0,96 z"
         id="path3341" /></clipPath><clipPath
       clipPathUnits="userSpaceOnUse"
       id="clipPath3363"><path
         d="M 0,96 96,96 96,0 0,0 0,96 z"
         id="path3365" /></clipPath><clipPath
       clipPathUnits="userSpaceOnUse"
       id="clipPath3375"><path
         d="M 0,96 96,96 96,0 0,0 0,96 z"
         id="path3377" /></clipPath><clipPath
       clipPathUnits="userSpaceOnUse"
       id="clipPath3387"><path
         d="M 0,96 96,96 96,0 0,0 0,96 z"
         id="path3389" /></clipPath><clipPath
       clipPathUnits="userSpaceOnUse"
       id="clipPath3399"><path
         d="M 0,96 96,96 96,0 0,0 0,96 z"
         id="path3401" /></clipPath><clipPath
       clipPathUnits="userSpaceOnUse"
       id="clipPath3411"><path
         d="M 0,96 96,96 96,0 0,0 0,96 z"
         id="path3413" /></clipPath><clipPath
       clipPathUnits="userSpaceOnUse"
       id="clipPath3423"><path
         d="M 0,96 96,96 96,0 0,0 0,96 z"
         id="path3425" /></clipPath><clipPath
       clipPathUnits="userSpaceOnUse"
       id="clipPath3439"><path
         d="M 0,96 96,96 96,0 0,0 0,96 z"
         id="path3441" /></clipPath><clipPath
       clipPathUnits="userSpaceOnUse"
       id="clipPath3451"><path
         d="M 0,96 96,96 96,0 0,0 0,96 z"
         id="path3453" /></clipPath><clipPath
       clipPathUnits="userSpaceOnUse"
       id="clipPath3475"><path
         d="M 0,96 96,96 96,0 0,0 0,96 z"
         id="path3477" /></clipPath><clipPath
       clipPathUnits="userSpaceOnUse"
       id="clipPath3487"><path
         d="M 0,96 96,96 96,0 0,0 0,96 z"
         id="path3489" /></clipPath><clipPath
       clipPathUnits="userSpaceOnUse"
       id="clipPath3499"><path
         d="M 0,96 96,96 96,0 0,0 0,96 z"
         id="path3501" /></clipPath><clipPath
       clipPathUnits="userSpaceOnUse"
       id="clipPath3515"><path
         d="M 0,96 96,96 96,0 0,0 0,96 z"
         id="path3517" /></clipPath><clipPath
       clipPathUnits="userSpaceOnUse"
       id="clipPath3527"><path
         d="M 0,96 96,96 96,0 0,0 0,96 z"
         id="path3529" /></clipPath><clipPath
       clipPathUnits="userSpaceOnUse"
       id="clipPath3543"><path
         d="M 0,96 96,96 96,0 0,0 0,96 z"
         id="path3545" /></clipPath><clipPath
       clipPathUnits="userSpaceOnUse"
       id="clipPath3555"><path
         d="M 0,96 96,96 96,0 0,0 0,96 z"
         id="path3557" /></clipPath><clipPath
       clipPathUnits="userSpaceOnUse"
       id="clipPath3567"><path
         d="M 0,96 96,96 96,0 0,0 0,96 z"
         id="path3569" /></clipPath><clipPath
       clipPathUnits="userSpaceOnUse"
       id="clipPath3583"><path
         d="M 0,96 96,96 96,0 0,0 0,96 z"
         id="path3585" /></clipPath><clipPath
       clipPathUnits="userSpaceOnUse"
       id="clipPath3595"><path
         d="M 0,96 96,96 96,0 0,0 0,96 z"
         id="path3597" /></clipPath><clipPath
       clipPathUnits="userSpaceOnUse"
       id="clipPath3609"><path
         d="M 0,96 96,96 96,0 0,0 0,96 z"
         id="path3611" /></clipPath><clipPath
       clipPathUnits="userSpaceOnUse"
       id="clipPath3621"><path
         d="M 0,96 96,96 96,0 0,0 0,96 z"
         id="path3623" /></clipPath><clipPath
       clipPathUnits="userSpaceOnUse"
       id="clipPath3633"><path
         d="M 0,96 96,96 96,0 0,0 0,96 z"
         id="path3635" /></clipPath><clipPath
       clipPathUnits="userSpaceOnUse"
       id="clipPath3645"><path
         d="M 0,96 96,96 96,0 0,0 0,96 z"
         id="path3647" /></clipPath><clipPath
       clipPathUnits="userSpaceOnUse"
       id="clipPath3697"><path
         d="M 0,96 96,96 96,0 0,0 0,96 z"
         id="path3699" /></clipPath><clipPath
       clipPathUnits="userSpaceOnUse"
       id="clipPath3713"><path
         d="M 0,96 96,96 96,0 0,0 0,96 z"
         id="path3715" /></clipPath><clipPath
       clipPathUnits="userSpaceOnUse"
       id="clipPath3761"><path
         d="M 0,96 96,96 96,0 0,0 0,96 z"
         id="path3763" /></clipPath><clipPath
       clipPathUnits="userSpaceOnUse"
       id="clipPath3777"><path
         d="M 0,96 96,96 96,0 0,0 0,96 z"
         id="path3779" /></clipPath><clipPath
       clipPathUnits="userSpaceOnUse"
       id="clipPath3793"><path
         d="M 0,96 96,96 96,0 0,0 0,96 z"
         id="path3795" /></clipPath><clipPath
       clipPathUnits="userSpaceOnUse"
       id="clipPath3815"><path
         d="M 0,96 96,96 96,0 0,0 0,96 z"
         id="path3817" /></clipPath><clipPath
       clipPathUnits="userSpaceOnUse"
       id="clipPath3831"><path
         d="M 0,96 96,96 96,0 0,0 0,96 z"
         id="path3833" /></clipPath><clipPath
       clipPathUnits="userSpaceOnUse"
       id="clipPath3887"><path
         d="M 0,96 96,96 96,0 0,0 0,96 z"
         id="path3889" /></clipPath><clipPath
       clipPathUnits="userSpaceOnUse"
       id="clipPath3903"><path
         d="M 0,96 96,96 96,0 0,0 0,96 z"
         id="path3905" /></clipPath><clipPath
       clipPathUnits="userSpaceOnUse"
       id="clipPath3913"><path
         d="M 0,96 96,96 96,0 0,0 0,96 z"
         id="path3915" /></clipPath><clipPath
       clipPathUnits="userSpaceOnUse"
       id="clipPath3925"><path
         d="M 0,96 96,96 96,0 0,0 0,96 z"
         id="path3927" /></clipPath><clipPath
       clipPathUnits="userSpaceOnUse"
       id="clipPath3941"><path
         d="M 0,96 96,96 96,0 0,0 0,96 z"
         id="path3943" /></clipPath><clipPath
       clipPathUnits="userSpaceOnUse"
       id="clipPath3957"><path
         d="M 0,96 96,96 96,0 0,0 0,96 z"
         id="path3959" /></clipPath><clipPath
       clipPathUnits="userSpaceOnUse"
       id="clipPath3973"><path
         d="M 0,96 96,96 96,0 0,0 0,96 z"
         id="path3975" /></clipPath><clipPath
       clipPathUnits="userSpaceOnUse"
       id="clipPath4005"><path
         d="M 0,96 96,96 96,0 0,0 0,96 z"
         id="path4007" /></clipPath><clipPath
       clipPathUnits="userSpaceOnUse"
       id="clipPath4021"><path
         d="M 0,96 96,96 96,0 0,0 0,96 z"
         id="path4023" /></clipPath><clipPath
       clipPathUnits="userSpaceOnUse"
       id="clipPath4037"><path
         d="M 0,96 96,96 96,0 0,0 0,96 z"
         id="path4039" /></clipPath><clipPath
       clipPathUnits="userSpaceOnUse"
       id="clipPath4049"><path
         d="M 0,96 96,96 96,0 0,0 0,96 z"
         id="path4051" /></clipPath><clipPath
       clipPathUnits="userSpaceOnUse"
       id="clipPath4063"><path
         d="M 0,96 96,96 96,0 0,0 0,96 z"
         id="path4065" /></clipPath><clipPath
       clipPathUnits="userSpaceOnUse"
       id="clipPath4079"><path
         d="M 0,96 96,96 96,0 0,0 0,96 z"
         id="path4081" /></clipPath><clipPath
       clipPathUnits="userSpaceOnUse"
       id="clipPath4091"><path
         d="M 0,96 96,96 96,0 0,0 0,96 z"
         id="path4093" /></clipPath><clipPath
       clipPathUnits="userSpaceOnUse"
       id="clipPath4111"><path
         d="M 0,96 96,96 96,0 0,0 0,96 z"
         id="path4113" /></clipPath><clipPath
       clipPathUnits="userSpaceOnUse"
       id="clipPath4161"><path
         d="M 0,96 96,96 96,0 0,0 0,96 z"
         id="path4163" /></clipPath><clipPath
       clipPathUnits="userSpaceOnUse"
       id="clipPath4193"><path
         d="M 0,96 96,96 96,0 0,0 0,96 z"
         id="path4195" /></clipPath><clipPath
       clipPathUnits="userSpaceOnUse"
       id="clipPath4207"><path
         d="M 0,96 96,96 96,0 0,0 0,96 z"
         id="path4209" /></clipPath><clipPath
       clipPathUnits="userSpaceOnUse"
       id="clipPath4227"><path
         d="M 0,96 96,96 96,0 0,0 0,96 z"
         id="path4229" /></clipPath><clipPath
       clipPathUnits="userSpaceOnUse"
       id="clipPath4239"><path
         d="M 0,96 96,96 96,0 0,0 0,96 z"
         id="path4241" /></clipPath><clipPath
       clipPathUnits="userSpaceOnUse"
       id="clipPath4255"><path
         d="M 0,96 96,96 96,0 0,0 0,96 z"
         id="path4257" /></clipPath><clipPath
       clipPathUnits="userSpaceOnUse"
       id="clipPath4267"><path
         d="M 0,96 96,96 96,0 0,0 0,96 z"
         id="path4269" /></clipPath><clipPath
       clipPathUnits="userSpaceOnUse"
       id="clipPath4283"><path
         d="M 0,96 96,96 96,0 0,0 0,96 z"
         id="path4285" /></clipPath><clipPath
       clipPathUnits="userSpaceOnUse"
       id="clipPath4293"><path
         d="M 0,96 96,96 96,0 0,0 0,96 z"
         id="path4295" /></clipPath><clipPath
       clipPathUnits="userSpaceOnUse"
       id="clipPath4325"><path
         d="M 0,96 96,96 96,0 0,0 0,96 z"
         id="path4327" /></clipPath><clipPath
       clipPathUnits="userSpaceOnUse"
       id="clipPath4337"><path
         d="M 0,96 96,96 96,0 0,0 0,96 z"
         id="path4339" /></clipPath><clipPath
       clipPathUnits="userSpaceOnUse"
       id="clipPath4377"><path
         d="M 0,96 96,96 96,0 0,0 0,96 z"
         id="path4379" /></clipPath><clipPath
       clipPathUnits="userSpaceOnUse"
       id="clipPath4409"><path
         d="M 0,96 96,96 96,0 0,0 0,96 z"
         id="path4411" /></clipPath><clipPath
       clipPathUnits="userSpaceOnUse"
       id="clipPath4429"><path
         d="M 0,96 96,96 96,0 0,0 0,96 z"
         id="path4431" /></clipPath><clipPath
       clipPathUnits="userSpaceOnUse"
       id="clipPath4441"><path
         d="M 0,96 96,96 96,0 0,0 0,96 z"
         id="path4443" /></clipPath><clipPath
       clipPathUnits="userSpaceOnUse"
       id="clipPath4453"><path
         d="M 0,96 96,96 96,0 0,0 0,96 z"
         id="path4455" /></clipPath><clipPath
       clipPathUnits="userSpaceOnUse"
       id="clipPath4477"><path
         d="M 0,96 96,96 96,0 0,0 0,96 z"
         id="path4479" /></clipPath><clipPath
       clipPathUnits="userSpaceOnUse"
       id="clipPath4495"><path
         d="M 0,96 96,96 96,0 0,0 0,96 z"
         id="path4497" /></clipPath><clipPath
       clipPathUnits="userSpaceOnUse"
       id="clipPath4507"><path
         d="M 0,96 96,96 96,0 0,0 0,96 z"
         id="path4509" /></clipPath><clipPath
       clipPathUnits="userSpaceOnUse"
       id="clipPath4517"><path
         d="M 0,96 96,96 96,0 0,0 0,96 z"
         id="path4519" /></clipPath><clipPath
       clipPathUnits="userSpaceOnUse"
       id="clipPath4545"><path
         d="M 0,96 96,96 96,0 0,0 0,96 z"
         id="path4547" /></clipPath></defs><sodipodi:namedview
     pagecolor="#ffffff"
     bordercolor="#666666"
     borderopacity="1"
     objecttolerance="10"
     gridtolerance="10"
     guidetolerance="10"
     inkscape:pageopacity="0"
     inkscape:pageshadow="2"
     inkscape:window-width="1583"
     inkscape:window-height="931"
     id="namedview2987"
     showgrid="false"
     inkscape:zoom="1.9666667"
     inkscape:cx="-19.322034"
     inkscape:cy="60"
     inkscape:window-x="0"
     inkscape:window-y="0"
     inkscape:window-maximized="0"
     inkscape:current-layer="g4059" /><g
     id="g2993"
     inkscape:groupmode="layer"
     inkscape:label="All_Icons"
     transform="matrix(1.25,0,0,-1.25,0,120)"><g
       id="g4059"
       transform="translate(139.9322,95.593224)"><path
         d="m -63.019637,-64.735204 c -4.24949,0 -8.050627,-1.893337 -10.634243,-4.870084 l -33.46605,18.00511 c 0.34186,1.210947 0.53645,2.482375 0.53645,3.803767 0,1.321391 -0.19459,2.591505 -0.53645,3.801137 l 33.46605,18.007739 c 2.583616,-2.976747 6.384753,-4.871399 10.634243,-4.871399 7.754793,0 14.061972,6.30192 14.061972,14.023843 0,7.7534779 -6.307179,14.0593422 -14.061972,14.0593422 -7.762682,0 -14.067231,-6.3058643 -14.067231,-14.0593422 0,-1.318762 0.194593,-2.590191 0.539075,-3.801137 l -33.484457,-17.978814 c -2.57967,2.959654 -6.37686,4.835899 -10.62109,4.835899 -7.7548,0 -14.05935,-6.255901 -14.05935,-14.017268 0,-7.762682 6.30455,-14.017269 14.05935,-14.017269 4.24423,0 8.04142,1.873615 10.62372,4.837213 l 33.481827,-17.981442 c -0.344482,-1.210947 -0.539075,-2.482376 -0.539075,-3.797193 0,-7.757423 6.304549,-14.061972 14.067231,-14.061972 7.754793,0 14.061972,6.304549 14.061972,14.061972 0,7.720608 -6.307179,14.019898 -14.061972,14.019898"
         style="fill:#ffffff;fill-opacity:1;fill-rule:nonzero;stroke:none"
         id="path4069"
         inkscape:connector-curvature="0" /></g></g></svg>