<?xml version="1.0" encoding="utf-8"?>
<!-- Generator: Adobe Illustrator 15.1.0, SVG Export Plug-In . SVG Version: 6.00 Build 0)  -->
<!DOCTYPE svg PUBLIC "-//W3C//DTD SVG 1.1//EN" "http://www.w3.org/Graphics/SVG/1.1/DTD/svg11.dtd">
<svg version="1.1" id="Ebene_1" xmlns="http://www.w3.org/2000/svg" xmlns:xlink="http://www.w3.org/1999/xlink" x="0px" y="0px"
	 width="15.994px" height="30px" viewBox="0 0 15.994 30" enable-background="new 0 0 15.994 30" xml:space="preserve">
<g>
	<path fill="#FFFFFF" d="M4.919,19.107v-1.176c0-0.541,0.056-1.029,0.167-1.471c0.111-0.439,0.28-0.857,0.508-1.256
		c0.229-0.397,0.522-0.783,0.882-1.159s0.796-0.766,1.304-1.168c0.445-0.35,0.821-0.663,1.128-0.938
		c0.308-0.275,0.557-0.548,0.747-0.818c0.191-0.27,0.329-0.553,0.414-0.85c0.085-0.297,0.126-0.642,0.126-1.034
		c0-0.604-0.203-1.102-0.611-1.494C9.176,7.351,8.553,7.155,7.717,7.155c-0.731,0-1.518,0.154-2.36,0.461
		C4.515,7.924,3.643,8.3,2.742,8.745L1.121,5.232c0.456-0.265,0.951-0.517,1.486-0.755c0.536-0.239,1.091-0.451,1.669-0.636
		S5.438,3.51,6.032,3.405c0.593-0.106,1.176-0.16,1.749-0.16c1.081,0,2.056,0.13,2.925,0.39c0.868,0.26,1.605,0.638,2.208,1.136
		c0.605,0.498,1.068,1.102,1.392,1.812c0.322,0.71,0.485,1.521,0.485,2.432c0,0.667-0.074,1.264-0.224,1.789
		c-0.147,0.524-0.366,1.012-0.659,1.462c-0.292,0.451-0.656,0.885-1.096,1.304c-0.44,0.418-0.952,0.861-1.534,1.327
		c-0.445,0.349-0.809,0.653-1.09,0.914c-0.28,0.26-0.5,0.506-0.658,0.738c-0.16,0.234-0.268,0.475-0.326,0.725
		c-0.059,0.248-0.088,0.543-0.088,0.881v0.953H4.919z M4.396,24.545c0-0.498,0.071-0.92,0.214-1.266
		c0.143-0.342,0.342-0.621,0.596-0.834c0.254-0.211,0.553-0.365,0.898-0.461c0.344-0.094,0.712-0.143,1.104-0.143
		c0.371,0,0.723,0.049,1.057,0.143c0.333,0.096,0.627,0.25,0.882,0.461c0.253,0.213,0.455,0.492,0.603,0.834
		c0.149,0.346,0.225,0.768,0.225,1.266c0,0.477-0.075,0.883-0.225,1.223c-0.147,0.34-0.35,0.621-0.603,0.842
		c-0.255,0.225-0.549,0.385-0.882,0.486c-0.334,0.1-0.686,0.15-1.057,0.15c-0.392,0-0.76-0.051-1.104-0.15
		c-0.345-0.102-0.644-0.262-0.898-0.486c-0.254-0.221-0.453-0.502-0.596-0.842C4.466,25.428,4.396,25.021,4.396,24.545z"/>
</g>
</svg>
