<?xml version="1.0" encoding="utf-8"?>
<!-- Generator: Adobe Illustrator 15.1.0, SVG Export Plug-In  -->
<!DOCTYPE svg PUBLIC "-//W3C//DTD SVG 1.1//EN" "http://www.w3.org/Graphics/SVG/1.1/DTD/svg11.dtd" [
	<!ENTITY ns_flows "http://ns.adobe.com/Flows/1.0/">
]>
<svg version="1.1"
	 xmlns="http://www.w3.org/2000/svg" xmlns:xlink="http://www.w3.org/1999/xlink" xmlns:a="http://ns.adobe.com/AdobeSVGViewerExtensions/3.0/"
	 x="0px" y="0px" width="30px" height="30px" viewBox="-2.149 -5 30 30" enable-background="new -2.149 -5 30 30"
	 xml:space="preserve">
<defs>
</defs>
<circle fill="#FFFFFF" cx="12.841" cy="11.172" r="4.73"/>
<path fill="#FFFFFF" d="M25.688,2.15h-8.727V1.169c0-1.301,0-1.166,0-1.166h-8.14c0,0,0-0.136,0,1.166V2.15c0,0-0.875-0.014-1.617,0
	c-0.742,0.012-1.58,0.291-1.58,0.291L0.006,4.256c0,0,0.013,0.788,0,1.35c-0.015,0.563,0,13.216,0,13.216c0,0.65,0,1.178,0,1.178
	s25.653-0.004,25.682,0c0.032,0.002,0-0.527,0-1.178V3.327C25.688,2.677,25.688,2.15,25.688,2.15z M12.842,18.086
	c-3.818,0-6.912-3.097-6.912-6.912c0-3.818,3.094-6.913,6.912-6.913c3.815,0,6.911,3.094,6.911,6.913
	C19.753,14.989,16.658,18.086,12.842,18.086z"/>
<path fill="#FFFFFF" d="M5.182,1.55L1.074,2.943V1.058c0-0.201,0-0.362,0-0.362h4.108c0,0,0,0.161,0,0.362V1.55z"/>
</svg>
