<?xml version="1.0" encoding="UTF-8" standalone="no"?>
<!-- Created with Inkscape (http://www.inkscape.org/) -->

<svg
   xmlns:dc="http://purl.org/dc/elements/1.1/"
   xmlns:cc="http://creativecommons.org/ns#"
   xmlns:rdf="http://www.w3.org/1999/02/22-rdf-syntax-ns#"
   xmlns:svg="http://www.w3.org/2000/svg"
   xmlns="http://www.w3.org/2000/svg"
   xmlns:sodipodi="http://sodipodi.sourceforge.net/DTD/sodipodi-0.dtd"
   xmlns:inkscape="http://www.inkscape.org/namespaces/inkscape"
   id="svg2"
   version="1.1"
   inkscape:version="0.48.2 r9819"
   width="32"
   height="32"
   sodipodi:docname="mode_fitline_32.gif">
  <metadata
     id="metadata8">
    <rdf:RDF>
      <cc:Work
         rdf:about="">
        <dc:format>image/svg+xml</dc:format>
        <dc:type
           rdf:resource="http://purl.org/dc/dcmitype/StillImage" />
        <dc:title></dc:title>
      </cc:Work>
    </rdf:RDF>
  </metadata>
  <defs
     id="defs6" />
  <sodipodi:namedview
     pagecolor="#ffffff"
     bordercolor="#666666"
     borderopacity="1"
     objecttolerance="10"
     gridtolerance="10"
     guidetolerance="10"
     inkscape:pageopacity="0"
     inkscape:pageshadow="2"
     inkscape:window-width="899"
     inkscape:window-height="846"
     id="namedview4"
     showgrid="false"
     inkscape:zoom="14.75"
     inkscape:cx="16"
     inkscape:cy="16"
     inkscape:window-x="1677"
     inkscape:window-y="72"
     inkscape:window-maximized="0"
     inkscape:current-layer="svg2" />
  <g
     id="g3813">
    <path
       inkscape:connector-curvature="0"
       id="path2987"
       d="M 0.27118644,31.864407 26.644068,0.40677964"
       style="fill:none;stroke:#ff0000;stroke-width:1px;stroke-linecap:butt;stroke-linejoin:miter;stroke-opacity:1" />
    <path
       transform="matrix(0.26822699,0,0,0.33024479,6.2250217,23.521138)"
       d="m 9.2881355,2.2711864 a 7.2203388,5.8644066 0 1 1 -14.4406776,0 7.2203388,5.8644066 0 1 1 14.4406776,0 z"
       sodipodi:ry="5.8644066"
       sodipodi:rx="7.2203388"
       sodipodi:cy="2.2711864"
       sodipodi:cx="2.0677967"
       id="path3761"
       style="fill:#0000ff;fill-opacity:1;stroke:#000000;stroke-width:2.74983358;stroke-miterlimit:4;stroke-opacity:1;stroke-dasharray:none;stroke-dashoffset:5.8"
       sodipodi:type="arc" />
    <path
       transform="matrix(0.26822699,0,0,0.33024479,6.9707849,14.504189)"
       d="m 9.2881355,2.2711864 a 7.2203388,5.8644066 0 1 1 -14.4406776,0 7.2203388,5.8644066 0 1 1 14.4406776,0 z"
       sodipodi:ry="5.8644066"
       sodipodi:rx="7.2203388"
       sodipodi:cy="2.2711864"
       sodipodi:cx="2.0677967"
       id="path3761-1"
       style="fill:#0000ff;fill-opacity:1;stroke:#000000;stroke-width:2.74983358;stroke-miterlimit:4;stroke-opacity:1;stroke-dasharray:none;stroke-dashoffset:5.8"
       sodipodi:type="arc" />
    <path
       transform="matrix(0.26822699,0,0,0.33024479,18.428412,16.266901)"
       d="m 9.2881355,2.2711864 a 7.2203388,5.8644066 0 1 1 -14.4406776,0 7.2203388,5.8644066 0 1 1 14.4406776,0 z"
       sodipodi:ry="5.8644066"
       sodipodi:rx="7.2203388"
       sodipodi:cy="2.2711864"
       sodipodi:cx="2.0677967"
       id="path3761-7"
       style="fill:#0000ff;fill-opacity:1;stroke:#000000;stroke-width:2.74983358;stroke-miterlimit:4;stroke-opacity:1;stroke-dasharray:none;stroke-dashoffset:5.8"
       sodipodi:type="arc" />
    <path
       transform="matrix(0.26822699,0,0,0.33024479,16.055531,7.4533421)"
       d="m 9.2881355,2.2711864 a 7.2203388,5.8644066 0 1 1 -14.4406776,0 7.2203388,5.8644066 0 1 1 14.4406776,0 z"
       sodipodi:ry="5.8644066"
       sodipodi:rx="7.2203388"
       sodipodi:cy="2.2711864"
       sodipodi:cx="2.0677967"
       id="path3761-4"
       style="fill:#0000ff;fill-opacity:1;stroke:#000000;stroke-width:2.74983358;stroke-miterlimit:4;stroke-opacity:1;stroke-dasharray:none;stroke-dashoffset:5.8"
       sodipodi:type="arc" />
    <path
       transform="matrix(0.26822699,0,0,0.33024479,24.6657,6.2330034)"
       d="m 9.2881355,2.2711864 a 7.2203388,5.8644066 0 1 1 -14.4406776,0 7.2203388,5.8644066 0 1 1 14.4406776,0 z"
       sodipodi:ry="5.8644066"
       sodipodi:rx="7.2203388"
       sodipodi:cy="2.2711864"
       sodipodi:cx="2.0677967"
       id="path3761-0"
       style="fill:#0000ff;fill-opacity:1;stroke:#000000;stroke-width:2.74983358;stroke-miterlimit:4;stroke-opacity:1;stroke-dasharray:none;stroke-dashoffset:5.8"
       sodipodi:type="arc" />
  </g>
</svg>
