<svg id="pattern_honeycomb" xmlns="http://www.w3.org/2000/svg" viewBox="0 0 512 512"><defs><style>.cls-1{fill:none;stroke:#000;stroke-miterlimit:10;stroke-width:24px;}</style></defs><title>filling_honeycombSVG</title><polygon class="cls-1" points="73.43 -86.57 164.71 -33.87 164.71 71.54 73.43 124.24 -17.86 71.54 -17.86 -33.87 73.43 -86.57"/><polygon class="cls-1" points="256 -86.57 347.29 -33.87 347.29 71.54 256 124.24 164.72 71.54 164.72 -33.87 256 -86.57"/><polygon class="cls-1" points="438.57 -86.57 529.86 -33.87 529.86 71.54 438.57 124.24 347.29 71.54 347.29 -33.87 438.57 -86.57"/><polygon class="cls-1" points="-17.86 71.54 73.43 124.24 73.43 229.65 -17.86 282.35 -109.14 229.65 -109.14 124.24 -17.86 71.54"/><polygon class="cls-1" points="164.71 71.54 256 124.24 256 229.65 164.71 282.35 73.43 229.65 73.43 124.24 164.71 71.54"/><polygon class="cls-1" points="347.28 71.54 438.57 124.24 438.57 229.65 347.28 282.35 256 229.65 256 124.24 347.28 71.54"/><polygon class="cls-1" points="529.86 71.54 621.14 124.24 621.14 229.65 529.86 282.35 438.57 229.65 438.57 124.24 529.86 71.54"/><polygon class="cls-1" points="73.43 229.65 164.71 282.35 164.71 387.76 73.43 440.46 -17.86 387.76 -17.86 282.35 73.43 229.65"/><polygon class="cls-1" points="256 229.65 347.29 282.35 347.29 387.76 256 440.46 164.71 387.76 164.71 282.35 256 229.65"/><polygon class="cls-1" points="438.57 229.65 529.86 282.35 529.86 387.76 438.57 440.46 347.29 387.76 347.29 282.35 438.57 229.65"/><polygon class="cls-1" points="-17.86 387.76 73.43 440.46 73.43 545.87 -17.86 598.57 -109.14 545.87 -109.14 440.46 -17.86 387.76"/><polygon class="cls-1" points="164.71 387.76 256 440.46 256 545.87 164.71 598.57 73.43 545.87 73.43 440.46 164.71 387.76"/><polygon class="cls-1" points="347.29 387.76 438.57 440.46 438.57 545.87 347.29 598.57 256 545.87 256 440.46 347.29 387.76"/><polygon class="cls-1" points="529.86 387.76 621.14 440.46 621.14 545.87 529.86 598.57 438.57 545.87 438.57 440.46 529.86 387.76"/></svg>