<svg xmlns="http://www.w3.org/2000/svg" viewBox="0 0 24 24"><title>filling_black</title><g id="more_vert"><path d="M22,12l0,0V4a2,2,0,0,0-2-2H4A2,2,0,0,0,2,4V20a2,2,0,0,0,2,2h7.94l0,0,0,0h8a2,2,0,0,0,2-2V12Zm-10-1L8.56,7.5,12,4.06,15.44,7.5Zm4.5-2.38L19.94,12,16.5,15.44,13.06,12ZM13.56,3.5h5.88L16.5,6.44ZM7.5,6.44,4.56,3.5h5.88Zm-4,4V4.56L6.44,7.5ZM4.06,12,7.5,8.56,10.94,12,7.5,15.44Zm2.38,4.5L3.5,19.44V13.56ZM12,13.06l3.44,3.44L12,19.94,8.56,16.5Zm4.5,4.5,2.94,2.94H13.56Zm4-4v5.88L17.56,16.5ZM17.56,7.5,20.5,4.56v5.88Zm-13,13L7.5,17.56l2.94,2.94Z"/></g></svg>