<?xml version="1.0" encoding="utf-8"?>
<!-- Generator: Adobe Illustrator 24.2.1, SVG Export Plug-In . SVG Version: 6.00 Build 0)  -->
<svg version="1.1" id="Layer_1" xmlns="http://www.w3.org/2000/svg" x="0px" y="0px"
	 viewBox="0 0 24 24" style="enable-background:new 0 0 24 24;" xml:space="preserve">
<style type="text/css">
	.st0{fill:#757575;}
</style>
<path class="st0" d="M19,3H5C3.3,3,2,4.3,2,6v12c0,1.7,1.3,3,3,3h14c1.7,0,3-1.3,3-3V6C22,4.3,20.7,3,19,3z M14,18.5h-4v-3h4V18.5z
	 M14,13.5h-4v-3h4V13.5z M14,8.5h-4v-3h4V8.5z M20,18.5h-4v-3h4V18.5z M20,13.5h-4v-3h4V13.5z M20,8.5h-4v-3h4V8.5z"/>
</svg>
