<?xml version="1.0" encoding="utf-8"?>
<!-- Generator: Adobe Illustrator 15.1.0, SVG Export Plug-In . SVG Version: 6.00 Build 0)  -->
<!DOCTYPE svg PUBLIC "-//W3C//DTD SVG 1.1//EN" "http://www.w3.org/Graphics/SVG/1.1/DTD/svg11.dtd">
<svg version="1.1" id="Ebene_1" xmlns="http://www.w3.org/2000/svg" xmlns:xlink="http://www.w3.org/1999/xlink" x="0px" y="0px"
	 width="30px" height="30px" viewBox="0 0 30 30" enable-background="new 0 0 30 30" xml:space="preserve">
<g>
	<path fill="#FFFFFF" d="M21.481,12.437c0,5.162-4.186,9.35-9.348,9.35c-5.164,0-9.349-4.188-9.349-9.35
		c0-5.164,4.185-9.349,9.349-9.349C17.296,3.088,21.481,7.273,21.481,12.437z M12.099,5.558c-3.78,0-6.845,3.064-6.845,6.844
		c0,3.779,3.065,6.844,6.845,6.844c3.779,0,6.844-3.064,6.844-6.844C18.942,8.622,15.878,5.558,12.099,5.558z"/>
	
		<rect x="20.484" y="16.801" transform="matrix(0.7074 -0.7068 0.7068 0.7074 -9.2527 22.045)" fill="#FFFFFF" width="3.034" height="10.796"/>
</g>
</svg>
