<?xml version="1.0" encoding="utf-8"?>
<!-- Generator: Adobe Illustrator 15.1.0, SVG Export Plug-In . SVG Version: 6.00 Build 0)  -->
<!DOCTYPE svg PUBLIC "-//W3C//DTD SVG 1.1//EN" "http://www.w3.org/Graphics/SVG/1.1/DTD/svg11.dtd">
<svg version="1.1" id="Ebene_1" xmlns="http://www.w3.org/2000/svg" xmlns:xlink="http://www.w3.org/1999/xlink" x="0px" y="0px"
	 width="36px" height="27px" viewBox="7 6.5 36 27" enable-background="new 7 6.5 36 27" xml:space="preserve">
<g>
	<g>
		<path fill="#FFFFFF" d="M18.06,12.824h-7.936c-1.232,0-1.746,0.881-1.746,2.114v15.805c0,1.232,0.514,2.113,1.746,2.113h22.958
			c1.232,0,2.481-0.881,2.481-2.113v-6.221l-2.861,2.232v1.596c0,0.961-1.115,1.645-2.078,1.645H12.519
			c-0.963,0-1.278-0.684-1.278-1.646V17.395c0-0.962,0.315-1.709,1.278-1.709h3.083"/>
	</g>
	<path fill="#FFFFFF" d="M15.847,25.838c0,0-0.104-13.006,14.203-13.014V7.145l11.571,9.347L30.05,25.84v-5.818
		C30.05,20.022,18.34,19.71,15.847,25.838z"/>
</g>
</svg>
