<?xml version="1.0" encoding="utf-8"?>
<!-- Generator: Adobe Illustrator 15.1.0, SVG Export Plug-In . SVG Version: 6.00 Build 0)  -->
<!DOCTYPE svg PUBLIC "-//W3C//DTD SVG 1.1//EN" "http://www.w3.org/Graphics/SVG/1.1/DTD/svg11.dtd">
<svg version="1.1" id="Ebene_1" xmlns="http://www.w3.org/2000/svg" xmlns:xlink="http://www.w3.org/1999/xlink" x="0px" y="0px"
	 width="40px" height="40px" viewBox="0 0 40 40" enable-background="new 0 0 40 40" xml:space="preserve">
<g>
	<path fill="#FFFFFF" d="M29,21.47v7.229C29,30.044,27.441,31,26.096,31H8.787C7.441,31,7,30.044,7,28.698V11.39
		C7,10.045,7.441,9,8.787,9h17.309c0.361,0,0.704,0.056,1.013,0.198l2.943-2.873C29.602,6.073,29.084,6,28.532,6H6.44
		C4.718,6,4,7.232,4,8.954v22.092C4,32.768,4.718,34,6.44,34h22.092C30.254,34,32,32.768,32,31.046V18.352L29,21.47z"/>
	<g>
		<path fill="#FFFFFF" d="M33.711,6.734c0,0,0.519-0.389,1.75,0.843c1.231,1.231,0.843,1.75,0.843,1.75L33.711,6.734z"/>
		<g>
			<path fill="#FFFFFF" d="M18.411,24.627c-1.055-1.055-1.552-0.951-1.701-0.876c-0.177,0.377-1.886,4.031-1.67,4.247
				c0.215,0.215,3.871-1.494,4.247-1.671C19.362,26.179,19.466,25.682,18.411,24.627z"/>
			<path fill="#FFFFFF" d="M33.711,6.734l-2.14,2.139c0,0,0.421-0.356,1.686,0.908c1.264,1.264,0.907,1.686,0.907,1.686l2.14-2.14
				L33.711,6.734z"/>
			<path fill="#FFFFFF" d="M32.738,10.3c-1.297-1.296-1.75-0.843-1.75-0.843L17.244,23.2c0,0,0.421-0.356,1.686,0.908
				c1.264,1.264,0.908,1.686,0.908,1.686L33.581,12.05C33.581,12.05,34.034,11.596,32.738,10.3z"/>
			<path fill="#FFFFFF" d="M19.254,26.377l0.065-0.064c0,0-0.011,0.005-0.032,0.015C19.27,26.361,19.254,26.377,19.254,26.377z"/>
			<path fill="#FFFFFF" d="M16.661,23.784c0,0,0.016-0.016,0.05-0.033c0.01-0.021,0.015-0.032,0.015-0.032L16.661,23.784z"/>
		</g>
	</g>
</g>
</svg>
