<?xml version="1.0" encoding="utf-8"?>
<!-- Generator: Adobe Illustrator 15.1.0, SVG Export Plug-In . SVG Version: 6.00 Build 0)  -->
<!DOCTYPE svg PUBLIC "-//W3C//DTD SVG 1.1//EN" "http://www.w3.org/Graphics/SVG/1.1/DTD/svg11.dtd">
<svg version="1.1" id="Ebene_1" xmlns="http://www.w3.org/2000/svg" xmlns:xlink="http://www.w3.org/1999/xlink" x="0px" y="0px"
	 width="36px" height="27px" viewBox="0 0 36 27" enable-background="new 0 0 36 27" xml:space="preserve">
<g>
	<g>
		<path fill="#FFFFFF" d="M11.061,6.324H3.125c-1.232,0-1.746,0.881-1.746,2.113v15.806c0,1.231,0.514,2.112,1.746,2.112h22.958
			c1.232,0,2.48-0.881,2.48-2.112v-6.222l-2.859,2.232v1.596c0,0.961-1.115,1.646-2.078,1.646H5.52
			c-0.963,0-1.278-0.685-1.278-1.646V10.895c0-0.961,0.315-1.709,1.278-1.709h3.083"/>
	</g>
	<path fill="#FFFFFF" d="M8.848,19.338c0,0-0.104-13.006,14.203-13.014v-5.68l11.57,9.348l-11.57,9.348v-5.818
		C23.051,13.521,11.34,13.21,8.848,19.338z"/>
</g>
</svg>
