<?xml version="1.0" encoding="utf-8"?>
<!-- Generator: Adobe Illustrator 15.1.0, SVG Export Plug-In . SVG Version: 6.00 Build 0)  -->
<!DOCTYPE svg PUBLIC "-//W3C//DTD SVG 1.1//EN" "http://www.w3.org/Graphics/SVG/1.1/DTD/svg11.dtd">
<svg version="1.1" id="Ebene_1" xmlns="http://www.w3.org/2000/svg" xmlns:xlink="http://www.w3.org/1999/xlink" x="0px" y="0px"
	 width="30px" height="30px" viewBox="0 0 30 30" enable-background="new 0 0 30 30" xml:space="preserve">
<g>
	<path fill="#999999" d="M19.82,13.1c0,3.871-3.139,7.012-7.01,7.012c-3.873,0-7.011-3.141-7.011-7.012
		c0-3.873,3.139-7.011,7.011-7.011C16.682,6.088,19.82,9.227,19.82,13.1z M12.784,7.94c-2.835,0-5.133,2.298-5.133,5.133
		c0,2.834,2.298,5.133,5.133,5.133c2.834,0,5.132-2.299,5.132-5.133C17.916,10.238,15.618,7.94,12.784,7.94z"/>
	
		<rect x="19.073" y="16.372" transform="matrix(0.7073 -0.7069 0.7069 0.7073 -8.5202 20.2634)" fill="#999999" width="2.275" height="8.097"/>
</g>
</svg>
