<svg xmlns="http://www.w3.org/2000/svg" width="512" height="512" viewBox="0 0 512 512"><g fill="none" stroke="#930" stroke-width="13"><path d="M90 331.61l12.32-2.1"/><path stroke-dasharray="23.98 23.98" d="M125.97 325.48l271.89-46.36"/><path d="M409.68 277.1L422 275"/></g><path fill="#930" d="M90 331.61L354 417 256 95z" opacity=".2"/><path fill="#fff" d="M90 331.61L354 417 256 95z" opacity=".2"/><path fill="#930" d="M422 275l-68 142-98-322z" opacity=".2"/><linearGradient id="a" x1="256" x2="422" y1="256" y2="256" gradientUnits="userSpaceOnUse"><stop offset="0" stop-color="#fff"/><stop offset="1" stop-color="#930"/></linearGradient><path fill="url(#a)" d="M422 275l-68 142-98-322z" opacity=".5"/><path fill="none" stroke="#930" stroke-width="13" d="M90 331.61L354 417m0 0l68-142m0 0L256 95m0 0L90 331.61M256 95l98 322"/><circle cx="90" cy="331.61" r="35" fill="red"/><path d="M90 304.607c14.888 0 27 12.112 27 27s-12.112 27.001-27 27.001-27-12.113-27-27.001 12.112-27 27-27m0-13c-22.092 0-40 17.909-40 40s17.908 40.001 40 40.001 40-17.91 40-40.001-17.908-40-40-40z"/><circle cx="354" cy="417" r="35" fill="#00f"/><path d="M354 389.999c14.888 0 27 12.112 27 27S368.888 444 354 444s-27-12.113-27-27.001 12.112-27 27-27m0-13c-22.092 0-40 17.909-40 40S331.908 457 354 457s40-17.91 40-40.001-17.908-40-40-40z"/><circle cx="256" cy="93" r="35" fill="red"/><path d="M256 66c14.888 0 27 12.112 27 27s-12.112 27.001-27 27.001S229 107.888 229 93s12.112-27 27-27m0-13c-22.092 0-40 17.909-40 40s17.908 40.001 40 40.001 40-17.91 40-40.001-17.908-40-40-40z"/><circle cx="422" cy="275" r="35" fill="#00f"/><path d="M422 247.999c14.888 0 27 12.112 27 27S436.888 302 422 302s-27-12.113-27-27.001 12.112-27 27-27m0-13c-22.092 0-40 17.909-40 40S399.908 315 422 315s40-17.91 40-40.001-17.908-40-40-40z"/></svg>