<svg xmlns="http://www.w3.org/2000/svg" width="512" height="512" viewBox="0 0 512 512"><path d="M35.35 475.87l440.68-145.84L257.27 35.19 35.35 170.5z" opacity=".2" fill="#930"/><path d="M35.35 475.87l440.68-145.84L257.27 35.19 35.35 170.5z" fill="none" stroke="#930" stroke-width="13"/><circle cx="131.42" cy="336.52" r="35" fill="#00f"/><path d="M131.424 309.525c14.888 0 27 12.112 27 27s-12.112 27-27 27-27-12.112-27-27 12.112-27 27-27m0-13c-22.09 0-40 17.91-40 40s17.91 40 40 40c22.092 0 40-17.91 40-40s-17.908-40-40-40z"/><path d="M209.69 136.68h179V283.5h-179z" fill="none"/><path d="M209.447 255.755l45.36-118.11h16.838l48.34 118.11h-17.806l-13.778-35.77h-49.387l-12.97 35.77zm34.08-48.5h40.04l-12.325-32.71c-3.76-9.937-6.553-18.1-8.38-24.493-1.503 7.573-3.625 15.093-6.364 22.558z" font-size="165" fill="#00f" font-family="FreeUniversal-Regular"/></svg>