<svg xmlns="http://www.w3.org/2000/svg" width="512" height="512" viewBox="0 0 512 512"><path fill="none" stroke="#000" stroke-width="13" d="M110 350.3l202.5-140.96"/><path d="M223.37 221.74L382 160.96 270.63 289.24z"/><circle cx="402" cy="147.96" r="35" fill="#00f"/><path d="M402 120.964c14.887 0 27 12.113 27 27 0 14.888-12.113 27.001-27 27.001-14.889 0-27-12.113-27-27.001 0-14.887 12.111-27 27-27m0-13c-22.092 0-40 17.91-40 40 0 22.091 17.908 40.001 40 40.001s40-17.91 40-40.001c0-22.09-17.908-40-40-40z"/><circle cx="110" cy="350.3" r="35" fill="#00f"/><path d="M110 323.301c14.888 0 27 12.113 27 27 0 14.888-12.112 27.001-27 27.001s-27-12.113-27-27.001c0-14.887 12.112-27 27-27m0-13c-22.091 0-40 17.91-40 40 0 22.091 17.909 40.001 40 40.001 22.092 0 40-17.91 40-40.001 0-22.09-17.908-40-40-40z"/></svg>