<svg xmlns="http://www.w3.org/2000/svg" width="512" height="512" viewBox="0 0 512 512"><path fill="none" stroke="red" stroke-miterlimit="10" stroke-width="13" d="M414.37 75.39l-274.44 58.58 257.09 258.17-299.39 44.47"/><g fill="none" stroke="#1a171b" stroke-miterlimit="10" stroke-width="13"><path d="M97.63 436.61l16.48-18.8"/><path stroke-dasharray="47.83 47.83" d="M145.64 381.86l236.49-269.69"/><path d="M397.89 94.19l16.48-18.8"/></g><circle cx="139.93" cy="133.97" r="35" fill="#00f"/><path d="M139.932 106.966c14.888 0 27 12.113 27 27 0 14.888-12.112 27.001-27 27.001s-27-12.113-27-27.001c0-14.887 12.112-27 27-27m0-13c-22.091 0-40 17.91-40 40 0 22.091 17.909 40.001 40 40.001 22.092 0 40-17.91 40-40.001 0-22.09-17.908-40-40-40z"/><circle cx="414.37" cy="75.39" r="35" fill="#00f"/><path d="M414.373 48.39c14.889 0 27 12.113 27 27 0 14.888-12.111 27.001-27 27.001-14.887 0-27-12.113-27-27.001 0-14.887 12.113-27 27-27m0-13c-22.09 0-40 17.91-40 40 0 22.091 17.91 40.001 40 40.001 22.092 0 40-17.91 40-40.001 0-22.09-17.908-40-40-40z"/><circle cx="397.02" cy="392.14" r="35" fill="#00f"/><path d="M397.016 365.136c14.889 0 27 12.113 27 27 0 14.888-12.111 27.001-27 27.001-14.887 0-27-12.113-27-27.001 0-14.887 12.113-27 27-27m0-13c-22.09 0-40 17.91-40 40 0 22.091 17.91 40.001 40 40.001 22.092 0 40-17.91 40-40.001 0-22.09-17.909-40-40-40z"/><circle cx="97.63" cy="436.61" r="35" fill="#00f"/><path d="M97.627 409.61c14.889 0 27 12.113 27 27 0 14.888-12.111 27.001-27 27.001-14.887 0-27-12.113-27-27.001 0-14.886 12.113-27 27-27m0-13c-22.09 0-40 17.91-40 40 0 22.091 17.91 40.001 40 40.001 22.092 0 40-17.91 40-40.001 0-22.089-17.908-40-40-40z"/></svg>