<svg xmlns="http://www.w3.org/2000/svg" width="24" height="24"><path d="M20.992 4.124V4.133l-.004.02-.01.073a30.474 30.474 0 0 1-.198 1.22 29.766 29.766 0 0 1-.696 2.961c-.323 1.099-.756 2.277-1.328 3.266-.556.96-1.34 1.908-2.44 2.275-2.018.673-3.557-.404-4.663-1.102-1.193-.754-2.094-1.251-3.379-.884-.54.154-1.057.605-1.532 1.388-.47.775-.83 1.767-1.097 2.783a22.198 22.198 0 0 0-.524 2.731 22.63 22.63 0 0 0-.117 1.12l-.005.059v.017l-1.997-.12v-.008l.002-.02.005-.075c.004-.064.012-.156.022-.272.021-.231.055-.561.107-.959.103-.791.278-1.867.572-2.983.292-1.108.712-2.304 1.322-3.31.606-.999 1.47-1.926 2.694-2.275 2.215-.633 3.814.37 4.996 1.116 1.269.802 1.98 1.225 2.962.898.4-.133.866-.56 1.341-1.381.46-.793.84-1.802 1.141-2.828a27.766 27.766 0 0 0 .831-3.889l.009-.06.002-.015v-.003l1.984.248Z"/></svg>