<svg xmlns="http://www.w3.org/2000/svg" width="512" height="512" viewBox="0 0 512 512"><path fill="none" stroke="#000" stroke-width="13" d="M440.11 256c0 101.502-82.429 183.785-184.11 183.785-101.681 0-184.11-82.283-184.11-183.785S154.319 72.215 256 72.215c101.682 0 184.11 82.283 184.11 183.785zM256 256l150.33-106.55"/><circle cx="256" cy="256" r="35" fill="#00f"/><path d="M278.118 240.513c8.537 12.193 5.563 29.064-6.631 37.604-12.195 8.539-29.066 5.564-37.605-6.631s-5.564-29.064 6.631-37.604 29.064-5.565 37.605 6.631m10.649-7.457c-12.672-18.096-37.615-22.492-55.709-9.822-18.096 12.67-22.496 37.613-9.824 55.709 12.672 18.098 37.613 22.494 55.709 9.824 18.095-12.672 22.495-37.614 9.824-55.711z"/></svg>