<svg xmlns="http://www.w3.org/2000/svg" width="512" height="512" viewBox="0 0 512 512"><path fill="none" stroke="#000" stroke-width="13" d="M446.059 247.587c0 63.304-51.318 114.621-114.621 114.621-63.305 0-114.622-51.317-114.622-114.621 0-63.303 51.317-114.621 114.622-114.621 63.302 0 114.621 51.318 114.621 114.621z"/><circle cx="95.37" cy="419.81" r="35" fill="#00f"/><path d="M117.489 404.32c8.538 12.193 5.563 29.064-6.631 37.604-12.195 8.539-29.066 5.564-37.604-6.631-8.54-12.195-5.564-29.064 6.631-37.604 12.194-8.539 29.064-5.565 37.604 6.631m10.649-7.457c-12.671-18.096-37.614-22.493-55.709-9.822-18.096 12.67-22.495 37.613-9.824 55.709 12.672 18.097 37.614 22.493 55.71 9.823 18.095-12.671 22.495-37.613 9.823-55.71z"/><path fill="none" stroke="red" stroke-width="13" d="M450.03 520.93L67.97-4.93"/></svg>