<svg xmlns="http://www.w3.org/2000/svg" width="512" height="512" viewBox="0 0 512 512"><path d="M249.5 153h13v191.18h-13z"/><path d="M214.8 164.8L256 0l41.2 164.8z"/><path fill="#1a171b" d="M256 373h202v13H256z"/><circle cx="256" cy="379.18" r="35" fill="#00f"/><path d="M256 352.179c14.888 0 27 12.112 27 27s-12.112 27-27 27-27-12.112-27-27 12.112-27 27-27m0-13c-22.092 0-40 17.909-40 40s17.908 40 40 40 40-17.909 40-40-17.908-40-40-40z"/><path fill="red" d="M286 247.26v13.041c16.416 1.57 32.398 4.441 47.77 8.59 23.551 6.357 44.636 15.416 62.669 26.924 35.507 22.659 55.062 52.181 55.062 83.127s-19.555 60.469-55.062 83.128c-18.033 11.508-39.118 20.566-62.669 26.924C309.169 495.633 283.004 499 256 499c-27.003 0-53.169-3.367-77.77-10.007-23.551-6.357-44.635-15.416-62.668-26.924C80.055 439.41 60.5 409.888 60.5 378.941s19.555-60.468 55.062-83.127c18.033-11.508 39.118-20.566 62.668-26.924 15.372-4.148 31.354-7.02 47.77-8.59v-13.04c-100.935 9.284-178.5 64.698-178.5 131.681C47.5 452.428 140.849 512 256 512s208.5-59.572 208.5-133.059c0-66.983-77.564-122.397-178.5-131.681z"/></svg>