<svg xmlns="http://www.w3.org/2000/svg" viewBox="0 0 512 512" width="512" height="512"><path fill="none" stroke="#ccc" stroke-miterlimit="10" stroke-width="13" d="M-13 256h538"/><path fill="none" stroke="#000" stroke-miterlimit="10" stroke-width="13" d="M12.157 522.083c48.055-330 122.797-613.705 243.605-265.999 121.803 350.571 192.696 63.998 244.082-266.168"/><ellipse cx="360" cy="416.6" fill="red" rx="35" ry="35" transform="rotate(-35.003 359.985 416.592)"/><path d="M382.122 401.112c8.537 12.193 5.563 29.064-6.631 37.603-12.195 8.539-29.066 5.564-37.605-6.631-8.539-12.195-5.565-29.064 6.631-37.603 12.195-8.539 29.064-5.564 37.605 6.631m10.648-7.457c-12.672-18.096-37.615-22.492-55.709-9.822-18.096 12.67-22.496 37.613-9.824 55.708 12.672 18.098 37.613 22.494 55.709 9.824 18.096-12.671 22.496-37.613 9.824-55.71z"/><ellipse cx="153" cy="97.61" fill="red" rx="35" ry="35" transform="rotate(-35.003 152.99 97.61)"/><path d="M175.114 82.124c8.537 12.193 5.563 29.064-6.631 37.603-12.195 8.539-29.066 5.564-37.605-6.631-8.539-12.195-5.564-29.064 6.631-37.603 12.195-8.539 29.064-5.564 37.605 6.631m10.649-7.457c-12.672-18.096-37.615-22.492-55.709-9.822-18.096 12.67-22.496 37.613-9.824 55.709 12.672 18.098 37.613 22.494 55.709 9.824 18.095-12.673 22.496-37.614 9.824-55.711z"/></svg>