<svg xmlns="http://www.w3.org/2000/svg" width="512" height="512" viewBox="0 0 512 512"><path fill="#930" d="M95.31 431.85l320.01-150.77L135.31 80.15z" opacity=".2"/><path fill="none" stroke="#930" stroke-miterlimit="10" stroke-width="13" d="M95.31 431.85l320.01-150.77L135.31 80.15z"/><path fill="none" stroke="#000" stroke-width="13" d="M415.32 281.08L255.03 99.67"/><path d="M274.55 183.29L195.89 32.73l140.26 95.83z"/><circle cx="135.31" cy="80.15" r="35" fill="#00f"/><path d="M157.432 64.663c8.537 12.193 5.563 29.064-6.631 37.604-12.195 8.539-29.066 5.564-37.605-6.631s-5.564-29.064 6.631-37.604 29.064-5.564 37.605 6.631m10.648-7.457c-12.672-18.096-37.615-22.492-55.709-9.822-18.096 12.67-22.496 37.613-9.824 55.709 12.672 18.098 37.613 22.494 55.709 9.824 18.096-12.672 22.496-37.613 9.824-55.711z"/><circle cx="415.32" cy="281.08" r="35" fill="#00f"/><path d="M437.442 265.596c8.537 12.193 5.563 29.064-6.631 37.604-12.195 8.539-29.066 5.564-37.605-6.631s-5.564-29.064 6.631-37.604 29.064-5.565 37.605 6.631m10.649-7.457c-12.672-18.096-37.615-22.492-55.709-9.822-18.096 12.67-22.496 37.613-9.824 55.709 12.672 18.098 37.613 22.494 55.709 9.824 18.095-12.672 22.496-37.614 9.824-55.711z"/><circle cx="95.31" cy="431.85" r="35" fill="#00f"/><path d="M117.428 416.362c8.537 12.193 5.563 29.064-6.631 37.604-12.195 8.539-29.066 5.564-37.605-6.631s-5.564-29.064 6.631-37.604 29.064-5.564 37.605 6.631m10.648-7.457c-12.672-18.096-37.615-22.492-55.709-9.822-18.096 12.67-22.496 37.613-9.824 55.709 12.672 18.098 37.613 22.494 55.709 9.824 18.096-12.672 22.496-37.613 9.824-55.711z"/></svg>