<svg xmlns="http://www.w3.org/2000/svg" width="512" height="512" viewBox="0 0 512 512"><path d="M220.745 206.806H202.19V86.494c-7.422 5.209-17.841 10.742-31.25 16.602V86.494a138.368 138.368 0 0 0 16.113-11.523c5.011-4.166 8.56-7.324 10.645-9.473 2.081-2.148 3.125-3.155 3.125-3.027h19.922v144.335zm137.109-47.461c.128 13.022-4.395 24.609-13.574 34.766s-19.043 15.234-29.59 15.234c-14.844 0-26.465-3.32-34.863-9.961s-12.598-15.884-12.598-27.734h21.094c0 7.163 2.213 12.567 6.641 16.211 4.425 3.647 10.284 5.469 17.578 5.469 6.641 0 12.5-2.96 17.578-8.887 5.078-5.923 7.617-14.16 7.617-24.707 0-22.784-7.88-34.18-23.633-34.18-11.591 0-20.443 6.967-26.563 20.898h-17.969l2.539-83.984h76.563v16.602h-57.031l-2.344 45.313c.781-.65 2.276-2.115 4.492-4.395 2.213-2.276 4.004-3.906 5.371-4.883s3.741-1.953 7.129-2.93c3.385-.977 7.422-1.465 12.109-1.465 12.237 0 21.842 4.721 28.809 14.16 6.965 9.443 10.515 20.933 10.645 34.473z"/><path fill="red" d="M157.561 408.135c0 11.85-4.462 21.713-13.379 29.59-8.92 7.88-20.215 11.816-33.887 11.816-15.106 0-26.563-4.034-34.375-12.109-7.813-8.072-11.719-17.643-11.719-28.711H85.49c1.563 16.928 10.025 25.391 25.391 25.391 6.769 0 12.921-2.441 18.457-7.324 5.533-4.883 8.301-10.514 8.301-16.895 0-20.572-13.477-30.664-40.43-30.273v-16.016c12.5 0 21.973-2.148 28.418-6.445s9.668-11.261 9.668-20.898c0-7.55-2.637-12.988-7.91-16.309s-10.971-4.98-17.09-4.98c-12.372 0-19.989 8.334-22.852 25H67.131c1.69-13.019 6.183-23.014 13.477-29.98 7.291-6.964 17.056-10.449 29.297-10.449 13.409 0 24.316 3.613 32.715 10.84s12.598 16.309 12.598 27.246c0 4.56-.946 8.789-2.832 12.695-1.889 3.906-4.199 7.001-6.934 9.277a150.202 150.202 0 0 1-8.594 6.641c-2.997 2.148-5.536 3.744-7.617 4.785.909.521 2.862 1.563 5.859 3.125 2.994 1.563 5.533 3.095 7.617 4.59 2.081 1.498 4.395 3.549 6.934 6.152 2.539 2.606 4.492 5.859 5.859 9.766s2.051 8.397 2.051 13.475z"/><path d="M272.991 362.529c4.425 4.492 6.641 9.931 6.641 16.309 0 6.381-2.216 11.816-6.641 16.309-4.428 4.492-9.833 6.738-16.211 6.738-6.381 0-11.816-2.246-16.309-6.738s-6.738-9.928-6.738-16.309c0-6.51 2.212-11.979 6.641-16.406 4.425-4.425 9.894-6.641 16.406-6.641 6.378 0 11.783 2.246 16.211 6.738z"/><path fill="red" d="M447.796 399.346c.128 13.021-4.395 24.609-13.574 34.766s-19.043 15.234-29.59 15.234c-14.844 0-26.465-3.32-34.863-9.961s-12.598-15.885-12.598-27.734h21.094c0 7.162 2.213 12.567 6.641 16.211 4.425 3.646 10.284 5.469 17.578 5.469 6.641 0 12.5-2.96 17.578-8.887 5.078-5.924 7.617-14.16 7.617-24.707 0-22.784-7.88-34.18-23.633-34.18-11.591 0-20.443 6.967-26.563 20.898h-17.969l2.539-83.984h76.563v16.602h-57.031l-2.344 45.313c.781-.65 2.276-2.115 4.492-4.395 2.213-2.276 4.004-3.906 5.371-4.883s3.741-1.953 7.129-2.93c3.385-.977 7.422-1.465 12.109-1.465 12.237 0 21.842 4.721 28.809 14.16 6.964 9.442 10.514 20.932 10.645 34.473z"/></svg>