<svg xmlns="http://www.w3.org/2000/svg" width="512" height="512" viewBox="0 0 512 512"><g stroke="#000" stroke-miterlimit="10" stroke-width="13"><path d="M207.293 240.79l165.951 165.951c36.345 2.797 33.548-33.548 33.548-33.548l-165.95-165.952"/><path d="M244.378 210.776c10.452-45.566 10.477-59.974 10.477-59.974s-8.485-15.557-28.284-35.355c-19.799-19.8-68.459-5.08-68.459-5.08l14.142 14.143 36.351 11.731 6.783 45.544-33.549 33.549-45.543-6.782-11.732-36.351-14.142-14.143s-14.719 48.66 5.08 68.459c19.799 19.8 35.355 28.285 35.355 28.285s24.072.381 59.974-10.477l33.547-33.549z"/></g></svg>