<svg width="24" height="24" xmlns="http://www.w3.org/2000/svg"><path d="M10,13L10,14C10,15 9,16 8,16L4,16C3,16 2,15 2,14L2,10C2,9 3,8 4,8L8,8C9,8 10,9 10,10L10,11L12,11L12,6C12,5 13,4 14,4L16.173,4C16.589,2.84 17.704,2 19,2C20.646,2 22,3.354 22,5C22,6.646 20.646,8 19,8C17.704,8 16.589,7.16 16.173,6L14,6L14,11L16.173,11C16.589,9.84 17.704,9 19,9C20.646,9 22,10.354 22,12C22,13.646 20.646,15 19,15C17.704,15 16.589,14.16 16.173,13L14,13L14,18L16.173,18C16.589,16.84 17.704,16 19,16C20.646,16 22,17.354 22,19C22,20.646 20.646,22 19,22C17.704,22 16.589,21.16 16.173,20L14,20C13,20 12,19 12,18L12,13L10,13ZM4,10L4,14L8,14L8,10L4,10ZM19,18C18.451,18 18,18.451 18,19C18,19.549 18.451,20 19,20C19.549,20 20,19.549 20,19C20,18.451 19.549,18 19,18ZM19,4C18.451,4 18,4.451 18,5C18,5.549 18.451,6 19,6C19.549,6 20,5.549 20,5C20,4.451 19.549,4 19,4ZM19,11C18.451,11 18,11.451 18,12C18,12.549 18.451,13 19,13C19.549,13 20,12.549 20,12C20,11.451 19.549,11 19,11Z"/></svg>
