<svg xmlns="http://www.w3.org/2000/svg" width="512" height="512" viewBox="0 0 512 512"><path fill="none" stroke="red" stroke-width="13" d="M120 350.3l272-189.34"/><circle cx="392" cy="160.96" r="35" fill="red"/><path d="M392 133.964c14.887 0 27 12.113 27 27 0 14.888-12.113 27.001-27 27.001-14.889 0-27-12.113-27-27.001 0-14.887 12.111-27 27-27m0-13c-22.092 0-40 17.91-40 40 0 22.091 17.908 40.001 40 40.001s40-17.91 40-40.001c0-22.09-17.908-40-40-40z"/><circle cx="120" cy="350.3" r="35" fill="#00f"/><path d="M120 323.301c14.888 0 27 12.113 27 27 0 14.888-12.112 27.001-27 27.001s-27-12.113-27-27.001c0-14.887 12.112-27 27-27m0-13c-22.091 0-40 17.91-40 40 0 22.091 17.909 40.001 40 40.001 22.092 0 40-17.91 40-40.001 0-22.09-17.908-40-40-40z"/><path fill="#666" d="M233.457 207.885h-17.536c-1.397-7.087-2.16-11.67-2.287-13.746-3.304 3.787-5.972 6.629-8.005 8.522-2.034 1.894-4.955 3.635-8.768 5.224-3.812 1.588-8.133 2.383-12.962 2.383-9.275 0-17.821-2.414-25.636-7.24-7.814-4.827-11.72-11.456-11.72-19.886 0-5.498 1.11-10.325 3.335-14.48 2.224-4.154 5.082-7.484 8.577-9.988 3.494-2.505 7.656-4.551 12.484-6.14 4.829-1.59 9.53-2.658 14.105-3.208 4.574-.55 9.403-.825 14.485-.825 1.525 0 3.75.062 6.672.183 2.922.122 5.147.184 6.671.184 1.652-7.21.699-13.136-2.86-17.779-3.557-4.643-9.593-6.965-18.106-6.965-5.972 0-11.119 1.222-15.44 3.665-4.32 2.444-6.48 6.293-6.48 11.547h-18.107c0-18.45 13.087-27.676 39.263-27.676 20.712 0 33.228 5.316 37.549 15.946 1.524 3.421 2.287 13.319 2.287 29.692v16.313c.001 18.206.827 29.63 2.48 34.274zm-20.776-46.187c-6.48-.367-9.847-.55-10.101-.55a78.68 78.68 0 0 0-11.246.825c-3.812.55-7.88 1.466-12.199 2.748-4.32 1.284-7.814 3.33-10.483 6.14-2.669 2.811-4.003 6.17-4.003 10.082 0 5.131 1.906 9.225 5.718 12.28 3.812 3.054 8.387 4.582 13.723 4.582 11.182 0 18.742-3.147 22.682-9.44 3.94-6.292 5.91-15.182 5.91-26.667z"/></svg>