<svg xmlns="http://www.w3.org/2000/svg" width="512" height="512" viewBox="0 0 512 512"><path fill="none" stroke="#000" stroke-width="13" d="M472.561 249.738c-10.095 99.849-108.028 178.373-218.74 175.386-110.713-2.986-192.279-86.352-182.185-186.201S179.664 60.55 290.377 63.537c110.712 2.986 192.278 86.351 182.184 186.201z"/><circle cx="433.54" cy="128.05" r="35" fill="#00f"/><path d="M455.658 112.56c8.537 12.193 5.563 29.064-6.631 37.604-12.195 8.539-29.066 5.564-37.605-6.631s-5.564-29.064 6.631-37.604 29.064-5.565 37.605 6.631m10.649-7.457c-12.672-18.096-37.615-22.492-55.709-9.822-18.096 12.67-22.496 37.613-9.824 55.709 12.672 18.098 37.613 22.495 55.709 9.824 18.095-12.672 22.496-37.614 9.824-55.711z"/><circle cx="176.06" cy="88.68" r="35" fill="#00f"/><path d="M198.178 73.189c8.537 12.193 5.563 29.064-6.631 37.604-12.195 8.539-29.066 5.564-37.605-6.631s-5.564-29.064 6.631-37.604 29.064-5.564 37.605 6.631m10.648-7.457c-12.672-18.096-37.615-22.492-55.709-9.822-18.096 12.67-22.496 37.613-9.824 55.709 12.672 18.098 37.613 22.495 55.709 9.824 18.096-12.672 22.496-37.613 9.824-55.711z"/><circle cx="70.79" cy="282.38" r="35" fill="#00f"/><path d="M92.909 266.891c8.537 12.193 5.563 29.064-6.631 37.604-12.195 8.539-29.066 5.564-37.605-6.631s-5.564-29.064 6.631-37.604 29.064-5.565 37.605 6.631m10.649-7.457c-12.672-18.096-37.615-22.492-55.709-9.822-18.096 12.67-22.496 37.613-9.824 55.709 12.672 18.098 37.613 22.494 55.709 9.824 18.095-12.672 22.495-37.614 9.824-55.711z"/><circle cx="227.24" cy="423.32" r="35" fill="#00f"/><path d="M249.359 407.836c8.538 12.193 5.563 29.064-6.631 37.604-12.195 8.539-29.066 5.564-37.605-6.631s-5.564-29.064 6.631-37.604 29.064-5.564 37.605 6.631m10.649-7.457c-12.672-18.096-37.616-22.492-55.709-9.822-18.096 12.67-22.496 37.613-9.824 55.709 12.672 18.098 37.613 22.494 55.709 9.824 18.095-12.672 22.496-37.613 9.824-55.711z"/><circle cx="433.54" cy="346.16" r="35" fill="#00f"/><path d="M455.658 330.67c8.537 12.193 5.563 29.064-6.631 37.604-12.195 8.539-29.066 5.564-37.605-6.631s-5.564-29.064 6.631-37.604 29.064-5.564 37.605 6.631m10.649-7.457c-12.672-18.096-37.615-22.492-55.709-9.822-18.096 12.67-22.496 37.613-9.824 55.709 12.672 18.098 37.613 22.494 55.709 9.824 18.095-12.672 22.496-37.613 9.824-55.711z"/></svg>