<?xml version="1.0" encoding="utf-8"?>
<!-- Generator: Adobe Illustrator 25.2.1, SVG Export Plug-In . SVG Version: 6.00 Build 0)  -->
<svg version="1.1" id="Layer_1" xmlns="http://www.w3.org/2000/svg" xmlns:xlink="http://www.w3.org/1999/xlink" x="0px" y="0px"
	 viewBox="0 0 24 24" style="enable-background:new 0 0 24 24;" xml:space="preserve">
<path d="M21,12.6l-2.2,1.3c-0.2-0.5-0.5-0.9-0.7-1.3l2.2-1.3c-0.7-1-1.6-1.9-2.6-2.6L16.4,11c-0.4-0.3-0.8-0.6-1.3-0.8L16.4,8
	c-1.1-0.5-2.3-0.9-3.6-1v2.4c-0.5,0-0.6,0-0.8,0s-0.4,0-0.7,0V7C10,7.1,8.7,7.4,7.6,8l1.2,2.1c-0.4,0.2-0.8,0.5-1.2,0.8L6.3,8.7
	c-1,0.7-1.9,1.6-2.6,2.6l2.1,1.2c-0.3,0.4-0.6,0.8-0.8,1.3l-2-1.1C2.4,14,2,15.5,2,17h20C22,15.4,21.6,14,21,12.6z"/>
</svg>
