<svg xmlns="http://www.w3.org/2000/svg" width="512" height="512" viewBox="0 0 512 512"><circle cx="168.7" cy="351.73" r="53.38" fill="#00f"/><path d="M168.704 310.55c22.704 0 41.175 18.472 41.175 41.175S191.408 392.9 168.704 392.9s-41.175-18.472-41.175-41.175S146 310.55 168.704 310.55m0-19.825c-33.689 0-61 27.312-61 61s27.311 61 61 61 61-27.312 61-61-27.311-61-61-61z"/><path fill="#00f" d="M428.199 252.873h-24.755l-18.17-45.547h-82.212l-18.397 45.547h-24.073l70.63-170h25.437l71.54 170zm-52.69-65.56l-32.021-78.445-31.34 78.444h63.362z"/></svg>