<svg xmlns="http://www.w3.org/2000/svg" width="512" height="512" viewBox="0 0 512 512"><path d="M209.271 331h-34.277l-43.945-59.18L88.568 331h-31.64l59.766-77.637L61.615 181h34.277l39.551 53.613L173.822 181h31.348l-55.664 72.363L209.271 331z"/><path fill="red" d="M455.072 213.813c-13.87 13.087-30.959 19.629-51.27 19.629-9.572 0-23.392-3.172-41.455-9.521-18.068-6.345-32.277-9.421-42.627-9.229-8.789.197-16.457 2.101-22.998 5.713-6.546 3.616-13.724 9.329-21.533 17.139v-20.801c14.063-14.063 31.641-20.801 52.734-20.215 8.981.197 22.119 3.369 39.404 9.521s30.711 9.229 40.283 9.229c9.178 0 17.285-1.854 24.316-5.566 7.031-3.708 14.744-9.274 23.145-16.699v20.8zm0 50.976c-13.87 13.088-30.959 19.629-51.27 19.629-9.572 0-23.392-3.172-41.455-9.521-18.068-6.345-32.277-9.421-42.627-9.229-8.789.197-16.457 2.102-22.998 5.713-6.546 3.616-13.724 9.329-21.533 17.139v-20.801c14.063-14.063 31.641-20.801 52.734-20.215 8.981.197 22.119 3.369 39.404 9.521s30.711 9.229 40.283 9.229c9.178 0 17.285-1.854 24.316-5.566 7.031-3.708 14.744-9.274 23.145-16.699v20.8z"/></svg>