<svg xmlns="http://www.w3.org/2000/svg" width="595.7" height="383"><defs><style>.cls-3,.cls-4{fill:none;stroke:#231f20;stroke-miterlimit:10;stroke-width:.57px}.cls-4{stroke-linecap:square}</style></defs><g id="Layer_2" data-name="Layer 2"><path d="M0 0h595.7v383H0z" style="fill:#cfc"/><g id="Layer_1-2" data-name="Layer 1-2"><path d="M28.63.35h537.94v14.18H28.63Zm.25 28.35h537.94v14.17H28.88Zm0 35.42h537.94v14.17H28.88Zm0 28.34h537.94v14.17H28.88Zm-.25 35.42h537.94v14.17H28.63Zm.25 28.34h537.94v14.18H28.88Zm0 35.42h537.94v14.18H28.88ZM28.63 220h537.94v14.18H28.63Zm0 35.4h537.94v14.18H28.63Zm0 28.34h537.94v14.18H28.63Zm.25 35.42h537.94v14.18H28.88Zm0 28.35h537.94v14.17H28.88Z" style="fill:#fff;fill-rule:evenodd"/><path d="M28.63 14.53h538.44M28.63 28.7h538.44" class="cls-3"/><path d="M28.63.35h538.43v42.51H28.63z" class="cls-4"/><path d="M28.63 78.29h538.44M28.63 92.46h538.44" class="cls-3"/><path d="M28.63 64.12h538.43v42.51H28.63z" class="cls-4"/><path d="M28.63 142.05h538.44M28.63 156.22h538.44" class="cls-3"/><path d="M28.63 127.88h538.43v42.51H28.63z" class="cls-4"/><path d="M28.63 205.82h538.44M28.63 219.98h538.44" class="cls-3"/><path d="M28.63 191.64h538.43v42.51H28.63z" class="cls-4"/><path d="M28.63 269.57h538.44M28.63 283.74h538.44" class="cls-3"/><path d="M28.63 255.4h538.43v42.51H28.63z" class="cls-4"/><path d="M28.63 333.33h538.44M28.63 347.51h538.44" class="cls-3"/><path d="M28.63 319.16h538.43v42.51H28.63z" class="cls-4"/><path d="M28.63 361.67h538.43v21.25H28.63z" style="fill:none"/></g></g></svg>