<svg width="596" height="383" viewBox="0 0 596 383" fill="none" xmlns="http://www.w3.org/2000/svg">
<g clip-path="url(#clip0_1_2)">
<path d="M596 0H0V383H596V0Z" fill="#ABCEA0"/>
<path d="M32.3283 14.4603H60.6706L52.1729 0.289978H38.0068L29.499 14.4603H32.3283Z" fill="white"/>
<path fill-rule="evenodd" clip-rule="evenodd" d="M36.5879 28.6206L47.9238 28.6208V22.9546V17.2885H53.5824V28.6208L57.8418 28.6206H567.94L567.939 14.4603H60.6706H32.3283V42.7808H47.9249V39.9528H45.0857V37.1147H42.2564V34.2867H39.4172V31.4486H36.5879V28.6206ZM42.2564 17.2885H36.5879V22.9546H42.2564V17.2885Z" fill="white"/>
<path d="M47.9238 22.9546V28.6208H53.5824V17.2885H47.9238V22.9546Z" fill="white"/>
<path d="M36.5879 28.6206V31.4486H39.4172V34.2867H42.2564V37.1147H45.0857V39.9528H47.9249V42.7808L57.8418 42.781V28.6206L53.5824 28.6208H47.9238L36.5879 28.6206Z" fill="white"/>
<path d="M567.939 42.7808L567.94 28.6206H57.8418V42.781L567.939 42.7808Z" fill="white"/>
<path d="M60.6706 14.4603H567.939V0.289978H52.1729L60.6706 14.4603Z" fill="white"/>
<path d="M60.6706 78.1966L567.939 78.1965V64.0262H38.0068L29.499 78.1965H32.3283L60.6706 78.1966Z" fill="white"/>
<path d="M36.5879 17.2885H42.2564V22.9546H36.5879V17.2885Z" fill="white"/>
<path d="M36.5879 81.0244H42.2564V86.6905H36.5879V81.0244Z" fill="white"/>
<path fill-rule="evenodd" clip-rule="evenodd" d="M36.5879 92.3569H57.8418H567.94L567.939 78.1965L60.6706 78.1966L32.3283 78.1965V106.517H47.9249V103.689H45.0857V100.851H42.2564V98.023H39.4172V95.185H36.5879V92.3569ZM42.2564 81.0244H36.5879V86.6905H42.2564V81.0244Z" fill="white"/>
<path d="M36.5879 92.3569V95.185H39.4172V98.023H42.2564V100.851H45.0857V103.689H47.9249V106.517H57.8418V92.3569H36.5879Z" fill="white"/>
<path d="M567.939 106.517L567.94 92.3569H57.8418V106.517H567.939Z" fill="white"/>
<path d="M57.8418 156.093H567.94L567.939 141.933H60.6706H59.3741H57.8418V156.093Z" fill="white"/>
<path fill-rule="evenodd" clip-rule="evenodd" d="M36.5879 158.921V156.093H57.8418V141.933H32.3283V170.253L47.9249 170.254V167.425H45.0857V164.587H42.2564V161.759H39.4172V158.921H36.5879ZM42.2564 144.761H36.5879V150.427H42.2564V144.761Z" fill="white"/>
<path d="M36.5879 144.761H42.2564V150.427H36.5879V144.761Z" fill="white"/>
<path d="M38.0068 127.762L29.499 141.933H32.3283H57.8418H59.3741H60.6706H567.939V127.762H38.0068Z" fill="white"/>
<path d="M36.5879 156.093V158.921H39.4172V161.759H42.2564V164.587H45.0857V167.425H47.9249V170.254L567.939 170.253L567.94 156.093H57.8418H36.5879Z" fill="white"/>
<path d="M32.3283 205.659H60.6646L52.1729 191.499H38.0068L29.499 205.659H32.3283Z" fill="white"/>
<path d="M567.939 191.499H52.1729L60.6646 205.659H567.939V191.499Z" fill="white"/>
<path fill-rule="evenodd" clip-rule="evenodd" d="M53.5824 219.829H47.9238V214.163V208.497H53.5824V219.829H57.8418H567.94L567.939 205.659H60.6646H32.3283V233.99H567.939L567.94 219.829H57.8418H53.5824ZM42.2564 208.497H36.5879V214.163H42.2564V208.497Z" fill="white"/>
<path d="M47.9238 214.163V219.829H53.5824V208.497H47.9238V214.163Z" fill="white"/>
<path d="M36.5879 208.497H42.2564V214.163H36.5879V208.497Z" fill="white"/>
<path d="M32.3283 269.395H567.939V255.235H52.1729H38.0068L29.499 269.395H32.3283Z" fill="white"/>
<path d="M36.5879 272.233H42.2564V277.899H36.5879V272.233Z" fill="white"/>
<path fill-rule="evenodd" clip-rule="evenodd" d="M53.5824 283.566H47.9238V277.899V272.233H53.5824V283.566L57.8418 283.565H567.94L567.939 269.395H32.3283V297.726H57.8418V283.565L53.5824 283.566ZM42.2564 272.233H36.5879V277.899H42.2564V272.233Z" fill="white"/>
<path d="M47.9238 277.899V283.566H53.5824V272.233H47.9238V277.899Z" fill="white"/>
<path d="M567.939 297.726L567.94 283.565H57.8418V297.726H567.939Z" fill="white"/>
<path fill-rule="evenodd" clip-rule="evenodd" d="M32.3283 361.462H567.939L567.94 347.302H57.8418H53.5824H47.9238V341.636V335.97H53.5824V347.302H57.8418V333.131H32.3283V361.462ZM42.2564 335.97H36.5879V341.636H42.2564V335.97Z" fill="white"/>
<path d="M567.939 333.131H57.8418V347.302H567.94L567.939 333.131Z" fill="white"/>
<path d="M47.9238 341.636V347.302H53.5824V335.97H47.9238V341.636Z" fill="white"/>
<path d="M36.5879 335.97H42.2564V341.636H36.5879V335.97Z" fill="white"/>
<path d="M57.8418 333.131H60.6706L52.1729 318.971H38.0068L29.499 333.131H32.3283H57.8418Z" fill="white"/>
<path d="M60.6706 333.131H567.939V318.971H52.1729L60.6706 333.131Z" fill="white"/>
<path d="M32.3389 28.6206H57.8418M57.8418 28.6206H567.94M57.8418 28.6206V14.4604M57.8418 28.6206V42.781M57.8418 28.6206L53.5824 28.6208M567.94 28.6206L567.939 14.4603M567.94 28.6206L567.939 42.7808M567.939 14.4603H29.499M567.939 14.4603H60.6706M567.939 14.4603V0.289978M567.939 42.7808L57.8418 42.781M567.939 42.7808V0.289978M567.939 42.7808H32.3283M57.8418 42.781L47.9249 42.7808M47.9249 42.7808V39.9528H45.0857V37.1147H42.2564V34.2867H39.4172V31.4486H36.5879V28.6206L47.9238 28.6208M47.9249 42.7808H32.3283M47.9238 28.6208V17.2885M47.9238 28.6208V22.9546M47.9238 28.6208H53.5824M47.9238 17.2885H53.5824V28.6208M47.9238 17.2885V22.9546M47.9238 22.9546H49.3344M32.3283 42.7808V14.4603M29.499 14.4603L38.0068 0.289978M29.499 14.4603H32.3283M60.6706 14.4603H32.3283M60.6706 14.4603L52.1729 0.289978M567.939 0.289978H38.0068M567.939 0.289978H52.1729M38.0068 0.289978H52.1729M567.939 361.462V318.971M567.939 361.462H32.3283V333.131M567.939 361.462L567.94 347.302M567.939 318.971V333.131M567.939 318.971H38.0068M567.939 318.971H52.1729M32.3283 333.131H57.8418M32.3283 333.131H29.499M567.94 347.302H57.8418M567.94 347.302L567.939 333.131M32.3389 92.3569H57.8418M57.8418 92.3569H567.94M57.8418 92.3569V78.1967M57.8418 92.3569V106.517M57.8418 92.3569H36.5879V95.185H39.4172V98.023H42.2564V100.851H45.0857V103.689H47.9249V106.517M567.94 92.3569L567.939 78.1965M567.94 92.3569L567.939 106.517M567.939 78.1965H29.499M567.939 78.1965L60.6706 78.1966M567.939 78.1965V64.0262M567.939 106.517H57.8418M567.939 106.517V64.0262M567.939 106.517H32.3283M57.8418 106.517H47.9249M47.9249 106.517H32.3283M47.9238 92.3566V81.0244H53.5824V92.3566M47.9238 86.6909H49.3344M32.3283 106.517V78.1965M29.499 78.1965L38.0068 64.0262H567.939M29.499 78.1965H32.3283M60.6706 78.1966L32.3283 78.1965M60.6706 78.1966L52.1729 64.0263M32.3389 156.093H57.8418M57.8418 156.093H567.94M57.8418 156.093V141.933M57.8418 156.093V170.253M57.8418 156.093H36.5879V158.921H39.4172V161.759H42.2564V164.587H45.0857V167.425H47.9249V170.254M567.94 156.093L567.939 141.933M567.94 156.093L567.939 170.253M567.939 141.933H60.6706M567.939 141.933V127.762M567.939 141.933H59.3741M567.939 170.253L47.9249 170.254M567.939 170.253V127.762M567.939 170.253H32.3283M57.8418 141.933H32.3283M57.8418 141.933H59.3741M32.3283 141.933H29.499M32.3283 141.933V170.253M59.3741 141.933H29.499M59.3741 141.933H60.6706M47.9238 156.093V144.761H53.5824V156.093M47.9238 150.427H49.3344M47.9249 170.254L32.3283 170.253M60.6706 141.933L52.1729 127.763M567.939 127.762H38.0068L29.499 141.933M32.3389 219.829H57.8418M57.8418 219.829H567.94M57.8418 219.829V205.669M57.8418 219.829V233.989M57.8418 219.829H53.5824M567.94 219.829L567.939 205.659M567.94 219.829L567.939 233.99M567.939 205.659H60.6646M567.939 205.659V191.499M567.939 233.99V191.499M567.939 233.99H32.3283V205.659M47.9238 219.829V208.497M47.9238 219.829H53.5824M47.9238 219.829V214.163M47.9238 208.497H53.5824V219.829M47.9238 208.497V214.163M47.9238 214.163H49.3344M36.5879 219.829V222.657H39.4172V225.495H42.2564V228.323H45.0857V231.161H47.9249V233.989M60.6646 205.659H29.499M60.6646 205.659H32.3283M60.6646 205.659L60.6706 205.669M60.6646 205.659L52.1729 191.499M567.939 191.499H38.0068M567.939 191.499H52.1729M29.499 205.659L38.0068 191.499M29.499 205.659H32.3283M38.0068 191.499H52.1729M32.3389 283.565H57.8418M57.8418 283.565H567.94M57.8418 283.565V269.395M57.8418 283.565V297.726M57.8418 283.565L53.5824 283.566M567.94 283.565L567.939 269.395M567.94 283.565L567.939 297.726M567.939 269.395H29.499M567.939 269.395H32.3283M567.939 269.395V255.235M567.939 297.726H57.8418M567.939 297.726V255.235M567.939 297.726H32.3283M57.8418 297.726H32.3283M32.3283 297.726V269.395M47.9238 283.566V272.233M47.9238 283.566H53.5824M47.9238 283.566V277.899M47.9238 272.233H53.5824V283.566M47.9238 272.233V277.899M47.9238 277.899H49.3344M36.5879 283.565V286.393H39.4172V289.232H42.2564V292.06H45.0857V294.898H47.9249V297.726M29.499 269.395L38.0068 255.235M29.499 269.395H32.3283M567.939 255.235H38.0068M567.939 255.235H52.1729M38.0068 255.235H52.1729M52.1729 255.235L60.6706 269.395M32.3389 347.302H57.8418M57.8418 347.302V333.131M57.8418 347.302V361.462M57.8418 347.302H53.5824M567.939 333.131H57.8418M567.939 333.131H29.499M567.939 333.131H60.6706M57.8418 333.131H60.6706M60.6706 333.131L52.1729 318.971M47.9238 347.302V335.97M47.9238 347.302H53.5824M47.9238 347.302V341.636M47.9238 335.97H53.5824V347.302M47.9238 335.97V341.636M47.9238 341.636H49.3344M36.5879 347.302V350.13H39.4172V352.968H42.2564V355.796H45.0857V358.634H47.9249V361.462M29.499 333.131L38.0068 318.971M38.0068 318.971H52.1729M36.5879 17.2885H42.2564V22.9546H36.5879V17.2885ZM36.5879 81.0244H42.2564V86.6905H36.5879V81.0244ZM36.5879 144.761H42.2564V150.427H36.5879V144.761ZM36.5879 208.497H42.2564V214.163H36.5879V208.497ZM36.5879 272.233H42.2564V277.899H36.5879V272.233ZM36.5879 335.97H42.2564V341.636H36.5879V335.97Z" stroke="#231F20" stroke-width="0.569609" stroke-miterlimit="10"/>
</g>
<defs>
<clipPath id="clip0_1_2">
<rect width="596" height="383" fill="white"/>
</clipPath>
</defs>
</svg>
