<svg xmlns="http://www.w3.org/2000/svg" viewBox="0 0 539.15 382.96" width="539" height="383"><defs><style>.cls-1,.cls-2{fill:none;}.cls-1{stroke:#231f20;stroke-miterlimit:10;stroke-width:0.57px;}</style></defs><title>MusicSheet19</title><g id="Layer_2" data-name="Layer 2"><g id="Layer_1-2" data-name="Layer 1"><rect class="cls-1" x="0.28" y="0.28" width="538.58" height="25.51"/><line class="cls-1" x1="0.28" y1="6.66" x2="538.87" y2="6.66"/><line class="cls-1" x1="0.28" y1="13.04" x2="538.87" y2="13.04"/><line class="cls-1" x1="0.28" y1="19.42" x2="538.87" y2="19.42"/><rect class="cls-1" x="0.28" y="64.06" width="538.58" height="25.51"/><line class="cls-1" x1="0.28" y1="70.44" x2="538.87" y2="70.44"/><line class="cls-1" x1="0.28" y1="76.82" x2="538.87" y2="76.82"/><line class="cls-1" x1="0.28" y1="83.2" x2="538.87" y2="83.2"/><rect class="cls-1" x="0.28" y="127.84" width="538.58" height="25.51"/><line class="cls-1" x1="0.28" y1="134.22" x2="538.87" y2="134.22"/><line class="cls-1" x1="0.28" y1="140.6" x2="538.87" y2="140.6"/><line class="cls-1" x1="0.28" y1="146.98" x2="538.87" y2="146.98"/><rect class="cls-1" x="0.28" y="191.62" width="538.58" height="25.51"/><line class="cls-1" x1="0.28" y1="198" x2="538.87" y2="198"/><line class="cls-1" x1="0.28" y1="204.38" x2="538.87" y2="204.38"/><line class="cls-1" x1="0.28" y1="210.76" x2="538.87" y2="210.76"/><rect class="cls-1" x="0.28" y="255.4" width="538.58" height="25.51"/><line class="cls-1" x1="0.28" y1="261.78" x2="538.87" y2="261.78"/><line class="cls-1" x1="0.28" y1="268.16" x2="538.87" y2="268.16"/><line class="cls-1" x1="0.28" y1="274.54" x2="538.87" y2="274.54"/><rect class="cls-1" x="0.28" y="319.18" width="538.58" height="25.51"/><line class="cls-1" x1="0.28" y1="325.56" x2="538.87" y2="325.56"/><line class="cls-1" x1="0.28" y1="331.94" x2="538.87" y2="331.94"/><line class="cls-1" x1="0.28" y1="338.31" x2="538.87" y2="338.31"/><rect class="cls-2" x="0.28" y="344.69" width="538.58" height="38.27"/></g></g></svg>