<?xml version="1.0" encoding="UTF-8" standalone="no"?>
<!-- Created with Inkscape (http://www.inkscape.org/) -->

<svg
   xmlns:dc="http://purl.org/dc/elements/1.1/"
   xmlns:cc="http://creativecommons.org/ns#"
   xmlns:rdf="http://www.w3.org/1999/02/22-rdf-syntax-ns#"
   xmlns:svg="http://www.w3.org/2000/svg"
   xmlns="http://www.w3.org/2000/svg"
   xmlns:sodipodi="http://sodipodi.sourceforge.net/DTD/sodipodi-0.dtd"
   xmlns:inkscape="http://www.inkscape.org/namespaces/inkscape"
   id="svg2"
   version="1.1"
   inkscape:version="0.48.2 r9819"
   width="24"
   height="24"
   sodipodi:docname="options-objects24.png">
  <metadata
     id="metadata8">
    <rdf:RDF>
      <cc:Work
         rdf:about="">
        <dc:format>image/svg+xml</dc:format>
        <dc:type
           rdf:resource="http://purl.org/dc/dcmitype/StillImage" />
        <dc:title></dc:title>
      </cc:Work>
    </rdf:RDF>
  </metadata>
  <defs
     id="defs6" />
  <sodipodi:namedview
     pagecolor="#ffffff"
     bordercolor="#666666"
     borderopacity="1"
     objecttolerance="10"
     gridtolerance="10"
     guidetolerance="10"
     inkscape:pageopacity="0"
     inkscape:pageshadow="2"
     inkscape:window-width="1680"
     inkscape:window-height="988"
     id="namedview4"
     showgrid="false"
     inkscape:zoom="13.906433"
     inkscape:cx="12.033066"
     inkscape:cy="18.718578"
     inkscape:window-x="1358"
     inkscape:window-y="-8"
     inkscape:window-maximized="1"
     inkscape:current-layer="svg2" />
  <g
     id="g3802"
     transform="translate(0,-0.28763666)">
    <rect
       y="5.4285927"
       x="5.4102988"
       height="14.131882"
       width="13.161109"
       id="rect2987"
       style="fill:#99c2d6;fill-opacity:1;fill-rule:nonzero;stroke:#006699;stroke-width:0.87017787;stroke-linecap:round;stroke-linejoin:miter;stroke-miterlimit:4;stroke-opacity:1;stroke-dasharray:none" />
    <path
       transform="matrix(0.84438776,0,0,0.866587,0.83343416,0.44411233)"
       d="m 7.8813562,5.7966104 c 0,1.2917846 -1.0699636,2.338983 -2.3898305,2.338983 -1.319867,0 -2.3898306,-1.0471984 -2.3898306,-2.338983 0,-1.2917847 1.0699636,-2.3389831 2.3898306,-2.3389831 1.3198669,0 2.3898305,1.0471984 2.3898305,2.3389831 z"
       sodipodi:ry="2.3389831"
       sodipodi:rx="2.3898306"
       sodipodi:cy="5.7966104"
       sodipodi:cx="5.4915257"
       id="path3757"
       style="fill:#99ff99;fill-opacity:1;fill-rule:nonzero;stroke:#000000;stroke-width:1.11998117;stroke-linecap:round;stroke-linejoin:miter;stroke-miterlimit:4;stroke-opacity:1;stroke-dasharray:none"
       sodipodi:type="arc" />
    <path
       transform="matrix(0.84438776,0,0,0.866587,13.843678,0.47810026)"
       d="m 7.8813562,5.7966104 c 0,1.2917846 -1.0699636,2.338983 -2.3898305,2.338983 -1.319867,0 -2.3898306,-1.0471984 -2.3898306,-2.338983 0,-1.2917847 1.0699636,-2.3389831 2.3898306,-2.3389831 1.3198669,0 2.3898305,1.0471984 2.3898305,2.3389831 z"
       sodipodi:ry="2.3389831"
       sodipodi:rx="2.3898306"
       sodipodi:cy="5.7966104"
       sodipodi:cx="5.4915257"
       id="path3757-1"
       style="fill:#5c95f5;fill-opacity:1;fill-rule:nonzero;stroke:#000000;stroke-width:1.11998117;stroke-linecap:round;stroke-linejoin:miter;stroke-miterlimit:4;stroke-opacity:1;stroke-dasharray:none"
       sodipodi:type="arc" />
    <path
       transform="matrix(0.84438776,0,0,0.866587,13.843678,14.500387)"
       d="m 7.8813562,5.7966104 c 0,1.2917846 -1.0699636,2.338983 -2.3898305,2.338983 -1.319867,0 -2.3898306,-1.0471984 -2.3898306,-2.338983 0,-1.2917847 1.0699636,-2.3389831 2.3898306,-2.3389831 1.3198669,0 2.3898305,1.0471984 2.3898305,2.3389831 z"
       sodipodi:ry="2.3389831"
       sodipodi:rx="2.3898306"
       sodipodi:cy="5.7966104"
       sodipodi:cx="5.4915257"
       id="path3757-1-7"
       style="fill:#ff9999;fill-opacity:1;fill-rule:nonzero;stroke:#000000;stroke-width:1.11998117;stroke-linecap:round;stroke-linejoin:miter;stroke-miterlimit:4;stroke-opacity:1;stroke-dasharray:none"
       sodipodi:type="arc" />
    <path
       transform="matrix(0.84438776,0,0,0.866587,0.8523553,14.460215)"
       d="m 7.8813562,5.7966104 c 0,1.2917846 -1.0699636,2.338983 -2.3898305,2.338983 -1.319867,0 -2.3898306,-1.0471984 -2.3898306,-2.338983 0,-1.2917847 1.0699636,-2.3389831 2.3898306,-2.3389831 1.3198669,0 2.3898305,1.0471984 2.3898305,2.3389831 z"
       sodipodi:ry="2.3389831"
       sodipodi:rx="2.3898306"
       sodipodi:cy="5.7966104"
       sodipodi:cx="5.4915257"
       id="path3757-1-4"
       style="fill:#ffd700;fill-opacity:1;fill-rule:nonzero;stroke:#000000;stroke-width:1.11998117;stroke-linecap:round;stroke-linejoin:miter;stroke-miterlimit:4;stroke-opacity:1;stroke-dasharray:none"
       sodipodi:type="arc" />
  </g>
</svg>
