<svg xmlns="http://www.w3.org/2000/svg" width="512" height="512"><path d="M385.21 79.16a35.18 35.18 0 0 1-12 15.87 29.55 29.55 0 0 1-18.21 6.39q-7.29 0-14.57-8t-15-8q-7.72 0-13.18 11.13l-24 60.6q-71.53 174.78-80.32 192.5-24.19 51.94-50.76 78.73T95 455.1q-30.89 0-22.85-21.44a37.11 37.11 0 0 1 12.56-16.9 28.5 28.5 0 0 1 18.83-6.18q5.16 0 14.79 8t14.37 8q7.29 0 12.75-11.13L172.63 352q75.57-181 83.63-197.86 9.09-18.54 16.25-31.33a243.87 243.87 0 0 1 17.1-26.17 110.54 110.54 0 0 1 20.27-21.44 90.73 90.73 0 0 1 24-13.19 83.67 83.67 0 0 1 29.6-5.15q14.16 0 19.86 6t1.83 16.28Z"/><path d="M324.54 182a12 12 0 0 1-12 12h-112a12 12 0 0 1-12-12 12 12 0 0 1 12-12h112a12 12 0 0 1 12 12Zm97.51 226.54c-5.55 3.61-11.46 3.79-16.88-4.55L308.49 256.1c-5.42-8.33-3.32-15 2.24-18.63 5.55-3.62 12.45-2.79 17.88 5.55l96.68 147.88c5.42 8.34 2.32 14-3.24 17.64Z"/><path d="M282.94 406.45c-4.79-4.58-6.1-10.51 1.46-18.42l134-140.87c7.56-7.91 14.86-7.72 19.65-3.14 4.79 4.57 5.26 11.8-2.3 19.72l-134 140.86c-7.56 7.92-14 6.42-18.82 1.85Z"/></svg>