<svg xmlns="http://www.w3.org/2000/svg" id="stylebar_angle_interval" width="512" height="512"><defs><style>.cls-1{fill:none;stroke:#58585a;stroke-width:20px}</style></defs><path d="M207.28 199.08q-7.62-6.48-15.85-12.19" class="cls-1"/><path d="M174.25 176.21a201.61 201.61 0 0 0-98-25.27c-111.82 0-202.47 90.64-202.47 202.46S-35.6 555.86 76.22 555.86a202.45 202.45 0 0 0 180.44-110.55" style="stroke-dasharray:40.47 20.23;stroke:#58585a;stroke-width:20px;fill:none"/><path d="M261 436.19a199.5 199.5 0 0 0 7.27-18.62" class="cls-1"/><path d="M70.88 355.74 271 411.58s44.13-110.53-60.36-205.49Z" style="fill:#b3b3b3"/><path d="M70.88 355.74 271 411.58s44.13-110.53-60.36-205.49Z" style="stroke-miterlimit:10;stroke:#58585a;stroke-width:20px;fill:none"/><path d="M441.12 459.06 70.88 355.74l282.7-302.8" style="stroke:#1a171b;stroke-width:30px;fill:none"/></svg>