<?xml version="1.0" encoding="iso-8859-1"?>
<!-- Generator: Adobe Illustrator 15.1.0, SVG Export Plug-In . SVG Version: 6.00 Build 0)  -->
<!DOCTYPE svg PUBLIC "-//W3C//DTD SVG 1.1//EN" "http://www.w3.org/Graphics/SVG/1.1/DTD/svg11.dtd">
<svg version="1.1" xmlns="http://www.w3.org/2000/svg" xmlns:xlink="http://www.w3.org/1999/xlink" x="0px" y="0px" width="712px"
	 height="512px" viewBox="0 0 712 512" style="enable-background:new 0 0 712 512;" xml:space="preserve">
<g id="stylingbar_x5F_icon_x5F_graphics1">
	<g>
		<rect y="41.96" style="fill:#999999;" width="454.811" height="60"/>
		<rect y="226" style="fill:#999999;" width="454.811" height="60"/>
		<rect y="412.039" style="fill:#999999;" width="454.811" height="60.001"/>
	</g>
	<g>
		<path style="fill:#666666;" d="M667.077,180.42h-23.193V30.029c-9.277,6.512-22.301,13.428-39.063,20.752V30.029
			c7.16-4.395,13.875-9.193,20.143-14.404c6.264-5.207,10.699-9.155,13.305-11.841c2.602-2.686,3.906-3.944,3.906-3.784h24.902
			V180.42z"/>
	</g>
	<polyline style="fill:#FFFFFF;" points="239.471,396.475 740.527,398.274 462.028,-30.093 	"/>
	<circle style="fill:#FFFFFF;" cx="332.728" cy="339.977" r="187.599"/>
	<g>
		<g>
			<circle style="opacity:0.4;fill:#009900;" cx="333.939" cy="341.188" r="170.81"/>
			<g>
				<path style="fill:#009900;" d="M333.941,170.378c-94.339,0-170.813,76.473-170.813,170.811
					c0,94.336,76.474,170.811,170.813,170.811c94.335,0,170.808-76.475,170.808-170.811
					C504.749,246.851,428.276,170.378,333.941,170.378z M333.939,494.919c-84.902,0-153.729-68.828-153.729-153.73
					S249.037,187.46,333.939,187.46s153.729,68.826,153.729,153.729S418.842,494.919,333.939,494.919z"/>
			</g>
		</g>
		<g>
			<polyline style="opacity:0.4;fill:#0000FF;" points="265.039,380.513 712,382.118 463.569,-0.001 			"/>
			<g>
				<path style="fill:#0000FF;" d="M463.569,1.604l-198.53,380.514H712L463.569,1.604z M465.325,35.519l214.124,329.35
					l-385.237-0.244L465.325,35.519z"/>
			</g>
		</g>
	</g>
</g>
<g id="Ebene_1">
</g>
</svg>
