<?xml version="1.0" encoding="iso-8859-1"?>
<!-- Generator: Adobe Illustrator 19.2.1, SVG Export Plug-In . SVG Version: 6.00 Build 0)  -->
<svg version="1.1" xmlns="http://www.w3.org/2000/svg" xmlns:xlink="http://www.w3.org/1999/xlink" x="0px" y="0px"
	 viewBox="0 0 712 512" style="enable-background:new 0 0 712 512;" xml:space="preserve">
<g id="_x2D_BG" style="display:none;">
	<rect x="-13.038" style="display:inline;fill:#FFFFFF;" width="512" height="512"/>
	<rect x="11.962" y="25" style="display:inline;fill:#CCCCCC;" width="462" height="25"/>
	<path style="display:inline;fill:#666666;" d="M-13.038,0v512h512V0H-13.038z M473.13,487H12.794V25H473.13V487z"/>
</g>
<g id="stylebar_x5F_icon_x5F_graphics3D" style="display:none;">
	<g style="display:inline;">
		<rect y="40.96" style="fill:#999999;" width="454.81" height="60"/>
		<rect y="224.999" style="fill:#999999;" width="454.81" height="60"/>
		<rect y="411.039" style="fill:#999999;" width="454.81" height="60.001"/>
	</g>
	<g style="display:inline;">
		<g>
			<polygon style="fill:#FFFFFF;" points="350.209,493 172.826,399.247 414.925,1 			"/>
			<polygon style="fill:#FFFFFF;" points="721.25,421.266 350.209,493 414.925,-19 			"/>
		</g>
	</g>
	<g style="display:inline;">
		<g>
			<polygon style="fill:#333333;" points="375.364,460.957 227.576,382.846 429.283,51.043 			"/>
			<polygon style="fill:#666666;" points="684.5,401.191 375.364,460.957 429.283,51.043 			"/>
			<polygon style="fill:#6161FF;" points="356.525,423.929 260.705,374.232 390.301,160.83 			"/>
			<polygon style="fill:#9999FF;" points="643.01,385.6 402.648,432.049 444.224,111.783 			"/>
		</g>
	</g>
</g>
<g id="stylebar_x5F_icon_x5F_graphics_x5F_extra">
	<g>
		<rect y="40.96" style="fill:#999999;" width="454.81" height="60"/>
		<rect y="224.999" style="fill:#999999;" width="454.81" height="60"/>
		<rect y="411.039" style="fill:#999999;" width="454.81" height="60.001"/>
	</g>
	<g id="Ebene_14_copy_4">
	</g>
	<g>
		<g>
			<circle style="fill:#FFFFFF;" cx="375.038" cy="336" r="189.371"/>
			<g>
				<polygon style="fill:#FFFFFF;" points="494.371,-38.855 734.07,376.315 254.673,376.315 				"/>
			</g>
		</g>
		<g>
			<circle style="fill:#9999FF;" cx="375.038" cy="336" r="123"/>
			<g>
				<polygon style="fill:#666666;" points="502.371,27 685.038,343.388 319.705,343.388 				"/>
				<polygon style="fill:#9999FF;" points="502.371,84.101 635.587,314.838 369.155,314.838 				"/>
			</g>
			<path style="fill:#6161FF;" d="M348.982,327l73.39-124.494c57.429,26.985,88.947,67.213,87.102,124.494H348.982z"/>
			<path style="fill:#666666;" d="M375.038,486c-82.843,0-150-67.157-150-150s67.157-150,150-150s150,67.157,150,150
				S457.881,486,375.038,486z M498.038,336c0-67.931-55.069-123-123-123s-123,55.069-123,123s55.069,123,123,123
				S498.038,403.931,498.038,336z"/>
			<path style="fill:#333333;" d="M524.859,343.388H319.705l88.715-153.66c9.598,2.181,18.846,5.283,27.647,9.208
				c46.264,20.63,80.16,63.997,87.49,115.901c0.976,6.914,1.481,13.98,1.481,21.164C525.038,338.477,524.978,340.94,524.859,343.388
				z M422.478,222.481l-53.322,92.357h127.069l0-0.001c-7.253-41.824-35.63-76.405-73.741-92.353"/>
		</g>
	</g>
	<g>
		<path style="fill:#666666;" d="M697.464,108.344h-59.323v59.322H619.87v-59.322h-59.323V90.072h59.323V30.75h18.271v59.322h59.323
			V108.344z"/>
	</g>
</g>
<g id="stylebar_x5F_icon_x5F_graphics3" style="display:none;">
	<g style="display:inline;">
		<rect y="40.96" style="fill:#999999;" width="454.81" height="60"/>
		<rect y="224.999" style="fill:#999999;" width="454.81" height="60"/>
		<rect y="411.039" style="fill:#999999;" width="454.81" height="60.001"/>
	</g>
	<g id="Ebene_14_copy_3" style="display:inline;">
	</g>
	<g style="display:inline;">
		<g>
			<circle style="fill:#FFFFFF;" cx="375.038" cy="336" r="189.371"/>
			<g>
				<polygon style="fill:#FFFFFF;" points="494.371,-38.855 734.07,376.315 254.673,376.315 				"/>
			</g>
		</g>
		<g>
			<circle style="fill:#9999FF;" cx="375.038" cy="336" r="123"/>
			<g>
				<polygon style="fill:#666666;" points="502.371,27 685.038,343.388 319.705,343.388 				"/>
				<polygon style="fill:#9999FF;" points="502.371,84.101 635.587,314.838 369.155,314.838 				"/>
			</g>
			<path style="fill:#6161FF;" d="M348.982,327l73.39-124.494c57.429,26.985,88.947,67.213,87.102,124.494H348.982z"/>
			<path style="fill:#666666;" d="M375.038,486c-82.843,0-150-67.157-150-150s67.157-150,150-150s150,67.157,150,150
				S457.881,486,375.038,486z M498.038,336c0-67.931-55.069-123-123-123s-123,55.069-123,123s55.069,123,123,123
				S498.038,403.931,498.038,336z"/>
			<path style="fill:#333333;" d="M524.859,343.388H319.705l88.715-153.66c9.598,2.181,18.846,5.283,27.647,9.208
				c46.264,20.63,80.16,63.997,87.49,115.901c0.976,6.914,1.481,13.98,1.481,21.164C525.038,338.477,524.978,340.94,524.859,343.388
				z M422.478,222.481l-53.322,92.357h127.069l0-0.001c-7.253-41.824-35.63-76.405-73.741-92.353"/>
		</g>
	</g>
	<g style="display:inline;">
		<g>
			<path style="fill:#666666;" d="M686.258,133.344c0,11.85-4.462,21.713-13.38,29.59c-8.92,7.88-20.214,11.816-33.886,11.816
				c-15.106,0-26.563-4.034-34.375-12.109c-7.813-8.072-11.719-17.642-11.719-28.711h21.289
				c1.563,16.928,10.025,25.391,25.391,25.391c6.769,0,12.92-2.441,18.456-7.324c5.533-4.883,8.302-10.513,8.302-16.895
				c0-20.572-13.477-30.664-40.43-30.273V88.813c12.5,0,21.972-2.148,28.417-6.445c6.445-4.297,9.669-11.261,9.669-20.899
				c0-7.55-2.638-12.988-7.911-16.309c-5.273-3.32-10.97-4.98-17.089-4.98c-12.372,0-19.989,8.334-22.852,25h-20.312
				c1.691-13.019,6.183-23.013,13.477-29.981c7.291-6.964,17.056-10.449,29.297-10.449c13.409,0,24.316,3.613,32.714,10.84
				c8.398,7.226,12.598,16.308,12.598,27.246c0,4.559-0.947,8.789-2.833,12.695c-1.889,3.906-4.199,7.001-6.933,9.277
				c-2.734,2.28-5.6,4.492-8.594,6.641c-2.997,2.148-5.536,3.745-7.617,4.785c0.909,0.522,2.862,1.563,5.859,3.125
				c2.994,1.562,5.533,3.095,7.617,4.59c2.081,1.498,4.394,3.549,6.933,6.152c2.539,2.606,4.492,5.859,5.859,9.766
				C685.574,123.773,686.258,128.266,686.258,133.344z"/>
		</g>
	</g>
</g>
<g id="stylebar_x5F_icon_x5F_graphics2" style="display:none;">
	<g style="display:inline;">
		<rect y="40.96" style="fill:#999999;" width="454.81" height="60"/>
		<rect y="224.999" style="fill:#999999;" width="454.81" height="60"/>
		<rect y="411.039" style="fill:#999999;" width="454.81" height="60.001"/>
	</g>
	<g id="Ebene_14_copy" style="display:inline;">
	</g>
	<g style="display:inline;">
		<g>
			<circle style="fill:#FFFFFF;" cx="375.038" cy="336" r="189.371"/>
			<g>
				<polygon style="fill:#FFFFFF;" points="494.371,-38.855 734.07,376.315 254.673,376.315 				"/>
			</g>
		</g>
		<g>
			<circle style="fill:#9999FF;" cx="375.038" cy="336" r="123"/>
			<g>
				<polygon style="fill:#666666;" points="502.371,27 685.038,343.388 319.705,343.388 				"/>
				<polygon style="fill:#9999FF;" points="502.371,84.101 635.587,314.838 369.155,314.838 				"/>
			</g>
			<path style="fill:#6161FF;" d="M348.982,327l73.39-124.494c57.429,26.985,88.947,67.213,87.102,124.494H348.982z"/>
			<path style="fill:#666666;" d="M375.038,486c-82.843,0-150-67.157-150-150s67.157-150,150-150s150,67.157,150,150
				S457.881,486,375.038,486z M498.038,336c0-67.931-55.069-123-123-123s-123,55.069-123,123s55.069,123,123,123
				S498.038,403.931,498.038,336z"/>
			<path style="fill:#333333;" d="M524.859,343.388H319.705l88.715-153.66c9.598,2.181,18.846,5.283,27.647,9.208
				c46.264,20.63,80.16,63.997,87.49,115.901c0.976,6.914,1.481,13.98,1.481,21.164C525.038,338.477,524.978,340.94,524.859,343.388
				z M422.478,222.481l-53.322,92.357h127.069l0-0.001c-7.253-41.824-35.63-76.405-73.741-92.353"/>
		</g>
	</g>
	<g style="display:inline;">
		<g>
			<path style="fill:#666666;" d="M686.958,174.465h-88.727v-18.899c17.239-19.229,30.934-34.516,41.08-45.856
				c10.146-11.34,17.239-20.093,21.286-26.26c4.044-6.167,6.068-11.57,6.068-16.214c0-8.884-1.725-15.418-5.172-19.595
				c-3.45-4.178-9.22-6.267-17.308-6.267c-7.162,0-12.533,2.058-16.114,6.167c-3.581,4.112-5.903,10.678-6.963,19.695h-20.69
				c2.12-28.514,16.711-42.772,43.767-42.772c13.394,0,23.873,4.078,31.432,12.235c7.56,8.157,11.339,17.407,11.339,27.752
				c0,3.183-0.267,6.102-0.796,8.753c-0.532,2.655-1.393,5.471-2.586,8.455c-1.194,2.984-2.82,6.068-4.875,9.251
				c-2.058,3.183-4.644,6.798-7.759,10.842c-3.118,4.047-6.797,8.455-11.04,13.229c-4.246,4.775-9.186,10.345-14.822,16.711
				c-5.639,6.366-12.035,13.397-19.197,21.087c-2.257,2.521-3.979,4.445-5.172,5.769h66.247V174.465z"/>
		</g>
	</g>
</g>
<g id="stylebar_x5F_icon_x5F_graphics1" style="display:none;">
	<g style="display:inline;">
		<rect y="40.96" style="fill:#999999;" width="454.81" height="60"/>
		<rect y="224.999" style="fill:#999999;" width="454.81" height="60"/>
		<rect y="411.039" style="fill:#999999;" width="454.81" height="60.001"/>
	</g>
	<g id="Ebene_14_copy_2" style="display:inline;">
	</g>
	<g style="display:inline;">
		<g>
			<circle style="fill:#FFFFFF;" cx="375.038" cy="336" r="189.371"/>
			<g>
				<polygon style="fill:#FFFFFF;" points="494.371,-38.855 734.07,376.315 254.673,376.315 				"/>
			</g>
		</g>
		<g>
			<circle style="fill:#9999FF;" cx="375.038" cy="336" r="123"/>
			<g>
				<polygon style="fill:#666666;" points="502.371,27 685.038,343.388 319.705,343.388 				"/>
				<polygon style="fill:#9999FF;" points="502.371,84.101 635.587,314.838 369.155,314.838 				"/>
			</g>
			<path style="fill:#6161FF;" d="M348.982,327l73.39-124.494c57.429,26.985,88.947,67.213,87.102,124.494H348.982z"/>
			<path style="fill:#666666;" d="M375.038,486c-82.843,0-150-67.157-150-150s67.157-150,150-150s150,67.157,150,150
				S457.881,486,375.038,486z M498.038,336c0-67.931-55.069-123-123-123s-123,55.069-123,123s55.069,123,123,123
				S498.038,403.931,498.038,336z"/>
			<path style="fill:#333333;" d="M524.859,343.388H319.705l88.715-153.66c9.598,2.181,18.846,5.283,27.647,9.208
				c46.264,20.63,80.16,63.997,87.49,115.901c0.976,6.914,1.481,13.98,1.481,21.164C525.038,338.477,524.978,340.94,524.859,343.388
				z M422.478,222.481l-53.322,92.357h127.069l0-0.001c-7.253-41.824-35.63-76.405-73.741-92.353"/>
		</g>
	</g>
	<g style="display:inline;">
		<path style="fill:#666666;" d="M660.827,174.75h-19.281V49.726c-7.713,5.413-18.539,11.163-32.474,17.252V49.726
			c5.952-3.653,11.535-7.643,16.745-11.975c5.207-4.329,8.895-7.611,11.06-9.844c2.163-2.233,3.247-3.279,3.247-3.146h20.702V174.75
			z"/>
	</g>
</g>
<g id="stylebar_x5F_icon_x5F_graphics" style="display:none;">
	<g style="display:inline;">
		<rect y="40.96" style="fill:#999999;" width="454.81" height="60"/>
		<rect y="224.999" style="fill:#999999;" width="454.81" height="60"/>
		<rect y="411.039" style="fill:#999999;" width="454.81" height="60.001"/>
	</g>
	<g id="Ebene_14" style="display:inline;">
	</g>
	<g style="display:inline;">
		<g>
			<circle style="fill:#FFFFFF;" cx="375.038" cy="336" r="189.371"/>
			<g>
				<polygon style="fill:#FFFFFF;" points="494.371,-38.855 734.07,376.315 254.673,376.315 				"/>
			</g>
		</g>
		<g>
			<circle style="fill:#9999FF;" cx="375.038" cy="336" r="123"/>
			<g>
				<polygon style="fill:#666666;" points="502.371,27 685.038,343.388 319.705,343.388 				"/>
				<polygon style="fill:#9999FF;" points="502.371,84.101 635.587,314.838 369.155,314.838 				"/>
			</g>
			<path style="fill:#6161FF;" d="M348.982,327l73.39-124.494c57.429,26.985,88.947,67.213,87.102,124.494H348.982z"/>
			<path style="fill:#666666;" d="M375.038,486c-82.843,0-150-67.157-150-150s67.157-150,150-150s150,67.157,150,150
				S457.881,486,375.038,486z M498.038,336c0-67.931-55.069-123-123-123s-123,55.069-123,123s55.069,123,123,123
				S498.038,403.931,498.038,336z"/>
			<path style="fill:#333333;" d="M524.859,343.388H319.705l88.715-153.66c9.598,2.181,18.846,5.283,27.647,9.208
				c46.264,20.63,80.16,63.997,87.49,115.901c0.976,6.914,1.481,13.98,1.481,21.164C525.038,338.477,524.978,340.94,524.859,343.388
				z M422.478,222.481l-53.322,92.357h127.069l0-0.001c-7.253-41.824-35.63-76.405-73.741-92.353"/>
		</g>
	</g>
</g>
<g id="stylebar_x5F_icon_x5F_construction_x5F_protocol" style="display:none;">
	<g style="display:inline;">
		<rect y="40.96" style="fill:#999999;" width="454.81" height="60"/>
		<rect y="224.999" style="fill:#999999;" width="454.81" height="60"/>
		<rect y="411.039" style="fill:#999999;" width="454.81" height="60.001"/>
	</g>
	<g style="display:inline;">
		<path style="fill:#FFFFFF;" d="M698.962,462c0,27.614-22.386,50-50,50h-412c-27.614,0-50-2.386-50-30V30c0-27.614,22.386-30,50-30
			h412c27.614,0,50,22.386,50,50V462z"/>
		<g>
			<defs>
				<path id="SVGID_1_" d="M684.962,440.241c0,24.72-20.039,44.759-44.759,44.759H271.721c-24.72,0-44.759-20.039-44.759-44.759
					V71.759c0-24.72,20.039-44.759,44.759-44.759h368.482c24.72,0,44.759,20.039,44.759,44.759V440.241z"/>
			</defs>
			<clipPath id="SVGID_2_">
				<use xlink:href="#SVGID_1_"  style="overflow:visible;"/>
			</clipPath>
			<rect x="203.038" y="355" style="clip-path:url(#SVGID_2_);fill:#9999FF;" width="512" height="160"/>
			<g style="clip-path:url(#SVGID_2_);">
				<path style="fill:#333333;" d="M329.773,135.317h-12.166l-8.929-22.1h-40.405l-9.041,22.1h-11.831l34.712-82.484h12.501
					L329.773,135.317z M303.879,103.507l-15.738-38.061l-15.403,38.061H303.879z"/>
				<path style="fill:#333333;" d="M418.452,94.131H349.92v-7.032h68.532V94.131z M418.452,115.003H349.92v-7.143h68.532V115.003z"
					/>
				<g>
					<path style="fill:#333333;" d="M471.915,150.385h-7.255c-8.633-15.626-12.947-32.145-12.947-49.557
						c0-17.485,4.315-34.043,12.947-49.669h7.255c-6.25,17.562-9.376,34.118-9.376,49.669
						C462.54,116.008,465.665,132.527,471.915,150.385z"/>
					<path style="fill:#333333;" d="M525.714,135.317H515.11V66.562c-4.241,2.977-10.195,6.139-17.858,9.487v-9.487
						c3.274-2.009,6.344-4.203,9.208-6.585c2.864-2.381,4.892-4.185,6.083-5.413c1.19-1.228,1.786-1.804,1.786-1.73h11.385V135.317z
						"/>
					<path style="fill:#333333;" d="M572.257,121.254l-12.501,28.573h-8.036l6.92-28.573H572.257z"/>
					<path style="fill:#333333;" d="M621.033,135.317H610.43V66.562c-4.242,2.977-10.195,6.139-17.858,9.487v-9.487
						c3.274-2.009,6.343-4.203,9.208-6.585c2.864-2.381,4.893-4.185,6.083-5.413c1.19-1.228,1.786-1.804,1.786-1.73h11.385V135.317z
						"/>
					<path style="fill:#333333;" d="M672.265,100.828c0,17.338-4.279,33.858-12.836,49.557h-7.367
						c6.251-17.858,9.376-34.378,9.376-49.557c0-15.551-3.125-32.107-9.376-49.669h7.367
						C667.985,66.86,672.265,83.416,672.265,100.828z"/>
				</g>
				<path style="fill:#333333;" d="M308.343,279.098c0,6.474-2.456,11.925-7.367,16.352c-4.911,4.428-10.715,6.641-17.412,6.641
					h-36.163v-82.484h33.15c7.143,0,13.059,1.73,17.747,5.19c4.688,3.46,7.032,8.502,7.032,15.124c0,2.605-0.485,5.023-1.451,7.255
					c-0.968,2.232-2.14,3.981-3.516,5.246c-1.378,1.266-2.754,2.363-4.13,3.293c-1.378,0.931-2.55,1.582-3.516,1.953l-1.451,0.447
					c0.446,0.15,1.06,0.335,1.842,0.558c0.781,0.223,2.157,0.893,4.13,2.009c1.971,1.116,3.701,2.382,5.19,3.795
					c1.488,1.414,2.846,3.423,4.074,6.027C307.729,273.109,308.343,275.973,308.343,279.098z M294.726,241.484
					c0-7.962-5.879-11.943-17.635-11.943h-18.193v24.555h17.97C288.772,254.096,294.726,249.893,294.726,241.484z M297.182,277.87
					c0-4.613-1.768-8.148-5.302-10.603c-3.535-2.456-8.725-3.683-15.57-3.683h-17.412v28.573h17.97
					c6.027,0,10.919-1.34,14.677-4.018C295.302,285.46,297.182,282.038,297.182,277.87z"/>
				<path style="fill:#333333;" d="M418.452,260.905H349.92v-7.032h68.532V260.905z M418.452,281.777H349.92v-7.143h68.532V281.777z
					"/>
				<g>
					<path style="fill:#333333;" d="M471.915,317.159h-7.255c-8.633-15.626-12.947-32.145-12.947-49.557
						c0-17.486,4.315-34.043,12.947-49.669h7.255c-6.25,17.562-9.376,34.118-9.376,49.669
						C462.54,282.781,465.665,299.301,471.915,317.159z"/>
					<path style="fill:#333333;" d="M539.219,302.091h-49.78v-10.603c9.672-10.789,17.356-19.365,23.049-25.727
						c5.692-6.362,9.672-11.273,11.943-14.733c2.269-3.46,3.404-6.491,3.404-9.097c0-4.985-0.967-8.65-2.902-10.994
						c-1.935-2.344-5.172-3.516-9.711-3.516c-4.018,0-7.032,1.154-9.041,3.46c-2.009,2.307-3.311,5.99-3.906,11.05h-11.608
						c1.19-15.998,9.376-23.997,24.555-23.997c7.515,0,13.394,2.288,17.635,6.864c4.242,4.576,6.362,9.766,6.362,15.57
						c0,1.786-0.15,3.423-0.446,4.911c-0.298,1.489-0.781,3.07-1.451,4.744c-0.67,1.674-1.581,3.404-2.735,5.19
						c-1.154,1.786-2.605,3.814-4.353,6.083c-1.749,2.271-3.814,4.744-6.195,7.422c-2.382,2.679-5.153,5.804-8.315,9.376
						c-3.163,3.572-6.753,7.516-10.771,11.831c-1.266,1.415-2.232,2.494-2.902,3.237h37.168V302.091z"/>
					<path style="fill:#333333;" d="M572.257,288.027l-12.501,28.573h-8.036l6.92-28.573H572.257z"/>
					<path style="fill:#333333;" d="M634.539,302.091h-49.78v-10.603c9.672-10.789,17.356-19.365,23.048-25.727
						c5.692-6.362,9.672-11.273,11.943-14.733c2.269-3.46,3.404-6.491,3.404-9.097c0-4.985-0.967-8.65-2.902-10.994
						c-1.936-2.344-5.173-3.516-9.711-3.516c-4.018,0-7.032,1.154-9.041,3.46c-2.009,2.307-3.311,5.99-3.907,11.05h-11.608
						c1.19-15.998,9.376-23.997,24.555-23.997c7.516,0,13.394,2.288,17.635,6.864c4.241,4.576,6.362,9.766,6.362,15.57
						c0,1.786-0.15,3.423-0.446,4.911c-0.298,1.489-0.781,3.07-1.451,4.744c-0.67,1.674-1.581,3.404-2.735,5.19
						c-1.154,1.786-2.605,3.814-4.353,6.083c-1.749,2.271-3.814,4.744-6.195,7.422c-2.382,2.679-5.153,5.804-8.315,9.376
						c-3.163,3.572-6.753,7.516-10.771,11.831c-1.266,1.415-2.232,2.494-2.902,3.237h37.168V302.091z"/>
					<path style="fill:#333333;" d="M672.265,267.602c0,17.339-4.279,33.858-12.836,49.557h-7.367
						c6.251-17.858,9.376-34.378,9.376-49.557c0-15.551-3.125-32.107-9.376-49.669h7.367
						C667.985,233.634,672.265,250.19,672.265,267.602z"/>
				</g>
				<g>
					<path style="fill:#333333;" d="M298.298,446.816h-10.269c-0.819-4.315-1.266-7.105-1.339-8.371
						c-1.936,2.308-3.498,4.038-4.688,5.19c-1.191,1.154-2.902,2.215-5.134,3.181c-2.232,0.966-4.763,1.451-7.59,1.451
						c-5.432,0-10.436-1.469-15.012-4.409c-4.576-2.938-6.864-6.976-6.864-12.11c0-3.349,0.651-6.287,1.953-8.818
						c1.301-2.529,2.975-4.557,5.023-6.083c2.046-1.524,4.482-2.771,7.311-3.739c2.827-0.966,5.581-1.618,8.26-1.953
						c2.679-0.335,5.506-0.502,8.483-0.502c0.893,0,2.194,0.038,3.907,0.112c1.711,0.075,3.014,0.112,3.906,0.112
						c0.966-4.389,0.408-7.998-1.674-10.827c-2.084-2.827-5.619-4.241-10.603-4.241c-3.498,0-6.512,0.745-9.041,2.232
						c-2.53,1.489-3.795,3.833-3.795,7.032h-10.603c0-11.235,7.663-16.854,22.993-16.854c12.128,0,19.458,3.237,21.988,9.71
						c0.893,2.085,1.339,8.112,1.339,18.082v9.934C296.847,437.032,297.33,443.989,298.298,446.816z M286.132,418.689
						c-3.795-0.223-5.767-0.335-5.915-0.335c-2.159,0-4.353,0.167-6.585,0.502c-2.232,0.335-4.614,0.893-7.143,1.674
						c-2.53,0.781-4.576,2.029-6.139,3.739c-1.563,1.712-2.344,3.759-2.344,6.139c0,3.125,1.116,5.619,3.348,7.478
						c2.232,1.861,4.911,2.79,8.036,2.79c6.547,0,10.975-1.915,13.282-5.748C284.977,431.098,286.132,425.684,286.132,418.689z"/>
					<path style="fill:#333333;" d="M332.34,403.732h-12.389v-14.064h12.389V403.732z M332.34,446.816h-12.389v-14.064h12.389
						V446.816z"/>
					<path style="fill:#333333;" d="M398.305,453.178l2.344-6.362l-24.444-57.147h12.054l17.97,43.083l16.631-43.083h11.05
						l-27.234,69.871l-3.795,9.934h-10.492L398.305,453.178z"/>
					<path style="fill:#333333;" d="M526.997,405.63h-68.532v-7.032h68.532V405.63z M526.997,426.502h-68.532v-7.143h68.532V426.502
						z"/>
					<path style="fill:#333333;" d="M610.151,446.816h-13.059l-16.742-22.546l-16.184,22.546h-12.054l22.769-29.578l-20.984-27.569
						h13.059l15.068,20.426l14.622-20.426h11.943l-21.207,27.569L610.151,446.816z"/>
				</g>
			</g>
			<rect x="203.038" y="167.422" style="clip-path:url(#SVGID_2_);fill:#666666;" width="512" height="15"/>
			<rect x="203.038" y="349" style="clip-path:url(#SVGID_2_);fill:#666666;" width="512" height="15"/>
		</g>
	</g>
</g>
<g id="stylebar_x5F_icon_x5F_spreadsheet" style="display:none;">
	<g style="display:inline;">
		<rect y="40.96" style="fill:#999999;" width="454.81" height="60"/>
		<rect y="224.999" style="fill:#999999;" width="454.81" height="60"/>
		<rect y="411.039" style="fill:#999999;" width="454.81" height="60.001"/>
	</g>
	<rect x="198.811" y="106" style="fill:#999999;" width="512" height="15"/>
	<rect x="295.81" style="fill:#999999;" width="15" height="512"/>
	<g style="display:inline;">
		<path style="fill:#FFFFFF;" d="M698.962,462c0,27.614-22.386,50-50,50h-412c-27.614,0-50-2.386-50-30V30c0-27.614,22.386-30,50-30
			h412c27.614,0,50,22.386,50,50V462z"/>
		<path style="fill:#FFFFFF;" d="M684.962,440.241c0,24.72-20.039,44.759-44.759,44.759H271.721
			c-24.72,0-44.759-20.039-44.759-44.759V71.759c0-24.72,20.039-44.759,44.759-44.759h368.482c24.72,0,44.759,20.039,44.759,44.759
			V440.241z"/>
		<g>
			<defs>
				<path id="SVGID_3_" d="M684.962,440.241c0,24.72-20.039,44.759-44.759,44.759H271.721c-24.72,0-44.759-20.039-44.759-44.759
					V71.759c0-24.72,20.039-44.759,44.759-44.759h368.482c24.72,0,44.759,20.039,44.759,44.759V440.241z"/>
			</defs>
			<clipPath id="SVGID_4_">
				<use xlink:href="#SVGID_3_"  style="overflow:visible;"/>
			</clipPath>
			<g style="clip-path:url(#SVGID_4_);">
				<rect x="226.038" y="26" style="fill:#9999FF;" width="460" height="130"/>
				<rect x="226.038" y="26" style="fill:#9999FF;" width="130" height="460"/>
			</g>
			<rect x="357.542" y="19.333" style="clip-path:url(#SVGID_4_);fill:#FFFFFF;" width="24" height="186.333"/>
			<rect x="220.038" y="155.504" style="clip-path:url(#SVGID_4_);fill:#FFFFFF;" width="139.766" height="24"/>
			<rect x="220.038" y="311.832" style="clip-path:url(#SVGID_4_);fill:#FFFFFF;" width="140.766" height="24"/>
			<rect x="510.972" y="21" style="clip-path:url(#SVGID_4_);fill:#FFFFFF;" width="24" height="139.765"/>
			<rect x="356.038" y="311.832" style="clip-path:url(#SVGID_4_);fill:#666666;" width="330" height="24"/>
			<rect x="510.972" y="156.252" style="clip-path:url(#SVGID_4_);fill:#666666;" width="24" height="329.748"/>
		</g>
		<path style="fill:#333333;" d="M489.545,137.836h-12.956l-9.509-23.534h-43.026l-9.628,23.534h-12.599L438.792,50h13.312
			L489.545,137.836z M461.969,103.962L445.21,63.431l-16.403,40.531H461.969z"/>
		<path style="fill:#333333;" d="M306.224,293.492h-11.315v-73.367c-4.526,3.176-10.879,6.551-19.056,10.124v-10.124
			c3.493-2.144,6.768-4.485,9.826-7.027c3.055-2.54,5.22-4.466,6.491-5.776c1.269-1.31,1.906-1.924,1.906-1.846h12.149V293.492z"/>
		<path style="fill:#333333;" d="M317.598,448.714h-53.119v-11.315c10.321-11.512,18.52-20.664,24.595-27.453
			c6.074-6.789,10.32-12.029,12.744-15.722c2.421-3.692,3.633-6.926,3.633-9.706c0-5.319-1.033-9.23-3.097-11.732
			c-2.066-2.501-5.52-3.751-10.362-3.751c-4.288,0-7.503,1.231-9.647,3.692c-2.144,2.463-3.534,6.393-4.168,11.791h-12.387
			c1.269-17.069,10.005-25.607,26.202-25.607c8.019,0,14.292,2.442,18.818,7.325c4.526,4.883,6.789,10.421,6.789,16.614
			c0,1.906-0.16,3.654-0.476,5.241c-0.318,1.589-0.834,3.275-1.548,5.061c-0.715,1.787-1.688,3.633-2.918,5.538
			c-1.232,1.906-2.78,4.071-4.645,6.492c-1.866,2.423-4.07,5.061-6.61,7.92c-2.542,2.858-5.499,6.193-8.873,10.004
			c-3.376,3.811-7.206,8.021-11.493,12.625c-1.351,1.511-2.382,2.661-3.097,3.454h39.661V448.714z"/>
		<g>
			<path style="fill:#333333;" d="M635.785,113.352c0,6.894-2.615,12.699-7.845,17.413c-5.23,4.715-11.41,7.072-18.542,7.072
				h-38.511V50h35.301c7.607,0,13.907,1.842,18.899,5.527c4.992,3.685,7.489,9.053,7.489,16.105c0,2.775-0.516,5.349-1.546,7.726
				c-1.031,2.377-2.278,4.24-3.743,5.586c-1.467,1.349-2.932,2.516-4.398,3.507c-1.467,0.992-2.715,1.684-3.744,2.08l-1.545,0.475
				c0.475,0.16,1.129,0.357,1.961,0.595c0.831,0.237,2.298,0.95,4.398,2.139c2.099,1.189,3.941,2.537,5.527,4.041
				c1.585,1.506,3.031,3.646,4.338,6.418C635.131,106.974,635.785,110.023,635.785,113.352z M621.284,73.296
				c0-8.478-6.26-12.718-18.779-12.718h-19.374v26.149h19.136C614.944,86.727,621.284,82.252,621.284,73.296z M623.899,112.044
				c0-4.913-1.883-8.677-5.646-11.292c-3.764-2.615-9.291-3.922-16.581-3.922h-18.542v30.428h19.136
				c6.418,0,11.628-1.426,15.63-4.279C621.897,120.127,623.899,116.483,623.899,112.044z"/>
		</g>
	</g>
</g>
<g id="stylebar_x5F_icon_x5F_cas" style="display:none;">
	<g style="display:inline;">
		<rect y="40.96" style="fill:#999999;" width="454.81" height="60"/>
		<rect y="224.999" style="fill:#999999;" width="454.81" height="60"/>
		<rect y="411.039" style="fill:#999999;" width="454.81" height="60.001"/>
	</g>
	<g style="display:inline;">
		<path style="fill:#FFFFFF;" d="M698.962,462c0,27.614-22.386,50-50,50h-412c-27.614,0-50-2.386-50-30V30c0-27.614,22.386-30,50-30
			h412c27.614,0,50,22.386,50,50V462z"/>
		<g>
			<defs>
				<path id="SVGID_5_" d="M684.962,440.241c0,24.72-20.039,44.759-44.759,44.759H271.721c-24.72,0-44.759-20.039-44.759-44.759
					V71.759c0-24.72,20.039-44.759,44.759-44.759h368.482c24.72,0,44.759,20.039,44.759,44.759V440.241z"/>
			</defs>
			<clipPath id="SVGID_6_">
				<use xlink:href="#SVGID_5_"  style="overflow:visible;"/>
			</clipPath>
			<g style="clip-path:url(#SVGID_6_);">
				<g>
					<rect x="200.038" style="fill:#9999FF;" width="150" height="512"/>
					<g>
						<path style="fill:#666666;" d="M560.526,347.088h-56.055l-39.307-62.549l-36.572,62.549h-52.637l62.549-93.652l-56.397-81.348
							h55.713l34.521,51.611l29.736-51.611h52.295l-55.029,81.348L560.526,347.088z"/>
					</g>
					<g>
						<path style="fill:#666666;" d="M712.038,239.947H576.212v-20.568h135.826V239.947z M712.038,301H576.212v-20.895h135.826V301z
							"/>
					</g>
				</g>
			</g>
		</g>
	</g>
</g>
<g id="stylebar_x5F_icon_x5F_algebra" style="display:none;">
	<g style="display:inline;">
		<rect y="40.96" style="fill:#999999;" width="454.81" height="60"/>
		<rect y="224.999" style="fill:#999999;" width="454.81" height="60"/>
		<rect y="411.039" style="fill:#999999;" width="454.81" height="60.001"/>
	</g>
	<g style="display:inline;">
		<g>
			<g>
				<path style="fill:none;stroke:#FFFFFF;stroke-width:110;stroke-miterlimit:10;" d="M243.962,480.094
					c41.78-277.924,106.761-516.858,211.793-224.022C561.652,551.32,623.287,309.97,667.962,31.906"/>
			</g>
			<g>
				<circle style="fill:#FFFFFF;" cx="363.915" cy="121.955" r="102.714"/>
			</g>
		</g>
	</g>
	<rect x="290.629" y="202.333" style="display:inline;fill:#FFFFFF;" width="260.667" height="305.333"/>
	<g style="display:inline;">
		<g>
			<defs>
				<path id="SVGID_7_" d="M684.962,440.241c0,24.72-20.039,44.759-44.759,44.759H271.721c-24.72,0-44.759-20.039-44.759-44.759
					V71.759c0-24.72,20.039-44.759,44.759-44.759h368.482c24.72,0,44.759,20.039,44.759,44.759V440.241z"/>
			</defs>
			<clipPath id="SVGID_8_">
				<use xlink:href="#SVGID_7_"  style="overflow:visible;"/>
			</clipPath>
			<g style="clip-path:url(#SVGID_8_);">
				<g>
					<g>
						<path style="fill:none;stroke:#666666;stroke-width:30;stroke-miterlimit:10;" d="M244.038,480.094
							c41.78-277.924,106.761-516.858,211.793-224.022C561.728,551.32,623.363,309.97,668.038,31.906"/>
					</g>
					<g>
						<circle style="fill:#9999FF;" cx="363.991" cy="121.954" r="63.047"/>
						<path style="fill:#333333;" d="M363.991,58.906c-34.817,0-63.047,28.233-63.047,63.047c0,34.823,28.229,63.047,63.047,63.047
							c34.817,0,63.047-28.224,63.047-63.047C427.038,87.139,398.808,58.906,363.991,58.906z M363.991,166.086
							c-24.374,0-44.133-19.759-44.133-44.133c0-24.374,19.759-44.133,44.133-44.133s44.133,19.759,44.133,44.133
							C408.124,146.327,388.365,166.086,363.991,166.086z"/>
					</g>
					<g>
						<circle style="fill:#9999FF;" cx="546.085" cy="391.048" r="63.047"/>
						<path style="fill:#333333;" d="M546.085,328c-34.817,0-63.047,28.233-63.047,63.047c0,34.823,28.229,63.047,63.047,63.047
							c34.817,0,63.047-28.223,63.047-63.047C609.132,356.233,580.902,328,546.085,328z M546.085,435.179
							c-24.374,0-44.133-19.759-44.133-44.133c0-24.374,19.759-44.133,44.133-44.133s44.133,19.759,44.133,44.133
							C590.218,415.42,570.459,435.179,546.085,435.179z"/>
					</g>
				</g>
			</g>
		</g>
	</g>
	<rect x="420.962" y="19.24" style="display:inline;fill:#FFFFFF;" width="76.333" height="60.427"/>
</g>
<g id="stylebar_x5F_icon_x5F_probability" style="display:none;">
	<g style="display:inline;">
		<rect y="40.96" style="fill:#999999;" width="454.81" height="60"/>
		<rect y="224.999" style="fill:#999999;" width="454.81" height="60"/>
		<rect y="411.039" style="fill:#999999;" width="454.81" height="60.001"/>
	</g>
	<path style="fill:#FFFFFF;" d="M-208.038,648c0,27.614-22.386,50-50,50h-412c-27.614,0-50-22.386-50-50V236
		c0-27.614,22.386-50,50-50h412c27.614,0,50,22.386,50,50V648z"/>
	<rect x="184.962" y="374" style="display:inline;fill:#FFFFFF;" width="322" height="129"/>
	<path style="display:inline;fill:none;stroke:#FFFFFF;stroke-width:106;stroke-miterlimit:10;" d="M808.962,423.046
		c0,0-130.972,21.405-207.06-147.701S487.145,65.568,455.961,65.568c-31.182,0-69.85,40.671-145.939,209.777
		c-10.114,22.478-21.197,41.59-32.814,57.833"/>
	<g style="display:inline;">
		<g>
			<defs>
				<path id="SVGID_9_" d="M684.962,440.241c0,24.72-20.039,44.759-44.759,44.759H271.721c-24.72,0-44.759-20.039-44.759-44.759
					V71.759c0-24.72,20.039-44.759,44.759-44.759h368.482c24.72,0,44.759,20.039,44.759,44.759V440.241z"/>
			</defs>
			<clipPath id="SVGID_10_">
				<use xlink:href="#SVGID_9_"  style="overflow:visible;"/>
			</clipPath>
			<g style="clip-path:url(#SVGID_10_);">
				<path style="fill:#9999FF;" d="M355.602,446.511h200.873V180.523c-45.59-72.416-75.135-107.282-100.438-107.282
					c-25.301,0-54.846,34.866-100.435,107.282V446.511z"/>
				<path style="fill:none;stroke:#666666;stroke-width:26;stroke-miterlimit:10;" d="M809.038,422.968
					c0,0-130.971,21.405-207.06-147.701S487.222,65.489,456.037,65.489c-31.182,0-69.85,40.671-145.939,209.777
					c-76.089,169.106-207.06,147.701-207.06,147.701"/>
				
					<line style="fill:none;stroke:#333333;stroke-width:26;stroke-miterlimit:10;" x1="103.038" y1="446.511" x2="809.038" y2="446.511"/>
			</g>
		</g>
	</g>
</g>
</svg>
