<?xml version="1.0" encoding="iso-8859-1"?>
<!-- Generator: Adobe Illustrator 15.1.0, SVG Export Plug-In . SVG Version: 6.00 Build 0)  -->
<!DOCTYPE svg PUBLIC "-//W3C//DTD SVG 1.1//EN" "http://www.w3.org/Graphics/SVG/1.1/DTD/svg11.dtd">
<svg version="1.1" xmlns="http://www.w3.org/2000/svg" xmlns:xlink="http://www.w3.org/1999/xlink" x="0px" y="0px" width="712px"
	 height="512px" viewBox="0 0 712 512" style="enable-background:new 0 0 712 512;" xml:space="preserve">
<g id="stylingbar_x5F_icon_x5F_graphics2">
	<g>
		<rect y="41.96" style="fill:#999999;" width="454.811" height="60"/>
		<rect y="226" style="fill:#999999;" width="454.811" height="60"/>
		<rect y="412.039" style="fill:#999999;" width="454.811" height="60.001"/>
	</g>
	<polyline style="fill:#FFFFFF;" points="239.471,396.475 740.527,398.274 462.028,-30.093 	"/>
	<circle style="fill:#FFFFFF;" cx="332.728" cy="339.977" r="187.599"/>
	<g>
		<g>
			<circle style="opacity:0.4;fill:#009900;" cx="333.939" cy="341.188" r="170.81"/>
			<g>
				<path style="fill:#009900;" d="M333.941,170.378c-94.339,0-170.813,76.473-170.813,170.811
					c0,94.336,76.474,170.811,170.813,170.811c94.335,0,170.808-76.475,170.808-170.811
					C504.749,246.851,428.276,170.378,333.941,170.378z M333.939,494.919c-84.902,0-153.729-68.828-153.729-153.73
					S249.037,187.46,333.939,187.46s153.729,68.826,153.729,153.729S418.842,494.919,333.939,494.919z"/>
			</g>
		</g>
		<g>
			<polyline style="opacity:0.4;fill:#0000FF;" points="265.039,380.513 712,382.118 463.569,-0.001 			"/>
			<g>
				<path style="fill:#0000FF;" d="M463.569,1.604l-198.53,380.514H712L463.569,1.604z M465.325,35.519l214.124,329.35
					l-385.237-0.244L465.325,35.519z"/>
			</g>
		</g>
	</g>
	<g>
		<path style="fill:#666666;" d="M696.618,188.42H587.731v-23.193c21.156-23.598,37.965-42.358,50.416-56.274
			s21.156-24.658,26.123-32.227c4.963-7.568,7.445-14.198,7.445-19.897c0-10.902-2.117-18.921-6.348-24.048
			c-4.234-5.127-11.314-7.69-21.24-7.69c-8.789,0-15.381,2.525-19.775,7.568c-4.395,5.047-7.244,13.104-8.545,24.17h-25.391
			c2.602-34.992,20.508-52.49,53.711-52.49c16.438,0,29.297,5.005,38.574,15.015s13.916,21.362,13.916,34.058
			c0,3.906-0.328,7.488-0.977,10.742c-0.652,3.258-1.709,6.714-3.174,10.376s-3.459,7.446-5.98,11.353
			c-2.525,3.906-5.699,8.343-9.521,13.306c-3.826,4.967-8.344,10.376-13.551,16.235c-5.211,5.859-11.271,12.695-18.188,20.508
			c-6.92,7.813-14.771,16.441-23.561,25.879c-2.77,3.094-4.883,5.455-6.348,7.08h81.299V188.42z"/>
	</g>
</g>
<g id="Ebene_1">
</g>
</svg>
