<svg xmlns="http://www.w3.org/2000/svg" viewBox="0 0 712 512"><path d="M0 40.96h454.8v60H0zM0 225h454.8v60H0zm0 186.04h454.8v60H0z" fill="#999"/><circle cx="375.04" cy="336" r="189.37" fill="#FFF"/><path fill="#FFF" d="M494.37-38.85l239.7 415.17h-479.4"/><circle cx="375.04" cy="336" r="123" fill="#99F"/><path fill="#666" d="M502.37 27l182.67 316.4H319.7"/><path fill="#99F" d="M502.37 84.1L635.6 314.84H369.14"/><path d="M348.98 327l73.4-124.5c57.42 27 88.94 67.22 87.1 124.5h-160.5z" fill="#6161FF"/><path d="M375.04 486c-82.85 0-150-67.16-150-150s67.16-150 150-150 150 67.16 150 150-67.16 150-150 150zm123-150c0-67.93-55.07-123-123-123s-123 55.07-123 123 55.07 123 123 123 123-55.07 123-123z" fill="#666"/><path d="M524.86 343.4H319.7l88.72-153.67c9.6 2.18 18.85 5.28 27.65 9.2 46.26 20.64 80.16 64 87.5 115.9.96 6.92 1.47 14 1.47 21.17 0 2.48-.06 4.94-.18 7.4zM422.48 222.47l-53.32 92.36h127.06c-7.25-41.83-35.63-76.4-73.74-92.36" fill="#333"/><path d="M697.46 108.34h-59.32v59.33h-18.27v-59.33h-59.32V90.07h59.32V30.75h18.27v59.32h59.32v18.27z" fill="#666"/></svg>