<?xml version="1.0" encoding="utf-8"?>
<!-- Generator: Adobe Illustrator 21.1.0, SVG Export Plug-In . SVG Version: 6.00 Build 0)  -->
<svg version="1.1" id="Layer_1" xmlns="http://www.w3.org/2000/svg" xmlns:xlink="http://www.w3.org/1999/xlink" x="0px" y="0px"
	 viewBox="0 0 712 512" style="enable-background:new 0 0 712 512;" xml:space="preserve">
<style type="text/css">
	.st0{fill:#999999;}
	.st1{fill:none;stroke:#FFFFFF;stroke-width:110;stroke-miterlimit:10;}
	.st2{fill:#FFFFFF;}
	.st3{clip-path:url(#SVGID_2_);}
	.st4{fill:none;stroke:#666666;stroke-width:30;stroke-miterlimit:10;}
	.st5{fill:#9999FF;}
	.st6{fill:#333333;}
</style>
<g id="stylingbar_x5F_icon_x5F_algebra_copy">
	<g>
		<rect y="41" class="st0" width="454.8" height="60"/>
		<rect y="225" class="st0" width="454.8" height="60"/>
		<rect y="411" class="st0" width="454.8" height="60"/>
	</g>
	<g>
		<g>
			<g>
				<path class="st1" d="M244,480.1c41.8-277.9,106.8-516.9,211.8-224C561.7,551.3,623.3,310,668,31.9"/>
			</g>
			<g>
				<circle class="st2" cx="363.9" cy="122" r="102.7"/>
			</g>
		</g>
	</g>
	<rect x="290.6" y="202.3" class="st2" width="260.7" height="305.3"/>
	<g>
		<g>
			<g>
				<defs>
					<path id="SVGID_1_" d="M685,440.2c0,24.7-20,44.8-44.8,44.8H271.7c-24.7,0-44.8-20-44.8-44.8V71.8C227,47,247,27,271.7,27
						h368.5c24.7,0,44.8,20,44.8,44.8V440.2z"/>
				</defs>
				<clipPath id="SVGID_2_">
					<use xlink:href="#SVGID_1_"  style="overflow:visible;"/>
				</clipPath>
				<g class="st3">
					<g>
						<g>
							<path class="st4" d="M244,480.1c41.8-277.9,106.8-516.9,211.8-224C561.7,551.3,623.4,310,668,31.9"/>
						</g>
						<g>
							<circle class="st5" cx="364" cy="122" r="63"/>
							<path class="st6" d="M364,58.9c-34.8,0-63,28.2-63,63c0,34.8,28.2,63,63,63c34.8,0,63-28.2,63-63
								C427,87.1,398.8,58.9,364,58.9z M364,166.1c-24.4,0-44.1-19.8-44.1-44.1s19.8-44.1,44.1-44.1s44.1,19.8,44.1,44.1
								S388.4,166.1,364,166.1z"/>
						</g>
						<g>
							<circle class="st5" cx="546.1" cy="391" r="63"/>
							<path class="st6" d="M546.1,328c-34.8,0-63,28.2-63,63c0,34.8,28.2,63,63,63c34.8,0,63-28.2,63-63
								C609.1,356.2,580.9,328,546.1,328z M546.1,435.2c-24.4,0-44.1-19.8-44.1-44.1s19.8-44.1,44.1-44.1s44.1,19.8,44.1,44.1
								C590.2,415.4,570.5,435.2,546.1,435.2z"/>
						</g>
					</g>
				</g>
			</g>
		</g>
	</g>
	<rect x="421" y="19.2" class="st2" width="76.3" height="60.4"/>
</g>
</svg>
