<?xml version="1.0" encoding="iso-8859-1"?>
<!-- Generator: Adobe Illustrator 15.1.0, SVG Export Plug-In . SVG Version: 6.00 Build 0)  -->
<!DOCTYPE svg PUBLIC "-//W3C//DTD SVG 1.1//EN" "http://www.w3.org/Graphics/SVG/1.1/DTD/svg11.dtd">
<svg version="1.1" xmlns="http://www.w3.org/2000/svg" xmlns:xlink="http://www.w3.org/1999/xlink" x="0px" y="0px" width="712px"
	 height="512px" viewBox="0 0 712 512" style="enable-background:new 0 0 712 512;" xml:space="preserve">
<g id="stylingbar_x5F_icon_x5F_cas">
	<g>
		<rect y="41.96" style="fill:#999999;" width="454.811" height="60"/>
		<rect y="226" style="fill:#999999;" width="454.811" height="60"/>
		<rect y="412.039" style="fill:#999999;" width="454.811" height="60.001"/>
	</g>
	<rect x="181.962" style="fill:#FFFFFF;" width="186" height="512"/>
	<rect x="200" style="fill:#9999FF;" width="150" height="512"/>
	<rect x="350" style="opacity:0.4;fill:#FFFFFF;" width="362" height="512"/>
	<polygon style="fill:#FFFFFF;" points="412.044,256 356,171.595 576.174,170.595 526.538,255 588.035,346.586 353,347.085 	"/>
	<g>
		<path style="fill:#666666;" d="M560.488,347.088h-56.055l-39.307-62.549l-36.572,62.549h-52.637l62.549-93.652l-56.396-81.348
			h55.713l34.521,51.611l29.736-51.611h52.295l-55.029,81.348L560.488,347.088z"/>
	</g>
	<g>
		<path style="fill:#666666;" d="M712,239.947H576.174v-20.568H712V239.947z M712,301H576.174v-20.895H712V301z"/>
	</g>
</g>
<g id="Ebene_1">
</g>
</svg>
