<svg id="Integral_Kopie" data-name="Integral Kopie" xmlns="http://www.w3.org/2000/svg" width="24" height="24" viewBox="0 0 24 24">
  <title>Integral</title>
  <g>
    <rect x="16" y="16" width="2" height="2"/>
    <rect x="12" y="16" width="2" height="2"/>
    <rect x="12" y="20" width="2" height="2"/>
    <rect x="16" y="20" width="2" height="2"/>
  </g>
  <g>
    <rect x="19" y="2" width="2" height="2"/>
    <rect x="15" y="2" width="2" height="2"/>
    <rect x="15" y="6" width="2" height="2"/>
    <rect x="19" y="6" width="2" height="2"/>
  </g>
  <path d="M8.17,18.59a3.58,3.58,0,0,1-.8,2.55A2.91,2.91,0,0,1,5.14,22,3.6,3.6,0,0,1,4,21.8l.15-1a3.06,3.06,0,0,0,.9.16C6.34,21,7,20.15,7,18.5V5.43A3.66,3.66,0,0,1,7.79,2.9a2.94,2.94,0,0,1,2.3-.9,5.18,5.18,0,0,1,1.36.19l-.16,1a4.44,4.44,0,0,0-1-.13,1.92,1.92,0,0,0-1.53.63,2.61,2.61,0,0,0-.54,1.76Z"/>
</svg>
