<svg width="24" height="24" xmlns="http://www.w3.org/2000/svg">
    <path d="M5.637,15.526C5.647,15.931,5.71,16.314,5.824,16.673C5.95,17.069,6.135,17.416,6.378,17.715C6.621,18.013,6.917,18.248,7.266,18.418C7.614,18.588,8.011,18.673,8.456,18.673C9.031,18.673,9.517,18.555,9.915,18.321C10.314,18.087,10.662,17.773,10.961,17.381L11.946,18.163C11.741,18.473,11.48,18.769,11.163,19.051C10.847,19.332,10.459,19.56,9.999,19.736C9.539,19.912,8.996,20,8.369,20C7.706,20,7.107,19.887,6.571,19.661C6.035,19.436,5.575,19.118,5.191,18.708C4.808,18.298,4.513,17.811,4.308,17.249C4.103,16.686,4,16.071,4,15.403L4,15.034C4,14.261,4.115,13.571,4.343,12.964C4.572,12.358,4.882,11.844,5.275,11.422C5.667,11,6.113,10.68,6.611,10.464C7.109,10.247,7.624,10.138,8.158,10.138C8.837,10.138,9.425,10.256,9.92,10.49C10.415,10.724,10.821,11.051,11.137,11.47C11.454,11.889,11.688,12.381,11.84,12.947C11.993,13.512,12.069,14.129,12.069,14.797L12.069,15.526L5.637,15.526ZM5.684,14.199L10.443,14.199L10.443,14.076C10.419,13.654,10.333,13.244,10.183,12.845C10.034,12.447,9.798,12.119,9.476,11.861C9.154,11.603,8.714,11.474,8.158,11.474C7.788,11.474,7.449,11.552,7.138,11.707C6.828,11.863,6.561,12.093,6.338,12.397C6.116,12.702,5.943,13.074,5.82,13.513C5.76,13.726,5.715,13.955,5.684,14.199ZM16,0L16,2L14,2L14,0L16,0ZM20,0L20,2L18,2L18,0L20,0ZM24,0L24,2L22,2L22,0L24,0ZM24,4L24,6L22,6L22,4L24,4ZM16,4L16,6L14,6L14,4L16,4ZM16,8L16,10L14,10L14,8L16,8ZM20,8L20,10L18,10L18,8L20,8ZM24,8L24,10L22,10L22,8L24,8Z"/>
</svg>
