<svg id="floor" xmlns="http://www.w3.org/2000/svg" viewBox="0 0 24 24"><title>floor</title><rect x="5" y="5" width="2" height="2"/><rect x="9" y="5" width="2" height="2"/><rect x="13" y="5" width="2" height="2"/><rect x="17" y="5" width="2" height="2"/><rect x="5" y="9" width="2" height="2"/><rect x="17" y="17" width="2" height="2"/><rect x="17" y="13" width="2" height="2"/><rect x="17" y="9" width="2" height="2"/><rect x="5" y="13" width="2" height="2"/><rect x="5" y="17" width="2" height="2"/><rect x="9" y="17" width="2" height="2"/><rect x="13" y="17" width="2" height="2"/><rect y="3" width="2" height="18"/><rect x="22" y="3" width="2" height="18"/><rect y="21" width="7" height="2"/><rect x="17" y="21" width="7" height="2"/></svg>