<svg id="fraction" xmlns="http://www.w3.org/2000/svg" viewBox="0 0 24 24"><title>fraction</title><rect x="7" width="2" height="2"/><rect x="11" width="2" height="2"/><rect x="15" width="2" height="2"/><rect x="15" y="4" width="2" height="2"/><rect x="7" y="4" width="2" height="2"/><rect x="7" y="8" width="2" height="2"/><rect x="11" y="8" width="2" height="2"/><rect x="15" y="8" width="2" height="2"/><rect x="7" y="14" width="2" height="2"/><rect x="11" y="14" width="2" height="2"/><rect x="15" y="14" width="2" height="2"/><rect x="15" y="18" width="2" height="2"/><rect x="7" y="18" width="2" height="2"/><rect x="7" y="22" width="2" height="2"/><rect x="11" y="22" width="2" height="2"/><rect x="15" y="22" width="2" height="2"/><rect x="4" y="11" width="16" height="2"/></svg>