<svg id="inverse" xmlns="http://www.w3.org/2000/svg" viewBox="0 0 24 24"><title>inverse</title><rect x="1" y="6" width="2" height="2"/><rect x="5" y="6" width="2" height="2"/><rect x="9" y="6" width="2" height="2"/><rect x="13" y="6" width="2" height="2"/><rect x="1" y="10" width="2" height="2"/><rect x="13" y="18" width="2" height="2"/><rect x="13" y="14" width="2" height="2"/><rect x="13" y="10" width="2" height="2"/><rect x="1" y="14" width="2" height="2"/><rect x="1" y="18" width="2" height="2"/><rect x="5" y="18" width="2" height="2"/><rect x="9" y="18" width="2" height="2"/><path d="M24,8.94H22.87V1.71l-2.19.81v-1L23.79.37H24Z"/><rect x="16" y="4" width="3" height="1"/></svg>