<svg width="24" height="24" xmlns="http://www.w3.org/2000/svg">
    <path d="M24,18L24,20L22,20L22,18L24,18ZM20,18L20,20L18,20L18,18L20,18ZM20,22L20,24L18,24L18,22L20,22ZM24,22L24,24L22,24L22,22L24,22ZM1.544,6.25L1.544,19L0,19L0,6.25L1.544,6.25ZM1.824,14.443L1.824,14.252C1.824,13.604 1.918,13.003 2.106,12.447C2.294,11.89 2.565,11.406 2.919,10.994C3.274,10.582 3.702,10.261 4.206,10.031C4.71,9.801 5.274,9.687 5.899,9.687C6.53,9.687 7.099,9.801 7.605,10.031C8.112,10.261 8.543,10.582 8.9,10.994C9.257,11.406 9.53,11.89 9.718,12.447C9.906,13.003 10,13.604 10,14.252L10,14.443C10,15.09 9.906,15.691 9.718,16.244C9.53,16.798 9.257,17.28 8.9,17.693C8.543,18.105 8.114,18.426 7.614,18.656C7.113,18.885 6.547,19 5.916,19C5.285,19 4.718,18.885 4.214,18.656C3.711,18.426 3.281,18.105 2.924,17.693C2.567,17.28 2.294,16.798 2.106,16.244C1.918,15.691 1.824,15.09 1.824,14.443ZM3.359,14.252L3.359,14.443C3.359,14.891 3.412,15.313 3.517,15.709C3.622,16.104 3.781,16.454 3.994,16.759C4.207,17.063 4.474,17.302 4.795,17.477C5.116,17.651 5.49,17.738 5.916,17.738C6.337,17.738 6.706,17.651 7.024,17.477C7.342,17.302 7.607,17.063 7.817,16.759C8.027,16.454 8.186,16.104 8.294,15.709C8.402,15.313 8.456,14.891 8.456,14.443L8.456,14.252C8.456,13.809 8.402,13.39 8.294,12.994C8.186,12.599 8.026,12.247 7.813,11.94C7.6,11.633 7.334,11.391 7.016,11.214C6.698,11.037 6.326,10.948 5.899,10.948C5.479,10.948 5.109,11.037 4.791,11.214C4.473,11.391 4.207,11.633 3.994,11.94C3.781,12.247 3.622,12.599 3.517,12.994C3.412,13.39 3.359,13.809 3.359,14.252ZM16.254,17.93C15.97,18.264 15.629,18.522 15.233,18.705C14.807,18.902 14.309,19 13.739,19C13.202,19 12.716,18.887 12.282,18.66C11.847,18.433 11.475,18.115 11.165,17.705C10.855,17.296 10.619,16.813 10.456,16.257C10.292,15.7 10.211,15.096 10.211,14.443L10.211,14.269C10.211,13.582 10.292,12.958 10.456,12.397C10.619,11.835 10.854,11.352 11.161,10.948C11.468,10.544 11.84,10.233 12.278,10.014C12.715,9.796 13.207,9.687 13.755,9.687C14.32,9.687 14.813,9.785 15.237,9.981C15.66,10.178 16.02,10.463 16.316,10.836C16.319,10.84 16.321,10.843 16.324,10.846L16.395,9.853L17.789,9.853L17.789,18.643C17.789,19.434 17.629,20.11 17.308,20.668C16.987,21.227 16.54,21.652 15.967,21.943C15.395,22.233 14.735,22.378 13.988,22.378C13.678,22.378 13.314,22.33 12.896,22.233C12.478,22.136 12.069,21.973 11.667,21.743C11.266,21.514 10.93,21.205 10.659,20.818L11.464,19.905C11.84,20.359 12.235,20.674 12.647,20.851C13.059,21.028 13.467,21.117 13.871,21.117C14.358,21.117 14.779,21.025 15.133,20.843C15.487,20.66 15.763,20.39 15.959,20.033C16.155,19.677 16.254,19.238 16.254,18.718L16.254,17.93ZM16.254,12.281C16.146,12.075 16.017,11.887 15.868,11.716C15.671,11.492 15.429,11.313 15.141,11.181C14.854,11.048 14.516,10.981 14.129,10.981C13.708,10.981 13.347,11.069 13.045,11.243C12.744,11.417 12.498,11.655 12.307,11.957C12.116,12.258 11.975,12.607 11.883,13.003C11.792,13.398 11.746,13.82 11.746,14.269L11.746,14.443C11.746,14.891 11.792,15.312 11.883,15.705C11.975,16.097 12.116,16.443 12.307,16.742C12.498,17.041 12.742,17.275 13.041,17.444C13.34,17.612 13.697,17.697 14.112,17.697C14.621,17.697 15.042,17.589 15.374,17.373C15.706,17.157 15.97,16.872 16.167,16.518C16.197,16.464 16.226,16.409 16.254,16.353L16.254,12.281Z"/>
</svg>
