<svg xmlns="http://www.w3.org/2000/svg" width="24" height="24" fill="none"><g fill="#252525" ><path d="M13 2h2.001V-.001H13V2Zm4 0h2V-.001h-2V2Zm4 0h2V-.001h-2V2Zm0 4h2V4h-2v2Zm-8 0h2V4h-2v2Zm0 4h2V8h-2v2Zm4 0h2V8h-2v2Zm4 0h2V8h-2v2Zm-8 6h2v-2h-2v2Zm4 0h2v-2h-2v2Zm4 0h2v-2h-2v2Zm0 4h2v-2h-2v2Zm-8 0h2v-2h-2v2Zm0 4h2.001v-2H13v2Zm4 0h2v-2h-2v2Zm4 0h2v-2h-2v2Zm-9-11h12v-2H12v2ZM0 9h2.001V6.999H0V9Zm4 0h2V6.999H4V9Zm4 0h2V6.999H8V9Zm0 4h2v-2H8v2Zm-8 0h2v-2H0v2Zm0 4h2v-2H0v2Zm4 0h2v-2H4v2Zm4 0h2v-2H8v2Z"/></g></svg>