<svg id="n_root" xmlns="http://www.w3.org/2000/svg" viewBox="0 0 24 24"><title>n_root</title><rect x="14" y="10" width="2" height="2"/><rect x="18" y="10" width="2" height="2"/><rect x="22" y="10" width="2" height="2"/><rect x="22" y="14" width="2" height="2"/><rect x="14" y="14" width="2" height="2"/><rect x="14" y="18" width="2" height="2"/><rect x="18" y="18" width="2" height="2"/><rect x="22" y="18" width="2" height="2"/><rect x="4" y="4" width="2" height="2"/><rect y="4" width="2" height="2"/><rect y="8" width="2" height="2"/><rect x="4" y="8" width="2" height="2"/><polygon points="0 13.5 4 13.5 6.75 18 12 5 24 5 24 6.5 13 6.5 7.5 20 6 20 3 15 0 15 0 13.5"/></svg>