<svg width="24" height="24" xmlns="http://www.w3.org/2000/svg">
    <path d="M3,6L3,8L1,8L1,6L3,6ZM7,6L7,8L5,8L5,6L7,6ZM11,6L11,8L9,8L9,6L11,6ZM15,6L15,8L13,8L13,6L15,6ZM3,10L3,12L1,12L1,10L3,10ZM15,18L15,20L13,20L13,18L15,18ZM15,14L15,16L13,16L13,14L15,14ZM15,10L15,12L13,12L13,10L15,10ZM3,14L3,16L1,16L1,14L3,14ZM3,18L3,20L1,20L1,18L3,18ZM7,18L7,20L5,20L5,18L7,18ZM11,18L11,20L9,20L9,18L11,18ZM23,8.758L23,9.648L17.416,9.648L17.416,8.869L20.211,5.758C20.555,5.375 20.821,5.05 21.011,4.782C21.2,4.515 21.333,4.274 21.409,4.062C21.485,3.849 21.523,3.631 21.523,3.408C21.523,3.127 21.466,2.872 21.351,2.644C21.235,2.415 21.066,2.232 20.844,2.096C20.621,1.959 20.352,1.891 20.035,1.891C19.656,1.891 19.341,1.964 19.089,2.11C18.837,2.257 18.648,2.461 18.523,2.723C18.398,2.984 18.336,3.285 18.336,3.625L17.252,3.625C17.252,3.145 17.357,2.705 17.568,2.307C17.779,1.908 18.092,1.591 18.506,1.354C18.92,1.118 19.43,1 20.035,1C20.574,1 21.035,1.095 21.418,1.284C21.801,1.474 22.095,1.739 22.3,2.081C22.505,2.423 22.607,2.822 22.607,3.279C22.607,3.529 22.565,3.782 22.481,4.038C22.397,4.294 22.282,4.549 22.136,4.803C21.989,5.057 21.819,5.307 21.626,5.553C21.433,5.799 21.227,6.041 21.008,6.279L18.723,8.758L23,8.758Z"/>
</svg>
