<svg width="24" height="24" xmlns="http://www.w3.org/2000/svg">
    <path d="M5.632,7.682L5.632,19.834L4.097,19.834L4.097,9.599L1,10.728L1,9.342L5.392,7.682L5.632,7.682ZM13.987,12.828L13.987,14.671C13.987,15.661,13.898,16.497,13.721,17.178C13.544,17.858,13.289,18.406,12.957,18.821C12.625,19.236,12.225,19.537,11.758,19.722C11.29,19.907,10.763,20,10.176,20C9.712,20,9.283,19.942,8.89,19.826C8.497,19.709,8.144,19.523,7.831,19.265C7.519,19.008,7.252,18.672,7.03,18.257C6.809,17.842,6.64,17.338,6.524,16.746C6.408,16.154,6.35,15.462,6.35,14.671L6.35,12.828C6.35,11.838,6.44,11.008,6.62,10.338C6.799,9.668,7.055,9.13,7.387,8.723C7.719,8.317,8.119,8.025,8.587,7.848C9.054,7.671,9.579,7.582,10.16,7.582C10.63,7.582,11.063,7.639,11.459,7.752C11.855,7.866,12.207,8.046,12.517,8.292C12.827,8.538,13.091,8.865,13.31,9.271C13.529,9.678,13.696,10.175,13.812,10.761C13.928,11.348,13.987,12.037,13.987,12.828ZM12.443,14.92L12.443,12.571C12.443,12.028,12.411,11.551,12.347,11.139C12.283,10.727,12.191,10.374,12.069,10.081C11.947,9.787,11.794,9.549,11.608,9.367C11.423,9.184,11.21,9.05,10.969,8.964C10.728,8.878,10.459,8.835,10.16,8.835C9.795,8.835,9.471,8.903,9.189,9.039C8.906,9.174,8.67,9.389,8.479,9.682C8.288,9.975,8.143,10.36,8.043,10.836C7.944,11.312,7.894,11.89,7.894,12.571L7.894,14.92C7.894,15.462,7.926,15.941,7.989,16.356C8.053,16.771,8.148,17.129,8.276,17.431C8.403,17.733,8.558,17.98,8.74,18.174C8.923,18.368,9.135,18.51,9.375,18.601C9.616,18.693,9.883,18.738,10.176,18.738C10.553,18.738,10.882,18.666,11.164,18.522C11.446,18.379,11.683,18.153,11.874,17.846C12.065,17.539,12.207,17.143,12.301,16.659C12.396,16.175,12.443,15.595,12.443,14.92ZM16,0L16,2L14,2L14,0L16,0ZM20,0L20,2L18,2L18,0L20,0ZM24,0L24,2L22,2L22,0L24,0ZM24,4L24,6L22,6L22,4L24,4ZM16,4L16,6L14,6L14,4L16,4ZM16,8L16,10L14,10L14,8L16,8ZM20,8L20,10L18,10L18,8L20,8ZM24,8L24,10L22,10L22,8L24,8Z"/>
</svg>
