<?xml version="1.0" encoding="UTF-8" standalone="no"?>
<!-- Created with Inkscape (http://www.inkscape.org/) -->

<svg
   xmlns:dc="http://purl.org/dc/elements/1.1/"
   xmlns:cc="http://creativecommons.org/ns#"
   xmlns:rdf="http://www.w3.org/1999/02/22-rdf-syntax-ns#"
   xmlns:svg="http://www.w3.org/2000/svg"
   xmlns="http://www.w3.org/2000/svg"
   xmlns:sodipodi="http://sodipodi.sourceforge.net/DTD/sodipodi-0.dtd"
   xmlns:inkscape="http://www.inkscape.org/namespaces/inkscape"
   id="svg2"
   version="1.1"
   inkscape:version="0.48.2 r9819"
   width="357"
   height="356"
   sodipodi:docname="mode_angularbisector.gif">
  <metadata
     id="metadata8">
    <rdf:RDF>
      <cc:Work
         rdf:about="">
        <dc:format>image/svg+xml</dc:format>
        <dc:type
           rdf:resource="http://purl.org/dc/dcmitype/StillImage" />
        <dc:title></dc:title>
      </cc:Work>
    </rdf:RDF>
  </metadata>
  <defs
     id="defs6" />
  <sodipodi:namedview
     pagecolor="#ffffff"
     bordercolor="#666666"
     borderopacity="1"
     objecttolerance="10"
     gridtolerance="10"
     guidetolerance="10"
     inkscape:pageopacity="0"
     inkscape:pageshadow="2"
     inkscape:window-width="1618"
     inkscape:window-height="1028"
     id="namedview4"
     showgrid="false"
     inkscape:zoom="1.8750247"
     inkscape:cx="286.85239"
     inkscape:cy="146.16901"
     inkscape:window-x="54"
     inkscape:window-y="-8"
     inkscape:window-maximized="1"
     inkscape:current-layer="svg2" />
  <g
     id="g3034">
    <path
       style="fill:#fd0c0c"
       d="m 260.45319,314.59657 c -8.4795,-1.61292 -16.64719,-8.12852 -19.92793,-15.89709 -0.81294,-1.925 -1.75725,-6.875 -2.09846,-11 l -0.62038,-7.5 -64.33936,-23.42183 -64.33936,-23.42183 -4.73496,5.15035 c -13.153356,14.30726 -34.989676,12.92756 -45.114436,-2.8505 -1.7492,-2.7259 -3.75171,-4.95619 -4.45,-4.95619 -1.68064,0 -49.5204008,11.52972 -51.7718808,12.47739 -1.50217,0.63227 -1.75,0.15496 -1.75,-3.3704 0,-3.54768 0.29554,-4.10699 2.17017,-4.10699 1.86433,0 49.7333408,-10.96826 50.6669008,-11.60934 0.18539,-0.12731 0.70403,-3.19042 1.15254,-6.80691 2.36991,-19.10953 19.69013,-29.10672 38.79968,-22.39507 l 6.289286,2.20893 4.83599,-4.94881 c 21.42394,-21.92374 88.08543,-93.840148 88.08543,-95.029208 0,-0.8246 -0.95979,-3.380611 -2.13286,-5.680023 -3.005,-5.890283 -3.57096,-15.104491 -1.34027,-21.820459 3.54989,-10.687728 15.09691,-18.919115 26.5398,-18.919115 14.80916,0 27.93333,13.155489 27.93333,28 0,9.795331 -6.6894,20.758077 -15.37179,25.191635 -5.72804,2.92497 -15.77893,3.52359 -21.62821,1.28816 -9.01453,-3.44509 -5.63535,-6.243088 -51.95598,43.0202 -23.27161,24.75 -44.14271,46.90977 -46.38024,49.24392 l -4.06823,4.2439 2.24573,4.62239 c 2.01664,4.15086 2.52183,4.56429 4.95223,4.05274 15.97177,-3.36168 243.17026,-57.89124 244.51622,-58.68596 1.6441,-0.97075 1.78139,-0.68509 1.5,3.12099 -0.26846,3.63135 -0.64282,4.22577 -2.80973,4.46147 -2.42262,0.26352 -243.33182,57.38263 -243.59219,57.75524 -0.74589,1.06745 -1.14948,8.49889 -0.51684,9.51662 0.82904,1.33369 125.25176,47.11253 128.14727,47.14921 0.84603,0.0107 3.18925,-1.95565 5.20715,-4.36971 5.4342,-6.50104 12.38546,-9.6108 21.48307,-9.6108 11.60676,0 19.45134,4.48013 24.82258,14.17645 2.5759,4.6501 2.94896,6.33558 2.94896,13.32355 0,6.98797 -0.37306,8.67345 -2.94896,13.32355 -6.08209,10.97956 -17.90334,16.45139 -30.40427,14.07354 z"
       id="path2993"
       inkscape:connector-curvature="0" />
    <g
       transform="translate(-21.333052,-44.266083)"
       id="g3019" />
    <g
       transform="translate(305.06264,-17.066442)"
       id="g3027">
      <g
         transform="translate(-21.333052,-44.266083)"
         id="g3022">
        <path
           sodipodi:nodetypes="ssscccsscsscssssssssssssscsssssssssssssssssssssssss"
           inkscape:connector-curvature="0"
           id="path2989"
           d="m -23.276399,375.92909 c -8.4795,-1.61292 -16.64719,-8.12852 -19.92793,-15.89709 -0.81294,-1.925 -1.75725,-6.875 -2.09846,-11 l -0.62038,-7.5 -64.339361,-23.42183 -64.33936,-23.42183 -4.73496,5.15035 c -13.72292,14.92679 -34.82695,12.97486 -46.05573,-4.25973 l -3.36666,-7.72854 -0.14496,-5.99255 c -0.52523,-21.71288 18.9825,-32.76267 39.27032,-25.63719 l 6.28929,2.20893 4.83599,-4.94881 c 21.42394,-21.92373 88.085431,-93.84015 88.085431,-95.0292 0,-0.8246 -0.95979,-3.38061 -2.13286,-5.68003 -3.005,-5.89028 -3.57096,-15.10449 -1.34027,-21.82046 3.54989,-10.68772 15.09691,-18.91911 26.5398,-18.91911 14.80916,0 27.93333,13.15549 27.93333,28 0,9.79533 -6.6894,20.75807 -15.37179,25.19164 -5.72804,2.92497 -15.77893,3.52359 -21.62821,1.28816 -9.01453,-3.44509 -5.63535,-6.24309 -51.955981,43.0202 -23.27161,24.75 -44.09752,46.86371 -46.27981,49.14158 -4.41799,4.61147 -4.42661,5.62965 -0.10158,12.00293 2.27067,3.34602 2.51716,4.52689 2.08048,9.96702 -0.27245,3.39421 -0.16444,6.70674 0.24003,7.36118 0.7656,1.23878 125.352851,46.97356 128.055101,47.0078 0.84603,0.0107 3.18925,-1.95565 5.20715,-4.36971 5.4342,-6.50104 12.38546,-9.6108 21.48307,-9.6108 11.6067558,0 19.4513358,4.48013 24.8225758,14.17645 2.5759,4.6501 2.9489602,6.33558 2.9489602,13.32355 0,6.98797 -0.3730602,8.67345 -2.9489602,13.32355 -6.08209,10.97956 -17.9033398,16.45139 -30.4042658,14.07354 z m 14.7377458,-8.83818 c 6.92602,-3.53339 12.10433,-11.47301 12.10433,-18.55891 0,-10.71837 -9.96482,-20.5 -20.8839058,-20.5 -6.24304,0 -8.90799,1.01017 -13.65083,5.17444 -6.84623,6.01107 -9.14843,14.82753 -5.90343,22.60768 1.90973,4.57872 6.9456,10.00428 10.94932,11.7966 4.48639,2.0084 12.923316,1.75613 17.3845158,-0.51981 z M -195.98669,301.94368 c 5.44812,-1.37185 11.01281,-5.91189 13.69837,-11.176 3.00738,-5.89497 2.32571,-15.02059 -1.53856,-20.59673 -3.44038,-4.96447 -11.24961,-9.13895 -17.09629,-9.13895 -5.84669,0 -13.65592,4.17448 -17.09629,9.13895 -3.88041,5.59943 -4.54678,14.70014 -1.51194,20.64891 2.50716,4.91445 7.64343,9.26991 12.83668,10.88529 4.88469,1.51939 5.56138,1.53447 10.70803,0.23853 z M -55.977699,157.28967 c 16.60455,-11.65721 8.66726,-37.82436 -11.43148,-37.68652 -18.39229,0.12613 -27.67039,21.26893 -15.18203,34.59657 6.99243,7.46237 18.48483,8.79669 26.61351,3.08995 z"
           style="fill:#08080c" />
      </g>
      <path
         style="fill:#0000ff;fill-opacity:1;stroke:none"
         d="m -225.64635,258.10607 c -5.45683,-1.46696 -9.24465,-3.87502 -12.98146,-8.25281 -3.30945,-3.8771 -4.49625,-7.37729 -4.41737,-13.02792 0.0801,-5.73681 1.69051,-10.0722 5.09237,-13.70908 2.80833,-3.00233 8.83106,-6.25422 12.98843,-7.01293 7.88629,-1.43923 18.20224,4.35091 21.81257,12.24298 1.39579,3.05114 1.59778,4.14912 1.6109,8.75627 0.0134,4.72286 -0.15369,5.61179 -1.6161,8.59464 -2.97355,6.06511 -8.40164,10.37416 -15.42284,12.24333 -3.29866,0.87815 -4.32611,0.90222 -7.0665,0.16552 z"
         id="path3013"
         inkscape:connector-curvature="0" />
      <path
         style="fill:#0000ff;fill-opacity:1;stroke:none"
         d="m -95.169491,115.78336 c -5.860779,-1.87264 -10.983959,-6.36343 -13.639489,-11.95587 -1.30331,-2.74471 -1.50197,-3.875249 -1.48834,-8.469799 0.0135,-4.5475 0.22992,-5.75813 1.52029,-8.50418 1.81352,-3.8594 6.05437,-8.19268 9.901435,-10.11725 5.923711,-2.96347 13.98372,-3.07021 19.565161,-0.2591 3.681109,1.85398 7.595901,5.90454 9.568742,9.90058 1.676547,3.39589 1.815199,4.10523 1.809788,9.25901 -0.0052,4.942729 -0.183307,5.940979 -1.556649,8.724079 -2.015991,4.08544 -6.314855,8.35291 -10.418224,10.34211 -2.700813,1.30928 -4.105013,1.60722 -8.074843,1.71326 -2.875712,0.0768 -5.762206,-0.17731 -7.187871,-0.63284 z"
         id="path3015"
         inkscape:connector-curvature="0" />
      <path
         style="fill:#0000ff;fill-opacity:1;stroke:none"
         d="m -43.899716,324.82623 c -5.099882,-0.78571 -11.267991,-5.98843 -14.379256,-12.12874 -1.465678,-2.89263 -1.633881,-3.77016 -1.633881,-8.52398 0,-4.70695 0.179169,-5.66426 1.60274,-8.56347 2.051241,-4.17749 6.884628,-9.01087 10.888238,-10.88823 2.662375,-1.24842 3.875873,-1.46494 8.14869,-1.4539 4.289353,0.011 5.502187,0.23669 8.328459,1.54918 6.474546,3.0067 11.012041,8.14448 12.886041,14.59083 1.646203,5.66272 0.08617,12.18302 -4.213881,17.61228 -2.141754,2.7042 -6.442954,5.88828 -9.330231,6.90695 -2.953033,1.04191 -8.660999,1.45923 -12.296919,0.89908 z"
         id="path3017"
         inkscape:connector-curvature="0" />
    </g>
  </g>
</svg>
