<?xml version="1.0" encoding="UTF-8" standalone="no"?>
<!-- Created with Inkscape (http://www.inkscape.org/) -->

<svg
   xmlns:dc="http://purl.org/dc/elements/1.1/"
   xmlns:cc="http://creativecommons.org/ns#"
   xmlns:rdf="http://www.w3.org/1999/02/22-rdf-syntax-ns#"
   xmlns:svg="http://www.w3.org/2000/svg"
   xmlns="http://www.w3.org/2000/svg"
   xmlns:xlink="http://www.w3.org/1999/xlink"
   xmlns:sodipodi="http://sodipodi.sourceforge.net/DTD/sodipodi-0.dtd"
   xmlns:inkscape="http://www.inkscape.org/namespaces/inkscape"
   id="svg2"
   version="1.1"
   inkscape:version="0.48.2 r9819"
   width="346"
   height="352"
   sodipodi:docname="mode_linebisector.gif">
  <metadata
     id="metadata8">
    <rdf:RDF>
      <cc:Work
         rdf:about="">
        <dc:format>image/svg+xml</dc:format>
        <dc:type
           rdf:resource="http://purl.org/dc/dcmitype/StillImage" />
        <dc:title></dc:title>
      </cc:Work>
    </rdf:RDF>
  </metadata>
  <defs
     id="defs6" />
  <sodipodi:namedview
     pagecolor="#ffffff"
     bordercolor="#666666"
     borderopacity="1"
     objecttolerance="10"
     gridtolerance="10"
     guidetolerance="10"
     inkscape:pageopacity="0"
     inkscape:pageshadow="2"
     inkscape:window-width="1618"
     inkscape:window-height="1028"
     id="namedview4"
     showgrid="false"
     inkscape:zoom="1.3409091"
     inkscape:cx="173"
     inkscape:cy="192.76581"
     inkscape:window-x="54"
     inkscape:window-y="-8"
     inkscape:window-maximized="1"
     inkscape:current-layer="svg2" />
  <g
     id="g3021">
    <path
       style="fill:#fdfdfd"
       d="m 0.74576254,176.74577 0,-176.00000726 172.99999746,0 173,0 0,176.00000726 0,176 -173,0 -172.99999746,0 0,-176 z"
       id="path3003"
       inkscape:connector-curvature="0" />
    <path
       style="fill:#fd0c0c"
       d="m 312.44986,350.85034 c -0.50225,-0.89747 -31.91211,-39.54555 -69.79969,-85.88463 -48.4797,-59.29396 -69.28344,-84.03818 -70.22643,-83.52817 -0.73695,0.39859 -15.67246,12.38417 -33.19002,26.63463 -22.16081,18.02773 -31.86377,26.51836 -31.89503,27.90993 -0.0247,1.1 0.60356,3.8 1.39613,6 6.20112,17.21276 -7.56373,36.46067 -26.095425,36.49023 -11.82512,0.0189 -20.24033,-5.02929 -25.31605,-15.18671 -9.48589,-18.98296 3.79482,-40.25686 25.10106,-40.20849 5.53877,0.0126 7.7571,0.57161 13.16951,3.31881 3.96194,2.01097 7.029385,2.99522 7.839255,2.51537 4.05828,-2.4045 64.8276,-52.84042 64.81283,-53.79184 C 168.2246,173.74144 30.063025,4.7053569 26.954745,2.2543319 c -2.14466,-1.69116201 -2.06927,-1.72823501 3.55892,-1.75000001 3.48097,-0.01346 5.75,0.405961 5.75,1.06286701 0,0.915391 130.710085,161.6319611 136.119235,167.3674811 1.82357,1.9336 1.87326,1.92908 5.11112,-0.46461 5.44508,-4.02544 62.67462,-51.02521 63.23478,-51.93157 0.28687,-0.46416 -0.22627,-2.57924 -1.14031,-4.70017 -0.98823,-2.2931 -1.69491,-6.72154 -1.74336,-10.92493 -0.069,-5.984437 0.38028,-7.971877 2.92892,-12.957037 6.65341,-13.01417 22.42228,-18.70751 36.04701,-13.01473 1.77195,0.74037 5.14204,3.07735 7.48908,5.19329 11.66898,10.51999 12.13349,29.262447 1.00114,40.394797 -5.52185,5.52184 -11.83418,7.95238 -20.6531,7.95238 -5.17636,0 -7.38301,-0.59099 -12.8536,-3.44245 l -6.6044,-3.44245 -5.71826,4.62974 c -26.22623,21.23388 -55.29653,45.10806 -57.96499,47.60415 -1.78571,1.67036 -2.89009,3.28766 -2.45418,3.59401 0.4359,0.30635 32.2284,39.032 70.64998,86.057 38.42159,47.025 70.80097,86.27749 71.95418,87.22776 2.04447,1.68469 1.96708,1.72832 -3.10356,1.75 -3.78599,0.0162 -5.44867,-0.42155 -6.11349,-1.60952 z"
       id="path2993"
       inkscape:connector-curvature="0" />
    <path
       style="fill:#08080c"
       d="m 72.051816,277.01661 c -9.993886,-3.66635 -17.678934,-14.72465 -17.678934,-25.43886 0,-16.49067 11.859126,-28.4604 28.160734,-28.42339 5.538769,0.0126 7.757105,0.57161 13.169514,3.31881 3.961939,2.01097 7.02939,2.99522 7.83926,2.51537 3.2764,-1.94125 64.83049,-52.74655 64.83049,-53.50957 0,-0.47029 2.5875,-2.57751 5.75,-4.6827 5.63858,-3.75345 65.69055,-52.52271 66.71514,-54.18054 0.28687,-0.46416 -0.12491,-2.39121 -0.91507,-4.28233 -5.78553,-13.846718 -0.18474,-29.561833 12.9242,-36.263694 4.98516,-2.548633 6.97259,-2.997888 12.95704,-2.928912 8.32997,0.09601 12.73342,1.768755 18.61517,7.071357 11.66898,10.519992 12.13349,29.262449 1.00114,40.394799 -5.52185,5.52184 -11.83418,7.95238 -20.6531,7.95238 -5.17636,0 -7.38301,-0.59099 -12.8536,-3.44245 l -6.6044,-3.44245 -5.71826,4.63449 c -31.43302,25.47558 -59.42655,48.70933 -60.45455,50.17537 -0.69504,0.9912 -2.83871,2.75548 -4.76371,3.92063 -1.925,1.16515 -17.76051,13.71404 -35.19002,27.88643 -22.05009,17.9295 -31.70369,26.37637 -31.73495,27.76798 -0.0247,1.1 0.60356,3.8 1.39613,6 4.59686,12.75973 -2.14934,28.14446 -14.971158,34.14175 -5.827229,2.72564 -15.617082,3.09152 -21.821066,0.81553 z m 18.891807,-7.35009 c 8.673478,-3.93941 13.917627,-14.86607 11.479847,-23.9193 -1.36157,-5.05649 -7.206896,-11.93111 -11.768469,-13.84076 -1.769835,-0.74092 -5.844234,-1.34713 -9.05422,-1.34713 -17.696666,0 -26.650595,21.33825 -14.424851,34.3761 5.933727,6.32788 15.888972,8.30952 23.767693,4.73109 z M 273.88146,119.69435 c 4.89389,-2.22325 9.86015,-7.69221 11.50159,-12.66583 4.18552,-12.682259 -5.64979,-26.51896 -18.92311,-26.621775 -7.1933,-0.05572 -11.39471,1.677809 -15.89252,6.557353 -9.97853,10.825426 -5.96537,27.974822 7.83534,33.482642 3.93877,1.57195 11.13193,1.2223 15.4787,-0.75239 z"
       id="path2989"
       inkscape:connector-curvature="0" />
    <path
       transform="translate(29.530697,51.151385)"
       d="m 73.82674,200.12784 a 21.357021,21.620689 0 1 1 -42.714042,0 21.357021,21.620689 0 1 1 42.714042,0 z"
       sodipodi:ry="21.620689"
       sodipodi:rx="21.357021"
       sodipodi:cy="200.12784"
       sodipodi:cx="52.469719"
       id="path3017"
       style="fill:#0000ff;fill-opacity:1;stroke:none"
       sodipodi:type="arc" />
    <use
       height="352"
       width="346"
       transform="translate(183.8305,-150.83051)"
       id="use3019"
       xlink:href="#path3017"
       y="0"
       x="0" />
  </g>
</svg>
