<?xml version="1.0" encoding="UTF-8" standalone="no"?>
<!-- Created with Inkscape (http://www.inkscape.org/) -->

<svg
   xmlns:dc="http://purl.org/dc/elements/1.1/"
   xmlns:cc="http://creativecommons.org/ns#"
   xmlns:rdf="http://www.w3.org/1999/02/22-rdf-syntax-ns#"
   xmlns:svg="http://www.w3.org/2000/svg"
   xmlns="http://www.w3.org/2000/svg"
   xmlns:sodipodi="http://sodipodi.sourceforge.net/DTD/sodipodi-0.dtd"
   xmlns:inkscape="http://www.inkscape.org/namespaces/inkscape"
   id="svg2"
   version="1.1"
   inkscape:version="0.48.2 r9819"
   width="354"
   height="353"
   sodipodi:docname="mode_tangent.gif">
  <metadata
     id="metadata8">
    <rdf:RDF>
      <cc:Work
         rdf:about="">
        <dc:format>image/svg+xml</dc:format>
        <dc:type
           rdf:resource="http://purl.org/dc/dcmitype/StillImage" />
        <dc:title></dc:title>
      </cc:Work>
    </rdf:RDF>
  </metadata>
  <defs
     id="defs6" />
  <sodipodi:namedview
     pagecolor="#ffffff"
     bordercolor="#666666"
     borderopacity="1"
     objecttolerance="10"
     gridtolerance="10"
     guidetolerance="10"
     inkscape:pageopacity="0"
     inkscape:pageshadow="2"
     inkscape:window-width="1858"
     inkscape:window-height="1058"
     id="namedview4"
     showgrid="false"
     inkscape:zoom="1.8909598"
     inkscape:cx="286.21721"
     inkscape:cy="139.07575"
     inkscape:window-x="54"
     inkscape:window-y="-8"
     inkscape:window-maximized="1"
     inkscape:current-layer="svg2" />
  <g
     id="g3015">
    <path
       style="fill:#fdfdfd"
       d="m 0.52883004,177.02883 0,-176.49999802 176.99999996,0 177,0 0,176.49999802 0,176.5 -177,0 -176.99999996,0 0,-176.5 z"
       id="path3003"
       inkscape:connector-curvature="0" />
    <path
       sodipodi:nodetypes="scssssssssssscscsssssssssssssssscsssssssssssssssssssssssss"
       style="fill:#fc0b0b"
       d="m 25.132206,355.38853 c 0,-0.50416 0.77618,-3.84303 1.240081,-4.02637 0.463902,-0.18333 7.188334,-12.03154 14.943184,-26.32936 13.67332,-25.20985 16.426292,-27.77533 14.720904,-29.7187 -0.967211,-1.10218 -1.188434,-12.38949 -3.250715,-7.4032 -0.843905,2.04044 -4.793068,1.97936 -6.44657,2.24905 -8.847998,1.44317 -47.01683763,8.50808 -48.4887482,8.9391 -1.5653754,0.45839 0.07879,-0.65804 0.3509119,-3.96758 0.1894556,-2.30392 -0.2650868,-2.29158 0.4511072,-2.15289 0.65623074,0.12708 13.6758461,-3.09923 24.5696161,-5.06893 10.893769,-1.9697 20.819735,-3.64868 22.057703,-3.73105 1.741182,-0.11586 7.021769,-0.67787 7.512483,-3.38535 1.897746,-10.47069 3.773122,-16.32643 15.076519,-17.20677 l 6.631316,0.76443 71.268662,-131.32208 C 184.59543,61.485284 220.3471,-3.4830278 220.35269,-4.1705278 c 0.007,-0.8133085 -0.79748,1.5263679 2.13043,1.5263679 3.99647,0 6.74369,0.3407265 4.23087,1.2412108 -1.29833,0.46526166 -47.85183,86.4372611 -47.85183,88.3640471 0,1.321546 -4.59171,7.5801 -1.57277,5.790894 10.17951,-6.03301 19.50747,-14.366842 27.73944,-17.106754 26.00289,-8.654744 52.58311,-5.832837 77,8.174758 8.95957,5.139969 24.34172,21.809094 29.4247,30.572144 14.76897,25.46164 18.85209,53.30359 9.046,80.40404 -5.38672,14.88692 -19.20238,29.12277 -33.56915,41.56244 -3.89778,3.37496 0.16233,2.67691 2.59845,2.93227 2.54968,0.26727 69.45299,-11.43334 72.63677,-12.722 1.49107,-0.60352 0.0313,-0.38759 0.0313,2.98207 0,3.62385 3.7361,2.50874 1.21624,2.59878 -3.42992,0.12256 -269.516237,49.03113 -272.715626,50.10013 -1.662849,0.5556 -7.071409,0.31106 -8.338621,4.0802 -3.183952,9.47021 -13.283916,0.70721 -18.078734,9.58836 l -3.568869,6.6104 -13.091225,24.09721 c -7.200174,13.25347 -15.603177,28.29809 -15.603177,29.06962 0,0.9959 0.281228,1.13837 -2.913504,1.13837 -2.475,0 -3.971168,-0.94133 -3.971168,-1.4455 z M 153.42695,264.4501 c 30.46896,-5.49248 55.78146,-10.22324 56.25,-10.51281 1.92994,-1.19277 14.36849,-2.53866 7.48372,-5.05859 -22.63676,-8.2854 -54.76759,-24.38601 -65.13377,-45.69644 -5.6375,-11.58938 -6.41088,-27.27945 -7.30781,-40.97474 -0.64668,-9.87428 -2.83263,-5.66259 -4.3555,-4.4761 -0.91588,0.71357 -14.828,25.54132 -30.91582,55.17275 -24.395937,44.9338 -31.433013,55.59928 -30.441476,56.95429 0.653867,0.89357 2.08238,3.94389 3.174474,5.64738 2.397322,3.73943 -3.207274,2.36557 71.246182,-11.05574 z m 88.3481,-16.38706 c 20.92612,-1.82744 39.8467,-9.09741 55.04703,-24.65676 20.20494,-20.68219 27.92063,-52.77142 21.12786,-80.37745 -7.91655,-32.17315 -32.1991,-56.116036 -65.06768,-64.15754 -9.36169,-2.290397 -33.14158,-3.619378 -41.8485,-1.33545 -27.6981,7.265547 -44.60757,26.30044 -54.98548,50.54378 -1.40068,3.27207 -2.95123,6.66761 -3.44566,7.54566 -0.49442,0.87805 -2.99846,6.51022 -3.94865,12.19276 -7.16081,42.82479 19.70634,84.48243 60.37486,96.6472 8.22972,2.46167 20.88821,4.8673 23.73558,4.46765 1.1,-0.15439 5.30022,-0.54582 9.01064,-0.86985 z"
       id="path2993"
       inkscape:connector-curvature="0" />
    <path
       sodipodi:nodetypes="sssscsssssssssssscssssscsssssssscssssssss"
       style="fill:#0c0a0b"
       d="m 58.425454,299.46013 c -3.249991,-1.88007 -8.728237,-9.76529 -9.135103,-12.88146 -0.859619,-6.58379 1.803201,-16.07162 7.435113,-19.79872 3.458773,-2.28896 9.510584,-4.61467 15.831695,-2.97559 l 4.138715,1.62645 2.740192,2.13796 c 4.664131,3.63906 6.977436,11.25331 6.977436,13.33884 0,0.76473 0.503776,3.30413 -0.334786,6.12788 -2.994485,10.08352 -8.704153,14.32459 -19.363424,14.27306 -3.459411,-0.0167 -7.189838,-1.21208 -8.289838,-1.84842 z m 16.205493,-6.2139 c 4.824457,-3.24093 6.783779,-9.10285 4.791878,-14.33639 -3.419211,-8.98367 -14.134109,-11.06026 -20.609646,-3.99423 -9.796706,10.69006 3.77653,26.41957 15.817768,18.33062 z M 202.02883,248.74211 c -17.4855,-7.29232 -29.21061,-15.84582 -39.54048,-28.84488 -11.74027,-14.77389 -18.39114,-32.51922 -19.81484,-52.8684 l -0.7696,-11 4.52478,-8.70435 c 2.48863,-4.78739 4.63212,-8.597 4.76332,-8.4658 0.1312,0.1312 -0.46685,4.27316 -1.32901,9.20435 -2.10261,12.02602 -1.30354,26.01255 2.16902,37.9658 9.78131,33.66919 36.50947,56.29476 73.49681,62.21557 l 5.5,0.88042 -5,1.13609 c -11.73992,2.66753 -14.35955,2.50175 -24,-1.5188 z m 66.5,-6.69296 c 0,-0.26382 1.9125,-1.45216 4.25,-2.64075 35.23884,-17.91856 54.41149,-58.82637 45.17111,-96.37957 -7.91656,-32.17318 -32.19906,-56.116028 -65.06768,-64.15754 -9.56485,-2.340101 -28.62132,-2.289297 -37.76897,0.10069 -15.13909,3.95536 -27.85865,10.842013 -39.83446,21.56726 -3.1625,2.83226 -5.73521,4.77607 -5.71713,4.31958 0.0181,-0.4565 1.949,-4.20279 4.29092,-8.325104 4.00239,-7.045116 4.77986,-7.802679 12.94941,-12.617839 24.91149,-14.682922 55.16954,-17.182695 81.58023,-6.739763 12.28965,4.859392 20.16159,10.174575 30.74055,20.756196 13.35882,13.36218 20.003,24.88567 24.5146,42.51746 7.56448,29.56282 -1.35806,63.67438 -22.25769,85.09279 -12.71959,13.03532 -13.61268,13.63322 -22.98829,15.39005 -9.37782,1.75725 -9.8626,1.81213 -9.8626,1.11654 z"
       id="path2989"
       inkscape:connector-curvature="0" />
    <path
       transform="matrix(0.86086957,0,0,0.86086957,17.403171,119.66153)"
       d="m 73.24323,189.19429 c 0,8.39689 -6.688644,15.20392 -14.939504,15.20392 -8.25086,0 -14.939503,-6.80703 -14.939503,-15.20392 0,-8.39689 6.688643,-15.20392 14.939503,-15.20392 8.25086,0 14.939504,6.80703 14.939504,15.20392 z"
       sodipodi:ry="15.203919"
       sodipodi:rx="14.939504"
       sodipodi:cy="189.19429"
       sodipodi:cx="58.303726"
       id="path3013"
       style="fill:#0000ff;fill-opacity:1;stroke:none"
       sodipodi:type="arc" />
  </g>
</svg>
