<?xml version="1.0" encoding="UTF-8" standalone="no"?>
<!-- Created with Inkscape (http://www.inkscape.org/) -->

<svg
   xmlns:dc="http://purl.org/dc/elements/1.1/"
   xmlns:cc="http://creativecommons.org/ns#"
   xmlns:rdf="http://www.w3.org/1999/02/22-rdf-syntax-ns#"
   xmlns:svg="http://www.w3.org/2000/svg"
   xmlns="http://www.w3.org/2000/svg"
   xmlns:xlink="http://www.w3.org/1999/xlink"
   xmlns:sodipodi="http://sodipodi.sourceforge.net/DTD/sodipodi-0.dtd"
   xmlns:inkscape="http://www.inkscape.org/namespaces/inkscape"
   id="svg2"
   version="1.1"
   inkscape:version="0.48.2 r9819"
   width="512"
   height="512"
   sodipodi:docname="absolute_position_on_screen.svg">
  <metadata
     id="metadata8">
    <rdf:RDF>
      <cc:Work
         rdf:about="">
        <dc:format>image/svg+xml</dc:format>
        <dc:type
           rdf:resource="http://purl.org/dc/dcmitype/StillImage" />
        <dc:title />
      </cc:Work>
    </rdf:RDF>
  </metadata>
  <defs
     id="defs6">
    <linearGradient
       inkscape:collect="always"
       id="linearGradient3813">
      <stop
         style="stop-color:#2e2b2b;stop-opacity:1;"
         offset="0"
         id="stop3815" />
      <stop
         style="stop-color:#2e2b2b;stop-opacity:0;"
         offset="1"
         id="stop3817" />
    </linearGradient>
    <linearGradient
       inkscape:collect="always"
       id="linearGradient3803">
      <stop
         style="stop-color:#0d6d35;stop-opacity:1;"
         offset="0"
         id="stop3805" />
      <stop
         style="stop-color:#40ae9d;stop-opacity:1"
         offset="1"
         id="stop3807" />
    </linearGradient>
    <linearGradient
       inkscape:collect="always"
       id="linearGradient3795">
      <stop
         style="stop-color:#0d6d35;stop-opacity:1;"
         offset="0"
         id="stop3797" />
      <stop
         style="stop-color:#5ad6e8;stop-opacity:0.98431373"
         offset="1"
         id="stop3799" />
    </linearGradient>
    <linearGradient
       inkscape:collect="always"
       xlink:href="#linearGradient3795"
       id="linearGradient3801"
       x1="9.8515549"
       y1="7.107233"
       x2="5.1055508"
       y2="3.2720778"
       gradientUnits="userSpaceOnUse" />
    <linearGradient
       inkscape:collect="always"
       xlink:href="#linearGradient3803"
       id="linearGradient3809"
       x1="11.900192"
       y1="4.9545979"
       x2="9.2413473"
       y2="1.078442"
       gradientUnits="userSpaceOnUse" />
    <linearGradient
       inkscape:collect="always"
       xlink:href="#linearGradient3813"
       id="linearGradient3819"
       x1="-8.5092506"
       y1="15.496635"
       x2="13.614801"
       y2="15.496635"
       gradientUnits="userSpaceOnUse"
       gradientTransform="matrix(1,0,0,0.96428571,0,0.57228461)" />
    <filter
       inkscape:collect="always"
       id="filter3831"
       color-interpolation-filters="sRGB">
      <feGaussianBlur
         inkscape:collect="always"
         stdDeviation="0.060315279"
         id="feGaussianBlur3833" />
    </filter>
  </defs>
  <sodipodi:namedview
     pagecolor="#ffffff"
     bordercolor="#666666"
     borderopacity="1"
     objecttolerance="10"
     gridtolerance="10"
     guidetolerance="10"
     inkscape:pageopacity="0"
     inkscape:pageshadow="2"
     inkscape:window-width="1680"
     inkscape:window-height="988"
     id="namedview4"
     showgrid="false"
     inkscape:zoom="0.921875"
     inkscape:cx="7.1754751"
     inkscape:cy="354.15985"
     inkscape:window-x="1358"
     inkscape:window-y="-8"
     inkscape:window-maximized="1"
     inkscape:current-layer="svg2" />
  <g
     id="g3835"
     transform="matrix(31.929792,0,0,31.929792,19.845155,0.38198291)">
    <rect
       transform="matrix(0.97619787,0,-0.55224996,0.78140495,0.16604669,0.52418574)"
       y="12.310671"
       x="11.611399"
       height="6.307816"
       width="2.1843059"
       id="rect3821"
       style="fill:#9e9c9c;fill-opacity:0.91764706;fill-rule:nonzero;stroke:none;filter:url(#filter3831)" />
    <path
       transform="matrix(1.447859,0,1.0846298,1.4779497,-12.392603,4.7463193)"
       d="m 12.847771,3.0084109 c 0,1.1384777 -0.890724,2.0613962 -1.989487,2.0613962 -1.0987633,0 -1.9894869,-0.9229185 -1.9894869,-2.0613962 0,-1.1384776 0.8907236,-2.06139609 1.9894869,-2.06139609 1.098763,0 1.989487,0.92291849 1.989487,2.06139609 z"
       sodipodi:ry="2.0613961"
       sodipodi:rx="1.9894869"
       sodipodi:cy="3.0084109"
       sodipodi:cx="10.858284"
       id="path2987-1"
       style="fill:url(#linearGradient3809);fill-opacity:1;fill-rule:nonzero;stroke:#0d6d35;stroke-width:0.16338228;stroke-linecap:round;stroke-linejoin:round;stroke-miterlimit:4;stroke-opacity:1;stroke-dasharray:none"
       sodipodi:type="arc" />
    <path
       transform="matrix(0.97183384,0,0.72802665,1.0009963,-5.5037953,5.4141598)"
       d="m 12.860103,3.0084109 c 0,1.1384777 -0.896245,2.0613962 -2.001819,2.0613962 -1.1055742,0 -2.0018191,-0.9229185 -2.0018191,-2.0613962 0,-1.1384776 0.8962449,-2.06139609 2.0018191,-2.06139609 1.105574,0 2.001819,0.92291849 2.001819,2.06139609 z"
       sodipodi:ry="2.0613961"
       sodipodi:rx="2.0018191"
       sodipodi:cy="3.0084109"
       sodipodi:cx="10.858284"
       id="path2987-7"
       style="fill:none;stroke:#0d6d35;stroke-width:0.30000001;stroke-linecap:round;stroke-linejoin:round;stroke-miterlimit:4;stroke-opacity:1;stroke-dasharray:none"
       sodipodi:type="arc" />
    <path
       sodipodi:nodetypes="ssasassssssssssssss"
       inkscape:connector-curvature="0"
       id="path3793"
       d="m 13.614802,4.4328331 c -0.09523,0.087122 -4.0373948,5.8759389 -4.1196235,5.9084119 -0.43804,0.172982 -0.927321,0.06854 -1.3755563,-0.02849 C 7.7738125,10.237895 7.2362146,9.9398755 7.1443066,9.8938834 7.0482122,9.8457963 6.4427355,9.4382538 6.1259907,9.1669492 5.9244571,8.9943277 5.635919,8.6817951 5.56942,8.5977789 5.4720631,8.4747762 5.1529712,8.0004406 5.0547962,7.7804681 4.9579872,7.5635563 4.902647,7.3224207 4.9018252,7.0844763 4.9010114,6.848808 5.1046799,6.6610034 5.2418784,6.4788612 5.2689481,6.4429238 5.5451868,5.9099358 5.5451868,5.9099358 5.859768,5.4014551 8.6717806,1.0192813 8.6717806,1.0192813 8.9590269,0.85795925 8.4773892,1.3333385 8.9135847,2.0597825 9.3497801,2.7862265 9.2112071,2.625319 9.3982462,2.8830858 9.6132465,3.1793871 9.8501216,3.4647804 10.125239,3.706389 c 0.270937,0.2379377 0.593896,0.4093992 0.896624,0.60537 0.231394,0.1497929 0.471843,0.2349534 0.726728,0.3399875 0.199261,0.082112 0.366581,0.097611 0.582121,0.097349 0.24884,-3.025e-4 0.518452,0.062906 0.750962,-0.025685 0.189143,-0.072067 0.533128,-0.2905783 0.533128,-0.2905774 z"
       style="fill:url(#linearGradient3801);fill-opacity:1;stroke:none" />
    <path
       transform="matrix(0.97639285,0,0.73144193,1.0065665,-1.620554,-0.36731582)"
       d="m 12.847771,3.0084109 c 0,1.1384777 -0.890724,2.0613962 -1.989487,2.0613962 -1.0987633,0 -1.9894869,-0.9229185 -1.9894869,-2.0613962 0,-1.1384776 0.8907236,-2.06139609 1.9894869,-2.06139609 1.098763,0 1.989487,0.92291849 1.989487,2.06139609 z"
       sodipodi:ry="2.0613961"
       sodipodi:rx="1.9894869"
       sodipodi:cy="3.0084109"
       sodipodi:cx="10.858284"
       id="path2987"
       style="fill:#00a289;fill-opacity:0.98039216;fill-rule:nonzero;stroke:#0d6d35;stroke-width:0.19872104;stroke-linecap:round;stroke-linejoin:round;stroke-miterlimit:4;stroke-opacity:1;stroke-dasharray:none"
       sodipodi:type="arc" />
    <rect
       y="15.053195"
       x="1.0067283"
       height="0.97077376"
       width="12.08074"
       id="rect3811"
       style="fill:url(#linearGradient3819);fill-opacity:1;fill-rule:nonzero;stroke:none" />
  </g>
</svg>
