<?xml version="1.0" encoding="UTF-8" standalone="no"?>
<!-- Created with Inkscape (http://www.inkscape.org/) -->

<svg
   xmlns:dc="http://purl.org/dc/elements/1.1/"
   xmlns:cc="http://creativecommons.org/ns#"
   xmlns:rdf="http://www.w3.org/1999/02/22-rdf-syntax-ns#"
   xmlns:svg="http://www.w3.org/2000/svg"
   xmlns="http://www.w3.org/2000/svg"
   xmlns:sodipodi="http://sodipodi.sourceforge.net/DTD/sodipodi-0.dtd"
   xmlns:inkscape="http://www.inkscape.org/namespaces/inkscape"
   id="svg2"
   version="1.1"
   inkscape:version="0.48.2 r9819"
   width="357"
   height="357"
   sodipodi:docname="mode_orthogonal.gif">
  <metadata
     id="metadata8">
    <rdf:RDF>
      <cc:Work
         rdf:about="">
        <dc:format>image/svg+xml</dc:format>
        <dc:type
           rdf:resource="http://purl.org/dc/dcmitype/StillImage" />
        <dc:title></dc:title>
      </cc:Work>
    </rdf:RDF>
  </metadata>
  <defs
     id="defs6" />
  <sodipodi:namedview
     pagecolor="#ffffff"
     bordercolor="#666666"
     borderopacity="1"
     objecttolerance="10"
     gridtolerance="10"
     guidetolerance="10"
     inkscape:pageopacity="0"
     inkscape:pageshadow="2"
     inkscape:window-width="1618"
     inkscape:window-height="1028"
     id="namedview4"
     showgrid="false"
     inkscape:zoom="0.93488628"
     inkscape:cx="-12.722622"
     inkscape:cy="26.89853"
     inkscape:window-x="54"
     inkscape:window-y="-8"
     inkscape:window-maximized="1"
     inkscape:current-layer="svg2" />
  <g
     id="g3017">
    <path
       style="fill:#fdfdfd"
       d="m 1.0696475,179.03482 0,-178.49999559 178.5000025,0 178.5,0 0,178.49999559 0,178.5 -178.5,0 -178.5000025,0 0,-178.5 z"
       id="path3003"
       inkscape:connector-curvature="0" />
    <path
       sodipodi:nodetypes="csssssssssssscssssscsssscssscsssssssssc"
       style="fill:#fd0c0c"
       d="m 231.06965,355.57483 c 0,-3.48899 -24.92132,-89.96549 -26.13101,-90.73994 -0.64418,-0.41241 -0.81899,0.88199 -1.36899,1.07883 -0.55,0.19684 -45.775,12.84151 -100.5,28.09927 -54.725005,15.25775 -100.281364,28.12725 -101.005254,28.71442 -1.05746,0.85774 -1.06493096,0.30717 -0.810911,-3.18743 0.25486,-3.50627 0.70392,-4.3827 2.31616,-4.52051 4.19067,-0.3582 198.735515,-53.91843 200.032595,-55.10276 1.14022,-1.04112 -2.13137,-12.33056 -16.53195,-64.03166 -9.47512,-34.01763 -17.63069,-62.35146 -18.12351,-62.96408 -0.49281,-0.61261 -3.79886,-1.34686 -7.34678,-1.63165 -14.58165,-1.17048 -24.47235,-12.17379 -24.49862,-27.2545 -0.0188,-10.769826 4.37077,-18.404226 14.66165,-25.499996 l 2.17543,-1.5 -10.28551,-36.5 c -5.65703,-20.075 -9.8693,-41.44745723 -10.28504,-42.4099572 -0.65018,-1.5052965 -0.93796,-1.3718221 2.59475,-1.3718221 3.31602,0 4.10699,-0.781415 4.10699,0.6989884 0,1.0084373 4.33785,22.2372509 9.63966,41.1663129 5.30181,18.929063 9.65181,34.920909 9.66667,35.537437 0.0155,0.643436 2.73616,1.373944 6.38661,1.714828 11.50784,1.074618 19.61204,6.465588 24.31064,16.171605 5.00392,10.336714 1.92377,25.367604 -6.62173,32.313504 -2.13502,1.73538 -4.83719,3.9481 -6.00482,4.91716 l -2.12296,1.76194 17.32135,61.83535 c 9.52674,34.00944 18.32111,64.26744 18.88936,64.95215 0.80431,0.96913 16.3971,-5.06288 72.2668,-20.65111 39.47263,-11.01327 71.91842,-20.38689 72.10175,-20.83026 0.18334,-0.44337 0.77171,-0.80613 1.3075,-0.80613 0.53579,0 0.83579,1.86469 0.66667,4.14376 -0.26593,3.5836 -0.64546,4.18034 -2.8075,4.41435 -1.375,0.14882 -33.23815,8.85912 -70.80699,19.35623 -37.56885,10.49711 -70.25958,19.62048 -71.01188,19.62048 -0.94463,0 -0.32912,-1.26751 -0.0998,0.977 0.30926,3.02637 23.80128,87.87729 25.40547,91.73818 0.62351,1.50063 0.61461,3.54635 -2.90714,3.54635 -3.41238,0 -4.57971,-2.12784 -4.57971,-3.75634 z"
       id="path2993"
       inkscape:connector-curvature="0" />
    <path
       sodipodi:nodetypes="ssscsssssssscssssssssssssssssss"
       style="fill:#0a0a0c"
       d="m -2.2446626,319.75751 c 0.2748351,-3.75627 -0.8697489,-3.22755 1.30345204,-3.49995 1.375,-0.17235 51.80737556,-14.02226 105.94757056,-29.15982 54.14019,-15.13756 98.87538,-27.68585 99.00298,-27.55824 0.12761,0.12761 -0.0671,1.57104 0.3026,3.04422 0.64918,2.58656 2.84413,2.47974 -3.76201,4.41052 -3.76254,1.09968 -51.28028,14.18236 -102.980282,28.58235 -51.700001,14.4 -94.5922743,26.66132 -95.3161644,27.24738 -1.0569935,0.85574 -4.7520532,0.40377 -4.4981462,-3.06646 z M 212.5377,260.43416 c -0.3667,-1.15537 -1.08676,-2.46567 -0.61963,-2.91179 0.46714,-0.44612 33.60158,-9.71165 72.65158,-20.59006 39.05,-10.87841 71.15,-20.1431 71.33333,-20.58821 0.18334,-0.4451 0.77171,-0.80928 1.3075,-0.80928 0.53579,0 0.83579,1.86469 0.66667,4.14376 -0.26593,3.5836 -0.64546,4.18034 -2.8075,4.41435 -1.375,0.14882 -33.23815,8.85912 -70.80699,19.35623 -37.56885,10.49711 -70.12938,19.62048 -70.88597,19.62048 -0.75659,0 -0.47229,-1.48012 -0.83899,-2.63548 z M 161.79432,131.51792 c -15.15346,-1.84012 -24.66672,-12.42832 -24.69294,-27.4831 -0.0198,-11.389347 4.90864,-19.368791 16.30877,-26.404708 3.41549,-2.107965 4.65134,-2.308952 11.16732,-1.81615 12.41421,0.938884 20.62396,6.164458 25.49576,16.228254 4.24982,8.778964 2.46539,22.821574 -3.79177,29.839454 -3.2861,3.6856 -12.20914,9.70127 -14.94966,10.07865 -1.51918,0.20919 -5.81105,0.0101 -9.53748,-0.4424 z m 14.45374,-10.54728 c 16.58323,-11.68062 8.53484,-37.578673 -11.67841,-37.578673 -12.65512,0 -21.3613,9.743173 -20.28658,22.702913 1.25257,15.10432 19.55077,23.61987 31.96499,14.87576 z"
       id="path2989"
       inkscape:connector-curvature="0" />
    <path
       transform="matrix(0.95808383,0,0,0.97633136,101.29318,-31.226988)"
       d="m 87.978615,138.12311 a 22.328918,22.596331 0 1 1 -44.657837,0 22.328918,22.596331 0 1 1 44.657837,0 z"
       sodipodi:ry="22.596331"
       sodipodi:rx="22.328918"
       sodipodi:cy="138.12311"
       sodipodi:cx="65.649696"
       id="path3015"
       style="fill:#0000ff;fill-opacity:1;stroke:none"
       sodipodi:type="arc" />
  </g>
</svg>
