<?xml version="1.0" encoding="UTF-8" standalone="no"?>
<!-- Created with Inkscape (http://www.inkscape.org/) -->

<svg
   xmlns:dc="http://purl.org/dc/elements/1.1/"
   xmlns:cc="http://creativecommons.org/ns#"
   xmlns:rdf="http://www.w3.org/1999/02/22-rdf-syntax-ns#"
   xmlns:svg="http://www.w3.org/2000/svg"
   xmlns="http://www.w3.org/2000/svg"
   xmlns:sodipodi="http://sodipodi.sourceforge.net/DTD/sodipodi-0.dtd"
   xmlns:inkscape="http://www.inkscape.org/namespaces/inkscape"
   id="svg2"
   version="1.1"
   inkscape:version="0.48.2 r9819"
   width="349"
   height="354"
   sodipodi:docname="mode_polarline.gif">
  <metadata
     id="metadata8">
    <rdf:RDF>
      <cc:Work
         rdf:about="">
        <dc:format>image/svg+xml</dc:format>
        <dc:type
           rdf:resource="http://purl.org/dc/dcmitype/StillImage" />
        <dc:title></dc:title>
      </cc:Work>
    </rdf:RDF>
  </metadata>
  <defs
     id="defs6" />
  <sodipodi:namedview
     pagecolor="#ffffff"
     bordercolor="#666666"
     borderopacity="1"
     objecttolerance="10"
     gridtolerance="10"
     guidetolerance="10"
     inkscape:pageopacity="0"
     inkscape:pageshadow="2"
     inkscape:window-width="1618"
     inkscape:window-height="1028"
     id="namedview4"
     showgrid="false"
     inkscape:zoom="0.94280904"
     inkscape:cx="179.61645"
     inkscape:cy="231.14052"
     inkscape:window-x="54"
     inkscape:window-y="-8"
     inkscape:window-maximized="1"
     inkscape:current-layer="svg2" />
  <g
     id="g3021">
    <path
       style="fill:#fdfdfd"
       d="m 1.1001208e-7,177.75 0,-176.99999999 174.49999988998791,0 174.5,0 0,176.99999999 0,177 -174.5,0 -174.49999988998791,0 0,-177 z"
       id="path3003"
       inkscape:connector-curvature="0" />
    <path
       sodipodi:nodetypes="scssssssscssssssssssscscsssscsssssssssssss"
       style="fill:#fd0b0b"
       d="m 318.51003,358.43588 c -0.92254,-2.41019 -74.93453,-104.27365 -75.78777,-104.31889 -0.37747,-0.02 -6.74726,0.41211 -14.72226,0.23108 -17.6088,-0.39972 -26.06758,-2.40515 -40.5,-9.60183 -18.00695,-8.97911 -32.24015,-23.33065 -41.00193,-41.34281 -7.02779,-14.4475 -8.79849,-22.44379 -8.89159,-40.15343 -0.0848,-16.13146 1.77209,-26.18494 6.76224,-36.61188 1.42261,-2.97256 2.9099,-3.82049 2.45241,-5.05721 C 146.04596,119.48543 65.147409,6.7602842 61.708859,3 l -2.057487,-2.24999999 4.924314,0.007802 c 4.125561,0.006536 5.093065,0.37232939 5.964662,2.25511589 2.111813,4.5618436 79.456572,110.3337021 80.667862,110.3337021 0.69037,0 1.76005,-2.46137 3.26832,-4.74052 7.64475,-11.552003 25.41173,-25.353791 39.76154,-30.887662 13.21941,-5.097946 19.9745,-6.327542 34.76193,-6.327542 18.75029,0 31.25341,3.32985 47.5,12.650268 8.95957,5.139969 25.79601,21.809096 30.87899,30.572146 30.21657,52.09323 6.76669,116.59618 -49.2454,135.45803 -6.98879,2.35345 -7.13944,2.03758 -5.82094,4.57899 2.24952,4.33596 68.87919,96.49455 71.09686,98.32743 2.03652,1.68316 4.34063,5.57323 -0.8044,5.59489 -4.12123,0.0174 -3.57238,1.22881 -4.09508,-0.13677 z M 237.82497,247.84099 c -0.0874,-2.60179 -84.92025,-120.35052 -86.71334,-120.35052 -1.84481,0 -4.64672,10.13978 -6.68328,20.91204 -7.77002,41.09889 18.71739,84.18015 59.2314,96.33876 10.03034,3.0102 15.61732,3.83327 24.84025,3.65948 7.30759,-0.1377 9.38631,1.26714 9.32497,-0.55976 z m 22.38359,-5.27694 c 38.94064,-14.78836 62.14879,-58.93283 52.21255,-99.31405 -7.91655,-32.17315 -32.1991,-56.116038 -65.06768,-64.157542 -9.56485,-2.340101 -28.62132,-2.289297 -37.76897,0.10069 -20.87099,5.452921 -38.14041,17.061249 -50.56189,33.987192 -4.3252,5.89367 -4.73951,4.42369 -3.07511,7.32373 2.88285,5.02308 89.00125,124.11152 91.07681,125.94766 2.30207,2.0365 2.10577,0.31956 13.18429,-3.88768 z m -205.063401,59.116 C 47.266133,298.52431 43,292.05053 43,283.25 c 0,-11.06178 6.909673,-18.50418 17.918985,-19.30052 21.537428,-1.55788 29.176475,26.99734 9.870853,36.89784 -3.968965,2.0354 -11.624555,2.44289 -15.644679,0.83273 z"
       id="path2993"
       inkscape:connector-curvature="0" />
    <path
       sodipodi:nodetypes="ssssssssssssssssssssssssssscssssssss"
       style="fill:#0b0b0c"
       d="M 55.520159,301.68005 C 47.641133,298.52431 43.375,292.05053 43.375,283.25 c 0,-11.06178 6.909673,-18.50418 17.918985,-19.30052 21.537428,-1.55788 29.176475,26.99734 9.870853,36.89784 -3.968965,2.0354 -11.624555,2.44289 -15.644679,0.83273 z m 13.956958,-8.21265 c 4.824457,-3.24093 6.783779,-9.10285 4.791878,-14.33639 -3.419211,-8.98367 -14.134109,-11.06026 -20.609646,-3.99423 -9.796706,10.69006 3.77653,26.41957 15.817768,18.33062 z M 212.14435,253.6916 c -34.01033,-6.14719 -63.04387,-33.22607 -72.36797,-67.4416 -3.18595,-11.69109 -3.25494,-34.82885 -0.1386,-46.27967 2.58509,-9.49874 5.89002,-18.14841 7.18892,-18.14841 0.50629,0 2.61325,3.12085 3.46679,4.42351 1.43261,2.18645 1.23744,-0.56031 -0.94689,4.86915 -8.41656,20.92051 -7.06959,50.72073 4.08581,71.45944 11.47256,21.32832 29.30414,35.85804 52.44259,42.73183 7.04063,2.09157 11.61249,2.74705 21,3.01083 10.93015,0.30713 10.53618,-1.46165 11.8354,0.47848 1.2352,1.84451 4.94751,4.70382 3.71231,5.48553 -2.13301,1.34992 -21.39427,1.01666 -30.27836,-0.58909 z m 38.30856,-1.5886 c -1.43067,-2.35589 -4.50488,-5.29234 -2.27086,-5.29234 3.34441,0 20.22928,-8.24075 27.3879,-12.91394 43.10464,-28.13901 52.2143,-86.87705 19.06321,-125.68268 C 277.56691,88.236812 255.2953,77.433377 228.875,77.401031 201.1736,77.367117 176.28469,90.16793 159.45216,113.10645 l -4.29752,5.85645 -1.82112,-2.77613 c -1.81099,-2.76069 -3.79234,-2.0724 -0.66043,-6.62725 11.41627,-16.603095 34.32443,-31.425413 56.53089,-36.904154 9.26592,-2.286073 31.19905,-1.87373 40.52445,0.424678 18.24502,4.496805 30.76048,11.589969 44.24055,25.073434 10.22509,10.227662 15.18597,17.382172 20.02566,28.880772 19.65281,46.69301 -2.60937,101.2891 -49.21279,120.69015 -10.40339,4.33094 -12.68981,7.07774 -14.32894,4.3786 z"
       id="path2989"
       inkscape:connector-curvature="0" />
    <path
       transform="matrix(0.8613199,0,0,0.83976177,30.881951,103.30667)"
       d="m 51.75,214.125 a 15.375,16.125 0 1 1 -30.75,0 15.375,16.125 0 1 1 30.75,0 z"
       sodipodi:ry="16.125"
       sodipodi:rx="15.375"
       sodipodi:cy="214.125"
       sodipodi:cx="36.375"
       id="path3015"
       style="fill:#0000ff;fill-opacity:1;stroke:none"
       sodipodi:type="arc" />
    <path
       inkscape:connector-curvature="0"
       id="path3017"
       d="m 57.202111,302.24925 c -1.037032,-0.22027 -1.601299,-0.39636 -2.542103,-0.79334 -0.606668,-0.25598 -1.79791,-0.84684 -2.346878,-1.16404 -5.671034,-3.27688 -8.84382,-8.60932 -9.248294,-15.54344 -0.01967,-0.33726 -0.0313,-1.09795 -0.02584,-1.69043 l 0.0099,-1.07723 0.165728,-0.01 0.165729,-0.01 0.0012,1.33553 c 0.0014,1.50314 0.04238,2.14638 0.217202,3.40714 0.455198,3.28282 1.620849,6.23079 3.420678,8.65101 1.725889,2.32079 3.941584,4.14507 6.718904,5.53197 1.549832,0.77393 2.491376,1.11843 3.811748,1.39469 0.246106,0.0515 0.402719,0.0938 0.348029,0.0939 -0.05469,2e-4 -0.367917,-0.0567 -0.696058,-0.12639 z"
       style="fill:#0b0b0c;fill-opacity:1;stroke:none" />
    <path
       inkscape:connector-curvature="0"
       id="path3019"
       d="m 43.078166,281.56877 c 0.134588,-2.38558 0.738289,-4.9538 1.650722,-7.02238 2.217584,-5.02748 6.411234,-8.48178 12.02926,-9.90847 0.709883,-0.18027 1.443681,-0.33642 1.561239,-0.33221 0.04178,0.001 -0.148156,0.0521 -0.422083,0.11238 -3.637004,0.80085 -6.675167,2.36893 -9.061242,4.67675 -3.236806,3.13066 -5.076396,7.37679 -5.423478,12.51846 -0.01415,0.2096 -0.03529,0.32329 -0.06015,0.32353 -0.02109,2e-4 -0.09664,0.01 -0.167901,0.0218 l -0.129563,0.0214 0.0232,-0.41122 0,0 z"
       style="fill:#0b0b0c;fill-opacity:1;stroke:none" />
  </g>
</svg>
