<svg xmlns="http://www.w3.org/2000/svg" id="mode_toggle_numeric_black" viewBox="0 0 512 512" width="512" height="512"><defs><style>.cls-1{fill:#fff}</style></defs><path d="M351.13 220.3q-21.18 20.79-51 20.79-11.38 0-43.15-11.77-34.33-12.75-47.66-12.75-24.91 0-48.45 24.91V205.4q20.59-21.77 51.39-21.77 13.73 0 51 13.53 31 11 40.6 11 26.08 0 47.27-24.91zm0 87.09q-21.18 21-51 21-11.38 0-43.15-11.77-34.33-12.75-47.66-12.75-24.91 0-48.45 24.91v-36.3q20.59-21.57 51.39-21.58 13.73 0 51 13.34 31 11.18 40.6 11.18 26.08 0 47.27-24.91z" class="cls-1"/></svg>