<svg width="24" height="24" xmlns="http://www.w3.org/2000/svg">

 <g>
  <title>background</title>
  <rect fill="none" id="canvas_background" height="402" width="582" y="-1" x="-1"/>
 </g>
 <g>
  <title>Layer 1</title>
  <path fill="#6557d2" id="svg_2" d="m9,16l2,0l0,-8l-2,0l0,8zm3,-14c-5.52,0 -10,4.48 -10,10s4.48,10 10,10s10,-4.48 10,-10s-4.48,-10 -10,-10zm0,18c-4.41,0 -8,-3.59 -8,-8s3.59,-8 8,-8s8,3.59 8,8s-3.59,8 -8,8zm1,-4l2,0l0,-8l-2,0l0,8z"/>
  <path id="svg_1" fill="none" d="m0,0l24,0l0,24l-24,0l0,-24z"/>
 </g>
</svg>