<?xml version="1.0" encoding="iso-8859-1"?>
<!-- Generator: Adobe Illustrator 15.1.0, SVG Export Plug-In . SVG Version: 6.00 Build 0)  -->
<!DOCTYPE svg PUBLIC "-//W3C//DTD SVG 1.1//EN" "http://www.w3.org/Graphics/SVG/1.1/DTD/svg11.dtd">
<svg version="1.1" xmlns="http://www.w3.org/2000/svg" xmlns:xlink="http://www.w3.org/1999/xlink" x="0px" y="0px" width="712px"
	 height="512px" viewBox="0 0 712 512" style="enable-background:new 0 0 712 512;" xml:space="preserve">
<g id="stylingbar_x5F_icon_x5F_construction_x5F_protocol">
	<g>
		<rect y="41.96" style="fill:#999999;" width="454.811" height="60"/>
		<rect y="226" style="fill:#999999;" width="454.811" height="60"/>
		<rect y="412.039" style="fill:#999999;" width="454.811" height="60.001"/>
	</g>
	<rect x="181.962" style="fill:#FFFFFF;" width="530.038" height="512"/>
	<rect x="200" y="352" style="fill:#9999FF;" width="512" height="160"/>
	<g>
		<path style="fill:#666666;" d="M320.242,126.102h-12.773l-9.375-23.203h-42.422l-9.492,23.203h-12.422L270.203,39.5h13.125
			L320.242,126.102z M293.055,92.703l-16.523-39.961l-16.172,39.961H293.055z"/>
		<path style="fill:#666666;" d="M417.977,82.859h-71.953v-7.383h71.953V82.859z M417.977,104.773h-71.953v-7.5h71.953V104.773z"/>
		<path style="fill:#666666;" d="M474.109,141.922h-7.617c-9.063-16.406-13.594-33.75-13.594-52.031
			c0-18.358,4.53-35.742,13.594-52.148h7.617c-6.563,18.438-9.844,35.821-9.844,52.148
			C464.266,105.828,467.547,123.172,474.109,141.922z"/>
		<path style="fill:#666666;" d="M530.594,126.102h-11.133V53.914c-4.453,3.125-10.704,6.445-18.75,9.961v-9.961
			c3.437-2.109,6.659-4.413,9.668-6.914c3.007-2.5,5.136-4.395,6.387-5.684c1.249-1.289,1.875-1.894,1.875-1.816h11.953V126.102z"/>
		<path style="fill:#666666;" d="M579.461,111.336l-13.125,30h-8.438l7.266-30H579.461z"/>
		<path style="fill:#666666;" d="M630.672,126.102h-11.133V53.914c-4.453,3.125-10.704,6.445-18.75,9.961v-9.961
			c3.437-2.109,6.659-4.413,9.668-6.914c3.007-2.5,5.136-4.395,6.387-5.684c1.249-1.289,1.875-1.894,1.875-1.816h11.953V126.102z"/>
		<path style="fill:#666666;" d="M684.461,89.891c0,18.204-4.493,35.548-13.477,52.031h-7.734
			c6.563-18.75,9.844-36.094,9.844-52.031c0-16.328-3.281-33.71-9.844-52.148h7.734C679.968,54.227,684.461,71.609,684.461,89.891z"
			/>
		<path style="fill:#666666;" d="M305.594,274.961c0,6.797-2.578,12.521-7.734,17.168c-5.156,4.649-11.25,6.973-18.281,6.973
			h-37.969V212.5h34.805c7.5,0,13.711,1.816,18.633,5.449s7.383,8.926,7.383,15.879c0,2.735-0.509,5.273-1.523,7.617
			c-1.017,2.344-2.247,4.18-3.691,5.508c-1.446,1.329-2.892,2.481-4.336,3.457c-1.446,0.978-2.677,1.661-3.691,2.051l-1.523,0.469
			c0.469,0.157,1.113,0.352,1.934,0.586s2.265,0.938,4.336,2.109c2.069,1.172,3.886,2.501,5.449,3.984
			c1.562,1.484,2.988,3.594,4.277,6.328C304.949,268.673,305.594,271.68,305.594,274.961z M291.297,235.469
			c0-8.359-6.173-12.539-18.516-12.539H253.68v25.781h18.867C285.046,248.711,291.297,244.298,291.297,235.469z M293.875,273.672
			c0-4.844-1.856-8.555-5.566-11.133c-3.712-2.578-9.161-3.867-16.348-3.867H253.68v30h18.867c6.328,0,11.464-1.406,15.41-4.219
			C291.901,281.641,293.875,278.048,293.875,273.672z"/>
		<path style="fill:#666666;" d="M408.719,255.859h-71.953v-7.383h71.953V255.859z M408.719,277.773h-71.953v-7.5h71.953V277.773z"
			/>
		<path style="fill:#666666;" d="M464.852,314.922h-7.617c-9.063-16.406-13.594-33.75-13.594-52.031
			c0-18.358,4.53-35.742,13.594-52.148h7.617c-6.563,18.438-9.844,35.821-9.844,52.148
			C455.008,278.828,458.289,296.172,464.852,314.922z"/>
		<path style="fill:#666666;" d="M535.516,299.102H483.25v-11.133c10.155-11.327,18.223-20.332,24.199-27.012
			s10.155-11.836,12.539-15.469c2.382-3.633,3.574-6.815,3.574-9.551c0-5.233-1.017-9.082-3.047-11.543
			c-2.032-2.461-5.431-3.691-10.195-3.691c-4.219,0-7.383,1.212-9.492,3.633c-2.109,2.422-3.478,6.29-4.102,11.602h-12.188
			c1.249-16.796,9.844-25.195,25.781-25.195c7.89,0,14.063,2.402,18.516,7.207s6.68,10.254,6.68,16.348
			c0,1.875-0.157,3.594-0.469,5.156c-0.313,1.563-0.82,3.223-1.523,4.98s-1.661,3.574-2.871,5.449
			c-1.212,1.875-2.735,4.004-4.57,6.387c-1.837,2.384-4.005,4.98-6.504,7.793c-2.501,2.813-5.411,6.094-8.73,9.844
			c-3.321,3.75-7.09,7.892-11.309,12.422c-1.329,1.485-2.344,2.618-3.047,3.398h39.023V299.102z"/>
		<path style="fill:#666666;" d="M570.203,284.336l-13.125,30h-8.438l7.266-30H570.203z"/>
		<path style="fill:#666666;" d="M635.594,299.102h-52.266v-11.133c10.155-11.327,18.223-20.332,24.199-27.012
			s10.155-11.836,12.539-15.469c2.382-3.633,3.574-6.815,3.574-9.551c0-5.233-1.017-9.082-3.047-11.543
			c-2.032-2.461-5.431-3.691-10.195-3.691c-4.219,0-7.383,1.212-9.492,3.633c-2.109,2.422-3.478,6.29-4.102,11.602h-12.188
			c1.249-16.796,9.844-25.195,25.781-25.195c7.89,0,14.063,2.402,18.516,7.207s6.68,10.254,6.68,16.348
			c0,1.875-0.157,3.594-0.469,5.156c-0.313,1.563-0.82,3.223-1.523,4.98s-1.661,3.574-2.871,5.449
			c-1.212,1.875-2.735,4.004-4.57,6.387c-1.837,2.384-4.005,4.98-6.504,7.793c-2.501,2.813-5.411,6.094-8.73,9.844
			c-3.321,3.75-7.09,7.892-11.309,12.422c-1.329,1.485-2.344,2.618-3.047,3.398h39.023V299.102z"/>
		<path style="fill:#666666;" d="M675.203,262.891c0,18.204-4.493,35.548-13.477,52.031h-7.734
			c6.563-18.75,9.844-36.094,9.844-52.031c0-16.328-3.281-33.71-9.844-52.148h7.734C670.71,227.227,675.203,244.609,675.203,262.891
			z"/>
		<path style="fill:#333333;" d="M291.297,472.102h-10.781c-0.86-4.53-1.329-7.46-1.406-8.789c-2.032,2.423-3.673,4.239-4.922,5.449
			c-1.251,1.212-3.047,2.325-5.391,3.34s-5.001,1.523-7.969,1.523c-5.704,0-10.957-1.542-15.762-4.629
			c-4.805-3.085-7.207-7.324-7.207-12.715c0-3.516,0.683-6.601,2.051-9.258c1.366-2.655,3.124-4.784,5.273-6.387
			c2.147-1.601,4.706-2.909,7.676-3.926c2.968-1.015,5.859-1.699,8.672-2.051s5.78-0.527,8.906-0.527
			c0.938,0,2.304,0.04,4.102,0.117c1.796,0.079,3.164,0.117,4.102,0.117c1.015-4.608,0.429-8.397-1.758-11.367
			c-2.188-2.968-5.899-4.453-11.133-4.453c-3.673,0-6.837,0.782-9.492,2.344c-2.657,1.563-3.984,4.024-3.984,7.383h-11.133
			c0-11.796,8.046-17.695,24.141-17.695c12.733,0,20.429,3.398,23.086,10.195c0.938,2.188,1.406,8.517,1.406,18.984v10.43
			C289.773,461.829,290.28,469.134,291.297,472.102z M278.523,442.57c-3.984-0.234-6.056-0.352-6.211-0.352
			c-2.267,0-4.57,0.176-6.914,0.527s-4.845,0.938-7.5,1.758c-2.657,0.82-4.805,2.13-6.445,3.926
			c-1.641,1.798-2.461,3.946-2.461,6.445c0,3.281,1.172,5.899,3.516,7.852c2.344,1.954,5.156,2.93,8.438,2.93
			c6.874,0,11.522-2.011,13.945-6.035C277.312,455.599,278.523,449.915,278.523,442.57z"/>
		<path style="fill:#333333;" d="M322.938,426.867H309.93v-14.766h13.008V426.867z M322.938,472.102H309.93v-14.766h13.008V472.102z
			"/>
		<path style="fill:#333333;" d="M392.195,478.781l2.461-6.68l-25.664-60h12.656l18.867,45.234l17.461-45.234h11.602l-28.594,73.359
			L397,495.891h-11.016L392.195,478.781z"/>
		<path style="fill:#333333;" d="M527.313,428.859h-71.953v-7.383h71.953V428.859z M527.313,450.773h-71.953v-7.5h71.953V450.773z"
			/>
		<path style="fill:#333333;" d="M614.617,472.102h-13.711l-17.578-23.672l-16.992,23.672H553.68l23.906-31.055l-22.031-28.945
			h13.711l15.82,21.445l15.352-21.445h12.539l-22.266,28.945L614.617,472.102z"/>
	</g>
	<rect x="200" y="164.422" style="fill:#999999;" width="512" height="15"/>
	<rect x="200" y="346" style="fill:#999999;" width="512" height="15"/>
</g>
<g id="Ebene_1">
</g>
</svg>
